<?xml version="1.0" encoding="UTF-8" standalone="no"?>
<!-- Generator: Adobe Illustrator 14.0.0, SVG Export Plug-In  -->

<svg
   version="1.1"
   x="0px"
   y="0px"
   width="108.95812"
   height="108.94391"
   viewBox="0 -0.321 108.95811 108.94394"
   enable-background="new 0 -0.321 144 120"
   xml:space="preserve"
   id="svg2"
   inkscape:version="1.2.1 (9c6d41e410, 2022-07-14)"
   sodipodi:docname="C20 - BIKE.svg"
   xmlns:inkscape="http://www.inkscape.org/namespaces/inkscape"
   xmlns:sodipodi="http://sodipodi.sourceforge.net/DTD/sodipodi-0.dtd"
   xmlns="http://www.w3.org/2000/svg"
   xmlns:svg="http://www.w3.org/2000/svg"
   xmlns:rdf="http://www.w3.org/1999/02/22-rdf-syntax-ns#"
   xmlns:cc="http://creativecommons.org/ns#"
   xmlns:dc="http://purl.org/dc/elements/1.1/"><metadata
   id="metadata44"><rdf:RDF><cc:Work
       rdf:about=""><dc:format>image/svg+xml</dc:format><dc:type
         rdf:resource="http://purl.org/dc/dcmitype/StillImage" /></cc:Work></rdf:RDF></metadata><sodipodi:namedview
   pagecolor="#ffffff"
   bordercolor="#666666"
   borderopacity="1"
   objecttolerance="10"
   gridtolerance="10"
   guidetolerance="10"
   inkscape:pageopacity="0"
   inkscape:pageshadow="2"
   inkscape:window-width="1920"
   inkscape:window-height="1017"
   id="namedview42"
   showgrid="false"
   fit-margin-top="0"
   fit-margin-left="0"
   fit-margin-right="0"
   fit-margin-bottom="0"
   inkscape:zoom="5.3605324"
   inkscape:cx="32.83256"
   inkscape:cy="35.630789"
   inkscape:window-x="-8"
   inkscape:window-y="1144"
   inkscape:window-maximized="1"
   inkscape:current-layer="svg2"
   inkscape:showpageshadow="2"
   inkscape:pagecheckerboard="0"
   inkscape:deskcolor="#d1d1d1" />
<defs
   id="defs4">
</defs>


















<path
   inkscape:connector-curvature="0"
   d="M 51.560314,107.43231 1.2065487,57.078548 c -1.60874999,-1.60875 -1.60874999,-4.231251 0,-5.840002 L 51.557814,0.88728241 c 1.60875,-1.610001 4.233751,-1.611251 5.842501,-0.0025 L 107.75158,51.241046 c 1.60875,1.608751 1.60875,4.230002 0,5.838752 L 57.400315,107.43231 c -1.58875,1.58625 -4.250001,1.58875 -5.840001,0"
   style="fill:#f4911d;fill-opacity:1;fill-rule:nonzero;stroke:none"
   id="path6980" /><path
   inkscape:connector-curvature="0"
   d="M 52.361563,106.61219 2.0265487,56.278428 c -1.15749999,-1.160001 -1.15499999,-3.078751 0,-4.238751 L 52.359063,1.7071624 c 1.16,-1.15874999 3.076251,-1.15624999 4.240001,0 L 106.92908,52.042177 c 1.1575,1.16 1.16,3.075 0,4.236251 L 56.599064,106.61219 c -1.16125,1.1525 -3.078751,1.15625 -4.237501,0"
   style="fill:#000000;fill-opacity:1;fill-rule:evenodd;stroke:none"
   id="path6984" /><path
   inkscape:connector-curvature="0"
   d="M 53.481563,105.46231 3.1765487,55.157297 c -0.55625,-0.53875 -0.55625,-1.4575 0,-1.99625 L 53.481563,2.8572824 c 0.5375,-0.55625 1.455001,-0.55625 1.995001,0 L 105.78158,53.161047 c 0.55625,0.54 0.55625,1.45875 -0.002,1.99875 L 55.479064,105.46231 c -0.54,0.55625 -1.457501,0.55625 -1.997501,0"
   style="fill:#f4911d;fill-opacity:1;fill-rule:evenodd;stroke:none"
   id="path6988" /><path
   d="m 38.136869,55.301212 c -0.14125,-0.98125 -0.52875,-1.4375 -1.1975,-1.4375 -1.163751,0 -1.586251,0.9125 -1.586251,3.507501 0,2.876251 0.493751,4.033751 1.726251,4.033751 0.84625,0 1.0575,-0.70125 1.0575,-1.43875 h 1.443751 c -0.035,1.65 -1.092501,2.842501 -2.501251,2.842501 -2.148751,0 -3.100001,-1.718751 -3.100001,-5.402502 0,-3.227501 1.0225,-4.946251 2.995001,-4.946251 0.81,0 1.51375,0.35125 1.9725,1.0175 0.387501,0.49125 0.527501,0.91125 0.633751,1.82375 z"
   style="fill:#000000;fill-opacity:1;fill-rule:nonzero;stroke:none"
   id="path7104"
   inkscape:connector-curvature="0" /><path
   d="m 73.301879,55.056087 c -0.24375,-0.70125 -0.66375,-1.0175 -1.295,-1.0175 h -1.19 v 7.191252 h 1.19 c 0.84125,0 1.295,-0.66625 1.43625,-1.4375 0.07,-0.631251 0.13875,-1.333751 0.13875,-2.106251 0,-1.12125 -0.105,-2.208751 -0.28,-2.630001 m 0.24625,7.121252 c -0.35125,0.315 -0.84,0.455 -1.4,0.455 h -2.766251 v -9.996252 h 2.556251 c 0.83875,0 1.25875,0.105 1.61,0.38625 0.595001,0.42125 1.015001,1.1925 1.190001,2.20875 0.14,0.736251 0.245,1.613751 0.245,2.385001 0,2.316251 -0.455,3.788751 -1.435001,4.561251"
   style="fill:#000000;fill-opacity:1;fill-rule:nonzero;stroke:none"
   id="path7108"
   inkscape:connector-curvature="0" /><path
   d="m 62.581876,62.632464 v -9.996252 h 4.713752 v 1.4025 h -3.271251 v 2.526251 h 2.075 v 1.3675 h -2.075 v 3.297501 h 3.657501 v 1.4025 z"
   style="fill:#000000;fill-opacity:1;fill-rule:nonzero;stroke:none"
   id="path7112"
   inkscape:connector-curvature="0" /><path
   d="m 41.57937,62.632464 v -9.996252 h 1.442501 v 8.663752 h 3.658751 v 1.3325 z"
   style="fill:#000000;fill-opacity:1;fill-rule:nonzero;stroke:none"
   id="path7116"
   inkscape:connector-curvature="0" /><path
   d="m 52.085623,55.126212 c -0.2475,-0.8775 -0.63625,-1.2625 -1.2375,-1.2625 -0.635,0 -1.02375,0.385 -1.271251,1.2275 -0.2475,0.771251 -0.31875,1.437501 -0.31875,2.561251 0,1.0875 0.10625,1.718751 0.31875,2.525001 0.247501,0.84125 0.636251,1.2275 1.271251,1.2275 0.60125,0 0.99,-0.38625 1.2375,-1.2275 0.2475,-0.80625 0.3175,-1.403751 0.3175,-2.561251 0,-1.12125 -0.105,-1.75375 -0.3175,-2.490001 m 1.13125,5.963752 c -0.495,1.1925 -1.2375,1.718751 -2.36875,1.718751 -1.200001,0 -1.907501,-0.526251 -2.401251,-1.718751 -0.425,-0.9825 -0.56625,-1.928751 -0.56625,-3.473751 0,-1.5075 0.14125,-2.525001 0.56625,-3.472501 0.52875,-1.1925 1.23625,-1.68375 2.401251,-1.68375 1.1675,0 1.87375,0.49125 2.36875,1.71875 0.423751,0.98375 0.565001,1.930001 0.565001,3.437501 0,1.545 -0.14125,2.526251 -0.565001,3.473751"
   style="fill:#000000;fill-opacity:1;fill-rule:nonzero;stroke:none"
   id="path7120"
   inkscape:connector-curvature="0" /><path
   d="m 58.128125,58.016213 c -0.4325,-0.28 -0.8525,-0.56125 -1.12125,-0.75 -0.806251,-0.5675 -1.232501,-1.3325 -1.232501,-2.210001 0,-1.43875 1.127501,-2.59625 2.571251,-2.59625 1.40875,0 2.501251,1.08875 2.536251,2.59625 h -1.373751 c -0.035,-0.70125 -0.52875,-1.1575 -1.1625,-1.1575 -0.66875,0 -1.1975,0.49 -1.1975,1.1575 0,0.49125 0.21125,0.772501 0.95125,1.192501 1.9375,1.1225 2.782501,2.21 2.782501,3.648751 0,1.61375 -1.232501,2.911251 -2.782501,2.911251 -1.761251,0 -2.818751,-1.473751 -2.818751,-3.122501 h 1.41 c 0,0.8425 0.422501,1.71875 1.408751,1.71875 0.775,0 1.40875,-0.70125 1.40875,-1.5075 0,-0.62625 -0.25875,-1.153751 -1.38,-1.881251"
   style="fill:#000000;fill-opacity:1;fill-rule:nonzero;stroke:none"
   id="path7124"
   inkscape:connector-curvature="0" /><path
   d="m 62.69544,39.702278 -0.70375,2.876251 h 1.4425 z m 1.79375,7.015002 -0.70375,-2.735001 h -2.145001 l -0.66875,2.735001 h -1.44125 l 2.496251,-9.997503 h 1.4075 l 2.496251,9.997503 z"
   style="fill:#000000;fill-opacity:1;fill-rule:nonzero;stroke:none"
   id="path7128"
   inkscape:connector-curvature="0" /><path
   d="m 74.756693,46.717405 v -9.997503 h 4.713752 v 1.40375 h -3.271251 v 2.526251 h 2.075 v 1.36625 h -2.075 v 3.298751 h 3.658751 v 1.402501 z"
   style="fill:#000000;fill-opacity:1;fill-rule:nonzero;stroke:none"
   id="path7132"
   inkscape:connector-curvature="0" /><path
   d="m 54.060437,46.717405 v -9.997503 h 1.442501 v 8.665002 h 3.658751 v 1.332501 z"
   style="fill:#000000;fill-opacity:1;fill-rule:nonzero;stroke:none"
   id="path7136"
   inkscape:connector-curvature="0" /><path
   d="m 71.710442,46.717405 -3.081251,-6.700002 v 6.700002 h -1.435 v -9.997503 h 1.435 l 2.730001,5.998752 v -5.998752 h 1.436251 v 9.997503 z"
   style="fill:#000000;fill-opacity:1;fill-rule:nonzero;stroke:none"
   id="path7140"
   inkscape:connector-curvature="0" /><path
   d="m 73.415607,72.212013 c 0,1.281807 -0.301467,2.326744 -0.87607,2.897946 -0.268601,0.269735 -0.571203,0.371735 -1.078938,0.371735 H 69.94646 V 68.9446 h 1.715874 c 0.406868,0 0.74347,0.168867 0.978071,0.405734 0.473735,0.504337 0.775202,1.582141 0.775202,2.861679 m 1.55154,0 c 0,-1.885874 -0.573469,-3.40228 -1.584407,-4.278351 -0.505468,-0.403467 -0.874937,-0.505468 -1.853008,-0.505468 h -3.098546 v 9.605041 h 2.929679 0.538335 c 0.506604,-0.03513 1.012072,-0.204002 1.38154,-0.540603 1.077805,-0.843204 1.686407,-2.35961 1.686407,-4.280619 m -11.087446,0.573472 h -1.91874 l 0.975802,-2.696212 z m 3.100814,4.24775 -3.302549,-9.605041 H 62.16156 l -3.302547,9.605041 h 1.618407 l 0.942937,-2.696212 h 2.998814 l 0.944069,2.696212 z m -8.860438,0 V 75.481694 H 53.67286 v -2.62821 h 2.793677 V 71.301943 H 53.67286 V 68.9446 h 4.143482 v -1.516406 h -5.659889 v 9.605041 z m -8.221235,0 V 67.428194 H 48.38017 v 3.873749 h -3.502014 v -3.873749 h -1.518674 v 9.605041 h 1.518674 v -4.179751 h 3.502014 v 4.179751 z m -11.087445,-4.24775 h -1.922141 l 0.979203,-2.696212 z m 3.098545,4.24775 -3.300279,-9.605041 h -1.518674 l -3.30028,9.605041 h 1.618408 l 0.942936,-2.696212 h 2.996545 l 0.942938,2.696212 z"
   style="fill:#000000;fill-opacity:1;fill-rule:evenodd;stroke:none;stroke-width:0.90667"
   id="path5926"
   inkscape:connector-curvature="0" /><path
   inkscape:connector-curvature="0"
   style="fill:#000000;fill-rule:nonzero;stroke:none;stroke-width:0.00522899"
   d="m 32.711302,42.219779 h -1.400063 v 3.127637 h 1.400063 c 0.785434,0 1.297667,-0.562308 1.297667,-1.440716 0,-0.949 -0.580534,-1.686921 -1.297667,-1.686921 z m 0.0683,-4.076186 h -1.468364 v 2.670731 h 1.468364 c 0.648832,0 1.058598,-0.562307 1.058598,-1.475977 0,-0.843357 -0.307332,-1.194754 -1.058598,-1.194754 z m 0,8.609417 H 29.911146 V 36.738 h 3.07336 c 1.29763,0 2.219631,1.05416 2.219631,2.600347 0,0.91367 -0.239034,1.335383 -1.024434,2.178636 0.751267,0.63255 1.1952,1.476184 1.1952,2.495083 0,1.510963 -1.161065,2.740944 -2.595297,2.740944 z"
   id="path15" /><path
   inkscape:connector-curvature="0"
   style="fill:#000000;fill-rule:nonzero;stroke:none;stroke-width:0.00522899"
   d="M 44.934618,46.75301 V 36.738 h 4.598546 v 1.405593 h -3.191572 v 2.530137 h 2.024785 v 1.370437 h -2.024785 v 3.303249 h 3.569101 v 1.405594 z"
   id="path17" /><path
   inkscape:connector-curvature="0"
   style="fill:#000000;fill-rule:nonzero;stroke:none;stroke-width:0.00522899"
   d="M 36.203811,46.75301 V 36.738 h 1.365321 v 10.01501 z"
   id="path21" /><path
   inkscape:connector-curvature="0"
   style="fill:#000000;fill-rule:nonzero;stroke:none;stroke-width:0.00522899"
   d="m 42.637277,46.75301 -1.707431,-4.884456 -0.887865,1.686921 V 46.75301 H 38.641883 V 36.738 h 1.400098 v 4.006044 L 42.261609,36.738 h 1.604998 l -2.014764,3.514088 2.253797,6.500922 z"
   id="path23" /></svg>
