<?xml version="1.0" encoding="UTF-8" standalone="no"?>
<svg
   width="74.429893"
   height="74.431252"
   viewBox="0 0 210.05775 210.06152"
   version="1.1"
   id="svg2"
   inkscape:version="1.2.1 (9c6d41e410, 2022-07-14)"
   sodipodi:docname="C27.svg"
   xmlns:inkscape="http://www.inkscape.org/namespaces/inkscape"
   xmlns:sodipodi="http://sodipodi.sourceforge.net/DTD/sodipodi-0.dtd"
   xmlns="http://www.w3.org/2000/svg"
   xmlns:svg="http://www.w3.org/2000/svg"
   xmlns:rdf="http://www.w3.org/1999/02/22-rdf-syntax-ns#"
   xmlns:cc="http://creativecommons.org/ns#"
   xmlns:dc="http://purl.org/dc/elements/1.1/">
  <metadata
     id="metadata62">
    <rdf:RDF>
      <cc:Work
         rdf:about="">
        <dc:format>image/svg+xml</dc:format>
        <dc:type
           rdf:resource="http://purl.org/dc/dcmitype/StillImage" />
      </cc:Work>
    </rdf:RDF>
  </metadata>
  <defs
     id="defs60" />
  <sodipodi:namedview
     pagecolor="#ffffff"
     bordercolor="#666666"
     borderopacity="1"
     objecttolerance="10"
     gridtolerance="10"
     guidetolerance="10"
     inkscape:pageopacity="0"
     inkscape:pageshadow="2"
     inkscape:window-width="2048"
     inkscape:window-height="1089"
     id="namedview58"
     showgrid="false"
     fit-margin-top="0"
     fit-margin-left="0"
     fit-margin-right="0"
     fit-margin-bottom="0"
     inkscape:zoom="11.313709"
     inkscape:cx="47.110989"
     inkscape:cy="31.377863"
     inkscape:window-x="-8"
     inkscape:window-y="-8"
     inkscape:window-maximized="1"
     inkscape:current-layer="svg2"
     inkscape:showpageshadow="2"
     inkscape:pagecheckerboard="0"
     inkscape:deskcolor="#d1d1d1" />
  <!-- draw the bicycle -->
  <!-- RIGHT -->
  <!-- LANE -->
  <!-- ONLY -->
  <path
     d="M 206.65025,96.805734 113.26995,3.43602 C 111.11095,1.262908 108.10881,-3.6983694e-5 105.03611,-3.6983694e-5 101.97047,-3.6983694e-5 98.97892,1.262908 96.79522,3.43602 L 3.4113897,96.805734 C 1.2418097,98.978844 -0.00702031,101.95982 2.9689291e-5,105.04663 0.02122969,108.11227 1.2488597,111.11088 3.4113897,113.28046 L 96.79522,206.64665 c 2.16253,2.16253 5.19289,3.41136 8.24795,3.41489 3.05153,-0.003 6.07483,-1.25236 8.23383,-3.41489 l 93.37325,-93.36266 c 2.79752,-2.79753 3.98991,-7.0097 3.13619,-10.86203 -0.50094,-2.21897 -1.72861,-3.866446 -3.13619,-5.616226"
     style="fill:#ffd033;fill-opacity:1;fill-rule:nonzero;stroke:none"
     id="path6132"
     inkscape:connector-curvature="0" />
  <path
     d="m 204.34308,110.97329 -93.36972,93.36619 c -1.56986,1.56281 -3.71828,2.45534 -5.93019,2.45534 -2.21192,0 -4.35681,-0.89253 -5.92667,-2.45534 L 5.7079797,110.96977 c -1.55223,-1.55223 -2.43417,-3.72886 -2.43417,-5.92667 0.007,-2.19781 0.889,-4.37797 2.43769,-5.930196 L 99.10944,5.718492 c 1.56281,-1.545167 3.73592,-2.430639 5.92667,-2.430639 2.19781,0 4.3815,0.885472 5.93725,2.430639 l 93.36972,93.397942 c 1.56633,1.569856 2.45181,3.714746 2.45181,5.926666 0,2.21544 -0.88548,4.36033 -2.45181,5.93019"
     style="fill:#000000;fill-opacity:1;fill-rule:evenodd;stroke:none"
     id="path6140"
     inkscape:connector-curvature="0" />
  <path
     d="m 201.12575,107.74891 c 0.70908,-0.70203 1.12183,-1.71451 1.12183,-2.70581 0,-0.98072 -0.41275,-2.02142 -1.12183,-2.71992 L 107.74192,8.94641 c -0.69497,-0.6985 -1.7145,-1.111251 -2.69875,-1.111251 -0.98778,0 -2.02142,0.412751 -2.72345,1.111251 L 8.9323697,102.32318 c -0.70556,0.70909 -1.09714,1.71803 -1.09714,2.71639 0.007,0.99836 0.39158,1.9932 1.10419,2.70581 l 93.3803003,93.39088 c 0.70203,0.6985 1.74272,1.11125 2.72345,1.11125 0.9913,0 2.00378,-0.41275 2.7058,-1.11125 l 93.37678,-93.38735 z"
     style="fill:#ffd033;fill-opacity:1;fill-rule:evenodd;stroke:none"
     id="path6144"
     inkscape:connector-curvature="0" />
  <path
     style="fill:#f4911d;fill-opacity:1;stroke-width:0.125"
     d="M 36.625,71.386973 C 36.028461,71.009814 2.970417,37.843495 2.8778463,37.529287 2.8319548,37.373521 2.8545539,37.063828 2.9280664,36.841083 3.0228755,36.55381 7.9401257,31.558595 19.845377,19.655546 L 36.629028,2.875 h 0.559968 0.559967 l 16.906769,16.906767 16.906767,16.906769 v 0.55996 0.55996 L 54.843749,54.541878 C 45.003961,64.390302 37.9595,71.347242 37.722765,71.450149 37.198625,71.67799 37.073943,71.670815 36.625,71.386973 Z"
     id="path14819"
     transform="scale(2.8222225)" />
  <path
     style="fill:#f4911d;fill-opacity:1;stroke-width:0.125"
     d="M 36.125,74.208167 C 35.85,74.116784 35.428125,73.942525 35.1875,73.820924 34.946875,73.699323 27.116225,65.969557 17.786056,56.643666 -1.2236238,37.642701 0.13102776,39.130417 0.12700539,37.25 0.12301816,35.38601 -1.3656287,37.022217 17.662512,17.976297 29.35288,6.2750072 34.914851,0.79099204 35.310521,0.57564137 36.405018,-0.0200589 37.853497,-0.04649584 39.033562,0.50769022 39.498957,0.7262511 43.176759,4.3313019 56.291221,17.423971 65.457643,26.575162 73.197938,34.4 73.491877,34.8125 c 0.29394,0.4125 0.598827,0.941206 0.677528,1.174902 0.229114,0.680333 0.1743,1.917668 -0.120791,2.726659 -0.253284,0.694376 -0.949565,1.40972 -17.331895,17.806402 -14.285996,14.298512 -17.178281,17.136959 -17.744542,17.414229 -0.81751,0.400296 -2.09599,0.523096 -2.847177,0.273475 z m 2.486883,-1.22664 C 38.956622,72.81017 44.632697,67.223604 55.909197,55.956988 68.989274,42.888373 72.76171,39.051048 73.002947,38.569207 73.416485,37.743213 73.419674,36.792183 73.011772,35.9375 72.76994,35.430786 69.499542,32.104717 55.731743,18.36332 40.902203,3.5622161 38.684793,1.3958166 38.235497,1.2695694 37.390012,1.0319978 36.556472,1.0900303 35.868292,1.4343782 35.386007,1.6757019 31.548967,5.4496083 18.425039,18.590629 6.6064467,30.424611 1.5332712,35.584733 1.375559,35.932308 1.0824564,36.578265 1.0678286,37.66476 1.3426725,38.375 c 0.182614,0.471902 2.9529954,3.297621 17.2008045,17.544383 15.964763,15.963586 17.02356,16.996215 17.657328,17.220882 0.798795,0.28317 1.63246,0.228284 2.411078,-0.158738 z"
     id="path14821"
     transform="scale(2.8222225)" />
  <path
     inkscape:connector-curvature="0"
     d="M 140.06353,92.544898 V 67.489175 h -3.24459 v 16.478513 l -8.70725,-16.478513 h -3.35817 v 25.055723 h 3.35817 V 75.313717 l 9.04815,17.231181 z m -19.12143,0 v -4.514734 h -10.70068 v -6.846436 h 5.69126 v -4.589906 h -5.69126 V 71.928831 H 120.6556 V 67.489175 H 106.82647 V 92.544898 Z M 100.33865,75.088384 c 0,1.88103 -1.138795,3.084366 -2.788852,3.084366 h -5.520739 v -6.243919 h 5.520739 c 1.650057,0 2.788852,1.278515 2.788852,3.159553 m 3.41495,0 c 0,-2.783962 -1.13752,-5.267503 -2.95921,-6.546023 -1.081931,-0.827845 -1.935427,-1.053186 -3.358165,-1.053186 h -8.877707 v 25.055723 h 3.470541 v -9.857313 h 5.407166 c 1.422738,0 2.276234,-0.225335 3.358165,-0.978108 1.82169,-1.353599 2.95921,-3.987291 2.95921,-6.621093 m -22.936547,4.890319 c 0,3.83714 -0.853425,8.502131 -4.437616,8.502131 -2.845636,0 -4.61054,-3.159546 -4.61054,-8.502131 0,-5.340991 1.764904,-8.502125 4.61054,-8.502125 2.844357,0 4.437616,3.161134 4.437616,8.502125 m 3.414949,-0.150257 c 0,-7.599096 -3.18644,-12.791524 -7.852565,-12.791524 -5.009492,0 -8.025489,4.891909 -8.025489,12.941781 0,6.320687 2.447879,13.016864 8.025489,13.016864 4.780977,0 7.852565,-5.342584 7.852565,-13.167121"
     style="fill:#000000;fill-opacity:1;fill-rule:evenodd;stroke:none;stroke-width:0.91836"
     id="path6827" />
  <path
     inkscape:connector-curvature="0"
     d="m 159.26782,127.11378 v -25.07852 h -3.61161 v 10.20749 h -6.86145 v -10.20749 h -3.60954 v 25.07852 h 3.60954 v -11.35141 h 6.86145 v 11.35141 z"
     style="fill:#000000;fill-opacity:1;fill-rule:evenodd;stroke:none;stroke-width:0.5928"
     id="path3319-3"
     sodipodi:nodetypes="ccccccccccccc" />
  <path
     inkscape:connector-curvature="0"
     d="m 68.733734,105.54097 v -3.346 h -12.76091 v 3.346 h 4.575696 v 21.73245 h 3.611611 v -21.73245 z"
     style="fill:#000000;fill-opacity:1;fill-rule:evenodd;stroke:none;stroke-width:0.5928"
     id="path3323"
     sodipodi:nodetypes="ccccccccc" />
  <path
     inkscape:connector-curvature="0"
     d="m 103.37963,127.144 v -3.52171 h -9.149291 v -8.27098 h 5.190527 v -3.42964 h -5.190527 v -6.34076 h 8.181031 v -3.51543 H 90.622908 V 127.144 Z M 82.964683,108.75125 c 0,2.02649 -1.143926,3.17042 -3.254009,3.17042 h -3.697359 v -6.34076 h 3.697359 c 1.934422,0 3.254009,1.23384 3.254009,3.17034 M 86.48638,127.144 82.878949,114.82431 c 2.373585,-0.8825 3.607431,-3.07835 3.607431,-6.07306 0,-4.04865 -2.639179,-6.68577 -6.600047,-6.68577 h -7.48255 V 127.144 h 3.609532 v -11.79269 h 3.431763 l 3.343945,11.79269 z"
     style="fill:#000000;fill-opacity:1;fill-rule:evenodd;stroke:none;stroke-width:0.5928"
     id="path3319-0"
     sodipodi:nodetypes="ccccccccccccccsccscccssccccccc" />
  <path
     inkscape:connector-curvature="0"
     d="m 122.8379,127.27428 v -25.23024 h -3.25708 v 16.59329 l -8.74079,-16.59329 h -3.37109 v 25.23024 h 3.37109 v -17.3512 l 9.08298,17.3512 z"
     style="fill:#000000;fill-opacity:1;fill-rule:evenodd;stroke:none;stroke-width:0.923322"
     id="path6827-6"
     sodipodi:nodetypes="ccccccccccc" />
  <path
     id="path2027"
     d="m 138.06522,121.20441 c 0.0634,-0.0978 0.12742,-0.19502 0.18633,-0.28883 0.0681,-0.11829 0.20809,-0.16557 0.32732,-0.11424 l 2.92877,1.22234 c 0.13611,0.0508 0.19964,0.20758 0.14003,0.34392 -0.53479,1.22283 -1.66392,2.62379 -2.69551,3.3409 -1.12079,0.78124 -2.96299,1.37532 -4.47438,1.37532 -2.52153,0 -4.87751,-1.17555 -6.18905,-2.80146 -1.15036,-1.43065 -2.70381,-4.60574 -2.69965,-10.07801 0,-0.0677 0,-0.14441 0,-0.22066 0,-2.73376 0.80689,-5.71361 2.04218,-7.88274 1.49823,-2.62805 3.99446,-4.08889 6.91515,-4.08889 4.63127,0.005 6.73262,3.54946 7.19948,5.13689 0.0379,0.14012 -0.0342,0.27981 -0.17032,0.3311 l -2.9923,0.98909 c -0.13599,0.0423 -0.28018,-0.0254 -0.33125,-0.1613 -0.50522,-1.41354 -2.12257,-2.61498 -3.8884,-2.61498 -4.2618,0 -5.04742,6.58416 -5.04742,8.45258 0,7.75115 2.88671,9.22812 5.08556,9.22812 1.29894,0 2.59754,-0.65368 3.43007,-1.84228 l 0.23339,-0.32687"
     style="clip-rule:evenodd;overflow:visible;fill-rule:evenodd;stroke-width:0.243233" />
</svg>
