<?xml version="1.0" encoding="UTF-8" standalone="no"?>
<!-- Generator: Adobe Illustrator 14.0.0, SVG Export Plug-In  -->

<svg
   version="1.1"
   x="0px"
   y="0px"
   width="108.95812"
   height="108.94391"
   viewBox="0 -0.321 108.95811 108.94394"
   enable-background="new 0 -0.321 144 120"
   xml:space="preserve"
   id="svg2"
   inkscape:version="1.2.1 (9c6d41e410, 2022-07-14)"
   sodipodi:docname="C30.svg"
   xmlns:inkscape="http://www.inkscape.org/namespaces/inkscape"
   xmlns:sodipodi="http://sodipodi.sourceforge.net/DTD/sodipodi-0.dtd"
   xmlns="http://www.w3.org/2000/svg"
   xmlns:svg="http://www.w3.org/2000/svg"
   xmlns:rdf="http://www.w3.org/1999/02/22-rdf-syntax-ns#"
   xmlns:cc="http://creativecommons.org/ns#"
   xmlns:dc="http://purl.org/dc/elements/1.1/"><metadata
   id="metadata44"><rdf:RDF><cc:Work
       rdf:about=""><dc:format>image/svg+xml</dc:format><dc:type
         rdf:resource="http://purl.org/dc/dcmitype/StillImage" /></cc:Work></rdf:RDF></metadata><sodipodi:namedview
   pagecolor="#ffffff"
   bordercolor="#666666"
   borderopacity="1"
   objecttolerance="10"
   gridtolerance="10"
   guidetolerance="10"
   inkscape:pageopacity="0"
   inkscape:pageshadow="2"
   inkscape:window-width="1920"
   inkscape:window-height="1017"
   id="namedview42"
   showgrid="false"
   fit-margin-top="0"
   fit-margin-left="0"
   fit-margin-right="0"
   fit-margin-bottom="0"
   inkscape:zoom="5.3605324"
   inkscape:cx="44.398575"
   inkscape:cy="43.65238"
   inkscape:window-x="-8"
   inkscape:window-y="1144"
   inkscape:window-maximized="1"
   inkscape:current-layer="svg2"
   inkscape:showpageshadow="2"
   inkscape:pagecheckerboard="0"
   inkscape:deskcolor="#d1d1d1" />
<defs
   id="defs4">
</defs>


















<path
   inkscape:connector-curvature="0"
   d="M 51.560314,107.43231 1.2065487,57.078548 c -1.60874999,-1.60875 -1.60874999,-4.231251 0,-5.840002 L 51.557814,0.88728241 c 1.60875,-1.610001 4.233751,-1.611251 5.842501,-0.0025 L 107.75158,51.241046 c 1.60875,1.608751 1.60875,4.230002 0,5.838752 L 57.400315,107.43231 c -1.58875,1.58625 -4.250001,1.58875 -5.840001,0"
   style="fill:#f4911d;fill-opacity:1;fill-rule:nonzero;stroke:none"
   id="path6980" /><path
   inkscape:connector-curvature="0"
   d="M 52.361563,106.61219 2.0265487,56.278428 c -1.15749999,-1.160001 -1.15499999,-3.078751 0,-4.238751 L 52.359063,1.7071624 c 1.16,-1.15874999 3.076251,-1.15624999 4.240001,0 L 106.92908,52.042177 c 1.1575,1.16 1.16,3.075 0,4.236251 L 56.599064,106.61219 c -1.16125,1.1525 -3.078751,1.15625 -4.237501,0"
   style="fill:#000000;fill-opacity:1;fill-rule:evenodd;stroke:none"
   id="path6984" /><path
   inkscape:connector-curvature="0"
   d="M 53.481563,105.46231 3.1765487,55.157297 c -0.55625,-0.53875 -0.55625,-1.4575 0,-1.99625 L 53.481563,2.8572824 c 0.5375,-0.55625 1.455001,-0.55625 1.995001,0 L 105.78158,53.161047 c 0.55625,0.54 0.55625,1.45875 -0.002,1.99875 L 55.479064,105.46231 c -0.54,0.55625 -1.457501,0.55625 -1.997501,0"
   style="fill:#f4911d;fill-opacity:1;fill-rule:evenodd;stroke:none"
   id="path6988" /><path
   d="m 32.244849,60.265761 c -0.194588,-1.351783 -0.728413,-1.980318 -1.649691,-1.980318 -1.603198,0 -2.18524,1.257071 -2.18524,4.831977 0,3.96236 0.680198,5.556946 2.378105,5.556946 1.165805,0 1.456826,-0.96605 1.456826,-1.98204 h 1.988929 c -0.04822,2.273061 -1.505043,3.915865 -3.445755,3.915865 -2.960146,0 -4.2706,-2.367773 -4.2706,-7.442554 0,-4.446246 1.408609,-6.814018 4.125951,-6.814018 1.115866,0 2.085361,0.483886 2.717341,1.401721 0.533826,0.676752 0.726692,1.255349 0.873063,2.512421 z"
   style="fill:#000000;fill-opacity:1;fill-rule:nonzero;stroke:none;stroke-width:1.37761"
   id="path7104"
   inkscape:connector-curvature="0" /><path
   d="m 80.688609,59.928073 c -0.335793,-0.96605 -0.91439,-1.40172 -1.784008,-1.40172 h -1.639359 v 9.906759 h 1.639359 c 1.158916,0 1.784008,-0.917834 1.978596,-1.980318 0.09643,-0.869619 0.191144,-1.837392 0.191144,-2.901598 0,-1.544648 -0.14465,-3.042803 -0.385732,-3.623123 m 0.339237,9.810327 c -0.483886,0.433948 -1.157194,0.626814 -1.928657,0.626814 H 75.288366 V 56.594251 h 3.521524 c 1.155473,0 1.73407,0.144649 2.217956,0.532103 0.819681,0.580319 1.398278,1.642803 1.639361,3.042802 0.192865,1.014268 0.337515,2.223123 0.337515,3.285607 0,3.190897 -0.626814,5.219431 -1.976876,6.283637"
   style="fill:#000000;fill-opacity:1;fill-rule:nonzero;stroke:none;stroke-width:1.37761"
   id="path7108"
   inkscape:connector-curvature="0" /><path
   d="M 65.920598,70.365386 V 56.594423 h 6.493724 v 1.932102 h -4.506516 v 3.480195 h 2.858546 v 1.883885 h -2.858546 v 4.542679 h 5.038619 v 1.932102 z"
   style="fill:#000000;fill-opacity:1;fill-rule:nonzero;stroke:none;stroke-width:1.37761"
   id="path7112"
   inkscape:connector-curvature="0" /><path
   d="M 36.987281,70.365386 V 56.594423 h 1.987208 v 11.935294 h 5.040341 v 1.835669 z"
   style="fill:#000000;fill-opacity:1;fill-rule:nonzero;stroke:none;stroke-width:1.37761"
   id="path7116"
   inkscape:connector-curvature="0" /><path
   d="m 51.460828,60.024679 c -0.340959,-1.208855 -0.876506,-1.739236 -1.704796,-1.739236 -0.874784,0 -1.410331,0.530381 -1.751291,1.691019 -0.340959,1.062485 -0.439114,1.98032 -0.439114,3.528412 0,1.498153 0.146371,2.367773 0.439114,3.478473 0.34096,1.158916 0.876507,1.691019 1.751291,1.691019 0.82829,0 1.363837,-0.532103 1.704796,-1.691019 0.340959,-1.1107 0.437392,-1.933825 0.437392,-3.528412 0,-1.544648 -0.14465,-2.415988 -0.437392,-3.430256 m 1.558424,8.215739 c -0.681918,1.642803 -1.704796,2.367773 -3.26322,2.367773 -1.653136,0 -2.627797,-0.72497 -3.307993,-2.367773 -0.585486,-1.353504 -0.780074,-2.657071 -0.780074,-4.785483 0,-2.076751 0.194588,-3.478473 0.780074,-4.783761 0.728412,-1.642803 1.703073,-2.319555 3.307993,-2.319555 1.608363,0 2.581302,0.676752 3.26322,2.367772 0.583765,1.355226 0.778353,2.658793 0.778353,4.735544 0,2.128412 -0.194588,3.480195 -0.778353,4.785483"
   style="fill:#000000;fill-opacity:1;fill-rule:nonzero;stroke:none;stroke-width:1.37761"
   id="path7120"
   inkscape:connector-curvature="0" /><path
   d="m 59.785055,64.00598 c -0.595818,-0.385731 -1.174415,-0.773185 -1.544648,-1.033209 -1.110702,-0.781795 -1.697909,-1.835669 -1.697909,-3.044525 0,-1.98204 1.553259,-3.576627 3.542187,-3.576627 1.940712,0 3.445755,1.499876 3.493972,3.576627 H 61.68616 c -0.04822,-0.966051 -0.728413,-1.594587 -1.601475,-1.594587 -0.921278,0 -1.649691,0.67503 -1.649691,1.594587 0,0.676752 0.291021,1.064207 1.310454,1.642804 2.669125,1.54637 3.833209,3.044524 3.833209,5.026565 0,2.223123 -1.697909,4.010576 -3.833209,4.010576 -2.426321,0 -3.883147,-2.030258 -3.883147,-4.301596 h 1.942434 c 0,1.160638 0.582043,2.367771 1.940713,2.367771 1.06765,0 1.940712,-0.96605 1.940712,-2.076751 0,-0.86273 -0.356457,-1.589422 -1.901105,-2.591635"
   style="fill:#000000;fill-opacity:1;fill-rule:nonzero;stroke:none;stroke-width:1.37761"
   id="path7124"
   inkscape:connector-curvature="0" /><path
   d="m 48.837717,39.709216 -0.969494,3.96236 h 1.987206 z m 2.471093,9.663955 -0.969495,-3.767772 h -2.95498 l -0.921279,3.767772 h -1.985484 l 3.438867,-13.772686 h 1.93899 l 3.438867,13.772686 z"
   style="fill:#000000;fill-opacity:1;fill-rule:nonzero;stroke:none;stroke-width:1.37761"
   id="path7128"
   inkscape:connector-curvature="0" /><path
   d="M 65.453451,49.373343 V 35.600657 h 6.493724 v 1.933824 h -4.506516 v 3.480195 h 2.858546 v 1.882163 H 67.440659 V 47.44124 H 72.481 v 1.932103 z"
   style="fill:#000000;fill-opacity:1;fill-rule:nonzero;stroke:none;stroke-width:1.37761"
   id="path7132"
   inkscape:connector-curvature="0" /><path
   d="M 36.942029,49.373343 V 35.600657 h 1.987207 v 11.937016 h 5.040342 v 1.83567 z"
   style="fill:#000000;fill-opacity:1;fill-rule:nonzero;stroke:none;stroke-width:1.37761"
   id="path7136"
   inkscape:connector-curvature="0" /><path
   d="m 61.256898,49.373343 -4.244771,-9.230007 v 9.230007 H 55.035253 V 35.600657 h 1.976874 l 3.760884,8.263956 v -8.263956 h 1.978598 v 13.772686 z"
   style="fill:#000000;fill-opacity:1;fill-rule:nonzero;stroke:none;stroke-width:1.37761"
   id="path7140"
   inkscape:connector-curvature="0" /></svg>
