<?xml version="1.0" encoding="UTF-8" standalone="no"?>
<!-- Created with Inkscape (http://www.inkscape.org/) -->

<svg
   version="1.0"
   width="90.001244"
   height="90.001251"
   id="svg2"
   inkscape:version="1.2.1 (9c6d41e410, 2022-07-14)"
   sodipodi:docname="C30A.svg"
   xmlns:inkscape="http://www.inkscape.org/namespaces/inkscape"
   xmlns:sodipodi="http://sodipodi.sourceforge.net/DTD/sodipodi-0.dtd"
   xmlns="http://www.w3.org/2000/svg"
   xmlns:svg="http://www.w3.org/2000/svg"
   xmlns:rdf="http://www.w3.org/1999/02/22-rdf-syntax-ns#"
   xmlns:cc="http://creativecommons.org/ns#"
   xmlns:dc="http://purl.org/dc/elements/1.1/">
  <metadata
     id="metadata13">
    <rdf:RDF>
      <cc:Work
         rdf:about="">
        <dc:format>image/svg+xml</dc:format>
        <dc:type
           rdf:resource="http://purl.org/dc/dcmitype/StillImage" />
      </cc:Work>
    </rdf:RDF>
  </metadata>
  <sodipodi:namedview
     pagecolor="#ffffff"
     bordercolor="#666666"
     borderopacity="1"
     objecttolerance="10"
     gridtolerance="10"
     guidetolerance="10"
     inkscape:pageopacity="0"
     inkscape:pageshadow="2"
     inkscape:window-width="1920"
     inkscape:window-height="1017"
     id="namedview11"
     showgrid="false"
     fit-margin-top="0"
     fit-margin-left="0"
     fit-margin-right="0"
     fit-margin-bottom="0"
     inkscape:zoom="7.4167644"
     inkscape:cx="46.516241"
     inkscape:cy="39.505097"
     inkscape:window-x="-8"
     inkscape:window-y="1144"
     inkscape:window-maximized="1"
     inkscape:current-layer="svg2"
     inkscape:showpageshadow="2"
     inkscape:pagecheckerboard="0"
     inkscape:deskcolor="#d1d1d1" />
  <defs
     id="defs4" />
  <path
     inkscape:connector-curvature="0"
     d="M 1.2890625,41.877812 41.877813,1.2890625 c 1.71875,-1.71875 4.52875,-1.71875 6.245,0 L 88.714059,41.877813 c 1.71625,1.71875 1.71625,4.52875 0,6.245 L 48.122813,88.714067 c -1.71625,1.71625 -4.52625,1.71625 -6.245,0 L 1.2890625,48.122813 c -1.71875,-1.71625 -1.71875,-4.52625 0,-6.245 z"
     style="fill:#f4911d;fill-opacity:1;stroke:none"
     id="path3241" />
  <path
     inkscape:connector-curvature="0"
     d="M 2.2653125,42.525312 42.524062,2.2690625 c 1.3625,-1.3625 3.59125,-1.3625 4.95375,0 L 87.734058,42.525312 c 1.362501,1.3625 1.362501,3.59125 0,4.95375 L 47.477812,87.735316 c -1.3625,1.3625 -3.59125,1.3625 -4.95375,0 L 2.2653125,47.479062 c -1.3625,-1.3625 -1.3625,-3.59125 0,-4.95375"
     style="fill:#000000;fill-opacity:1;fill-rule:evenodd;stroke:none"
     id="path3245" />
  <path
     inkscape:connector-curvature="0"
     d="M 3.5253125,43.762812 43.762812,3.5253125 c 0.68125,-0.68 1.79625,-0.68 2.475,0 L 86.475308,43.762812 c 0.68,0.68125 0.68,1.79625 0,2.475 L 46.237812,86.475316 c -0.67875,0.681251 -1.79375,0.681251 -2.475,0 L 3.5253125,46.237812 c -0.68125,-0.67875 -0.68125,-1.79375 0,-2.475"
     style="fill:#f4911d;fill-opacity:1;fill-rule:evenodd;stroke:none"
     id="path3249" />
  <path
     inkscape:connector-curvature="0"
     d="m 75.202298,37.10099 c 0,0.89 -0.50375,1.39375 -1.43375,1.39375 h -1.62625 v -2.78875 h 1.62625 c 0.8525,0 1.43375,0.5425 1.43375,1.395 m 1.5475,8.09 -1.5875,-5.42 c 1.045,-0.3875 1.5875,-1.355 1.5875,-2.67 0,-1.7825 -1.1625,-2.9425 -2.9025,-2.9425 h -3.29125 v 11.0325 h 1.58625 v -5.1875 h 1.51125 l 1.47,5.1875 z m -8.05125,0 v -1.5475 h -4.02625 v -3.64 h 2.2825 v -1.50875 h -2.2825 v -2.78875 h 3.59875 v -1.5475 h -5.18625 v 11.0325 z m -9.33125,-5.45875 c 0,0.8525 -0.07625,1.62625 -0.15375,2.32125 -0.15375,0.852501 -0.66,1.59 -1.5875,1.59 h -1.31625 v -7.9375 h 1.31625 c 0.69625,0 1.1625,0.35 1.43375,1.12375 0.1925,0.463751 0.3075,1.665001 0.3075,2.902501 m 1.55,-0.0775 c 0,-0.85 -0.1175,-1.82 -0.27125,-2.6325 -0.195,-1.1225 -0.65875,-1.975 -1.31625,-2.43875 -0.3875,-0.31 -0.851249,-0.425 -1.78125,-0.425 h -2.825 v 11.0325 h 3.05625 c 0.620001,0 1.1625,-0.15625 1.55,-0.5025 1.085,-0.8525 1.587501,-2.47875 1.587501,-5.03375 m -7.705,5.53625 v -1.4725 h -4.026247 v -9.56 h -1.586251 v 11.0325 z m -7.973747,-3.29125 v -7.74125 h -1.587501 v 7.935 c 0,1.045 -0.62,1.7425 -1.47125,1.7425 -0.927499,0 -1.54875,-0.6975 -1.54875,-1.7425 v -7.935 h -1.58625 v 7.74125 c 0,0.89125 0.1175,1.355 0.425,1.93625 0.54125,0.9275 1.62625,1.555 2.71,1.555 1.0475,0 2.0925,-0.66375 2.63375,-1.555 0.3075,-0.58125 0.425,-1.045 0.425,-1.93625 m -9.91,-2.245 c 0,1.27875 -0.0775,1.935 -0.34875,2.82625 -0.27125,0.927499 -0.69625,1.355 -1.355,1.355 -0.69625,0 -1.1225,-0.4275 -1.39375,-1.355 -0.2325,-0.89125 -0.35,-1.586251 -0.35,-2.7875 0,-1.2375 0.0787,-1.9725 0.35,-2.825 0.27125,-0.930001 0.6975,-1.355 1.39375,-1.355 0.65875,0 1.08375,0.424999 1.355,1.393749 0.2325,0.81375 0.34875,1.508751 0.34875,2.747501 m 1.50875,0 c 0,-1.66375 -0.15375,-2.71 -0.62,-3.795 -0.54125,-1.355001 -1.31625,-1.89625 -2.5925,-1.89625 -1.27625,0 -2.05125,0.54125 -2.63125,1.86 -0.4675,1.045 -0.62125,2.1675 -0.62125,3.83125 0,1.70375 0.15375,2.74875 0.62125,3.832499 0.541251,1.31625 1.315,1.903751 2.63125,1.903751 1.2375,0 2.05125,-0.587501 2.5925,-1.903751 0.46625,-1.045 0.62,-2.128749 0.62,-3.832499 m -8.6325,5.536249 v -11.0325 h -1.58625 v 4.49 h -3.02 v -4.49 h -1.5875 v 11.0325 h 1.5875 v -4.995 h 3.02 v 4.995 h 1.586251 z m -8.05125,-3.019999 c 0,-1.586251 -0.93,-2.7875 -3.06,-4.026251 -0.8125,-0.46375 -1.045,-0.77375 -1.045,-1.315 0,-0.735 0.58125,-1.2775 1.31625,-1.2775 0.69875,0 1.24,0.50375 1.2775,1.2775 h 1.51125 c -0.04,-1.665 -1.23875,-2.866249 -2.78875,-2.866249 -1.58625,0 -2.825,1.27875 -2.825,2.866249 0,0.966251 0.465001,1.81875 1.355,2.43875 2.24375,1.508751 1.62625,1.08375 1.85875,1.31625 0.65625,0.5025 0.88875,0.96625 0.88875,1.586251 0,0.89125 -0.69625,1.665 -1.54875,1.665 -1.08375,0 -1.5475,-0.96875 -1.5475,-1.89625 h -1.5475 c 0,1.81875 1.16,3.45125 3.095,3.45125 1.705,0 3.06,-1.44 3.06,-3.22"
     style="fill:#000000;fill-opacity:1;fill-rule:evenodd;stroke:none"
     id="path3253" />
  <path
     d="m 68.687908,54.130285 c 0,1.390244 -0.328088,2.522031 -0.947678,3.141621 -0.292683,0.292683 -0.623133,0.40362 -1.170733,0.40362 h -1.643981 v -7.090481 h 1.862313 c 0.440206,0 0.804879,0.184107 1.060976,0.440204 0.511015,0.54642 0.839103,1.717153 0.839103,3.105036 m 1.681747,0 c 0,-2.046421 -0.621951,-3.690402 -1.717152,-4.640441 -0.54878,-0.440205 -0.948859,-0.547601 -2.012196,-0.547601 h -3.359953 v 10.41149 h 3.178207 0.587726 c 0.546421,-0.03541 1.095201,-0.217152 1.49646,-0.583007 1.168371,-0.913454 1.826908,-2.556255 1.826908,-4.640441 m -8.807633,5.223448 v -1.678207 h -4.823369 v -2.851299 h 3.035406 V 53.14366 h -3.035406 v -2.558615 h 4.494101 v -1.642802 h -6.135721 v 10.41149 z m -8.184502,-2.9941 c 0,-4.094022 -4.896539,-2.814714 -5.0417,-4.751379 -0.07081,-0.948859 0.841463,-1.241541 1.607396,-1.204956 1.170732,0.03659 1.535405,0.912274 1.535405,0.912274 l 1.463415,-0.437845 c -0.512195,-1.279307 -1.50118,-2.118411 -2.959875,-2.118411 -1.864673,0 -3.252557,0.768294 -3.252557,2.812353 0,1.717153 1.387884,2.340284 2.007475,2.595201 1.353658,0.546421 2.962235,0.768293 2.962235,2.154997 0,0.879229 -0.659717,1.535405 -1.608577,1.535405 -0.986624,0 -1.791502,-0.54878 -2.231707,-1.535405 l -1.569631,0.586546 c 0.693942,1.56963 2.009836,2.636508 3.801338,2.636508 0.875689,0 1.680567,-0.297404 2.263573,-0.8096 0.658536,-0.587726 1.02321,-1.426829 1.02321,-2.375688 M 43.111192,54.16687 c 0,0.802518 -0.182927,1.825729 -0.401259,2.374509 -0.364673,0.912274 -0.841463,1.315893 -1.608575,1.315893 -0.657358,0 -1.097562,-0.256097 -1.42447,-0.803698 -0.401259,-0.657356 -0.620771,-1.789143 -0.620771,-2.886704 0,-0.878048 0.145161,-1.828088 0.401259,-2.447679 0.364673,-0.914634 0.875688,-1.315893 1.680567,-1.279308 0.619591,0.03659 1.02321,0.256098 1.350118,0.802518 0.403619,0.696302 0.623131,1.756098 0.623131,2.924469 m 1.645162,0 c 0,-1.315892 -0.258458,-2.629426 -0.693942,-3.54524 -0.658537,-1.276947 -1.574351,-1.862314 -2.887884,-1.862314 -1.204957,0 -2.04642,0.364674 -2.667191,1.168372 -0.693942,0.986625 -1.134148,2.522031 -1.134148,4.239182 0,1.242723 0.292684,2.632967 0.730528,3.508656 0.623132,1.276947 1.535405,1.869395 2.997641,1.869395 1.09638,0 1.937844,-0.374115 2.520849,-1.175454 0.730528,-0.915814 1.134147,-2.558615 1.134147,-4.202597 m -8.696697,5.186863 v -1.533046 h -4.824548 v -8.878444 h -1.645162 v 10.41149 z m -8.733283,-2.118412 -1.57199,-0.583005 c -0.401259,0.841463 -0.913454,1.204956 -1.607397,1.204956 -0.730527,0 -1.204956,-0.256097 -1.57199,-0.803698 -0.401259,-0.657356 -0.656176,-1.789143 -0.656176,-2.923289 0,-0.875688 0.145161,-1.791503 0.402439,-2.411094 0.364673,-0.914634 0.913453,-1.279308 1.754917,-1.279308 0.801338,0 1.129426,0.219512 1.714792,1.097561 l 1.535405,-0.659717 c -0.696302,-1.461054 -1.680566,-2.118411 -3.250197,-2.118411 -1.170732,0 -2.0476,0.40126 -2.669551,1.168372 -0.730528,0.913454 -1.170733,2.558616 -1.170733,4.202597 0,1.315893 0.292683,2.630607 0.769473,3.545241 0.657357,1.276947 1.641621,1.869395 3.177026,1.869395 1.500001,0 2.523211,-0.774195 3.143982,-2.3096"
     style="fill:#000000;fill-opacity:1;fill-rule:evenodd;stroke:none;stroke-width:0.944138"
     id="path6832"
     inkscape:connector-curvature="0" />
</svg>
