<?xml version="1.0" encoding="UTF-8" standalone="no"?>
<svg
   xmlns:dc="http://purl.org/dc/elements/1.1/"
   xmlns:cc="http://creativecommons.org/ns#"
   xmlns:rdf="http://www.w3.org/1999/02/22-rdf-syntax-ns#"
   xmlns:svg="http://www.w3.org/2000/svg"
   xmlns="http://www.w3.org/2000/svg"
   id="svg8"
   version="1.1"
   viewBox="0 0 158.9 59.8"
   height="226"
   width="600">
  <defs
     id="defs2" />
  <metadata
     id="metadata5">
    <rdf:RDF>
      <cc:Work
         rdf:about="">
        <dc:format>image/svg+xml</dc:format>
        <dc:type
           rdf:resource="http://purl.org/dc/dcmitype/StillImage" />
        <dc:title></dc:title>
      </cc:Work>
    </rdf:RDF>
  </metadata>
  <rect
     style="fill:#ffffff;stroke:#000000;stroke-width:0.2646;paint-order:markers fill stroke"
     id="rect833"
     width="139"
     height="59.59"
     x="9.95"
     y="0.1"
     rx="9.923"
     ry="9.923" />
  <rect
     style="fill:none;stroke:#000000;stroke-width:3.3077;paint-order:markers fill stroke"
     id="rect851"
     width="129.1"
     height="49.66"
     x="14.9"
     y="5.07"
     rx="4.961"
     ry="4.961" />
  <g
     style="font-weight:bold;font-size:49.63199999999999790px;font-family:SaaSeriesBDOT;-inkscape-font-specification:'SaaSeriesBDOT Bold';text-align:center;letter-spacing:0px;word-spacing:0px;text-anchor:middle;stroke-width:1.2408"
     id="text1571"
     aria-label="TRUCK">
    <path
       id="path1573"
       style="-inkscape-font-specification:'SaaSeriesCDOT Bold'"
       d="m 24.03,13.35 h 16.53 v 4.61 H 34.6 V 46.45 H 29.99 V 17.96 h -5.96 z" />
    <path
       id="path1575"
       style="-inkscape-font-specification:'SaaSeriesCDOT Bold'"
       d="m 44.9,13.35 h 7.95 q 2.77,0 4.07,0.24 1.34,0.2 2.48,0.9 3.67,2.28 3.67,7.69 0,2.88 -1.29,4.96 -1.29,2.09 -3.57,2.93 l 4.86,16.38 H 58.21 L 53.59,30.72 H 49.52 V 46.45 H 44.9 Z m 4.62,12.75 h 4.07 q 2.68,0 3.47,-0.69 1.15,-1.05 1.15,-3.28 0,-2.63 -1.54,-3.62 -1,-0.55 -3.43,-0.55 h -3.72 z" />
    <path
       id="path1577"
       style="-inkscape-font-specification:'SaaSeriesCDOT Bold'"
       d="m 68.73,13.35 h 4.62 v 22.98 q 0,2.92 1.14,4.51 1.19,1.59 3.33,1.59 4.51,0 4.51,-6.1 V 13.35 h 4.62 v 22.98 q 0,3.27 -0.99,5.75 -0.9,2.29 -3.13,3.68 -2.23,1.34 -5.01,1.34 -2.78,0 -5.02,-1.34 -2.18,-1.39 -3.07,-3.68 -1,-2.48 -1,-5.75 z" />
    <path
       id="path1579"
       style="-inkscape-font-specification:'SaaSeriesCDOT Bold'"
       d="m 111.1,21.14 h -4.7 q -0.6,-3.82 -3.9,-3.82 -2.79,0 -3.83,3.52 -1.04,3.28 -1.04,9.08 0,5.91 1.14,9.43 1.09,3.13 3.73,3.13 3.3,0 3.9,-3.82 h 4.7 q -0.1,2.23 -1,4.02 -2.4,4.42 -7.5,4.42 -2.64,0 -4.67,-1.3 -2.04,-1.34 -3.08,-3.77 -1.98,-4.56 -1.98,-12.16 0,-7.54 1.98,-12.11 1.04,-2.43 3.08,-3.72 2.03,-1.34 4.67,-1.34 5.1,0 7.5,4.42 0.9,1.73 1,4.02 z" />
    <path
       id="path1581"
       style="-inkscape-font-specification:'SaaSeriesCDOT Bold'"
       d="m 116.7,13.35 h 4.7 v 12.9 l 7.4,-12.9 h 5.3 l -6.5,11.56 7.3,21.54 H 130 l -5.6,-16.13 -3,5.46 v 10.67 h -4.7 z" />
  </g>
</svg>
