<?xml version="1.0" encoding="UTF-8" standalone="no"?>
<!-- Created with Inkscape (http://www.inkscape.org/) -->

<svg
   xmlns:dc="http://purl.org/dc/elements/1.1/"
   xmlns:cc="http://creativecommons.org/ns#"
   xmlns:rdf="http://www.w3.org/1999/02/22-rdf-syntax-ns#"
   xmlns:svg="http://www.w3.org/2000/svg"
   xmlns="http://www.w3.org/2000/svg"
   xmlns:sodipodi="http://sodipodi.sourceforge.net/DTD/sodipodi-0.dtd"
   xmlns:inkscape="http://www.inkscape.org/namespaces/inkscape"
   width="225.21875"
   height="281.15625"
   id="svg4779"
   version="1.1"
   inkscape:version="0.48.2 r9819"
   sodipodi:docname="MUTCD R4-4.svg">
  <defs
     id="defs4781" />
  <sodipodi:namedview
     id="base"
     pagecolor="#ffffff"
     bordercolor="#666666"
     borderopacity="1.0"
     inkscape:pageopacity="0.0"
     inkscape:pageshadow="2"
     inkscape:zoom="0.9899495"
     inkscape:cx="-132.31225"
     inkscape:cy="-4.347325"
     inkscape:document-units="px"
     inkscape:current-layer="layer1"
     showgrid="false"
     inkscape:window-width="1280"
     inkscape:window-height="1004"
     inkscape:window-x="-8"
     inkscape:window-y="-8"
     inkscape:window-maximized="1"
     fit-margin-top="0"
     fit-margin-left="0"
     fit-margin-right="0"
     fit-margin-bottom="0" />
  <metadata
     id="metadata4784">
    <rdf:RDF>
      <cc:Work
         rdf:about="">
        <dc:format>image/svg+xml</dc:format>
        <dc:type
           rdf:resource="http://purl.org/dc/dcmitype/StillImage" />
        <dc:title></dc:title>
      </cc:Work>
    </rdf:RDF>
  </metadata>
  <g
     inkscape:label="Layer 1"
     inkscape:groupmode="layer"
     id="layer1"
     transform="translate(-2192.2188,1815.25)">
    <path
       inkscape:connector-curvature="0"
       d="m 2416.6724,-1548.8403 c 0,7.69 -6.2912,13.9813 -13.9812,13.9813 l -195.7425,0 c -7.6888,0 -13.9813,-6.2913 -13.9813,-13.9813 l 0,-251.6675 c 0,-7.69 6.2925,-13.9825 13.9813,-13.9825 l 195.7425,0 c 7.69,0 13.9812,6.2925 13.9812,13.9825 l 0,251.6675 z"
       style="fill:#ffffff;fill-opacity:1;fill-rule:nonzero;stroke:#000000;stroke-width:1.5;stroke-miterlimit:4;stroke-opacity:1;stroke-dasharray:none"
       id="path4858" />
    <path
       inkscape:connector-curvature="0"
       d="m 2402.6908,-1810.9945 -195.7412,0 c -5.7676,0 -10.4863,4.7187 -10.4863,10.4863 l 0,251.6675 c 0,5.7674 4.7187,10.4863 10.4863,10.4863 l 195.7412,0 c 5.7675,0 10.4863,-4.7189 10.4863,-10.4863 l 0,-251.6675 c 0,-5.7675 -4.7188,-10.4863 -10.4863,-10.4863 m 4.6613,262.1538 c 0,2.5637 -2.0975,4.6613 -4.6613,4.6613 l -195.7412,0 c -2.5638,0 -4.6613,-2.0976 -4.6613,-4.6613 l 0,-251.6675 c 0,-2.5637 2.0975,-4.6601 4.6613,-4.6601 l 195.7412,0 c 2.5638,0 4.6613,2.0963 4.6613,4.6601 l 0,251.6675 z"
       style="fill:#000000;fill-opacity:1;fill-rule:nonzero;stroke:none"
       id="path4866" />
    <path
       inkscape:connector-curvature="0"
       d="m 2230.1037,-1775.453 0,32.035 -5.91,0 0,-32.035 -8.5063,0 0,-5.2475 23.0325,0 0,5.2475 -8.6162,0 z"
       style="fill:#000000;fill-opacity:1;fill-rule:nonzero;stroke:none"
       id="path4870" />
    <path
       inkscape:connector-curvature="0"
       d="m 2261.8749,-1743.4175 -6.02,-16.2389 -7.015,0 0,16.2389 -5.91,0 0,-37.2826 13.5325,0 c 8.5613,0 11.0463,6.8487 11.0463,10.4387 0,3.9775 -2.32,7.8988 -5.7438,9.445 l 6.5175,17.3988 -6.4075,0 z m -5.1925,-31.3725 -7.8425,0 0,9.1137 7.7875,0 c 2.8725,0 5.0263,-2.0437 5.0263,-4.585 0,-2.43 -2.0988,-4.5287 -4.9713,-4.5287"
       style="fill:#000000;fill-opacity:1;fill-rule:nonzero;stroke:none"
       id="path4874" />
    <path
       inkscape:connector-curvature="0"
       d="m 2296.7268,-1749.0514 c -1.9338,3.7013 -6.4075,6.2963 -10.9913,6.2963 -4.585,0 -9.1137,-2.595 -10.9912,-6.2963 -1.105,-2.1537 -1.7125,-4.805 -1.7125,-7.7325 l 0,-23.9162 5.91,0 0,23.9162 c 0,4.86 2.7062,8.0088 6.7937,8.0088 4.0313,0 6.7938,-3.1488 6.7938,-8.0088 l 0,-23.9162 5.855,0 0,23.9162 c 0,2.9275 -0.5525,5.5788 -1.6575,7.7325"
       style="fill:#000000;fill-opacity:1;fill-rule:nonzero;stroke:none"
       id="path4878" />
    <path
       inkscape:connector-curvature="0"
       d="m 2319.0955,-1742.7546 c -5.4687,0 -9.0025,-2.0988 -11.3775,-6.6838 -1.6575,-3.2588 -2.7625,-7.9538 -2.7625,-12.7038 0,-5.8538 1.6025,-11.7637 4.1975,-15.0237 2.21,-2.7612 5.3575,-4.1975 9.5563,-4.1975 5.6337,0 9.1687,2.375 11.6537,7.6225 l -5.5237,2.3199 c -2.0425,-3.1487 -3.2588,-3.9212 -6.13,-3.9212 -2.9825,0 -4.9713,1.325 -6.2975,4.5837 -0.8838,2.21 -1.4363,5.4688 -1.4363,8.6163 0,4.0875 0.8838,8.175 2.3763,10.495 1.27,1.9887 3.0375,2.8725 5.6337,2.8725 2.485,0 4.3075,-1.3263 5.7438,-4.3088 l 5.6337,2.0988 c -2.2087,5.4687 -5.91,8.23 -11.2675,8.23"
       style="fill:#000000;fill-opacity:1;fill-rule:nonzero;stroke:none"
       id="path4882" />
    <path
       inkscape:connector-curvature="0"
       d="m 2356.157,-1743.4175 -9.39,-17.675 -3.9212,4.8612 0,12.8138 -5.91,0 0,-37.2826 5.91,0 0,14.8025 11.765,-14.8025 7.5662,0 -11.4887,14.5262 12.2625,22.7564 -6.7938,0 z"
       style="fill:#000000;fill-opacity:1;fill-rule:nonzero;stroke:none"
       id="path4886" />
    <path
       inkscape:connector-curvature="0"
       d="m 2378.6923,-1742.7546 c -6.4075,0 -11.1025,-3.8114 -13.5875,-9.445 l 5.6337,-2.0988 c 1.5463,3.535 4.4188,5.5238 7.9538,5.5238 3.425,0 5.7437,-2.375 5.7437,-5.5238 0,-4.9712 -5.7437,-5.745 -10.6037,-7.6775 -2.21,-0.9387 -7.1813,-3.1487 -7.1813,-9.28 0,-7.345 4.9713,-10.1075 11.655,-10.1075 5.2463,0 8.7813,3.0388 10.605,7.6225 l -5.2475,1.5462 c -0.5525,-1.6563 -2.9275,-3.2588 -5.5787,-3.2588 -2.8175,0 -5.91,0.8838 -5.6888,4.3088 0.5525,6.9038 18.0613,2.375 18.0613,17.0112 0,6.7938 -5.0813,11.3788 -11.765,11.3788"
       style="fill:#000000;fill-opacity:1;fill-rule:nonzero;stroke:none"
       id="path4890" />
    <path
       inkscape:connector-curvature="0"
       d="m 2284.2404,-1690.7949 c -1.9337,3.7 -6.4075,6.2963 -10.9912,6.2963 -4.585,0 -9.1138,-2.5963 -10.9913,-6.2963 -1.105,-2.1537 -1.7125,-4.805 -1.7125,-7.7325 l 0,-23.9162 5.91,0 0,23.9162 c 0,4.86 2.7063,8.0088 6.7938,8.0088 4.0312,0 6.7937,-3.1488 6.7937,-8.0088 l 0,-23.9162 5.855,0 0,23.9162 c 0,2.9275 -0.5525,5.5788 -1.6575,7.7325"
       style="fill:#000000;fill-opacity:1;fill-rule:nonzero;stroke:none"
       id="path4894" />
    <path
       inkscape:connector-curvature="0"
       d="m 2307.9902,-1684.4982 c -6.4075,0 -11.1025,-3.8113 -13.5875,-9.445 l 5.6337,-2.0987 c 1.5463,3.535 4.4188,5.5237 7.9538,5.5237 3.425,0 5.7437,-2.375 5.7437,-5.5237 0,-4.9713 -5.7437,-5.745 -10.605,-7.6775 -2.2087,-0.9387 -7.18,-3.1488 -7.18,-9.28 0,-7.345 4.9713,-10.1075 11.655,-10.1075 5.2463,0 8.7813,3.0387 10.605,7.6224 l -5.2475,1.5462 c -0.5525,-1.6561 -2.9275,-3.2587 -5.5787,-3.2587 -2.8175,0 -5.91,0.8837 -5.6888,4.3087 0.5525,6.9038 18.0613,2.375 18.0613,17.0113 0,6.7937 -5.0813,11.3787 -11.765,11.3787"
       style="fill:#000000;fill-opacity:1;fill-rule:nonzero;stroke:none"
       id="path4898" />
    <path
       inkscape:connector-curvature="0"
       d="m 2328.2823,-1685.1611 0,-37.2825 21.9825,0 0,5.9101 -16.0725,0 0,9.1137 10.8262,0 0,6.02 -10.8262,0 0,10.2188 17.2325,0 0,6.02 -23.1425,0 z"
       style="fill:#000000;fill-opacity:1;fill-rule:nonzero;stroke:none"
       id="path4902" />
    <path
       inkscape:connector-curvature="0"
       d="m 2257.3539,-1626.9046 -6.02,-16.2388 -7.015,0 0,16.2388 -5.91,0 0,-37.2825 13.5325,0 c 8.5613,0 11.0463,6.8487 11.0463,10.4387 0,3.9775 -2.32,7.8988 -5.7438,9.445 l 6.5175,17.3988 -6.4075,0 z m -5.1925,-31.3725 -7.8425,0 0,9.1138 7.7875,0 c 2.8725,0 5.0263,-2.0437 5.0263,-4.585 0,-2.4301 -2.0988,-4.5288 -4.9713,-4.5288"
       style="fill:#000000;fill-opacity:1;fill-rule:nonzero;stroke:none"
       id="path4906" />
    <path
       inkscape:connector-curvature="0"
       d="m 2269.9463,-1664.1875 6.02,0 0,37.2826 -6.02,0 0,-37.2826 z"
       style="fill:#000000;fill-opacity:1;fill-rule:nonzero;stroke:none"
       id="path4908" />
    <path
       inkscape:connector-curvature="0"
       d="m 2297.6184,-1626.2418 c -5.6337,0 -8.8925,-2.0987 -11.1575,-6.7936 -1.5462,-3.3138 -2.485,-7.8439 -2.485,-12.4275 0,-6.02 1.6563,-11.9863 4.1975,-15.1901 2.21,-2.7612 5.3575,-4.1975 9.555,-4.1975 5.745,0 9.1688,2.375 11.655,8.2301 l -5.6337,2.265 c -1.5463,-3.3138 -3.1488,-4.4738 -6.0213,-4.4738 -2.9825,0 -4.97,1.325 -6.2962,4.5838 -0.8838,2.21 -1.4363,5.6337 -1.4363,8.7825 0,3.9212 0.6075,7.8425 1.8788,10.1625 1.1037,2.155 2.8712,3.0387 5.0812,3.0387 3.8113,0 6.5175,-2.375 6.5175,-5.745 l 0,-1.6012 -6.7937,0 0,-5.855 12.7037,0 0,7.4562 c 0,6.7938 -4.9712,11.765 -11.765,11.765"
       style="fill:#000000;fill-opacity:1;fill-rule:nonzero;stroke:none"
       id="path4912" />
    <path
       inkscape:connector-curvature="0"
       d="m 2336.8892,-1626.9046 0,-16.2388 -13.5876,0 0,16.2388 -5.9099,0 0,-37.2825 5.9099,0 0,15.0237 13.5876,0 0,-15.0237 5.855,0 0,37.2825 -5.855,0 z"
       style="fill:#000000;fill-opacity:1;fill-rule:nonzero;stroke:none"
       id="path4916" />
    <path
       inkscape:connector-curvature="0"
       d="m 2362.6161,-1658.9401 0,32.0351 -5.91,0 0,-32.0351 -8.5063,0 0,-5.2474 23.0325,0 0,5.2474 -8.6162,0 z"
       style="fill:#000000;fill-opacity:1;fill-rule:nonzero;stroke:none"
       id="path4920" />
    <path
       inkscape:connector-curvature="0"
       d="m 2246.5635,-1568.6481 0,-37.2825 5.91,0 0,31.815 17.2325,0 0,5.4675 -23.1425,0 z"
       style="fill:#000000;fill-opacity:1;fill-rule:nonzero;stroke:none"
       id="path4924" />
    <path
       inkscape:connector-curvature="0"
       d="m 2297.1569,-1568.6481 -3.645,-10.4388 -11.655,0 -3.645,10.4388 -6.2962,0 12.8137,-37.2825 5.91,0 12.8138,37.2825 -6.2963,0 z m -9.39,-26.9538 -3.8112,10.4938 7.4575,0 -3.6463,-10.4938 z"
       style="fill:#000000;fill-opacity:1;fill-rule:nonzero;stroke:none"
       id="path4928" />
    <path
       inkscape:connector-curvature="0"
       d="m 2329.1922,-1568.6481 -14.25,-25.2413 0,25.2413 -5.91,0 0,-37.2825 5.91,0 13.5875,23.805 0,-23.805 5.855,0 0,37.2825 -5.1925,0 z"
       style="fill:#000000;fill-opacity:1;fill-rule:nonzero;stroke:none"
       id="path4932" />
    <path
       inkscape:connector-curvature="0"
       d="m 2343.429,-1568.6481 0,-37.2825 21.9825,0 0,5.91 -16.0725,0 0,9.1138 10.8263,0 0,6.02 -10.8263,0 0,10.2188 17.2325,0 0,6.02 -23.1425,0 z"
       style="fill:#000000;fill-opacity:1;fill-rule:nonzero;stroke:none"
       id="path4936" />
  </g>
</svg>
