<?xml version="1.0" encoding="UTF-8" standalone="no"?>
<!-- Generator: Adobe Illustrator 14.0.0, SVG Export Plug-In  -->

<svg
   xmlns:dc="http://purl.org/dc/elements/1.1/"
   xmlns:cc="http://creativecommons.org/ns#"
   xmlns:rdf="http://www.w3.org/1999/02/22-rdf-syntax-ns#"
   xmlns:svg="http://www.w3.org/2000/svg"
   xmlns="http://www.w3.org/2000/svg"
   xmlns:sodipodi="http://sodipodi.sourceforge.net/DTD/sodipodi-0.dtd"
   xmlns:inkscape="http://www.inkscape.org/namespaces/inkscape"
   version="1.1"
   x="0px"
   y="0px"
   width="108.95812"
   height="108.94391"
   viewBox="0 -0.321 108.95811 108.94394"
   enable-background="new 0 -0.321 144 120"
   xml:space="preserve"
   id="svg2"
   inkscape:version="0.48.2 r9819"
   sodipodi:docname="MUTCD W20-5a (temporary).svg"><metadata
   id="metadata44"><rdf:RDF><cc:Work
       rdf:about=""><dc:format>image/svg+xml</dc:format><dc:type
         rdf:resource="http://purl.org/dc/dcmitype/StillImage" /><dc:title></dc:title></cc:Work></rdf:RDF></metadata><sodipodi:namedview
   pagecolor="#ffffff"
   bordercolor="#666666"
   borderopacity="1"
   objecttolerance="10"
   gridtolerance="10"
   guidetolerance="10"
   inkscape:pageopacity="0"
   inkscape:pageshadow="2"
   inkscape:window-width="1280"
   inkscape:window-height="1004"
   id="namedview42"
   showgrid="false"
   fit-margin-top="0"
   fit-margin-left="0"
   fit-margin-right="0"
   fit-margin-bottom="0"
   inkscape:zoom="5.3605324"
   inkscape:cx="44.311927"
   inkscape:cy="43.71383"
   inkscape:window-x="-8"
   inkscape:window-y="-8"
   inkscape:window-maximized="1"
   inkscape:current-layer="svg2" />
<defs
   id="defs4">
</defs>


















<path
   inkscape:connector-curvature="0"
   d="M 51.560314,107.43231 1.2065487,57.078548 c -1.60874999,-1.60875 -1.60874999,-4.231251 0,-5.840002 L 51.557814,0.88728241 c 1.60875,-1.610001 4.233751,-1.611251 5.842501,-0.0025 L 107.75158,51.241046 c 1.60875,1.608751 1.60875,4.230002 0,5.838752 L 57.400315,107.43231 c -1.58875,1.58625 -4.250001,1.58875 -5.840001,0"
   style="fill:#f4911d;fill-opacity:1;fill-rule:nonzero;stroke:none"
   id="path6980" /><path
   inkscape:connector-curvature="0"
   d="M 52.361563,106.61219 2.0265487,56.278428 c -1.15749999,-1.160001 -1.15499999,-3.078751 0,-4.238751 L 52.359063,1.7071624 c 1.16,-1.15874999 3.076251,-1.15624999 4.240001,0 L 106.92908,52.042177 c 1.1575,1.16 1.16,3.075 0,4.236251 L 56.599064,106.61219 c -1.16125,1.1525 -3.078751,1.15625 -4.237501,0"
   style="fill:#000000;fill-opacity:1;fill-rule:evenodd;stroke:none"
   id="path6984" /><path
   inkscape:connector-curvature="0"
   d="M 53.481563,105.46231 3.1765487,55.157297 c -0.55625,-0.53875 -0.55625,-1.4575 0,-1.99625 L 53.481563,2.8572824 c 0.5375,-0.55625 1.455001,-0.55625 1.995001,0 L 105.78158,53.161047 c 0.55625,0.54 0.55625,1.45875 -0.002,1.99875 L 55.479064,105.46231 c -0.54,0.55625 -1.457501,0.55625 -1.997501,0"
   style="fill:#f4911d;fill-opacity:1;fill-rule:evenodd;stroke:none"
   id="path6988" /><path
   d="m 61.61531,24.817288 c 3.567501,0 6.477502,2.907501 6.477502,6.475002 0,3.566251 -2.910001,6.476252 -6.477502,6.476252 -3.566251,0 -6.480002,-2.910001 -6.480002,-6.476252 0,-3.567501 2.913751,-6.475002 6.480002,-6.475002"
   style="fill:#000000;fill-opacity:1;fill-rule:evenodd;stroke:none"
   id="path6456"
   inkscape:connector-curvature="0" /><path
   d="m 23.787547,39.526665 13.258754,0 0,16.508755 -13.258754,0 0,-16.508755 z"
   style="fill:#000000;fill-opacity:1;fill-rule:evenodd;stroke:none"
   id="path6458"
   inkscape:connector-curvature="0" /><path
   d="m 38.232803,39.527292 30.695009,0 11.372503,2.282501 1.842501,-5.358752 3.030001,0.615001 -2.415001,9.836252 -13.750004,-1.01125 2.615001,40.657512 -2.985001,-0.0325 -5.727502,-23.368757 -3.865001,23.350007 -2.855,0 -0.307501,-40.517512 -17.650005,-3.423751 0,-3.028751 z"
   style="fill:#000000;fill-opacity:1;fill-rule:evenodd;stroke:none"
   id="path6462"
   inkscape:connector-curvature="0" /></svg>