<?xml version="1.0" encoding="UTF-8" standalone="no"?>
<!-- Created with Inkscape (http://www.inkscape.org/) -->

<svg
   xmlns:dc="http://purl.org/dc/elements/1.1/"
   xmlns:cc="http://creativecommons.org/ns#"
   xmlns:rdf="http://www.w3.org/1999/02/22-rdf-syntax-ns#"
   xmlns:svg="http://www.w3.org/2000/svg"
   xmlns="http://www.w3.org/2000/svg"
   xmlns:sodipodi="http://sodipodi.sourceforge.net/DTD/sodipodi-0.dtd"
   xmlns:inkscape="http://www.inkscape.org/namespaces/inkscape"
   version="1.0"
   width="90"
   height="90.001251"
   id="svg2"
   inkscape:version="0.48.2 r9819"
   sodipodi:docname="MUTCD W24-1bR (temporary).svg">
  <metadata
     id="metadata13">
    <rdf:RDF>
      <cc:Work
         rdf:about="">
        <dc:format>image/svg+xml</dc:format>
        <dc:type
           rdf:resource="http://purl.org/dc/dcmitype/StillImage" />
        <dc:title></dc:title>
      </cc:Work>
    </rdf:RDF>
  </metadata>
  <sodipodi:namedview
     pagecolor="#ffffff"
     bordercolor="#666666"
     borderopacity="1"
     objecttolerance="10"
     gridtolerance="10"
     guidetolerance="10"
     inkscape:pageopacity="0"
     inkscape:pageshadow="2"
     inkscape:window-width="1280"
     inkscape:window-height="1004"
     id="namedview11"
     showgrid="false"
     fit-margin-top="0"
     fit-margin-left="0"
     fit-margin-right="0"
     fit-margin-bottom="0"
     inkscape:zoom="5.6568543"
     inkscape:cx="50.369577"
     inkscape:cy="34.167723"
     inkscape:window-x="-8"
     inkscape:window-y="-8"
     inkscape:window-maximized="1"
     inkscape:current-layer="svg2" />
  <defs
     id="defs4" />
  <path
     d="M 88.710936,41.878439 48.123436,1.2871875 c -1.71875,-1.71625 -4.53,-1.71625 -6.24625,0 L 1.2871875,41.878439 c -1.71625,1.71625 -1.71625,4.52625 0,6.244999 l 40.5899985,40.58875 c 1.716251,1.71875 4.527499,1.71875 6.246249,0 l 40.587501,-40.58875 c 1.71875,-1.71875 1.71875,-4.528749 0,-6.244999"
     style="fill:#f4911d;fill-opacity:1;fill-rule:nonzero;stroke:none"
     id="path4007"
     inkscape:connector-curvature="0" />
  <path
     d="M 87.732186,42.522187 47.478436,2.2659375 c -1.365,-1.3625 -3.59375,-1.3625 -4.956249,0 L 2.2659375,42.522187 c -1.3625,1.3625 -1.3625,3.59375 0,4.95625 L 42.522186,87.734689 c 1.3625,1.3625 3.59125,1.3625 4.95625,0 l 40.25375,-40.256252 c 1.365,-1.3625 1.365,-3.59375 0,-4.95625"
     style="fill:#000000;fill-opacity:1;fill-rule:evenodd;stroke:none"
     id="path4015"
     inkscape:connector-curvature="0" />
  <path
     d="M 86.474561,43.763429 46.238312,3.5259275 c -0.68125,-0.68125 -1.7975,-0.68125 -2.47625,0 L 3.5258125,43.763429 c -0.68125,0.68 -0.68125,1.79375 0,2.475 L 43.762062,86.474678 c 0.67875,0.681251 1.795,0.681251 2.47625,0 l 40.236249,-40.23625 c 0.68125,-0.68125 0.68125,-1.795 0,-2.474999"
     style="fill:#f4911d;fill-opacity:1;fill-rule:evenodd;stroke:none"
     id="path4019"
     inkscape:connector-curvature="0" />
  <path
     d="m 25.895308,50.400935 c 0.005,0.66125 0.37875,1.28 0.9525,1.60875 l 6.3525,4.3875 c 1.270001,0.87625 1.82625,2.575 1.82625,4.1375 l 0.005,4.34375 -3.7575,0 -0.0025,-4.32125 c 0,-0.595 -0.28625,-1.16 -0.76125,-1.51125 l -5.59125,-3.80375 c -1.695,-0.98875 -2.773751,-2.88125 -2.773751,-4.86125 0,0 0,-0.02125 0,0 0.0025,-2.32875 0.0025,-4.6575 0,-6.98625 l 0,0.0025 c 0,-1.98 1.07875,-3.8725 2.773751,-4.86375 l 5.59125,-3.80125 c 0.475,-0.35125 0.76125,-0.9175 0.76125,-1.51125 l 0.0025,-1.6825 -2.07,0.6175 c -0.286251,0.08125 -0.498751,0.1125 -0.72125,-0.03625 -0.31375,-0.215 -0.3975,-0.64875 -0.1825,-0.96375 l 4.85125,-7.17125 4.85875,7.17125 c 0.21375,0.315 0.13125,0.74875 -0.18625,0.96375 -0.21,0.14375 -0.43,0.1175 -0.68875,0.05125 l -2.10375,-0.6325 -0.005,1.705 c 0,1.5625 -0.55625,3.25875 -1.82625,4.135 l -6.3525,4.39 c -0.57375,0.32875 -0.9475,0.945 -0.9525,1.60875 -0.0025,2.34125 -0.0025,4.6825 0,7.02375"
     style="fill:#000000;fill-opacity:1;fill-rule:evenodd;stroke:none"
     id="path3939"
     inkscape:connector-curvature="0" />
  <path
     d="m 39.271559,50.400935 c 0.0025,0.66125 0.37625,1.28 0.95,1.60875 l 6.3525,4.3875 c 1.27,0.87625 1.82625,2.575 1.82625,4.1375 l 0.005,4.34375 -3.7575,0 -0.0025,-4.32125 c 0,-0.595 -0.285,-1.16 -0.76125,-1.51125 l -5.59125,-3.80375 c -1.69375,-0.98875 -2.77375,-2.88125 -2.77375,-4.86125 0,0 0,-0.02125 0,0 0.0025,-2.32875 0.0025,-4.6575 0,-6.98625 l 0,0.0025 c 0,-1.98 1.08,-3.8725 2.77375,-4.86375 l 5.59125,-3.80125 c 0.47625,-0.35125 0.76125,-0.9175 0.76125,-1.51125 l 0.0025,-1.6825 -2.07,0.6175 c -0.28625,0.08125 -0.49875,0.1125 -0.72,-0.03625 -0.315,-0.215 -0.39875,-0.64875 -0.18375,-0.96375 l 4.85125,-7.17125 4.85875,7.17125 c 0.215,0.315 0.13125,0.74875 -0.18625,0.96375 -0.21,0.14375 -0.42875,0.1175 -0.6875,0.05125 l -2.105,-0.6325 -0.005,1.705 c 0,1.5625 -0.55625,3.25875 -1.82625,4.135 l -6.3525,4.39 c -0.57375,0.32875 -0.9475,0.945 -0.95,1.60875 -0.005,2.34125 -0.005,4.6825 0,7.02375"
     style="fill:#000000;fill-opacity:1;fill-rule:evenodd;stroke:none"
     id="path3943"
     inkscape:connector-curvature="0" />
  <path
     d="m 52.639059,50.400935 c 0.005,0.66125 0.3775,1.28 0.95125,1.60875 l 6.3525,4.3875 c 1.27,0.87625 1.82625,2.575 1.82625,4.1375 l 0.005,4.34375 -3.7575,0 -0.0025,-4.32125 c 0,-0.595 -0.285,-1.16 -0.76125,-1.51125 l -5.59125,-3.80375 c -1.69375,-0.98875 -2.7725,-2.88125 -2.7725,-4.86125 0,0 0,-0.02125 0,0 0.0025,-2.32875 0.0025,-4.6575 0,-6.98625 l 0,0.0025 c 0,-1.98 1.07875,-3.8725 2.7725,-4.86375 l 5.59125,-3.80125 c 0.47625,-0.35125 0.76125,-0.9175 0.76125,-1.51125 l 0.0025,-1.6825 -2.07,0.6175 c -0.285,0.08125 -0.4975,0.1125 -0.72,-0.03625 -0.315,-0.215 -0.3975,-0.64875 -0.1825,-0.96375 l 4.85,-7.17125 4.85875,7.17125 c 0.215,0.315 0.1325,0.74875 -0.185,0.96375 -0.21,0.14375 -0.43,0.1175 -0.68875,0.05125 l -2.105,-0.6325 -0.005,1.705 c 0,1.5625 -0.55625,3.25875 -1.82625,4.135 l -6.3525,4.39 c -0.57375,0.32875 -0.94625,0.945 -0.95125,1.60875 -0.0025,2.34125 -0.0025,4.6825 0,7.02375"
     style="fill:#000000;fill-opacity:1;fill-rule:evenodd;stroke:none"
     id="path3947"
     inkscape:connector-curvature="0" />
</svg>
