<?xml version="1.0" encoding="UTF-8" standalone="no"?>
<!-- Generator: Adobe Illustrator 12.0.1, SVG Export Plug-In  -->

<svg
   xmlns:dc="http://purl.org/dc/elements/1.1/"
   xmlns:cc="http://creativecommons.org/ns#"
   xmlns:rdf="http://www.w3.org/1999/02/22-rdf-syntax-ns#"
   xmlns:svg="http://www.w3.org/2000/svg"
   xmlns="http://www.w3.org/2000/svg"
   xmlns:sodipodi="http://sodipodi.sourceforge.net/DTD/sodipodi-0.dtd"
   xmlns:inkscape="http://www.inkscape.org/namespaces/inkscape"
   version="1.1"
   width="309.78125"
   height="124.8125"
   viewBox="-1 0 309.78125 124.8125"
   enable-background="new -1 0 289 288"
   xml:space="preserve"
   id="svg2"
   inkscape:version="0.48.2 r9819"
   sodipodi:docname="AJAX1.svg"><metadata
   id="metadata22"><rdf:RDF><cc:Work
       rdf:about=""><dc:format>image/svg+xml</dc:format><dc:type
         rdf:resource="http://purl.org/dc/dcmitype/StillImage" /><dc:title /></cc:Work></rdf:RDF></metadata><sodipodi:namedview
   pagecolor="#ffffff"
   bordercolor="#666666"
   borderopacity="1"
   objecttolerance="10"
   gridtolerance="10"
   guidetolerance="10"
   inkscape:pageopacity="0"
   inkscape:pageshadow="2"
   inkscape:window-width="1280"
   inkscape:window-height="1004"
   id="namedview20"
   showgrid="false"
   fit-margin-top="0"
   fit-margin-left="0"
   fit-margin-right="0"
   fit-margin-bottom="0"
   inkscape:zoom="1.1588695"
   inkscape:cx="148.3412"
   inkscape:cy="-16.920554"
   inkscape:window-x="-8"
   inkscape:window-y="-8"
   inkscape:window-maximized="1"
   inkscape:current-layer="svg2"
   showguides="true"
   inkscape:guide-bbox="true"><sodipodi:guide
     orientation="0,1"
     position="-1129.377,-3612.6033"
     id="guide2987" /></sodipodi:namedview>
<defs
   id="defs4">
</defs>







<path
   inkscape:connector-curvature="0"
   d="m 308.03623,104.79627 c 0,10.5975 -8.67,19.2675 -19.2675,19.2675 l -269.749994,0 c -10.5974992,0 -19.26874917,-8.67001 -19.26874917,-19.2675 l 0,-84.77877 C -0.25001317,9.42 8.4212368,0.75 19.018736,0.75 l 269.749994,0 c 10.5975,0 19.2675,8.67 19.2675,19.2675 l 0,84.77877 z"
   style="fill:#ffffff;fill-opacity:1;fill-rule:nonzero;stroke:#000000;stroke-width:1.5;stroke-miterlimit:4;stroke-opacity:1;stroke-dasharray:none"
   id="path4620" /><path
   inkscape:connector-curvature="0"
   d="m 288.76823,5.88788 -269.749994,0 c -7.77125,0 -14.1299992,6.35875 -14.1299992,14.13 l 0,84.77876 c 0,7.77125 6.3587492,14.13001 14.1299992,14.13001 l 269.749994,0 c 7.77125,0 14.13,-6.35875 14.13,-14.13001 l 0,-84.77876 c 0,-7.77125 -6.35875,-14.13 -14.13,-14.13 m 6.4225,98.90876 c 0,3.53251 -2.89,6.4225 -6.4225,6.4225 l -269.749994,0 c -3.5325,0 -6.4225,-2.88999 -6.4225,-6.4225 l 0,-84.77876 c 0,-3.5325 2.89,-6.4225 6.4225,-6.4225 l 269.749994,0 c 3.5325,0 6.4225,2.89 6.4225,6.4225 l 0,84.77876 z"
   style="fill:#000000;fill-opacity:1;fill-rule:nonzero;stroke:none"
   id="path4628" /><path
   d="m 47.256113,79.580768 c -1.035,2.1925 -3.16625,4.02 -7.18625,4.02 -3.776251,0 -6.516251,-1.70625 -7.795001,-5.48125 -1.1575,-3.47125 -1.705,-9.075 -1.705,-15.7125 0,-3.776251 0.42625,-9.257501 1.035,-12.423751 1.1575,-6.33375 3.5925,-8.77 8.465001,-8.77 4.62875,0 7.67375,2.8625 8.1,7.9175 l -5.36,0 c -0.12125,-1.76625 -1.15625,-2.61875 -2.5575,-2.61875 -1.887501,0 -2.922501,1.34 -3.471251,4.01875 -0.73125,3.35 -0.8525,6.395 -0.8525,11.876251 0,5.725 0.12125,8.22125 0.8525,11.6925 0.54875,2.74125 1.58375,4.14125 3.288751,4.14125 1.8875,0 2.74,-1.4 2.74,-5.055 l 5.36,0 c 0,0 0.12125,4.325 -0.91375,6.395"
   style="fill:#000000;fill-opacity:1;fill-rule:nonzero;stroke:none"
   id="path4216"
   inkscape:connector-curvature="0" /><path
   d="m 55.964363,82.86938 0,-41.107501 15.163751,0 0,5.35875 -9.926251,0 0,10.53625 6.5775,0 0,5.481251 -6.5775,0 0,14.3725 10.475001,0 0,5.35875 -15.712501,0 z"
   style="fill:#000000;fill-opacity:1;fill-rule:nonzero;stroke:none"
   id="path4220"
   inkscape:connector-curvature="0" /><path
   d="m 91.530114,82.86938 -8.03875,-24.360001 0,24.360001 -5.2375,0 0,-41.107501 5.2375,0 7.3075,20.462501 0,-20.462501 5.2375,0 0,41.107501 -4.50625,0 z"
   style="fill:#000000;fill-opacity:1;fill-rule:nonzero;stroke:none"
   id="path4224"
   inkscape:connector-curvature="0" /><path
   d="m 111.99211,47.12088 0,35.748751 -5.17625,0 0,-35.748751 -5.055,0 0,-5.35875 15.59,0 0,5.35875 -5.35875,0 z"
   style="fill:#000000;fill-opacity:1;fill-rule:nonzero;stroke:none"
   id="path4228"
   inkscape:connector-curvature="0" /><path
   d="m 123.07549,82.86938 0,-41.107501 15.16376,0 0,5.35875 -9.92626,0 0,10.53625 6.57751,0 0,5.481251 -6.57751,0 0,14.3725 10.47501,0 0,5.35875 -15.71251,0 z"
   style="fill:#000000;fill-opacity:1;fill-rule:nonzero;stroke:none"
   id="path4232"
   inkscape:connector-curvature="0" /><path
   d="m 158.82387,62.406893 4.14126,20.4625 -5.29875,0 -4.6275,-19.18375 -2.43625,0 0,19.18375 -5.2375,0 0,-41.107501 8.1,0 c 6.33374,0 9.68249,3.8975 9.68249,11.51 0,4.62875 -1.34,7.247501 -4.32375,9.135001 m -5.66374,-15.286251 -2.5575,0 0,11.20625 3.41,0 c 2.92375,0 3.77625,-1.27875 3.77625,-5.17625 0,-4.62875 -1.035,-6.03 -4.62875,-6.03"
   style="fill:#000000;fill-opacity:1;fill-rule:nonzero;stroke:none"
   id="path4236"
   inkscape:connector-curvature="0" /><path
   d="m 188.54463,82.887281 0,-41.107501 5.2375,0 0,36.357501 10.475,0 0,4.75 -15.7125,0 z"
   style="fill:#000000;fill-opacity:1;fill-rule:nonzero;stroke:none"
   id="path4240"
   inkscape:connector-curvature="0" /><path
   d="m 223.50138,82.887281 -2.31375,-10.9625 -6.76,0 -2.315,10.9625 -5.35875,0 8.40375,-41.107501 5.29875,0 8.52624,41.107501 -5.48124,0 z m -5.6025,-27.100001 -2.315,10.778751 4.44625,0 -2.13125,-10.778751 z"
   style="fill:#000000;fill-opacity:1;fill-rule:nonzero;stroke:none"
   id="path4244"
   inkscape:connector-curvature="0" /><path
   d="m 247.98323,82.887281 -8.03875,-24.360001 0,24.360001 -5.2375,0 0,-41.107501 5.2375,0 7.3075,20.462501 0,-20.462501 5.2375,0 0,41.107501 -4.50625,0 z"
   style="fill:#000000;fill-opacity:1;fill-rule:nonzero;stroke:none"
   id="path4248"
   inkscape:connector-curvature="0" /><path
   d="m 261.50249,82.887281 0,-41.107501 15.16375,0 0,5.35875 -9.92625,0 0,10.53625 6.5775,0 0,5.481251 -6.5775,0 0,14.3725 10.475,0 0,5.35875 -15.7125,0 z"
   style="fill:#000000;fill-opacity:1;fill-rule:nonzero;stroke:none"
   id="path4252"
   inkscape:connector-curvature="0" /></svg>