<?xml version="1.0" encoding="UTF-8" standalone="no"?>
<!-- Generator: Adobe Illustrator 14.0.0, SVG Export Plug-In  -->

<svg
   xmlns:dc="http://purl.org/dc/elements/1.1/"
   xmlns:cc="http://creativecommons.org/ns#"
   xmlns:rdf="http://www.w3.org/1999/02/22-rdf-syntax-ns#"
   xmlns:svg="http://www.w3.org/2000/svg"
   xmlns="http://www.w3.org/2000/svg"
   xmlns:sodipodi="http://sodipodi.sourceforge.net/DTD/sodipodi-0.dtd"
   xmlns:inkscape="http://www.inkscape.org/namespaces/inkscape"
   version="1.1"
   x="0px"
   y="0px"
   width="90.001244"
   height="270.01001"
   viewBox="0 -0.321 90.001247 270.01005"
   enable-background="new 0 -0.321 144 120"
   xml:space="preserve"
   id="svg2"
   inkscape:version="0.48.2 r9819"
   sodipodi:docname="MUTCD R1-5cR.svg"><metadata
   id="metadata44"><rdf:RDF><cc:Work
       rdf:about=""><dc:format>image/svg+xml</dc:format><dc:type
         rdf:resource="http://purl.org/dc/dcmitype/StillImage" /><dc:title></dc:title></cc:Work></rdf:RDF></metadata><sodipodi:namedview
   pagecolor="#ffffff"
   bordercolor="#666666"
   borderopacity="1"
   objecttolerance="10"
   gridtolerance="10"
   guidetolerance="10"
   inkscape:pageopacity="0"
   inkscape:pageshadow="2"
   inkscape:window-width="1280"
   inkscape:window-height="1004"
   id="namedview42"
   showgrid="false"
   fit-margin-top="0"
   fit-margin-left="0"
   fit-margin-right="0"
   fit-margin-bottom="0"
   inkscape:zoom="1.8952344"
   inkscape:cx="58.927617"
   inkscape:cy="160.57108"
   inkscape:window-x="-8"
   inkscape:window-y="-8"
   inkscape:window-maximized="1"
   inkscape:current-layer="svg2" />
<defs
   id="defs4">
</defs>


















<path
   inkscape:connector-curvature="0"
   d="m 11.251245,-0.321 67.50001,0 c 6.19625,0 11.25,5.055 11.25,11.25 l 0,247.51004 c 0,6.19625 -5.05375,11.25 -11.25,11.25 l -67.50001,0 c -6.1962501,0 -11.2512500012275,-5.05375 -11.2512500012275,-11.25 l 0,-247.51004 C -5.0012276e-6,4.734 5.0549949,-0.321 11.251245,-0.321"
   style="fill:#ffd033;fill-opacity:1;fill-rule:evenodd;stroke:none"
   id="path3513" /><path
   inkscape:connector-curvature="0"
   d="m 15.001245,48.47038 60.00001,0 c 4.13125,0 7.5,3.36875 7.5,7.5 l 0,165.00753 c 0,4.13125 -3.36875,7.5 -7.5,7.5 l -60.00001,0 c -4.13125,0 -7.5000001,-3.36875 -7.5000001,-7.5 l 0,-165.00753 c 0,-4.13125 3.3687501,-7.5 7.5000001,-7.5"
   style="fill:#000000;fill-opacity:1;fill-rule:evenodd;stroke:none"
   id="path3521" /><path
   inkscape:connector-curvature="0"
   d="m 72.675755,22.21038 -9.21625,0 0,-14.99125 8.74875,0 0,2.36625 -6.405,0 0,3.6825 4.32125,0 0,2.41875 -4.32125,0 0,4.10375 6.8725,0 0,2.42 z m -11.4025,-12.88875 -3.43625,0 0,12.88875 -2.34375,0 0,-12.88875 -3.38375,0 0,-2.1025 9.16375,0 0,2.1025 z m -14.8925,6.26 -1.45875,-4.20625 -1.50875,4.20625 2.9675,0 z m 4.79125,6.62875 -2.5,0 -1.4575,-4.20875 -4.635,0 -1.45875,4.20875 -2.49876,0 5.10376,-14.99125 2.3425,0 5.10375,14.99125 z m -13.43501,-12.88875 -3.4375,0 0,12.88875 -2.3425,0 0,-12.88875 -3.385,0 0,-2.1025 9.165,0 0,2.1025 z m -10.3625,8.575 c 0,1.4375 -0.46,2.56125 -1.38,3.36625 -0.92,0.80625 -2.0225,1.21125 -3.30625,1.21125 -2.53375,0 -4.34,-1.26375 -5.415,-3.78875 l 2.23875,-0.84 c 0.65875,1.47125 1.71875,2.2075 3.17625,2.2075 1.5275,0 2.29125,-0.73625 2.29125,-2.2075 0,-0.8425 -0.45125,-1.50875 -1.35375,-2 -0.9375,-0.35125 -1.8925,-0.71875 -2.86375,-1.105 -1.91,-0.80625 -2.86375,-2.05125 -2.86375,-3.73375 0,-2.7 1.54375,-4.05 4.63375,-4.05 2.01375,0 3.41875,1.015 4.2175,3.05 -0.8325,0.28 -1.5275,0.49125 -2.0825,0.63125 -0.45125,-0.87625 -1.18125,-1.31625 -2.18625,-1.31625 -1.59875,0 -2.36125,0.57875 -2.2925,1.73625 0.07,0.7375 0.7125,1.31625 1.9275,1.73625 1.87375,0.59625 3.02,1.035 3.43625,1.315 1.215,0.80625 1.8225,2.06875 1.8225,3.7875"
   style="fill:#000000;fill-opacity:1;fill-rule:evenodd;stroke:none"
   id="path3541" /><path
   inkscape:connector-curvature="0"
   d="m 80.676255,262.26167 -1.69625,0 -1.97375,-5.48251 -1.025,1.89375 0,3.58876 -1.61875,0 0,-11.24251 1.61875,0 0,4.4975 2.565,-4.4975 1.85375,0 -2.3275,3.94625 2.60375,7.29626 z m -7.89125,0 -5.7225,0 0,-11.24251 1.6175,0 0,9.74376 4.105,0 0,1.49875 z m -10.0625,-4.65501 -0.83,-3.235 -0.78875,3.235 1.61875,0 z m 2.80125,4.65501 -1.6175,0 -0.79,-3.07625 -2.4075,0 -0.74875,3.07625 -1.6175,0 2.8,-11.24251 1.58,0 2.80125,11.24251 z m -7.8525,-11.24251 -1.81625,11.24251 -1.38,0 -1.06625,-5.87876 -1.065,5.87876 -1.42125,0 -1.77625,-11.24251 1.57875,0 0.9475,5.99625 1.105,-5.99625 1.2625,0 1.065,5.99625 0.98625,-5.99625 1.58,0 z m -9.55125,8.16626 c 0,0.89375 -0.3025,1.66375 -0.9075,2.3075 -0.605,0.645 -1.34125,0.9675 -2.21,0.9675 -0.94625,0 -1.70875,-0.3425 -2.2875,-1.02625 -0.57875,-0.68375 -0.86875,-1.51375 -0.86875,-2.485 l 1.57875,0 c 0,1.28875 0.525,1.93125 1.5775,1.93125 0.4225,0 0.79,-0.17125 1.10625,-0.5125 0.315,-0.3425 0.47375,-0.735 0.47375,-1.1825 0,-0.57751 -0.30375,-1.11751 -0.90875,-1.61751 0.1325,0.0775 -0.49875,-0.36875 -1.895,-1.34125 -0.92,-0.65875 -1.38,-1.48625 -1.38,-2.485 0,-0.815 0.27625,-1.50625 0.82875,-2.0725 0.55125,-0.56375 1.23625,-0.8475 2.0525,-0.8475 0.78875,0 1.45375,0.27625 1.9925,0.8275 0.53875,0.555 0.8225,1.25 0.8475,2.0925 l -1.5375,0 c -0.0538,-0.86875 -0.4875,-1.30375 -1.3025,-1.30375 -0.36875,0 -0.685,0.1275 -0.9475,0.37625 -0.2625,0.24875 -0.395,0.55875 -0.395,0.9275 0,0.4975 0.35625,0.945 1.065,1.34 2.07875,1.21125 3.1175,2.57875 3.1175,4.10376 m -7.61625,0 c 0,0.89375 -0.3025,1.66375 -0.90625,2.3075 -0.60625,0.645 -1.34376,0.9675 -2.21126,0.9675 -0.94625,0 -1.71,-0.3425 -2.28875,-1.02625 -0.57875,-0.68375 -0.8675,-1.51375 -0.8675,-2.485 l 1.5775,0 c 0,1.28875 0.52625,1.93125 1.57875,1.93125 0.42125,0 0.79,-0.17125 1.105,-0.5125 0.31625,-0.3425 0.47376,-0.735 0.47376,-1.1825 0,-0.57751 -0.30251,-1.11751 -0.90751,-1.61751 0.1325,0.0775 -0.5,-0.36875 -1.89375,-1.34125 -0.92125,-0.65875 -1.38125,-1.48625 -1.38125,-2.485 0,-0.815 0.27625,-1.50625 0.8275,-2.0725 0.55375,-0.56375 1.2375,-0.8475 2.05375,-0.8475 0.78875,0 1.45251,0.27625 1.99251,0.8275 0.53875,0.555 0.8225,1.25 0.8475,2.0925 l -1.53875,0 c -0.0525,-0.86875 -0.48626,-1.30375 -1.30126,-1.30375 -0.36875,0 -0.685,0.1275 -0.9475,0.37625 -0.26375,0.24875 -0.395,0.55875 -0.395,0.9275 0,0.4975 0.35625,0.945 1.065,1.34 2.07876,1.21125 3.11751,2.57875 3.11751,4.10376 m -9.51001,-2.56501 c 0,-1.13125 -0.11875,-2.06375 -0.355,-2.8 -0.29,-0.9475 -0.75,-1.42125 -1.38125,-1.42125 -0.68375,0 -1.1575,0.46125 -1.42,1.38125 -0.2375,0.7625 -0.35625,1.72125 -0.35625,2.87875 0,1.07875 0.11875,2.02625 0.35625,2.84126 0.2625,0.92125 0.73625,1.38 1.42,1.38 0.65875,0 1.11875,-0.45875 1.38125,-1.38 0.23625,-0.78751 0.355,-1.75001 0.355,-2.88001 m 1.53875,0 c 0,1.60375 -0.21,2.90751 -0.63125,3.90626 -0.525,1.28875 -1.4075,1.93375 -2.64375,1.93375 -1.2625,0 -2.15625,-0.645 -2.6825,-1.93375 -0.42125,-0.99875 -0.6325,-2.30251 -0.6325,-3.90626 0,-1.63125 0.21125,-2.9325 0.6325,-3.90375 0.55125,-1.265 1.44625,-1.895 2.6825,-1.895 1.23625,0 2.11875,0.645 2.64375,1.93375 0.42125,0.99875 0.63125,2.2875 0.63125,3.865 m -9.865,-2.6025 c 0,-0.9475 -0.4875,-1.42125 -1.46,-1.42125 l -1.6575,0 0,2.84125 1.6575,0 c 0.9725,0 1.46,-0.4725 1.46,-1.42 m 1.57875,8.24376 -1.65875,0 -1.49875,-5.28501 -1.53875,0 0,5.28501 -1.6175,0 0,-11.24251 3.35375,0 c 0.89375,0 1.61125,0.26875 2.15125,0.80875 0.54,0.53875 0.80875,1.26875 0.80875,2.19 0,1.39375 -0.54,2.3 -1.6175,2.72125 l 1.6175,5.52251 z m -8.56375,-8.24376 -1.6175,0 c -0.13125,-1.08 -0.57875,-1.61875 -1.3425,-1.61875 -0.6575,0 -1.1175,0.29 -1.38125,0.86875 -0.2625,0.57875 -0.39375,1.60375 -0.39375,3.07625 0,3.02501 0.64375,4.53626 1.93375,4.53626 0.78875,0 1.18375,-0.5375 1.18375,-1.61625 l 1.6175,0 c -0.0262,0.9475 -0.3025,1.71625 -0.82875,2.3075 -0.52625,0.5925 -1.18375,0.88875 -1.9725,0.88875 -2.31625,0 -3.4737501,-2.02625 -3.4737501,-6.07751 0,-3.70875 1.1187501,-5.56125 3.3550001,-5.56125 0.9475,0 1.68375,0.38125 2.21,1.145 0.3675,0.47125 0.605,1.1575 0.71,2.05125"
   style="fill:#000000;fill-opacity:1;fill-rule:evenodd;stroke:none"
   id="path3557" /><path
   inkscape:connector-curvature="0"
   d="m 63.714625,27.82538 -2.20875,14.99 -2.10375,0 -2.3675,-9.625 -2.31375,9.625 -2.10375,0 -2.20875,-14.99 2.41875,0 1.1575,7.89125 1.89375,-7.89125 2.31375,0 1.94625,7.89125 1.1575,-7.89125 2.41875,0 z m -19.0925,8.36375 -1.4725,-4.20875 -1.52625,4.20875 2.99875,0 z m 4.83875,6.62625 -2.525,0 -1.4725,-4.20625 -4.68125,0 -1.4725,4.20625 -2.52501,0 5.15501,-14.99 2.3675,0 5.15375,14.99 z m -13.57126,0 -9.30875,0 0,-14.99 2.3675,0 0,12.78125 6.94125,0 0,2.20875 z"
   style="fill:#000000;fill-opacity:1;fill-rule:evenodd;stroke:none"
   id="path3561" /><path
   inkscape:connector-curvature="0"
   d="m 64.882875,245.38041 -1.2225,0 -3.47125,-7.535 0,7.535 -1.6175,0 0,-11.24375 1.6175,0 3.0775,6.74625 0,-6.74625 1.61625,0 0,11.24375 z m -8.78875,0 -1.5775,0 0,-11.24375 1.5775,0 0,11.24375 z m -4.02875,0 -1.6175,0 0,-5.09125 -3.07625,0 0,5.09125 -1.6175,0 0,-11.24375 1.6175,0 0,4.57625 3.07625,0 0,-4.57625 1.6175,0 0,11.24375 z m -7.84875,-9.74375 -2.05125,0 0,9.74375 -1.6175,0 0,-9.74375 -2.05001,0 0,-1.5 5.71876,0 0,1.5 z m -7.32876,9.74375 -1.5775,0 0,-11.24375 1.5775,0 0,11.24375 z m -3.12375,-11.24375 -1.81375,11.24375 -1.38,0 -1.065,-5.88 -1.065,5.88 -1.42,0 -1.775,-11.24375 1.57875,0 0.94625,5.99625 1.10375,-5.99625 1.2625,0 1.065,5.99625 0.98625,-5.99625 1.57625,0 z"
   style="fill:#000000;fill-opacity:1;fill-rule:evenodd;stroke:none"
   id="path3565" /><path
   inkscape:connector-curvature="0"
   d="m 15.024495,50.34538 34.9525,0 20.56001,0 c 3.2175,0 7.03875,-0.5975 9.12625,2.4875 1.1975,1.7675 0.9625,3.905 0.9625,5.9275 l 0,11.02 0,39.52126 0,49.23251 0,42.63 0,19.69125 c 0,3.61625 -2.91125,5.7475 -6.2925,5.7475 l -15.345,0 -42.10126,0 c -1.175,0 -2.41625,0.1 -3.55375,-0.25375 -2.23625,-0.69875 -3.8050001,-2.75625 -3.9487501,-5.08125 -0.0987,-1.60375 -0.009,-3.23875 -0.009,-4.84375 l 0,-31.31125 0,-47.38876 0,-47.145 0,-30.57626 0,-3.91125 c 0,-3.12625 2.4887501,-5.73625 5.6487501,-5.74625"
   style="fill:#ffffff;fill-opacity:1;fill-rule:evenodd;stroke:none"
   id="path3525" /><path
   inkscape:connector-curvature="0"
   d="m 51.406265,136.60777 c 0,-1.34 -0.2225,-2.3925 -0.66875,-3.15625 -0.31625,-0.55125 -0.80375,-0.84 -1.46,-0.86625 -0.8425,-0.0537 -1.445,0.4075 -1.81375,1.37875 -0.29,0.7375 -0.435,1.61875 -0.435,2.64375 0,1.345 0.225,2.38375 0.67125,3.11875 0.3425,0.5775 0.855,0.86625 1.53875,0.86625 0.7875,0 1.36625,-0.47375 1.735,-1.41875 0.28875,-0.70875 0.4325,-1.56375 0.4325,-2.56625 m 1.775,0 c 0,1.94875 -0.4075,3.46 -1.2225,4.53625 -0.60375,0.84251 -1.5125,1.26251 -2.72,1.26251 -1.5,0 -2.5775,-0.66875 -3.235,-2.01126 -0.525,-1.05 -0.78875,-2.3125 -0.78875,-3.7875 0,-1.945 0.4075,-3.47125 1.2225,-4.575 0.63,-0.8425 1.59125,-1.26375 2.87875,-1.26375 1.39375,0 2.43125,0.67125 3.11625,2.01375 0.5,1.05 0.74875,2.32625 0.74875,3.825 m -9.39251,-4.0625 -2.60375,0 0,9.66626 -1.775,0 0,-9.66626 -2.5625,0 0,-1.57875 6.94125,0 0,1.57875 z"
   style="fill:#000000;fill-opacity:1;fill-rule:evenodd;stroke:none"
   id="path3545" /><path
   inkscape:connector-curvature="0"
   d="m 41.767625,151.5454 c 2.4925,0 4.52626,2.03375 4.52626,4.52875 0,2.4925 -2.03376,4.52625 -4.52626,4.52625 -2.49375,0 -4.5275,-2.03375 -4.5275,-4.52625 0,-2.495 2.03375,-4.52875 4.5275,-4.52875"
   style="fill:#000000;fill-opacity:1;fill-rule:evenodd;stroke:none"
   id="path3549" /><path
   inkscape:connector-curvature="0"
   d="m 28.059125,180.0979 9.4975,-6.33375 c 0.43875,-1.8575 2.26,-10.095 5.9125,-12.00125 3.61876,-2.39375 16.96001,7.43375 17.03626,7.51375 l 0,14.34375 -2.8925,-0.5025 -1.13125,-11.45125 c -1.09125,-0.21875 -2.18,-0.43625 -3.27,-0.65625 2.38125,6.1625 3.25625,12.095 1.88625,16.00625 l 5.78625,23.64375 -3.89875,2.76625 -8.4275,-21.8825 -3.89876,4.15125 -5.4075,16.47375 -5.15625,-1.8875 4.65375,-17.3525 5.4075,-9.68625 -2.0725,-7.1475 -2.20375,2.8725 -10.3125,3.395 -1.50875,-2.265 z"
   style="fill:#000000;fill-opacity:1;fill-rule:evenodd;stroke:none"
   id="path3553" /><path
   inkscape:connector-curvature="0"
   d="m 12.966375,71.08288 c -1.5225,-2.97875 0.0788,-6.72625 3.4,-7.49125 0.62625,-0.145 1.2425,-0.1375 1.87625,-0.1375 1.99,10e-4 3.98,10e-4 5.97125,10e-4 7.4825,0.002 14.9675,0.005 22.45,0.006 7.12126,0.001 14.24126,0.004 21.36376,0.005 1.5375,10e-4 3.07625,10e-4 4.6125,10e-4 3.95375,0 6.36375,4.45125 4.43375,7.81 -6.38375,11.10875 -12.76875,22.21625 -19.1525,33.32501 -2.66625,4.63875 -5.33125,9.275 -7.99751,13.9125 -1.53375,2.67125 -4.72125,4.0175 -7.525,2.255 -1.46125,-0.91875 -2.2275,-2.645 -3.06875,-4.0975 -7.1575,-12.37625 -14.31375,-24.75376 -21.47125,-37.12876 -1.63125,-2.82 -3.26125,-5.64125 -4.8925,-8.46125"
   style="fill:#af1e2d;fill-opacity:1;fill-rule:evenodd;stroke:none"
   id="path3529" /><path
   inkscape:connector-curvature="0"
   d="m 47.480505,103.62414 c -0.45375,0.835 -1.36375,1.38375 -2.32375,1.38375 -0.96125,0 -1.87001,-0.54875 -2.32501,-1.38375 l -15.55,-26.87 c -0.2375,-0.40375 -0.37125,-0.88875 -0.37125,-1.36375 0,-1.45625 1.1875,-2.645 2.64375,-2.645 l 30.70751,0 c 1.8525,0 3.04125,1.18875 3.04125,2.645 0,0.475 -0.145,0.97 -0.3825,1.3725 l -15.44,26.86125 z"
   style="fill:#ffffff;fill-opacity:1;fill-rule:evenodd;stroke:none"
   id="path3533" /><path
   inkscape:connector-curvature="0"
   d="m 54.240755,80.74026 c 0,0.5125 -0.0475,0.97875 -0.0937,1.39875 -0.0937,0.5125 -0.3975,0.9575 -0.95625,0.9575 l -0.79375,0 0,-4.7825 0.79375,0 c 0.42,0 0.7,0.21 0.8625,0.67625 0.11625,0.28 0.1875,1.0025 0.1875,1.75 m 0.9325,-0.0475 c 0,-0.51375 -0.0713,-1.09625 -0.16375,-1.58625 -0.1175,-0.67625 -0.39625,-1.18875 -0.79375,-1.46875 -0.23125,-0.1875 -0.5125,-0.25625 -1.07125,-0.25625 l -1.70375,0 0,6.6475 1.8425,0 c 0.37375,0 0.70125,-0.0937 0.9325,-0.30375 0.655,-0.51375 0.9575,-1.49375 0.9575,-3.0325 m -4.64125,3.33625 0,-0.88625 -2.42625,0 0,-5.76125 -0.9575,0 0,6.6475 3.38375,0 z m -4.50125,0 0,-0.9325 -2.4275,0 0,-2.19375 1.3775,0 0,-0.91 -1.3775,0 0,-1.67875 2.17125,0 0,-0.9325 -3.12625,0 0,6.6475 3.3825,0 z m -4.83001,-6.6475 -0.9325,0 0,6.6475 0.9325,0 0,-6.6475 z m -1.8425,0 -1.02625,0 -1.095,2.40125 -1.12125,-2.40125 -1.0025,0 1.6325,3.6375 0,3.01 0.95625,0 0,-3.01 1.65625,-3.6375 z"
   style="fill:#af1e2d;fill-opacity:1;fill-rule:evenodd;stroke:none"
   id="path3537" /></svg>