<?xml version="1.0" encoding="UTF-8" standalone="no"?>
<svg
   xmlns:dc="http://purl.org/dc/elements/1.1/"
   xmlns:cc="http://creativecommons.org/ns#"
   xmlns:rdf="http://www.w3.org/1999/02/22-rdf-syntax-ns#"
   xmlns:svg="http://www.w3.org/2000/svg"
   xmlns="http://www.w3.org/2000/svg"
   xmlns:sodipodi="http://sodipodi.sourceforge.net/DTD/sodipodi-0.dtd"
   xmlns:inkscape="http://www.inkscape.org/namespaces/inkscape"
   width="90"
   height="89.992096"
   viewBox="0 0 254.00007 253.97768"
   version="1.1"
   id="svg2"
   inkscape:version="0.48.2 r9819"
   sodipodi:docname="AJAX1.svg">
  <metadata
     id="metadata62">
    <rdf:RDF>
      <cc:Work
         rdf:about="">
        <dc:format>image/svg+xml</dc:format>
        <dc:type
           rdf:resource="http://purl.org/dc/dcmitype/StillImage" />
        <dc:title></dc:title>
      </cc:Work>
    </rdf:RDF>
  </metadata>
  <defs
     id="defs60" />
  <sodipodi:namedview
     pagecolor="#ffffff"
     bordercolor="#666666"
     borderopacity="1"
     objecttolerance="10"
     gridtolerance="10"
     guidetolerance="10"
     inkscape:pageopacity="0"
     inkscape:pageshadow="2"
     inkscape:window-width="1280"
     inkscape:window-height="1004"
     id="namedview58"
     showgrid="false"
     fit-margin-top="0"
     fit-margin-left="0"
     fit-margin-right="0"
     fit-margin-bottom="0"
     inkscape:zoom="5.6568542"
     inkscape:cx="65.266177"
     inkscape:cy="37.680016"
     inkscape:window-x="-8"
     inkscape:window-y="-8"
     inkscape:window-maximized="1"
     inkscape:current-layer="svg2"
     showguides="true"
     inkscape:guide-bbox="true" />
  <!-- draw the bicycle -->
  <!-- RIGHT -->
  <!-- LANE -->
  <!-- ONLY -->
  <path
     inkscape:connector-curvature="0"
     d="M 118.77326,250.564 3.43253,135.2268 C 1.26648,133.06075 0,130.06213 0,126.99297 c 0,-3.07623 1.26648,-6.06778 3.43253,-8.24442 L 118.77326,3.4113484 c 2.17311,-2.17664 5.15761,-3.41841004 8.24089,-3.411360043579 3.06917,0 6.07131,1.234720043579 8.23383,3.411360043579 L 250.59576,118.74855 c 2.159,2.16253 3.40431,5.18936 3.40431,8.24442 0,3.05152 -1.24531,6.07483 -3.40431,8.23383 L 135.24798,250.564 c -2.794,2.79753 -6.99911,3.99697 -10.85144,3.14325 -2.26837,-0.51858 -3.84528,-1.70392 -5.62328,-3.14325"
     style="fill:#f4911d;fill-opacity:1;fill-rule:nonzero;stroke:none"
     id="path3438-4" />
  <path
     inkscape:connector-curvature="0"
     d="M 133.18073,248.51755 248.54262,133.15566 c 1.60514,-1.60514 2.53295,-3.88409 2.53295,-6.16303 0,-2.27189 -0.92781,-4.58259 -2.53295,-6.18773 L 133.18073,5.4571284 c -1.6263,-1.61925 -3.85939,-2.52942 -6.1595,-2.52942 -2.31069,0 -4.56847,0.91017 -6.19831,2.52942 L 5.48573,120.8049 c -1.61925,1.61925 -2.55411,3.89114 -2.55411,6.18773 0,2.29305 0.93486,4.54378 2.55411,6.16303 l 115.33719,115.36189 c 1.61573,1.60514 3.92289,2.52942 6.19831,2.52942 2.26836,0 4.54731,-0.92428 6.1595,-2.52942"
     style="fill:#000000;fill-opacity:1;fill-rule:evenodd;stroke:none"
     id="path3462-0" />
  <path
     inkscape:connector-curvature="0"
     d="m 129.75597,245.07302 c -0.70909,0.70203 -1.74273,1.12184 -2.74462,1.12889 -1.00541,0 -2.032,-0.4198 -2.73755,-1.12889 L 8.91543,129.7323 c -0.73025,-0.71967 -1.11477,-1.72508 -1.11477,-2.73756 0,-1.02658 0.38452,-2.02141 1.11477,-2.74461 L 124.2738,8.9129384 c 0.70555,-0.71261 1.73214,-1.143 2.73755,-1.13595 1.00189,0 2.03553,0.42334 2.74462,1.13595 L 245.08963,124.25013 c 0.7232,0.71614 1.13242,1.72861 1.13948,2.74461 0.007,1.03364 -0.40923,2.00378 -1.13948,2.73756 L 129.75597,245.07302 z"
     style="fill:#f4911d;fill-opacity:1;fill-rule:evenodd;stroke:none"
     id="path3466-9" />
  <path
     d="m 42.55825,152.0085 15.09889,15.12712 30.04609,-30.04257 c 4.27214,-4.27919 7.52475,-9.56733 9.27453,-15.36347 1.03364,-3.43606 1.55223,-7.02028 1.55223,-10.60451 l 0,-10.18117 12.40014,3.76414 c 0.31044,0.0917 0.61383,0.10936 0.92428,0.14111 0.93133,0.10231 1.79916,-0.17639 2.58233,-0.68792 0.90311,-0.59972 1.53811,-1.54517 1.73919,-2.61056 0.21872,-1.2065 -0.0141,-2.278942 -0.72672,-3.249081 L 87.86904,60.543773 60.33473,98.301589 c -0.52211,0.719667 -0.81139,1.527528 -0.80434,2.416531 0.0212,2.07786 1.35114,3.65125 3.37609,4.08516 0.60678,0.13053 1.34408,0.0882 1.95086,-0.0953 l 12.33311,-3.76414 0,10.07534 c 0,2.31422 -0.4833,4.62845 -1.50989,6.70984 -0.64911,1.30175 -1.43227,2.59644 -2.46591,3.63008 l -30.6564,30.64934 z"
     style="fill:#000000;fill-opacity:1;fill-rule:evenodd;stroke:none"
     id="path3502"
     inkscape:connector-curvature="0" />
  <path
     d="m 154.83722,101.06067 0,91.45414 21.32189,0 0,-91.45414 12.39309,3.76767 c 0.29986,0.0917 0.60678,0.13758 0.92075,0.14464 0.889,0.0212 1.778,-0.14464 2.52941,-0.64558 0.9137,-0.61736 1.58398,-1.59456 1.8027,-2.6917 0.22225,-1.13947 -0.06,-2.282472 -0.74436,-3.213806 l -27.57312,-37.768399 -27.5202,37.768399 c -0.39511,0.550334 -0.66675,1.118306 -0.79023,1.781526 -0.19756,1.05128 0.06,2.08139 0.6597,2.96334 0.58561,0.87489 1.48872,1.53105 2.52942,1.71803 0.68086,0.11994 1.45344,0.14816 2.13077,-0.0564 l 12.34018,-3.76767 z"
     style="fill:#000000;fill-opacity:1;fill-rule:evenodd;stroke:none"
     id="path3506"
     inkscape:connector-curvature="0" />
  <path
     d="m 74.88681,184.77133 5.58801,5.59506 26.89225,-26.87109 c 1.3582,-1.36525 2.72345,-2.7305 4.0887,-4.09928 0.13758,-0.13758 0.26811,-0.27517 0.39864,-0.41628 2.37772,-2.56116 4.51908,-5.35164 6.46289,-8.24442 1.66864,-2.49061 3.0868,-5.07294 4.49086,-7.71172 l 0,77.03258 7.76817,0 0,-108.59914 -7.69762,0 c -0.12347,2.42005 -0.28927,4.83305 -0.49741,7.24606 -0.10936,1.19944 -0.254,2.39536 -0.44097,3.58422 -1.19239,7.4683 -4.00051,14.72495 -7.86695,21.21253 -1.56986,2.62467 -3.38314,5.12586 -5.4857,7.35189 -2.19075,2.32834 -4.41678,4.62139 -6.67455,6.8827 l -27.02632,27.03689 z"
     style="fill:#000000;fill-opacity:1;fill-rule:evenodd;stroke:none"
     id="path3510"
     inkscape:connector-curvature="0" />
  <path
     d="m 130.57703,29.615038 -7.76817,0 0,15.50106 7.76817,0 0,-15.50106 z"
     style="fill:#000000;fill-opacity:1;fill-rule:evenodd;stroke:none"
     id="path3512"
     inkscape:connector-curvature="0" />
  <path
     d="m 130.57703,56.778939 -7.76817,0 0,15.504587 7.76817,0 0,-15.504587 z"
     style="fill:#000000;fill-opacity:1;fill-rule:evenodd;stroke:none"
     id="path3514"
     inkscape:connector-curvature="0" />
  <path
     d="m 130.57703,83.918141 -7.76817,0 0,15.504587 7.76817,0 0,-15.504587 z"
     style="fill:#000000;fill-opacity:1;fill-rule:evenodd;stroke:none"
     id="path3516"
     inkscape:connector-curvature="0" />
</svg>
