<?xml version="1.0" encoding="UTF-8" standalone="no"?>
<!-- Generator: Adobe Illustrator 14.0.0, SVG Export Plug-In  -->

<svg
   xmlns:dc="http://purl.org/dc/elements/1.1/"
   xmlns:cc="http://creativecommons.org/ns#"
   xmlns:rdf="http://www.w3.org/1999/02/22-rdf-syntax-ns#"
   xmlns:svg="http://www.w3.org/2000/svg"
   xmlns="http://www.w3.org/2000/svg"
   xmlns:sodipodi="http://sodipodi.sourceforge.net/DTD/sodipodi-0.dtd"
   xmlns:inkscape="http://www.inkscape.org/namespaces/inkscape"
   version="1.1"
   x="0px"
   y="0px"
   width="81.687485"
   height="101.93748"
   viewBox="0 -0.321 81.687488 101.9375"
   enable-background="new 0 -0.321 144 120"
   xml:space="preserve"
   id="svg2"
   inkscape:version="0.48.2 r9819"
   sodipodi:docname="MUTCD R4-7b.svg"><metadata
   id="metadata44"><rdf:RDF><cc:Work
       rdf:about=""><dc:format>image/svg+xml</dc:format><dc:type
         rdf:resource="http://purl.org/dc/dcmitype/StillImage" /><dc:title></dc:title></cc:Work></rdf:RDF></metadata><sodipodi:namedview
   pagecolor="#ffffff"
   bordercolor="#666666"
   borderopacity="1"
   objecttolerance="10"
   gridtolerance="10"
   guidetolerance="10"
   inkscape:pageopacity="0"
   inkscape:pageshadow="2"
   inkscape:window-width="1280"
   inkscape:window-height="1004"
   id="namedview42"
   showgrid="false"
   fit-margin-top="0"
   fit-margin-left="0"
   fit-margin-right="0"
   fit-margin-bottom="0"
   inkscape:zoom="3.7904688"
   inkscape:cx="42.79076"
   inkscape:cy="25.643467"
   inkscape:window-x="-8"
   inkscape:window-y="-8"
   inkscape:window-maximized="1"
   inkscape:current-layer="svg2" />
<defs
   id="defs4">
</defs>


















<path
   inkscape:connector-curvature="0"
   d="m 5.398347,101.27669 70.870011,0 c 1.3425,0 2.6375,-0.5325 3.58875,-1.48125 0.94625,-0.9475 1.4775,-2.24625 1.4775,-3.585 l 0,-91.11752 c 0,-1.34 -0.53125,-2.64 -1.4775,-3.58625 -0.95125,-0.95 -2.24625,-1.4825 -3.58875,-1.4825 l -70.870011,0 c -1.3375,0 -2.64125,0.5325 -3.5875,1.4825 C 0.86459584,2.45292 0.33459584,3.75292 0.33459584,5.09292 l 0,91.11752 c 0,1.74125 0.91000116,3.38125 2.38000116,4.315 0.83125,0.53375 1.7175,0.65375 2.68375,0.75125"
   style="fill:#ffffff;fill-opacity:1;fill-rule:nonzero;stroke:#000000;stroke-width:0.70000017;stroke-miterlimit:4;stroke-opacity:1;stroke-dasharray:none"
   id="path4573" /><path
   inkscape:connector-curvature="0"
   d="m 1.749722,96.20794 0,-91.11502 c 0,-0.9575 0.395,-1.9075 1.06625,-2.58625 0.6775,-0.67125 1.625,-1.06375 2.5825,-1.06375 l 70.868766,0 c 0.9525,0 1.9075,0.3925 2.58125,1.06375 0.67625,0.67875 1.06875,1.62875 1.06875,2.58625 l 0,91.11502 c 0,0.9575 -0.3925,1.91 -1.06875,2.58625 -0.67375,0.67375 -1.62875,1.06375 -2.58125,1.06375 l -70.868766,0 c -0.9575,0 -1.905,-0.39 -2.5825,-1.06375 -0.67125,-0.67625 -1.06625,-1.62875 -1.06625,-2.58625"
   style="fill:#000000;fill-opacity:1;fill-rule:evenodd;stroke:none"
   id="path4597" /><path
   inkscape:connector-curvature="0"
   d="m 3.736972,96.20794 c 0,0.4475 0.1725,0.865 0.485,1.18 0.315,0.315 0.735,0.485 1.17875,0.485 l 70.868766,0 c 0.4425,0 0.8625,-0.17 1.1775,-0.485 0.31375,-0.315 0.48375,-0.7325 0.48375,-1.18 l 0,-91.11502 c 0,-0.4475 -0.17,-0.8625 -0.48375,-1.18 -0.315,-0.31375 -0.735,-0.4825 -1.1775,-0.4825 l -70.868766,0 c -0.44375,0 -0.86375,0.16875 -1.17875,0.4825 -0.3125,0.3175 -0.485,0.7325 -0.485,1.18 l 0,91.11502 z"
   style="fill:#ffffff;fill-opacity:1;fill-rule:evenodd;stroke:none"
   id="path4601" /><path
   inkscape:connector-curvature="0"
   d="m 17.136598,36.37168 8.791252,20.15125 c 0.13375,0.30125 0.34875,0.565 0.603751,0.7725 0.515,0.41875 1.23,0.5925 1.87875,0.44375 0.495,-0.1175 1.01125,-0.4375 1.25375,-0.90125 0.09875,-0.1925 0.16375,-0.4025 0.205,-0.6125 l 1.155001,-6.045 29.112506,16.80625 5.01875,-8.68625 -29.113755,-16.80875 4.636251,-3.98625 c 0.17,-0.15 0.33,-0.33 0.44875,-0.525 0.5,-0.81625 0.17625,-1.92875 -0.52875,-2.5125 -0.4275,-0.35375 -1.040001,-0.6275 -1.610001,-0.56125 l -21.851255,2.465 z"
   style="fill:#000000;fill-opacity:1;fill-rule:evenodd;stroke:none"
   id="path4605" /><path
   inkscape:connector-curvature="0"
   d="m 22.026724,25.77167 -4.668751,-8.41875 -1.6675,2.27125 0,6.1475 -2.810001,0 0,-18.00125 2.810001,0 0,7.105 5.211251,-7.105 3.457501,0 -5.166251,7.0825 6.061251,10.91875 -3.227501,0 z"
   style="fill:#000000;fill-opacity:1;fill-rule:evenodd;stroke:none"
   id="path4609" /><path
   inkscape:connector-curvature="0"
   style="fill:#000000;fill-opacity:1;fill-rule:evenodd;stroke:none"
   d="m 57.312482,7.76992 0,18 2.812501,0 0,-7.875 4.281255,0 c 0.48375,-0.0237 0.97125,-0.0488 1.4375,-0.1875 1.43375,-0.4375 2.61625,-1.51625 3.1875,-2.90625 0.635,-1.545 0.49125,-3.35875 -0.4375,-4.75 -0.93875,-1.40625 -2.5575,-2.28125 -4.25,-2.28125 l -7.031256,0 z m 2.812501,2.8125 4.218755,0 c 0.74625,0 1.46,0.3875 1.875,1 0.50875,0.75 0.50875,1.74875 0,2.5 -0.4175,0.6175 -1.125,1 -1.875,1 l -4.218755,0 0,-4.5 z"
   id="path4613" /><path
   inkscape:connector-curvature="0"
   d="m 42.977729,25.77167 0,-18.00125 10.395003,0 0,2.8325 -7.583752,0 0,4.4825 5.793751,0 0,2.81 -5.793751,0 0,5.06625 8.147502,0 0,2.81 -10.958753,0 z"
   style="fill:#000000;fill-opacity:1;fill-rule:evenodd;stroke:none"
   id="path4617" /><path
   inkscape:connector-curvature="0"
   d="m 28.635601,25.77167 0,-18.00125 10.395002,0 0,2.8325 -7.583751,0 0,4.4825 5.795001,0 0,2.81 -5.795001,0 0,5.06625 8.147501,0 0,2.81 -10.958752,0 z"
   style="fill:#000000;fill-opacity:1;fill-rule:evenodd;stroke:none"
   id="path4621" /><path
   inkscape:connector-curvature="0"
   d="m 15.438598,93.27669 0,-17.99875 2.8875,0 0,15.11 8.252503,0 0,2.88875 -11.140003,0 z"
   style="fill:#000000;fill-opacity:1;fill-rule:nonzero;stroke:none"
   id="path4629" /><path
   inkscape:connector-curvature="0"
   d="m 29.276476,93.27669 0,-17.99875 10.791253,0 0,2.88625 -7.902502,0 0,4.31875 5.448751,0 0,2.88625 -5.448751,0 0,5.01875 8.252502,0 0,2.88875 -11.141253,0 z"
   style="fill:#000000;fill-opacity:1;fill-rule:nonzero;stroke:none"
   id="path4633" /><path
   inkscape:connector-curvature="0"
   d="m 43.492854,75.27794 11.142503,0 0,2.88625 -8.255002,0 0,4.31875 5.395001,0 0,2.88625 -5.395001,0 0,7.9075 -2.887501,0 0,-17.99875 z"
   style="fill:#000000;fill-opacity:1;fill-rule:nonzero;stroke:none"
   id="path4637" /><path
   inkscape:connector-curvature="0"
   d="m 62.727488,78.16419 0,15.1125 -2.886255,0 0,-15.1125 -4.127501,0 0,-2.88625 11.141256,0 0,2.88625 -4.1275,0 z"
   style="fill:#000000;fill-opacity:1;fill-rule:nonzero;stroke:none"
   id="path4641" /></svg>