<?xml version="1.0" encoding="UTF-8" standalone="no"?>
<!-- Generator: Adobe Illustrator 12.0.1, SVG Export Plug-In  -->

<svg
   xmlns:dc="http://purl.org/dc/elements/1.1/"
   xmlns:cc="http://creativecommons.org/ns#"
   xmlns:rdf="http://www.w3.org/1999/02/22-rdf-syntax-ns#"
   xmlns:svg="http://www.w3.org/2000/svg"
   xmlns="http://www.w3.org/2000/svg"
   xmlns:sodipodi="http://sodipodi.sourceforge.net/DTD/sodipodi-0.dtd"
   xmlns:inkscape="http://www.inkscape.org/namespaces/inkscape"
   version="1.1"
   width="302.84375"
   height="152.1875"
   viewBox="-0.999 0 302.84375 152.1875"
   enable-background="new -0.999 0 289 289"
   xml:space="preserve"
   id="svg2"
   inkscape:version="0.48.2 r9819"
   sodipodi:docname="AJAX1.svg"><metadata
   id="metadata18"><rdf:RDF><cc:Work
       rdf:about=""><dc:format>image/svg+xml</dc:format><dc:type
         rdf:resource="http://purl.org/dc/dcmitype/StillImage" /><dc:title></dc:title></cc:Work></rdf:RDF></metadata><sodipodi:namedview
   pagecolor="#ffffff"
   bordercolor="#666666"
   borderopacity="1"
   objecttolerance="10"
   gridtolerance="10"
   guidetolerance="10"
   inkscape:pageopacity="0"
   inkscape:pageshadow="2"
   inkscape:window-width="1280"
   inkscape:window-height="1004"
   id="namedview16"
   showgrid="false"
   fit-margin-top="0"
   fit-margin-left="0"
   fit-margin-right="0"
   fit-margin-bottom="0"
   inkscape:zoom="1.633218"
   inkscape:cx="147.69428"
   inkscape:cy="18.433048"
   inkscape:window-x="-8"
   inkscape:window-y="-8"
   inkscape:window-maximized="1"
   inkscape:current-layer="svg2" />
<defs
   id="defs4">
</defs>





<path
   inkscape:connector-curvature="0"
   d="m 301.09211,128.82425 c 0,12.43 -10.17,22.60125 -22.60125,22.60125 l -256.14375,0 c -12.429997,0 -22.601247,-10.17125 -22.601247,-22.60125 l 0,-105.47125 c 0,-12.43125 10.17125,-22.60125 22.601247,-22.60125 l 256.14375,0 c 12.43125,0 22.60125,10.17 22.60125,22.60125 l 0,105.47125 z"
   style="fill:#ffffff;fill-opacity:1;fill-rule:nonzero;stroke:#000000;stroke-width:1.5;stroke-miterlimit:4;stroke-opacity:1;stroke-dasharray:none"
   id="path4489" /><path
   inkscape:connector-curvature="0"
   d="m 278.49125,7.02999 -256.14375,0 c -8.9775,0 -16.323747,7.345 -16.323747,16.3225 l 0,105.47125 c 0,8.9775 7.346247,16.32375 16.323747,16.32375 l 256.14375,0 c 8.9775,0 16.3225,-7.34625 16.3225,-16.32375 l 0,-105.47125 c 0,-8.9775 -7.345,-16.3225 -16.3225,-16.3225 m 7.53375,121.79375 c 0,4.14375 -3.39,7.53375 -7.53375,7.53375 l -256.14375,0 c -4.14375,0 -7.53375,-3.39 -7.53375,-7.53375 l 0,-105.47125 c 0,-4.1425 3.39,-7.53375 7.53375,-7.53375 l 256.14375,0 c 4.14375,0 7.53375,3.39125 7.53375,7.53375 l 0,105.47125 z"
   style="fill:#000000;fill-opacity:1;fill-rule:nonzero;stroke:none"
   id="path4497" /><path
   inkscape:connector-curvature="0"
   d="m 46.14924,65.77161 c -6.47375,0 -11.21625,-3.85 -13.7275,-9.5425 l 5.69125,-2.12125 c 1.5625,3.5725 4.465,5.58125 8.03625,5.58125 3.46,0 5.80375,-2.4 5.80375,-5.58125 0,-5.02125 -5.80375,-5.8025 -10.715,-7.75625 -2.23125,-0.94875 -7.25375,-3.18125 -7.25375,-9.375 0,-7.4225 5.0225,-10.2125 11.775,-10.2125 5.30125,0 8.8725,3.06875 10.71375,7.70125 l -5.30125,1.5625 c -0.5575,-1.67375 -2.9575,-3.2925 -5.63625,-3.2925 -2.84625,0 -5.97125,0.8925 -5.7475,4.3525 0.5575,6.97625 18.2475,2.4 18.2475,17.1875 0,6.865 -5.13375,11.49625 -11.88625,11.49625"
   style="fill:#000000;fill-opacity:1;fill-rule:nonzero;stroke:none"
   id="path4501" /><path
   inkscape:connector-curvature="0"
   d="m 64.4525,27.43375 6.0825,0 0,37.66875 -6.0825,0 0,-37.66875 z"
   style="fill:#000000;fill-opacity:1;fill-rule:nonzero;stroke:none"
   id="path4503" /><path
   inkscape:connector-curvature="0"
   d="m 92.85725,65.102 -13.28125,0 0,-37.66875 12.165,0 c 3.85125,0 5.30125,0.335 7.255,1.95375 4.0175,3.40375 6.19375,9.43125 6.19375,16.7975 0,11.16 -5.7475,18.9175 -12.3325,18.9175 m -0.61375,-31.6975 -6.69625,0 0,25.615 6.585,0 c 5.4125,0 7.03125,-7.645 7.03125,-12.835 0,-4.3525 -0.89375,-12.78 -6.92,-12.78"
   style="fill:#000000;fill-opacity:1;fill-rule:nonzero;stroke:none"
   id="path4507" /><path
   inkscape:connector-curvature="0"
   d="m 113.50425,65.102 0,-37.66875 22.21,0 0,5.97125 -16.23875,0 0,9.2075 10.9375,0 0,6.08375 -10.9375,0 0,10.32375 17.41125,0 0,6.0825 -23.3825,0 z"
   style="fill:#000000;fill-opacity:1;fill-rule:nonzero;stroke:none"
   id="path4511" /><path
   inkscape:connector-curvature="0"
   d="m 167.80212,65.102 -5.30125,0 -5.915,-24.16375 -5.86,24.16375 -5.245,0 -5.58125,-37.66875 6.0825,0 2.9025,19.81125 4.79875,-19.81125 5.80375,0 4.855,19.81125 2.9575,-19.81125 6.0275,0 -5.525,37.66875 z"
   style="fill:#000000;fill-opacity:1;fill-rule:nonzero;stroke:none"
   id="path4515" /><path
   inkscape:connector-curvature="0"
   d="m 201.11761,65.102 -3.68375,-10.5475 -11.77375,0 -3.68375,10.5475 -6.36125,0 12.94625,-37.66875 5.97125,0 12.94625,37.66875 -6.36125,0 z m -9.48625,-27.2325 -3.85125,10.6025 7.53375,0 -3.6825,-10.6025 z"
   style="fill:#000000;fill-opacity:1;fill-rule:nonzero;stroke:none"
   id="path4519" /><path
   inkscape:connector-curvature="0"
   d="m 213.11512,65.102 0,-37.66875 5.97125,0 0,32.14375 17.41125,0 0,5.525 -23.3825,0 z"
   style="fill:#000000;fill-opacity:1;fill-rule:nonzero;stroke:none"
   id="path4523" /><path
   inkscape:connector-curvature="0"
   d="m 261.55313,65.102 -9.48625,-17.8575 -3.9625,4.91125 0,12.94625 -5.97125,0 0,-37.66875 5.97125,0 0,14.95625 11.88625,-14.95625 7.645,0 -11.6075,14.6775 12.38875,22.99125 -6.86375,0 z"
   style="fill:#000000;fill-opacity:1;fill-rule:nonzero;stroke:none"
   id="path4527" /><path
   inkscape:connector-curvature="0"
   d="m 73.68899,125.413 c -5.525,0 -9.09625,-2.12 -11.49625,-6.7525 -1.67375,-3.2925 -2.79,-8.03625 -2.79,-12.835 0,-5.915 1.61875,-11.88625 4.24125,-15.17875 2.2325,-2.79 5.41375,-4.24125 9.65375,-4.24125 5.6925,0 9.26375,2.4 11.775,7.70125 l -5.58,2.34375 c -2.065,-3.18125 -3.2925,-3.9625 -6.195,-3.9625 -3.0125,0 -5.02125,1.34 -6.36125,4.6325 -0.8925,2.23125 -1.45125,5.52375 -1.45125,8.705 0,4.13 0.89375,8.25875 2.4,10.6025 1.28375,2.01 3.06875,2.9025 5.6925,2.9025 2.51125,0 4.3525,-1.34 5.80375,-4.3525 l 5.69125,2.12 c -2.23125,5.525 -5.97125,8.315 -11.38375,8.315"
   style="fill:#000000;fill-opacity:1;fill-rule:nonzero;stroke:none"
   id="path4531" /><path
   inkscape:connector-curvature="0"
   d="m 93.33199,124.7435 0,-37.66875 5.97125,0 0,32.14375 17.41125,0 0,5.525 -23.3825,0 z"
   style="fill:#000000;fill-opacity:1;fill-rule:nonzero;stroke:none"
   id="path4535" /><path
   inkscape:connector-curvature="0"
   d="m 144.16951,121.17174 c -2.17625,2.84625 -5.13375,4.24125 -9.09625,4.24125 -5.30125,0 -8.5375,-2.12 -10.82625,-6.7525 -1.5625,-3.18125 -2.67875,-8.2025 -2.67875,-12.6675 0,-6.25 1.5625,-11.83125 4.13,-15.34625 2.17625,-2.9575 5.30125,-4.24125 9.65375,-4.24125 10.43625,0 12.9475,11.16125 12.9475,19.5875 0,5.915 -1.5075,11.83 -4.13,15.17875 m -8.8175,-28.68375 c -3.3475,0 -4.91,1.34 -6.25,4.6325 -0.8925,2.23125 -1.45125,5.69125 -1.45125,8.8725 0,3.9625 0.8375,8.03625 2.28875,10.435 1.17125,1.95375 2.73375,2.9025 5.13375,2.9025 2.79,0 4.52,-1.45125 5.80375,-4.74375 0.78125,-2.00875 1.45125,-5.6925 1.45125,-8.59375 0,-4.3525 -0.94875,-13.505 -6.97625,-13.505"
   style="fill:#000000;fill-opacity:1;fill-rule:nonzero;stroke:none"
   id="path4539" /><path
   inkscape:connector-curvature="0"
   d="m 167.66287,125.413 c -6.47375,0 -11.21625,-3.85 -13.7275,-9.5425 l 5.69125,-2.12125 c 1.5625,3.5725 4.465,5.58125 8.03625,5.58125 3.46,0 5.80375,-2.4 5.80375,-5.58125 0,-5.0225 -5.80375,-5.8025 -10.715,-7.75625 -2.23125,-0.94875 -7.25375,-3.18125 -7.25375,-9.375 0,-7.4225 5.0225,-10.2125 11.77375,-10.2125 5.3025,0 8.87375,3.06875 10.715,7.70125 l -5.30125,1.5625 c -0.5575,-1.67375 -2.9575,-3.2925 -5.63625,-3.2925 -2.84625,0 -5.97125,0.8925 -5.74875,4.3525 0.55875,6.97625 18.24875,2.4 18.24875,17.1875 0,6.865 -5.13375,11.49625 -11.88625,11.49625"
   style="fill:#000000;fill-opacity:1;fill-rule:nonzero;stroke:none"
   id="path4543" /><path
   inkscape:connector-curvature="0"
   d="m 185.9665,124.7435 0,-37.66875 22.21,0 0,5.97125 -16.23875,0 0,9.2075 10.9375,0 0,6.08375 -10.9375,0 0,10.32375 17.41125,0 0,6.0825 -23.3825,0 z"
   style="fill:#000000;fill-opacity:1;fill-rule:nonzero;stroke:none"
   id="path4547" /><path
   inkscape:connector-curvature="0"
   d="m 229.04737,124.7435 -13.28125,0 0,-37.66875 12.165,0 c 3.85125,0 5.30125,0.335 7.255,1.95375 4.0175,3.40375 6.19375,9.43125 6.19375,16.7975 0,11.16 -5.7475,18.9175 -12.3325,18.9175 m -0.61375,-31.6975 -6.69625,0 0,25.615 6.585,0 c 5.4125,0 7.03125,-7.64625 7.03125,-12.835 0,-4.35375 -0.8925,-12.78 -6.92,-12.78"
   style="fill:#000000;fill-opacity:1;fill-rule:nonzero;stroke:none"
   id="path4551" /></svg>