<?xml version="1.0" encoding="UTF-8" standalone="no"?>
<!-- Created with Inkscape (http://www.inkscape.org/) -->

<svg
   xmlns:ns="http://ns.adobe.com/SaveForWeb/1.0/"
   xmlns:dc="http://purl.org/dc/elements/1.1/"
   xmlns:cc="http://creativecommons.org/ns#"
   xmlns:rdf="http://www.w3.org/1999/02/22-rdf-syntax-ns#"
   xmlns:svg="http://www.w3.org/2000/svg"
   xmlns="http://www.w3.org/2000/svg"
   xmlns:sodipodi="http://sodipodi.sourceforge.net/DTD/sodipodi-0.dtd"
   xmlns:inkscape="http://www.inkscape.org/namespaces/inkscape"
   version="1.1"
   width="2170"
   height="2710"
   viewBox="0 0 2170 2710"
   id="svg2"
   xml:space="preserve"
   inkscape:version="0.48.2 r9819"
   sodipodi:docname="AJAX1.svg"><sodipodi:namedview
   pagecolor="#ffffff"
   bordercolor="#666666"
   borderopacity="1"
   objecttolerance="10"
   gridtolerance="10"
   guidetolerance="10"
   inkscape:pageopacity="0"
   inkscape:pageshadow="2"
   inkscape:window-width="1280"
   inkscape:window-height="1004"
   id="namedview9"
   showgrid="false"
   fit-margin-top="0"
   fit-margin-left="0"
   fit-margin-right="0"
   fit-margin-bottom="0"
   inkscape:zoom="0.12642213"
   inkscape:cx="1169.0814"
   inkscape:cy="1834.7509"
   inkscape:window-x="-8"
   inkscape:window-y="-8"
   inkscape:window-maximized="1"
   inkscape:current-layer="svg2" /><defs
   id="defs11" />
<metadata
   id="metadata3">
	<ns:sfw>
		<ns:slices />
		<ns:sliceSourceBounds
   bottomLeftOrigin="true"
   x="-75"
   y="93"
   width="745"
   height="655" />
	</ns:sfw>
	<rdf:RDF>
		<cc:Work
   rdf:about="">
			<dc:format>image/svg+xml</dc:format>
			<dc:type
   rdf:resource="http://purl.org/dc/dcmitype/StillImage" />
			<dc:title />
		</cc:Work>
	</rdf:RDF>
	<ns:sfw>
		<ns:slices />
		<ns:sliceSourceBounds
   bottomLeftOrigin="true"
   x="-75"
   y="93"
   width="745"
   height="655" />
	</ns:sfw>
</metadata>




<path
   inkscape:connector-curvature="0"
   style="fill:#ffffff;fill-rule:nonzero;stroke:#000000;stroke-width:10;stroke-linecap:butt;stroke-linejoin:miter;stroke-miterlimit:4;stroke-opacity:1;stroke-dasharray:none"
   d="m 2165,2570 c 0,74.5625 -60.4375,135 -135,135 l -1890,0 C 65.440625,2705 5,2644.5625 5,2570 L 5,140 C 5,65.4406 65.440625,5 140,5 l 1890,0 c 74.5625,0 135,60.4406 135,135 l 0,2430 z"
   id="path11" /><path
   inkscape:connector-curvature="0"
   style="fill:#000000;fill-rule:nonzero;stroke:none"
   d="M 140,2671.25 C 84.169875,2671.25 38.75,2625.825 38.75,2570 l 0,-2430 C 38.75,84.1699 84.169875,38.75 140,38.75 l 1890,0 c 55.825,0 101.25,45.4199 101.25,101.25 l 0,2430 c 0,55.825 -45.425,101.25 -101.25,101.25 l -1890,0 z"
   id="path13" /><path
   inkscape:connector-curvature="0"
   style="fill:#ffffff;fill-rule:nonzero;stroke:none"
   d="m 140,2615 c -24.81325,0 -45,-20.1875 -45,-45 L 95,140 c 0,-24.8133 20.18675,-45 45,-45 l 1890,0 c 24.8125,0 45,20.1867 45,45 l 0,2430 c 0,24.8125 -20.1875,45 -45,45 l -1890,0 z"
   id="path15" /><path
   inkscape:connector-curvature="0"
   style="fill:#000000;fill-rule:nonzero;stroke:none"
   d="m 966.93875,2132.525 c -11.39625,-18.95 -25.325,-26.525 -46.85125,-27.7875 -27.85875,-1.2625 -45.585,12.625 -58.24625,44.2125 -8.865,21.475 -13.92875,54.3125 -13.92875,84.625 0,37.9 7.595,77.05 21.52375,99.7875 11.39875,18.95 26.59125,27.8 49.385,27.8 26.59125,0 43.05125,-13.9 55.715,-45.475 7.5975,-18.95 13.9275,-54.325 13.9275,-82.1125 0,-40.4125 -7.5975,-77.05 -21.525,-101.05 z m 39.25245,246.3125 c -20.2612,27.8 -49.38495,40.425 -87.36995,40.425 -50.65,0 -82.3075,-20.2125 -103.83375,-64.425 -15.1925,-30.3125 -25.3225,-78.3125 -25.3225,-121.2625 0,-59.3625 15.19375,-112.4125 39.25375,-146.525 21.525,-27.7875 50.64875,-40.425 92.43375,-40.425 45.58625,0 77.24125,20.2125 100.0337,64.425 15.1938,31.575 24.0576,77.05 24.0576,122.525 0,56.85 -13.9275,113.6875 -39.2526,145.2625 z"
   id="path17" /><path
   inkscape:connector-curvature="0"
   style="fill:#000000;fill-rule:nonzero;stroke:none"
   d="m 490.59625,2412.5 0,-48 164.22125,-255.15 -150.3275,0 0,-56.85 231.17375,0 0,34.1125 -166.7475,267.7875 166.7475,0 0,58.1 -245.0675,0 z"
   id="path19" /><path
   inkscape:connector-curvature="0"
   style="fill:#000000;fill-rule:nonzero;stroke:none"
   d="m 1319.1875,2412.5 -137.6987,-243.7875 0,243.7875 -56.845,0 0,-360 56.845,0 131.3737,229.9 0,-229.9 56.85,0 0,360 -50.525,0 z"
   id="path21" /><path
   inkscape:connector-curvature="0"
   style="fill:#000000;fill-rule:nonzero;stroke:none"
   d="m 1456.1126,2412.5 0,-360 211.9375,0 0,56.85 -155.175,0 0,88.4125 104.7125,0 0,58.1125 -104.7125,0 0,98.525 166.525,0 0,58.1 -223.2875,0 z"
   id="path23" /><path
   inkscape:connector-curvature="0"
   style="fill:#000000;fill-rule:nonzero;stroke:none"
   d="m 1072.2713,1827.5 -137.69505,-243.7875 0,243.7875 -56.84625,0 0,-360 56.84625,0 131.37625,229.9 0,-229.9 56.845,0 0,360 -50.5262,0 z"
   id="path25" /><path
   inkscape:connector-curvature="0"
   style="fill:#000000;fill-rule:nonzero;stroke:none"
   d="m 733.73,1827.5 0,-360 57.6,0 0,360 -57.6,0 z"
   id="path27" /><path
   inkscape:connector-curvature="0"
   style="fill:#000000;fill-rule:nonzero;stroke:none"
   d="m 1678.1875,1805.5875 c -20.2125,17.6875 -48,27.7875 -78.3125,27.7875 -61.9,0 -107.375,-36.625 -131.3875,-90.95 l 54.325,-20.2 c 15.1625,34.1 42.9501,53.05 77.0625,53.05 32.8376,0 55.5751,-22.7375 55.5751,-53.05 0,-48 -55.5751,-55.5875 -102.3251,-74.525 -21.4749,-8.85 -69.4749,-30.325 -69.4749,-89.6875 0,-70.7375 48,-97.2625 112.4375,-97.2625 50.525,0 84.625,29.05 102.3125,73.2625 l -50.5251,15.15 c 0,0 -12.6375,-30.3125 -53.0625,-31.575 -26.525,-1.2625 -58.0999,8.8375 -55.575,41.6875 5.05,66.95 174.325,22.7375 174.325,164.2125 0,32.8375 -12.6375,61.8875 -35.375,82.1 z"
   id="path29" /><path
   inkscape:connector-curvature="0"
   style="fill:#000000;fill-rule:nonzero;stroke:none"
   d="m 1209.1988,1827.5 0,-360 211.9388,0 0,56.85 -155.175,0 0,88.4125 104.7125,0 0,58.1125 -104.7125,0 0,98.525 166.525,0 0,58.1 -223.2888,0 z"
   id="path31" /><path
   inkscape:connector-curvature="0"
   style="fill:#000000;fill-rule:nonzero;stroke:none"
   d="m 513.20875,1524.35 0,88.4125 104.705,0 0,58.1125 -104.705,0 0,156.625 -56.77,0 0,-360 223.29125,0 0,56.85 -166.52125,0 z"
   id="path33" /><path
   inkscape:connector-curvature="0"
   style="fill:#000000;fill-rule:nonzero;stroke:none"
   d="m 1682.9251,657.5012 -137.7,-243.79 0,243.79 -56.8375,0 0,-360.0012 56.8375,0 131.375,229.8962 0,-229.8962 56.85,0 0,360.0012 -50.5251,0 z"
   id="path35" /><path
   inkscape:connector-curvature="0"
   style="fill:#000000;fill-rule:nonzero;stroke:none"
   d="m 1344.375,657.5012 0,-360.0012 57.6,0 0,360.0012 -57.6,0 z"
   id="path37" /><path
   inkscape:connector-curvature="0"
   style="fill:#000000;fill-rule:nonzero;stroke:none"
   d="m 742.81875,657.5012 0,-360.0012 211.93625,0 0,56.8425 -155.16875,0 0,88.4212 104.71125,0 0,58.105 -104.71125,0 0,98.5275 166.52375,0 0,58.105 -223.29125,0 z"
   id="path39" /><path
   inkscape:connector-curvature="0"
   style="fill:#000000;fill-rule:nonzero;stroke:none"
   d="M 589.40375,503.3962 C 581.82375,500.87 578.035,500.87 565.4025,500.87 l -72.00625,0 0,98.5262 85.90125,0 c 29.055,0 44.21375,-13.8962 44.21375,-41.685 0,-24 -13.895,-46.7362 -34.1075,-54.315 z m -12.6325,-149.0562 -83.375,0 0,88.4225 68.21625,0 c 16.4225,0 24.00125,-2.5263 34.1075,-10.105 12.6325,-10.105 20.2125,-25.2638 20.2125,-41.685 0,-23.9988 -13.89625,-36.6325 -39.16125,-36.6325 z m 46.74,294.32 c -12.63125,5.0525 -34.1075,8.8412 -50.53,8.8412 l -136.43,0 0,-360.0025 136.43,0 c 56.84625,0 99.7975,39.1588 99.7975,90.9463 0,35.37 -16.4225,61.8975 -50.53,80.8462 37.8975,17.685 59.37125,47.9988 59.37125,87.1575 0,39.1575 -24,78.3176 -58.10875,92.2113 z"
   id="path41" /><path
   inkscape:connector-curvature="0"
   style="fill:#000000;fill-rule:nonzero;stroke:none"
   d="m 1151.4888,663.8175 c -54.3187,0 -85.9012,-20.2113 -107.375,-65.685 -15.1587,-31.5788 -24.0025,-75.79 -24.0025,-120 0,-58.1063 16.4213,-114.9488 40.4225,-146.5275 21.4775,-26.5263 51.795,-40.42 92.22,-40.42 55.5838,0 88.4275,22.7375 112.4213,79.58 l -54.3138,21.4725 c -15.1575,-31.58 -30.3162,-42.9475 -58.1075,-42.9475 -29.055,0 -48.005,12.6312 -60.6375,44.2112 -8.8425,21.4725 -13.8962,54.315 -13.8962,84.6313 0,37.895 6.315,75.79 17.6862,98.5262 11.3688,20.21 27.7925,29.0538 49.2675,29.0538 36.6325,0 63.1638,-22.7375 63.1638,-55.58 l 0,-15.1588 -65.6913,0 0,-56.8412 122.5288,0 0,72 c 0,65.685 -47.995,113.685 -113.6863,113.685 z"
   id="path43" /><path
   inkscape:connector-curvature="0"
   style="fill:#000000;fill-rule:nonzero;stroke:none"
   d="m 589.685,1242.5037 0,-360.0025 57.6,0 0,360.0025 -57.6,0 z"
   id="path45" /><path
   inkscape:connector-curvature="0"
   style="fill:#000000;fill-rule:nonzero;stroke:none"
   d="m 1824.6126,945.66 c -8.8375,-5.0538 -13.8875,-6.315 -32.8375,-6.315 l -68.2126,0 0,88.42 68.2126,0 c 17.6875,0 24,-1.2625 32.8375,-6.3138 13.9,-7.58 22.75,-22.7387 22.75,-37.895 0,-15.1587 -8.85,-30.3175 -22.75,-37.8962 z m 25.275,296.8425 -58.1125,-156.6338 -68.2125,0 0,156.6338 -56.85,0 0,-360.0013 118.75,0 c 27.7875,0 46.7375,2.5263 64.425,11.37 31.575,15.1588 54.3125,53.0513 54.3125,89.685 0,37.895 -22.7375,75.7888 -55.575,90.9488 l 63.1625,167.9975 -61.9,0 z"
   id="path47" /><path
   inkscape:connector-curvature="0"
   style="fill:#000000;fill-rule:nonzero;stroke:none"
   d="m 446.44125,1242.5037 0,-156.6337 -131.38,0 0,156.6337 -56.845,0 0,-360.0025 56.845,0 0,145.2625 131.38,0 0,-145.2625 56.845,0 0,360.0025 -56.845,0 z"
   id="path49" /><path
   inkscape:connector-curvature="0"
   style="fill:#000000;fill-rule:nonzero;stroke:none"
   d="m 1238.98,1242.5037 0,-156.6337 -131.38,0 0,156.6337 -56.845,0 0,-360.0025 56.845,0 0,145.2625 131.38,0 0,-145.2625 56.8451,0 0,360.0025 -56.8451,0 z"
   id="path51" /><path
   inkscape:connector-curvature="0"
   style="fill:#000000;fill-rule:nonzero;stroke:none"
   d="m 1382.2251,1242.5037 0,-360.0025 211.9375,0 0,56.8425 -155.175,0 0,88.4226 104.7124,0 0,58.105 -104.7124,0 0,98.5275 166.5249,0 0,58.105 -223.2874,0 z"
   id="path53" /><path
   inkscape:connector-curvature="0"
   style="fill:#000000;fill-rule:nonzero;stroke:none"
   d="m 857.8625,1248.82 c -54.32,0 -85.90125,-20.2125 -107.37625,-65.6862 -15.15875,-31.5776 -24.00125,-75.7888 -24.00125,-120.0001 0,-58.105 16.42125,-114.9475 40.4225,-146.5262 21.4775,-26.5263 51.79375,-40.4213 92.21875,-40.4213 55.58375,0 88.4275,22.7388 112.4275,79.5801 L 917.235,977.24 c -15.15875,-31.58 -30.3175,-42.9488 -58.10875,-42.9488 -29.055,0 -48.005,12.6325 -60.63625,44.2113 -8.84375,21.4737 -13.8975,54.3162 -13.8975,84.6312 0,37.895 6.31625,75.7913 17.68625,98.5276 11.36875,20.21 27.7925,29.0525 49.2675,29.0525 36.6325,0 63.16375,-22.7363 63.16375,-55.5788 l 0,-15.1588 -65.69125,0 0,-56.8425 122.535,0 0,72.0013 c 0,65.6838 -48.00125,113.685 -113.69125,113.685 z"
   id="path55" /></svg>