<?xml version="1.0" encoding="UTF-8" standalone="no"?>
<!-- Generator: Adobe Illustrator 12.0.1, SVG Export Plug-In  -->

<svg
   version="1.1"
   width="306.03125"
   height="153.78125"
   viewBox="-0.999 0 306.03125 153.78125"
   enable-background="new -0.999 0 289 289"
   xml:space="preserve"
   id="svg2"
   inkscape:version="1.2.1 (9c6d41e410, 2022-07-14)"
   sodipodi:docname="MUTCD_R9-11 (R).svg"
   xmlns:inkscape="http://www.inkscape.org/namespaces/inkscape"
   xmlns:sodipodi="http://sodipodi.sourceforge.net/DTD/sodipodi-0.dtd"
   xmlns="http://www.w3.org/2000/svg"
   xmlns:svg="http://www.w3.org/2000/svg"
   xmlns:rdf="http://www.w3.org/1999/02/22-rdf-syntax-ns#"
   xmlns:cc="http://creativecommons.org/ns#"
   xmlns:dc="http://purl.org/dc/elements/1.1/"><metadata
   id="metadata18"><rdf:RDF><cc:Work
       rdf:about=""><dc:format>image/svg+xml</dc:format><dc:type
         rdf:resource="http://purl.org/dc/dcmitype/StillImage" /></cc:Work></rdf:RDF></metadata><sodipodi:namedview
   pagecolor="#ffffff"
   bordercolor="#666666"
   borderopacity="1"
   objecttolerance="10"
   gridtolerance="10"
   guidetolerance="10"
   inkscape:pageopacity="0"
   inkscape:pageshadow="2"
   inkscape:window-width="1920"
   inkscape:window-height="1017"
   id="namedview16"
   showgrid="false"
   fit-margin-top="0"
   fit-margin-left="0"
   fit-margin-right="0"
   fit-margin-bottom="0"
   inkscape:zoom="1.633218"
   inkscape:cx="80.822034"
   inkscape:cy="2.4491525"
   inkscape:window-x="-8"
   inkscape:window-y="1144"
   inkscape:window-maximized="1"
   inkscape:current-layer="svg2"
   inkscape:showpageshadow="2"
   inkscape:pagecheckerboard="0"
   inkscape:deskcolor="#d1d1d1" />
<defs
   id="defs4">
</defs>





<path
   inkscape:connector-curvature="0"
   d="m 304.27225,127.65074 c 0,13.9575 -11.42,25.3775 -25.3775,25.3775 l -253.775,0 c -13.9575,0 -25.3775,-11.42 -25.3775,-25.3775 l 0,-101.51 c 0,-13.9575 11.42,-25.3775 25.3775,-25.3775 l 253.775,0 c 13.9575,0 25.3775,11.42 25.3775,25.3775 l 0,101.51 z"
   style="fill:#ffffff;fill-opacity:1;fill-rule:nonzero;stroke:#000000;stroke-width:1.5;stroke-miterlimit:4;stroke-opacity:1;stroke-dasharray:none"
   id="path3453" /><path
   inkscape:connector-curvature="0"
   d="m 278.89462,5.52138 -253.775,0 c -11.34125,0 -20.62,9.27875 -20.62,20.61875 l 0,101.51125 c 0,11.34 9.27875,20.61875 20.62,20.61875 l 253.775,0 c 11.34,0 20.61875,-9.27875 20.61875,-20.61875 l 0,-101.51125 c 0,-11.34 -9.27875,-20.61875 -20.61875,-20.61875 m 12.68875,122.13 c 0,6.97875 -5.71,12.68875 -12.68875,12.68875 l -253.775,0 c -6.97875,0 -12.68875,-5.71 -12.68875,-12.68875 l 0,-101.51125 c 0,-6.97875 5.71,-12.68875 12.68875,-12.68875 l 253.775,0 c 6.97875,0 12.68875,5.71 12.68875,12.68875 l 0,101.51125 z"
   style="fill:#000000;fill-opacity:1;fill-rule:nonzero;stroke:none"
   id="path3461" /><path
   inkscape:connector-curvature="0"
   d="m 40.08786,42.33989 c -3.27125,0 -5.6675,-1.945 -6.93625,-4.82125 l 2.87625,-1.0725 c 0.78875,1.805 2.255,2.82 4.06,2.82 1.74875,0 2.9325,-1.2125 2.9325,-2.82 0,-2.5375 -2.9325,-2.9325 -5.41375,-3.91875 -1.1275,-0.48 -3.66625,-1.6075 -3.66625,-4.7375 0,-3.75 2.53875,-5.16 5.95,-5.16 2.67875,0 4.48375,1.55125 5.41375,3.89125 l -2.67875,0.79 c -0.28125,-0.84625 -1.49375,-1.66375 -2.8475,-1.66375 -1.43875,0 -3.0175,0.45125 -2.905,2.19875 0.2825,3.525 9.22125,1.2125 9.22125,8.685 0,3.46875 -2.59375,5.80875 -6.00625,5.80875"
   style="fill:#000000;fill-opacity:1;fill-rule:nonzero;stroke:none"
   id="path3465" /><path
   inkscape:connector-curvature="0"
   d="m 49.3365,22.96875 3.07375,0 0,19.03375 -3.07375,0 0,-19.03375 z"
   style="fill:#000000;fill-opacity:1;fill-rule:nonzero;stroke:none"
   id="path3467" /><path
   inkscape:connector-curvature="0"
   d="m 63.68875,42.00164 -6.71125,0 0,-19.03375 6.1475,0 c 1.945,0 2.67875,0.17 3.665,0.9875 2.03,1.72 3.13,4.765 3.13,8.4875 0,5.63875 -2.90375,9.55875 -6.23125,9.55875 m -0.31,-16.01625 -3.38375,0 0,12.9425 3.3275,0 c 2.735,0 3.5525,-3.8625 3.5525,-6.485 0,-2.2 -0.45125,-6.4575 -3.49625,-6.4575"
   style="fill:#000000;fill-opacity:1;fill-rule:nonzero;stroke:none"
   id="path3471" /><path
   inkscape:connector-curvature="0"
   d="m 74.12124,42.00164 0,-19.03375 11.2225,0 0,3.0175 -8.205,0 0,4.6525 5.52625,0 0,3.07375 -5.52625,0 0,5.21625 8.7975,0 0,3.07375 -11.815,0 z"
   style="fill:#000000;fill-opacity:1;fill-rule:nonzero;stroke:none"
   id="path3475" /><path
   inkscape:connector-curvature="0"
   d="m 101.55711,42.00164 -2.67875,0 -2.98875,-12.21 -2.96125,12.21 -2.65,0 -2.82,-19.03375 3.07375,0 1.46625,10.01 2.425,-10.01 2.9325,0 2.4525,10.01 1.495,-10.01 3.045,0 -2.79125,19.03375 z"
   style="fill:#000000;fill-opacity:1;fill-rule:nonzero;stroke:none"
   id="path3479" /><path
   inkscape:connector-curvature="0"
   d="m 118.39087,42.00164 -1.86125,-5.32875 -5.95,0 -1.86,5.32875 -3.215,0 6.54125,-19.03375 3.0175,0 6.5425,19.03375 -3.215,0 z m -4.79375,-13.76 -1.945,5.3575 3.80625,0 -1.86125,-5.3575 z"
   style="fill:#000000;fill-opacity:1;fill-rule:nonzero;stroke:none"
   id="path3483" /><path
   inkscape:connector-curvature="0"
   d="m 124.45312,42.00164 0,-19.03375 3.0175,0 0,16.2425 8.7975,0 0,2.79125 -11.815,0 z"
   style="fill:#000000;fill-opacity:1;fill-rule:nonzero;stroke:none"
   id="path3487" /><path
   inkscape:connector-curvature="0"
   d="m 148.92812,42.00164 -4.79375,-9.02375 -2.0025,2.4825 0,6.54125 -3.01625,0 0,-19.03375 3.01625,0 0,7.5575 6.00625,-7.5575 3.86375,0 -5.865,7.41625 6.25875,11.6175 -3.4675,0 z"
   style="fill:#000000;fill-opacity:1;fill-rule:nonzero;stroke:none"
   id="path3491" /><path
   inkscape:connector-curvature="0"
   d="m 186.13112,42.33989 c -2.79125,0 -4.59625,-1.07125 -5.80875,-3.41125 -0.84625,-1.66375 -1.41,-4.06125 -1.41,-6.48625 0,-2.98875 0.8175,-6.00625 2.1425,-7.66875 1.12875,-1.41 2.73625,-2.14375 4.87875,-2.14375 2.87625,0 4.68125,1.2125 5.95,3.89125 l -2.82,1.18375 c -1.04375,-1.60625 -1.66375,-2.00125 -3.13,-2.00125 -1.5225,0 -2.5375,0.67625 -3.215,2.34 -0.45,1.12875 -0.7325,2.79125 -0.7325,4.39875 0,2.0875 0.45125,4.17375 1.2125,5.3575 0.64875,1.015 1.55125,1.46625 2.87625,1.46625 1.26875,0 2.19875,-0.67625 2.9325,-2.19875 l 2.87625,1.07125 c -1.12875,2.79125 -3.0175,4.20125 -5.7525,4.20125"
   style="fill:#000000;fill-opacity:1;fill-rule:nonzero;stroke:none"
   id="path3495" /><path
   inkscape:connector-curvature="0"
   d="m 196.05625,42.00164 0,-19.03375 3.0175,0 0,16.2425 8.7975,0 0,2.79125 -11.815,0 z"
   style="fill:#000000;fill-opacity:1;fill-rule:nonzero;stroke:none"
   id="path3499" /><path
   inkscape:connector-curvature="0"
   d="m 221.7435,40.19688 c -1.1,1.4375 -2.59375,2.1425 -4.59625,2.1425 -2.67875,0 -4.31375,-1.07125 -5.47,-3.41125 -0.79,-1.6075 -1.35375,-4.145 -1.35375,-6.40125 0,-3.1575 0.79,-5.9775 2.0875,-7.75375 1.09875,-1.495 2.6775,-2.1425 4.8775,-2.1425 5.2725,0 6.54125,5.63875 6.54125,9.89625 0,2.98875 -0.76125,5.97875 -2.08625,7.67 m -4.455,-14.49375 c -1.69125,0 -2.48125,0.6775 -3.1575,2.34125 -0.45125,1.1275 -0.73375,2.87625 -0.73375,4.4825 0,2.0025 0.4225,4.06125 1.15625,5.27375 0.5925,0.98625 1.38125,1.46625 2.59375,1.46625 1.41,0 2.28375,-0.73375 2.9325,-2.3975 0.395,-1.015 0.73375,-2.87625 0.73375,-4.3425 0,-2.19875 -0.48,-6.82375 -3.525,-6.82375"
   style="fill:#000000;fill-opacity:1;fill-rule:nonzero;stroke:none"
   id="path3503" /><path
   inkscape:connector-curvature="0"
   d="m 233.6145,42.33989 c -3.27125,0 -5.6675,-1.945 -6.93625,-4.82125 l 2.87625,-1.0725 c 0.78875,1.805 2.255,2.82 4.06,2.82 1.74875,0 2.9325,-1.2125 2.9325,-2.82 0,-2.5375 -2.9325,-2.9325 -5.41375,-3.91875 -1.1275,-0.48 -3.66625,-1.6075 -3.66625,-4.7375 0,-3.75 2.53875,-5.16 5.95,-5.16 2.67875,0 4.48375,1.55125 5.41375,3.89125 l -2.67875,0.79 c -0.2825,-0.84625 -1.49375,-1.66375 -2.8475,-1.66375 -1.43875,0 -3.0175,0.45125 -2.905,2.19875 0.2825,3.525 9.22125,1.2125 9.22125,8.685 0,3.46875 -2.595,5.80875 -6.00625,5.80875"
   style="fill:#000000;fill-opacity:1;fill-rule:nonzero;stroke:none"
   id="path3507" /><path
   inkscape:connector-curvature="0"
   d="m 242.863,42.00164 0,-19.03375 11.2225,0 0,3.0175 -8.205,0 0,4.6525 5.52625,0 0,3.07375 -5.52625,0 0,5.21625 8.7975,0 0,3.07375 -11.815,0 z"
   style="fill:#000000;fill-opacity:1;fill-rule:nonzero;stroke:none"
   id="path3511" /><path
   inkscape:connector-curvature="0"
   d="m 264.63114,42.00164 -6.71125,0 0,-19.03375 6.1475,0 c 1.945,0 2.67875,0.17 3.665,0.9875 2.03,1.72 3.13,4.765 3.13,8.4875 0,5.63875 -2.90375,9.55875 -6.23125,9.55875 m -0.31,-16.01625 -3.38375,0 0,12.9425 3.3275,0 c 2.735,0 3.5525,-3.8625 3.5525,-6.485 0,-2.2 -0.45125,-6.4575 -3.49625,-6.4575"
   style="fill:#000000;fill-opacity:1;fill-rule:nonzero;stroke:none"
   id="path3515" /><path
   inkscape:connector-curvature="0"
   d="m 124.04975,70.55137 -1.86125,-5.32875 -5.94875,0 -1.86125,5.32875 -3.215,0 6.54125,-19.03375 3.0175,0 6.5425,19.03375 -3.215,0 z m -4.79375,-13.76 -1.945,5.3575 3.80625,0 -1.86125,-5.3575 z"
   style="fill:#000000;fill-opacity:1;fill-rule:nonzero;stroke:none"
   id="path3519" /><path
   inkscape:connector-curvature="0"
   d="m 140.06562,70.55137 0,-8.29 -6.93625,0 0,8.29 -3.0175,0 0,-19.03375 3.0175,0 0,7.67 6.93625,0 0,-7.67 2.98875,0 0,19.03375 -2.98875,0 z"
   style="fill:#000000;fill-opacity:1;fill-rule:nonzero;stroke:none"
   id="path3523" /><path
   inkscape:connector-curvature="0"
   d="m 147.62213,70.55137 0,-19.03375 11.2225,0 0,3.0175 -8.205,0 0,4.6525 5.52625,0 0,3.07375 -5.52625,0 0,5.21625 8.7975,0 0,3.07375 -11.815,0 z"
   style="fill:#000000;fill-opacity:1;fill-rule:nonzero;stroke:none"
   id="path3527" /><path
   inkscape:connector-curvature="0"
   d="m 173.8455,70.55137 -1.86125,-5.32875 -5.95,0 -1.86,5.32875 -3.215,0 6.54125,-19.03375 3.0175,0 6.5425,19.03375 -3.215,0 z m -4.79375,-13.76 -1.945,5.3575 3.80625,0 -1.86125,-5.3575 z"
   style="fill:#000000;fill-opacity:1;fill-rule:nonzero;stroke:none"
   id="path3531" /><path
   inkscape:connector-curvature="0"
   d="m 186.61862,70.55137 -6.71125,0 0,-19.03375 6.1475,0 c 1.945,0 2.67875,0.17 3.665,0.9875 2.03125,1.72 3.13,4.765 3.13,8.4875 0,5.63875 -2.90375,9.55875 -6.23125,9.55875 m -0.31,-16.01625 -3.38375,0 0,12.9425 3.3275,0 c 2.735,0 3.5525,-3.8625 3.5525,-6.485 0,-2.2 -0.45125,-6.4575 -3.49625,-6.4575"
   style="fill:#000000;fill-opacity:1;fill-rule:nonzero;stroke:none"
   id="path3535" /><path
   inkscape:connector-curvature="0"
   d="m 79.48912,131.16138 c -2.79125,0 -4.59625,-1.07125 -5.80875,-3.4125 -0.84625,-1.6625 -1.41,-4.06 -1.41,-6.485 0,-2.98875 0.8175,-6.00625 2.14375,-7.66875 1.1275,-1.41 2.735,-2.14375 4.8775,-2.14375 2.87625,0 4.68125,1.2125 5.95,3.89125 l -2.82,1.18375 c -1.04375,-1.60625 -1.66375,-2.00125 -3.13,-2.00125 -1.5225,0 -2.5375,0.67625 -3.21375,2.34 -0.45125,1.12875 -0.73375,2.79125 -0.73375,4.39875 0,2.08625 0.45125,4.17375 1.2125,5.3575 0.64875,1.015 1.55125,1.46625 2.87625,1.46625 1.26875,0 2.19875,-0.67625 2.9325,-2.19875 l 2.87625,1.07125 c -1.1275,2.79125 -3.0175,4.20125 -5.7525,4.20125"
   style="fill:#000000;fill-opacity:1;fill-rule:nonzero;stroke:none"
   id="path3539" /><path
   inkscape:connector-curvature="0"
   d="m 99.08613,130.823 -3.07375,-8.29 -3.58125,0 0,8.29 -3.01625,0 0,-19.03375 6.9075,0 c 4.37125,0 5.64,3.4975 5.64,5.33 0,2.03 -1.18375,4.0325 -2.9325,4.82125 l 3.3275,8.8825 -3.27125,0 z m -2.65,-16.01625 -4.005,0 0,4.6525 3.97625,0 c 1.46625,0 2.56625,-1.0425 2.56625,-2.34 0,-1.24125 -1.07125,-2.3125 -2.5375,-2.3125"
   style="fill:#000000;fill-opacity:1;fill-rule:nonzero;stroke:none"
   id="path3543" /><path
   inkscape:connector-curvature="0"
   d="m 116.6245,129.01825 c -1.1,1.4375 -2.59375,2.1425 -4.59625,2.1425 -2.67875,0 -4.31375,-1.07125 -5.47,-3.41125 -0.79,-1.6075 -1.35375,-4.145 -1.35375,-6.40125 0,-3.1575 0.79,-5.9775 2.08625,-7.75375 1.1,-1.495 2.67875,-2.1425 4.87875,-2.1425 5.2725,0 6.54125,5.63875 6.54125,9.89625 0,2.98875 -0.76125,5.97875 -2.08625,7.67 m -4.455,-14.49375 c -1.6925,0 -2.48125,0.6775 -3.15875,2.34125 -0.45,1.1275 -0.7325,2.87625 -0.7325,4.4825 0,2.0025 0.4225,4.06125 1.15625,5.27375 0.5925,0.98625 1.38125,1.46625 2.59375,1.46625 1.41,0 2.28375,-0.73375 2.9325,-2.3975 0.395,-1.015 0.73375,-2.87625 0.73375,-4.3425 0,-2.19875 -0.48,-6.82375 -3.525,-6.82375"
   style="fill:#000000;fill-opacity:1;fill-rule:nonzero;stroke:none"
   id="path3547" /><path
   inkscape:connector-curvature="0"
   d="m 128.49539,131.16138 c -3.27125,0 -5.6675,-1.94625 -6.93625,-4.82125 l 2.87625,-1.0725 c 0.78875,1.805 2.255,2.82 4.06,2.82 1.74875,0 2.9325,-1.2125 2.9325,-2.82 0,-2.5375 -2.9325,-2.9325 -5.41375,-3.91875 -1.1275,-0.48 -3.66625,-1.6075 -3.66625,-4.7375 0,-3.75 2.53875,-5.16 5.95,-5.16 2.67875,0 4.48375,1.55125 5.41375,3.89125 l -2.67875,0.79 c -0.28125,-0.84625 -1.49375,-1.66375 -2.8475,-1.66375 -1.43875,0 -3.0175,0.45125 -2.905,2.19875 0.2825,3.525 9.22125,1.2125 9.22125,8.685 0,3.46875 -2.59375,5.80875 -6.00625,5.80875"
   style="fill:#000000;fill-opacity:1;fill-rule:nonzero;stroke:none"
   id="path3551" /><path
   inkscape:connector-curvature="0"
   d="m 143.35525,131.16138 c -3.27125,0 -5.6675,-1.94625 -6.93625,-4.82125 l 2.87625,-1.0725 c 0.78875,1.805 2.255,2.82 4.06,2.82 1.74875,0 2.9325,-1.2125 2.9325,-2.82 0,-2.5375 -2.9325,-2.9325 -5.41375,-3.91875 -1.1275,-0.48 -3.66625,-1.6075 -3.66625,-4.7375 0,-3.75 2.53875,-5.16 5.95,-5.16 2.67875,0 4.48375,1.55125 5.41375,3.89125 l -2.67875,0.79 c -0.28125,-0.84625 -1.49375,-1.66375 -2.8475,-1.66375 -1.43875,0 -3.0175,0.45125 -2.905,2.19875 0.2825,3.525 9.22125,1.2125 9.22125,8.685 0,3.46875 -2.59375,5.80875 -6.00625,5.80875"
   style="fill:#000000;fill-opacity:1;fill-rule:nonzero;stroke:none"
   id="path3555" /><path
   inkscape:connector-curvature="0"
   d="m 181.12963,130.823 0,-8.29 -6.93625,0 0,8.29 -3.0175,0 0,-19.03375 3.0175,0 0,7.67 6.93625,0 0,-7.67 2.98875,0 0,19.03375 -2.98875,0 z"
   style="fill:#000000;fill-opacity:1;fill-rule:nonzero;stroke:none"
   id="path3559" /><path
   inkscape:connector-curvature="0"
   d="m 188.68625,130.823 0,-19.03375 11.2225,0 0,3.0175 -8.205,0 0,4.6525 5.52625,0 0,3.07375 -5.52625,0 0,5.21625 8.7975,0 0,3.07375 -11.815,0 z"
   style="fill:#000000;fill-opacity:1;fill-rule:nonzero;stroke:none"
   id="path3563" /><path
   inkscape:connector-curvature="0"
   d="m 213.41537,130.823 -3.07375,-8.29 -3.58125,0 0,8.29 -3.01625,0 0,-19.03375 6.9075,0 c 4.37125,0 5.64,3.4975 5.64,5.33 0,2.03 -1.185,4.0325 -2.9325,4.82125 l 3.3275,8.8825 -3.27125,0 z m -2.65125,-16.01625 -4.00375,0 0,4.6525 3.97625,0 c 1.46625,0 2.56625,-1.0425 2.56625,-2.34 0,-1.24125 -1.0725,-2.3125 -2.53875,-2.3125"
   style="fill:#000000;fill-opacity:1;fill-rule:nonzero;stroke:none"
   id="path3567" /><path
   inkscape:connector-curvature="0"
   d="m 219.92837,130.823 0,-19.03375 11.2225,0 0,3.0175 -8.205,0 0,4.6525 5.52625,0 0,3.07375 -5.52625,0 0,5.21625 8.7975,0 0,3.07375 -11.815,0 z"
   style="fill:#000000;fill-opacity:1;fill-rule:nonzero;stroke:none"
   id="path3571" /><path
   inkscape:connector-curvature="0"
   d="m 254.40788,80.0285 16.455,11.13125 -16.455,11.15 c -0.7275,0.49625 -1.72,0.3075 -2.21375,-0.42 -0.33125,-0.485 -0.27,-0.98875 -0.11625,-1.5825 l 1.44875,-4.83125 h -220.375 v -8.6225 h 220.375 l -1.41625,-4.75375 c -0.18625,-0.65375 -0.25875,-1.1425 0.0837,-1.65125 0.49375,-0.72375 1.48625,-0.9125 2.21375,-0.42"
   style="fill:#000000;fill-opacity:1;fill-rule:evenodd;stroke:none"
   id="path3575" /></svg>
