<?xml version="1.0" encoding="UTF-8" standalone="no"?>
<!-- Generator: Adobe Illustrator 12.0.1, SVG Export Plug-In  -->

<svg
   xmlns:dc="http://purl.org/dc/elements/1.1/"
   xmlns:cc="http://creativecommons.org/ns#"
   xmlns:rdf="http://www.w3.org/1999/02/22-rdf-syntax-ns#"
   xmlns:svg="http://www.w3.org/2000/svg"
   xmlns="http://www.w3.org/2000/svg"
   xmlns:sodipodi="http://sodipodi.sourceforge.net/DTD/sodipodi-0.dtd"
   xmlns:inkscape="http://www.inkscape.org/namespaces/inkscape"
   version="1.1"
   width="286.00751"
   height="286.01349"
   viewBox="0 0 286.00751 286.01349"
   enable-background="new 0 0 289 288"
   xml:space="preserve"
   id="svg2"
   inkscape:version="0.48.2 r9819"
   sodipodi:docname="MUTCD W1-3L (temporary).svg"><metadata
   id="metadata18"><rdf:RDF><cc:Work
       rdf:about=""><dc:format>image/svg+xml</dc:format><dc:type
         rdf:resource="http://purl.org/dc/dcmitype/StillImage" /><dc:title></dc:title></cc:Work></rdf:RDF></metadata><sodipodi:namedview
   pagecolor="#ffffff"
   bordercolor="#666666"
   borderopacity="1"
   objecttolerance="10"
   gridtolerance="10"
   guidetolerance="10"
   inkscape:pageopacity="0"
   inkscape:pageshadow="2"
   inkscape:window-width="1280"
   inkscape:window-height="1004"
   id="namedview16"
   showgrid="false"
   fit-margin-top="0"
   fit-margin-left="0"
   fit-margin-right="0"
   fit-margin-bottom="0"
   inkscape:zoom="1.6388889"
   inkscape:cx="93.092151"
   inkscape:cy="116.49884"
   inkscape:window-x="-8"
   inkscape:window-y="-8"
   inkscape:window-maximized="1"
   inkscape:current-layer="svg2" />
<defs
   id="defs4">
</defs>
<path
   d="M 3.81975,133.744 133.86875,3.8219993 c 5.092,-5.096 13.419,-5.096 18.504,0 L 282.18475,133.744 c 5.097,5.093 5.097,13.43 0,18.527 l -129.812,129.922 c -5.085,5.094 -13.412,5.094 -18.504,0 L 3.81975,152.271 c -5.093,-5.097 -5.093,-13.433 0,-18.527 z"
   id="path6"
   style="fill:#f4911d;fill-opacity:1;stroke:none"
   inkscape:connector-curvature="0" />

<path
   clip-rule="evenodd"
   d="M 6.28475,136.219 136.34075,6.2929993 c 3.729,-3.733 9.83,-3.733 13.563,0 L 279.70075,136.219 c 3.74,3.733 3.74,9.843 0,13.578 l -129.797,129.926 c -3.732,3.728 -9.833,3.728 -13.563,0 L 6.28375,149.797 c -3.728,-3.734 -3.728,-9.844 10e-4,-13.578"
   id="path10"
   inkscape:connector-curvature="0"
   style="fill:#000000;fill-rule:evenodd;stroke:none" />
<path
   clip-rule="evenodd"
   d="m 9.99775,139.93 130.05,-129.926001 c 1.689,-1.6929997 4.457,-1.6929997 6.146,0 L 275.99575,139.93 c 1.689,1.691 1.689,4.461 0,6.152 l -129.801,129.92 c -1.69,1.699 -4.457,1.699 -6.146,0 L 9.99775,146.082 c -1.691,-1.691 -1.691,-4.461 0,-6.152"
   id="path12"
   style="fill:#f4911d;fill-opacity:1;fill-rule:evenodd;stroke:none"
   inkscape:connector-curvature="0" />
<path
   clip-rule="evenodd"
   d="m 117.03275,170.109 -0.046,45.431 -30.556,0.012 0.031,-61.952 c 0,-11.373 9.472,-20.712 20.89,-20.712 h 38.792 c 4.085,0 7.418,-3.336 7.418,-7.425 l -0.016,-24.911 -16.345,4.878 c -2.256,0.632 -3.93,0.895 -5.674,-0.291 -2.488,-1.695 -3.14,-5.115 -1.442,-7.611001 l 38.273,-56.642 38.338,56.641 c 1.69,2.496001 1.042,5.916001 -1.442,7.611001 -1.67,1.136 -3.399,0.931 -5.449,0.411 l -16.615,-4.999 -0.02,41.417 c -0.004,-0.089 -0.004,-0.089 -0.004,-0.089 0,11.37 -9.166,20.712 -20.533,20.797 l -38.168,0.008 c -4.084,0.001 -7.432,3.337 -7.432,7.426"
   id="path14"
   inkscape:connector-curvature="0"
   style="fill:#000000;fill-rule:evenodd;stroke:none" />
</svg>