<?xml version="1.0" encoding="UTF-8" standalone="no"?>
<!-- Generator: Adobe Illustrator 12.0.1, SVG Export Plug-In  -->

<svg
   xmlns:dc="http://purl.org/dc/elements/1.1/"
   xmlns:cc="http://creativecommons.org/ns#"
   xmlns:rdf="http://www.w3.org/1999/02/22-rdf-syntax-ns#"
   xmlns:svg="http://www.w3.org/2000/svg"
   xmlns="http://www.w3.org/2000/svg"
   xmlns:sodipodi="http://sodipodi.sourceforge.net/DTD/sodipodi-0.dtd"
   xmlns:inkscape="http://www.inkscape.org/namespaces/inkscape"
   version="1.1"
   width="314.09375"
   height="157.8125"
   viewBox="-1 0 314.09375 157.8125"
   enable-background="new -1 0 289 288"
   xml:space="preserve"
   id="svg2"
   inkscape:version="0.48.2 r9819"
   sodipodi:docname="MUTCD R11-3b.svg"><metadata
   id="metadata22"><rdf:RDF><cc:Work
       rdf:about=""><dc:format>image/svg+xml</dc:format><dc:type
         rdf:resource="http://purl.org/dc/dcmitype/StillImage" /><dc:title></dc:title></cc:Work></rdf:RDF></metadata><sodipodi:namedview
   pagecolor="#ffffff"
   bordercolor="#666666"
   borderopacity="1"
   objecttolerance="10"
   gridtolerance="10"
   guidetolerance="10"
   inkscape:pageopacity="0"
   inkscape:pageshadow="2"
   inkscape:window-width="1280"
   inkscape:window-height="1004"
   id="namedview20"
   showgrid="false"
   fit-margin-top="0"
   fit-margin-left="0"
   fit-margin-right="0"
   fit-margin-bottom="0"
   inkscape:zoom="2.317739"
   inkscape:cx="161.90383"
   inkscape:cy="77.804748"
   inkscape:window-x="-8"
   inkscape:window-y="-8"
   inkscape:window-maximized="1"
   inkscape:current-layer="svg2"
   showguides="true"
   inkscape:guide-bbox="true" />
<defs
   id="defs4">
</defs>







<path
   inkscape:connector-curvature="0"
   d="m 312.35224,147.29211 c 0,5.3725 -4.39625,9.76875 -9.76875,9.76875 l -293.06375,0 c -5.3725,0 -9.76875,-4.39625 -9.76875,-9.76875 l 0,-136.7625 c 0,-5.37375 4.39625,-9.76875 9.76875,-9.76875 l 293.06375,0 c 5.3725,0 9.76875,4.395 9.76875,9.76875 l 0,136.7625"
   style="fill:#ffffff;fill-opacity:1;fill-rule:nonzero;stroke:#000000;stroke-width:1.5;stroke-miterlimit:4;stroke-opacity:1;stroke-dasharray:none"
   id="path10708" /><path
   inkscape:connector-curvature="0"
   d="m 305.83961,147.29211 c 0,1.79125 -1.465,3.25625 -3.25625,3.25625 l -293.06375,0 c -1.79125,0 -3.25625,-1.465 -3.25625,-3.25625 l 0,-136.7625 c 0,-1.79125 1.465,-3.25625 3.25625,-3.25625 l 293.06375,0 c 1.79125,0 3.25625,1.465 3.25625,3.25625 l 0,136.7625 z m -3.25625,-143.92625 -293.06375,0 c -3.94,0 -7.16375,3.2225 -7.16375,7.16375 l 0,136.7625 c 0,3.94 3.22375,7.16375 7.16375,7.16375 l 293.06375,0 c 3.94,0 7.16375,-3.22375 7.16375,-7.16375 l 0,-136.7625 c 0,-3.94125 -3.22375,-7.16375 -7.16375,-7.16375"
   style="fill:#000000;fill-opacity:1;fill-rule:nonzero;stroke:none"
   id="path10716" /><path
   inkscape:connector-curvature="0"
   d="m 42.41125,26 -4.63125,0 0,7.8725 4.63125,0 c 2.64,0 4.02875,-1.435 4.02875,-3.93625 C 46.44,27.52875 44.82,26 42.41125,26 m 3.84375,26.86 -4.1675,-14.68 -4.3075,0 0,14.68 -4.4925,0 0,-31.26 9.355,0 c 4.90875,0 8.1975,3.28875 8.1975,8.33625 0,3.75125 -1.52875,6.48375 -4.4925,7.54875 l 4.4925,15.375 -4.585,0"
   style="fill:#000000;fill-opacity:1;fill-rule:nonzero;stroke:none"
   id="path10720" /><path
   inkscape:connector-curvature="0"
   d="m 68.62275,29.38074 c -0.7875,-2.7325 -1.99125,-3.93625 -3.84375,-3.93625 -1.99125,0 -3.14875,1.20375 -3.9825,3.84375 -0.695,2.4075 -0.9725,4.4925 -0.9725,8.01125 0,3.38125 0.2775,5.3725 0.9725,7.87375 0.74125,2.63875 1.99125,3.84375 3.9825,3.84375 1.8525,0 3.05625,-1.205 3.84375,-3.84375 0.74125,-2.50125 0.9725,-4.4 0.9725,-8.0125 0,-3.47375 -0.32375,-5.465 -0.9725,-7.78 m 3.47375,18.66375 c -1.575,3.705 -3.84375,5.37125 -7.3175,5.37125 -3.75125,0 -5.9275,-1.66625 -7.45625,-5.37125 -1.29625,-3.10375 -1.76,-6.02125 -1.76,-10.88375 0,-4.72375 0.4175,-7.8725 1.76,-10.83625 1.62125,-3.75125 3.84375,-5.28 7.45625,-5.28 3.6125,0 5.7425,1.575 7.3175,5.3725 1.29625,3.1025 1.76,6.02 1.76,10.74375 0,4.8625 -0.46375,7.87375 -1.76,10.88375"
   style="fill:#000000;fill-opacity:1;fill-rule:nonzero;stroke:none"
   id="path10724" /><path
   inkscape:connector-curvature="0"
   d="m 87.47175,30.909 -2.17625,9.03 4.49125,0 -2.315,-9.03 z m 5.60375,21.95125 -2.17625,-8.5675 -6.715,0 -2.085,8.5675 -4.49125,0 7.78,-31.26 4.39875,0 7.78125,31.26 -4.4925,0 z"
   style="fill:#000000;fill-opacity:1;fill-rule:nonzero;stroke:none"
   id="path10728" /><path
   inkscape:connector-curvature="0"
   d="m 114.28525,29.14914 c -0.83375,-2.17625 -2.08375,-3.14875 -4.075,-3.14875 l -3.75125,0 0,22.46 3.75125,0 c 2.63875,0 4.12125,-2.0375 4.49125,-4.49125 0.27875,-1.945 0.4175,-4.16875 0.4175,-6.57625 0,-3.52 -0.37125,-6.90125 -0.83375,-8.24375 m 0.74125,22.27625 c -1.1575,0.92625 -2.64,1.435 -4.4,1.435 l -8.66,0 0,-31.26 8.01125,0 c 2.64,0 3.9375,0.37 5.04875,1.20375 1.8525,1.34375 3.14875,3.75125 3.75125,6.90125 0.41625,2.315 0.74125,5.0475 0.74125,7.455 0,7.27125 -1.4825,11.81 -4.4925,14.265"
   style="fill:#000000;fill-opacity:1;fill-rule:nonzero;stroke:none"
   id="path10732" /><path
   inkscape:connector-curvature="0"
   d="m 162.8615,53.41625 c -6.66875,0 -9.6325,-5.3725 -9.6325,-16.90375 0,-10.09625 3.14875,-15.4675 9.30875,-15.4675 5.18625,0 7.8725,4.63125 8.10375,8.89125 l -4.4925,0 c -0.41625,-3.05625 -1.62,-4.4925 -3.70375,-4.4925 -3.6125,0 -4.95625,2.825 -4.95625,10.97625 0,8.985 1.52875,12.59625 5.3725,12.59625 2.64,0 3.2875,-2.17625 3.2875,-4.49125 l 4.4925,0 c -0.0925,5.14 -3.38,8.89125 -7.78,8.89125"
   style="fill:#000000;fill-opacity:1;fill-rule:nonzero;stroke:none"
   id="path10736" /><path
   inkscape:connector-curvature="0"
   d="m 176.89313,52.86063 0,-31.26 4.4925,0 0,27.0925 11.43875,0 0,4.1675 -15.93125,0 z"
   style="fill:#000000;fill-opacity:1;fill-rule:nonzero;stroke:none"
   id="path10740" /><path
   inkscape:connector-curvature="0"
   d="m 209.6345,29.38074 c -0.7875,-2.7325 -1.99125,-3.93625 -3.84375,-3.93625 -1.99125,0 -3.14875,1.20375 -3.9825,3.84375 -0.695,2.4075 -0.9725,4.4925 -0.9725,8.01125 0,3.38125 0.2775,5.3725 0.9725,7.87375 0.74,2.63875 1.99125,3.84375 3.9825,3.84375 1.8525,0 3.05625,-1.205 3.84375,-3.84375 0.74125,-2.50125 0.9725,-4.4 0.9725,-8.0125 0,-3.47375 -0.32375,-5.465 -0.9725,-7.78 m 3.47375,18.66375 c -1.575,3.705 -3.84375,5.37125 -7.3175,5.37125 -3.75125,0 -5.9275,-1.66625 -7.45625,-5.37125 -1.29625,-3.10375 -1.76,-6.02125 -1.76,-10.88375 0,-4.72375 0.4175,-7.8725 1.76,-10.83625 1.62125,-3.75125 3.84375,-5.28 7.45625,-5.28 3.6125,0 5.7425,1.575 7.3175,5.3725 1.29625,3.1025 1.76,6.02 1.76,10.74375 0,4.8625 -0.46375,7.87375 -1.76,10.88375"
   style="fill:#000000;fill-opacity:1;fill-rule:nonzero;stroke:none"
   id="path10744" /><path
   inkscape:connector-curvature="0"
   d="m 228.34412,53.41625 c -5.465,0 -8.79875,-4.63125 -8.79875,-9.77125 l 4.39875,0 c 0,2.63875 1.34375,5.37125 4.4,5.37125 2.40875,0 4.4,-2.17625 4.4,-4.72375 0,-3.705 -3.19625,-4.955 -7.78125,-8.19625 -2.7775,-1.99125 -3.84375,-4.16875 -3.84375,-6.9475 0,-4.49125 3.47375,-8.10375 8.0125,-8.10375 4.3525,0 7.78,3.42625 7.8725,8.10375 l -4.26,0 c -0.13875,-2.17625 -1.6675,-3.6125 -3.6125,-3.6125 -2.08375,0 -3.75125,1.52875 -3.75125,3.6125 0,1.575 0.64875,2.40875 2.96375,3.75125 6.02,3.47375 8.66,6.90125 8.66,11.3925 0,5.04875 -3.84375,9.12375 -8.66,9.12375"
   style="fill:#000000;fill-opacity:1;fill-rule:nonzero;stroke:none"
   id="path10748" /><path
   inkscape:connector-curvature="0"
   d="m 242.33025,52.86063 0,-31.26 14.72625,0 0,4.4 -10.235,0 0,7.8725 6.48375,0 0,4.30625 -6.48375,0 0,10.28125 11.43875,0 0,4.4 -15.93,0 z"
   style="fill:#000000;fill-opacity:1;fill-rule:nonzero;stroke:none"
   id="path10752" /><path
   inkscape:connector-curvature="0"
   d="m 275.85889,29.14914 c -0.83375,-2.17625 -2.08375,-3.14875 -4.075,-3.14875 l -3.75125,0 0,22.46 3.75125,0 c 2.64,0 4.12125,-2.0375 4.49125,-4.49125 0.27875,-1.945 0.4175,-4.16875 0.4175,-6.57625 0,-3.52 -0.37,-6.90125 -0.83375,-8.24375 m 0.74125,22.27625 c -1.1575,0.92625 -2.64,1.435 -4.4,1.435 l -8.66,0 0,-31.26 8.01125,0 c 2.64,0 3.9375,0.37 5.04875,1.20375 1.8525,1.34375 3.14875,3.75125 3.75125,6.90125 0.41625,2.315 0.74125,5.0475 0.74125,7.455 0,7.27125 -1.4825,11.81 -4.4925,14.265"
   style="fill:#000000;fill-opacity:1;fill-rule:nonzero;stroke:none"
   id="path10756" /><path
   inkscape:connector-curvature="0"
   d="m 148.75824,69.35963 0,22.575 -3.78125,0 0,-22.575 -4.7475,0 0,-3.47375 13.275,0 0,3.47375 -4.74625,0 z"
   style="fill:#000000;fill-opacity:1;fill-rule:nonzero;stroke:none"
   id="path10760" /><path
   inkscape:connector-curvature="0"
   d="m 167.51287,72.36964 c -0.65625,-2.27625 -1.65875,-3.28 -3.20375,-3.28 -1.65875,0 -2.62375,1.00375 -3.31875,3.2025 -0.57875,2.0075 -0.81,3.74375 -0.81,6.67625 0,2.8175 0.23125,4.47625 0.81,6.56 0.6175,2.2 1.66,3.20375 3.31875,3.20375 1.545,0 2.5475,-1.00375 3.20375,-3.20375 0.6175,-2.08375 0.81,-3.665 0.81,-6.675 0,-2.895 -0.27,-4.55375 -0.81,-6.48375 m 2.89375,15.55125 c -1.3125,3.0875 -3.2025,4.4775 -6.0975,4.4775 -3.125,0 -4.93875,-1.39 -6.2125,-4.4775 -1.08,-2.585 -1.46625,-5.01625 -1.46625,-9.0675 0,-3.9375 0.3475,-6.56125 1.46625,-9.03125 1.35125,-3.125 3.20375,-4.39875 6.2125,-4.39875 3.01,0 4.785,1.3125 6.0975,4.47625 1.08125,2.58625 1.46625,5.01625 1.46625,8.95375 0,4.05125 -0.385,6.56 -1.46625,9.0675"
   style="fill:#000000;fill-opacity:1;fill-rule:nonzero;stroke:none"
   id="path10764" /><path
   inkscape:connector-curvature="0"
   d="m 153.189,109.12874 0,27.0925 -4.53875,0 0,-27.0925 -5.69625,0 0,-4.1675 15.93125,0 0,4.1675 -5.69625,0 z"
   style="fill:#000000;fill-opacity:1;fill-rule:nonzero;stroke:none"
   id="path10768" /><path
   inkscape:connector-curvature="0"
   d="m 172.36113,109.36037 -4.63125,0 0,7.8725 4.63125,0 c 2.64,0 4.03,-1.435 4.03,-3.93625 0,-2.4075 -1.62125,-3.93625 -4.03,-3.93625 m 3.84375,26.86 -4.1675,-14.68 -4.3075,0 0,14.68 -4.49125,0 0,-31.26 9.35375,0 c 4.90875,0 8.1975,3.28875 8.1975,8.33625 0,3.75125 -1.52875,6.48375 -4.4925,7.54875 l 4.4925,15.375 -4.585,0"
   style="fill:#000000;fill-opacity:1;fill-rule:nonzero;stroke:none"
   id="path10772" /><path
   inkscape:connector-curvature="0"
   d="m 193.47913,114.26937 -2.17625,9.03125 4.49125,0 -2.315,-9.03125 z m 5.60375,21.95125 -2.17625,-8.5675 -6.715,0 -2.085,8.5675 -4.49125,0 7.78,-31.26 4.39875,0 7.78125,31.26 -4.4925,0 z"
   style="fill:#000000;fill-opacity:1;fill-rule:nonzero;stroke:none"
   id="path10776" /><path
   inkscape:connector-curvature="0"
   d="m 212.466,109.36037 0,7.8725 6.2525,0 0,4.3075 -6.2525,0 0,14.68 -4.4925,0 0,-31.26 15.93125,0 0,4.4 -11.43875,0 z"
   style="fill:#000000;fill-opacity:1;fill-rule:nonzero;stroke:none"
   id="path10780" /><path
   inkscape:connector-curvature="0"
   d="m 232.7495,109.36037 0,7.8725 6.2525,0 0,4.3075 -6.2525,0 0,14.68 -4.4925,0 0,-31.26 15.93125,0 0,4.4 -11.43875,0 z"
   style="fill:#000000;fill-opacity:1;fill-rule:nonzero;stroke:none"
   id="path10784" /><path
   inkscape:connector-curvature="0"
   d="m 248.54125,104.96125 4.4,0 0,31.26 -4.4,0 0,-31.26 z"
   style="fill:#000000;fill-opacity:1;fill-rule:nonzero;stroke:none"
   id="path10786" /><path
   inkscape:connector-curvature="0"
   d="m 268.82539,136.77662 c -6.66875,0 -9.6325,-5.3725 -9.6325,-16.90375 0,-10.09625 3.14875,-15.4675 9.30875,-15.4675 5.18625,0 7.8725,4.63125 8.10375,8.89125 l -4.4925,0 c -0.41625,-3.05625 -1.62,-4.4925 -3.70375,-4.4925 -3.6125,0 -4.95625,2.825 -4.95625,10.97625 0,8.985 1.52875,12.59625 5.3725,12.59625 2.64,0 3.2875,-2.17625 3.2875,-4.49125 l 4.4925,0 c -0.0925,5.14 -3.38,8.89125 -7.78,8.89125"
   style="fill:#000000;fill-opacity:1;fill-rule:nonzero;stroke:none"
   id="path10790" /><path
   inkscape:connector-curvature="0"
   d="m 48.97588,108.62512 0,26.8625 -4.43375,0 0,-26.8625 -5.6825,0 0,-4.13375 15.79875,0 0,4.13375 -5.6825,0 z"
   style="fill:#000000;fill-opacity:1;fill-rule:nonzero;stroke:none"
   id="path10794" /><path
   inkscape:connector-curvature="0"
   d="m 71.964,135.48788 0,-14.035 -8.52375,0 0,14.035 -4.43375,0 0,-30.99625 4.43375,0 0,12.61375 8.52375,0 0,-12.61375 4.4775,0 0,30.99625 -4.4775,0 z"
   style="fill:#000000;fill-opacity:1;fill-rule:nonzero;stroke:none"
   id="path10798" /><path
   inkscape:connector-curvature="0"
   d="m 92.28313,108.84001 -4.60625,0 0,7.835 4.60625,0 c 2.5825,0 4.00375,-1.3775 4.00375,-3.9175 0,-2.41125 -1.59375,-3.9175 -4.00375,-3.9175 m 3.78875,26.6475 -4.13375,-14.59375 -4.26125,0 0,14.59375 -4.435,0 0,-30.99625 9.25625,0 c 4.9075,0 8.18,3.2725 8.18,8.26625 0,3.7025 -1.55,6.41375 -4.4775,7.53375 l 4.4775,15.19625 -4.60625,0"
   style="fill:#000000;fill-opacity:1;fill-rule:nonzero;stroke:none"
   id="path10802" /><path
   inkscape:connector-curvature="0"
   d="m 122.11625,131.65638 c -1.46375,2.54 -4.43375,4.34875 -7.36125,4.34875 -3.05625,0 -6.15625,-1.68 -7.62,-4.305 -0.9475,-1.63625 -1.205,-2.9275 -1.205,-5.4675 l 0,-21.74125 4.43375,0 0,22.2575 c 0,2.97 1.8075,4.95125 4.39125,4.95125 2.41,0 4.1325,-1.98125 4.1325,-4.95125 l 0,-22.2575 4.4775,0 0,21.74125 c 0,2.54 -0.30125,3.83125 -1.24875,5.42375"
   style="fill:#000000;fill-opacity:1;fill-rule:nonzero;stroke:none"
   id="path10806" /></svg>