<?xml version="1.0" encoding="UTF-8" standalone="no"?>
<!-- Created with Inkscape (http://www.inkscape.org/) -->

<svg
   xmlns:dc="http://purl.org/dc/elements/1.1/"
   xmlns:cc="http://creativecommons.org/ns#"
   xmlns:rdf="http://www.w3.org/1999/02/22-rdf-syntax-ns#"
   xmlns:svg="http://www.w3.org/2000/svg"
   xmlns="http://www.w3.org/2000/svg"
   xmlns:sodipodi="http://sodipodi.sourceforge.net/DTD/sodipodi-0.dtd"
   xmlns:inkscape="http://www.inkscape.org/namespaces/inkscape"
   width="71.999962"
   height="57.600002"
   id="svg2934"
   version="1.1"
   inkscape:version="0.48.2 r9819"
   sodipodi:docname="MUTCD M4-8b.svg">
  <defs
     id="defs2936">
    <inkscape:perspective
       sodipodi:type="inkscape:persp3d"
       inkscape:vp_x="0 : 526.18109 : 1"
       inkscape:vp_y="0 : 1000 : 0"
       inkscape:vp_z="744.09448 : 526.18109 : 1"
       inkscape:persp3d-origin="372.04724 : 350.78739 : 1"
       id="perspective2942" />
    <inkscape:perspective
       id="perspective2924"
       inkscape:persp3d-origin="0.5 : 0.33333333 : 1"
       inkscape:vp_z="1 : 0.5 : 1"
       inkscape:vp_y="0 : 1000 : 0"
       inkscape:vp_x="0 : 0.5 : 1"
       sodipodi:type="inkscape:persp3d" />
  </defs>
  <sodipodi:namedview
     id="base"
     pagecolor="#ffffff"
     bordercolor="#666666"
     borderopacity="1.0"
     inkscape:pageopacity="0.0"
     inkscape:pageshadow="2"
     inkscape:zoom="7.4193678"
     inkscape:cx="31.54667"
     inkscape:cy="10.251372"
     inkscape:document-units="px"
     inkscape:current-layer="g2909"
     showgrid="false"
     inkscape:window-width="1280"
     inkscape:window-height="1004"
     inkscape:window-x="-8"
     inkscape:window-y="-8"
     inkscape:window-maximized="1"
     fit-margin-top="0"
     fit-margin-left="0"
     fit-margin-right="0"
     fit-margin-bottom="0" />
  <metadata
     id="metadata2939">
    <rdf:RDF>
      <cc:Work
         rdf:about="">
        <dc:format>image/svg+xml</dc:format>
        <dc:type
           rdf:resource="http://purl.org/dc/dcmitype/StillImage" />
        <dc:title></dc:title>
      </cc:Work>
    </rdf:RDF>
  </metadata>
  <g
     inkscape:label="Ebene 1"
     inkscape:groupmode="layer"
     id="layer1"
     transform="translate(1342.1794,3431.5976)">
    <g
       id="g3018"
       transform="translate(2,-2)">
      <g
         id="g2909"
         transform="matrix(0.80835983,0,0,0.80835983,-165.10178,-177.02766)">
        <path
           d="m -1452.667,-4023.666 77.1934,0 c 3.2705,0 5.9379,2.6674 5.9379,5.9395 l 0,59.3779 c 0,3.2705 -2.6674,5.938 -5.9379,5.938 l -77.1934,0 c -3.2705,0 -5.9379,-2.6675 -5.9379,-5.938 l 0,-59.3779 c 0,-3.2721 2.6674,-5.9395 5.9379,-5.9395"
           style="fill:#f38f00;fill-opacity:1;fill-rule:nonzero;stroke:none"
           id="path6535"
           inkscape:connector-curvature="0" />
        <path
           d="m -1452.3257,-4022.1228 76.5099,0 c 2.6102,0 4.7364,2.1231 4.7364,4.7272 l 0,58.7161 c 0,2.6025 -2.1262,4.7256 -4.7364,4.7256 l -76.5099,0 c -2.6071,0 -4.7349,-2.1231 -4.7349,-4.7256 l 0,-58.7161 c 0,-2.6041 2.1278,-4.7272 4.7349,-4.7272"
           style="fill:#000000;fill-opacity:1;fill-rule:evenodd;stroke:none"
           id="path6543"
           inkscape:connector-curvature="0" />
        <path
           d="m -1452.2751,-4019.7476 76.4078,0 c 1.3283,0 2.4123,1.0809 2.4123,2.4061 l 0,58.6079 c 0,1.3236 -1.084,2.4045 -2.4123,2.4045 l -76.4078,0 c -1.3284,0 -2.4108,-1.0809 -2.4108,-2.4045 l 0,-58.6079 c 0,-1.3252 1.0824,-2.4061 2.4108,-2.4061"
           style="fill:#f38f00;fill-opacity:1;fill-rule:evenodd;stroke:none"
           id="path6547"
           inkscape:connector-curvature="0" />
        <path
           d="m -1380.5721,-4007.4882 c 0,0.6247 -0.3634,1.2479 -0.9355,1.5618 -0.3649,0.2072 -0.6263,0.2582 -1.3546,0.2582 l -2.8113,0 0,-3.6431 2.8113,0 c 0.7824,0 0.9897,0.051 1.3546,0.2613 0.5721,0.3108 0.9355,0.9355 0.9355,1.5618 m 2.6551,10.6713 -2.6025,-6.9245 c 1.353,-0.6248 2.2901,-2.185 2.2901,-3.7468 0,-1.5108 -0.9371,-3.0726 -2.236,-3.6973 -0.7314,-0.365 -1.5108,-0.4686 -2.6566,-0.4686 l -4.8942,0 0,14.8372 2.3427,0 0,-6.456 2.8113,0 2.3968,6.456 2.5484,0 z m -13.5862,-5.3101 0,-9.5271 -2.3442,0 0,9.5271 c 0,1.9267 -1.0933,3.1761 -2.7077,3.1761 -1.6128,0 -2.7061,-1.2494 -2.7061,-3.1761 l 0,-9.5271 -2.3427,0 0,9.5271 c 0,1.1442 0.2598,2.1865 0.6758,3.071 0.7824,1.4582 2.5515,2.5082 4.373,2.5082 1.8232,0 3.5922,-1.05 4.3731,-2.5082 0.4175,-0.8845 0.6788,-1.9268 0.6788,-3.071 m -15.6706,-2.0814 c 0,1.1443 -0.2613,2.6009 -0.5737,3.3834 -0.5195,1.3004 -1.1984,1.8741 -2.2901,1.8741 -0.9371,0 -1.5634,-0.3649 -2.0304,-1.1458 -0.5736,-0.9371 -0.886,-2.5515 -0.886,-4.1117 0,-1.251 0.2088,-2.6041 0.5721,-3.4886 0.5212,-1.302 1.2495,-1.8741 2.3953,-1.8231 0.8861,0.053 1.4598,0.3649 1.9268,1.1458 0.5737,0.9897 0.886,2.4989 0.886,4.1659 m 2.3412,0 c 0,-1.8757 -0.3634,-3.7484 -0.9881,-5.0519 -0.9387,-1.8216 -2.2391,-2.6535 -4.1133,-2.6535 -1.718,0 -2.9149,0.5195 -3.8009,1.6654 -0.9897,1.4056 -1.6144,3.5921 -1.6144,6.04 0,1.769 0.416,3.7468 1.0422,4.9978 0.8846,1.8215 2.1866,2.6628 4.2695,2.6628 1.5603,0 2.7587,-0.5289 3.5921,-1.6747 1.0407,-1.3021 1.6129,-3.6448 1.6129,-5.9859 m -12.3893,-5.3627 0,-2.083 -9.1636,0 0,2.083 3.3834,0 0,12.7542 2.3427,0 0,-12.7542 3.4375,0 z m -10.3095,12.7542 0,-2.3937 -6.8719,0 0,-4.0623 4.322,0 0,-2.3953 -4.322,0 0,-3.6431 6.4034,0 0,-2.3428 -8.7461,0 0,14.8372 9.2146,0 z m -14.8371,-7.4456 c 0,1.9793 -0.4685,3.5937 -1.3546,4.4782 -0.416,0.4159 -0.8845,0.5737 -1.6654,0.5737 l -2.3427,0 0,-10.1007 2.6551,0 c 0.6247,0 1.1458,0.2613 1.5092,0.6231 0.7299,0.7825 1.1984,2.4479 1.1984,4.4257 m 2.3953,0 c 0,-2.9149 -0.8861,-5.2576 -2.4479,-6.6122 -0.7809,-0.6247 -1.353,-0.7794 -2.8638,-0.7794 l -4.789,0 0,14.8372 4.5292,0 0.8335,0 c 0.7809,-0.053 1.5602,-0.3124 2.1339,-0.8319 1.667,-1.3021 2.6041,-3.6448 2.6041,-6.6137"
           style="fill:#000000;fill-opacity:1;fill-rule:evenodd;stroke:none"
           id="path6551"
           inkscape:connector-curvature="0" />
        <path
           d="m -1412.7151,-3993.2804 25.3863,17.1721 -25.3863,17.1984 c -1.118,0.7592 -2.6504,0.4701 -3.4112,-0.6495 -0.5088,-0.7484 -0.416,-1.5231 -0.184,-2.4432 l 2.2406,-7.4518 -26.7223,0 0,-13.2985 26.7223,0 -2.1865,-7.3328 c -0.283,-1.0128 -0.4021,-1.7628 0.1299,-2.5453 0.7608,-1.118 2.2932,-1.4102 3.4112,-0.6494"
           style="fill:#000000;fill-opacity:1;fill-rule:evenodd;stroke:none"
           id="path6555"
           inkscape:connector-curvature="0" />
      </g>
    </g>
  </g>
</svg>
