<?xml version="1.0" encoding="UTF-8" standalone="no"?>
<!-- Generator: Adobe Illustrator 12.0.1, SVG Export Plug-In  -->

<svg
   xmlns:dc="http://purl.org/dc/elements/1.1/"
   xmlns:cc="http://creativecommons.org/ns#"
   xmlns:rdf="http://www.w3.org/1999/02/22-rdf-syntax-ns#"
   xmlns:svg="http://www.w3.org/2000/svg"
   xmlns="http://www.w3.org/2000/svg"
   xmlns:sodipodi="http://sodipodi.sourceforge.net/DTD/sodipodi-0.dtd"
   xmlns:inkscape="http://www.inkscape.org/namespaces/inkscape"
   version="1.1"
   width="286.66199"
   height="286.66324"
   viewBox="-1 0 286.66199 286.66324"
   enable-background="new -1 0 289 288"
   xml:space="preserve"
   id="svg2"
   inkscape:version="0.48.2 r9819"
   sodipodi:docname="AJAX1.svg"><metadata
   id="metadata36"><rdf:RDF><cc:Work
       rdf:about=""><dc:format>image/svg+xml</dc:format><dc:type
         rdf:resource="http://purl.org/dc/dcmitype/StillImage" /></cc:Work></rdf:RDF></metadata><sodipodi:namedview
   pagecolor="#ffffff"
   bordercolor="#666666"
   borderopacity="1"
   objecttolerance="10"
   gridtolerance="10"
   guidetolerance="10"
   inkscape:pageopacity="0"
   inkscape:pageshadow="2"
   inkscape:window-width="1280"
   inkscape:window-height="1004"
   id="namedview34"
   showgrid="false"
   fit-margin-top="0"
   fit-margin-left="0"
   fit-margin-right="0"
   fit-margin-bottom="0"
   inkscape:zoom="2.3177389"
   inkscape:cx="91.122086"
   inkscape:cy="140.66877"
   inkscape:window-x="-8"
   inkscape:window-y="-8"
   inkscape:window-maximized="1"
   inkscape:current-layer="svg2" />
<defs
   id="defs4">
</defs>
<path
   d="M 3.09875,133.38675 132.37975,4.1047494 c 5.471,-5.473 14.421,-5.473 19.896,0 l 129.283,129.2820006 c 5.471,5.47 5.471,14.423 0,19.89 l -129.283,129.284 c -5.475,5.47 -14.425,5.47 -19.896,0 l -129.281,-129.285 c -5.465,-5.466 -5.465,-14.419 0,-19.889 z"
   id="path6"
   style="fill:#ffd033;stroke:none;fill-opacity:1"
   inkscape:connector-curvature="0" />

<path
   clip-rule="evenodd"
   d="M 6.22175,135.43975 134.44075,7.2207494 c 4.339,-4.339 11.442,-4.339 15.785,0 l 128.215,128.2190006 c 4.343,4.343 4.343,11.438 0,15.777 l -128.215,128.225 c -4.343,4.335 -11.446,4.335 -15.785,0 l -128.219,-128.225 c -4.338,-4.339 -4.338,-11.434 0,-15.777"
   id="path10"
   inkscape:connector-curvature="0"
   style="fill-rule:evenodd;stroke:none;fill:#000000" />
<path
   clip-rule="evenodd"
   d="m 10.22475,139.38975 128.162,-128.160001 c 2.162,-2.1699996 5.724,-2.1699996 7.889,0 l 128.16,128.160001 c 2.165,2.166 2.165,5.716 0,7.883 l -128.16,128.161 c -2.165,2.167 -5.727,2.167 -7.889,0 l -128.162,-128.161 c -2.165,-2.167 -2.165,-5.717 0,-7.883"
   id="path12"
   style="fill:#ffd033;fill-rule:evenodd;stroke:none;fill-opacity:1"
   inkscape:connector-curvature="0" />
<path
   d="m 87.72075,185.98175 -3.416,-9.73 h -10.818 l -3.416,9.73 h -5.849 l 11.956,-34.678 h 5.435 l 11.956,34.678 h -5.848 z m -8.747,-25.05 -3.572,9.73 h 6.936 l -3.364,-9.73 z"
   id="path14"
   inkscape:connector-curvature="0"
   style="stroke:none;fill:#000000" />
<path
   d="m 117.89575,185.98175 v -15.113 h -12.629 v 15.113 h -5.486 v -34.678 h 5.486 v 13.975 h 12.629 v -13.975 h 5.486 v 34.678 h -5.486 z"
   id="path16"
   inkscape:connector-curvature="0"
   style="stroke:none;fill:#000000" />
<path
   d="m 132.64675,185.98175 v -34.678 h 20.444 v 5.486 h -14.958 v 8.488 h 10.093 v 5.59 h -10.093 v 9.523 h 16.045 v 5.59 h -21.531 z"
   id="path18"
   inkscape:connector-curvature="0"
   style="stroke:none;fill:#000000" />
<path
   d="m 181.45375,185.98175 -3.416,-9.73 h -10.817 l -3.416,9.73 h -5.849 l 11.956,-34.678 h 5.435 l 11.957,34.678 h -5.85 z m -8.747,-25.05 -3.571,9.73 h 6.936 l -3.365,-9.73 z"
   id="path20"
   inkscape:connector-curvature="0"
   style="stroke:none;fill:#000000" />
<path
   d="m 211.00775,184.01575 c -1.294,1.242 -3.157,1.863 -4.969,1.967 -0.362,0 -1.087,0 -1.967,0 h -10.559 v -34.678 h 11.18 c 3.52,0 4.865,0.362 6.729,1.812 3.623,3.157 5.694,8.644 5.694,15.476 0.001,6.934 -2.174,12.421 -6.108,15.423 z m -2.277,-25.776 c -0.88,-0.828 -2.07,-1.449 -3.52,-1.449 h -6.211 v 23.602 h 5.486 c 1.812,0 2.898,-0.362 3.882,-1.346 2.07,-2.07 3.157,-5.849 3.157,-10.455 10e-4,-4.658 -1.086,-8.54 -2.794,-10.352 z"
   id="path22"
   inkscape:connector-curvature="0"
   style="stroke:none;fill:#000000" />
<path
   d="m 95.53575,122.12475 v 15.113 h -5.486 v -15.113 l -12.164,-19.564 h 6.573 l 8.282,13.405 8.385,-13.405 h 6.47 l -12.06,19.564 z"
   id="path24"
   inkscape:connector-curvature="0"
   style="stroke:none;fill:#000000" />
<path
   d="m 113.54775,137.23775 v -34.678 h 5.59 v 34.678 h -5.59 z"
   id="path26"
   inkscape:connector-curvature="0"
   style="stroke:none;fill:#000000" />
<path
   d="m 127.41875,137.23775 v -34.678 h 20.445 v 5.486 h -14.959 v 8.488 h 10.093 v 5.59 h -10.093 v 9.523 h 16.045 v 5.59 h -21.531 z"
   id="path28"
   inkscape:connector-curvature="0"
   style="stroke:none;fill:#000000" />
<path
   d="m 154.79775,137.23775 v -34.678 h 5.486 v 29.554 h 16.046 v 5.124 h -21.532 z"
   id="path30"
   inkscape:connector-curvature="0"
   style="stroke:none;fill:#000000" />
<path
   d="m 198.94875,135.27075 c -1.294,1.242 -3.157,1.863 -4.969,1.967 -0.362,0 -1.087,0 -1.967,0 h -10.559 v -34.678 h 11.18 c 3.52,0 4.865,0.362 6.729,1.812 3.623,3.157 5.694,8.644 5.694,15.476 0,6.935 -2.175,12.421 -6.108,15.423 z m -2.278,-25.775 c -0.88,-0.828 -2.07,-1.449 -3.52,-1.449 h -6.211 v 23.602 h 5.486 c 1.812,0 2.898,-0.362 3.882,-1.346 2.07,-2.07 3.157,-5.849 3.157,-10.455 0.001,-4.659 -1.086,-8.541 -2.794,-10.352 z"
   id="path32"
   inkscape:connector-curvature="0"
   style="stroke:none;fill:#000000" />
</svg>