<?xml version="1.0" encoding="UTF-8" standalone="no"?>
<!-- Generator: Adobe Illustrator 14.0.0, SVG Export Plug-In  -->

<svg
   xmlns:dc="http://purl.org/dc/elements/1.1/"
   xmlns:cc="http://creativecommons.org/ns#"
   xmlns:rdf="http://www.w3.org/1999/02/22-rdf-syntax-ns#"
   xmlns:svg="http://www.w3.org/2000/svg"
   xmlns="http://www.w3.org/2000/svg"
   xmlns:sodipodi="http://sodipodi.sourceforge.net/DTD/sodipodi-0.dtd"
   xmlns:inkscape="http://www.inkscape.org/namespaces/inkscape"
   version="1.1"
   x="0px"
   y="0px"
   width="81.687485"
   height="101.96873"
   viewBox="0 -0.321 81.687488 101.96875"
   enable-background="new 0 -0.321 144 120"
   xml:space="preserve"
   id="svg2"
   inkscape:version="0.48.2 r9819"
   sodipodi:docname="AJAX1.svg"><metadata
   id="metadata44"><rdf:RDF><cc:Work
       rdf:about=""><dc:format>image/svg+xml</dc:format><dc:type
         rdf:resource="http://purl.org/dc/dcmitype/StillImage" /><dc:title /></cc:Work></rdf:RDF></metadata><sodipodi:namedview
   pagecolor="#ffffff"
   bordercolor="#666666"
   borderopacity="1"
   objecttolerance="10"
   gridtolerance="10"
   guidetolerance="10"
   inkscape:pageopacity="0"
   inkscape:pageshadow="2"
   inkscape:window-width="1280"
   inkscape:window-height="1004"
   id="namedview42"
   showgrid="false"
   fit-margin-top="0"
   fit-margin-left="0"
   fit-margin-right="0"
   fit-margin-bottom="0"
   inkscape:zoom="3.7904688"
   inkscape:cx="17.168362"
   inkscape:cy="66.716682"
   inkscape:window-x="-8"
   inkscape:window-y="-8"
   inkscape:window-maximized="1"
   inkscape:current-layer="svg2" />
<defs
   id="defs4">
</defs>


















<path
   inkscape:connector-curvature="0"
   d="m 5.4111347,0.03349 70.8750073,0 c 2.78875,0 5.06375,2.27375 5.06375,5.0625 l 0,91.12502 c 0,2.78875 -2.275,5.0625 -5.06375,5.0625 l -70.8750073,0 c -2.7875,0 -5.0600002,-2.27375 -5.0600002,-5.0625 l 0,-91.12502 c 0,-2.78875 2.2725002,-5.0625 5.0600002,-5.0625"
   style="fill:#ffffff;fill-opacity:1;fill-rule:nonzero;stroke:#000000;stroke-width:0.70000017;stroke-miterlimit:4;stroke-opacity:1;stroke-dasharray:none"
   id="path4221" /><path
   inkscape:connector-curvature="0"
   d="m 5.4298847,1.43973 27.2837573,0 39.015,0 c 1.98625,0 5.11125,-0.5525 6.81125,0.7825 1.71376,1.3475 1.40375,3.5225 1.40375,5.4475 l 0,32.27251 0,36.23251 0,14.965 0,4.00625 c 0,0.655 0.0512,1.34875 -0.115,1.98625 -0.6975,2.67625 -3.1975,2.745 -5.43875,2.745 l -14.2025,0 -42.17876,0 -11.9124973,0 c -2.26375,0 -4.33875,-1.1975 -4.33875,-3.72875 l 0,-23.59751 0,-36.66375 0,-29.50001 c 0,-0.72 -0.0663,-1.50125 0.11375,-2.2025 0.4175,-1.6075 1.9075,-2.7375 3.55875,-2.745"
   style="fill:#000000;fill-opacity:1;fill-rule:evenodd;stroke:none"
   id="path4229" /><path
   inkscape:connector-curvature="0"
   d="m 5.4561347,3.4081 27.3574973,0 38.99251,0 3.9925,0 c 0.56375,0 1.09375,0.006 1.555,0.3875 1.015,0.83375 0.62,2.86 0.62,3.985 l 0,32.47251 0,36.22251 0,14.83875 0,3.90625 c 0,0.47375 0.0675,1.0375 -0.0737,1.49625 -0.48625,1.56125 -2.46125,1.19125 -3.70375,1.19125 l -14.465,0 -42.18751,0 -11.5587473,0 c -1.2025,0 -2.26,-0.4375 -2.26,-1.8275 l 0,-24.195 0,-36.75126 0,-28.93626 c 0,-1.22125 0.07,-2.8125 1.73125,-2.79"
   style="fill:#ffffff;fill-opacity:1;fill-rule:evenodd;stroke:none"
   id="path4233" /><path
   inkscape:connector-curvature="0"
   d="m 72.067412,13.94586 c 0,0.5675 -0.33125,1.13625 -0.8525,1.42 -0.33125,0.19 -0.56875,0.2375 -1.23,0.2375 l -2.55875,0 0,-3.315 2.55875,0 c 0.71,0 0.89875,0.0475 1.23,0.2375 0.52125,0.28375 0.8525,0.85125 0.8525,1.42 m 2.4125,9.705 -2.36625,-6.29625 c 1.23125,-0.56875 2.0825,-1.98875 2.0825,-3.40875 0,-1.3725 -0.85125,-2.79375 -2.03375,-3.36125 -0.66375,-0.33125 -1.37375,-0.42625 -2.41375,-0.42625 l -4.45125,0 0,13.4925 2.12875,0 0,-5.87 2.55875,0 2.1775,5.87 2.3175,0 z m -11.40875,0 0,-2.17875 -6.2475,0 0,-3.69125 3.9275,0 0,-2.1775 -3.9275,0 0,-3.315 5.8225,0 0,-2.13 -7.95125,0 0,13.4925 8.37625,0 z m -10.36625,-13.4925 -2.1775,0 -1.04,7.10125 -1.75375,-7.10125 -2.0825,0 -1.70375,7.10125 -1.0425,-7.10125 -2.1775,0 1.99,13.4925 1.89375,0 2.0825,-8.66375 2.12875,8.66375 1.895,0 1.9875,-13.4925 z m -15.8575,6.77 c 0,1.04125 -0.2375,2.3675 -0.5225,3.0775 -0.4725,1.1825 -1.0875,1.70375 -2.0825,1.70375 -0.85125,0 -1.42125,-0.33125 -1.84626,-1.0425 -0.52125,-0.85125 -0.805,-2.31875 -0.805,-3.73875 0,-1.13625 0.19,-2.36625 0.52125,-3.1725 0.47375,-1.1825 1.13626,-1.70375 2.17751,-1.65625 0.805,0.0475 1.32625,0.33125 1.75125,1.04125 0.52,0.9 0.80625,2.2725 0.80625,3.7875 m 2.12875,0 c 0,-1.705 -0.3325,-3.40875 -0.89875,-4.5925 -0.85125,-1.6575 -2.03625,-2.41375 -3.74,-2.41375 -1.5625,0 -2.65126,0.47375 -3.45626,1.515 -0.89875,1.2775 -1.46625,3.26625 -1.46625,5.49125 0,1.60875 0.37875,3.40875 0.945,4.54375 0.80625,1.6575 1.99,2.4225 3.88251,2.4225 1.42125,0 2.51,-0.48 3.26625,-1.52125 0.9475,-1.185 1.4675,-3.315 1.4675,-5.445 m -11.26626,6.7225 0,-1.98875 -6.24875,0 0,-11.50375 -2.13125,0 0,13.4925 8.38,0 z m -10.60375,-3.8825 c 0,-5.30125 -6.3425,-3.645 -6.53375,-6.15375 -0.095,-1.23125 1.08875,-1.61 2.08375,-1.5625 1.515,0.0475 1.9875,1.18375 1.9875,1.18375 l 1.895,-0.56875 c -0.66375,-1.65625 -1.9425,-2.745 -3.835,-2.745 -2.41375,0 -4.2137473,0.99375 -4.2137473,3.645 0,2.225 1.7999973,3.03 2.6049973,3.36125 1.75125,0.71 3.83375,0.99375 3.83375,2.7925 0,1.13625 -0.8525,1.98875 -2.0825,1.98875 -1.27875,0 -2.32,-0.71 -2.8887473,-1.98875 l -2.035,0.7575 c 0.89875,2.03625 2.6037473,3.41625 4.9237473,3.41625 1.135,0 2.1775,-0.38625 2.93375,-1.04875 0.8525,-0.7575 1.32625,-1.84625 1.32625,-3.0775"
   style="fill:#000000;fill-opacity:1;fill-rule:evenodd;stroke:none"
   id="path4237" /><path
   inkscape:connector-curvature="0"
   d="m 74.652402,43.40512 -2.035,-0.7575 c -0.52,1.08875 -1.1825,1.56125 -2.0825,1.56125 -0.9475,0 -1.5625,-0.33 -2.03625,-1.04125 -0.52,-0.85125 -0.8525,-2.31876 -0.8525,-3.78751 0,-1.135 0.19,-2.31875 0.5225,-3.12375 0.47125,-1.1825 1.18375,-1.65625 2.27,-1.65625 1.0425,0 1.4675,0.28375 2.2275,1.42 l 1.98625,-0.8525 c -0.9,-1.89375 -2.1775,-2.74625 -4.21375,-2.74625 -1.51375,0 -2.64875,0.52125 -3.45625,1.515 -0.945,1.18375 -1.51375,3.31375 -1.51375,5.44375 0,1.705 0.37875,3.40876 0.99375,4.59251 0.85125,1.6575 2.13125,2.4225 4.12125,2.4225 1.9375,0 3.26375,-1.00125 4.06875,-2.99 m -11.835,-10.74751 -2.1775,0 0,13.49251 2.1775,0 0,-13.49251 z m -3.93125,2.13 0,-2.13 -8.38125,0 0,13.49251 2.13125,0 0,-5.87001 3.93125,0 0,-2.1775 -3.93125,0 0,-3.315 6.25,0 z m -10.13375,0 0,-2.13 -8.37875,0 0,13.49251 2.13125,0 0,-5.87001 3.93,0 0,-2.1775 -3.93,0 0,-3.315 6.2475,0 z m -14.535,5.3975 -2.69751,0 1.37251,-3.7875 1.325,3.7875 z m 4.35625,5.96501 -4.63875,-13.49251 -2.13001,0 -4.64,13.49251 2.2725,0 1.32625,-3.78625 4.21126,0 1.32625,3.78625 2.2725,0 z m -14.62876,-9.70376 c 0,0.5675 -0.33125,1.13625 -0.8525,1.41875 -0.3325,0.19 -0.56875,0.2375 -1.23,0.2375 l -2.5575,0 0,-3.315 2.5575,0 c 0.71,0 0.8975,0.0487 1.23,0.2375 0.52125,0.28375 0.8525,0.8525 0.8525,1.42125 m 2.41375,9.70376 -2.3675,-6.29626 c 1.23,-0.5675 2.08375,-1.98875 2.08375,-3.4075 0,-1.3725 -0.85375,-2.79375 -2.03625,-3.36125 -0.6625,-0.33125 -1.3725,-0.4275 -2.41375,-0.4275 l -4.44875,0 0,13.49251 2.12875,0 0,-5.87001 2.5575,0 2.17625,5.87001 2.32,0 z m -10.9375,-11.59751 0,-1.895 -8.3312473,0 0,1.895 3.0774973,0 0,11.59751 2.13,0 0,-11.59751 3.12375,0 z"
   style="fill:#000000;fill-opacity:1;fill-rule:evenodd;stroke:none"
   id="path4241" /><path
   inkscape:connector-curvature="0"
   d="m 60.704912,58.94524 c 0,0.56875 -0.33125,1.18375 -0.8025,1.42 -0.37875,0.19125 -0.615,0.2375 -1.28,0.2375 l -2.7925,0 0,-3.315 2.7925,0 c 0.665,0 0.90125,0.0475 1.28,0.2375 0.47125,0.28375 0.8025,0.85125 0.8025,1.42 m 2.1775,0 c 0,-1.3725 -0.8975,-2.7925 -2.0825,-3.36125 -0.66125,-0.33125 -1.37125,-0.42625 -2.46,-0.42625 l -4.63875,0 0,13.4925 2.12875,0 0,-5.87 2.51,0 c 1.04,0 1.845,-0.19 2.46,-0.47375 1.185,-0.52 2.0825,-1.94125 2.0825,-3.36125 m -11.47625,9.705 0,-2.1775 -6.2475,0 0,-3.6925 3.93,0 0,-2.1775 -3.93,0 0,-3.315 5.8225,0 0,-2.13 -7.95125,0 0,13.4925 8.37625,0 z m -10.66875,0 0,-2.1775 -6.25125,0 0,-3.6925 3.93125,0 0,-2.1775 -3.93125,0 0,-3.315 5.82375,0 0,-2.13 -7.95376,0 0,13.4925 8.38126,0 z m -10.72126,0 -4.45,-8.2375 4.16625,-5.255 -2.74625,0 -4.26,5.34875 0,-5.34875 -2.12875,0 0,13.4925 2.12875,0 0,-4.63875 1.42125,-1.7525 3.4075,6.39125 2.46125,0 z"
   style="fill:#000000;fill-opacity:1;fill-rule:evenodd;stroke:none"
   id="path4245" /><path
   inkscape:connector-curvature="0"
   d="m 66.476162,79.55199 0,-1.89375 -8.33,0 0,1.89375 3.07875,0 0,11.59876 2.12875,0 0,-11.59876 3.1225,0 z m -10.725,11.59876 0,-13.49251 -2.12875,0 0,5.445 -4.92375,0 0,-5.445 -2.12875,0 0,13.49251 2.12875,0 0,-5.87001 4.92375,0 0,5.87001 2.12875,0 z m -12.52375,-4.02376 0,-2.69875 -4.5925,0 0,2.13 2.46125,0 0,0.56875 c 0,1.23 -0.99375,2.0825 -2.3675,2.0825 -0.805,0 -1.42,-0.33125 -1.84625,-1.08875 -0.42625,-0.85125 -0.6625,-2.2725 -0.6625,-3.6925 0,-1.13625 0.18875,-2.36625 0.52,-3.1725 0.47375,-1.1825 1.18375,-1.65625 2.2725,-1.65625 1.04125,0 1.61,0.42625 2.17875,1.61 l 2.03625,-0.80625 c -0.90125,-2.13 -2.13125,-2.98125 -4.215,-2.98125 -1.515,0 -2.65125,0.52 -3.45625,1.515 -0.89875,1.18375 -1.51375,3.31375 -1.51375,5.49125 0,1.65625 0.33125,3.31375 0.8975,4.4975 0.80625,1.70376 1.99,2.47001 4.02625,2.47001 2.46125,0 4.26125,-1.8075 4.26125,-4.26876 m -12.47876,-9.46875 -2.1775,0 0,13.49251 2.1775,0 0,-13.49251 z m -7.225,3.7875 c 0,0.56875 -0.33125,1.13625 -0.85125,1.42 -0.3325,0.19 -0.56875,0.2375 -1.2325,0.2375 l -2.555,0 0,-3.315 2.555,0 c 0.71125,0 0.9,0.0475 1.2325,0.2375 0.52,0.28375 0.85125,0.85125 0.85125,1.42 m 2.41375,9.70501 -2.36625,-6.29626 c 1.23,-0.5675 2.08375,-1.98875 2.08375,-3.40875 0,-1.3725 -0.85375,-2.79375 -2.0375,-3.36125 -0.66125,-0.33125 -1.3725,-0.42625 -2.41375,-0.42625 l -4.44875,0 0,13.49251 2.13,0 0,-5.87001 2.555,0 2.1775,5.87001 2.32,0 z"
   style="fill:#000000;fill-opacity:1;fill-rule:evenodd;stroke:none"
   id="path4249" /></svg>