<?xml version="1.0" encoding="UTF-8" standalone="no"?>
<!-- Created with Inkscape (http://www.inkscape.org/) -->

<svg
   xmlns:dc="http://purl.org/dc/elements/1.1/"
   xmlns:cc="http://creativecommons.org/ns#"
   xmlns:rdf="http://www.w3.org/1999/02/22-rdf-syntax-ns#"
   xmlns:svg="http://www.w3.org/2000/svg"
   xmlns="http://www.w3.org/2000/svg"
   xmlns:sodipodi="http://sodipodi.sourceforge.net/DTD/sodipodi-0.dtd"
   xmlns:inkscape="http://www.inkscape.org/namespaces/inkscape"
   width="304.59375"
   height="190.90625"
   id="svg4779"
   version="1.1"
   inkscape:version="0.48.2 r9819"
   sodipodi:docname="AJAX1.svg">
  <defs
     id="defs4781" />
  <sodipodi:namedview
     id="base"
     pagecolor="#ffffff"
     bordercolor="#666666"
     borderopacity="1.0"
     inkscape:pageopacity="0.0"
     inkscape:pageshadow="2"
     inkscape:zoom="0.9899495"
     inkscape:cx="142.59594"
     inkscape:cy="-18.973956"
     inkscape:document-units="px"
     inkscape:current-layer="layer1"
     showgrid="false"
     inkscape:window-width="1280"
     inkscape:window-height="1004"
     inkscape:window-x="-8"
     inkscape:window-y="-8"
     inkscape:window-maximized="1"
     fit-margin-top="0"
     fit-margin-left="0"
     fit-margin-right="0"
     fit-margin-bottom="0" />
  <metadata
     id="metadata4784">
    <rdf:RDF>
      <cc:Work
         rdf:about="">
        <dc:format>image/svg+xml</dc:format>
        <dc:type
           rdf:resource="http://purl.org/dc/dcmitype/StillImage" />
        <dc:title></dc:title>
      </cc:Work>
    </rdf:RDF>
  </metadata>
  <g
     inkscape:label="Layer 1"
     inkscape:groupmode="layer"
     id="layer1"
     transform="translate(-530.71875,544.5625)">
    <path
       inkscape:connector-curvature="0"
       d="m 834.55814,-373.33687 c 0,10.41875 -8.52375,18.9425 -18.9425,18.9425 l -265.195,0 c -10.41875,0 -18.9425,-8.52375 -18.9425,-18.9425 l 0,-151.54 c 0,-10.41875 8.52375,-18.9425 18.9425,-18.9425 l 265.195,0 c 10.41875,0 18.9425,8.52375 18.9425,18.9425 l 0,151.54 z"
       style="fill:#ffffff;fill-opacity:1;fill-rule:nonzero;stroke:#000000;stroke-width:1.5;stroke-miterlimit:4;stroke-opacity:1;stroke-dasharray:none"
       id="path4261" />
    <path
       inkscape:connector-curvature="0"
       d="m 815.61551,-539.08362 -265.195,0 c -7.81375,0 -14.2075,6.3925 -14.2075,14.20625 l 0,151.54 c 0,7.81375 6.39375,14.2075 14.2075,14.2075 l 265.195,0 c 7.81375,0 14.2075,-6.39375 14.2075,-14.2075 l 0,-151.54 c 0,-7.81375 -6.39375,-14.20625 -14.2075,-14.20625 m 6.31375,165.74625 c 0,3.47375 -2.84125,6.315 -6.31375,6.315 l -265.195,0 c -3.4725,0 -6.31375,-2.84125 -6.31375,-6.315 l 0,-151.54 c 0,-3.4725 2.84125,-6.31375 6.31375,-6.31375 l 265.195,0 c 3.4725,0 6.31375,2.84125 6.31375,6.31375 l 0,151.54 z"
       style="fill:#000000;fill-opacity:1;fill-rule:nonzero;stroke:none"
       id="path4269" />
    <path
       inkscape:connector-curvature="0"
       d="m 735.11625,-363.91125 -7.50125,0 0,-78.88125 7.50125,0 0,78.88125 z"
       style="fill:#000000;fill-opacity:1;fill-rule:nonzero;stroke:none"
       id="path4271" />
    <path
       inkscape:connector-curvature="0"
       d="m 638.42125,-363.91125 -7.50125,0 0,-78.88125 7.50125,0 0,78.88125 z"
       style="fill:#000000;fill-opacity:1;fill-rule:nonzero;stroke:none"
       id="path4273" />
    <path
       inkscape:connector-curvature="0"
       d="m 621.83787,-428.10711 c -0.13,-18.99625 -12.13625,-35.17125 -28.96625,-41.46875 0,0 -8.29125,-2.75625 -11.1375,-3.30125 l 5.3225,-8.14625 c 0.1725,-0.25875 0.31,-0.5475 0.4025,-0.86125 0.49375,-1.67125 -0.46125,-3.4275 -2.1325,-3.92125 -0.64625,-0.19125 -1.30375,-0.16625 -1.89625,0.0325 l -34.58875,11.41 22.83625,28.37375 c 0.39,0.48875 0.9275,0.8675 1.5725,1.0575 1.6725,0.49375 3.42875,-0.46125 3.9225,-2.13375 0.0925,-0.3125 0.135,-0.63 0.13,-0.94 l -0.0412,-9.7325 c 4.96875,0.92625 10.37375,3.065 10.37375,3.065 10.72625,4.14875 18.34875,14.5325 18.41875,26.7075 l 0,0 0,20.69 15.78625,0 0,-20.83125 -0.002,0 z"
       style="fill:#000000;fill-opacity:1;fill-rule:nonzero;stroke:none"
       id="path4277" />
    <path
       inkscape:connector-curvature="0"
       d="m 744.19812,-428.10711 c 0.13,-18.99625 12.13625,-35.17125 28.96625,-41.46875 0,0 8.29125,-2.75625 11.1375,-3.30125 l -5.3225,-8.14625 c -0.1725,-0.25875 -0.31,-0.5475 -0.4025,-0.86125 -0.49375,-1.67125 0.46125,-3.4275 2.1325,-3.92125 0.64625,-0.19125 1.30375,-0.16625 1.89625,0.0325 l 34.58875,11.41 -22.83625,28.37375 c -0.39,0.48875 -0.9275,0.8675 -1.5725,1.0575 -1.6725,0.49375 -3.42875,-0.46125 -3.9225,-2.13375 -0.0925,-0.3125 -0.135,-0.63 -0.13,-0.94 l 0.0413,-9.7325 c -4.96875,0.92625 -10.37375,3.065 -10.37375,3.065 -10.72625,4.14875 -18.34875,14.5325 -18.41875,26.7075 l 0,0 0,20.69 -15.78625,0 0,-20.83125 0.002,0 z"
       style="fill:#000000;fill-opacity:1;fill-rule:nonzero;stroke:none"
       id="path4281" />
    <path
       inkscape:connector-curvature="0"
       d="m 714.42113,-496.5165 -20.74125,-29.93875 -20.7425,29.93875 c -0.35875,0.5125 -0.56875,1.13625 -0.56875,1.80875 0,1.74375 1.41375,3.15625 3.1575,3.15625 0.32625,0 0.6425,-0.0487 0.93875,-0.14125 l 9.32125,-2.7975 0,40.3725 c -8.475,-12.75 -19.9575,-23.32875 -33.435,-30.72375 l 7.48125,-5.97375 c 0.245,-0.19125 0.465,-0.4225 0.65125,-0.69125 0.99375,-1.43375 0.63625,-3.4 -0.79625,-4.39375 -0.55375,-0.3825 -1.18625,-0.565 -1.81125,-0.56125 l -36.42125,-10e-4 12.7975,34.09875 c 0.21625,0.58625 0.60875,1.115 1.1625,1.4975 1.4325,0.99375 3.4,0.63625 4.3925,-0.79625 0.18625,-0.26875 0.325,-0.55625 0.41875,-0.8525 l 3.03,-9.28625 c 25.27125,13.15875 42.5275,39.58875 42.5275,70.05125 l 0.002,-0.01 0,22.5075 15.78625,0 0,-115.2375 9.32125,2.7975 c 0.2975,0.0925 0.6125,0.14125 0.93875,0.14125 1.74375,0 3.1575,-1.4125 3.1575,-3.15625 0,-0.6725 -0.21,-1.29625 -0.56875,-1.80875"
       style="fill:#000000;fill-opacity:1;fill-rule:nonzero;stroke:none"
       id="path4285" />
    <path
       inkscape:connector-curvature="0"
       d="m 563.72712,-375.73237 c -1.46,1.90875 -3.4425,2.84375 -6.1,2.84375 -3.55375,0 -5.725,-1.42125 -7.25875,-4.5275 -1.0475,-2.13375 -1.79625,-5.50125 -1.79625,-8.495 0,-4.19 1.0475,-7.9325 2.76875,-10.29 1.46,-1.98375 3.555,-2.84375 6.47375,-2.84375 6.9975,0 8.68125,7.48375 8.68125,13.13375 0,3.9675 -1.01,7.93375 -2.76875,10.17875 m -5.9125,-19.23375 c -2.245,0 -3.2925,0.8975 -4.19125,3.10625 -0.59875,1.49625 -0.9725,3.81625 -0.9725,5.94875 0,2.6575 0.56125,5.38875 1.53375,6.9975 0.78625,1.31 1.83375,1.94625 3.4425,1.94625 1.87125,0 3.03125,-0.9725 3.8925,-3.18 0.52375,-1.3475 0.9725,-3.8175 0.9725,-5.76375 0,-2.91875 -0.63625,-9.055 -4.6775,-9.055"
       style="fill:#000000;fill-opacity:1;fill-rule:nonzero;stroke:none"
       id="path4289" />
    <path
       inkscape:connector-curvature="0"
       d="m 583.74664,-373.3375 -9.65375,-17.10125 0,17.10125 -4.005,0 0,-25.25875 4.005,0 9.205,16.12875 0,-16.12875 3.96625,0 0,25.25875 -3.5175,0 z"
       style="fill:#000000;fill-opacity:1;fill-rule:nonzero;stroke:none"
       id="path4293" />
    <path
       inkscape:connector-curvature="0"
       d="m 592.12837,-373.3375 0,-25.25875 4.00375,0 0,21.55375 11.675,0 0,3.705 -15.67875,0 z"
       style="fill:#000000;fill-opacity:1;fill-rule:nonzero;stroke:none"
       id="path4297" />
    <path
       inkscape:connector-curvature="0"
       d="m 617.57362,-384.339 0,11.00125 -4.00375,0 0,-11.00125 -8.86875,-14.2575 4.79,0 6.025,9.73 6.13625,-9.73 4.6775,0 -8.75625,14.2575 z"
       style="fill:#000000;fill-opacity:1;fill-rule:nonzero;stroke:none"
       id="path4301" />
    <path
       inkscape:connector-curvature="0"
       d="m 754.8745,-375.73237 c -1.45875,1.90875 -3.4425,2.84375 -6.1,2.84375 -3.55375,0 -5.725,-1.42125 -7.25875,-4.5275 -1.0475,-2.13375 -1.79625,-5.50125 -1.79625,-8.495 0,-4.19 1.0475,-7.9325 2.76875,-10.29 1.46,-1.98375 3.555,-2.84375 6.47375,-2.84375 6.9975,0 8.68125,7.48375 8.68125,13.13375 0,3.9675 -1.01,7.93375 -2.76875,10.17875 m -5.9125,-19.23375 c -2.245,0 -3.2925,0.8975 -4.19125,3.10625 -0.59875,1.49625 -0.9725,3.81625 -0.9725,5.94875 0,2.6575 0.56125,5.38875 1.53375,6.9975 0.78625,1.31 1.83375,1.94625 3.4425,1.94625 1.87125,0 3.03125,-0.9725 3.8925,-3.18 0.52375,-1.3475 0.9725,-3.8175 0.9725,-5.76375 0,-2.91875 -0.63625,-9.055 -4.6775,-9.055"
       style="fill:#000000;fill-opacity:1;fill-rule:nonzero;stroke:none"
       id="path4305" />
    <path
       inkscape:connector-curvature="0"
       d="m 774.894,-373.3375 -9.65375,-17.10125 0,17.10125 -4.005,0 0,-25.25875 4.005,0 9.205,16.12875 0,-16.12875 3.96625,0 0,25.25875 -3.5175,0 z"
       style="fill:#000000;fill-opacity:1;fill-rule:nonzero;stroke:none"
       id="path4309" />
    <path
       inkscape:connector-curvature="0"
       d="m 783.27575,-373.3375 0,-25.25875 4.00375,0 0,21.55375 11.675,0 0,3.705 -15.67875,0 z"
       style="fill:#000000;fill-opacity:1;fill-rule:nonzero;stroke:none"
       id="path4313" />
    <path
       inkscape:connector-curvature="0"
       d="m 808.721,-384.339 0,11.00125 -4.00375,0 0,-11.00125 -8.86875,-14.2575 4.79,0 6.025,9.73 6.13625,-9.73 4.6775,0 -8.75625,14.2575 z"
       style="fill:#000000;fill-opacity:1;fill-rule:nonzero;stroke:none"
       id="path4317" />
  </g>
</svg>
