<?xml version="1.0" encoding="UTF-8" standalone="no"?>
<!-- Created with Inkscape (http://www.inkscape.org/) -->

<svg
   xmlns:dc="http://purl.org/dc/elements/1.1/"
   xmlns:cc="http://creativecommons.org/ns#"
   xmlns:rdf="http://www.w3.org/1999/02/22-rdf-syntax-ns#"
   xmlns:svg="http://www.w3.org/2000/svg"
   xmlns="http://www.w3.org/2000/svg"
   xmlns:sodipodi="http://sodipodi.sourceforge.net/DTD/sodipodi-0.dtd"
   xmlns:inkscape="http://www.inkscape.org/namespaces/inkscape"
   width="187.9375"
   height="281.1875"
   id="svg4779"
   version="1.1"
   inkscape:version="0.48.2 r9819"
   sodipodi:docname="MUTCD R3-9a.svg">
  <defs
     id="defs4781" />
  <sodipodi:namedview
     id="base"
     pagecolor="#ffffff"
     bordercolor="#666666"
     borderopacity="1.0"
     inkscape:pageopacity="0.0"
     inkscape:pageshadow="2"
     inkscape:zoom="0.9899495"
     inkscape:cx="175.48796"
     inkscape:cy="87.845509"
     inkscape:document-units="px"
     inkscape:current-layer="layer1"
     showgrid="false"
     inkscape:window-width="1280"
     inkscape:window-height="1004"
     inkscape:window-x="-8"
     inkscape:window-y="-8"
     inkscape:window-maximized="1"
     fit-margin-top="0"
     fit-margin-left="0"
     fit-margin-right="0"
     fit-margin-bottom="0" />
  <metadata
     id="metadata4784">
    <rdf:RDF>
      <cc:Work
         rdf:about="">
        <dc:format>image/svg+xml</dc:format>
        <dc:type
           rdf:resource="http://purl.org/dc/dcmitype/StillImage" />
        <dc:title></dc:title>
      </cc:Work>
    </rdf:RDF>
  </metadata>
  <g
     inkscape:label="Layer 1"
     inkscape:groupmode="layer"
     id="layer1"
     transform="translate(-763.90625,1174.6563)">
    <path
       inkscape:connector-curvature="0"
       d="m 951.09637,-905.8845 c 0,6.40875 -5.24375,11.6525 -11.65375,11.6525 l -163.1425,0 c -6.40875,0 -11.65375,-5.24375 -11.65375,-11.6525 l 0,-256.3675 c 0,-6.41 5.245,-11.6537 11.65375,-11.6537 l 163.1425,0 c 6.41,0 11.65375,5.2437 11.65375,11.6537 l 0,256.3675 z"
       style="fill:#ffffff;fill-opacity:1;fill-rule:nonzero;stroke:#000000;stroke-width:1.5;stroke-miterlimit:4;stroke-opacity:1;stroke-dasharray:none"
       id="path3826" />
    <path
       inkscape:connector-curvature="0"
       d="m 939.44324,-1170.9924 -163.14375,0 c -4.80625,0 -8.73875,3.9325 -8.73875,8.74 l 0,256.36751 c 0,4.8075 3.9325,8.74 8.73875,8.74 l 163.14375,0 c 4.8075,0 8.74,-3.9325 8.74,-8.74 l 0,-256.36751 c 0,-4.8075 -3.9325,-8.74 -8.74,-8.74 m 3.885,265.10751 c 0,2.13625 -1.74875,3.885 -3.885,3.885 l -163.14375,0 c -2.13625,0 -3.88375,-1.74875 -3.88375,-3.885 l 0,-256.36751 c 0,-2.1362 1.7475,-3.885 3.88375,-3.885 l 163.14375,0 c 2.13625,0 3.885,1.7488 3.885,3.885 l 0,256.36751 z"
       style="fill:#000000;fill-opacity:1;fill-rule:nonzero;stroke:none"
       id="path3834" />
    <path
       inkscape:connector-curvature="0"
       d="m 904.7525,-1033.2466 c -0.36625,-0.495 -0.8825,-0.885 -1.51125,-1.095 -1.6275,-0.5438 -3.3875,0.335 -3.93125,1.9625 -0.1025,0.3062 -0.15375,0.6162 -0.16,0.9212 l -0.295,9.575 -13.18875,-4.4237 C 874.02,-1030.2604 865.64,-1041.2854 865.64,-1054.2679 l 0,-18.6437 -15.5375,0 0,18.8487 0.002,0 c 0.0888,19.8138 12.9625,36.6075 30.79875,42.5525 l 13.02875,4.365 -5.5175,7.83002 c -0.17875,0.24875 -0.32375,0.5275 -0.425,0.8325 -0.54375,1.6275 0.335,3.38875 1.9625,3.9325 0.62875,0.20875 1.27625,0.2075 1.86625,0.0325 l 34.4175,-10.03002 -21.48375,-28.6987 z"
       style="fill:#000000;fill-opacity:1;fill-rule:nonzero;stroke:none"
       id="path3838" />
    <path
       inkscape:connector-curvature="0"
       d="m 810.991,-988.27812 c 0.36625,0.495 0.8825,0.885 1.51125,1.095 1.6275,0.54375 3.3875,-0.335 3.93125,-1.9625 0.1025,-0.30625 0.15375,-0.61625 0.16,-0.92125 l 0.295,-9.575 13.18875,4.42375 c 11.64625,3.95375 20.02625,14.97875 20.02625,27.96125 l 0,18.64375 15.5375,0 0,-18.84875 -0.002,0 c -0.0888,-19.81375 -12.9625,-36.60753 -30.79875,-42.55253 l -13.02875,-4.365 5.5175,-7.83 c 0.17875,-0.2487 0.32375,-0.5275 0.425,-0.8325 0.54375,-1.6275 -0.335,-3.3887 -1.9625,-3.9325 -0.6275,-0.2087 -1.27625,-0.2075 -1.86625,-0.033 l -34.4175,10.03 21.48375,28.69878 z"
       style="fill:#000000;fill-opacity:1;fill-rule:nonzero;stroke:none"
       id="path3842" />
    <path
       inkscape:connector-curvature="0"
       d="m 920.02125,-1082.1375 -124.3,0 0,-4.855 124.3,0 0,4.855 z"
       style="fill:#000000;fill-opacity:1;fill-rule:nonzero;stroke:none"
       id="path3844" />
    <path
       inkscape:connector-curvature="0"
       d="m 802.07587,-1130.7633 c -6.14625,0 -9.91,-4.8337 -9.91,-12.1187 0,-7.355 3.76375,-12.0163 9.91,-12.0163 3.76375,0 7.18125,1.8988 9.01125,5.145 l -3.69375,1.9675 c -1.20875,-1.795 -3.00375,-2.935 -5.3175,-2.935 -4.2475,0 -5.6275,4.1788 -5.6275,7.7688 0,5.0762 2.10625,8.0112 5.6275,8.0112 2.14125,0 3.28,-0.725 5.3175,-2.935 l 3.69375,1.9675 c -1.72625,3.2463 -5.2475,5.145 -9.01125,5.145"
       style="fill:#000000;fill-opacity:1;fill-rule:nonzero;stroke:none"
       id="path3848" />
    <path
       inkscape:connector-curvature="0"
       d="m 816.43912,-1131.1776 0,-23.3063 16.9875,0 0,4.1775 -12.74125,0 0,4.3163 6.94125,0 0,4.2812 -6.94125,0 0,6.3538 13.15625,0 0,4.1775 -17.4025,0 z"
       style="fill:#000000;fill-opacity:1;fill-rule:nonzero;stroke:none"
       id="path3852" />
    <path
       inkscape:connector-curvature="0"
       d="m 853.69412,-1131.1776 -11.1175,-16.0213 0,16.0213 -4.075,0 0,-23.3063 4.075,0 10.70375,15.365 0,-15.365 4.005,0 0,23.3063 -3.59125,0 z"
       style="fill:#000000;fill-opacity:1;fill-rule:nonzero;stroke:none"
       id="path3856" />
    <path
       inkscape:connector-curvature="0"
       d="m 872.06251,-1150.4095 0,19.2312 -4.10875,0 0,-19.2312 -6.69875,0 0,-4.0738 17.50625,0 0,4.0738 -6.69875,0 z"
       style="fill:#000000;fill-opacity:1;fill-rule:nonzero;stroke:none"
       id="path3860" />
    <path
       inkscape:connector-curvature="0"
       d="m 882.73113,-1131.1776 0,-23.3063 16.9875,0 0,4.1775 -12.74,0 0,4.3163 6.94,0 0,4.2812 -6.94,0 0,6.3538 13.155,0 0,4.1775 -17.4025,0 z"
       style="fill:#000000;fill-opacity:1;fill-rule:nonzero;stroke:none"
       id="path3864" />
    <path
       inkscape:connector-curvature="0"
       d="m 918.91588,-1131.1776 -3.72875,-9.15 -6.215,0 0,9.15 -4.1775,0 0,-23.3063 11.04875,0 c 3.93625,0 7.25,3.0388 7.25,7.1125 0,2.625 -1.38125,4.9038 -3.76375,6.215 l 4.2475,9.9788 -4.66125,0 z m -3.34875,-19.1288 -6.595,0 0,5.8013 6.595,0 c 2.07125,0 3.34875,-1.14 3.34875,-2.8663 0,-1.795 -1.2775,-2.935 -3.34875,-2.935"
       style="fill:#000000;fill-opacity:1;fill-rule:nonzero;stroke:none"
       id="path3868" />
    <path
       inkscape:connector-curvature="0"
       d="m 813.22788,-1096.2182 0,-23.3063 4.1775,0 0,19.715 13.225,0 0,3.5913 -17.4025,0 z"
       style="fill:#000000;fill-opacity:1;fill-rule:nonzero;stroke:none"
       id="path3872" />
    <path
       inkscape:connector-curvature="0"
       d="m 851.795,-1096.2182 -2.27875,-5.4901 -10.15125,0 -2.27875,5.4901 -4.5925,0 9.80625,-23.3063 4.24625,0 9.7375,23.3063 -4.48875,0 z m -7.355,-17.5051 -3.28,7.8713 6.56125,0 -3.28125,-7.8713 z"
       style="fill:#000000;fill-opacity:1;fill-rule:nonzero;stroke:none"
       id="path3876" />
    <path
       inkscape:connector-curvature="0"
       d="m 875.44612,-1096.2182 -11.1175,-16.0213 0,16.0213 -4.075,0 0,-23.3063 4.075,0 10.70375,15.365 0,-15.365 4.005,0 0,23.3063 -3.59125,0 z"
       style="fill:#000000;fill-opacity:1;fill-rule:nonzero;stroke:none"
       id="path3880" />
    <path
       inkscape:connector-curvature="0"
       d="m 885.11338,-1096.2182 0,-23.3063 16.9875,0 0,4.1775 -12.74,0 0,4.3163 6.94,0 0,4.2812 -6.94,0 0,6.3537 13.155,0 0,4.1776 -17.4025,0 z"
       style="fill:#000000;fill-opacity:1;fill-rule:nonzero;stroke:none"
       id="path3884" />
    <path
       inkscape:connector-curvature="0"
       d="m 821.75075,-913.23888 c -6.87,0 -9.90875,-6.215 -9.90875,-12.11875 0,-7.4225 3.76375,-12.01375 9.90875,-12.01375 5.73125,0 9.6675,4.8325 9.6675,11.945 0,7.285 -3.76375,12.1875 -9.6675,12.1875 m 0,-19.955 c -3.52125,0 -5.6275,2.93375 -5.6275,7.83625 0,5.00625 2.10625,7.94125 5.6275,7.94125 4.41875,0 5.49,-4.31625 5.49,-7.94125 0,-4.9025 -1.96875,-7.83625 -5.49,-7.83625"
       style="fill:#000000;fill-opacity:1;fill-rule:nonzero;stroke:none"
       id="path3888" />
    <path
       inkscape:connector-curvature="0"
       d="m 852.78875,-913.65314 -11.1175,-16.02 0,16.02 -4.07375,0 0,-23.305 4.07375,0 10.70375,15.36375 0,-15.36375 4.00375,0 0,23.305 -3.59,0 z"
       style="fill:#000000;fill-opacity:1;fill-rule:nonzero;stroke:none"
       id="path3892" />
    <path
       inkscape:connector-curvature="0"
       d="m 863.28424,-913.65314 0,-23.305 4.1775,0 0,19.715 13.22375,0 0,3.59 -17.40125,0 z"
       style="fill:#000000;fill-opacity:1;fill-rule:nonzero;stroke:none"
       id="path3896" />
    <path
       inkscape:connector-curvature="0"
       d="m 894.09637,-923.14763 0,9.495 -4.1775,0 0,-9.495 -9.805,-13.81 5.14375,0 6.80125,9.495 6.69875,-9.495 5.14375,0 -9.805,13.81 z"
       style="fill:#000000;fill-opacity:1;fill-rule:nonzero;stroke:none"
       id="path3900" />
  </g>
</svg>
