<?xml version="1.0" encoding="UTF-8" standalone="no"?>
<svg
   width="74.429893"
   height="74.431252"
   viewBox="0 0 210.05775 210.06152"
   version="1.1"
   id="svg2"
   inkscape:version="1.2.1 (9c6d41e410, 2022-07-14)"
   sodipodi:docname="MUTCD_W8-5.svg"
   xmlns:inkscape="http://www.inkscape.org/namespaces/inkscape"
   xmlns:sodipodi="http://sodipodi.sourceforge.net/DTD/sodipodi-0.dtd"
   xmlns="http://www.w3.org/2000/svg"
   xmlns:svg="http://www.w3.org/2000/svg"
   xmlns:rdf="http://www.w3.org/1999/02/22-rdf-syntax-ns#"
   xmlns:cc="http://creativecommons.org/ns#"
   xmlns:dc="http://purl.org/dc/elements/1.1/">
  <metadata
     id="metadata62">
    <rdf:RDF>
      <cc:Work
         rdf:about="">
        <dc:format>image/svg+xml</dc:format>
        <dc:type
           rdf:resource="http://purl.org/dc/dcmitype/StillImage" />
        <dc:title />
      </cc:Work>
    </rdf:RDF>
  </metadata>
  <defs
     id="defs60" />
  <sodipodi:namedview
     pagecolor="#ffffff"
     bordercolor="#666666"
     borderopacity="1"
     objecttolerance="10"
     gridtolerance="10"
     guidetolerance="10"
     inkscape:pageopacity="0"
     inkscape:pageshadow="2"
     inkscape:window-width="2048"
     inkscape:window-height="1089"
     id="namedview58"
     showgrid="false"
     fit-margin-top="0"
     fit-margin-left="0"
     fit-margin-right="0"
     fit-margin-bottom="0"
     inkscape:zoom="8.0000001"
     inkscape:cx="41.249999"
     inkscape:cy="28.5"
     inkscape:window-x="-8"
     inkscape:window-y="-8"
     inkscape:window-maximized="1"
     inkscape:current-layer="svg2"
     inkscape:showpageshadow="2"
     inkscape:pagecheckerboard="0"
     inkscape:deskcolor="#d1d1d1" />
  <!-- draw the bicycle -->
  <!-- RIGHT -->
  <!-- LANE -->
  <!-- ONLY -->
  <path
     d="M 206.65025,96.805734 113.26995,3.43602 C 111.11095,1.262908 108.10881,-3.6983694e-5 105.03611,-3.6983694e-5 101.97047,-3.6983694e-5 98.97892,1.262908 96.79522,3.43602 L 3.4113897,96.805734 C 1.2418097,98.978844 -0.00702031,101.95982 2.9689291e-5,105.04663 0.02122969,108.11227 1.2488597,111.11088 3.4113897,113.28046 L 96.79522,206.64665 c 2.16253,2.16253 5.19289,3.41136 8.24795,3.41489 3.05153,-0.003 6.07483,-1.25236 8.23383,-3.41489 l 93.37325,-93.36266 c 2.79752,-2.79753 3.98991,-7.0097 3.13619,-10.86203 -0.50094,-2.21897 -1.72861,-3.866446 -3.13619,-5.616226"
     style="fill:#ffd033;fill-opacity:1;fill-rule:nonzero;stroke:none"
     id="path6132"
     inkscape:connector-curvature="0" />
  <path
     d="m 204.34308,110.97329 -93.36972,93.36619 c -1.56986,1.56281 -3.71828,2.45534 -5.93019,2.45534 -2.21192,0 -4.35681,-0.89253 -5.92667,-2.45534 L 5.7079797,110.96977 c -1.55223,-1.55223 -2.43417,-3.72886 -2.43417,-5.92667 0.007,-2.19781 0.889,-4.37797 2.43769,-5.930196 L 99.10944,5.718492 c 1.56281,-1.545167 3.73592,-2.430639 5.92667,-2.430639 2.19781,0 4.3815,0.885472 5.93725,2.430639 l 93.36972,93.397942 c 1.56633,1.569856 2.45181,3.714746 2.45181,5.926666 0,2.21544 -0.88548,4.36033 -2.45181,5.93019"
     style="fill:#000000;fill-opacity:1;fill-rule:evenodd;stroke:none"
     id="path6140"
     inkscape:connector-curvature="0" />
  <path
     d="m 201.12575,107.74891 c 0.70908,-0.70203 1.12183,-1.71451 1.12183,-2.70581 0,-0.98072 -0.41275,-2.02142 -1.12183,-2.71992 L 107.74192,8.94641 c -0.69497,-0.6985 -1.7145,-1.111251 -2.69875,-1.111251 -0.98778,0 -2.02142,0.412751 -2.72345,1.111251 L 8.9323697,102.32318 c -0.70556,0.70909 -1.09714,1.71803 -1.09714,2.71639 0.007,0.99836 0.39158,1.9932 1.10419,2.70581 l 93.3803003,93.39088 c 0.70203,0.6985 1.74272,1.11125 2.72345,1.11125 0.9913,0 2.00378,-0.41275 2.7058,-1.11125 l 93.37678,-93.38735 z"
     style="fill:#ffd033;fill-opacity:1;fill-rule:evenodd;stroke:none"
     id="path6144"
     inkscape:connector-curvature="0" />
  <path
     style="fill:#f4911d;fill-opacity:1;stroke-width:0.125"
     d="M 36.625,71.386973 C 36.028461,71.009814 2.970417,37.843495 2.8778463,37.529287 2.8319548,37.373521 2.8545539,37.063828 2.9280664,36.841083 3.0228755,36.55381 7.9401257,31.558595 19.845377,19.655546 L 36.629028,2.875 h 0.559968 0.559967 l 16.906769,16.906767 16.906767,16.906769 v 0.55996 0.55996 L 54.843749,54.541878 C 45.003961,64.390302 37.9595,71.347242 37.722765,71.450149 37.198625,71.67799 37.073943,71.670815 36.625,71.386973 Z"
     id="path15509"
     transform="scale(2.8222225)" />
  <path
     style="fill:#f4911d;fill-opacity:1;stroke-width:0.125"
     d="M 36.125,74.208167 C 35.85,74.116784 35.428125,73.942525 35.1875,73.820924 34.946875,73.699323 27.116225,65.969557 17.786056,56.643666 -1.2236238,37.642701 0.13102776,39.130417 0.12700539,37.25 0.12301816,35.38601 -1.3656287,37.022217 17.662512,17.976297 29.35288,6.2750072 34.914851,0.79099204 35.310521,0.57564137 36.405018,-0.0200589 37.853497,-0.04649584 39.033562,0.50769022 39.498957,0.7262511 43.176759,4.3313019 56.291221,17.423971 65.457643,26.575162 73.197938,34.4 73.491877,34.8125 c 0.29394,0.4125 0.598827,0.941206 0.677528,1.174902 0.229114,0.680333 0.1743,1.917668 -0.120791,2.726659 -0.253284,0.694376 -0.949565,1.40972 -17.331895,17.806402 -14.285996,14.298512 -17.178281,17.136959 -17.744542,17.414229 -0.81751,0.400296 -2.09599,0.523096 -2.847177,0.273475 z m 2.486883,-1.22664 C 38.956622,72.81017 44.632697,67.223604 55.909197,55.956988 68.989274,42.888373 72.76171,39.051048 73.002947,38.569207 73.416485,37.743213 73.419674,36.792183 73.011772,35.9375 72.76994,35.430786 69.499542,32.104717 55.731743,18.36332 40.902203,3.5622161 38.684793,1.3958166 38.235497,1.2695694 37.390012,1.0319978 36.556472,1.0900303 35.868292,1.4343782 35.386007,1.6757019 31.548967,5.4496083 18.425039,18.590629 6.6064467,30.424611 1.5332712,35.584733 1.375559,35.932308 1.0824564,36.578265 1.0678286,37.66476 1.3426725,38.375 c 0.182614,0.471902 2.9529954,3.297621 17.2008045,17.544383 15.964763,15.963586 17.02356,16.996215 17.657328,17.220882 0.798795,0.28317 1.63246,0.228284 2.411078,-0.158738 z"
     id="path15511"
     transform="scale(2.8222225)" />
  <path
     d="m 101.45108,63.549032 c -0.29986,-0.45156 -0.58208,-0.85372 -1.08655,-1.1042 -0.462135,-0.2293 -0.906635,-0.41627 -1.439335,-0.41627 -0.52917,0 -1.11125,0.003 -1.5875,-0.26812 -0.4445,-0.25752 -0.81492,-0.49388 -1.1818,-0.85725 -0.33162,-0.33513 0.15522,-0.88194 0.36336,-1.143 0.24341,-0.30339 0.54327,-0.81138 0.54327,-1.21002 0,-0.26106 -0.06,-0.49742 -0.007,-0.75495 0.0494,-0.23989 0.1517,-0.45861 0.1905,-0.70203 0.0812,-0.50447 -0.14459,-0.97013 -0.10578,-1.44991 0.0317,-0.4692 0.0882,-0.90664 -0.0388,-1.37936 -0.29281,-1.08656 -0.96309,-1.66512 -1.89795,-2.19781 -1.69686,-0.97014 -4.51908,0.0988 -5.18583,1.92969 -0.37042,1.02306 -0.45509,2.06728 -0.27164,3.14326 0.16933,1.02305 0.88194,1.86972 1.04775,2.8575 0.0282,0.16933 0.15169,0.52916 0.1023,0.68791 -0.0741,0.24695 -0.34572,0.14111 -0.57855,0.0811 -0.38806,-0.0953 -1.06186,0.0141 -1.41464,0.1905 -0.41628,0.21167 -0.85725,0.38453 -1.34761,0.38453 -0.47273,0 -0.96309,-0.26811 -1.42523,-0.20108 -1.89088,0.26811 -2.85397,1.78505 -2.85397,3.60891 h -4.09575 l 0.72672,-13.38791 h 55.541345 l 0.94545,13.64191 h -34.54049 c -0.0952,-0.49388 -0.10583,-1.01247 -0.40216,-1.45344 m 47.60385,74.640738 c -0.93134,-1.87325 -2.32481,-3.48898 -3.99345,-4.74134 -3.00214,-2.24719 -6.64634,-3.27378 -10.17059,-4.36739 -5.36575,-1.67569 -10.7315,-3.34786 -16.10078,-5.02003 -1.48872,-0.46566 -2.93158,-1.01952 -4.36033,-1.65453 -1.93323,-0.86077 -3.85587,-1.74272 -5.51745,-3.06916 -0.81139,-0.64911 -1.49931,-1.45345 -1.87325,-2.42006 -0.37747,-0.9913 -0.17286,-2.00025 0.381,-2.88572 0.53622,-0.86431 1.30881,-1.56281 1.98967,-2.31422 0.72672,-0.80434 1.57691,-1.37937 2.50472,-1.91912 1.82739,-1.07597 3.90525,-1.4993 5.93725,-1.99672 1.97556,-0.47625 3.96522,-0.91722 5.95136,-1.35114 4.37445,-0.9525 8.43845,-1.74625 12.80937,-2.68817 0.0353,-0.007 0.067,-0.0141 0.0952,-0.0212 1.50283,-0.35983 3.27378,-1.63689 3.56305,-3.25261 l 0.0282,-5.281078 c 0.007,-0.0776 0.0104,-0.15875 0.0104,-0.23636 h 5.15056 v -0.79375 c 0,-0.254 -0.0706,-0.58914 0.0741,-0.80081 0.2787,-0.4198 0.45509,-0.85725 0.5327,-1.34761 0.0776,-0.52917 0.0388,-0.98072 -0.13053,-1.48519 -0.0811,-0.22931 -0.18697,-0.44098 -0.28222,-0.66323 -0.0564,-0.13405 0.15522,-0.58561 0.18697,-0.75494 0.23989,-1.10772 -0.003,-2.04611 -0.5327,-3.03036 -0.19755,-0.36689 -0.0953,-1.07245 -0.0564,-1.48873 0.0353,-0.35277 0.0282,-0.70555 0.0282,-1.06538 0,-2.40948 0.0175,-4.82248 -0.06,-7.23195 -0.0706,-1.98967 -0.20108,-4.07458 -1.18533,-5.842 -0.508,-0.91017 -1.22061,-1.59456 -2.05317,-2.21545 -0.24342,-0.17991 -0.39158,-0.1905 -0.42686,-0.47272 -0.0423,-0.31397 -0.0847,-0.62794 -0.127,-0.94191 -0.35985,-2.79047 -0.72321,-5.58448 -1.08657,-8.37495 -0.3422,-2.63525 -0.68439,-5.26697 -1.02659,-7.90222 -0.0776,-0.60678 -0.15875,-1.07245 -0.43391,-1.62631 -0.4692,-0.93839 -1.55222,-1.45697 -2.56117,-1.52753 -0.70555,-0.0459 -52.662675,0 -56.642005,0 -1.01953,0 -2.09903,0.004 -2.88573,0.79023 -0.53622,0.53622 -0.88547,1.13241 -0.98425,1.89089 -0.10936,0.86783 -0.22225,1.73566 -0.33161,2.6035 -0.65264,5.08705 -1.30175,10.17411 -1.95439,15.26469 -0.0247,0.1905 -0.80433,0.5327 -0.96661,0.69498 -0.34925,0.34925 -0.75141,0.67027 -1.05128,1.07244 -0.64558,0.85725 -0.9525,1.79211 -1.25588,2.80459 -0.27517,0.91016 -0.32456,2.01436 -0.35631,2.9598 -0.0388,1.0795 -0.0564,2.159 -0.0882,3.23145 -0.0741,2.21544 0.0176,4.43089 0.0176,6.6428 0,0.17639 0.0635,0.44098 0.0317,0.61031 -0.0353,0.21167 -0.29986,0.49742 -0.39864,0.70908 -0.22578,0.49389 -0.32456,0.98425 -0.32456,1.52753 0,0.55386 0.0988,1.05481 0.29634,1.57339 0.0635,0.16228 -0.17992,0.40922 -0.23284,0.57856 -0.0917,0.26811 -0.15169,0.51858 -0.19755,0.8008 -0.0953,0.61736 0.0176,1.25236 0.29633,1.81328 0.14111,0.27517 0.30692,0.44097 0.31397,0.75847 0.0141,0.41275 0.0212,0.8255 0.0317,1.23825 l 5.15056,-0.0388 v 3.72534 c 0,0.0212 0.007,0.0459 0.0175,0.0741 l 0.003,0.85372 c -0.67028,0.14816 -1.57339,0.34219 -2.14489,0.472718 -2.13783,0.4833 -4.27919,0.97014 -6.4135,1.44639 -2.10608,0.47272 -4.19453,1.01247 -6.29003,1.50283 -1.99319,0.46567 -4.09575,0.81845 -5.95136,1.7145 -2.04964,0.98778 -3.88409,2.10609 -5.49981,3.72181 -1.47108,1.47108 -2.56469,3.302 -3.00214,5.34106 -0.47272,2.1978 -0.16933,4.33211 0.76906,6.35705 0.87841,1.90148 2.50825,3.51367 4.27919,4.59317 1.75684,1.07597 3.7465,1.82033 5.65503,2.59997 1.95792,0.79728 3.91936,1.64395 5.93725,2.286 4.78367,1.53106 9.57439,3.05506 14.35806,4.58612 1.58045,0.50094 3.14325,1.03364 4.66725,1.67569 1.96145,0.8255 3.95817,1.67922 5.60564,3.048 1.69334,1.40759 1.88384,3.6195 1.5487,5.64445 -0.1517,0.91369 -0.5715,1.89089 -0.97014,2.72344 -0.48331,1.00542 -0.95956,1.9932 -1.54517,2.94922 -1.15005,1.8662 -2.47297,3.61598 -4.06753,5.13645 -1.60161,1.52753 -3.35139,2.81869 -5.24228,3.96875 -0.0847,0.0494 -0.17639,0.10583 -0.26105,0.15875 l 3.37255,5.47511 c 3.53131,-2.38478 6.91092,-5.21053 9.41565,-8.69597 1.31233,-1.82386 2.48002,-3.66536 3.48544,-5.6762 0.49742,-0.99483 0.97367,-1.98614 1.40406,-3.00919 0.37394,-0.89253 0.51505,-2.01436 0.62089,-2.96333 0.48328,-4.33211 -1.52755,-8.36083 -4.92833,-10.97492 -1.71803,-1.32291 -3.71122,-2.13783 -5.6762,-3.0233 -0.40922,-0.18698 -0.85372,-0.29281 -1.28411,-0.42686 -1.05128,-0.32456 -2.10255,-0.65617 -3.1503,-0.9772 -5.40809,-1.68275 -10.81265,-3.3655 -16.21367,-5.04472 -1.43934,-0.44803 -2.83987,-0.97014 -4.21923,-1.58045 -1.9438,-0.8643 -3.92994,-1.74272 -5.61269,-3.06211 -0.82903,-0.65264 -1.53811,-1.4605 -1.95792,-2.43417 -0.42333,-0.9913 -0.20814,-2.06022 0.32456,-2.95627 0.508,-0.84314 1.31586,-1.64395 2.01083,-2.33539 0.75847,-0.75848 1.58044,-1.37937 2.50119,-1.92264 1.83445,-1.07598 3.92995,-1.51695 5.97253,-1.99673 2.12725,-0.508 4.26862,-0.96661 6.40292,-1.44991 4.27214,-0.98073 8.57603,-1.82739 12.85523,-2.77989 0.0847,-0.0178 0.16227,-0.0423 0.22225,-0.0776 1.524,-0.47273 3.07975,-1.46403 3.09033,-3.10798 l 0.007,-5.559768 h 45.444835 l -0.007,4.53319 c -0.69144,0.15875 -1.6263,0.37394 -2.15547,0.49389 -2.13078,0.479778 -4.25097,0.970138 -6.38175,1.449918 -2.13078,0.47625 -4.25097,1.016 -6.38175,1.51341 -2.02847,0.4692 -4.04284,0.89959 -5.95842,1.74978 -2.03906,0.90664 -3.86644,2.13784 -5.44689,3.71475 -1.43228,1.43581 -2.71639,3.51367 -2.98803,5.5492 -0.14464,1.08303 -0.23283,2.09903 -0.0741,3.19264 0.14464,1.02658 0.4692,2.08492 0.95603,2.99508 1.00189,1.84856 2.44475,3.40431 4.24039,4.50498 1.72861,1.05127 3.65125,1.77447 5.51392,2.53647 1.99672,0.81844 4.00756,1.68275 6.06778,2.34244 4.72722,1.51342 9.45444,3.02684 14.1852,4.54025 1.59102,0.508 3.16794,1.02306 4.70958,1.66512 1.94028,0.8008 3.99697,1.64747 5.62328,3.00214 0.76906,0.63852 1.37936,1.5628 1.62278,2.53647 0.27164,1.09361 0.21872,2.04964 0.0212,3.1503 -0.18697,1.01248 -0.58561,1.94028 -1.00189,2.87514 -0.41981,0.93134 -0.87489,1.91559 -1.43228,2.76931 -1.22414,1.87325 -2.50119,3.6442 -4.10633,5.22111 -1.58045,1.54517 -3.36903,2.82928 -5.25287,3.97228 -0.0847,0.0564 -0.17639,0.10936 -0.26105,0.16228 l 3.37255,5.47864 c 3.53837,-2.39183 6.93209,-5.23875 9.44034,-8.72773 1.32997,-1.85913 2.51177,-3.75708 3.53483,-5.79966 0.96661,-1.9297 1.83797,-3.92289 1.95792,-6.10659 0.11289,-2.08139 -0.12347,-4.1663 -1.07245,-6.05719"
     style="fill:#000000;fill-opacity:1;fill-rule:nonzero;stroke:none"
     id="path7904"
     inkscape:connector-curvature="0" />
  <path
     d="m 80.030015,55.650332 -0.0917,1.71097 4.32505,4.20159 c 0.3422,-0.28222 0.74084,-0.50095 1.19239,-0.64206 l -5.42572,-5.2705 z"
     style="fill:#000000;fill-opacity:1;fill-rule:nonzero;stroke:none"
     id="path7908"
     inkscape:connector-curvature="0" />
</svg>
