<?xml version="1.0" encoding="UTF-8" standalone="no"?>
<svg
   xmlns:dc="http://purl.org/dc/elements/1.1/"
   xmlns:cc="http://creativecommons.org/ns#"
   xmlns:rdf="http://www.w3.org/1999/02/22-rdf-syntax-ns#"
   xmlns:svg="http://www.w3.org/2000/svg"
   xmlns="http://www.w3.org/2000/svg"
   xmlns:sodipodi="http://sodipodi.sourceforge.net/DTD/sodipodi-0.dtd"
   xmlns:inkscape="http://www.inkscape.org/namespaces/inkscape"
   width="540.40033"
   height="540.40063"
   viewBox="-50 -30 54.04004 54.040055"
   id="svg2"
   version="1.1"
   inkscape:version="0.48.4 r9939"
   sodipodi:docname="AJAX1.svg">
  <metadata
     id="metadata14">
    <rdf:RDF>
      <cc:Work
         rdf:about="">
        <dc:format>image/svg+xml</dc:format>
        <dc:type
           rdf:resource="http://purl.org/dc/dcmitype/StillImage" />
      </cc:Work>
    </rdf:RDF>
  </metadata>
  <defs
     id="defs12" />
  <sodipodi:namedview
     pagecolor="#ffffff"
     bordercolor="#666666"
     borderopacity="1"
     objecttolerance="10"
     gridtolerance="10"
     guidetolerance="10"
     inkscape:pageopacity="0"
     inkscape:pageshadow="2"
     inkscape:window-width="1280"
     inkscape:window-height="1004"
     id="namedview10"
     showgrid="false"
     fit-margin-top="0.2"
     fit-margin-left="0.2"
     fit-margin-right="0.2"
     fit-margin-bottom="0.2"
     inkscape:zoom="0.87990975"
     inkscape:cx="190.75532"
     inkscape:cy="175.54925"
     inkscape:window-x="-8"
     inkscape:window-y="-8"
     inkscape:window-maximized="1"
     inkscape:current-layer="svg2"
     showguides="true"
     inkscape:guide-bbox="true" />
  <path
     inkscape:connector-curvature="0"
     d="m -21.228355,23.294623 c -0.967501,0.96725 -2.535876,0.96725 -3.503376,0 L -49.254359,-1.2283803 c -0.9675,-0.9673751 -0.9675,-2.5358753 -1.25e-4,-3.5031257 l 24.522753,-24.522878 c 0.9675,-0.9675 2.535875,-0.9675 3.503501,0 L 3.2942726,-4.731631 c 0.96775,0.9673754 0.967625,2.5358756 0,3.5032507 L -21.228355,23.294623 z"
     style="fill:#f4911d;fill-opacity:1;fill-rule:nonzero;stroke:none"
     id="path3119" />
  <path
     inkscape:connector-curvature="0"
     d="m -21.228355,23.294623 c -0.967501,0.96725 -2.535876,0.96725 -3.503376,0 L -49.254359,-1.2283803 c -0.9675,-0.9673751 -0.9675,-2.5358753 -1.25e-4,-3.5031257 l 24.522753,-24.522878 c 0.9675,-0.9675 2.535875,-0.9675 3.503501,0 L 3.2942726,-4.731631 c 0.96775,0.9673754 0.967625,2.5358756 0,3.5032507 L -21.228355,23.294623 z"
     style="fill:none;stroke:none"
     id="path3123" />
  <path
     inkscape:connector-curvature="0"
     d="m -48.767822,-1.7150053 c -0.697625,-0.6973751 -0.697625,-1.8325003 -1.3e-4,-2.5300003 l 24.522883,-24.5228784 c 0.697625,-0.6975 1.832625,-0.6975 2.530251,0 L 2.8078096,-4.2450056 c 0.697875,0.6975 0.697875,1.8326252 0,2.5300003 L -21.714943,22.807998 c -0.697501,0.6975 -1.832501,0.6975 -2.530126,0 L -48.767822,-1.7150053 z"
     style="fill:#000000;fill-opacity:1;fill-rule:nonzero;stroke:none"
     id="path3127" />
  <path
     inkscape:connector-curvature="0"
     d="m -48.086734,-2.3961304 c -0.321875,-0.3218751 -0.321875,-0.8457501 0,-1.1677502 l 24.522878,-24.5227534 c 0.32175,-0.322 0.845875,-0.322 1.16775,0 L 2.1267726,-3.5638806 c 0.322,0.3220001 0.322,0.8458751 0,1.1677502 L -22.396106,22.126872 c -0.321875,0.32175 -0.846,0.32175 -1.16775,0 L -48.086734,-2.3961304 z"
     style="fill:#f4911d;fill-opacity:1;fill-rule:nonzero;stroke:none"
     id="path3131" />
  <path
     inkscape:connector-curvature="0"
     d="m -30.392857,6.3686207 -0.38725,1.5838752 0.794,1e-4 -0.40675,-1.5840002 z m 0.987751,3.8632503 -0.387375,-1.506625 -1.181251,0 -0.368,1.506625 -0.793875,0 1.374875,-5.5050005 0.774625,0 1.375001,5.5050005 -0.794,0 z"
     style="fill:#000000;fill-opacity:1;fill-rule:nonzero;stroke:none"
     id="path3135" />
  <path
     inkscape:connector-curvature="0"
     d="m -18.498105,6.3687457 -0.3875,1.5837502 0.794125,0 -0.406625,-1.5837502 z m 0.987625,3.8631253 -0.387375,-1.506625 -1.181375,0 -0.367875,1.506625 -0.794,0 1.375125,-5.5050005 0.7745,0 1.37475,5.5050005 -0.79375,0 z"
     style="fill:#000000;fill-opacity:1;fill-rule:nonzero;stroke:none"
     id="path3139" />
  <path
     inkscape:connector-curvature="0"
     d="m -13.78698,6.0596206 c -0.135,-0.386375 -0.36625,-0.56025 -0.713375,-0.56025 l -0.65525,0 0,3.9597505 0.655375,0 c 0.462625,0 0.713375,-0.3668751 0.790251,-0.7920001 0.0385,-0.3476251 0.077,-0.7340001 0.077,-1.1588752 0,-0.6180001 -0.0575,-1.2168751 -0.154001,-1.4486252 m 0.134751,3.9210005 c -0.192501,0.1738749 -0.462376,0.2512499 -0.770876,0.2512499 l -1.522875,0 0,-5.5050005 1.407,0 c 0.462625,0 0.694125,0.058 0.886876,0.2125 0.32775,0.231625 0.559125,0.6567501 0.655375,1.2167501 0.07713,0.4056251 0.13475,0.8886252 0.13475,1.3135002 0,1.2748752 -0.250375,2.0861253 -0.79025,2.5110003"
     style="fill:#000000;fill-opacity:1;fill-rule:nonzero;stroke:none"
     id="path3143" />
  <path
     inkscape:connector-curvature="0"
     d="m -23.545356,10.231871 0,-5.5050005 2.595876,0 -10e-5,0.7725001 -1.801501,1e-4 0,1.3907501 1.143001,0 -10e-5,0.7532501 -1.142876,0 0,1.8156253 2.014376,0 0,0.7727499 -2.808626,0 z"
     style="fill:#000000;fill-opacity:1;fill-rule:nonzero;stroke:none"
     id="path3147" />
  <path
     inkscape:connector-curvature="0"
     d="m -25.546731,10.231871 0,-2.4918752 -1.5035,0 0,2.4918752 -0.79025,0 0,-5.5050005 0.79025,0 0,2.2405002 1.5035,0 0,-2.2405002 0.790375,0 0,5.5050005 -0.790375,0 z"
     style="fill:#000000;fill-opacity:1;fill-rule:nonzero;stroke:none"
     id="path3151" />
  <path
     inkscape:connector-curvature="0"
     d="m -27.528606,-11.246882 -0.387375,1.583876 0.794,0 -0.406625,-1.583876 z m 0.987625,3.863001 -0.38725,-1.5065 -1.181375,0 -0.367875,1.5065 -0.794,0 1.374875,-5.504751 0.774625,0 1.375,5.504751 -0.794,0 z"
     style="fill:#000000;fill-opacity:1;fill-rule:nonzero;stroke:none"
     id="path3155" />
  <path
     inkscape:connector-curvature="0"
     d="m -34.849982,-9.875506 -0.79025,0 0,1.719125 0.79025,0 c 0.443375,0 0.732375,-0.309125 0.7325,-0.792 0,-0.5215 -0.32775,-0.927125 -0.7325,-0.927125 m 0.03863,-2.240626 -0.828875,0 0,1.468125 0.828875,0 c 0.366125,0 0.5975,-0.309125 0.5975,-0.811375 0,-0.4635 -0.1735,-0.65675 -0.5975,-0.65675 m 0,4.732251 -1.619125,0 0,-5.504751 1.73475,0 c 0.732375,0 1.252875,0.5795 1.252875,1.42925 0,0.50225 -0.134875,0.734 -0.57825,1.1975 0.424,0.347751 0.674625,0.811376 0.674625,1.371501 0,0.8305 -0.655375,1.5065 -1.464875,1.5065"
     style="fill:#000000;fill-opacity:1;fill-rule:nonzero;stroke:none"
     id="path3159" />
  <path
     inkscape:connector-curvature="0"
     d="m -8.9968544,-8.059756 c -0.21325,0.48275 -0.6595,0.7725 -1.2219996,0.7725 -0.6595,0 -1.14425,-0.328375 -1.41575,-0.946375 -0.174875,-0.40575 -0.290875,-1.17825 -0.291,-1.892876 10e-5,-0.772625 0.058,-1.332875 0.251875,-1.85425 0.194125,-0.5795 0.756625,-1.0045 1.39675,-1.0045 0.7951246,0 1.3964996,0.5795 1.4353746,1.39075 l -0.795125,0 c -0.01963,-0.367 -0.271625,-0.618125 -0.6597496,-0.618125 -0.271375,0 -0.484875,0.13525 -0.620625,0.405625 -0.15525,0.270375 -0.252125,0.8885 -0.252125,1.545125 -10e-5,0.463626 0.03875,0.946501 0.116375,1.371501 0.1165,0.540875 0.388,0.830625 0.814875,0.830625 0.4071246,0 0.6012496,-0.270375 0.6011246,-0.85 l 0,-0.367 -0.6208746,1e-4 0,-0.772626 1.4161246,0 -10e-5,1.139501 c 0,0.386375 -0.03862,0.618125 -0.155125,0.85"
     style="fill:#000000;fill-opacity:1;fill-rule:nonzero;stroke:none"
     id="path3163" />
  <path
     inkscape:connector-curvature="0"
     d="m -18.092605,-7.383756 0,-5.504876 0.77075,0 10e-5,5.504876 -0.770875,0 z"
     style="fill:#000000;fill-opacity:1;fill-rule:nonzero;stroke:none"
     id="path3167" />
  <path
     inkscape:connector-curvature="0"
     d="m -32.410607,-7.383756 0,-5.504876 0.79425,0 0,4.770876 2.014501,0 0,0.734 -2.808751,0 z"
     style="fill:#000000;fill-opacity:1;fill-rule:nonzero;stroke:none"
     id="path3171" />
  <path
     inkscape:connector-curvature="0"
     d="m -13.623979,-7.383881 -1.696501,-3.689126 0,3.689126 -0.79025,0 10e-5,-5.504751 0.790125,0 1.503625,3.302876 0,-3.302876 0.790126,0 0,5.504751 -0.59725,0 z"
     style="fill:#000000;fill-opacity:1;fill-rule:nonzero;stroke:none"
     id="path3175" />
  <path
     inkscape:connector-curvature="0"
     d="m -23.684106,-9.926006 c -0.238125,-0.154376 -0.469375,-0.309126 -0.617,-0.413001 -0.443875,-0.312375 -0.678875,-0.734 -0.678875,-1.216875 -10e-5,-0.792 0.620625,-1.429375 1.415875,-1.429375 0.775875,0 1.37725,0.59875 1.396625,1.429375 l -0.756375,0 c -0.01963,-0.386375 -0.291125,-0.6375 -0.64025,-0.6375 -0.3685,0 -0.6595,0.2705 -0.6595,0.6375 0,0.270375 0.116375,0.424875 0.52375,0.65675 1.066625,0.618 1.532375,1.216751 1.532375,2.008751 0,0.8885 -0.67875,1.603125 -1.532375,1.603125 -0.969875,0 -1.55175,-0.81125 -1.55175,-1.719 l 0.775875,0 c 0,0.4635 0.23275,0.946375 0.775875,0.946375 0.426625,0 0.775875,-0.38625 0.776,-0.8305 -10e-5,-0.345 -0.1425,-0.6355 -0.76025,-1.035625"
     style="fill:#000000;fill-opacity:1;fill-rule:nonzero;stroke:none"
     id="path3179" />
  <path
     inkscape:connector-curvature="0"
     d="m -19.87048,-12.154757 0,4.771001 -0.79425,0 10e-5,-4.770876 -1.007375,0 0,-0.734 2.808875,0 1e-4,0.734 -1.0075,-10e-5 z"
     style="fill:#000000;fill-opacity:1;fill-rule:nonzero;stroke:none"
     id="path3183" />
  <path
     inkscape:connector-curvature="0"
     d="m -18.106855,1.4239951 -10e-5,-5.5048757 2.59575,0 0,0.7726251 -1.8015,0 10e-5,1.3906251 1.142875,0 0,0.7533751 -1.143,0 10e-5,1.81562526 2.014625,0 -10e-5,0.77262514 -2.80875,0 z"
     style="fill:#000000;fill-opacity:1;fill-rule:nonzero;stroke:none"
     id="path3187" />
  <path
     inkscape:connector-curvature="0"
     d="m -19.91548,1.4239951 -1.69625,-3.6892505 -10e-5,3.6892505 -0.790251,-10e-5 0,-5.5047507 0.790376,0 1.503625,3.30300036 0,-3.30300036 0.790375,0 -10e-5,5.5048757 -0.597625,0 z"
     style="fill:#000000;fill-opacity:1;fill-rule:nonzero;stroke:none"
     id="path3191" />
  <path
     inkscape:connector-curvature="0"
     d="m -24.436856,-2.7095055 c -0.13625,-0.482875 -0.35025,-0.695375 -0.681,-0.695375 -0.35025,0 -0.56425,0.2125 -0.700375,0.676125 -0.13625,0.4250001 -0.175125,0.7918751 -0.175125,1.4098752 0,0.59875006 0.05838,0.94662506 0.175125,1.39087516 0.136125,0.4635001 0.350125,0.6760001 0.700375,0.6760001 0.330625,-10e-5 0.54475,-0.2125 0.681,-0.6761251 0.13625,-0.4441251 0.175,-0.7725001 0.175125,-1.41000016 0,-0.6180001 -0.05837,-0.9656251 -0.175125,-1.3713752 m 0.6225,3.28362546 c -0.272375,0.65675004 -0.681,0.94637514 -1.3035,0.94637514 -0.6615,0 -1.050625,-0.2896251 -1.323,-0.94637514 -0.2335,-0.5407501 -0.311375,-1.0623752 -0.311375,-1.91225026 0,-0.8305001 0.07788,-1.3906252 0.311375,-1.9121252 0.29175,-0.6567501 0.681,-0.9271251 1.323,-0.9271251 0.642,0 1.031125,0.270375 1.3035,0.9463751 0.2335,0.540875 0.311375,1.0623751 0.311375,1.8928752 0,0.84987506 -0.07787,1.39087516 -0.311375,1.91225026"
     style="fill:#000000;fill-opacity:1;fill-rule:nonzero;stroke:none"
     id="path3195" />
  <path
     inkscape:connector-curvature="0"
     d="m -30.661982,1.4239951 0,-0.84675014 2.082251,-3.88812546 -1.866251,0 10e-5,-0.7698751 2.868001,0 0,0.5005 -2.259,4.25362556 2.259,0 0,0.75062514 -3.084126,0 z"
     style="fill:#000000;fill-opacity:1;fill-rule:nonzero;stroke:none"
     id="path3199" />
</svg>
