<?xml version="1.0" encoding="UTF-8" standalone="no"?>
<!-- Generator: Adobe Illustrator 14.0.0, SVG Export Plug-In  -->

<svg
   xmlns:dc="http://purl.org/dc/elements/1.1/"
   xmlns:cc="http://creativecommons.org/ns#"
   xmlns:rdf="http://www.w3.org/1999/02/22-rdf-syntax-ns#"
   xmlns:svg="http://www.w3.org/2000/svg"
   xmlns="http://www.w3.org/2000/svg"
   xmlns:sodipodi="http://sodipodi.sourceforge.net/DTD/sodipodi-0.dtd"
   xmlns:inkscape="http://www.inkscape.org/namespaces/inkscape"
   version="1.1"
   x="0px"
   y="0px"
   width="108.95812"
   height="108.94391"
   viewBox="0 -0.321 108.95811 108.94394"
   enable-background="new 0 -0.321 144 120"
   xml:space="preserve"
   id="svg2"
   inkscape:version="0.48.2 r9819"
   sodipodi:docname="MUTCD W13-4P (temporary).svg"><metadata
   id="metadata44"><rdf:RDF><cc:Work
       rdf:about=""><dc:format>image/svg+xml</dc:format><dc:type
         rdf:resource="http://purl.org/dc/dcmitype/StillImage" /><dc:title></dc:title></cc:Work></rdf:RDF></metadata><sodipodi:namedview
   pagecolor="#ffffff"
   bordercolor="#666666"
   borderopacity="1"
   objecttolerance="10"
   gridtolerance="10"
   guidetolerance="10"
   inkscape:pageopacity="0"
   inkscape:pageshadow="2"
   inkscape:window-width="1280"
   inkscape:window-height="1004"
   id="namedview42"
   showgrid="false"
   fit-margin-top="0"
   fit-margin-left="0"
   fit-margin-right="0"
   fit-margin-bottom="0"
   inkscape:zoom="5.3605324"
   inkscape:cx="57.145114"
   inkscape:cy="36.423453"
   inkscape:window-x="-8"
   inkscape:window-y="-8"
   inkscape:window-maximized="1"
   inkscape:current-layer="svg2" />
<defs
   id="defs4">
</defs>


















<path
   inkscape:connector-curvature="0"
   d="M 51.560314,107.43231 1.2065487,57.078548 c -1.60874999,-1.60875 -1.60874999,-4.231251 0,-5.840002 L 51.557814,0.88728241 c 1.60875,-1.610001 4.233751,-1.611251 5.842501,-0.0025 L 107.75158,51.241046 c 1.60875,1.608751 1.60875,4.230002 0,5.838752 L 57.400315,107.43231 c -1.58875,1.58625 -4.250001,1.58875 -5.840001,0"
   style="fill:#f4911d;fill-opacity:1;fill-rule:nonzero;stroke:none"
   id="path6980" /><path
   inkscape:connector-curvature="0"
   d="M 52.361563,106.61219 2.0265487,56.278428 c -1.15749999,-1.160001 -1.15499999,-3.078751 0,-4.238751 L 52.359063,1.7071624 c 1.16,-1.15874999 3.076251,-1.15624999 4.240001,0 L 106.92908,52.042177 c 1.1575,1.16 1.16,3.075 0,4.236251 L 56.599064,106.61219 c -1.16125,1.1525 -3.078751,1.15625 -4.237501,0"
   style="fill:#000000;fill-opacity:1;fill-rule:evenodd;stroke:none"
   id="path6984" /><path
   inkscape:connector-curvature="0"
   d="M 53.481563,105.46231 3.1765487,55.157297 c -0.55625,-0.53875 -0.55625,-1.4575 0,-1.99625 L 53.481563,2.8572824 c 0.5375,-0.55625 1.455001,-0.55625 1.995001,0 L 105.78158,53.161047 c 0.55625,0.54 0.55625,1.45875 -0.002,1.99875 L 55.479064,105.46231 c -0.54,0.55625 -1.457501,0.55625 -1.997501,0"
   style="fill:#f4911d;fill-opacity:1;fill-rule:evenodd;stroke:none"
   id="path6988" /><path
   inkscape:connector-curvature="0"
   d="m 70.981566,35.424672 c 0,1.48 -0.34875,2.686251 -1.01,3.348751 -0.315,0.3125 -0.665,0.4275 -1.25,0.4275 l -1.751249,0 0,-7.552502 1.984999,0 c 0.46875,0 0.86,0.195 1.1325,0.4675 0.545,0.58375 0.89375,1.828751 0.89375,3.308751 m 1.7925,0 c 0,-2.180001 -0.66125,-3.931251 -1.83125,-4.943751 -0.58375,-0.467501 -1.01375,-0.585001 -2.14125,-0.585001 l -3.58375,0 0,11.096254 3.39125,0 0.62,0 c 0.58625,-0.03875 1.16875,-0.232501 1.59625,-0.622501 1.245,-0.97375 1.94875,-2.72625 1.94875,-4.945001 m -12.812501,0.66125 -2.217501,0 1.128751,-3.113751 1.08875,3.113751 z m 3.583751,4.906252 -3.813751,-11.096254 -1.755001,0 -3.816251,11.096254 1.870001,0 1.08875,-3.113751 3.467501,0 1.08875,3.113751 1.870001,0 z M 50.967812,35.463422 c 0,0.8575 -0.19375,1.947501 -0.4275,2.531251 -0.38875,0.97375 -0.893749,1.40125 -1.71125,1.40125 -0.70375,0 -1.167501,-0.2725 -1.518751,-0.85625 -0.43,-0.70125 -0.665,-1.907501 -0.665,-3.076251 0,-0.93375 0.15625,-1.946251 0.430001,-2.608751 0.388749,-0.9725 0.9325,-1.40125 1.7925,-1.36125 0.661251,0.0375 1.08875,0.27125 1.440001,0.85625 0.43,0.74 0.659999,1.867501 0.659999,3.113751 m 1.752501,0 c 0,-1.40125 -0.27375,-2.803751 -0.737499,-3.775001 -0.701252,-1.365 -1.675002,-1.987501 -3.076252,-1.987501 -1.286251,0 -2.180001,0.390001 -2.841251,1.247501 -0.7425,1.05 -1.208749,2.685 -1.208749,4.515001 0,1.325 0.31,2.803751 0.77875,3.737501 0.66375,1.36375 1.635,1.991251 3.193751,1.991251 1.16625,0 2.062499,-0.395001 2.685001,-1.252501 0.77875,-0.97125 1.20625,-2.723751 1.20625,-4.476251 M 41.275311,33.009671 c 0,0.4675 -0.27375,0.935001 -0.701252,1.170001 -0.27375,0.155 -0.46625,0.19375 -1.01125,0.19375 l -2.10375,0 0,-2.725001 2.10375,0 c 0.58375,0 0.7375,0.04 1.01125,0.195 0.427502,0.23375 0.701252,0.69875 0.701252,1.16625 m 1.985,7.982503 -1.94625,-5.177502 c 1.01,-0.4675 1.71125,-1.635 1.71125,-2.805001 0,-1.1275 -0.70125,-2.29625 -1.6725,-2.76375 C 40.809059,29.97467 40.222809,29.89592 39.365309,29.89592 l -3.6575,0 0,11.096254 1.75125,0 0,-4.827502 2.10375,0 1.790001,4.827502 1.9075,0 z"
   style="fill:#000000;fill-opacity:1;fill-rule:evenodd;stroke:none"
   id="path6992" /><path
   inkscape:connector-curvature="0"
   d="m 73.240316,60.206299 -3.66,-6.772502 3.4275,-4.323751 -2.2575,0 -3.503749,4.400001 0,-4.400001 -1.752501,0 0,11.096253 1.752501,0 0,-3.813751 1.167499,-1.441251 2.8025,5.255002 2.02375,0 z M 61.836565,52.226297 c 0,0.465 -0.27125,0.9325 -0.70375,1.1675 -0.27,0.155 -0.46375,0.195 -1.01,0.195 l -2.102501,0 0,-2.726251 2.102501,0 c 0.58375,0 0.74,0.04 1.01,0.195 0.4325,0.23375 0.70375,0.701251 0.70375,1.168751 m 1.985001,7.980002 -1.946251,-5.178752 c 1.011251,-0.46625 1.713751,-1.63375 1.713751,-2.80125 0,-1.128751 -0.7025,-2.298751 -1.675001,-2.766251 -0.54625,-0.2725 -1.1275,-0.35 -1.9875,-0.35 l -3.658751,0 0,11.096253 1.7525,0 0,-4.826251 2.102501,0 1.79125,4.826251 1.907501,0 z M 52.261563,54.678797 c 0,0.857501 -0.19625,1.948751 -0.43,2.530001 -0.38875,0.97375 -0.893751,1.40375 -1.708751,1.40375 -0.70375,0 -1.17,-0.27375 -1.52125,-0.8575 -0.4275,-0.70125 -0.66125,-1.9075 -0.66125,-3.076251 0,-0.935 0.15375,-1.94625 0.42625,-2.61 0.38875,-0.971251 0.935,-1.401251 1.7925,-1.362501 0.66125,0.04125 1.09125,0.27375 1.442501,0.8575 0.4275,0.740001 0.66,1.870001 0.66,3.115001 m 1.75,0 c 0,-1.4025 -0.27125,-2.80375 -0.7375,-3.776251 -0.7,-1.3625 -1.6725,-1.98625 -3.076251,-1.98625 -1.28625,0 -2.18,0.38875 -2.841251,1.24625 -0.7425,1.05 -1.20875,2.686251 -1.20875,4.516251 0,1.323751 0.3125,2.802501 0.78125,3.737501 0.66125,1.362501 1.633751,1.992501 3.193751,1.992501 1.16375,0 2.060001,-0.395 2.682501,-1.2525 0.77875,-0.973751 1.20625,-2.726251 1.20625,-4.477502 m -9.103752,-5.568751 -1.795001,0 -0.85375,5.841251 -1.443751,-5.841251 -1.70875,0 -1.40375,5.841251 -0.85625,-5.841251 -1.7925,0 1.63875,11.096253 1.555,0 1.71375,-7.123752 1.752501,7.123752 1.5575,0 1.636251,-11.096253 z"
   style="fill:#000000;fill-opacity:1;fill-rule:evenodd;stroke:none"
   id="path6996" /><path
   inkscape:connector-curvature="0"
   d="m 31.214059,79.428554 0,-9.126252 -0.70125,0 0,-1.208751 c 0.625,-0.04 1.01375,-0.3125 1.2475,-0.78 l 1.0525,0 0,11.115003 -1.59875,0 z"
   style="fill:#000000;fill-opacity:1;fill-rule:nonzero;stroke:none"
   id="path7000" /><path
   inkscape:connector-curvature="0"
   d="m 39.715309,71.082682 c -0.27125,-0.975 -0.70375,-1.403751 -1.365,-1.403751 -0.70125,0 -1.13125,0.428751 -1.40375,1.365001 -0.27125,0.8575 -0.3525,1.59875 -0.3525,2.846251 0,1.21 0.1175,1.91125 0.3525,2.80875 0.2725,0.935001 0.7025,1.363751 1.40375,1.363751 0.66125,0 1.09375,-0.42875 1.365,-1.363751 0.2725,-0.8975 0.35125,-1.56 0.35125,-2.8475 0,-1.247501 -0.1175,-1.950001 -0.35125,-2.768751 m 1.247502,6.630002 c -0.545002,1.32625 -1.365002,1.91 -2.612502,1.91 -1.32375,0 -2.1075,-0.58375 -2.65125,-1.91 -0.46875,-1.092501 -0.625,-2.145001 -0.625,-3.861251 0,-1.677501 0.15625,-2.807501 0.625,-3.861251 0.585,-1.326251 1.36375,-1.871251 2.65125,-1.871251 1.28625,0 2.0675,0.545 2.612502,1.910001 0.46875,1.0925 0.625,2.145 0.625,3.822501 0,1.71625 -0.15625,2.8075 -0.625,3.861251"
   style="fill:#000000;fill-opacity:1;fill-rule:nonzero;stroke:none"
   id="path7004" /><path
   inkscape:connector-curvature="0"
   d="m 48.255313,71.082682 c -0.271251,-0.975 -0.701252,-1.403751 -1.365002,-1.403751 -0.701249,0 -1.129999,0.428751 -1.403749,1.365001 -0.27125,0.8575 -0.35125,1.59875 -0.35125,2.846251 0,1.21 0.11625,1.91125 0.35125,2.80875 0.27375,0.935001 0.7025,1.363751 1.403749,1.363751 0.66375,0 1.093751,-0.42875 1.365002,-1.363751 0.274999,-0.8975 0.35125,-1.56 0.35125,-2.8475 0,-1.247501 -0.1175,-1.950001 -0.35125,-2.768751 m 1.2475,6.630002 c -0.545,1.32625 -1.365,1.91 -2.612502,1.91 -1.323749,0 -2.104999,-0.58375 -2.651249,-1.91 -0.468751,-1.092501 -0.625001,-2.145001 -0.625001,-3.861251 0,-1.677501 0.15625,-2.807501 0.625001,-3.861251 0.585,-1.326251 1.365,-1.871251 2.651249,-1.871251 1.288751,0 2.067502,0.545 2.612502,1.910001 0.46875,1.0925 0.625,2.145 0.625,3.822501 0,1.71625 -0.15625,2.8075 -0.625,3.861251"
   style="fill:#000000;fill-opacity:1;fill-rule:nonzero;stroke:none"
   id="path7008" /><path
   inkscape:connector-curvature="0"
   d="m 56.797814,71.082682 c -0.27375,-0.975 -0.70375,-1.403751 -1.365,-1.403751 -0.703751,0 -1.131251,0.428751 -1.406251,1.365001 -0.27125,0.8575 -0.35,1.59875 -0.35,2.846251 0,1.21 0.1175,1.91125 0.35,2.80875 0.275,0.935001 0.7025,1.363751 1.406251,1.363751 0.66125,0 1.09125,-0.42875 1.365,-1.363751 0.2725,-0.8975 0.34875,-1.56 0.34875,-2.8475 0,-1.247501 -0.1175,-1.950001 -0.34875,-2.768751 m 1.25,6.630002 c -0.55,1.32625 -1.3675,1.91 -2.615,1.91 -1.326251,0 -2.107501,-0.58375 -2.653751,-1.91 -0.46625,-1.092501 -0.625,-2.145001 -0.625,-3.861251 0,-1.677501 0.15875,-2.807501 0.625,-3.861251 0.585,-1.326251 1.365,-1.871251 2.653751,-1.871251 1.28625,0 2.065,0.545 2.615,1.910001 0.46375,1.0925 0.622501,2.145 0.622501,3.822501 0,1.71625 -0.158751,2.8075 -0.622501,3.861251"
   style="fill:#000000;fill-opacity:1;fill-rule:nonzero;stroke:none"
   id="path7012" /><path
   inkscape:connector-curvature="0"
   d="m 68.027818,69.873052 0,2.80875 2.223748,0 0,1.521251 -2.223748,0 0,5.225001 -1.59625,0 0,-11.113753 5.653748,0 0,1.558751 -4.057498,0 z"
   style="fill:#000000;fill-opacity:1;fill-rule:nonzero;stroke:none"
   id="path7016" /><path
   inkscape:connector-curvature="0"
   d="m 76.411566,69.796181 0,9.632503 -1.59625,0 0,-9.632503 -2.02875,0 0,-1.4825 5.65625,0 0,1.4825 -2.03125,0 z"
   style="fill:#000000;fill-opacity:1;fill-rule:nonzero;stroke:none"
   id="path7020" /></svg>