<?xml version="1.0" encoding="UTF-8" standalone="no"?>
<!-- Created with Inkscape (http://www.inkscape.org/) -->

<svg
   version="1.0"
   width="90.001244"
   height="90.001251"
   id="svg2"
   inkscape:version="1.2.1 (9c6d41e410, 2022-07-14)"
   sodipodi:docname="MUTCD_W21-5bL.svg"
   xmlns:inkscape="http://www.inkscape.org/namespaces/inkscape"
   xmlns:sodipodi="http://sodipodi.sourceforge.net/DTD/sodipodi-0.dtd"
   xmlns="http://www.w3.org/2000/svg"
   xmlns:svg="http://www.w3.org/2000/svg"
   xmlns:rdf="http://www.w3.org/1999/02/22-rdf-syntax-ns#"
   xmlns:cc="http://creativecommons.org/ns#"
   xmlns:dc="http://purl.org/dc/elements/1.1/">
  <metadata
     id="metadata13">
    <rdf:RDF>
      <cc:Work
         rdf:about="">
        <dc:format>image/svg+xml</dc:format>
        <dc:type
           rdf:resource="http://purl.org/dc/dcmitype/StillImage" />
      </cc:Work>
    </rdf:RDF>
  </metadata>
  <sodipodi:namedview
     pagecolor="#ffffff"
     bordercolor="#666666"
     borderopacity="1"
     objecttolerance="10"
     gridtolerance="10"
     guidetolerance="10"
     inkscape:pageopacity="0"
     inkscape:pageshadow="2"
     inkscape:window-width="1920"
     inkscape:window-height="1017"
     id="namedview11"
     showgrid="false"
     fit-margin-top="0"
     fit-margin-left="0"
     fit-margin-right="0"
     fit-margin-bottom="0"
     inkscape:zoom="7.4167644"
     inkscape:cx="46.516241"
     inkscape:cy="39.505097"
     inkscape:window-x="-8"
     inkscape:window-y="1144"
     inkscape:window-maximized="1"
     inkscape:current-layer="svg2"
     inkscape:showpageshadow="2"
     inkscape:pagecheckerboard="0"
     inkscape:deskcolor="#d1d1d1" />
  <defs
     id="defs4" />
  <path
     inkscape:connector-curvature="0"
     d="M 1.2890625,41.877812 41.877813,1.2890625 c 1.71875,-1.71875 4.52875,-1.71875 6.245,0 L 88.714059,41.877813 c 1.71625,1.71875 1.71625,4.52875 0,6.245 L 48.122813,88.714067 c -1.71625,1.71625 -4.52625,1.71625 -6.245,0 L 1.2890625,48.122813 c -1.71875,-1.71625 -1.71875,-4.52625 0,-6.245 z"
     style="fill:#f4911d;fill-opacity:1;stroke:none"
     id="path3241" />
  <path
     inkscape:connector-curvature="0"
     d="M 2.2653125,42.525312 42.524062,2.2690625 c 1.3625,-1.3625 3.59125,-1.3625 4.95375,0 L 87.734058,42.525312 c 1.362501,1.3625 1.362501,3.59125 0,4.95375 L 47.477812,87.735316 c -1.3625,1.3625 -3.59125,1.3625 -4.95375,0 L 2.2653125,47.479062 c -1.3625,-1.3625 -1.3625,-3.59125 0,-4.95375"
     style="fill:#000000;fill-opacity:1;fill-rule:evenodd;stroke:none"
     id="path3245" />
  <path
     inkscape:connector-curvature="0"
     d="M 3.5253125,43.762812 43.762812,3.5253125 c 0.68125,-0.68 1.79625,-0.68 2.475,0 L 86.475308,43.762812 c 0.68,0.68125 0.68,1.79625 0,2.475 L 46.237812,86.475316 c -0.67875,0.681251 -1.79375,0.681251 -2.475,0 L 3.5253125,46.237812 c -0.68125,-0.67875 -0.68125,-1.79375 0,-2.475"
     style="fill:#f4911d;fill-opacity:1;fill-rule:evenodd;stroke:none"
     id="path3249" />
  <path
     d="m 68.85594,33.746563 c 0,0.71375 -0.40375,1.115 -1.1475,1.115 l -1.29875,0 0,-2.22875 1.29875,0 c 0.68375,0 1.1475,0.4325 1.1475,1.11375 m 1.2375,6.4725 -1.27,-4.33625 c 0.8375,-0.30875 1.27,-1.08375 1.27,-2.13625 0,-1.42375 -0.9275,-2.35375 -2.32125,-2.35375 l -2.6325,0 0,8.82625 1.27,0 0,-4.14875 1.20625,0 1.17625,4.14875 1.30125,0 z m -6.44,0 0,-1.2375 -3.2225,0 0,-2.91125 1.8275,0 0,-1.20875 -1.8275,0 0,-2.22875 2.88,0 0,-1.24 -4.15,0 0,8.82625 4.4925,0 z m -7.46625,-4.36625 c 0,0.68125 -0.06125,1.30125 -0.1225,1.8575 -0.12375,0.6825 -0.5275,1.27125 -1.26875,1.27125 l -1.055,0 0,-6.34875 1.055,0 c 0.55625,0 0.9275,0.2775 1.145,0.89625 0.15375,0.3725 0.24625,1.3325 0.24625,2.32375 m 1.24,-0.0625 c 0,-0.68125 -0.0925,-1.455 -0.2175,-2.10625 -0.15375,-0.89625 -0.5275,-1.57875 -1.05125,-1.95 -0.31,-0.2475 -0.68125,-0.34125 -1.42625,-0.34125 l -2.26125,0 0,8.82625 2.44625,0 c 0.49625,0 0.93125,-0.12375 1.24125,-0.4025 0.86625,-0.68125 1.26875,-1.98125 1.26875,-4.02625 m -6.16375,4.42875 0,-1.17625 -3.22125,0 0,-7.65 -1.26875,0 0,8.82625 4.49,0 z m -6.38,-2.63125 0,-6.195 -1.27,0 0,6.35 c 0,0.83625 -0.495,1.3925 -1.17625,1.3925 -0.7425,0 -1.2375,-0.55625 -1.2375,-1.3925 l 0,-6.35 -1.27,0 0,6.195 c 0,0.7125 0.0925,1.08375 0.34,1.5475 0.43375,0.74375 1.30125,1.245 2.1675,1.245 0.8375,0 1.6725,-0.5325 2.1075,-1.245 0.24625,-0.46375 0.33875,-0.835 0.33875,-1.5475 m -7.9275,-1.7975 c 0,1.0225 -0.06125,1.54875 -0.2775,2.26125 -0.2175,0.74375 -0.56,1.08375 -1.085,1.08375 -0.55875,0 -0.8975,-0.34 -1.115,-1.08375 -0.18625,-0.7125 -0.27875,-1.27 -0.27875,-2.23 0,-0.99125 0.06125,-1.57875 0.27875,-2.26 0.2175,-0.74375 0.55625,-1.08375 1.115,-1.08375 0.525,0 0.8675,0.34 1.085,1.11375 0.185,0.65125 0.2775,1.2075 0.2775,2.19875 m 1.20875,0 c 0,-1.33 -0.125,-2.1675 -0.495,-3.035 -0.435,-1.08375 -1.055,-1.5175 -2.07625,-1.5175 -1.0225,0 -1.6425,0.43375 -2.10625,1.4875 -0.37125,0.83625 -0.49625,1.735 -0.49625,3.065 0,1.36375 0.125,2.2 0.49625,3.06625 0.43375,1.05375 1.0525,1.52375 2.10625,1.52375 0.99125,0 1.64125,-0.47 2.07625,-1.52375 0.37,-0.83625 0.495,-1.7025 0.495,-3.06625 m -6.90625,4.42875 0,-8.82625 -1.27,0 0,3.59375 -2.4175,0 0,-3.59375 -1.26875,0 0,8.82625 1.26875,0 0,-3.99375 2.4175,0 0,3.99375 1.27,0 z m -6.44375,-2.415 c 0,-1.27 -0.74125,-2.23 -2.44625,-3.22125 -0.64875,-0.3725 -0.835,-0.61875 -0.835,-1.05375 0,-0.5875 0.46375,-1.02125 1.0525,-1.02125 0.55625,0 0.99125,0.4025 1.0225,1.02125 l 1.20625,0 c -0.02875,-1.33125 -0.99125,-2.29125 -2.22875,-2.29125 -1.26875,0 -2.26,1.0225 -2.26,2.29125 0,0.775 0.37,1.4575 1.08375,1.9525 1.79625,1.2075 1.30125,0.86625 1.48625,1.0525 0.525,0.4025 0.7125,0.775 0.7125,1.27 0,0.7125 -0.55875,1.33125 -1.24,1.33125 -0.86625,0 -1.2375,-0.77375 -1.2375,-1.5175 l -1.24,0 c 0,1.45625 0.93,2.7625 2.4775,2.7625 1.3625,0 2.44625,-1.1525 2.44625,-2.57625"
     style="fill:#000000;fill-opacity:1;fill-rule:evenodd;stroke:none"
     id="path3221"
     inkscape:connector-curvature="0" />
  <path
     d="m 61.80219,49.090313 c 0,0.68125 -0.06375,1.30125 -0.12375,1.8575 -0.125,0.68125 -0.5275,1.27 -1.27,1.27 l -1.0525,0 0,-6.34875 1.0525,0 c 0.55625,0 0.9275,0.27875 1.145,0.8975 0.15625,0.3725 0.24875,1.3325 0.24875,2.32375 m 1.2375,-0.0625 c 0,-0.68125 -0.0925,-1.455 -0.21625,-2.10625 -0.15375,-0.8975 -0.525,-1.57875 -1.0525,-1.95125 -0.31,-0.24625 -0.68125,-0.34 -1.42625,-0.34 l -2.26,0 0,8.82625 2.44875,0 c 0.495,0 0.9275,-0.12375 1.2375,-0.4025 0.86625,-0.68125 1.26875,-1.98125 1.26875,-4.02625 m -6.44,4.42875 0,-1.23875 -3.2225,0 0,-2.91125 1.82875,0 0,-1.2075 -1.82875,0 0,-2.23 2.88125,0 0,-1.23875 -4.15125,0 0,8.82625 4.4925,0 z m -5.97875,-2.41625 c 0,-1.26875 -0.7425,-2.22875 -2.44625,-3.22 -0.65,-0.3725 -0.835,-0.62 -0.835,-1.05375 0,-0.5875 0.46375,-1.02125 1.0525,-1.02125 0.55625,0 0.99125,0.4025 1.0225,1.02125 l 1.20625,0 c -0.03,-1.33125 -0.99125,-2.29125 -2.22875,-2.29125 -1.27,0 -2.26125,1.0225 -2.26125,2.29125 0,0.77375 0.37125,1.45625 1.08375,1.95125 1.7975,1.20875 1.30125,0.8675 1.4875,1.05375 0.525,0.4025 0.7125,0.77375 0.7125,1.26875 0,0.71375 -0.55875,1.3325 -1.24,1.3325 -0.8675,0 -1.2375,-0.77375 -1.2375,-1.5175 l -1.24125,0 c 0,1.45625 0.93125,2.76125 2.47875,2.76125 1.3625,0 2.44625,-1.15125 2.44625,-2.57625 m -7.46375,-2.0125 c 0,1.02125 -0.06125,1.54875 -0.2775,2.26125 -0.2175,0.7425 -0.5575,1.08375 -1.085,1.08375 -0.55625,0 -0.8975,-0.34125 -1.115,-1.08375 -0.18625,-0.7125 -0.27875,-1.27 -0.27875,-2.23 0,-0.99125 0.06375,-1.57875 0.27875,-2.26 0.2175,-0.74375 0.55875,-1.08375 1.115,-1.08375 0.5275,0 0.8675,0.34 1.085,1.11375 0.185,0.65125 0.2775,1.2075 0.2775,2.19875 m 1.20875,0 c 0,-1.3325 -0.125,-2.1675 -0.49625,-3.035 -0.43375,-1.08375 -1.05125,-1.5175 -2.075,-1.5175 -1.0225,0 -1.64,0.43375 -2.10625,1.48625 -0.37125,0.8375 -0.49625,1.73375 -0.49625,3.06625 0,1.36375 0.125,2.2 0.49625,3.06625 0.43375,1.05375 1.055,1.5225 2.10625,1.5225 0.99125,0 1.64125,-0.46875 2.075,-1.5225 0.37125,-0.83625 0.49625,-1.7025 0.49625,-3.06625 m -6.22625,4.42875 0,-1.1775 -3.22,0 0,-7.64875 -1.26875,0 0,8.82625 4.48875,0 z m -6.225,-6.4725 c -0.0925,-0.805 -0.215,-1.17625 -0.55625,-1.61125 -0.40375,-0.58875 -1.02375,-0.8975 -1.73375,-0.8975 -1.73625,0 -2.63375,1.5175 -2.63375,4.36625 0,3.2525 0.83625,4.775 2.72625,4.775 1.2375,0 2.16875,-1.05875 2.1975,-2.51375 l -1.27,0 c 0,0.65125 -0.185,1.27 -0.9275,1.27 -1.08375,0 -1.51875,-1.0225 -1.51875,-3.56125 0,-2.2925 0.37125,-3.09625 1.395,-3.09625 0.5875,0 0.93,0.40125 1.05125,1.26875 l 1.27,0 z"
     style="fill:#000000;fill-opacity:1;fill-rule:evenodd;stroke:none"
     id="path3229"
     inkscape:connector-curvature="0" />
  <path
     d="m 61.64224,60.966774 c 0,1.136626 -0.267322,2.063212 -0.776844,2.569719 -0.238179,0.239184 -0.506508,0.329631 -0.956736,0.329631 h -1.342645 v -5.796691 h 1.521531 c 0.360785,0 0.659263,0.149741 0.867293,0.35978 0.420079,0.447215 0.687401,1.402945 0.687401,2.537561 m 1.37581,0 c 0,-1.672277 -0.508517,-3.016933 -1.404954,-3.793778 -0.448218,-0.35777 -0.77584,-0.448218 -1.643133,-0.448218 h -2.747599 v 8.517157 h 2.597858 0.477363 c 0.449224,-0.03115 0.897442,-0.180896 1.225064,-0.479374 0.95573,-0.747701 1.495401,-2.092356 1.495401,-3.795787 m -9.831662,0.508518 h -1.701421 l 0.865282,-2.390834 z m 2.74961,3.766643 -2.928496,-8.517157 h -1.344655 l -2.928495,8.517157 h 1.435103 l 0.836139,-2.390834 h 2.659162 l 0.837143,2.390834 z m -7.856889,0 V 63.866124 H 44.135591 V 61.53559 h 2.47726 v -1.375811 h -2.47726 v -2.090346 h 3.674185 v -1.344655 h -5.018841 v 8.517157 z m -7.290083,0 v -8.517157 h -1.346665 v 3.435001 h -3.10537 v -3.435001 h -1.346666 v 8.517157 h 1.346666 V 61.53559 h 3.10537 v 3.706345 z m -9.831662,-3.766643 h -1.704436 l 0.868297,-2.390834 z m 2.747599,3.766643 -2.926484,-8.517157 h -1.346667 l -2.926484,8.517157 h 1.435104 l 0.836138,-2.390834 h 2.657151 l 0.836139,2.390834 z"
     style="fill:#000000;fill-opacity:1;fill-rule:evenodd;stroke:none;stroke-width:0.803979"
     id="path5926"
     inkscape:connector-curvature="0" />
  <path
     inkscape:connector-curvature="0"
     d="M 35.013421,27.811996 V 18.85546 h 1.25737 v 7.682868 h 3.244689 v 1.273668 z"
     style="fill:#000000;fill-opacity:1;fill-rule:nonzero;stroke:none;stroke-width:0.233651"
     id="path3225" />
  <path
     inkscape:connector-curvature="0"
     d="M 40.772803,27.811995 V 18.855497 H 45.2343 v 1.27363 h -3.244713 v 2.300753 h 1.946828 v 1.273629 h -1.946828 v 2.834856 H 45.2343 v 1.27363 z"
     style="fill:#000000;fill-opacity:1;fill-rule:nonzero;stroke:none;stroke-width:0.233651"
     id="path3237" />
  <path
     inkscape:connector-curvature="0"
     d="M 46.73497,27.811996 V 18.8555 h 4.502012 v 1.273671 H 47.99227 v 2.300711 h 1.946874 v 1.27363 H 47.99227 v 4.108484 z"
     style="fill:#000000;fill-opacity:1;fill-rule:nonzero;stroke:none;stroke-width:0.233651"
     id="path3249-0" />
  <path
     inkscape:connector-curvature="0"
     d="m 53.427181,27.812013 v -7.682867 h -1.622357 v -1.27363 h 4.461451 v 1.27363 h -1.62231 v 7.682867 z"
     style="fill:#000000;fill-opacity:1;fill-rule:nonzero;stroke:none;stroke-width:0.233651"
     id="path3261" />
</svg>
