<svg version="1.1" viewBox="0.95 0.95 18.1 6.1" xmlns="http://www.w3.org/2000/svg">
 <rect x="1" y="1" width="18" height="6" ry="1.5" fill="#fff" stroke="#000" stroke-width=".1"/>
 <rect x="1.5" y="1.5" width="17" height="5" ry="1" fill="#a6192e"/>
 <path transform="matrix(.003 0 0 -.003 10.439 5.5)" d="m789 1e3 -161-1e3h-124l-94 522-96-522h-125l-159 1e3h140l86-534 98 534h111l96-534 87 534zm699-1e3h-144l-70 274h-214l-67-274h-144l250 1e3h140zm-249 415-73 287-71-287zm948 585-249-548v-452h-144v452l-246 548h151l169-361 165 361zm-2729.666667-1e3h-509v1e3h144v-866h365zm-649 0h-509v1e3h144v-866h365zm-649 0h-144l-70 274h-214l-67-274h-144l250 1e3h140zm-249 415-73 287-71-287z" fill="#fff"/>
</svg>
