<?xml version="1.0" encoding="UTF-8" standalone="no"?>
<!-- Generator: Adobe Illustrator 12.0.1, SVG Export Plug-In  -->

<svg
   version="1.1"
   width="286.66199"
   height="286.66324"
   viewBox="-1 0 286.66199 286.66324"
   enable-background="new -1 0 289 288"
   xml:space="preserve"
   id="svg2"
   inkscape:version="1.2.1 (9c6d41e410, 2022-07-14)"
   sodipodi:docname="MUTCD_CW3-2A.svg"
   xmlns:inkscape="http://www.inkscape.org/namespaces/inkscape"
   xmlns:sodipodi="http://sodipodi.sourceforge.net/DTD/sodipodi-0.dtd"
   xmlns="http://www.w3.org/2000/svg"
   xmlns:svg="http://www.w3.org/2000/svg"
   xmlns:rdf="http://www.w3.org/1999/02/22-rdf-syntax-ns#"
   xmlns:cc="http://creativecommons.org/ns#"
   xmlns:dc="http://purl.org/dc/elements/1.1/"><metadata
   id="metadata36"><rdf:RDF><cc:Work
       rdf:about=""><dc:format>image/svg+xml</dc:format><dc:type
         rdf:resource="http://purl.org/dc/dcmitype/StillImage" /></cc:Work></rdf:RDF></metadata><sodipodi:namedview
   pagecolor="#ffffff"
   bordercolor="#666666"
   borderopacity="1"
   objecttolerance="10"
   gridtolerance="10"
   guidetolerance="10"
   inkscape:pageopacity="0"
   inkscape:pageshadow="2"
   inkscape:window-width="1920"
   inkscape:window-height="1017"
   id="namedview34"
   showgrid="false"
   fit-margin-top="0"
   fit-margin-left="0"
   fit-margin-right="0"
   fit-margin-bottom="0"
   inkscape:zoom="2.3177389"
   inkscape:cx="91.037002"
   inkscape:cy="140.65432"
   inkscape:window-x="-8"
   inkscape:window-y="1144"
   inkscape:window-maximized="1"
   inkscape:current-layer="svg2"
   inkscape:showpageshadow="2"
   inkscape:pagecheckerboard="0"
   inkscape:deskcolor="#d1d1d1" />
<defs
   id="defs4">
</defs>
<path
   d="M 3.09875,133.38675 132.37975,4.1047494 c 5.471,-5.473 14.421,-5.473 19.896,0 l 129.283,129.2820006 c 5.471,5.47 5.471,14.423 0,19.89 l -129.283,129.284 c -5.475,5.47 -14.425,5.47 -19.896,0 l -129.281,-129.285 c -5.465,-5.466 -5.465,-14.419 0,-19.889 z"
   id="path6"
   style="fill:#ffd033;stroke:none;fill-opacity:1"
   inkscape:connector-curvature="0" />

<path
   clip-rule="evenodd"
   d="M 6.22175,135.43975 134.44075,7.2207494 c 4.339,-4.339 11.442,-4.339 15.785,0 l 128.215,128.2190006 c 4.343,4.343 4.343,11.438 0,15.777 l -128.215,128.225 c -4.343,4.335 -11.446,4.335 -15.785,0 l -128.219,-128.225 c -4.338,-4.339 -4.338,-11.434 0,-15.777"
   id="path10"
   inkscape:connector-curvature="0"
   style="fill-rule:evenodd;stroke:none;fill:#000000" />
<path
   clip-rule="evenodd"
   d="m 10.22475,139.38975 128.162,-128.160001 c 2.162,-2.1699996 5.724,-2.1699996 7.889,0 l 128.16,128.160001 c 2.165,2.166 2.165,5.716 0,7.883 l -128.16,128.161 c -2.165,2.167 -5.727,2.167 -7.889,0 l -128.162,-128.161 c -2.165,-2.167 -2.165,-5.717 0,-7.883"
   id="path12"
   style="fill:#ffd033;fill-rule:evenodd;stroke:none;fill-opacity:1"
   inkscape:connector-curvature="0" />










<path
   style="fill:#f4911d;fill-opacity:1;stroke-width:0.431455"
   d="m 141.30151,276.35458 c -0.4746,-0.203 -30.22882,-29.75227 -66.120479,-65.66504 C 11.411835,146.88285 9.9234646,145.35629 9.9234646,143.75759 c 0,-0.89982 0.2788254,-2.16031 0.6196124,-2.8011 1.004455,-1.8887 129.739793,-130.289003 131.156973,-130.81563 0.6938,-0.2578181 1.85873,-0.3460264 2.58873,-0.1960185 1.03603,0.2128935 15.60888,14.5363095 66.4121,65.2753875 39.40651,39.356741 65.32809,65.562091 65.70141,66.420651 1.3953,3.20893 4.89846,-0.52646 -65.08894,69.40389 -35.65891,35.62984 -65.25847,64.99575 -65.77679,65.25757 -1.09867,0.55496 -3.00477,0.57847 -4.23505,0.0522 z"
   id="path17856"
   transform="translate(-1)" /><path
   style="fill:#f4911d;fill-opacity:1;stroke-width:0.431455"
   d="m 138.87771,285.67472 c -0.85848,-0.30677 -2.21756,-0.96881 -3.02018,-1.47118 -0.80262,-0.50238 -31.18437,-30.67661 -67.515013,-67.05386 C -4.9081461,143.80506 0.3945293,149.54836 0.38616213,143.54657 0.38118288,139.97493 1.2369138,137.48042 3.4407654,134.64221 4.3741415,133.44017 34.415561,103.21795 70.199473,67.48173 143.02829,-5.2500301 136.78461,0.46354712 143.45878,0.4423944 c 2.76046,-0.008749 3.88363,0.19491224 5.60892,1.0170531 1.75121,0.8344945 14.67259,13.5442325 68.6471,67.5227055 54.66069,54.664717 66.66864,66.878507 67.49497,68.651987 1.51974,3.26169 1.47123,8.22933 -0.11165,11.43356 -0.98768,1.99937 -11.68716,12.87284 -67.95416,69.05922 -61.48863,61.40053 -66.95289,66.74414 -68.93917,67.41697 -2.53611,0.85909 -7.10963,0.92324 -9.32708,0.13083 z m 10.03651,-4.27063 c 1.05445,-0.62766 30.50712,-29.77324 67.10358,-66.40393 48.26127,-48.3064 65.41594,-65.73412 65.96121,-67.0111 1.10444,-2.58648 1.03273,-6.85058 -0.15963,-9.49201 -0.81393,-1.8031 -11.68495,-12.8644 -66.21556,-67.374539 C 171.61616,27.151371 149.78509,5.6185518 148.59097,5.0251998 145.9108,3.6934292 142.94756,3.443502 139.95826,4.2970927 L 137.41841,5.0223397 71.684692,70.681059 C 18.335005,123.96987 5.7569746,136.7462 4.921248,138.49705 c -1.2374935,2.59255 -1.3630897,5.97975 -0.3371121,9.09156 0.6451977,1.9569 5.8606191,7.2928 65.4732941,66.98579 35.62474,35.67273 65.54887,65.39815 66.49807,66.05649 2.59038,1.79659 4.00752,2.18587 7.39699,2.03188 2.37832,-0.10804 3.51173,-0.39557 4.96173,-1.25868 z"
   id="path17858"
   transform="translate(-1)" /><path
   d="m 87.569235,186.24792 -3.416,-9.73 h -10.818 l -3.416,9.73 h -5.849 l 11.956,-34.678 h 5.435 l 11.956,34.678 z m -8.747,-25.05 -3.572,9.73 h 6.936 z"
   id="path14-6"
   inkscape:connector-curvature="0"
   style="fill:#000000;stroke:none" /><path
   d="m 117.74424,186.24792 v -15.113 h -12.629 v 15.113 h -5.486005 v -34.678 h 5.486005 v 13.975 h 12.629 v -13.975 h 5.486 v 34.678 z"
   id="path16-6"
   inkscape:connector-curvature="0"
   style="fill:#000000;stroke:none" /><path
   d="m 132.49524,186.24792 v -34.678 h 20.44401 v 5.486 h -14.95801 v 8.488 h 10.09301 v 5.59 h -10.09301 v 9.523 h 16.04501 v 5.59 h -21.53101 z"
   id="path18-8"
   inkscape:connector-curvature="0"
   style="fill:#000000;stroke:none" /><path
   d="m 181.30224,186.24792 -3.416,-9.73 h -10.817 l -3.416,9.73 h -5.84899 l 11.95599,-34.678 h 5.435 l 11.957,34.678 z m -8.747,-25.05 -3.571,9.73 h 6.936 z"
   id="path20-1"
   inkscape:connector-curvature="0"
   style="fill:#000000;stroke:none" /><path
   d="m 210.85624,184.28192 c -1.294,1.242 -3.157,1.863 -4.969,1.967 -0.362,0 -1.087,0 -1.967,0 h -10.559 v -34.678 h 11.18 c 3.52,0 4.865,0.362 6.729,1.812 3.623,3.157 5.694,8.644 5.694,15.476 0.001,6.934 -2.174,12.421 -6.108,15.423 z m -2.277,-25.776 c -0.88,-0.828 -2.07,-1.449 -3.52,-1.449 h -6.211 v 23.602 h 5.486 c 1.812,0 2.898,-0.362 3.882,-1.346 2.07,-2.07 3.157,-5.849 3.157,-10.455 10e-4,-4.658 -1.086,-8.54 -2.794,-10.352 z"
   id="path22-4"
   inkscape:connector-curvature="0"
   style="fill:#000000;stroke:none" /><path
   d="m 95.384235,122.39092 v 15.113 h -5.486 v -15.113 l -12.164,-19.564 h 6.573 l 8.282,13.405 8.385005,-13.405 h 6.47 z"
   id="path24-0"
   inkscape:connector-curvature="0"
   style="fill:#000000;stroke:none" /><path
   d="m 113.39624,137.50392 v -34.678 h 5.59 v 34.678 z"
   id="path26-9"
   inkscape:connector-curvature="0"
   style="fill:#000000;stroke:none" /><path
   d="m 127.26724,137.50392 v -34.678 h 20.44501 v 5.486 h -14.95901 v 8.488 h 10.09301 v 5.59 h -10.09301 v 9.523 h 16.04501 v 5.59 h -21.53101 z"
   id="path28-1"
   inkscape:connector-curvature="0"
   style="fill:#000000;stroke:none" /><path
   d="m 154.64625,137.50392 v -34.678 h 5.486 v 29.554 h 16.04599 v 5.124 z"
   id="path30-3"
   inkscape:connector-curvature="0"
   style="fill:#000000;stroke:none" /><path
   d="m 198.79724,135.53692 c -1.294,1.242 -3.157,1.863 -4.969,1.967 -0.362,0 -1.087,0 -1.967,0 h -10.559 v -34.678 h 11.18 c 3.52,0 4.865,0.362 6.729,1.812 3.623,3.157 5.694,8.644 5.694,15.476 0,6.935 -2.175,12.421 -6.108,15.423 z m -2.278,-25.775 c -0.88,-0.828 -2.07,-1.449 -3.52,-1.449 h -6.211 v 23.602 h 5.486 c 1.812,0 2.898,-0.362 3.882,-1.346 2.07,-2.07 3.157,-5.849 3.157,-10.455 0.001,-4.659 -1.086,-8.541 -2.794,-10.352 z"
   id="path32-5"
   inkscape:connector-curvature="0"
   style="fill:#000000;stroke:none" /></svg>
