<?xml version="1.0" encoding="UTF-8" standalone="no"?>
<!-- Generator: Adobe Illustrator 14.0.0, SVG Export Plug-In  -->

<svg
   xmlns:dc="http://purl.org/dc/elements/1.1/"
   xmlns:cc="http://creativecommons.org/ns#"
   xmlns:rdf="http://www.w3.org/1999/02/22-rdf-syntax-ns#"
   xmlns:svg="http://www.w3.org/2000/svg"
   xmlns="http://www.w3.org/2000/svg"
   xmlns:sodipodi="http://sodipodi.sourceforge.net/DTD/sodipodi-0.dtd"
   xmlns:inkscape="http://www.inkscape.org/namespaces/inkscape"
   version="1.1"
   x="0px"
   y="0px"
   width="136.62498"
   height="181.81248"
   viewBox="0 -0.321 136.62499 181.8125"
   enable-background="new 0 -0.321 144 120"
   xml:space="preserve"
   id="svg2"
   inkscape:version="0.48.2 r9819"
   sodipodi:docname="AJAX1.svg"><metadata
   id="metadata44"><rdf:RDF><cc:Work
       rdf:about=""><dc:format>image/svg+xml</dc:format><dc:type
         rdf:resource="http://purl.org/dc/dcmitype/StillImage" /><dc:title /></cc:Work></rdf:RDF></metadata><sodipodi:namedview
   pagecolor="#ffffff"
   bordercolor="#666666"
   borderopacity="1"
   objecttolerance="10"
   gridtolerance="10"
   guidetolerance="10"
   inkscape:pageopacity="0"
   inkscape:pageshadow="2"
   inkscape:window-width="1280"
   inkscape:window-height="1004"
   id="namedview42"
   showgrid="false"
   fit-margin-top="0"
   fit-margin-left="0"
   fit-margin-right="0"
   fit-margin-bottom="0"
   inkscape:zoom="2.6802662"
   inkscape:cx="72.189739"
   inkscape:cy="112.23042"
   inkscape:window-x="-8"
   inkscape:window-y="-8"
   inkscape:window-maximized="1"
   inkscape:current-layer="svg2" />
<defs
   id="defs4">
</defs>


















<path
   inkscape:connector-curvature="0"
   d="m 136.11415,169.69794 c 0,6.24125 -5.06125,11.30125 -11.30125,11.30125 l -113.018772,0 c -6.2412506,0 -11.30125064,-5.06 -11.30125064,-11.30125 l 0,-158.22625 c 0,-6.24126 5.06000004,-11.30126 11.30125064,-11.30126 l 113.018772,0 c 6.24,0 11.30125,5.06 11.30125,11.30126 l 0,158.22625 z"
   style="fill:#ffffff;fill-opacity:1;fill-rule:nonzero;stroke:#000000;stroke-width:1.00000012;stroke-miterlimit:4;stroke-opacity:1;stroke-dasharray:none"
   id="path3237" /><path
   inkscape:connector-curvature="0"
   d="m 128.57915,169.69794 c 0,2.07625 -1.68875,3.76625 -3.76625,3.76625 l -113.018772,0 c -2.0775006,0 -3.7675006,-1.69 -3.7675006,-3.76625 l 0,-158.22626 c 0,-2.07625 1.69,-3.76625 3.7675006,-3.76625 l 113.018772,0 c 2.0775,0 3.76625,1.69 3.76625,3.76625 l 0,158.22626 z M 124.8129,2.99543 l -113.018772,0 c -4.6737506,0 -8.4762506,3.8025 -8.4762506,8.47625 l 0,158.22626 c 0,4.6725 3.8025,8.475 8.4762506,8.475 l 113.018772,0 c 4.6725,0 8.47625,-3.8025 8.47625,-8.475 l 0,-158.22626 c 0,-4.67375 -3.80375,-8.47625 -8.47625,-8.47625"
   style="fill:#000000;fill-opacity:1;fill-rule:nonzero;stroke:none"
   id="path3245" /><path
   inkscape:connector-curvature="0"
   d="m 20.949128,96.60294 0,-6.81625 -4.1225,0 0,6.81625 -2.16625,0 0,-15.06 2.16625,0 0,6.13 4.1225,0 0,-6.13 2.16625,0 0,15.06 -2.16625,0 z"
   style="fill:#000000;fill-opacity:1;fill-rule:nonzero;stroke:none"
   id="path3275" /><path
   inkscape:connector-curvature="0"
   d="m 26.390378,96.60294 0,-15.06 7.08125,0 0,2.11375 -4.91375,0 0,3.80375 3.1175,0 0,2.0625 -3.1175,0 0,4.9675 5.495,0 0,2.1125 -7.6625,0 z"
   style="fill:#000000;fill-opacity:1;fill-rule:nonzero;stroke:none"
   id="path3279" /><path
   inkscape:connector-curvature="0"
   d="m 40.975378,83.65681 -2.22,0 0,3.80375 2.22,0 c 1.26875,0 1.955,-0.68625 1.955,-1.90125 0,-1.1625 -0.7925,-1.9025 -1.955,-1.9025 m 1.85,12.94625 -2.00875,-7.08125 -2.06125,0 0,7.08125 -2.16625,0 0,-15.06 4.4925,0 c 2.3775,0 3.9625,1.585 3.9625,4.01625 0,1.79625 -0.74,3.1175 -2.16625,3.64625 l 2.16625,7.3975 -2.21875,0 z"
   style="fill:#000000;fill-opacity:1;fill-rule:nonzero;stroke:none"
   id="path3283" /><path
   inkscape:connector-curvature="0"
   d="m 47.580378,96.60294 0,-15.06 7.08125,0 0,2.11375 -4.915,0 0,3.80375 3.1175,0 0,2.0625 -3.1175,0 0,4.9675 5.49625,0 0,2.1125 -7.6625,0 z"
   style="fill:#000000;fill-opacity:1;fill-rule:nonzero;stroke:none"
   id="path3287" /><path
   inkscape:connector-curvature="0"
   d="m 19.022878,149.97906 -2.22,0 0,4.28 2.22,0 c 1.2675,0 1.955,-0.7925 1.955,-2.165 0,-1.27 -0.7925,-2.115 -1.955,-2.115 m 0.10625,6.34125 -2.32625,0 0,6.60625 -2.16625,0 0,-15.06 4.4925,0 c 2.3775,0 3.9625,1.69 3.9625,4.2275 0,2.74625 -1.42625,4.22625 -3.9625,4.22625"
   style="fill:#000000;fill-opacity:1;fill-rule:nonzero;stroke:none"
   id="path3291" /><path
   inkscape:connector-curvature="0"
   d="m 25.152878,162.92669 0,-15.06 7.08125,0 0,2.1125 -4.91625,0 0,3.805 3.11875,0 0,2.06125 -3.11875,0 0,4.96625 5.49625,0 0,2.115 -7.66125,0 z"
   style="fill:#000000;fill-opacity:1;fill-rule:nonzero;stroke:none"
   id="path3295" /><path
   inkscape:connector-curvature="0"
   d="m 41.269138,151.51294 c -0.37,-1.05875 -1.00375,-1.53375 -1.955,-1.53375 l -1.7975,0 0,10.8325 1.7975,0 c 1.2675,0 1.955,-1.00375 2.16625,-2.165 0.10625,-0.95125 0.21125,-2.00875 0.21125,-3.17125 0,-1.69125 -0.1575,-3.32875 -0.4225,-3.9625 m 0.37,10.7275 c -0.52875,0.475 -1.26875,0.68625 -2.11375,0.68625 l -4.175,0 0,-15.06 3.8575,0 c 1.26875,0 1.9025,0.1575 2.43125,0.58125 0.89875,0.6325 1.5325,1.795 1.7975,3.32875 0.21,1.10875 0.36875,2.43 0.36875,3.59375 0,3.4875 -0.68625,5.70625 -2.16625,6.87"
   style="fill:#000000;fill-opacity:1;fill-rule:nonzero;stroke:none"
   id="path3299" /><path
   inkscape:connector-curvature="0"
   d="m 46.764128,162.92669 0,-15.06 7.08125,0 0,2.1125 -4.91375,0 0,3.805 3.1175,0 0,2.06125 -3.1175,0 0,4.96625 5.495,0 0,2.115 -7.6625,0 z"
   style="fill:#000000;fill-opacity:1;fill-rule:nonzero;stroke:none"
   id="path3303" /><path
   inkscape:connector-curvature="0"
   d="m 60.450378,163.19031 c -2.64125,0 -4.2275,-2.22 -4.2275,-4.7025 l 2.11375,0 c 0,1.2675 0.635,2.58875 2.11375,2.58875 1.1625,0 2.11375,-1.0575 2.11375,-2.27125 0,-0.84625 -0.31625,-1.48 -1.215,-2.1675 -0.3175,-0.3175 0.5275,0.26375 -2.53625,-1.7975 -1.21625,-0.845 -1.85,-2.0075 -1.85,-3.3275 0,-2.1675 1.69125,-3.91125 3.8575,-3.91125 2.11375,0 3.75125,1.6375 3.805,3.91125 l -2.06125,0 c -0.0525,-1.05875 -0.7925,-1.745 -1.74375,-1.745 -1.00375,0 -1.79625,0.74 -1.79625,1.745 0,0.73875 0.3175,1.16125 1.42625,1.795 2.90625,1.6925 4.175,3.33 4.175,5.4975 0,2.43 -1.85,4.385 -4.175,4.385"
   style="fill:#000000;fill-opacity:1;fill-rule:nonzero;stroke:none"
   id="path3307" /><path
   inkscape:connector-curvature="0"
   d="m 70.912878,149.87294 0,13.05375 -2.165,0 0,-13.05375 -2.74875,0 0,-2.00625 7.6625,0 0,2.00625 -2.74875,0 z"
   style="fill:#000000;fill-opacity:1;fill-rule:nonzero;stroke:none"
   id="path3311" /><path
   inkscape:connector-curvature="0"
   d="m 80.106628,149.97906 -2.21875,0 0,3.805 2.21875,0 c 1.26875,0 1.95625,-0.6875 1.95625,-1.90125 0,-1.16375 -0.7925,-1.90375 -1.95625,-1.90375 m 1.85125,12.9475 -2.01,-7.08125 -2.06,0 0,7.08125 -2.16625,0 0,-15.06 4.49125,0 c 2.37875,0 3.96375,1.58375 3.96375,4.01625 0,1.795 -0.74,3.1175 -2.16625,3.64625 l 2.16625,7.3975 -2.21875,0 z"
   style="fill:#000000;fill-opacity:1;fill-rule:nonzero;stroke:none"
   id="path3315" /><path
   inkscape:connector-curvature="0"
   d="m 86.713758,147.86644 2.1125,0 0,15.06 -2.1125,0 0,-15.06 z"
   style="fill:#000000;fill-opacity:1;fill-rule:nonzero;stroke:none"
   id="path3317" /><path
   inkscape:connector-curvature="0"
   d="m 95.749138,152.35794 -1.05751,4.3325 2.16751,0 -1.11,-4.3325 z m 2.695,10.56875 -1.05625,-4.12125 -3.22376,0 -1.00375,4.12125 -2.1675,0 3.75125,-15.06 2.11501,0 3.751262,15.06 -2.166262,0 z"
   style="fill:#000000;fill-opacity:1;fill-rule:nonzero;stroke:none"
   id="path3321" /><path
   inkscape:connector-curvature="0"
   d="m 109.48791,162.92669 -4.65125,-10.09375 0,10.09375 -2.165,0 0,-15.06 2.165,0 4.12375,9.035 0,-9.035 2.165,0 0,15.06 -1.6375,0 z"
   style="fill:#000000;fill-opacity:1;fill-rule:nonzero;stroke:none"
   id="path3325" /><path
   inkscape:connector-curvature="0"
   d="m 117.88916,163.19031 c -2.6425,0 -4.22625,-2.22 -4.22625,-4.7025 l 2.11375,0 c 0,1.2675 0.6325,2.58875 2.1125,2.58875 1.16375,0 2.11375,-1.0575 2.11375,-2.27125 0,-0.84625 -0.3175,-1.48 -1.21625,-2.1675 -0.3175,-0.3175 0.53,0.26375 -2.53625,-1.7975 -1.21375,-0.845 -1.84875,-2.0075 -1.84875,-3.3275 0,-2.1675 1.69,-3.91125 3.8575,-3.91125 2.115,0 3.7525,1.6375 3.80375,3.91125 l -2.06,0 c -0.0513,-1.05875 -0.79375,-1.745 -1.74375,-1.745 -1.0025,0 -1.79625,0.74 -1.79625,1.745 0,0.73875 0.3175,1.16125 1.42625,1.795 2.9075,1.6925 4.17375,3.33 4.17375,5.4975 0,2.43 -1.8475,4.385 -4.17375,4.385"
   style="fill:#000000;fill-opacity:1;fill-rule:nonzero;stroke:none"
   id="path3329" /><path
   inkscape:connector-curvature="0"
   d="m 91.434128,125.75294 0,13.05375 -2.16625,0 0,-13.05375 -2.74875,0 0,-2.0075 7.6625,0 0,2.0075 -2.7475,0 z"
   style="fill:#000000;fill-opacity:1;fill-rule:nonzero;stroke:none"
   id="path3333" /><path
   inkscape:connector-curvature="0"
   d="m 102.2654,127.49794 c -0.3675,-1.3225 -0.94875,-1.90375 -1.84875,-1.90375 -0.950012,0 -1.532512,0.58125 -1.902512,1.85125 -0.37,1.1625 -0.475,2.16625 -0.475,3.8575 0,1.6375 0.15875,2.58875 0.475,3.805 0.37,1.26625 0.9525,1.8475 1.902512,1.8475 0.9,0 1.48125,-0.58125 1.84875,-1.8475 0.37125,-1.21625 0.47625,-2.115 0.47625,-3.85875 0,-1.69125 -0.15875,-2.64125 -0.47625,-3.75125 m 1.6925,8.9825 c -0.74,1.7975 -1.85,2.59 -3.54125,2.59 -1.796262,0 -2.853762,-0.7925 -3.593762,-2.59 -0.6325,-1.47875 -0.845,-2.90625 -0.845,-5.23125 0,-2.2725 0.2125,-3.80375 0.845,-5.2325 0.7925,-1.795 1.85,-2.535 3.593762,-2.535 1.74375,0 2.80125,0.74 3.54125,2.58875 0.635,1.48 0.845,2.90625 0.845,5.17875 0,2.325 -0.21,3.805 -0.845,5.23125"
   style="fill:#000000;fill-opacity:1;fill-rule:nonzero;stroke:none"
   id="path3337" /><path
   inkscape:connector-curvature="0"
   d="m 45.887878,122.53669 10.8125,4.20375 c 1.0525,0.38375 1.7475,1.41375 1.69125,2.53875 -0.0662,1.32 -1.14625,2.3825 -2.4625,2.415 l -29.7625,4.1 -0.0562,-0.06 5.3175,-29.57 c 0.0875,-1.3125 1.1925,-2.3475 2.51625,-2.36 1.12375,-0.01 2.125,0.7275 2.465,1.79375 l 3.63125,10.5625 c 13.37125,-11.9375 30.66625,-18.4575 48.52875,-18.45625 5.3875,0 11.34001,0.8525 16.397522,2.0275 l -0.26625,16.1525 c -6.972512,-2.78 -15.410022,-4.515 -23.101272,-4.515 -12.65625,0 -25.3125,4.22 -35.71125,11.1675"
   style="fill:#000000;fill-opacity:1;fill-rule:evenodd;stroke:none"
   id="path3341" /><path
   inkscape:connector-curvature="0"
   d="m 101.8779,19.37332 -0.15625,-0.50125 c -0.1,-0.24625 -0.2025,-0.47625 -0.325,-0.71125 -0.13125,-0.2275 -0.26875,-0.44 -0.42125,-0.65375 -0.16375,-0.20625 -0.33,-0.39625 -0.5125,-0.585 -0.1925,-0.1825 -0.38375,-0.3475 -0.592512,-0.51 -0.21875,-0.1525 -0.43375,-0.28875 -0.66375,-0.42125 -0.2425,-0.12125 -0.47625,-0.22625 -0.7275,-0.32375 -0.26125,-0.0875 -0.51375,-0.15875 -0.78125,-0.22 -0.28,-0.0487 -0.54875,-0.0825 -0.83,-0.105 l -57.28625,-0.0138 c -0.285,0.008 -0.5525,0.0275 -0.83375,0.0638 -0.26625,0.0462 -0.5175,0.105 -0.7775,0.17875 -0.25,0.085 -0.48625,0.17875 -0.72875,0.28875 -0.23375,0.12 -0.4525,0.245 -0.67375,0.38875 -0.3625,0.2575 -0.67,0.52375 -0.975,0.84375 -0.1725,0.2 -0.32875,0.3975 -0.48,0.61125 -0.1425,0.22125 -0.26875,0.44 -0.38875,0.67375 -0.11,0.2425 -0.20375,0.47875 -0.28875,0.73 -0.1,0.35 -0.1675,0.68125 -0.21375,1.04375 -0.0163,0.21 -0.03,0.41875 -0.0275,0.63125 0.0225,0.8625 0.24625,1.69 0.63875,2.4575 l 28.65625,49.55625 c 0.0937,0.165 0.18875,0.3225 0.295,0.48125 0.175,0.24625 0.35875,0.4675 0.56625,0.6875 0.5275,0.5225 1.08875,0.905 1.76625,1.2075 l 0.33625,0.13 c 0.64875,0.21625 1.26625,0.31375 1.95125,0.30125 l 0.35625,-0.0237 c 0.73125,-0.0888 1.375,-0.29125 2.02625,-0.63375 l 0.3075,-0.17875 c 0.6175,-0.405 1.10625,-0.86875 1.54,-1.4675 l 0.19625,-0.30125 28.573762,-49.71625 c 0.36375,-0.6675 0.55875,-1.40125 0.6275,-2.15625 0.0412,-0.59875 -0.0175,-1.16625 -0.15375,-1.7525"
   style="fill:#af1e2d;fill-opacity:1;fill-rule:evenodd;stroke:none"
   id="path3249" /><path
   inkscape:connector-curvature="0"
   d="m 83.876638,24.96357 -31.8425,0 c -1.51,0 -2.7425,1.2325 -2.7425,2.7425 0,0.49375 0.13875,0.99625 0.38625,1.415 l 16.125,27.86375 c 0.47125,0.8675 1.4125,1.435 2.41,1.435 0.99625,0 1.94,-0.5675 2.41125,-1.435 l 16.01125,-27.85375 c 0.245,-0.4175 0.39625,-0.93125 0.39625,-1.425 0,-1.51 -1.2325,-2.7425 -3.155,-2.7425"
   style="fill:#ffffff;fill-opacity:1;fill-rule:evenodd;stroke:none"
   id="path3253" /><path
   inkscape:connector-curvature="0"
   d="m 60.484138,33.54756 0,3.12125 -0.99125,0 0,-3.12125 -1.69375,-3.775 1.04,0 1.16125,2.4925 1.1375,-2.4925 1.06375,0 -1.7175,3.775 z"
   style="fill:#af1e2d;fill-opacity:1;fill-rule:nonzero;stroke:none"
   id="path3257" /><path
   inkscape:connector-curvature="0"
   d="m 63.145018,29.77269 0.9675,0 0,6.89625 -0.9675,0 0,-6.89625 z"
   style="fill:#af1e2d;fill-opacity:1;fill-rule:nonzero;stroke:none"
   id="path3259" /><path
   inkscape:connector-curvature="0"
   d="m 70.282888,36.66832 0,-6.89625 0.99125,0 0,5.9775 2.5175,0 0,0.91875 -3.50875,0 z"
   style="fill:#af1e2d;fill-opacity:1;fill-rule:nonzero;stroke:none"
   id="path3267" /><path
   inkscape:connector-curvature="0"
   d="m 77.445398,31.44244 c -0.17,-0.48375 -0.46125,-0.7025 -0.89625,-0.7025 l -0.8225,0 0,4.96 0.8225,0 c 0.58125,0 0.89625,-0.45875 0.9925,-0.99125 0.0488,-0.43625 0.0962,-0.92 0.0962,-1.45125 0,-0.775 -0.0725,-1.525 -0.1925,-1.815 m 0.1675,4.91125 c -0.24125,0.2175 -0.58,0.315 -0.96625,0.315 l -1.91125,0 0,-6.89625 1.76625,0 c 0.58,0 0.87,0.0738 1.11125,0.26625 0.41125,0.29125 0.7025,0.8225 0.82375,1.525 0.0962,0.5075 0.16875,1.1125 0.16875,1.645 0,1.59625 -0.315,2.6125 -0.9925,3.145"
   style="fill:#af1e2d;fill-opacity:1;fill-rule:nonzero;stroke:none"
   id="path3271" /><path
   inkscape:connector-curvature="0"
   d="m 65.614138,36.66832 0,-6.89625 3.24125,0 0,0.96875 -2.25,0 0,1.74125 1.4275,0 0,0.945 -1.4275,0 0,2.2725 2.51625,0 0,0.96875 -3.5075,0 z"
   style="fill:#af1e2d;fill-opacity:1;fill-rule:nonzero;stroke:none"
   id="path3263" /></svg>