<?xml version="1.0" encoding="UTF-8" standalone="no"?>
<svg
   width="90.001869"
   height="89.999374"
   viewBox="0 0 254.00534 253.99822"
   version="1.1"
   id="svg2"
   inkscape:version="1.2.1 (9c6d41e410, 2022-07-14)"
   sodipodi:docname="MUTCD_W8-18.svg"
   xmlns:inkscape="http://www.inkscape.org/namespaces/inkscape"
   xmlns:sodipodi="http://sodipodi.sourceforge.net/DTD/sodipodi-0.dtd"
   xmlns="http://www.w3.org/2000/svg"
   xmlns:svg="http://www.w3.org/2000/svg"
   xmlns:rdf="http://www.w3.org/1999/02/22-rdf-syntax-ns#"
   xmlns:cc="http://creativecommons.org/ns#"
   xmlns:dc="http://purl.org/dc/elements/1.1/">
  <metadata
     id="metadata62">
    <rdf:RDF>
      <cc:Work
         rdf:about="">
        <dc:format>image/svg+xml</dc:format>
        <dc:type
           rdf:resource="http://purl.org/dc/dcmitype/StillImage" />
        <dc:title />
      </cc:Work>
    </rdf:RDF>
  </metadata>
  <defs
     id="defs60" />
  <sodipodi:namedview
     pagecolor="#ffffff"
     bordercolor="#666666"
     borderopacity="1"
     objecttolerance="10"
     gridtolerance="10"
     guidetolerance="10"
     inkscape:pageopacity="0"
     inkscape:pageshadow="2"
     inkscape:window-width="2048"
     inkscape:window-height="1089"
     id="namedview58"
     showgrid="false"
     fit-margin-top="0"
     fit-margin-left="0"
     fit-margin-right="0"
     fit-margin-bottom="0"
     inkscape:zoom="8.0000001"
     inkscape:cx="46.749999"
     inkscape:cy="47.124999"
     inkscape:window-x="-8"
     inkscape:window-y="-8"
     inkscape:window-maximized="1"
     inkscape:current-layer="svg2"
     inkscape:showpageshadow="2"
     inkscape:pagecheckerboard="0"
     inkscape:deskcolor="#d1d1d1" />
  <!-- draw the bicycle -->
  <!-- RIGHT -->
  <!-- LANE -->
  <!-- ONLY -->
  <path
     d="m 250.58958,118.75822 c 4.55436,4.55436 4.55436,11.92741 0,16.48178 L 135.23827,250.58778 c -4.5473,4.54731 -11.92742,4.54731 -16.47472,0 L 3.41577,135.24 c -4.55436,-4.55437 -4.55436,-11.92742 0,-16.48178 L 118.76355,3.4104407 c 4.54731,-4.547307 11.92742,-4.547307 16.47473,0 L 250.58958,118.75822 z"
     style="fill:#ffd033;fill-opacity:1;fill-rule:nonzero;stroke:none"
     id="path6352"
     inkscape:connector-curvature="0" />
  <path
     d="M 245.09683,129.74725 129.74905,245.09503 c -1.51694,1.50989 -3.97581,1.50989 -5.49275,0 L 8.90852,129.74725 c -1.51695,-1.51695 -1.51695,-3.98287 0,-5.49981 L 124.2563,8.8996637 c 1.51695,-1.509889 3.97581,-1.509889 5.49275,0 L 245.09683,124.24744 c 1.51694,1.51694 1.51694,3.98286 0,5.49981 m 3.20322,-8.70303 L 132.95228,5.6964407 c -3.28084,-3.280834 -8.6219,-3.280834 -11.8992,0 L 5.7053,121.04422 c -3.28084,3.28789 -3.28084,8.62189 0,11.90625 l 115.34778,115.35131 c 3.27731,3.27731 8.61836,3.27731 11.8992,0 L 248.30005,132.95047 c 3.28084,-3.28436 3.28084,-8.61836 0,-11.90625"
     style="fill:#000000;fill-opacity:1;fill-rule:nonzero;stroke:none"
     id="path6360"
     inkscape:connector-curvature="0" />
  <path
     style="fill:#f4911d;fill-opacity:1;stroke-width:0.125"
     d="M 23.664112,66.406249 C 9.4122024,52.150536 2.9250787,45.580269 2.8681444,45.343749 c -0.045511,-0.189062 -0.045511,-0.498437 0,-0.6875 0.056934,-0.23652 6.544058,-6.806786 20.7959676,-21.062499 L 44.377334,2.875 h 0.622665 0.622665 l 20.713223,20.71875 c 14.251909,14.255713 20.739033,20.825979 20.795967,21.062499 0.04551,0.189063 0.04551,0.498438 0,0.6875 -0.05693,0.23652 -6.544058,6.806787 -20.795967,21.0625 l -20.713223,20.71875 h -0.622665 -0.622665 z"
     id="path16000"
     transform="scale(2.8222225)" />
  <path
     style="fill:#f4911d;fill-opacity:1;stroke-width:0.125"
     d="M 44.326831,89.84691 C 43.956588,89.792061 43.390401,89.6039 43.068636,89.428774 42.661642,89.20726 36.129595,82.750518 21.603837,68.211432 4.6037117,51.195707 0.66898053,47.196369 0.42761011,46.687499 c -0.23966807,-0.50528 -0.29645425,-0.828523 -0.29645425,-1.6875 0,-0.858976 0.0567862,-1.18222 0.29645425,-1.6875 C 0.66898053,42.803629 4.6037117,38.804292 21.603837,21.788567 36.129595,7.2494815 42.661642,0.79273872 43.068636,0.57122456 c 1.127733,-0.6137894 2.738195,-0.61204733 3.87042,0.004187 0.396841,0.21598836 7.104988,6.84786994 21.457106,21.21315544 17.000126,17.015725 20.934857,21.015062 21.176227,21.523932 0.239667,0.50528 0.296454,0.828524 0.296454,1.6875 0,0.858977 -0.05679,1.18222 -0.296454,1.6875 -0.24137,0.50887 -4.176101,4.508208 -21.176227,21.523933 -14.352118,14.365286 -21.060265,20.997167 -21.457106,21.213156 -0.71577,0.38957 -1.728308,0.553268 -2.612225,0.422322 z m 1.985668,-1.22988 c 0.441778,-0.198292 5.006614,-4.697971 21.269603,-20.966005 14.759623,-14.764202 20.789901,-20.875087 20.995376,-21.276026 0.371538,-0.724971 0.39754,-1.957196 0.05671,-2.6875 C 88.47161,43.339144 82.103655,36.886341 67.637919,22.411472 51.325639,6.0888947 46.754424,1.5813256 46.312499,1.382968 45.563083,1.0465935 44.437147,1.0465349 43.687499,1.3828316 43.245429,1.5811469 38.679751,6.0833177 22.362361,22.411336 7.9111977,36.871912 1.5287026,43.339491 1.3660927,43.687499 c -0.3411457,0.730102 -0.3152759,1.962205 0.056428,2.6875 0.205476,0.400939 6.2357528,6.511824 20.9953763,21.276026 16.262989,16.268034 20.827825,20.767713 21.269602,20.966005 0.362597,0.162751 0.829039,0.252479 1.3125,0.252479 0.483462,0 0.949904,-0.08973 1.3125,-0.252479 z"
     id="path16002"
     transform="scale(2.8222225)" />
  <path
     d="m 96.468851,71.839663 c 0,-2.568223 -1.06892,-3.919362 -3.20323,-4.042834 h -5.4998 v 8.089196 h 5.4998 c 2.13431,-0.123472 3.20323,-1.467556 3.20323,-4.046362 m 4.349749,22.676561 h -4.508499 l -4.09928,-14.27692 h -4.445 v 14.27692 h -4.35328 V 63.440022 h 9.63436 c 1.65806,0.144639 2.58939,0.243417 2.794,0.282223 1.43581,0.331611 2.55059,1.016 3.3655,2.053167 1.072449,1.386417 1.612199,3.404306 1.612199,6.057196 0,3.831167 -1.442859,6.360584 -4.328589,7.581196 z"
     style="fill:#000000;fill-opacity:1;fill-rule:nonzero;stroke:none"
     id="path6364"
     inkscape:connector-curvature="0" />
  <path
     d="m 119.47702,78.979887 c 0,-2.652889 -0.27516,-4.963584 -0.81491,-6.932085 -0.80433,-3.051528 -2.14137,-4.575529 -4.00756,-4.575529 -1.86972,0 -3.20675,1.524001 -4.01108,4.575529 -0.53975,1.968501 -0.80786,4.279196 -0.80786,6.932085 0,2.65289 0.26811,4.967112 0.80786,6.935613 0.80433,3.048001 2.14136,4.568473 4.01108,4.568473 1.86619,0 3.20323,-1.520472 4.00756,-4.568473 0.53975,-1.968501 0.81491,-4.282723 0.81491,-6.935613 m 4.34623,0 c 0,3.817057 -0.43392,6.977946 -1.30175,9.486197 -1.49578,4.250973 -4.11339,6.374696 -7.86695,6.374696 -3.75003,0 -6.3747,-2.123723 -7.86342,-6.374696 -0.87489,-2.508251 -1.30881,-5.66914 -1.30881,-9.486197 0,-10.569225 3.05859,-15.860893 9.17223,-15.860893 6.11011,0 9.1687,5.291668 9.1687,15.860893"
     style="fill:#000000;fill-opacity:1;fill-rule:nonzero;stroke:none"
     id="path6368"
     inkscape:connector-curvature="0" />
  <path
     d="m 139.90639,81.784474 -2.42711,-10.110614 -2.45181,10.110614 z m 7.5177,12.731753 h -4.44501 l -2.01789,-8.378474 h -6.98852 l -2.01789,8.378474 H 127.538 l 7.51769,-31.076202 h 4.8507 z"
     style="fill:#000000;fill-opacity:1;fill-rule:nonzero;stroke:none"
     id="path6372"
     inkscape:connector-curvature="0" />
  <path
     d="m 164.82662,79.001054 c 0,-7.471835 -1.76389,-11.204225 -5.28462,-11.204225 h -3.41841 v 22.404922 h 3.41841 c 3.52073,0 5.28462,-3.73239 5.28462,-11.200697 m 4.34975,-0.01411 c 0,6.212418 -1.22061,10.615086 -3.66536,13.200947 -1.49578,1.576917 -3.25262,2.363612 -5.28814,2.363612 h -0.68087 -7.77169 v -31.11148 h 8.11036 c 2.032,0 3.77472,0.670278 5.22111,1.993195 2.71639,2.487084 4.07459,6.999113 4.07459,13.553726"
     style="fill:#000000;fill-opacity:1;fill-rule:nonzero;stroke:none"
     id="path6376"
     inkscape:connector-curvature="0" />
  <path
     d="m 114.47463,141.12171 h -4.34975 v -17.399 l -5.89844,17.399 -5.894929,-17.399 v 17.399 h -4.3568 v -31.06915 h 4.34975 l 5.894919,17.39901 5.9055,-17.39901 h 4.34975 z"
     style="fill:#000000;fill-opacity:1;fill-rule:nonzero;stroke:none"
     id="path6380"
     inkscape:connector-curvature="0" />
  <path
     d="m 131.20371,128.39348 -2.42005,-10.10708 -2.45887,10.10708 z m 7.52475,12.72823 h -4.445 l -2.01789,-8.37847 h -6.99558 l -2.01789,8.37847 h -4.41678 l 7.52475,-31.06915 h 4.84364 z"
     style="fill:#000000;fill-opacity:1;fill-rule:nonzero;stroke:none"
     id="path6384"
     inkscape:connector-curvature="0" />
  <path
     d="m 160.47334,110.05256 -7.76464,16.74284 v 14.32631 h -4.34975 V 126.7954 l -7.7717,-16.74284 h 4.69195 l 5.24933,11.24656 5.22464,-11.24656 z"
     style="fill:#000000;fill-opacity:1;fill-rule:nonzero;stroke:none"
     id="path6388"
     inkscape:connector-curvature="0" />
  <path
     d="m 89.318041,161.01486 h -11.4935 v 8.08919 h 6.82978 v 4.35328 h -6.82978 v 14.27692 h -4.35328 v -31.07619 h 15.84678 z"
     style="fill:#000000;fill-opacity:1;fill-rule:nonzero;stroke:none"
     id="path6392"
     inkscape:connector-curvature="0" />
  <path
     d="M 109.51105,187.73425 H 93.664261 v -31.07619 h 4.35681 v 26.71938 h 11.489979 z"
     style="fill:#000000;fill-opacity:1;fill-rule:nonzero;stroke:none"
     id="path6396"
     inkscape:connector-curvature="0" />
  <path
     d="m 127.24166,172.19438 c 0,-2.64936 -0.26811,-4.96711 -0.80786,-6.9356 -0.81138,-3.048 -2.14841,-4.56847 -4.01461,-4.56847 -1.86267,0 -3.1997,1.52047 -4.01108,4.56847 -0.53623,1.96849 -0.80786,4.28624 -0.80786,6.9356 0,2.65289 0.27164,4.97064 0.80786,6.93914 0.81138,3.04801 2.14841,4.56848 4.01108,4.56848 1.8662,0 3.20323,-1.52047 4.01461,-4.56848 0.53975,-1.9685 0.80786,-4.28625 0.80786,-6.93914 m 4.35328,0 c 0,3.82059 -0.44097,6.98148 -1.3088,9.48973 -1.49578,4.24392 -4.11339,6.37469 -7.86695,6.37469 -3.75003,0 -6.36764,-2.13077 -7.86342,-6.37469 -0.86783,-2.50825 -1.30175,-5.66914 -1.30175,-9.48973 0,-10.56921 3.05153,-15.86088 9.16517,-15.86088 6.11717,0 9.17575,5.29167 9.17575,15.86088"
     style="fill:#000000;fill-opacity:1;fill-rule:nonzero;stroke:none"
     id="path6400"
     inkscape:connector-curvature="0" />
  <path
     d="m 151.16353,172.19438 c 0,-2.64936 -0.26811,-4.96711 -0.80433,-6.9356 -0.80786,-3.048 -2.14489,-4.56847 -4.01109,-4.56847 -1.86619,0 -3.20322,1.52047 -4.01108,4.56847 -0.53622,1.96849 -0.81139,4.28624 -0.81139,6.9356 0,2.65289 0.27517,4.97064 0.81139,6.93914 0.80786,3.04801 2.14489,4.56848 4.01108,4.56848 1.8662,0 3.20323,-1.52047 4.01109,-4.56848 0.53622,-1.9685 0.80433,-4.28625 0.80433,-6.93914 m 4.35681,0 c 0,3.82059 -0.43745,6.98148 -1.31234,9.48973 -1.48519,4.24392 -4.11339,6.37469 -7.85989,6.37469 -3.75708,0 -6.37469,-2.13077 -7.87047,-6.37469 -0.86784,-2.50825 -1.30175,-5.66914 -1.30175,-9.48973 0,-10.56921 3.05858,-15.86088 9.17222,-15.86088 6.11012,0 9.17223,5.29167 9.17223,15.86088"
     style="fill:#000000;fill-opacity:1;fill-rule:nonzero;stroke:none"
     id="path6404"
     inkscape:connector-curvature="0" />
  <path
     d="m 174.77143,172.21555 c 0,-7.4683 -1.76389,-11.20069 -5.28815,-11.20069 h -3.42194 v 22.40492 h 3.42194 c 3.52426,0 5.28815,-3.73239 5.28815,-11.20423 m 4.34622,-0.0212 c 0,6.22301 -1.22061,10.61862 -3.66536,13.21153 -1.49578,1.57692 -3.25262,2.36362 -5.28462,2.36362 h -0.68439 -7.77169 v -31.11147 h 8.11036 c 2.032,0 3.77826,0.66322 5.22464,1.99319 2.71287,2.48709 4.07106,6.9991 4.07106,13.54313"
     style="fill:#000000;fill-opacity:1;fill-rule:nonzero;stroke:none"
     id="path6408"
     inkscape:connector-curvature="0" />
</svg>
