<?xml version="1.0" encoding="UTF-8" standalone="no"?>
<!-- Created with Inkscape (http://www.inkscape.org/) -->

<svg
   xmlns:ns="http://ns.adobe.com/SaveForWeb/1.0/"
   xmlns:dc="http://purl.org/dc/elements/1.1/"
   xmlns:cc="http://creativecommons.org/ns#"
   xmlns:rdf="http://www.w3.org/1999/02/22-rdf-syntax-ns#"
   xmlns:svg="http://www.w3.org/2000/svg"
   xmlns="http://www.w3.org/2000/svg"
   xmlns:sodipodi="http://sodipodi.sourceforge.net/DTD/sodipodi-0.dtd"
   xmlns:inkscape="http://www.inkscape.org/namespaces/inkscape"
   version="1.1"
   width="2170"
   height="2710"
   viewBox="0 0 2170 2710"
   id="svg2"
   xml:space="preserve"
   inkscape:version="0.48.2 r9819"
   sodipodi:docname="AJAX1.svg"><sodipodi:namedview
   pagecolor="#ffffff"
   bordercolor="#666666"
   borderopacity="1"
   objecttolerance="10"
   gridtolerance="10"
   guidetolerance="10"
   inkscape:pageopacity="0"
   inkscape:pageshadow="2"
   inkscape:window-width="1280"
   inkscape:window-height="1004"
   id="namedview9"
   showgrid="false"
   fit-margin-top="0"
   fit-margin-left="0"
   fit-margin-right="0"
   fit-margin-bottom="0"
   inkscape:zoom="0.12642213"
   inkscape:cx="1173.7689"
   inkscape:cy="1839.4384"
   inkscape:window-x="-8"
   inkscape:window-y="-8"
   inkscape:window-maximized="1"
   inkscape:current-layer="svg2" /><defs
   id="defs11" />
<metadata
   id="metadata3">
	<ns:sfw>
		<ns:slices />
		<ns:sliceSourceBounds
   bottomLeftOrigin="true"
   x="-75"
   y="93"
   width="745"
   height="655" />
	</ns:sfw>
	<rdf:RDF>
		<cc:Work
   rdf:about="">
			<dc:format>image/svg+xml</dc:format>
			<dc:type
   rdf:resource="http://purl.org/dc/dcmitype/StillImage" />
			<dc:title></dc:title>
		</cc:Work>
	</rdf:RDF>
	<ns:sfw>
		<ns:slices />
		<ns:sliceSourceBounds
   bottomLeftOrigin="true"
   x="-75"
   y="93"
   width="745"
   height="655" />
	</ns:sfw>
</metadata>




<path
   inkscape:connector-curvature="0"
   style="fill:#ffffff;fill-rule:nonzero;stroke:#000000;stroke-width:10;stroke-linecap:butt;stroke-linejoin:miter;stroke-miterlimit:4;stroke-opacity:1;stroke-dasharray:none"
   d="m 2165,2570 c 0,74.5625 -60.4375,135 -135,135 l -1890,0 C 65.440625,2705 5,2644.5625 5,2570 L 5,140 C 5,65.440625 65.440625,5 140,5 l 1890,0 c 74.5625,0 135,60.440625 135,135 l 0,2430 z"
   id="path11" /><path
   inkscape:connector-curvature="0"
   style="fill:#000000;fill-rule:nonzero;stroke:none"
   d="M 140,2671.25 C 84.169875,2671.25 38.75,2625.825 38.75,2570 l 0,-2430 C 38.75,84.169875 84.169875,38.75 140,38.75 l 1890,0 c 55.825,0 101.25,45.419875 101.25,101.25 l 0,2430 c 0,55.825 -45.425,101.25 -101.25,101.25 l -1890,0 z"
   id="path13" /><path
   inkscape:connector-curvature="0"
   style="fill:#ffffff;fill-rule:nonzero;stroke:none"
   d="m 140,2615 c -24.81325,0 -45,-20.1875 -45,-45 L 95,140 c 0,-24.81325 20.18675,-45 45,-45 l 1890,0 c 24.8125,0 45,20.18675 45,45 l 0,2430 c 0,24.8125 -20.1875,45 -45,45 l -1890,0 z"
   id="path15" /><path
   inkscape:connector-curvature="0"
   style="fill:#000000;fill-rule:nonzero;stroke:none"
   d="m 966.93875,2132.525 c -11.39625,-18.95 -25.325,-26.5375 -46.85125,-27.7875 -27.85875,-1.275 -45.585,12.625 -58.24625,44.2 -8.865,21.475 -13.92875,54.325 -13.92875,84.6375 0,37.8875 7.595,77.05 21.52375,99.7875 11.39875,18.95 26.59125,27.7875 49.385,27.7875 26.59125,0 43.05125,-13.9 55.715,-45.475 7.5975,-18.95 13.9275,-54.3125 13.9275,-82.1 0,-40.425 -7.5975,-77.05 -21.525,-101.05 z m 39.25245,246.3125 c -20.2612,27.7875 -49.38495,40.425 -87.36995,40.425 -50.65,0 -82.3075,-20.2125 -103.83375,-64.425 -15.1925,-30.3125 -25.3225,-78.3125 -25.3225,-121.2625 0,-59.375 15.19375,-112.425 39.25375,-146.525 21.525,-27.8 50.64875,-40.425 92.43375,-40.425 45.58625,0 77.24125,20.2125 100.0337,64.425 15.1938,31.575 24.0576,77.05 24.0576,122.525 0,56.8375 -13.9275,113.675 -39.2526,145.2625 z"
   id="path17" /><path
   inkscape:connector-curvature="0"
   style="fill:#000000;fill-rule:nonzero;stroke:none"
   d="m 490.59625,2412.5 0,-48 164.22125,-255.1625 -150.3275,0 0,-56.8375 231.17375,0 0,34.1 -166.7475,267.7875 166.7475,0 0,58.1125 -245.0675,0 z"
   id="path19" /><path
   inkscape:connector-curvature="0"
   style="fill:#000000;fill-rule:nonzero;stroke:none"
   d="m 1319.1875,2412.5 -137.6987,-243.7875 0,243.7875 -56.845,0 0,-360 56.845,0 131.3737,229.9 0,-229.9 56.85,0 0,360 -50.525,0 z"
   id="path21" /><path
   inkscape:connector-curvature="0"
   style="fill:#000000;fill-rule:nonzero;stroke:none"
   d="m 1456.1126,2412.5 0,-360 211.9375,0 0,56.8375 -155.175,0 0,88.425 104.7125,0 0,58.1 -104.7125,0 0,98.525 166.525,0 0,58.1125 -223.2875,0 z"
   id="path23" /><path
   inkscape:connector-curvature="0"
   style="fill:#000000;fill-rule:nonzero;stroke:none"
   d="m 1072.2713,1827.5 -137.69505,-243.8 0,243.8 -56.84625,0 0,-360 56.84625,0 131.37625,229.8875 0,-229.8875 56.845,0 0,360 -50.5262,0 z"
   id="path25" /><path
   inkscape:connector-curvature="0"
   style="fill:#000000;fill-rule:nonzero;stroke:none"
   d="m 733.73,1827.5 0,-360 57.6,0 0,360 -57.6,0 z"
   id="path27" /><path
   inkscape:connector-curvature="0"
   style="fill:#000000;fill-rule:nonzero;stroke:none"
   d="m 1678.1875,1805.575 c -20.2125,17.6875 -48,27.8 -78.3125,27.8 -61.9,0 -107.375,-36.6375 -131.3875,-90.95 l 54.325,-20.2125 c 15.1625,34.1 42.9501,53.05 77.0625,53.05 32.8376,0 55.5751,-22.7375 55.5751,-53.05 0,-48 -55.5751,-55.575 -102.3251,-74.525 -21.4749,-8.8375 -69.4749,-30.3125 -69.4749,-89.6875 0,-70.7375 48,-97.2625 112.4375,-97.2625 50.525,0 84.625,29.05 102.3125,73.2625 l -50.5251,15.1625 c 0,0 -12.6375,-30.3125 -53.0625,-31.575 -26.525,-1.275 -58.0999,8.8375 -55.575,41.675 5.05,66.95 174.325,22.7375 174.325,164.2125 0,32.8375 -12.6375,61.9 -35.375,82.1 z"
   id="path29" /><path
   inkscape:connector-curvature="0"
   style="fill:#000000;fill-rule:nonzero;stroke:none"
   d="m 1209.1988,1827.5 0,-360 211.9388,0 0,56.8375 -155.175,0 0,88.425 104.7125,0 0,58.1 -104.7125,0 0,98.525 166.525,0 0,58.1125 -223.2888,0 z"
   id="path31" /><path
   inkscape:connector-curvature="0"
   style="fill:#000000;fill-rule:nonzero;stroke:none"
   d="m 513.20875,1524.3375 0,88.425 104.705,0 0,58.1 -104.705,0 0,156.6375 -56.77,0 0,-360 223.29125,0 0,56.8375 -166.52125,0 z"
   id="path33" /><path
   inkscape:connector-curvature="0"
   style="fill:#000000;fill-rule:nonzero;stroke:none"
   d="m 589.685,1242.4963 0,-360.00255 57.6,0 0,360.00255 -57.6,0 z"
   id="path35" /><path
   inkscape:connector-curvature="0"
   style="fill:#000000;fill-rule:nonzero;stroke:none"
   d="m 1824.6126,945.6525 c -8.8375,-5.05375 -13.8875,-6.31625 -32.8375,-6.31625 l -68.2126,0 0,88.42125 68.2126,0 c 17.6875,0 24,-1.2625 32.8375,-6.3137 13.9,-7.5813 22.75,-22.74 22.75,-37.8963 0,-15.15875 -8.85,-30.3175 -22.75,-37.895 z m 25.275,296.8425 -58.1125,-156.6337 -68.2125,0 0,156.6337 -56.85,0 0,-360.00125 118.75,0 c 27.7875,0 46.7375,2.52625 64.425,11.36875 31.575,15.15875 54.3125,53.0525 54.3125,89.685 0,37.8963 -22.7375,75.7887 -55.575,90.9475 l 63.1625,168 -61.9,0 z"
   id="path37" /><path
   inkscape:connector-curvature="0"
   style="fill:#000000;fill-rule:nonzero;stroke:none"
   d="m 446.44125,1242.4963 0,-156.6338 -131.38,0 0,156.6338 -56.845,0 0,-360.00255 56.845,0 0,145.26255 131.38,0 0,-145.26255 56.845,0 0,360.00255 -56.845,0 z"
   id="path39" /><path
   inkscape:connector-curvature="0"
   style="fill:#000000;fill-rule:nonzero;stroke:none"
   d="m 1238.98,1242.4963 0,-156.6338 -131.38,0 0,156.6338 -56.845,0 0,-360.00255 56.845,0 0,145.26255 131.38,0 0,-145.26255 56.8451,0 0,360.00255 -56.8451,0 z"
   id="path41" /><path
   inkscape:connector-curvature="0"
   style="fill:#000000;fill-rule:nonzero;stroke:none"
   d="m 1382.2251,1242.4963 0,-360.00255 211.9375,0 0,56.8425 -155.175,0 0,88.42255 104.7124,0 0,58.105 -104.7124,0 0,98.5262 166.5249,0 0,58.1063 -223.2874,0 z"
   id="path43" /><path
   inkscape:connector-curvature="0"
   style="fill:#000000;fill-rule:nonzero;stroke:none"
   d="m 857.8625,1248.8113 c -54.32,0 -85.90125,-20.2125 -107.37625,-65.6863 -15.15875,-31.5762 -24.00125,-75.7875 -24.00125,-119.9987 0,-58.1051 16.42125,-114.9488 40.4225,-146.52755 21.4775,-26.525 51.79375,-40.42 92.21875,-40.42 55.58375,0 88.4275,22.7375 112.4275,79.58 l -54.31875,21.4725 c -15.15875,-31.58 -30.3175,-42.9475 -58.10875,-42.9475 -29.055,0 -48.005,12.63125 -60.63625,44.21125 -8.84375,21.4737 -13.8975,54.3163 -13.8975,84.6313 0,37.895 6.31625,75.79 17.68625,98.5275 11.36875,20.21 27.7925,29.0525 49.2675,29.0525 36.6325,0 63.16375,-22.7375 63.16375,-55.5788 l 0,-15.1587 -65.69125,0 0,-56.8425 122.535,0 0,72.0012 c 0,65.6838 -48.00125,113.6838 -113.69125,113.6838 z"
   id="path45" /><path
   inkscape:connector-curvature="0"
   style="fill:#000000;fill-rule:nonzero;stroke:none"
   d="m 1133.5175,657.50125 -137.69625,-243.79 0,243.79 -56.845,0 0,-360.00125 56.845,0 131.37875,229.89625 0,-229.89625 56.845,0 0,360.00125 -50.5275,0 z"
   id="path47" /><path
   inkscape:connector-curvature="0"
   style="fill:#000000;fill-rule:nonzero;stroke:none"
   d="m 1428.3501,369.5 c -8.8375,-8.84375 -21.475,-15.15875 -36.625,-15.15875 l -64.4375,0 0,245.055 56.85,0 c 18.95,0 30.325,-3.79 40.4249,-13.895 21.475,-21.47375 32.85,-60.63375 32.85,-108.635 0,-47.9975 -11.375,-88.41875 -29.0625,-107.36625 z m 24,267.79125 c -13.8875,12.6325 -32.8375,18.9475 -51.7875,20.21 -3.7875,0 -11.375,0 -20.2125,0 l -109.9,0 0,-360.00125 116.2125,0 c 36.6375,0 50.5375,3.78875 69.4875,18.9475 37.8875,32.8425 59.3625,89.685 59.3625,160.41875 0,72.0025 -22.7375,128.84625 -63.1625,160.425 z"
   id="path49" /><path
   inkscape:connector-curvature="0"
   style="fill:#000000;fill-rule:nonzero;stroke:none"
   d="m 654.48375,657.50125 0,-360.00125 211.93625,0 0,56.8425 -155.16875,0 0,88.42125 104.71,0 0,58.10625 -104.71,0 0,98.52625 166.52375,0 0,58.105 -223.29125,0 z"
   id="path51" /></svg>