<?xml version="1.0" encoding="UTF-8" standalone="no"?>
<svg xmlns="http://www.w3.org/2000/svg" width="502.90005" height="377.89999">
  <path fill="#fff" stroke="#000" stroke-width="2.5" d="M501.4500497 32.7c0-17.2593-13.9907-31.25-31.25-31.25h-437.50005C15.4409997 1.45 1.45 15.4407 1.45 32.7v312.5c0 17.2589 13.9909997 31.25 31.2499997 31.25h437.50005c17.2593 0 31.25-13.9911 31.25-31.25z"/>
  <path d="M470.2000497 368.1167c12.6364 0 22.9167-10.2801 22.9167-22.9167V32.7c0-12.6364-10.2803-22.9167-22.9167-22.9167h-437.50005c-12.6366 0-22.9166996 10.2803-22.9166996 22.9167v312.5c0 12.6366 10.2800996 22.9167 22.9166996 22.9167z"/>
  <path fill="#fff" d="M470.2000497 355.6167c5.7438 0 10.4167-4.6736 10.4167-10.4167V32.7c0-5.7438-4.6729-10.4167-10.4167-10.4167h-437.50005c-5.743 0-10.4167 4.6729-10.4167 10.4167v312.5c0 5.7431 4.6737 10.4167 10.4167 10.4167z"/>
  <path d="M244.73064094 51.63500002v-8.70377268H206.3970008v8.70377268h14.16677787v53.33376675h9.8148926V51.63500002zm51.77233952 22.40758325c-.01162652-3.94096171-.38199576-7.74886006-1.11112208-11.4236972-.7292268-3.67475388-1.74775299-6.90394293-3.05557856-9.68757935-1.92714587-3.78469698-4.29984582-6.58564327-7.11811419-8.40284676-2.8183545-1.8170815-6.18642806-2.71986496-10.10424941-2.70835327-3.54750952-.00572714-6.61465718.56140947-9.20146451 1.70140264-2.58684322 1.14011447-4.7975111 2.88781219-6.63199649 5.24309675-2.10457948 3.00933802-3.7519712 6.68992096-4.94217515 11.04175814-1.1902183 4.35192688-1.79593127 9.09733108-1.8171389 14.23621905.01928423 3.78285324.42052117 7.53674067 1.20371798 11.26166944.78316811 3.72496466 1.83256199 6.9464436 3.14816728 9.66442248 1.82099288 3.78476947 4.17440142 6.58571289 7.06023996 8.4028518 2.88580984 1.8171389 6.48922713 2.71993097 10.8102734 2.7083547 3.24074166.00581325 6.11112841-.5613456 8.61118181-1.7014048 2.4999888-1.14005203 4.6296299-2.8877476 6.3889448-5.24309388 2.18553452-2.82216541 3.85607162-6.46030437 5.01161132-10.91443841 1.15543922-4.45410534 1.7380068-9.180221 1.74770274-14.17836133zm-9.81489978 0c-.0193273 2.49426884-.258525 5.05215341-.7175931 7.67367523-.45914706 2.62156488-1.02242323 4.785942-1.68982852 6.49310981-1.0455686 2.71801476-2.33416018 4.71262316-3.86577473 5.98383955-1.53168631 1.27123792-3.42212253 1.90010345-5.67134453 1.8865966-1.97535287.00193774-3.64975113-.39543804-5.02319477-1.19214171-1.3734867-.79667497-2.53861469-2.0042541-3.49539113-3.62271588-1.20758632-2.0081009-2.12580865-4.54284726-2.75465265-7.6042319-.62887989-3.06134157-.94524323-6.26738308-.94908285-9.6181317.00193775-2.64272802.20639225-5.2507717.61343527-7.82413173.40700714-2.57328253 1.00500498-4.81095265 1.79399352-6.7130161 1.00692837-2.62921757 2.2800897-4.56981863 3.81947678-5.82180749 1.53933686-1.25188694 3.41434999-1.87303304 5.62504659-1.86344116a968.60317355 968.60317355 0 0 0 .55556104 0c1.83447103.11965268 3.39698915.55175515 4.68753283 1.29630743 1.29048627.74465633 2.41317746 1.91750375 3.36808793 3.51854728 1.20753607 2.11426036 2.12574405 4.66829023 2.75464547 7.66209967.62882964 2.99388982.9451858 6.24237028.94908285 9.7454421zM89.76722648 189.04295109c-.01161934-3.9409165-.38198858-7.74875959-1.11110055-11.4235508-.72921244-3.67470507-1.74772069-6.9038489-3.05553262-9.68744585-1.92711717-3.78464746-4.2997884-6.58554782-7.11801372-8.40272979-2.81831143-1.81705995-6.18634194-2.7198305-10.10411305-2.7083188-3.54745928-.0057415-6.61457106.561403-9.2013425 1.70138326-2.58680733 1.14009508-4.79743934 2.8877763-6.63190319 5.2430221-2.10455078 3.00929497-3.75192096 6.68982766-4.94210338 11.04160527-1.19020395 4.3518709-1.79590974 9.0972062-1.81711737 14.2360346.01928423 3.78279584.42051399 7.53663302 1.20369645 11.26151156.7831681 3.7249216 1.83254045 6.94634313 3.1481314 9.6642933 1.82096417 3.78471205 4.174344 6.5856124 7.06014666 8.40272978 2.88576677 1.81711737 6.48913383 2.7198951 10.81012269 2.70831881 3.2406914.00581326 6.11104228-.56133841 8.61106697-1.70138326 2.49994574-1.14003767 4.62955813-2.8877117 6.3888515-5.24302211 2.18551299-2.82212235 3.8560221-6.46021825 5.01154385-10.9142877 1.1554177-4.45404792 1.73797092-9.1800918 1.74766686-14.17816037zm-9.81475337 0c-.0193273 2.49422578-.258525 5.05208164-.71758593 7.67356758-.45913987 2.621529-1.02240887 4.78587023-1.68980698 6.49301651-1.04555425 2.71797887-2.3341243 4.71256574-3.86571732 5.9837606-1.53166478 1.27122357-3.42207947 1.90007474-5.67126558 1.88656789-1.97532417.00193775-3.64969371-.39543803-5.023123-1.19212018-1.37347235-.79666778-2.53858598-2.00422539-3.49534807-3.62266564-1.20757196-2.00807937-2.12577277-4.54278984-2.75461677-7.60413142-.6288727-3.06129851-.9452217-6.26729696-.9490685-9.61799534.00193776-2.64270075.20639226-5.25070853.6134281-7.82403054.40699996-2.57325023 1.00499062-4.81088877 1.79397199-6.7129228 1.00691402-2.62918671 2.2800538-4.5697605 3.81941937-5.82172854 1.5393225-1.25186756 3.41430692-1.87301079 5.62496763-1.86341532a1023.925469 1023.925469 0 0 0 .55555387 0c1.8344495.1196455 3.39693891.55175012 4.68747542 1.29628517 1.29046474.7446427 2.41314158 1.91747864 3.36803769 3.51850064 1.20751454 2.11423237 2.12571534 4.66822707 2.75460958 7.66199848.6288153 2.99384317.94517146 6.24227841.9490685 9.7453129zm65.77581933 30.92575289v-62.0366904H135.913529v39.6294014l-22.59246644-39.6294014h-9.81475625v62.0366904h9.81475625v-42.03680867l23.70357417 42.03680867zm55.66878099-12.59252558-9.35179829-3.51849345c-1.19408663 2.4884197-2.57911373 4.31711335-4.15506694 5.48607378-1.57603216 1.16898197-3.40086466 1.7476884-5.47451186 1.73610494-2.15471705.00193775-3.97955673-.39543803-5.47450468-1.19212018-1.49499819-.79666778-2.78742221-2.00422539-3.87728642-3.62266564-1.21529427-2.00421821-2.16436276-4.54664382-2.84721267-7.6272768-.68288578-3.08058993-1.03010246-6.34060146-1.04165721-9.78004176.00193775-2.67548466.20638507-5.26420104.61342092-7.76614913.40700713-2.5018835 1.00499062-4.69707806 1.79397198-6.58561241 1.05514255-2.71020633 2.44016965-4.6739255 4.15506695-5.89117905 1.71486141-1.2171459 3.81746726-1.81513656 6.30783906-1.79396481 2.27618548-.05589342 4.13574683.380058 5.57866251 1.30786145 1.44286545.92789675 2.97834833 2.68328592 4.60646299 5.26617468l9.16661366-3.88886988c-2.04478903-4.33634018-4.62192913-7.53848465-7.73143464-9.60642624-3.10959163-2.06782676-6.9830169-3.09405372-11.62030452-3.07868806-3.51081421.00588503-6.58177996.59613186-9.2129116 1.7708266-2.63118188 1.17482393-4.86881325 2.8993454-6.7129228 5.17357878-2.19328553 2.82218693-3.8946688 6.46028283-5.10414262 10.91429487-1.20949536 4.45410534-1.8229091 9.18014922-1.84026276 14.1781532.01542308 3.94098109.42436796 7.74882418 1.22684184 11.42355079.80245234 3.67476967 1.90584494 6.9039135 3.31016345 9.68744585 1.95985084 3.78471206 4.4752699 6.58561242 7.54625719 8.4027298 3.07094422 1.81711736 6.88264846 2.71989509 11.4351199 2.7083188 4.43666555-.0038755 8.20207901-1.15353735 11.29623321-3.44905012 3.09407526-2.29551277 5.56319637-5.7136952 7.40736335-10.254576zm56.19396954-18.33322731c-.01162652-3.9409165-.38198859-7.74875959-1.11110773-11.4235508-.72921245-3.67470507-1.74772428-6.9038489-3.0555355-9.68744585-1.92711716-3.78464746-4.2997884-6.58554782-7.11801371-8.40272979-2.81831143-1.81705995-6.18634194-2.7198305-10.10411305-2.7083188-3.54745929-.0057415-6.61457106.561403-9.2013425 1.70138326-2.58680016 1.14009508-4.79743934 2.8877763-6.63189602 5.2430221-2.10455795 3.00929497-3.75192096 6.68982766-4.94210338 11.04160527-1.19021112 4.3518709-1.79590974 9.0972062-1.81712455 14.2360346.01928424 3.78279584.420514 7.53663302 1.20369646 11.26151156.7831681 3.7249216 1.83254763 6.94634313 3.14813139 9.6642933 1.82096417 3.78471205 4.174344 6.5856124 7.06014666 8.40272978 2.88576678 1.81711737 6.489141 2.7198951 10.8101227 2.70831881 3.24069858.00581326 6.11104227-.56133841 8.61106696-1.70138326 2.49994575-1.14003767 4.62956531-2.8877117 6.38884434-5.24302211 2.18552015-2.82212235 3.85602855-6.46021825 5.0115539-10.9142877 1.15542486-4.45404792 1.73797808-9.1800918 1.74767403-14.17816037zm-9.81476343 0c-.0193273 2.49422578-.258525 5.05208164-.71758592 7.67356758-.45913988 2.621529-1.02240887 4.78587023-1.68980698 6.49301651-1.04555426 2.71797887-2.3341243 4.71256574-3.86571732 5.9837606-1.53166478 1.27122357-3.42207947 1.90007474-5.67126559 1.88656789-1.97532416.00193775-3.6496937-.39543803-5.023123-1.19212018-1.37346517-.79666778-2.5385788-2.00422539-3.4953409-3.62266564-1.20757913-2.00807937-2.1257871-4.54278984-2.75461675-7.60413142-.62887989-3.06129851-.94522888-6.26729696-.9490685-9.61799534.00193775-2.64270075.20638508-5.25070853.6134281-7.82403054.40699995-2.57325023 1.00499062-4.81088877 1.79395763-6.7129228 1.0069212-2.62918671 2.28006816-4.5697605 3.81942654-5.82172854 1.5393225-1.25186756 3.41430693-1.87301079 5.62496764-1.86341532a1023.925469 1023.925469 0 0 0 .55555387 0c1.8344495.1196455 3.39693891.55175012 4.68747542 1.29628517 1.29046474.7446427 2.41314875 1.91747864 3.36803768 3.51850064 1.20751455 2.11423237 2.12572253 4.66822707 2.75460959 7.66199848.6288153 2.99384317.94517146 6.24227841.9490685 9.7453129zm71.88689319 30.92575289v-62.0366904h-9.81475625l-14.35176871 34.81461559-14.3517759-34.8146156h-9.81475624v62.03669041h9.81475624v-35.92572333l14.3517759 35.92572333 14.35176871-35.92572333v35.92572333zm24.78222095 0v-62.0366904h-9.99994805v62.0366904zm56.99797926 0v-62.0366904h-9.81476342v39.6294014l-22.59246644-39.6294014h-9.81475625v62.0366904h9.81475625v-42.03680867l23.70357417 42.03680867zm55.67027378-18.51841912V189.0429511h-21.11099665v9.81476342h11.29623323v2.59257035c-.05791012 2.87230298-1.07641477 5.18323884-3.0555355 6.9328291-1.9791925 1.74961896-4.57177002 2.64853553-7.77773976 2.6967497-1.85379115.00581327-3.49343903-.39929918-4.91895082-1.21527273-1.42554767-.8159592-2.62539015-2.0775227-3.59951308-3.7846977-.97802714-2.04087046-1.73033473-4.55628952-2.25693712-7.54625719-.5266311-2.98993178-.79282817-6.15348625-.79859837-9.49068495.00193775-2.64270075.20638508-5.25070853.61342092-7.82403054.40700713-2.57325023 1.00499062-4.81088877 1.79396481-6.7129228 1.05514972-2.71020633 2.44016247-4.6739255 4.15507412-5.89117905 1.71485424-1.2171459 3.81746726-1.81513656 6.30783907-1.79396481 2.32055285-.0269563 4.25340433.53631269 5.7985688 1.68980698 1.5450927 1.15358759 2.94554288 3.0594397 4.20137207 5.71755636l9.35179828-3.70368526c-2.03321992-4.8243741-4.58721463-8.32358333-7.66199848-10.49762768-3.07486278-2.17392234-6.9714478-3.2425861-11.68974067-3.20599845-3.51081422.00588503-6.58177997.59613186-9.21291879 1.7708266-2.6311747 1.17482393-4.86882042 2.8993454-6.71292998 5.17357878-2.1122659 2.81832578-3.79048943 6.4641368-5.0346921 10.93744026-1.24420985 4.47339674-1.88078333 9.25345371-1.90971327 14.3401996.00771513 3.84451687.36265411 7.56748636 1.06480978 11.16891566.70214849 3.60146519 1.70523006 6.7920262 3.0092519 9.57171175 1.80745731 3.87343245 4.18784368 6.72835306 7.1411591 8.56476184 2.95328671 1.83640879 6.74569954 2.74689446 11.37724566 2.7314642 5.80047785-.11188013 10.49566122-1.97144147 14.08557883-5.57867686 3.58981714-3.60722103 5.4378022-8.29082812 5.54394802-14.0508428zM130.9526079 281.63506103v-8.70376335H92.61899645v8.70376335h14.16677069v53.33371652h9.81488543v-53.33371652zm51.30877869 53.33371652-10.92600034-28.98169115c2.9127805-1.37536704 5.23532134-3.48571672 6.96763688-6.3310634 1.73221508-2.84528209 2.61956972-5.9510054 2.66205675-9.31719862-.04827159-3.23685897-.92404995-6.27700009-2.62733508-9.12043054-1.70337125-2.84332998-3.94489966-4.95754082-6.72457803-6.34263968-1.49889522-.72911197-3.1308495-1.23837506-4.89587002-1.52778928-1.76509229-.28929221-3.83686633-.42817889-6.21532212-.4166672h-20.4631196v62.03747987h9.8148926v-27.03723468h11.75934191l10.00007723 27.03723468zm-11.11119214-44.62995317c-.01161217 1.32142573-.35883602 2.56757333-1.04167875 3.73845716-.68290731 1.1709556-1.63198299 2.1161773-2.84724137 2.83567227-.73305924.40705737-1.48924234.68097674-2.26853494.8217581-.7793572.14085314-1.90590236.2064425-3.37964985.1967609h-11.7593419v-15.18529687h11.7593419c1.54897538-.01151887 2.687104.05792447 3.4143787.20834436.7272101.15050602 1.47180973.4514391 2.2338061.90277772 1.21525837.67520655 2.16433405 1.59342888 2.84724136 2.75465265.68284273 1.16131707 1.03006658 2.4036107 1.04167875 3.7268737zm68.55296714 44.62995317-21.38904989-62.03747987h-9.72228953l-21.38904271 62.03747987h10.4630352l6.1111571-17.40753387h19.35199035l6.1111571 17.40753387zm-20.092736-27.4076111h-12.40749885l6.38893046-17.4075267zm67.99889171-24.81499051v-9.81487826h-38.51879607v62.03747987h9.81488543v-27.03723468h18.05568364v-10.00007005h-18.05568364v-15.18529688zm47.7440088 0v-9.81487826h-38.51879605v62.03747987h9.8148926v-27.03723468h18.05567646v-10.00007005h-18.05567645v-15.18529688zm19.22529 52.22260161v-62.03747987h-10.00007006v62.03747987zm55.70239741-12.59268347-9.35191311-3.5185437c-1.19410816 2.48845559-2.57914244 4.31717078-4.15513154 5.48614556-1.57603933 1.16899632-3.40090054 1.74770992-5.47456927 1.73612646-2.15475294.00193776-3.97960697-.39543803-5.47457645-1.19213452-1.49501254-.79667497-2.78746527-2.00424693-3.87734384-3.6227087-1.21530144-2.00424693-2.16438429-4.54670124-2.84724137-7.62737729-.68289296-3.0806258-1.03011682-6.3406804-1.04167875-9.78015658.00193776-2.67552773.20639944-5.26427999.61343528-7.76626396.40700713-2.50190503 1.00501215-4.69713548 1.79399351-6.58569136 1.0551569-2.71024221 2.44019836-4.67398292 4.15511719-5.89125082 1.71488294-1.21716025 3.81752467-1.81516527 6.30791801-1.79399352 2.27622136-.05588624 4.13580424.38007954 5.57874863 1.307883 1.44287262.9279111 2.97837703 2.68332896 4.60650604 5.26623926l9.16673567-3.88891295c-2.04481774-4.33639758-4.62199371-7.53857794-7.73154229-9.60655542-3.10962034-2.06785547-6.98310302-3.0940896-11.62044805-3.07872394-3.5108501.00588503-6.58185891.59613185-9.21302644 1.77084095-2.63121059 1.17484546-4.86887784 2.89939565-6.71300892 5.17365055-2.19332141 2.82222282-3.89471185 6.46036178-5.10420721 10.91443123-1.20950254 4.45416275-1.82293781 9.18027123-1.84029147 14.17834698.01543026 3.94102415.42438232 7.74891747 1.22686337 11.42368715.8024667 3.67481273 1.90586647 6.90399963 3.31020651 9.68757504 1.95987956 3.78475511 4.47532733 6.58569135 7.5463505 8.40283026 3.07098728 1.81715326 6.88274175 2.71993098 11.4352706 2.7083547 4.43672297-.00387551 8.2021795-1.1535517 11.29636958-3.44910037 3.09411832-2.2955343 5.56326814-5.71376697 7.40746382-10.254698z" font-family="Roadgeek 2005 Series D" font-size="1290.15393066" font-weight="400" letter-spacing="0" style="text-align:center;line-height:125%;-inkscape-font-specification:Roadgeek 2005 Series D" text-anchor="middle" word-spacing="0"/>
</svg>