<?xml version="1.0" encoding="UTF-8" standalone="no"?>
<!-- Generator: Adobe Illustrator 14.0.0, SVG Export Plug-In  -->

<svg
   xmlns:dc="http://purl.org/dc/elements/1.1/"
   xmlns:cc="http://creativecommons.org/ns#"
   xmlns:rdf="http://www.w3.org/1999/02/22-rdf-syntax-ns#"
   xmlns:svg="http://www.w3.org/2000/svg"
   xmlns="http://www.w3.org/2000/svg"
   xmlns:sodipodi="http://sodipodi.sourceforge.net/DTD/sodipodi-0.dtd"
   xmlns:inkscape="http://www.inkscape.org/namespaces/inkscape"
   version="1.1"
   x="0px"
   y="0px"
   width="81.687485"
   height="101.93748"
   viewBox="0 -0.321 81.687488 101.9375"
   enable-background="new 0 -0.321 144 120"
   xml:space="preserve"
   id="svg2"
   inkscape:version="0.48.2 r9819"
   sodipodi:docname="AJAX1.svg"><metadata
   id="metadata44"><rdf:RDF><cc:Work
       rdf:about=""><dc:format>image/svg+xml</dc:format><dc:type
         rdf:resource="http://purl.org/dc/dcmitype/StillImage" /><dc:title /></cc:Work></rdf:RDF></metadata><sodipodi:namedview
   pagecolor="#ffffff"
   bordercolor="#666666"
   borderopacity="1"
   objecttolerance="10"
   gridtolerance="10"
   guidetolerance="10"
   inkscape:pageopacity="0"
   inkscape:pageshadow="2"
   inkscape:window-width="1280"
   inkscape:window-height="1004"
   id="namedview42"
   showgrid="false"
   fit-margin-top="0"
   fit-margin-left="0"
   fit-margin-right="0"
   fit-margin-bottom="0"
   inkscape:zoom="5.3605324"
   inkscape:cx="42.174348"
   inkscape:cy="39.662369"
   inkscape:window-x="-8"
   inkscape:window-y="-8"
   inkscape:window-maximized="1"
   inkscape:current-layer="svg2" />
<defs
   id="defs4">
</defs>


















<path
   inkscape:connector-curvature="0"
   d="m 5.3970895,101.2719 70.8687605,0 c 1.34125,0 2.63875,-0.53 3.5875,-1.47875 0.94875,-0.9475 1.48125,-2.24625 1.48125,-3.58375 l 0,-91.12252 c 0,-1.33875 -0.5325,-2.64 -1.48125,-3.5875 C 78.9046,0.55063 77.6071,0.02063 76.26585,0.02063 l -70.8687605,0 c -1.3375,0 -2.63625,0.53 -3.58375,1.47875 -0.9500012,0.9475 -1.4787512,2.24875 -1.4787512,3.5875 l 0,91.12252 c 0,1.74 0.9125012,3.37875 2.3800012,4.31125 0.8325,0.53375 1.71625,0.65625 2.6825,0.75125"
   style="fill:#ffffff;fill-opacity:1;fill-rule:nonzero;stroke:#000000;stroke-width:0.70000017;stroke-miterlimit:4;stroke-opacity:1;stroke-dasharray:none"
   id="path4045" /><path
   inkscape:connector-curvature="0"
   d="m 1.7497145,96.2069 0,-91.12002 c 0,-0.9575 0.39,-1.90625 1.06625,-2.5825 0.6775,-0.675 1.625,-1.06625 2.58375,-1.06625 l 70.8675155,0 c 0.95375,0 1.90875,0.39125 2.58,1.06625 0.67875,0.67625 1.07,1.625 1.07,2.5825 l 0,91.12002 c 0,0.95625 -0.39125,1.905 -1.07,2.58375 -0.67125,0.6725 -1.62625,1.06375 -2.58,1.06375 l -70.8675155,0 c -0.95875,0 -1.90625,-0.39125 -2.58375,-1.06375 -0.67625,-0.67875 -1.06625,-1.6275 -1.06625,-2.58375"
   style="fill:#000000;fill-opacity:1;fill-rule:evenodd;stroke:none"
   id="path4069" /><path
   inkscape:connector-curvature="0"
   d="m 3.7357145,96.2069 c 0,0.44375 0.17,0.86125 0.48625,1.1775 0.31375,0.31375 0.73125,0.48375 1.175,0.48375 l 70.8700155,0 c 0.445,0 0.86375,-0.17 1.18125,-0.48375 0.31375,-0.31625 0.4825,-0.73375 0.4825,-1.1775 l 0,-91.11877 c 0,-0.44625 -0.16875,-0.86375 -0.4825,-1.17875 -0.3175,-0.315 -0.73625,-0.485 -1.18125,-0.485 l -70.8700155,0 c -0.44375,0 -0.86125,0.17 -1.175,0.485 -0.31625,0.315 -0.48625,0.7325 -0.48625,1.17875 l 0,91.11877 z"
   style="fill:#ffffff;fill-opacity:1;fill-rule:evenodd;stroke:none"
   id="path4073" /><path
   inkscape:connector-curvature="0"
   d="M 66.60436,50.48564 48.931852,63.54189 c -0.58,0.43125 -1.38375,0.49875 -2.0475,0.24875 -0.725,-0.2775 -1.37375,-1.02875 -1.33875,-1.84125 0.01,-0.21625 0.05625,-0.43 0.1275,-0.63375 l 2.01875,-5.8125 -32.558757,0 0,-10.03125 32.558757,0 -2.01875,-5.77251 c -0.07375,-0.21125 -0.12125,-0.4525 -0.1275,-0.6775 -0.02375,-0.96125 0.81375,-1.76 1.71625,-1.915 0.5425,-0.0925 1.2125,-0.02 1.67,0.32 L 66.60436,50.48564 z"
   style="fill:#000000;fill-opacity:1;fill-rule:evenodd;stroke:none"
   id="path4077" /><path
   inkscape:connector-curvature="0"
   d="m 22.980092,31.38938 -4.667502,-8.415 -1.6675,2.27125 0,6.14375 -2.810001,0 0,-17.9975 2.810001,0 0,7.10375 5.210001,-7.10375 3.457501,0 -5.165001,7.08125 6.062501,10.91625 -3.23,0 z"
   style="fill:#000000;fill-opacity:1;fill-rule:evenodd;stroke:none"
   id="path4081" /><path
   inkscape:connector-curvature="0"
   d="m 44.187346,82.14189 c 0,1.52 -0.61875,3.00625 -1.69375,4.07875 -1.1075,1.10501 -2.607501,1.69376 -4.166251,1.68126 -1.64125,-0.0137 -3.260001,-0.75 -4.323751,-2.00626 -1.04375,-1.23375 -1.4175,-2.82625 -1.695,-4.3775 -0.31,-1.725 -0.33875,-3.51375 -0.0825,-5.2475 0.14625,-0.9775 0.34375,-1.96 0.63875,-2.9025 0.49,-1.56375 1.65375,-2.845 3.147501,-3.50625 2.6,-1.15375 5.647501,-0.295 7.232501,2.07625 0.34875,0.5275 0.555,1.1075 0.75125,1.7075 l -2.69625,0.89375 c -0.12875,-0.5175 -0.29875,-0.93375 -0.65625,-1.35125 -0.705001,-0.8175 -1.826251,-1.18375 -2.878751,-0.96 -1.0675,0.23125 -1.855,0.995 -2.197501,2.02125 -0.35875,1.06625 -0.565,2.19375 -0.6525,3.31375 -0.08875,1.18625 -0.04375,2.39875 0.1475,3.57 0.1,0.6225 0.235,1.24875 0.4425,1.84625 0.502501,1.455 1.928751,2.3725 3.466251,2.065 1.367501,-0.27375 2.392501,-1.50875 2.392501,-2.9025 l 0,-0.68125 -3.097501,0 0,-2.94625 5.921251,0 0,3.6275 z"
   style="fill:#000000;fill-opacity:1;fill-rule:evenodd;stroke:none"
   id="path4085" /><path
   inkscape:connector-curvature="0"
   d="m 60.495975,69.64189 0,17.99751 -2.847501,0 0,-7.86126 -6.402501,0 0,7.86126 -2.846251,0 0,-17.99751 2.846251,0 0,7.2525 6.402501,0 0,-7.2525 2.847501,0 z"
   style="fill:#000000;fill-opacity:1;fill-rule:evenodd;stroke:none"
   id="path4089" /><path
   style="fill:#000000;fill-opacity:1;fill-rule:evenodd;stroke:none"
   d="m 58.281203,13.3865 0,18 2.8125,0 0,-7.875 4.28125,0 c 0.48375,-0.0238 0.94,-0.045 1.40625,-0.1875 1.435,-0.4375 2.6475,-1.51625 3.21875,-2.90625 0.635,-1.5425 0.46125,-3.3575 -0.46875,-4.75 -0.9375,-1.40625 -2.52625,-2.28125 -4.21875,-2.28125 l -7.03125,0 z m 2.8125,2.8125 4.1875,0 c 0.745,0 1.4575,0.3825 1.875,1 0.508,0.74875 0.50625,1.75 0,2.5 -0.42,0.61625 -1.09375,1 -1.84375,1 l -4.21875,0 0,-4.5 z"
   id="path4093"
   inkscape:connector-curvature="0" /><path
   style="fill:#000000;fill-opacity:1;fill-rule:evenodd;stroke:none"
   d="m 8.7812049,69.6365 0,18 2.8124981,0 0,-7.875 3.21875,0 3.03125,7.875 3,0 -3.1875,-8.34375 c 0.40625,-0.21375 0.807499,-0.4175 1.15625,-0.71875 0.86,-0.745 1.475,-1.78875 1.6875,-2.90625 0.315,-1.64625 -0.2225,-3.345 -1.40625,-4.53125 -0.945001,-0.9425 -2.2275,-1.5 -3.5625,-1.5 l -6.7499981,0 z m 2.8124981,2.8125 3.9375,0.0312 c 0.7475,0.001 1.42875,0.37625 1.84375,1 0.48625,0.73875 0.485,1.72875 0,2.46875 -0.40875,0.615 -1.1,1 -1.84375,1 l -3.9375,0 0,-4.5 z"
   id="path4097"
   inkscape:connector-curvature="0" /><path
   inkscape:connector-curvature="0"
   d="m 29.591468,31.38938 0,-17.9975 10.395002,0 0,2.83125 -7.585001,0 0,4.48125 5.793751,0 0,2.8125 -5.793751,0 0,5.0625 8.147502,0 0,2.81 -10.957503,0 z"
   style="fill:#000000;fill-opacity:1;fill-rule:evenodd;stroke:none"
   id="path4101" /><path
   inkscape:connector-curvature="0"
   d="m 43.932221,31.38938 0,-17.9975 10.395003,0 0,2.83125 -7.585002,0 0,4.48125 5.795001,0 0,2.8125 -5.795001,0 0,5.0625 8.148752,0 0,2.81 -10.958753,0 z"
   style="fill:#000000;fill-opacity:1;fill-rule:evenodd;stroke:none"
   id="path4105" /><path
   inkscape:connector-curvature="0"
   d="m 70.75236,72.47689 0,15.16251 -2.8125,0 0,-15.16251 -4.0625,0 0,-2.835 10.96125,0 0,2.835 -4.08625,0 z"
   style="fill:#000000;fill-opacity:1;fill-rule:evenodd;stroke:none"
   id="path4109" /><path
   inkscape:connector-curvature="0"
   d="m 27.879968,87.6389 -2.810001,0 0,-17.99751 2.810001,0 0,17.99751 z"
   style="fill:#000000;fill-opacity:1;fill-rule:evenodd;stroke:none"
   id="path4119" /></svg>