<?xml version="1.0" encoding="UTF-8" standalone="no"?>
<!-- Generator: Adobe Illustrator 12.0.1, SVG Export Plug-In  -->

<svg
   xmlns:dc="http://purl.org/dc/elements/1.1/"
   xmlns:cc="http://creativecommons.org/ns#"
   xmlns:rdf="http://www.w3.org/1999/02/22-rdf-syntax-ns#"
   xmlns:svg="http://www.w3.org/2000/svg"
   xmlns="http://www.w3.org/2000/svg"
   xmlns:sodipodi="http://sodipodi.sourceforge.net/DTD/sodipodi-0.dtd"
   xmlns:inkscape="http://www.inkscape.org/namespaces/inkscape"
   version="1.1"
   width="309.65625"
   height="194.09375"
   viewBox="-1 0 309.65625 194.09375"
   enable-background="new -1 0 289 288"
   xml:space="preserve"
   id="svg2"
   inkscape:version="0.48.2 r9819"
   sodipodi:docname="MUTCD R10-22.svg"><metadata
   id="metadata22"><rdf:RDF><cc:Work
       rdf:about=""><dc:format>image/svg+xml</dc:format><dc:type
         rdf:resource="http://purl.org/dc/dcmitype/StillImage" /><dc:title></dc:title></cc:Work></rdf:RDF></metadata><sodipodi:namedview
   pagecolor="#ffffff"
   bordercolor="#666666"
   borderopacity="1"
   objecttolerance="10"
   gridtolerance="10"
   guidetolerance="10"
   inkscape:pageopacity="0"
   inkscape:pageshadow="2"
   inkscape:window-width="1280"
   inkscape:window-height="1004"
   id="namedview20"
   showgrid="false"
   fit-margin-top="0"
   fit-margin-left="0"
   fit-margin-right="0"
   fit-margin-bottom="0"
   inkscape:zoom="1.1588695"
   inkscape:cx="175.32342"
   inkscape:cy="-42.020807"
   inkscape:window-x="-8"
   inkscape:window-y="-8"
   inkscape:window-maximized="1"
   inkscape:current-layer="svg2"
   showguides="true"
   inkscape:guide-bbox="true" />
<defs
   id="defs4">
</defs>







<path
   inkscape:connector-curvature="0"
   d="m 307.912,181.30464 c 0,6.62125 -5.4175,12.0375 -12.0375,12.0375 l -284.095,0 c -6.62,0 -12.0375,-5.41625 -12.0375,-12.0375 l 0,-168.53 c 0,-6.62125 5.4175,-12.03875 12.0375,-12.03875 l 284.095,0 c 6.62,0 12.0375,5.4175 12.0375,12.03875 l 0,168.53"
   style="fill:#ffffff;fill-opacity:1;fill-rule:nonzero;stroke:#000000;stroke-width:1.5;stroke-miterlimit:4;stroke-opacity:1;stroke-dasharray:none"
   id="path8991" /><path
   inkscape:connector-curvature="0"
   d="m 299.88662,181.30464 c 0,2.2075 -1.80625,4.0125 -4.0125,4.0125 l -284.09375,0 c -2.2075,0 -4.01375,-1.805 -4.01375,-4.0125 l 0,-168.53 c 0,-2.2075 1.80625,-4.01375 4.01375,-4.01375 l 284.09375,0 c 2.20625,0 4.0125,1.80625 4.0125,4.01375 l 0,168.53 z m -4.0125,-177.35875 -284.09375,0 c -4.85625,0 -8.82875,3.9725 -8.82875,8.82875 l 0,168.53 c 0,4.855 3.9725,8.8275 8.82875,8.8275 l 284.09375,0 c 4.855,0 8.8275,-3.9725 8.8275,-8.8275 l 0,-168.53 c 0,-4.85625 -3.9725,-8.82875 -8.8275,-8.82875"
   style="fill:#000000;fill-opacity:1;fill-rule:nonzero;stroke:none"
   id="path9015" /><path
   inkscape:connector-curvature="0"
   d="m 86.90826,40.98113 -10.805,0 0,12.555 10.72875,0 c 3.95625,0 6.92375,-2.81625 6.92375,-6.31625 0,-3.3475 -2.89,-6.23875 -6.8475,-6.23875 m 7.1525,43.21875 -8.29375,-22.37 -9.66375,0 0,22.37 -8.14125,0 0,-51.36 18.64125,0 c 11.79375,0 15.21875,9.435 15.21875,14.38 0,5.47875 -3.19625,10.88125 -7.91375,13.01125 l 8.97875,23.96875 -8.82625,0"
   style="fill:#000000;fill-opacity:1;fill-rule:nonzero;stroke:none"
   id="path9019" /><path
   inkscape:connector-curvature="0"
   d="m 129.36514,40.22025 c -4.565,0 -6.69625,1.82625 -8.5225,6.315 -1.2175,3.04375 -1.9775,7.76125 -1.9775,12.09875 0,5.4025 1.14125,10.95625 3.12,14.22875 1.5975,2.6625 3.7275,3.95625 6.99875,3.95625 3.805,0 6.16375,-1.97875 7.91375,-6.4675 1.065,-2.74 1.97875,-7.76125 1.97875,-11.7175 0,-5.935 -1.29375,-18.41375 -9.51125,-18.41375 m 12.02125,39.11 c -2.9675,3.88 -7,5.7825 -12.4025,5.7825 -7.2275,0 -11.64125,-2.89125 -14.76125,-9.2075 -2.13,-4.33625 -3.65125,-11.185 -3.65125,-17.27125 0,-8.5225 2.13,-16.13125 5.63,-20.925 2.9675,-4.0325 7.22875,-5.7825 13.16375,-5.7825 14.2275,0 17.6525,15.2175 17.6525,26.7075 0,8.065 -2.055,16.13 -5.63125,20.69625"
   style="fill:#000000;fill-opacity:1;fill-rule:nonzero;stroke:none"
   id="path9023" /><path
   inkscape:connector-curvature="0"
   d="m 175.47376,47.06812 -5.25,14.45625 10.2725,0 -5.0225,-14.45625 z m 12.935,37.13125 -5.0225,-14.38125 -16.05375,0 -5.0225,14.38125 -8.67375,0 17.6525,-51.36 8.14125,0 17.6525,51.36 -8.67375,0 z"
   style="fill:#000000;fill-opacity:1;fill-rule:nonzero;stroke:none"
   id="path9027" /><path
   inkscape:connector-curvature="0"
   d="m 222.039,40.98113 -9.13,0 0,34.925 8.9775,0 c 7.38125,0 9.5875,-10.425 9.5875,-17.50125 0,-5.935 -1.2175,-17.42375 -9.435,-17.42375 m 0.8375,43.21875 -18.11,0 0,-51.36 16.5875,0 c 5.25,0 7.22875,0.45625 9.89125,2.6625 5.47875,4.64125 8.44625,12.85875 8.44625,22.9025 0,15.21875 -7.83625,25.795 -16.815,25.795"
   style="fill:#000000;fill-opacity:1;fill-rule:nonzero;stroke:none"
   id="path9031" /><path
   inkscape:connector-curvature="0"
   d="m 49.244872,162.15188 c -7.5325,0 -12.4025,-2.89125 -15.67375,-9.20625 -2.28375,-4.48875 -3.805,-10.95625 -3.805,-17.5 0,-8.065 2.20625,-16.2075 5.7825,-20.69625 3.04375,-3.805 7.38125,-5.7825 13.16375,-5.7825 7.76125,0 12.63,3.27125 16.055,10.5 l -7.60875,3.195 c -2.81625,-4.33625 -4.49,-5.40125 -8.44625,-5.40125 -4.10875,0 -6.84875,1.825 -8.67375,6.315 -1.2175,3.0425 -1.97875,7.5325 -1.97875,11.87 0,5.63 1.2175,11.26 3.27125,14.45625 1.75,2.73875 4.185,3.95625 7.76125,3.95625 3.42375,0 5.935,-1.82625 7.91375,-5.93375 l 7.76125,2.89 c -3.04375,7.53375 -8.1425,11.3375 -15.5225,11.3375"
   style="fill:#000000;fill-opacity:1;fill-rule:nonzero;stroke:none"
   id="path9035" /><path
   inkscape:connector-curvature="0"
   d="m 76.0275,161.23875 0,-51.35875 8.14125,0 0,43.82625 23.74,0 0,7.5325 -31.88125,0 z"
   style="fill:#000000;fill-opacity:1;fill-rule:nonzero;stroke:none"
   id="path9039" /><path
   inkscape:connector-curvature="0"
   d="m 133.32151,117.26036 c -4.565,0 -6.69625,1.825 -8.5225,6.315 -1.2175,3.04375 -1.9775,7.76125 -1.9775,12.09875 0,5.40125 1.14125,10.95625 3.12,14.2275 1.5975,2.66375 3.7275,3.95625 6.99875,3.95625 3.805,0 6.16375,-1.9775 7.91375,-6.4675 1.065,-2.7375 1.97875,-7.76 1.97875,-11.71625 0,-5.935 -1.29375,-18.41375 -9.51125,-18.41375 m 12.02125,39.10875 c -2.9675,3.88125 -7,5.7825 -12.4025,5.7825 -7.2275,0 -11.64,-2.89 -14.76125,-9.20625 -2.13,-4.33625 -3.65125,-11.185 -3.65125,-17.27125 0,-8.5225 2.13,-16.13125 5.63,-20.925 2.9675,-4.0325 7.22875,-5.7825 13.16375,-5.7825 14.2275,0 17.6525,15.2175 17.6525,26.7075 0,8.06375 -2.055,16.13 -5.63125,20.695"
   style="fill:#000000;fill-opacity:1;fill-rule:nonzero;stroke:none"
   id="path9043" /><path
   inkscape:connector-curvature="0"
   d="m 177.37575,162.15188 c -8.82625,0 -15.29375,-5.25 -18.7175,-13.01125 l 7.76,-2.89125 c 2.13125,4.87 6.0875,7.60875 10.9575,7.60875 4.7175,0 7.9125,-3.27125 7.9125,-7.60875 0,-6.8475 -7.9125,-7.9125 -14.60875,-10.575 -3.0425,-1.29375 -9.89125,-4.3375 -9.89125,-12.78375 0,-10.12 6.84875,-13.92375 16.055,-13.92375 7.22875,0 12.0975,4.185 14.60875,10.5 l -7.2275,2.13 c -0.7625,-2.2825 -4.03375,-4.48875 -7.68625,-4.48875 -3.88,0 -8.14125,1.2175 -7.8375,5.935 0.7625,9.51125 24.88125,3.27125 24.88125,23.435 0,9.35875 -7,15.67375 -16.20625,15.67375"
   style="fill:#000000;fill-opacity:1;fill-rule:nonzero;stroke:none"
   id="path9047" /><path
   inkscape:connector-curvature="0"
   d="m 202.33162,161.23875 0,-51.35875 30.28375,0 0,8.14125 -22.14125,0 0,12.55375 14.91375,0 0,8.29375 -14.91375,0 0,14.07625 23.73875,0 0,8.29375 -31.88125,0 z"
   style="fill:#000000;fill-opacity:1;fill-rule:nonzero;stroke:none"
   id="path9051" /><path
   inkscape:connector-curvature="0"
   d="m 260.23475,118.021 -9.13,0 0,34.92375 8.97875,0 c 7.38,0 9.58625,-10.42375 9.58625,-17.49875 0,-5.935 -1.2175,-17.425 -9.435,-17.425 m 0.8375,43.2175 -18.10875,0 0,-51.35875 16.58625,0 c 5.25,0 7.22875,0.45625 9.89125,2.6625 5.47875,4.64125 8.44625,12.85875 8.44625,22.90375 0,15.2175 -7.83625,25.7925 -16.815,25.7925"
   style="fill:#000000;fill-opacity:1;fill-rule:nonzero;stroke:none"
   id="path9055" /></svg>