<?xml version="1.0" encoding="UTF-8" standalone="no"?>
<!-- Created with Inkscape (http://www.inkscape.org/) -->

<svg
   xmlns:dc="http://purl.org/dc/elements/1.1/"
   xmlns:cc="http://creativecommons.org/ns#"
   xmlns:rdf="http://www.w3.org/1999/02/22-rdf-syntax-ns#"
   xmlns:svg="http://www.w3.org/2000/svg"
   xmlns="http://www.w3.org/2000/svg"
   xmlns:sodipodi="http://sodipodi.sourceforge.net/DTD/sodipodi-0.dtd"
   xmlns:inkscape="http://www.inkscape.org/namespaces/inkscape"
   version="1.0"
   width="77.016251"
   height="66.028748"
   id="svg2"
   inkscape:version="0.48.2 r9819"
   sodipodi:docname="MUTCD W22-1 (temporary).svg">
  <metadata
     id="metadata13">
    <rdf:RDF>
      <cc:Work
         rdf:about="">
        <dc:format>image/svg+xml</dc:format>
        <dc:type
           rdf:resource="http://purl.org/dc/dcmitype/StillImage" />
        <dc:title></dc:title>
      </cc:Work>
    </rdf:RDF>
  </metadata>
  <sodipodi:namedview
     pagecolor="#ffffff"
     bordercolor="#666666"
     borderopacity="1"
     objecttolerance="10"
     gridtolerance="10"
     guidetolerance="10"
     inkscape:pageopacity="0"
     inkscape:pageshadow="2"
     inkscape:window-width="1280"
     inkscape:window-height="1004"
     id="namedview11"
     showgrid="false"
     fit-margin-top="0"
     fit-margin-left="0"
     fit-margin-right="0"
     fit-margin-bottom="0"
     inkscape:zoom="5.6568543"
     inkscape:cx="23.018678"
     inkscape:cy="31.317062"
     inkscape:window-x="-8"
     inkscape:window-y="-8"
     inkscape:window-maximized="1"
     inkscape:current-layer="svg2" />
  <defs
     id="defs4" />
  <path
     d="M 0.00300151,61.61125 1.508492e-6,4.4175 C -0.00199849,1.9875 1.9850015,0 4.4162515,0 L 72.600002,0.005 c 2.42875,-0.0025 4.41625,1.985 4.41625,4.415 l 0,57.19 c 0,2.43125 -1.9875,4.41875 -4.41625,4.41625 l -68.1812505,0.0025 c -2.43,-0.0025 -4.41624999,-1.99 -4.41624999,-4.4175"
     style="fill:#f4911d;fill-opacity:1;fill-rule:nonzero;stroke:none"
     id="path3585"
     inkscape:connector-curvature="0" />
  <path
     d="m 1.1505015,61.37488 -0.002,-56.72375 c 0,-1.92625 1.57625,-3.50125 3.5025,-3.50375 l 67.7125005,0.005 c 1.92875,0 3.50375,1.575 3.50375,3.50125 l 0.0025,56.72125 c -0.0025,1.92625 -1.58,3.50375 -3.50625,3.50375 l -67.7100005,0 c -1.92625,0 -3.5025,-1.575 -3.5025,-3.50375"
     style="fill:#000000;fill-opacity:1;fill-rule:evenodd;stroke:none"
     id="path3593"
     inkscape:connector-curvature="0" />
  <path
     d="m 2.9180015,61.3625 -0.002,-56.69625 c -0.002,-0.9625 0.78625,-1.75125 1.75,-1.75125 L 72.352252,2.9175 c 0.96375,0 1.75,0.78875 1.75,1.75125 l 0,56.69375 c 0,0.9625 -0.78875,1.75375 -1.75,1.75125 l -67.6837505,0 c -0.96125,0 -1.75,-0.78875 -1.75,-1.75125"
     style="fill:#f4911d;fill-opacity:1;fill-rule:evenodd;stroke:none"
     id="path3597"
     inkscape:connector-curvature="0" />
  <g
     id="g3599"
     transform="matrix(1.25,0,0,-1.25,19.385502,51.04)"
     style="fill:#000000;stroke:none">
    <path
       d="m 0,0 c -0.073,0.503 -0.27,0.738 -0.614,0.738 -0.594,0 -0.808,-0.469 -0.808,-1.801 0,-1.476 0.252,-2.07 0.88,-2.07 0.434,0 0.542,0.359 0.542,0.738 l 0.738,0 c -0.018,-0.846 -0.559,-1.459 -1.28,-1.459 -1.097,0 -1.583,0.883 -1.583,2.773 0,1.657 0.521,2.54 1.531,2.54 0.414,0 0.773,-0.18 1.008,-0.524 C 0.611,0.683 0.683,0.468 0.738,0 L 0,0 z"
       style="fill:#000000;fill-opacity:1;fill-rule:nonzero;stroke:none"
       id="path3601"
       inkscape:connector-curvature="0" />
  </g>
  <g
     id="g3603"
     transform="matrix(1.25,0,0,-1.25,21.568002,55.745)"
     style="fill:#000000;stroke:none">
    <path
       d="m 0,0 0,5.133 2.412,0 0,-0.721 -1.674,0 0,-1.297 1.062,0 0,-0.701 -1.062,0 0,-1.693 1.873,0 L 2.611,0 0,0 z"
       style="fill:#000000;fill-opacity:1;fill-rule:nonzero;stroke:none"
       id="path3605"
       inkscape:connector-curvature="0" />
  </g>
  <g
     id="g3607"
     transform="matrix(1.25,0,0,-1.25,25.889252,55.745)"
     style="fill:#000000;stroke:none">
    <path
       d="m 0,0 0,5.133 0.738,0 0,-4.448 1.873,0 L 2.611,0 0,0 z"
       style="fill:#000000;fill-opacity:1;fill-rule:nonzero;stroke:none"
       id="path3609"
       inkscape:connector-curvature="0" />
  </g>
  <g
     id="g3611"
     transform="matrix(1.25,0,0,-1.25,30.029252,55.745)"
     style="fill:#000000;stroke:none">
    <path
       d="m 0,0 0,5.133 0.738,0 0,-4.448 1.873,0 L 2.611,0 0,0 z"
       style="fill:#000000;fill-opacity:1;fill-rule:nonzero;stroke:none"
       id="path3613"
       inkscape:connector-curvature="0" />
  </g>
  <g
     id="g3615"
     transform="matrix(1.25,0,0,-1.25,40.945502,51.13113)"
     style="fill:#000000;stroke:none">
    <path
       d="m 0,0 c 0,0.866 -0.541,1.442 -1.35,1.442 l -1.531,0 0,-5.133 0.738,0 0,2.252 0.793,0 C -0.487,-1.439 0,-0.935 0,0 m -0.721,0 c 0,-0.468 -0.235,-0.738 -0.666,-0.738 l -0.756,0 0,1.459 0.756,0 c 0.396,0 0.666,-0.289 0.666,-0.721"
       style="fill:#000000;fill-opacity:1;fill-rule:nonzero;stroke:none"
       id="path3617"
       inkscape:connector-curvature="0" />
  </g>
  <g
     id="g3619"
     transform="matrix(1.25,0,0,-1.25,44.478002,55.745)"
     style="fill:#000000;stroke:none">
    <path
       d="m 0,0 0,2.324 -1.405,0 0,-2.324 -0.738,0 0,5.133 0.738,0 0,-2.09 1.405,0 0,2.09 0.738,0 L 0.738,0 0,0 z"
       style="fill:#000000;fill-opacity:1;fill-rule:nonzero;stroke:none"
       id="path3621"
       inkscape:connector-curvature="0" />
  </g>
  <g
     id="g3623"
     transform="matrix(1.25,0,0,-1.25,50.420502,52.525)"
     style="fill:#000000;stroke:none">
    <path
       d="M 0,0 C 0,0.774 -0.073,1.26 -0.289,1.764 -0.541,2.395 -0.901,2.647 -1.495,2.647 -2.09,2.647 -2.45,2.395 -2.719,1.781 -2.936,1.295 -3.008,0.774 -3.008,0 c 0,-0.793 0.072,-1.279 0.289,-1.783 0.252,-0.611 0.611,-0.883 1.224,-0.883 0.577,0 0.954,0.272 1.206,0.883 C -0.073,-1.297 0,-0.793 0,0 m -0.703,0 c 0,-0.596 -0.036,-0.9 -0.163,-1.314 -0.125,-0.434 -0.324,-0.631 -0.629,-0.631 -0.324,0 -0.523,0.197 -0.648,0.631 -0.109,0.414 -0.162,0.738 -0.162,1.295 0,0.576 0.035,0.919 0.162,1.314 0.125,0.434 0.324,0.631 0.648,0.631 0.305,0 0.504,-0.197 0.629,-0.649 C -0.756,0.9 -0.703,0.576 -0.703,0"
       style="fill:#000000;fill-opacity:1;fill-rule:nonzero;stroke:none"
       id="path3625"
       inkscape:connector-curvature="0" />
  </g>
  <g
     id="g3627"
     transform="matrix(1.25,0,0,-1.25,54.583002,55.745)"
     style="fill:#000000;stroke:none">
    <path
       d="m 0,0 -1.584,3.439 0,-3.439 -0.739,0 0,5.133 0.739,0 1.404,-3.08 0,3.08 0.738,0 L 0.558,0 0,0 z"
       style="fill:#000000;fill-opacity:1;fill-rule:nonzero;stroke:none"
       id="path3629"
       inkscape:connector-curvature="0" />
  </g>
  <g
     id="g3631"
     transform="matrix(1.25,0,0,-1.25,56.653002,55.745)"
     style="fill:#000000;stroke:none">
    <path
       d="m 0,0 0,5.133 2.412,0 0,-0.721 -1.674,0 0,-1.297 1.063,0 0,-0.701 -1.063,0 0,-1.693 1.873,0 L 2.611,0 0,0 z"
       style="fill:#000000;fill-opacity:1;fill-rule:nonzero;stroke:none"
       id="path3633"
       inkscape:connector-curvature="0" />
  </g>
  <g
     id="g3635"
     transform="matrix(1.25,0,0,-1.25,15.996752,34.351251)"
     style="fill:#000000;stroke:none">
    <path
       d="M 0,0 C 0.037,0.703 0.089,0.955 0.252,1.404 0.468,1.945 0.738,2.36 1.08,2.684 1.207,2.791 1.314,2.881 1.728,3.17 2.07,3.404 2.16,3.529 2.16,3.781 2.16,4.178 1.836,4.502 1.441,4.502 1.044,4.502 0.72,4.178 0.72,3.781 L 0,3.781 C 0.017,4.592 0.63,5.223 1.441,5.223 2.232,5.223 2.863,4.574 2.863,3.781 2.863,3.367 2.718,3.043 2.431,2.774 2.377,2.738 2.322,2.701 2.269,2.647 L 2.087,2.522 1.908,2.395 1.711,2.252 C 1.386,2.018 1.044,1.549 0.9,1.117 0.845,0.99 0.828,0.901 0.793,0.721 l 2.07,0 L 2.863,0 0,0 z"
       style="fill:#000000;fill-opacity:1;fill-rule:nonzero;stroke:none"
       id="path3637"
       inkscape:connector-curvature="0" />
  </g>
  <path
     d="m 20.159002,30.861881 2.25,0 0,0.85375 -2.25,0 0,-0.85375 z"
     style="fill:#000000;fill-opacity:1;fill-rule:nonzero;stroke:none"
     id="path3639"
     inkscape:connector-curvature="0" />
  <g
     id="g3641"
     transform="matrix(1.25,0,0,-1.25,26.640502,34.351251)"
     style="fill:#000000;stroke:none">
    <path
       d="M 0,0 -0.629,0 -1.115,2.684 -1.601,0 -2.25,0 l -0.81,5.133 0.72,0 0.432,-2.738 0.504,2.738 0.576,0 0.486,-2.738 0.452,2.738 0.718,0 L 0,0 z"
       style="fill:#000000;fill-opacity:1;fill-rule:nonzero;stroke:none"
       id="path3643"
       inkscape:connector-curvature="0" />
  </g>
  <g
     id="g3645"
     transform="matrix(1.25,0,0,-1.25,30.085502,29.848631)"
     style="fill:#000000;stroke:none">
    <path
       d="m 0,0 -0.361,-1.477 0.738,0 L 0,0 z m 0.918,-3.602 -0.361,1.404 -1.098,0 -0.342,-1.404 -0.738,0 1.277,5.133 0.721,0 1.279,-5.133 -0.738,0 z"
       style="fill:#000000;fill-opacity:1;fill-rule:nonzero;stroke:none"
       id="path3647"
       inkscape:connector-curvature="0" />
  </g>
  <g
     id="g3649"
     transform="matrix(1.25,0,0,-1.25,34.565502,31.446131)"
     style="fill:#000000;stroke:none">
    <path
       d="m 0,0 0,-2.324 -0.738,0 0,2.324 -1.26,2.809 0.773,0 0.864,-1.856 0.847,1.856 0.791,0 L 0,0 z"
       style="fill:#000000;fill-opacity:1;fill-rule:nonzero;stroke:none"
       id="path3651"
       inkscape:connector-curvature="0" />
  </g>
  <g
     id="g3653"
     transform="matrix(1.25,0,0,-1.25,43.838002,34.351251)"
     style="fill:#000000;stroke:none">
    <path
       d="M 0,0 -0.738,2.522 C -0.252,2.701 0,3.152 0,3.764 0,4.592 -0.541,5.133 -1.352,5.133 l -1.529,0 0,-5.133 0.738,0 0,2.414 0.702,0 L -0.756,0 0,0 z m -0.721,3.764 c 0,-0.414 -0.234,-0.649 -0.666,-0.649 l -0.756,0 0,1.297 0.756,0 c 0.397,0 0.666,-0.252 0.666,-0.648"
       style="fill:#000000;fill-opacity:1;fill-rule:nonzero;stroke:none"
       id="path3655"
       inkscape:connector-curvature="0" />
  </g>
  <g
     id="g3657"
     transform="matrix(1.25,0,0,-1.25,48.518002,34.351251)"
     style="fill:#000000;stroke:none">
    <path
       d="m 0,0 -1.277,5.133 -0.721,0 L -3.277,0 l 0.738,0 0.342,1.404 1.099,0 L -0.738,0 0,0 z m -1.277,2.125 -0.738,0 0.359,1.477 0.379,-1.477 z"
       style="fill:#000000;fill-opacity:1;fill-rule:nonzero;stroke:none"
       id="path3659"
       inkscape:connector-curvature="0" />
  </g>
  <g
     id="g3661"
     transform="matrix(1.25,0,0,-1.25,52.995502,31.131131)"
     style="fill:#000000;stroke:none">
    <path
       d="m 0,0 c 0,0.395 -0.053,0.846 -0.125,1.223 -0.09,0.523 -0.306,0.92 -0.613,1.135 -0.18,0.144 -0.395,0.199 -0.828,0.199 l -1.315,0 0,-5.133 1.424,0 c 0.287,0 0.539,0.072 0.719,0.235 C -0.232,-1.945 0,-1.189 0,0 m -0.719,-0.037 c 0,-0.396 -0.037,-0.756 -0.072,-1.08 -0.072,-0.396 -0.306,-0.738 -0.738,-0.738 l -0.613,0 0,3.691 0.613,0 c 0.324,0 0.539,-0.162 0.666,-0.521 0.09,-0.217 0.144,-0.776 0.144,-1.352"
       style="fill:#000000;fill-opacity:1;fill-rule:nonzero;stroke:none"
       id="path3663"
       inkscape:connector-curvature="0" />
  </g>
  <path
     d="m 54.257752,27.934381 0.89875,0 0,6.41625 -0.89875,0 0,-6.41625 z"
     style="fill:#000000;fill-opacity:1;fill-rule:nonzero;stroke:none"
     id="path3665"
     inkscape:connector-curvature="0" />
  <g
     id="g3667"
     transform="matrix(1.25,0,0,-1.25,60.219252,31.131131)"
     style="fill:#000000;stroke:none">
    <path
       d="M 0,0 C 0,0.774 -0.07,1.26 -0.287,1.764 -0.539,2.395 -0.9,2.647 -1.494,2.647 -2.087,2.647 -2.447,2.395 -2.718,1.782 -2.933,1.295 -3.005,0.774 -3.005,0 c 0,-0.793 0.072,-1.279 0.287,-1.783 0.252,-0.611 0.613,-0.883 1.224,-0.883 0.577,0 0.955,0.272 1.207,0.883 C -0.07,-1.297 0,-0.793 0,0 m -0.701,0 c 0,-0.595 -0.037,-0.9 -0.162,-1.314 -0.127,-0.434 -0.324,-0.631 -0.631,-0.631 -0.324,0 -0.521,0.197 -0.648,0.631 -0.108,0.414 -0.162,0.738 -0.162,1.295 0,0.576 0.037,0.92 0.162,1.314 0.127,0.434 0.324,0.631 0.648,0.631 0.307,0 0.504,-0.197 0.631,-0.648 C -0.755,0.901 -0.701,0.576 -0.701,0"
       style="fill:#000000;fill-opacity:1;fill-rule:nonzero;stroke:none"
       id="path3669"
       inkscape:connector-curvature="0" />
  </g>
  <g
     id="g3671"
     transform="matrix(1.25,0,0,-1.25,35.466752,45.04738)"
     style="fill:#000000;stroke:none">
    <path
       d="m 0,0 -1.278,5.131 -0.72,0 L -3.276,0 l 0.739,0 0.341,1.405 1.098,0 L -0.739,0 0,0 z m -1.278,2.125 -0.738,0 0.359,1.477 0.379,-1.477 z"
       style="fill:#000000;fill-opacity:1;fill-rule:nonzero;stroke:none"
       id="path3673"
       inkscape:connector-curvature="0" />
  </g>
  <g
     id="g3675"
     transform="matrix(1.25,0,0,-1.25,39.226752,45.04738)"
     style="fill:#000000;stroke:none">
    <path
       d="m 0,0 -1.586,3.44 0,-3.44 -0.737,0 0,5.131 0.737,0 1.406,-3.078 0,3.078 0.738,0 L 0.558,0 0,0 z"
       style="fill:#000000;fill-opacity:1;fill-rule:nonzero;stroke:none"
       id="path3677"
       inkscape:connector-curvature="0" />
  </g>
  <g
     id="g3679"
     transform="matrix(1.25,0,0,-1.25,44.898002,41.82875)"
     style="fill:#000000;stroke:none">
    <path
       d="m 0,0 c 0,0.396 -0.055,0.845 -0.127,1.224 -0.09,0.522 -0.307,0.918 -0.612,1.135 -0.181,0.143 -0.396,0.197 -0.828,0.197 l -1.314,0 0,-5.131 1.422,0 c 0.287,0 0.539,0.073 0.72,0.235 C -0.235,-1.944 0,-1.188 0,0 m -0.721,-0.035 c 0,-0.397 -0.037,-0.756 -0.072,-1.081 -0.073,-0.396 -0.307,-0.738 -0.739,-0.738 l -0.611,0 0,3.69 0.611,0 c 0.325,0 0.541,-0.162 0.666,-0.522 0.09,-0.217 0.145,-0.773 0.145,-1.349"
       style="fill:#000000;fill-opacity:1;fill-rule:nonzero;stroke:none"
       id="path3681"
       inkscape:connector-curvature="0" />
  </g>
  <g
     id="g3683"
     transform="matrix(1.25,0,0,-1.25,13.195502,11.831131)"
     style="fill:#000000;stroke:none">
    <path
       d="m 0,0 0,-7.416 -1.23,0 0,7.416 -1.563,0 0,1.14 4.356,0 L 1.563,0 0,0 z"
       style="fill:#000000;fill-opacity:1;fill-rule:nonzero;stroke:none"
       id="path3685"
       inkscape:connector-curvature="0" />
  </g>
  <g
     id="g3687"
     transform="matrix(1.25,0,0,-1.25,22.165502,19.787501)"
     style="fill:#000000;stroke:none">
    <path
       d="m 0,0 c -0.42,-0.692 -1.23,-1.202 -2.041,-1.202 -0.842,0 -1.682,0.481 -2.101,1.202 -0.241,0.449 -0.331,0.81 -0.331,1.5 l 0,6.005 1.231,0 0,-6.156 C -3.242,0.539 -2.762,0 -2.041,0 -1.381,0 -0.9,0.539 -0.9,1.349 l 0,6.156 1.23,0 0,-6.005 C 0.33,0.81 0.24,0.449 0,0"
       style="fill:#000000;fill-opacity:1;fill-rule:nonzero;stroke:none"
       id="path3689"
       inkscape:connector-curvature="0" />
  </g>
  <g
     id="g3691"
     transform="matrix(1.25,0,0,-1.25,30.871752,21.101251)"
     style="fill:#000000;stroke:none">
    <path
       d="M 0,0 -1.231,4.203 C -0.42,4.504 0,5.254 0,6.275 0,7.656 -0.9,8.556 -2.252,8.556 l -2.551,0 0,-8.556 1.231,0 0,4.023 1.172,0 L -1.26,0 0,0 z m -1.199,6.275 c 0,-0.691 -0.391,-1.082 -1.112,-1.082 l -1.261,0 0,2.162 1.261,0 c 0.661,0 1.112,-0.42 1.112,-1.08"
       style="fill:#000000;fill-opacity:1;fill-rule:nonzero;stroke:none"
       id="path3693"
       inkscape:connector-curvature="0" />
  </g>
  <g
     id="g3695"
     transform="matrix(1.25,0,0,-1.25,37.478002,21.101251)"
     style="fill:#000000;stroke:none">
    <path
       d="m 0,0 -2.642,5.734 0,-5.734 -1.231,0 0,8.556 1.231,0 2.341,-5.134 0,5.134 1.233,0 L 0.932,0 0,0 z"
       style="fill:#000000;fill-opacity:1;fill-rule:nonzero;stroke:none"
       id="path3697"
       inkscape:connector-curvature="0" />
  </g>
  <g
     id="g3699"
     transform="matrix(1.25,0,0,-1.25,52.301752,15.735001)"
     style="fill:#000000;stroke:none">
    <path
       d="m 0,0 c 0,1.291 -0.119,2.101 -0.48,2.943 -0.42,1.051 -1.021,1.471 -2.012,1.471 -0.99,0 -1.591,-0.42 -2.041,-1.442 -0.361,-0.81 -0.48,-1.681 -0.48,-2.972 0,-1.321 0.119,-2.133 0.48,-2.973 0.42,-1.021 1.02,-1.471 2.041,-1.471 0.961,0 1.592,0.45 2.012,1.471 C -0.119,-2.162 0,-1.321 0,0 m -1.169,0 c 0,-0.991 -0.061,-1.502 -0.272,-2.192 -0.209,-0.72 -0.541,-1.05 -1.051,-1.05 -0.541,0 -0.871,0.33 -1.08,1.05 -0.181,0.69 -0.271,1.231 -0.271,2.162 0,0.961 0.06,1.532 0.271,2.192 0.209,0.721 0.539,1.051 1.08,1.051 0.51,0 0.842,-0.33 1.051,-1.082 0.18,-0.629 0.272,-1.17 0.272,-2.131"
       style="fill:#000000;fill-opacity:1;fill-rule:nonzero;stroke:none"
       id="path3701"
       inkscape:connector-curvature="0" />
  </g>
  <g
     id="g3703"
     transform="matrix(1.25,0,0,-1.25,55.943002,11.907501)"
     style="fill:#000000;stroke:none">
    <path
       d="m 0,0 0,-2.162 1.711,0 0,-1.17 -1.711,0 0,-4.023 -1.231,0 0,8.556 4.354,0 L 3.123,0 0,0 z"
       style="fill:#000000;fill-opacity:1;fill-rule:nonzero;stroke:none"
       id="path3705"
       inkscape:connector-curvature="0" />
  </g>
  <g
     id="g3707"
     transform="matrix(1.25,0,0,-1.25,62.849252,11.907501)"
     style="fill:#000000;stroke:none">
    <path
       d="m 0,0 0,-2.162 1.711,0 0,-1.17 -1.711,0 0,-4.023 -1.232,0 0,8.556 4.355,0 L 3.123,0 0,0 z"
       style="fill:#000000;fill-opacity:1;fill-rule:nonzero;stroke:none"
       id="path3709"
       inkscape:connector-curvature="0" />
  </g>
</svg>
