<?xml version="1.0" encoding="UTF-8" standalone="no"?>
<!-- Generator: Adobe Illustrator 14.0.0, SVG Export Plug-In  -->

<svg
   xmlns:dc="http://purl.org/dc/elements/1.1/"
   xmlns:cc="http://creativecommons.org/ns#"
   xmlns:rdf="http://www.w3.org/1999/02/22-rdf-syntax-ns#"
   xmlns:svg="http://www.w3.org/2000/svg"
   xmlns="http://www.w3.org/2000/svg"
   xmlns:sodipodi="http://sodipodi.sourceforge.net/DTD/sodipodi-0.dtd"
   xmlns:inkscape="http://www.inkscape.org/namespaces/inkscape"
   version="1.1"
   x="0px"
   y="0px"
   width="81.687485"
   height="101.93748"
   viewBox="0 -0.321 81.687488 101.9375"
   enable-background="new 0 -0.321 144 120"
   xml:space="preserve"
   id="svg2"
   inkscape:version="0.48.2 r9819"
   sodipodi:docname="AJAX1.svg"><metadata
   id="metadata44"><rdf:RDF><cc:Work
       rdf:about=""><dc:format>image/svg+xml</dc:format><dc:type
         rdf:resource="http://purl.org/dc/dcmitype/StillImage" /><dc:title /></cc:Work></rdf:RDF></metadata><sodipodi:namedview
   pagecolor="#ffffff"
   bordercolor="#666666"
   borderopacity="1"
   objecttolerance="10"
   gridtolerance="10"
   guidetolerance="10"
   inkscape:pageopacity="0"
   inkscape:pageshadow="2"
   inkscape:window-width="1280"
   inkscape:window-height="1004"
   id="namedview42"
   showgrid="false"
   fit-margin-top="0"
   fit-margin-left="0"
   fit-margin-right="0"
   fit-margin-bottom="0"
   inkscape:zoom="5.3605324"
   inkscape:cx="37.012697"
   inkscape:cy="59.365242"
   inkscape:window-x="-8"
   inkscape:window-y="-8"
   inkscape:window-maximized="1"
   inkscape:current-layer="svg2" />
<defs
   id="defs4">
</defs>


















<path
   inkscape:connector-curvature="0"
   d="m 5.4012125,101.2719 70.8700075,0 c 1.34,0 2.63625,-0.53 3.58625,-1.47875 0.95,-0.94625 1.48125,-2.245 1.48125,-3.5825 l 0,-91.12252 c 0,-1.33875 -0.53125,-2.64125 -1.48125,-3.5875 -0.95,-0.94875 -2.24625,-1.47875 -3.58625,-1.47875 l -70.8700075,0 c -1.3375,0 -2.63625,0.53 -3.58375,1.47875 -0.9500102,0.94625 -1.4787602,2.24875 -1.4787602,3.5875 l 0,91.12252 c 0,1.74 0.9125002,3.37875 2.3800102,4.31 0.8325,0.53375 1.71625,0.6575 2.6825,0.75125"
   style="fill:#ffffff;fill-opacity:1;fill-rule:nonzero;stroke:#000000;stroke-width:0.70000017;stroke-miterlimit:4;stroke-opacity:1;stroke-dasharray:none"
   id="path4429" /><path
   inkscape:connector-curvature="0"
   d="m 1.7537025,96.20815 0,-91.12002 c 0,-0.9575 0.39126,-1.9075 1.06501,-2.58375 0.67875,-0.67375 1.62625,-1.065 2.585,-1.065 l 70.8675075,0 c 0.95375,0 1.90875,0.39125 2.58,1.065 0.67875,0.67625 1.07,1.62625 1.07,2.58375 l 0,91.12002 c 0,0.955 -0.39125,1.90375 -1.07,2.5825 -0.67125,0.67375 -1.62625,1.065 -2.58,1.065 l -70.8675075,0 c -0.95875,0 -1.90625,-0.39125 -2.585,-1.065 -0.67375,-0.67875 -1.06501,-1.6275 -1.06501,-2.5825"
   style="fill:#000000;fill-opacity:1;fill-rule:evenodd;stroke:none"
   id="path4445" /><path
   inkscape:connector-curvature="0"
   d="m 3.7387125,96.20815 c 0,0.44375 0.17125,0.86125 0.48625,1.17625 0.315,0.315 0.7325,0.48375 1.17625,0.48375 l 70.8700075,0 c 0.44375,0 0.86375,-0.16875 1.18125,-0.48375 0.3125,-0.315 0.48375,-0.7325 0.48375,-1.17625 l 0,-91.11877 c 0,-0.44625 -0.17125,-0.86375 -0.48375,-1.18 -0.3175,-0.315 -0.7375,-0.485 -1.18125,-0.485 l -70.8700075,0 c -0.44375,0 -0.86125,0.17 -1.17625,0.485 -0.315,0.31625 -0.48625,0.73375 -0.48625,1.18 l 0,91.11877 z"
   style="fill:#ffffff;fill-opacity:1;fill-rule:evenodd;stroke:none"
   id="path4449" /><path
   inkscape:connector-curvature="0"
   d="m 15.13747,50.48689 17.67125,13.055 c 0.58125,0.4325 1.385,0.5 2.04875,0.24875 0.725,-0.27625 1.37375,-1.0275 1.3375,-1.84 -0.01,-0.21625 -0.0562,-0.43125 -0.12625,-0.63375 l -2.02,-5.81375 32.55876,0 0,-10.03 -32.55876,0 2.02,-5.77376 c 0.0725,-0.21 0.12125,-0.45125 0.12625,-0.67625 0.025,-0.9625 -0.8125,-1.76 -1.71625,-1.91625 -0.5425,-0.0913 -1.21125,-0.02 -1.67,0.32125 L 15.13747,50.48689 z"
   style="fill:#000000;fill-opacity:1;fill-rule:evenodd;stroke:none"
   id="path4453" /><path
   inkscape:connector-curvature="0"
   d="m 22.98496,31.39063 -4.66875,-8.415 -1.6675,2.27125 0,6.14375 -2.81,0 0,-17.99875 2.81,0 0,7.10375 5.21,-7.10375 3.4575,0 -5.16375,7.08125 6.0625,10.9175 -3.23,0 z"
   style="fill:#000000;fill-opacity:1;fill-rule:evenodd;stroke:none"
   id="path4457" /><path
   inkscape:connector-curvature="0"
   style="fill:#000000;fill-opacity:1;fill-rule:evenodd;stroke:none"
   d="m 58.28135,13.38638 0,18 2.8125,0 0,-7.875 4.28125,0 c 0.48375,-0.025 0.94,-0.0462 1.40625,-0.1875 1.435,-0.4375 2.6475,-1.51625 3.21875,-2.90625 0.635,-1.54125 0.46125,-3.3575 -0.46875,-4.75 -0.9375,-1.40625 -2.52625,-2.28125 -4.21875,-2.28125 l -7.03125,0 z m 2.8125,2.8125 4.21875,0 c 0.745,0 1.42625,0.3825 1.84375,1 0.50875,0.7475 0.5375,1.75 0.0312,2.5 -0.42,0.61625 -1.125,1 -1.875,1 l -4.21875,0 0,-4.5 z"
   id="path4461" /><path
   inkscape:connector-curvature="0"
   d="m 29.59622,31.39063 0,-17.99875 10.395,0 0,2.8325 -7.585,0 0,4.48125 5.79375,0 0,2.8125 -5.79375,0 0,5.06125 8.14625,0 0,2.81125 -10.95625,0 z"
   style="fill:#000000;fill-opacity:1;fill-rule:evenodd;stroke:none"
   id="path4465" /><path
   inkscape:connector-curvature="0"
   d="m 43.93622,31.39063 0,-17.99875 10.39626,0 0,2.8325 -7.58625,0 0,4.48125 5.79375,0 0,2.8125 -5.79375,0 0,5.06125 8.1475,0 0,2.81125 -10.95751,0 z"
   style="fill:#000000;fill-opacity:1;fill-rule:evenodd;stroke:none"
   id="path4469" /><path
   inkscape:connector-curvature="0"
   d="m 15.13121,87.98815 0,-17.99876 2.88625,0 0,15.11 8.25375,0 0,2.88876 -11.14,0 z"
   style="fill:#000000;fill-opacity:1;fill-rule:nonzero;stroke:none"
   id="path4477" /><path
   inkscape:connector-curvature="0"
   d="m 28.96871,87.98815 0,-17.99876 10.79125,0 0,2.8875 -7.90375,0 0,4.31875 5.45,0 0,2.88625 -5.45,0 0,5.0175 8.25375,0 0,2.88876 -11.14125,0 z"
   style="fill:#000000;fill-opacity:1;fill-rule:nonzero;stroke:none"
   id="path4481" /><path
   inkscape:connector-curvature="0"
   d="m 43.18497,69.98939 11.14251,0 0,2.8875 -8.25625,0 0,4.31875 5.39625,0 0,2.88625 -5.39625,0 0,7.90626 -2.88626,0 0,-17.99876 z"
   style="fill:#000000;fill-opacity:1;fill-rule:nonzero;stroke:none"
   id="path4485" /><path
   inkscape:connector-curvature="0"
   d="m 62.41998,72.87689 0,15.11126 -2.88625,0 0,-15.11126 -4.12875,0 0,-2.8875 11.14125,0 0,2.8875 -4.12625,0 z"
   style="fill:#000000;fill-opacity:1;fill-rule:nonzero;stroke:none"
   id="path4489" /></svg>