<?xml version="1.0" encoding="UTF-8" standalone="no"?>
<!-- Created with Inkscape (http://www.inkscape.org/) -->

<svg
   xmlns:dc="http://purl.org/dc/elements/1.1/"
   xmlns:cc="http://creativecommons.org/ns#"
   xmlns:rdf="http://www.w3.org/1999/02/22-rdf-syntax-ns#"
   xmlns:svg="http://www.w3.org/2000/svg"
   xmlns="http://www.w3.org/2000/svg"
   xmlns:sodipodi="http://sodipodi.sourceforge.net/DTD/sodipodi-0.dtd"
   xmlns:inkscape="http://www.inkscape.org/namespaces/inkscape"
   width="71.999962"
   height="57.600002"
   id="svg2934"
   version="1.1"
   inkscape:version="0.48.2 r9819"
   sodipodi:docname="MUTCD M4-9aL.svg">
  <defs
     id="defs2936">
    <inkscape:perspective
       sodipodi:type="inkscape:persp3d"
       inkscape:vp_x="0 : 526.18109 : 1"
       inkscape:vp_y="0 : 1000 : 0"
       inkscape:vp_z="744.09448 : 526.18109 : 1"
       inkscape:persp3d-origin="372.04724 : 350.78739 : 1"
       id="perspective2942" />
    <inkscape:perspective
       id="perspective2924"
       inkscape:persp3d-origin="0.5 : 0.33333333 : 1"
       inkscape:vp_z="1 : 0.5 : 1"
       inkscape:vp_y="0 : 1000 : 0"
       inkscape:vp_x="0 : 0.5 : 1"
       sodipodi:type="inkscape:persp3d" />
  </defs>
  <sodipodi:namedview
     id="base"
     pagecolor="#ffffff"
     bordercolor="#666666"
     borderopacity="1.0"
     inkscape:pageopacity="0.0"
     inkscape:pageshadow="2"
     inkscape:zoom="7.4193678"
     inkscape:cx="31.54667"
     inkscape:cy="10.251372"
     inkscape:document-units="px"
     inkscape:current-layer="g2909"
     showgrid="false"
     inkscape:window-width="1280"
     inkscape:window-height="1004"
     inkscape:window-x="-8"
     inkscape:window-y="-8"
     inkscape:window-maximized="1"
     fit-margin-top="0"
     fit-margin-left="0"
     fit-margin-right="0"
     fit-margin-bottom="0" />
  <metadata
     id="metadata2939">
    <rdf:RDF>
      <cc:Work
         rdf:about="">
        <dc:format>image/svg+xml</dc:format>
        <dc:type
           rdf:resource="http://purl.org/dc/dcmitype/StillImage" />
        <dc:title></dc:title>
      </cc:Work>
    </rdf:RDF>
  </metadata>
  <g
     inkscape:label="Ebene 1"
     inkscape:groupmode="layer"
     id="layer1"
     transform="translate(1342.1794,3431.5976)">
    <g
       id="g3018"
       transform="translate(2,-2)">
      <g
         id="g2909"
         transform="matrix(0.80835983,0,0,0.80835983,-165.10178,-177.02766)">
        <path
           d="m -1452.667,-4023.666 77.1934,0 c 3.2705,0 5.9379,2.6674 5.9379,5.9395 l 0,59.3779 c 0,3.2705 -2.6674,5.938 -5.9379,5.938 l -77.1934,0 c -3.2705,0 -5.9379,-2.6675 -5.9379,-5.938 l 0,-59.3779 c 0,-3.2721 2.6674,-5.9395 5.9379,-5.9395"
           style="fill:#f38f00;fill-opacity:1;fill-rule:nonzero;stroke:none"
           id="path6535"
           inkscape:connector-curvature="0" />
        <path
           d="m -1452.3257,-4022.1228 76.5099,0 c 2.6102,0 4.7364,2.1231 4.7364,4.7272 l 0,58.7161 c 0,2.6025 -2.1262,4.7256 -4.7364,4.7256 l -76.5099,0 c -2.6071,0 -4.7349,-2.1231 -4.7349,-4.7256 l 0,-58.7161 c 0,-2.6041 2.1278,-4.7272 4.7349,-4.7272"
           style="fill:#000000;fill-opacity:1;fill-rule:evenodd;stroke:none"
           id="path6543"
           inkscape:connector-curvature="0" />
        <path
           d="m -1452.2751,-4019.7476 76.4078,0 c 1.3283,0 2.4123,1.0809 2.4123,2.4061 l 0,58.6079 c 0,1.3236 -1.084,2.4045 -2.4123,2.4045 l -76.4078,0 c -1.3284,0 -2.4108,-1.0809 -2.4108,-2.4045 l 0,-58.6079 c 0,-1.3252 1.0824,-2.4061 2.4108,-2.4061"
           style="fill:#f38f00;fill-opacity:1;fill-rule:evenodd;stroke:none"
           id="path6547"
           inkscape:connector-curvature="0" />
        <path
           d="m -1380.0693,-3989.2181 c 0,0.6247 -0.3634,1.2495 -0.9355,1.5618 -0.365,0.2088 -0.6263,0.2598 -1.3546,0.2598 l -2.8113,0 0,-3.6447 2.8113,0 c 0.7824,0 0.9896,0.053 1.3546,0.2613 0.5721,0.3124 0.9355,0.9371 0.9355,1.5618 m 2.6551,10.6729 -2.6025,-6.9245 c 1.353,-0.6248 2.2901,-2.1866 2.2901,-3.7484 0,-1.5092 -0.9371,-3.0726 -2.2376,-3.6957 -0.7298,-0.365 -1.5107,-0.4701 -2.655,-0.4701 l -4.8942,0 0,14.8387 2.3427,0 0,-6.456 2.8113,0 2.3952,6.456 2.55,0 z m -13.5862,-5.3117 0,-9.527 -2.3427,0 0,9.527 c 0,1.9283 -1.0933,3.1762 -2.7076,3.1762 -1.6144,0 -2.7077,-1.2479 -2.7077,-3.1762 l 0,-9.527 -2.3411,0 0,9.527 c 0,1.1458 0.2597,2.1881 0.6757,3.0726 0.7809,1.4566 2.5515,2.5066 4.3731,2.5066 1.8215,0 3.5906,-1.05 4.373,-2.5066 0.416,-0.8845 0.6773,-1.9268 0.6773,-3.0726 m -15.6706,-2.0814 c 0,1.1458 -0.2598,2.6025 -0.5722,3.3849 -0.5211,1.3005 -1.1984,1.8727 -2.2916,1.8727 -0.9356,0 -1.5618,-0.365 -2.0288,-1.1459 -0.5722,-0.9355 -0.8861,-2.5483 -0.8861,-4.1117 0,-1.2494 0.2072,-2.6025 0.5737,-3.4885 0.5196,-1.3005 1.2479,-1.8727 2.3937,-1.8216 0.8861,0.051 1.4582,0.3649 1.9268,1.1443 0.5721,0.9912 0.8845,2.5004 0.8845,4.1658 m 2.3427,0 c 0,-1.8742 -0.3634,-3.7483 -0.9881,-5.0503 -0.9371,-1.8216 -2.2391,-2.6551 -4.1133,-2.6551 -1.7195,0 -2.9148,0.5211 -3.7993,1.6669 -0.9897,1.4041 -1.6144,3.5907 -1.6144,6.0385 0,1.7706 0.4159,3.7483 1.0407,4.9978 0.8845,1.8216 2.1865,2.6628 4.2679,2.6628 1.5633,0 2.7602,-0.5289 3.5937,-1.6747 1.0406,-1.3005 1.6128,-3.6432 1.6128,-5.9859 m -12.3893,-5.3612 0,-2.0844 -9.1636,0 0,2.0844 3.3849,0 0,12.7543 2.3427,0 0,-12.7543 3.436,0 z m -10.3079,12.7543 0,-2.3953 -6.8719,0 0,-4.0607 4.3204,0 0,-2.3953 -4.3204,0 0,-3.6447 6.4034,0 0,-2.3427 -8.7461,0 0,14.8387 9.2146,0 z m -14.8371,-7.4441 c 0,1.9762 -0.4686,3.5906 -1.3531,4.4766 -0.416,0.416 -0.886,0.5722 -1.6654,0.5722 l -2.3427,0 0,-10.1007 2.6535,0 c 0.6263,0 1.1459,0.2613 1.5108,0.6263 0.7283,0.7809 1.1969,2.4463 1.1969,4.4256 m 2.3952,0 c 0,-2.9164 -0.8845,-5.2591 -2.4478,-6.6122 -0.7794,-0.6262 -1.3531,-0.7824 -2.8623,-0.7824 l -4.789,0 0,14.8387 4.5277,0 0.835,0 c 0.7794,-0.053 1.5603,-0.3139 2.1339,-0.8351 1.6655,-1.3004 2.6025,-3.6416 2.6025,-6.609"
           style="fill:#000000;fill-opacity:1;fill-rule:evenodd;stroke:none"
           id="path6579"
           inkscape:connector-curvature="0" />
        <path
           d="m -1404.8452,-3975.2855 11.4213,7.7255 -11.4213,7.7363 c -0.5041,0.3449 -1.1937,0.2119 -1.5355,-0.2922 -0.2288,-0.3356 -0.1871,-0.6835 -0.083,-1.0964 l 1.0082,-3.3525 -29.5335,0 0,-5.9843 29.5335,0 -0.9835,-3.2999 c -0.1283,-0.4546 -0.1809,-0.7917 0.059,-1.1443 0.3418,-0.5025 1.0314,-0.6355 1.5355,-0.2922"
           style="fill:#000000;fill-opacity:1;fill-rule:evenodd;stroke:none"
           id="path6583"
           inkscape:connector-curvature="0" />
        <path
           d="m -1395.3595,-4017.728 c 0.8628,0 1.5649,0.7021 1.5649,1.5634 0,0.8628 -0.7021,1.5649 -1.5649,1.5649 -0.8613,0 -1.5634,-0.7021 -1.5634,-1.5649 0,-0.8613 0.7021,-1.5634 1.5634,-1.5634"
           style="fill:#000000;fill-opacity:1;fill-rule:evenodd;stroke:none"
           id="path6587"
           inkscape:connector-curvature="0" />
        <path
           d="m -1400.096,-4007.8654 3.2814,-2.1865 c 0.1531,-0.6418 0.7824,-3.4886 2.0427,-4.1473 1.251,-0.8258 5.8591,2.57 5.8854,2.5978 l 0,4.953 -0.999,-0.1748 -0.3897,-3.954 c -0.3773,-0.076 -0.753,-0.1515 -1.1303,-0.2257 0.8242,2.1262 1.1257,4.1751 0.6525,5.5281 l 1.9979,8.1678 -1.3469,0.9556 -2.9102,-7.56 -1.3468,1.4334 -1.8696,5.6921 -1.7798,-0.651 1.6066,-5.9967 1.868,-3.3463 -0.7159,-2.4679 -0.7608,0.9912 -3.5628,1.1736 -0.5227,-0.7824 z"
           style="fill:#000000;fill-opacity:1;fill-rule:evenodd;stroke:none"
           id="path6591"
           inkscape:connector-curvature="0" />
        <path
           d="m -1422.8904,-4003.4893 3.5782,-0.5845 -2.2561,-2.9303 c -1.169,1.019 -1.3129,2.2422 -1.3221,3.5148 m -0.985,0.2134 c -0.01,-0.1268 -0.026,-0.3309 -0.026,-0.4731 0,-1.4505 0.4685,-2.8592 1.7411,-4.0298 l -1.3252,-1.5881 -2.052,6.2596 1.6624,-0.1686 z m -7.8756,-6.2286 0.1129,-0.3495 7.3096,-0.01 -1.9453,5.8931 -0.082,-0.6139 0.2227,0 -0.028,-0.3912 -0.9789,0 0.028,0.3634 0.252,0 0.056,0.6696 c 0,0 -4.9189,-5.5344 -4.9468,-5.5622 m -3.2365,5.6611 c 0.982,-0.7793 1.7459,-1.5231 2.2964,-3.0107 0.869,0.7902 1.3654,1.9298 1.3654,3.1051 0,2.3318 -1.9005,4.2323 -4.2324,4.2323 -2.3303,0 -4.2323,-1.9005 -4.2323,-4.2323 0,-2.3319 1.902,-4.2339 4.2323,-4.2339 0.7438,0 1.5046,0.2165 2.117,0.5768 -0.4144,1.3128 -0.818,1.9901 -2.0953,3.0169 -0.3108,0.014 -0.5459,0.2628 -0.5459,0.5582 0,0.3077 0.2505,0.5598 0.5583,0.5598 0.3092,0 0.5365,-0.2521 0.5365,-0.5722 m 12.2471,1.2526 c 0.4778,1.7844 2.1819,3.0741 4.0653,3.0741 2.3319,0 4.2339,-1.9005 4.2339,-4.2323 0,-2.3319 -1.902,-4.2339 -4.2339,-4.2339 -0.7438,0 -1.6051,0.1763 -2.2329,0.5427 l 2.2978,3.051 c 0.2815,0 0.5258,0.2551 0.5258,0.5582 0,0.3077 -0.2521,0.5598 -0.5598,0.5598 -0.085,0 -0.1732,-0.022 -0.2505,-0.057 l -3.8457,0.7376 z m -10.3976,-5.7942 1.4999,-4.1364 -0.4763,-0.8119 0.951,-1.0329 2.0397,0 0.029,0.586 -1.7907,0 -0.3634,0.3928 0.4191,0.7546 -0.5258,1.868 7.3204,0 0.1129,-0.3417 c -0.5892,-0.076 -1.6036,-0.4392 -1.8464,-0.6495 -0.2427,-0.2119 -0.029,-0.4051 0.2474,-0.4144 1.4443,-0.06 3.5906,-0.1809 3.9989,-0.184 0.4067,0 0.45,0.2041 0.1763,0.501 -0.2737,0.3 -0.5119,0.569 -1.5464,0.7299 l -0.2783,0.753 1.7319,2.1479 c 0.8165,-0.4964 1.8046,-0.7546 2.7633,-0.7546 2.8793,0 5.2282,2.3489 5.2282,5.2282 0,2.8777 -2.3489,5.2266 -5.2282,5.2266 -2.3675,0 -4.4519,-1.633 -5.0627,-3.8922 l -1.5912,0.2877 c -0.068,0.1871 -0.2273,0.3309 -0.4175,0.4438 l 0.2845,1.3468 0.3634,0 0.028,0.3634 -1.1474,0.056 0,-0.3912 0.2815,0 -0.3479,-1.3469 c -0.515,-0.084 -0.784,-0.5242 -0.631,-0.9618 l -5.2003,-5.8823 -0.232,0.6309 c 1.2619,0.9943 2.0165,2.5252 2.0165,4.1195 0,2.8777 -2.3474,5.2266 -5.2267,5.2266 -2.8792,0 -5.2281,-2.3489 -5.2281,-5.2266 0,-2.8793 2.3489,-5.2282 5.2281,-5.2282 0.8366,0 1.6948,0.2041 2.4201,0.5922"
           style="fill:#000000;fill-opacity:1;fill-rule:evenodd;stroke:none"
           id="path6595"
           inkscape:connector-curvature="0" />
      </g>
    </g>
  </g>
</svg>
