<?xml version="1.0" encoding="UTF-8" standalone="no"?>
<svg
   width="105.69981"
   height="52.826061"
   viewBox="0 0 298.30838 149.08688"
   version="1.1"
   id="svg2"
   inkscape:version="1.2.1 (9c6d41e410, 2022-07-14)"
   sodipodi:docname="MUTCD_CW1-6L.svg"
   xmlns:inkscape="http://www.inkscape.org/namespaces/inkscape"
   xmlns:sodipodi="http://sodipodi.sourceforge.net/DTD/sodipodi-0.dtd"
   xmlns="http://www.w3.org/2000/svg"
   xmlns:svg="http://www.w3.org/2000/svg"
   xmlns:rdf="http://www.w3.org/1999/02/22-rdf-syntax-ns#"
   xmlns:cc="http://creativecommons.org/ns#"
   xmlns:dc="http://purl.org/dc/elements/1.1/">
  <metadata
     id="metadata62">
    <rdf:RDF>
      <cc:Work
         rdf:about="">
        <dc:format>image/svg+xml</dc:format>
        <dc:type
           rdf:resource="http://purl.org/dc/dcmitype/StillImage" />
      </cc:Work>
    </rdf:RDF>
  </metadata>
  <defs
     id="defs60" />
  <sodipodi:namedview
     pagecolor="#ffffff"
     bordercolor="#666666"
     borderopacity="1"
     objecttolerance="10"
     gridtolerance="10"
     guidetolerance="10"
     inkscape:pageopacity="0"
     inkscape:pageshadow="2"
     inkscape:window-width="1920"
     inkscape:window-height="1017"
     id="namedview58"
     showgrid="false"
     fit-margin-top="0"
     fit-margin-left="0"
     fit-margin-right="0"
     fit-margin-bottom="0"
     inkscape:zoom="4.6745195"
     inkscape:cx="44.496552"
     inkscape:cy="-1.9253316"
     inkscape:window-x="-8"
     inkscape:window-y="1144"
     inkscape:window-maximized="1"
     inkscape:current-layer="svg2"
     inkscape:showpageshadow="2"
     inkscape:pagecheckerboard="0"
     inkscape:deskcolor="#d1d1d1" />
  <!-- draw the bicycle -->
  <!-- RIGHT -->
  <!-- LANE -->
  <!-- ONLY -->
  <path
     inkscape:connector-curvature="0"
     d="m 286.65664,149.08389 -275.000858,0.003 C 5.2316923,149.08689 2.2904377e-6,143.85872 2.2904377e-6,137.43816 l 0,-125.786452 C -0.00399771,5.2352185 5.2316923,-1.1485106e-5 11.655782,-1.1485106e-5 L 286.65664,0.00398851 c 6.42056,0 11.64873,5.22816999 11.64873,11.64871949 l 0.003,125.779402 c -0.003,6.34647 -5.30931,11.6593 -11.65225,11.65225"
     style="fill:#ffd033;fill-opacity:1;fill-rule:nonzero;stroke:none"
     id="path3573" />
  <path
     inkscape:connector-curvature="0"
     d="m 286.61434,145.85597 -274.923258,-0.004 c -4.6213897,-0.003 -8.4454997,-3.83422 -8.4560797,-8.45561 l 0.004,-125.701782 c -0.004,-4.6213895 3.83469,-8.4419695 8.4560797,-8.4560895 l 274.916198,0.004 c 4.62845,0.007 8.45609,3.82412 8.45961,8.4560895 l 0,125.701782 c -0.0113,4.61433 -3.82411,8.45608 -8.45608,8.45608"
     style="fill:#000000;fill-opacity:1;fill-rule:evenodd;stroke:none"
     id="path3577" />
  <path
     inkscape:connector-curvature="0"
     d="m 286.55434,141.32631 -274.803308,-0.004 c -2.1872297,0.0423 -4.0216697,-1.79564 -3.9863897,-3.98639 l 0.004,-125.581372 c -0.0388,-2.1836895 1.79564,-4.0251895 3.9828697,-3.9828595 l 274.799778,0.004 c 2.19428,-0.0459 4.02872,1.79564 3.98286,3.9828595 l 0.008,125.581842 c 0.0389,2.18722 -1.79564,4.02166 -3.98639,3.98639"
     style="fill:#ffd033;fill-opacity:1;fill-rule:evenodd;stroke:none"
     id="path3581" />
  <path
     style="fill:#f4911d;fill-opacity:1;stroke-width:0.213926"
     d="M 3.2244127,49.387994 C 2.7822877,48.825923 2.7810345,48.761187 2.7810345,26.483877 2.7810345,3.9889985 2.7953497,3.5277795 3.5083187,3.0517175 3.6377786,2.9652748 25.842547,2.8930748 52.852249,2.8912732 c 42.076284,-0.00281 49.168011,0.040201 49.523811,0.3003391 0.40582,0.2967148 0.41661,0.8132808 0.47498,22.7296077 0.0328,12.334297 0.009,22.635863 -0.0538,22.892368 -0.0624,0.256506 -0.26466,0.617505 -0.44938,0.802222 -0.30323,0.303233 -5.111224,0.335848 -49.507958,0.335848 H 3.6677909 Z"
     id="path17260"
     transform="scale(2.8222224)" />
  <path
     style="fill:#f4911d;fill-opacity:1;stroke-width:0.213926"
     d="M 2.8120877,52.504517 C 1.8566877,52.120504 1.0585316,51.410469 0.58345263,50.521939 L 0.10696287,49.63077 V 26.419828 c 0,-23.1250857 0.001653,-23.2141073 0.4469034,-24.066645 C 0.79966315,1.8825464 1.4096162,1.2086804 1.9093175,0.85570292 L 2.8178652,0.21392573 52.556762,0.15909453 c 48.349568,-0.0532996 49.764388,-0.0435527 50.651708,0.34894772 1.10758,0.48993613 1.92963,1.51642345 2.24859,2.80780655 0.16886,0.6836895 0.22002,7.5341042 0.17653,23.6387932 -0.0608,22.523252 -0.0643,22.681897 -0.50815,23.53183 -0.24579,0.470637 -0.85575,1.144503 -1.35545,1.497481 l -0.90855,0.641777 -49.772792,0.04064 C 22.178883,52.6916 3.1249321,52.630263 2.8120877,52.504517 Z M 103.06818,51.385271 c 0.3876,-0.211616 0.89264,-0.692949 1.12231,-1.069629 0.4074,-0.668154 0.41759,-1.251483 0.41759,-23.895814 0,-22.6443313 -0.0102,-23.2276608 -0.41759,-23.8958148 -0.22967,-0.3766802 -0.73471,-0.858013 -1.12231,-1.0696287 -0.67266,-0.3672532 -2.95757,-0.3847558 -50.228525,-0.3847558 -49.4118674,0 -49.5254985,9.835e-4 -50.2725462,0.4351287 C 0.96767171,2.4342669 1.0703326,0.72803387 1.0699611,26.387497 c -3.016e-4,20.895258 0.031465,23.031696 0.3525335,23.708296 0.3974473,0.837557 1.0439193,1.331844 2.0591569,1.57441 0.3794452,0.09066 22.7830805,0.150205 49.7858555,0.132328 46.824433,-0.031 49.128563,-0.05031 49.800673,-0.41726 z"
     id="path17262"
     transform="scale(2.8222224)" />
  <path
     inkscape:connector-curvature="0"
     d="M 270.35205,92.558789 H 111.88074 l 7.75758,24.511001 c 0.25047,0.7867 0.42686,1.5875 0.44097,2.42006 0.0882,3.87703 -2.93158,7.39422 -6.68514,8.12094 -2.2225,0.43745 -4.49791,-0.0318 -6.34647,-1.30175 L 27.898464,71.843683 106.95949,17.477086 c 1.40758,-0.97013 3.02683,-1.54516 4.7378,-1.55575 3.87703,-0.0388 7.39422,2.8187 8.12447,6.62164 0.25753,1.37584 0.24342,2.75167 -0.18344,4.07812 l -7.75758,24.507467 h 158.47131 z"
     style="fill:#000000;fill-opacity:1;fill-rule:evenodd;stroke:none"
     id="path3585" />
</svg>
