<?xml version="1.0" encoding="UTF-8" standalone="no"?>
<svg
   xmlns:dc="http://purl.org/dc/elements/1.1/"
   xmlns:cc="http://creativecommons.org/ns#"
   xmlns:rdf="http://www.w3.org/1999/02/22-rdf-syntax-ns#"
   xmlns:svg="http://www.w3.org/2000/svg"
   xmlns="http://www.w3.org/2000/svg"
   xmlns:sodipodi="http://sodipodi.sourceforge.net/DTD/sodipodi-0.dtd"
   xmlns:inkscape="http://www.inkscape.org/namespaces/inkscape"
   width="26.490015"
   height="39.735001"
   viewBox="0 0 74.760732 112.141"
   version="1.1"
   id="svg2"
   inkscape:version="0.48.2 r9819"
   sodipodi:docname="MUTCD W6-3 (temporary).svg">
  <metadata
     id="metadata62">
    <rdf:RDF>
      <cc:Work
         rdf:about="">
        <dc:format>image/svg+xml</dc:format>
        <dc:type
           rdf:resource="http://purl.org/dc/dcmitype/StillImage" />
        <dc:title></dc:title>
      </cc:Work>
    </rdf:RDF>
  </metadata>
  <defs
     id="defs60">
    <clipPath
       id="Clip0-1">
      <path
         inkscape:connector-curvature="0"
         d="m 0,0 0,1728.5 1296.5,0 L 1296.5,0 0,0 z"
         transform="translate(0,0.5)"
         id="path7-7" />
    </clipPath>
  </defs>
  <sodipodi:namedview
     pagecolor="#ffffff"
     bordercolor="#666666"
     borderopacity="1"
     objecttolerance="10"
     gridtolerance="10"
     guidetolerance="10"
     inkscape:pageopacity="0"
     inkscape:pageshadow="2"
     inkscape:window-width="1280"
     inkscape:window-height="1004"
     id="namedview58"
     showgrid="false"
     fit-margin-top="0"
     fit-margin-left="0"
     fit-margin-right="0"
     fit-margin-bottom="0"
     inkscape:zoom="4"
     inkscape:cx="35.862145"
     inkscape:cy="-1.7446158"
     inkscape:window-x="-8"
     inkscape:window-y="-8"
     inkscape:window-maximized="1"
     inkscape:current-layer="svg2"
     showguides="true"
     inkscape:guide-bbox="true" />
  <!-- draw the bicycle -->
  <!-- RIGHT -->
  <!-- LANE -->
  <!-- ONLY -->
  <path
     inkscape:connector-curvature="0"
     d="M 0.0071,100.4923 0,11.655765 C 0,5.2352078 5.235224,-0.00354427 11.655782,-1.6267075e-5 l 51.445599,0 C 69.525466,-0.00351627 74.753634,5.2352078 74.753634,11.655765 l 0.0071,88.836535 c 0,6.41703 -5.235224,11.64872 -11.659309,11.64872 l -51.445599,0 C 5.319891,112.13392 1e-6,106.82819 0.007056,100.4923"
     style="fill:#f4911d;fill-opacity:1;fill-rule:nonzero;stroke:none"
     id="path4107" />
  <path
     inkscape:connector-curvature="0"
     d="m 3.238546,100.44999 0,-88.755391 c 0.0071,-4.6249182 3.838223,-8.4490312 8.459613,-8.4596142 l 51.36446,0.0035 c 4.628446,-0.0035 8.445503,3.834696 8.459614,8.4596142 l -0.0071,88.744811 c -0.0071,4.62844 -3.824112,8.45256 -8.452558,8.45961 l -51.36446,0.003 c -4.62139,-0.0175 -8.459613,-3.83456 -8.459613,-8.45595"
     style="fill:#000000;fill-opacity:1;fill-rule:evenodd;stroke:none"
     id="path4111" />
  <path
     inkscape:connector-curvature="0"
     d="m 7.771742,100.38999 0,-88.638975 C 7.729412,9.5602648 9.570909,7.7364028 11.754604,7.7681528 l 51.251571,0 c 2.183695,-0.03881 4.01814,1.79564 3.982862,3.9828622 l 0,88.635445 c 0.03528,2.19076 -1.799167,4.0252 -3.989918,3.98287 l -51.244515,0.003 c -2.190751,0.0388 -4.01814,-1.79564 -3.982862,-3.98286"
     style="fill:#f4911d;fill-opacity:1;fill-rule:evenodd;stroke:none"
     id="path4115" />
  <path
     inkscape:connector-curvature="0"
     d="M 39.179556,77.35712 25.523525,97.557181 11.835743,77.35712 c -0.606778,-0.889001 -0.373945,-2.109612 0.518583,-2.71639 0.592667,-0.402167 1.206501,-0.331611 1.943806,-0.141111 l 5.926669,1.778 0,-61.690269 10.583336,0 0,61.690269 5.827891,-1.739195 c 0.807861,-0.22225 1.407584,-0.321028 2.028473,0.102306 0.889,0.606778 1.121833,1.827389 0.515055,2.71639"
     style="fill:#000000;fill-opacity:1;fill-rule:evenodd;stroke:none"
     id="path4119" />
  <path
     inkscape:connector-curvature="0"
     d="M 35.58475,34.865051 49.247837,14.664989 62.925036,34.865051 c 0.606778,0.885472 0.370417,2.106085 -0.518584,2.712863 -0.592667,0.405694 -1.2065,0.328083 -1.943806,0.144639 l -5.923141,-1.778002 0,61.355131 -10.583336,0 0,-61.355131 -5.831418,1.735668 c -0.804334,0.225778 -1.404056,0.321028 -2.024945,-0.102305 -0.889001,-0.606778 -1.114779,-1.827391 -0.515056,-2.712863"
     style="fill:#000000;fill-opacity:1;fill-rule:evenodd;stroke:none"
     id="path4123" />
</svg>
