<?xml version="1.0" encoding="UTF-8" standalone="no"?>
<svg xmlns="http://www.w3.org/2000/svg" xml:space="preserve" width="2170" height="1630">
  <path fill="#fff" stroke="#000" stroke-width="10" d="M2165 1490c0 74.5625-60.4375 135-135 135H140c-74.559375 0-135-60.4375-135-135V140C5 65.4406 65.440625 5 140 5h1890c74.5625 0 135 60.4406 135 135v1350z"/>
  <path d="M140 1591.25c-55.830125 0-101.25-45.425-101.25-101.25V140C38.75 84.16988 84.169875 38.75 140 38.75h1890c55.825 0 101.25 45.41988 101.25 101.25v1350c0 55.825-45.425 101.25-101.25 101.25H140z"/>
  <path fill="#fff" d="M140 1535c-24.81325 0-45-20.1875-45-45V140c0-24.81325 20.18675-45 45-45h1890c24.8125 0 45 20.18675 45 45v1350c0 24.8125-20.1875 45-45 45H140z"/>
  <path d="M832.38625 500.00125 729.115 317.15875v182.8425H686.48V230h42.635l98.5325 172.4225V230h42.63375v270.00125h-37.895zm102.6975 0v-270.0025H977.66V460.2125h124.8913v39.78875H935.08375zm-325.72-40.7375c-14.2125 26.52625-46.42375 45.475-79.585 45.475-33.16 0-65.37375-18.94875-79.585-45.475-7.57875-16.10375-12.3175-35.05125-12.3175-55.895V230h42.635v173.36875c0 35.05375 19.89625 57.79 49.2675 57.79 29.37 0 49.26625-22.73625 49.26625-57.79V230h42.635v173.36875c0 20.84375-4.7375 39.79125-12.31625 55.895zm885.42375 24.3c-15.15 13.26375-36 20.8425-58.7375 20.8425-46.425 0-80.525-27.4725-98.525-68.21l40.7375-15.1575c11.3625 25.5775 32.2125 39.78875 57.7875 39.78875 24.6375 0 41.6875-17.0525 41.6875-39.78875 0-36-41.6875-41.68375-76.7375-55.895-16.1125-6.63125-52.1125-22.73625-52.1125-67.26375 0-53.0525 36-72.9475 84.325-72.9475 37.8875 0 63.475 21.78875 76.7375 54.9475l-37.9 11.3675s-9.475-22.73625-39.7875-23.6825c-19.9-.9475-43.5875 6.63-41.6875 31.26375 3.7875 50.20875 130.75 17.0525 130.75 123.15625 0 24.63125-9.475 46.42125-26.5375 61.57875zm210.8125 0c-15.1625 13.26375-36.0125 20.8425-58.75 20.8425-46.4125 0-80.525-27.4725-98.525-68.21l40.7375-15.1575c11.375 25.5775 32.2125 39.78875 57.7875 39.78875 24.6375 0 41.6875-17.0525 41.6875-39.78875 0-36-41.6875-41.68375-76.7375-55.895-16.1125-6.63125-52.1125-22.73625-52.1125-67.26375 0-53.0525 36-72.9475 84.325-72.9475 37.9 0 63.475 21.78875 76.7375 54.9475l-37.8875 11.3675s-9.475-22.73625-39.8-23.6825c-19.8875-.9475-43.575 6.63-41.6875 31.26375 3.7875 50.20875 130.75 17.0525 130.75 123.15625 0 24.63125-9.475 46.42125-26.525 61.57875zm-562.5487 16.4375V230h158.9488v42.63125h-116.3725v66.31625h78.535v43.57875h-78.535v73.89625h124.8975v43.57875h-167.4738zM805.96875 1190.0201c-8.54625-14.2125-18.9925-19.895-35.13625-20.8426-20.895-.9475-34.19 9.4726-43.68625 33.1563-6.64875 16.1063-10.44625 40.7375-10.44625 63.4788 0 28.4125 5.6975 57.7875 16.1425 74.8375 8.54875 14.2125 19.94375 20.85 37.03875 20.85 19.94375 0 32.28875-10.425 41.78625-34.1125 5.69875-14.2125 10.44625-40.7375 10.44625-61.575 0-30.3175-5.6975-57.7925-16.145-75.7925zm29.44125 184.73c-15.19625 20.85-37.03875 30.325-65.52875 30.325-37.98625 0-61.73-15.1625-77.875-48.325-11.39375-22.7375-18.99125-58.725-18.99125-90.9375 0-44.5313 11.39375-84.3188 29.44-109.9 16.14375-20.8413 37.9875-30.3138 69.325-30.3138 34.18875 0 57.93375 15.1575 75.02625 48.315 11.395 23.6838 18.0425 57.7875 18.0425 91.8988 0 42.625-10.44625 85.2625-29.43875 108.9375zM578.22625 1177.37c-7.5775-3.7887-12.315-4.7387-25.58-4.7387H496.7475v66.3187h55.89875c13.265 0 18.0025-.95 25.58-4.7362 9.47375-4.7388 16.10875-17.0525 16.10875-28.4225 0-11.3701-6.635-22.7375-16.10875-28.4213zm18.0025 95.68c-12.31625 5.6875-28.4225 9.475-49.2675 9.475H496.7475V1400h-42.63375v-269.9975h92.8475c21.79125 0 36.00125 1.895 49.2675 8.525 23.685 11.37 41.68625 39.79 41.68625 67.2638 0 28.4225-18.00125 56.8462-41.68625 67.2587zm619.18625-105.1549v232.105H1172.6v-232.105h-61.85v-37.8938h167.4625v37.8938h-62.7975zm-152.7925 215.6675c-15.1588 13.2625-36.0025 20.85-58.7413 20.85-46.42245 0-80.5312-27.475-98.53245-68.2125l40.74-15.1625c11.37 25.575 32.21125 39.7875 57.79245 39.7875 24.6351 0 41.6876-17.05 41.6876-39.7875 0-36-41.6875-41.6875-76.74255-55.8875-16.10625-6.6375-52.1075-22.74-52.1075-67.2688 0-53.0512 36.00125-72.9475 84.32125-72.9475 37.895 0 63.4775 21.79 76.7413 54.9488l-37.8963 11.3675s-9.475-22.7363-39.7937-23.6838c-19.8963-.9475-43.58255 6.63-41.6863 31.2638 3.79 50.21 130.745 17.0512 130.745 123.1575 0 24.625-9.4737 46.425-26.5275 61.575zm587.89-199.5613c-6.625-6.6313-16.1-11.37-27.475-11.37h-48.3125v183.7937h42.625c14.2125 0 22.7375-2.8375 30.325-10.425 16.1-16.1 24.625-45.475 24.625-81.475 0-35.9975-8.525-66.3125-21.7875-80.5237zm18 200.8487c-10.425 9.475-24.625 14.2-38.8375 15.15h-97.5875v-269.9975h87.1625c27.475 0 37.9 2.8413 52.1125 14.2112 28.425 24.6313 44.525 67.2638 44.525 120.3113 0 54-17.05 96.6375-47.375 120.325zm-349.8 15.15v-269.9975h158.95v42.6313H1361.3v66.3162h78.525v43.575H1361.3v73.9h124.8875V1400h-167.475zM317.23625 740.0175c-8.5475-14.21-18.9925-19.89375-35.1375-20.84125-20.89375-.94875-34.19 9.4725-43.68625 33.15625-6.6475 16.10625-10.445 40.7375-10.445 63.475 0 28.42125 5.69625 57.78875 16.1425 74.84375 8.54875 14.20875 19.94375 20.84 37.03875 20.84 19.94375 0 32.28875-10.4225 41.78625-34.105 5.6975-14.21 10.44625-40.7375 10.44625-61.57875 0-30.315-5.69875-57.78875-16.145-75.79zm29.44 184.7375c-15.195 20.84375-37.03875 30.31625-65.5275 30.31625-37.9875 0-61.73125-15.15875-77.875-48.31625-11.395-22.7375-18.99125-58.73625-18.99125-90.9475 0-44.5275 11.39375-84.31625 29.44-109.89625 16.14375-20.84125 37.98625-30.315 69.325-30.315 34.18875 0 57.93 15.15875 75.025 48.31625 11.395 23.68375 18.04375 57.78875 18.04375 91.895 0 42.63125-10.44625 85.26125-29.44 108.9475zm1171.13625 25.24625v-270h43.2v270h-43.2zM508.86 717.895v232.10625h-42.815V717.895h-61.85125V680h167.4675v37.895H508.86zm653.4576 9.475c-6.6288-3.79125-10.42-4.7375-24.6326-4.7375h-51.1599v66.315h51.1599c13.2663 0 18.0038-.94625 24.6326-4.735 10.4237-5.685 17.0574-17.05375 17.0574-28.42125 0-11.36875-6.6337-22.73875-17.0574-28.42125zm18.95 222.63125-43.5825-117.475h-51.16v117.475h-42.6338V680h89.0563c20.845 0 35.0562 1.89625 48.32 8.5275 23.6862 11.36875 40.74 39.78875 40.74 67.26375 0 28.42125-17.0538 56.84125-41.6863 68.21l47.3725 126h-46.4262zm264.22 0h-38l-42.775-173.36875-41.8125 173.36875h-38.0126L1244.9738 680h43.7137l20.9126 142.10625L1343.8125 680h41.8125l35.1626 142.10625L1441.6876 680h43.725l-39.925 270.00125zM1755 933.5675c-15.1625 13.26125-36 20.84-58.7375 20.84-46.425 0-80.5375-27.4725-98.5375-68.21l40.7375-15.15875c11.375 25.57875 32.2125 39.79 57.8 39.79 24.6375 0 41.6875-17.0525 41.6875-39.79 0-36-41.6875-41.68375-76.75-55.89375-16.1-6.6325-52.1-22.73625-52.1-67.26375 0-53.0525 36-72.9475 84.325-72.9475 37.8875 0 63.475 21.78875 76.7375 54.9475l-37.9 11.3675s-9.475-22.73625-39.7875-23.6825c-19.9-.9475-43.5875 6.62875-41.6875 31.2625 3.7875 50.21 130.7375 17.05375 130.7375 123.1575 0 24.63125-9.475 46.42125-26.525 61.58125zM745.2325 950.00125v-117.475h-98.53625v117.475H604.0625v-270h42.63375V788.9475h98.53625V680.00125h42.63375v270H745.2325zm94.47125 0v-270H998.655v42.63125H882.27875v66.31625H960.81v43.57875h-78.53125v73.895h124.89245v43.57875H839.70375zm978.54625 0v-270h158.95v42.63125h-116.375v66.31625h78.525v43.57875h-78.525v73.895h124.8875v43.57875H1818.25z"/>
</svg>