<?xml version="1.0" encoding="UTF-8" standalone="no"?>
<svg
   xmlns:dc="http://purl.org/dc/elements/1.1/"
   xmlns:cc="http://creativecommons.org/ns#"
   xmlns:rdf="http://www.w3.org/1999/02/22-rdf-syntax-ns#"
   xmlns:svg="http://www.w3.org/2000/svg"
   xmlns="http://www.w3.org/2000/svg"
   xmlns:sodipodi="http://sodipodi.sourceforge.net/DTD/sodipodi-0.dtd"
   xmlns:inkscape="http://www.inkscape.org/namespaces/inkscape"
   width="90"
   height="89.992104"
   viewBox="0 0 254.00006 253.97769"
   version="1.1"
   id="svg2"
   inkscape:version="0.48.2 r9819"
   sodipodi:docname="MUTCD W3-5 (temporary).svg">
  <metadata
     id="metadata62">
    <rdf:RDF>
      <cc:Work
         rdf:about="">
        <dc:format>image/svg+xml</dc:format>
        <dc:type
           rdf:resource="http://purl.org/dc/dcmitype/StillImage" />
        <dc:title></dc:title>
      </cc:Work>
    </rdf:RDF>
  </metadata>
  <defs
     id="defs60" />
  <sodipodi:namedview
     pagecolor="#ffffff"
     bordercolor="#666666"
     borderopacity="1"
     objecttolerance="10"
     gridtolerance="10"
     guidetolerance="10"
     inkscape:pageopacity="0"
     inkscape:pageshadow="2"
     inkscape:window-width="1280"
     inkscape:window-height="1004"
     id="namedview58"
     showgrid="false"
     fit-margin-top="0"
     fit-margin-left="0"
     fit-margin-right="0"
     fit-margin-bottom="0"
     inkscape:zoom="5.6568543"
     inkscape:cx="34.373857"
     inkscape:cy="38.786084"
     inkscape:window-x="-8"
     inkscape:window-y="-8"
     inkscape:window-maximized="1"
     inkscape:current-layer="svg2" />
  <!-- draw the bicycle -->
  <!-- RIGHT -->
  <!-- LANE -->
  <!-- ONLY -->
  <path
     inkscape:connector-curvature="0"
     d="M 118.77326,250.564 3.43253,135.22679 C 1.26648,133.06074 0,130.06212 0,126.99296 c 0,-3.07623 1.26648,-6.06778 3.43253,-8.24442 L 118.77326,3.4113476 c 2.1731,-2.17664 5.15761,-3.41841001 8.24088,-3.411360009912 3.06917,0 6.07131,1.234720009912 8.23383,3.411360009912 L 250.59575,118.74854 c 2.159,2.16253 3.40431,5.18936 3.40431,8.24442 0,3.05152 -1.24531,6.07483 -3.40431,8.23383 L 135.24797,250.564 c -2.79399,2.79753 -6.99911,3.99697 -10.85143,3.14325 -2.26838,-0.51858 -3.84529,-1.70392 -5.62328,-3.14325"
     style="fill:#f4911d;fill-opacity:1;fill-rule:nonzero;stroke:none"
     id="path3438" />
  <path
     inkscape:connector-curvature="0"
     d="M 133.18072,248.51754 248.54261,133.15565 c 1.60514,-1.60514 2.53295,-3.88409 2.53295,-6.16303 0,-2.27189 -0.92781,-4.58259 -2.53295,-6.18773 L 133.18072,5.4571276 c -1.6263,-1.61925 -3.85939,-2.52942 -6.1595,-2.52942 -2.31068,0 -4.56847,0.91017 -6.1983,2.52942 L 5.48573,120.80489 c -1.61925,1.61925 -2.55411,3.89114 -2.55411,6.18773 0,2.29305 0.93486,4.54378 2.55411,6.16303 l 115.33719,115.36189 c 1.61573,1.60515 3.92288,2.52943 6.1983,2.52943 2.26836,0 4.54731,-0.92428 6.1595,-2.52943"
     style="fill:#000000;fill-opacity:1;fill-rule:evenodd;stroke:none"
     id="path3462" />
  <path
     inkscape:connector-curvature="0"
     d="m 129.75596,245.07301 c -0.70908,0.70203 -1.74273,1.12184 -2.74462,1.12889 -1.0054,0 -2.032,-0.4198 -2.73755,-1.12889 L 8.91543,129.73229 c -0.73025,-0.71967 -1.11477,-1.72508 -1.11477,-2.73756 0,-1.02658 0.38452,-2.02141 1.11477,-2.74461 L 124.27379,8.9129376 c 0.70555,-0.71261 1.73215,-1.143 2.73755,-1.13595 1.00189,0 2.03554,0.42334 2.74462,1.13595 L 245.08962,124.25012 c 0.7232,0.71614 1.13242,1.72861 1.13948,2.74461 0.007,1.03364 -0.40923,2.00378 -1.13948,2.73756 L 129.75596,245.07301 z"
     style="fill:#f4911d;fill-opacity:1;fill-rule:evenodd;stroke:none"
     id="path3466" />
  <path
     inkscape:connector-curvature="0"
     d="m 113.29885,155.27976 0.0811,39.65223 27.20623,-0.067 0,-96.622314 15.05655,4.660184 c 0.55034,0.17286 1.09362,0.31397 1.66864,0.34572 1.50283,0.0847 3.03037,-0.54681 4.09222,-1.61572 1.22414,-1.24884 1.72861,-3.033884 1.45697,-4.755435 -0.14111,-0.874889 -0.5468,-1.608669 -1.06539,-2.3107 L 127.02892,47.350937 92.16741,94.566725 c -0.71614,0.966611 -1.12184,2.113142 -1.12184,3.319642 0,2.204853 1.28411,4.138073 3.30553,5.016493 1.09714,0.47272 2.09903,0.51505 3.22792,0.26811 0.29633,-0.067 0.59267,-0.23283 0.74083,-0.26811 l 15.40935,-3.319634 c -1.21357,5.341054 -2.42359,10.703274 -3.95464,15.966714 -2.26484,7.79287 -5.21053,15.38112 -8.61836,22.74712 -3.3761,7.27781 -7.21432,14.34395 -11.6311,21.03967 -2.92805,4.43795 -6.1207,8.71714 -9.2957,12.97517 l 14.97895,10.8197 c 1.34056,-1.75331 2.68111,-3.50308 3.98286,-5.28814 3.00215,-4.09928 5.80321,-8.35731 8.45963,-12.68942 1.9826,-3.23144 3.82411,-6.5405 5.64796,-9.87425"
     style="fill:#000000;fill-opacity:1;fill-rule:evenodd;stroke:none"
     id="path3470" />
</svg>
