<?xml version="1.0" encoding="UTF-8" standalone="no"?>
<svg
   xmlns:dc="http://purl.org/dc/elements/1.1/"
   xmlns:cc="http://creativecommons.org/ns#"
   xmlns:rdf="http://www.w3.org/1999/02/22-rdf-syntax-ns#"
   xmlns:svg="http://www.w3.org/2000/svg"
   xmlns="http://www.w3.org/2000/svg"
   xmlns:sodipodi="http://sodipodi.sourceforge.net/DTD/sodipodi-0.dtd"
   xmlns:inkscape="http://www.inkscape.org/namespaces/inkscape"
   width="89.985161"
   height="90.000923"
   viewBox="0 0 253.95819 254.0026"
   version="1.1"
   id="svg2"
   inkscape:version="0.48.2 r9819"
   sodipodi:docname="MUTCD W4-6L (temporary).svg">
  <metadata
     id="metadata62">
    <rdf:RDF>
      <cc:Work
         rdf:about="">
        <dc:format>image/svg+xml</dc:format>
        <dc:type
           rdf:resource="http://purl.org/dc/dcmitype/StillImage" />
        <dc:title></dc:title>
      </cc:Work>
    </rdf:RDF>
  </metadata>
  <defs
     id="defs60">
    <clipPath
       id="Clip0-1">
      <path
         inkscape:connector-curvature="0"
         d="m 0,0 0,1728.5 1296.5,0 L 1296.5,0 0,0 z"
         transform="translate(0,0.5)"
         id="path7-7" />
    </clipPath>
  </defs>
  <sodipodi:namedview
     pagecolor="#ffffff"
     bordercolor="#666666"
     borderopacity="1"
     objecttolerance="10"
     gridtolerance="10"
     guidetolerance="10"
     inkscape:pageopacity="0"
     inkscape:pageshadow="2"
     inkscape:window-width="1280"
     inkscape:window-height="1004"
     id="namedview58"
     showgrid="false"
     fit-margin-top="0"
     fit-margin-left="0"
     fit-margin-right="0"
     fit-margin-bottom="0"
     inkscape:zoom="5.6568542"
     inkscape:cx="79.051134"
     inkscape:cy="25.187007"
     inkscape:window-x="-8"
     inkscape:window-y="-8"
     inkscape:window-maximized="1"
     inkscape:current-layer="svg2"
     showguides="true"
     inkscape:guide-bbox="true" />
  <!-- draw the bicycle -->
  <!-- RIGHT -->
  <!-- LANE -->
  <!-- ONLY -->
  <path
     inkscape:connector-curvature="0"
     d="M 3.3615301,118.7608 118.71638,3.4024876 c 4.54025,-4.5367 11.94153,-4.5367 16.48178,0 L 250.553,118.7608 c 4.54025,4.5368 4.54025,11.938 0,16.4783 L 135.19816,250.59741 c -4.54025,4.5403 -11.94153,4.5403 -16.48178,0 L 3.3615301,135.2391 c -4.48028,-4.4803 -4.4838,-11.998 0,-16.4783"
     style="fill:#f4911d;fill-opacity:1;fill-rule:nonzero;stroke:none"
     id="path3202" />
  <path
     inkscape:connector-curvature="0"
     d="M 5.6800001,121.0207 120.9784,5.7222876 c 3.27025,-3.2702 8.68891,-3.2631 11.95916,0 L 248.23596,121.0207 c 3.27377,3.2738 3.25966,8.6819 0,11.9592 l -115.2984,115.29841 c -3.27377,3.2632 -8.68186,3.2667 -11.95916,0 L 5.6800001,132.9799 c -3.25968,-3.2773 -3.27379,-8.6854 0,-11.9592"
     style="fill:#000000;fill-opacity:1;fill-rule:evenodd;stroke:none"
     id="path3214" />
  <path
     inkscape:connector-curvature="0"
     d="M 8.9255501,124.1834 124.14281,8.9661876 c 1.52047,-1.577 4.10986,-1.5734 5.63386,0 L 244.9904,124.1834 c 1.57339,1.5205 1.57339,4.1134 0,5.6339 L 129.77667,245.03101 c -1.52047,1.5769 -4.11691,1.5804 -5.63386,0 L 8.9255501,129.8173 c -1.57339,-1.524 -1.57339,-4.1134 0,-5.6339"
     style="fill:#f4911d;fill-opacity:1;fill-rule:evenodd;stroke:none"
     id="path3218" />
  <path
     inkscape:connector-curvature="0"
     d="m 175.527,82.914393 c 0,4.141601 -0.9772,7.5177 -2.83281,9.3698 -0.86783,0.874802 -1.85208,1.1994 -3.48544,1.1994 l -4.90362,0 0,-21.138501 5.55978,0 c 1.30881,0 2.39536,0.543301 3.15736,1.308902 1.52753,1.6333 2.50473,5.118799 2.50473,9.260399 m 5.01651,0 c 0,-6.099599 -1.8521,-11.0067 -5.12235,-13.839501 -1.63689,-1.305301 -2.8328,-1.633401 -5.99016,-1.633401 l -10.02595,0 0,31.055104 9.47914,0 1.74272,0 c 1.63336,-0.109389 3.26673,-0.652701 4.46617,-1.742802 3.48545,-2.7234 5.45043,-7.626998 5.45043,-13.8394 m -35.53531,1.852101 -6.21242,0 3.16089,-8.7172 3.05153,8.7172 z m 10.02241,13.730101 -10.67505,-31.055104 -4.90714,0 -10.67506,31.055104 5.22817,0 3.05153,-8.717201 9.69786,0 3.048,8.717201 5.23169,0 z M 120.15147,83.023693 c 0,2.3989 -0.54681,5.446901 -1.19945,7.083802 -1.09008,2.723499 -2.50472,3.922898 -4.79072,3.922898 -1.96497,0 -3.27025,-0.762 -4.2545,-2.398898 -1.19944,-1.961402 -1.85208,-5.337501 -1.85208,-8.607802 0,-2.614099 0.43744,-5.446899 1.20297,-7.298901 1.08656,-2.726999 2.61408,-3.922899 5.00945,-3.817099 1.85208,0.109389 3.05152,0.7655 4.03225,2.398901 1.19944,2.067298 1.85208,5.228199 1.85208,8.717099 m 4.90361,0 c 0,-3.922899 -0.762,-7.845701 -2.0708,-10.5692 -1.96145,-3.813501 -4.68489,-5.559802 -8.60778,-5.559802 -3.59834,0 -6.09953,1.0936 -7.95514,3.489001 -2.07081,2.942202 -3.37609,7.5177 -3.37609,12.640001 0,3.704201 0.87136,7.845802 2.17664,10.4599 1.85561,3.813501 4.57906,5.577401 8.93939,5.577401 3.26672,0 5.77145,-1.1077 7.51417,-3.5066 2.18369,-2.7234 3.37961,-7.6271 3.37961,-12.530701 M 93.333281,76.158692 c 0,1.3088 -0.762,2.614101 -1.96144,3.270202 -0.762,0.4339 -1.308808,0.543298 -2.832809,0.543298 l -5.880801,0 0,-7.6271 5.880801,0 c 1.63689,0 2.070809,0.10939 2.832809,0.543301 1.19944,0.6562 1.96144,1.961501 1.96144,3.270299 m 5.556251,22.337903 -5.44689,-14.492101 c 2.832809,-1.308902 4.79426,-4.5756 4.79426,-7.845802 0,-3.160899 -1.961451,-6.427599 -4.68489,-7.736399 -1.524001,-0.762001 -3.16089,-0.980802 -5.55626,-0.980802 l -10.244661,0 0,31.055104 4.90714,0 0,-13.511401 5.880801,0 5.01298,13.511401 5.33752,0 z"
     style="fill:#000000;fill-opacity:1;fill-rule:evenodd;stroke:none"
     id="path3222" />
  <path
     inkscape:connector-curvature="0"
     d="m 221.35711,138.76119 c 0,-12.2026 -14.60147,-8.389 -15.03892,-14.164 -0.21519,-2.8328 2.50825,-3.7042 4.79779,-3.5983 3.48544,0.1128 4.57199,2.7269 4.57199,2.7269 l 4.36387,-1.3088 c -1.53105,-3.8135 -4.47322,-6.3182 -8.82651,-6.3182 -5.55978,0 -9.70138,2.286 -9.70138,8.389 0,5.1224 4.1416,6.9744 5.99369,7.7329 4.03226,1.6369 8.82651,2.2895 8.82651,6.4312 0,2.6176 -1.96145,4.579 -4.79425,4.579 -2.94217,0 -5.34106,-1.6369 -6.64635,-4.579 l -4.68489,1.7427 c 2.07081,4.6884 5.99018,7.8669 11.33124,7.8669 2.6176,0 5.01649,-0.8925 6.75922,-2.4165 1.95439,-1.7427 3.04799,-4.251 3.04799,-7.0838 m -23.53733,-22.1192 -5.01298,0 -2.39889,16.3442 -4.02872,-16.3442 -4.79425,0 -3.9229,16.3442 -2.39536,-16.3442 -5.01298,0 4.57553,31.0551 4.35681,0 4.79426,-19.9425 4.90714,19.9425 4.3568,0 4.57554,-31.0551 z m -36.50194,15.5787 c 0,2.3989 -0.54328,5.4504 -1.19592,7.0838 -1.09007,2.727 -2.50824,3.9264 -4.79777,3.9264 -1.96144,0 -3.26672,-0.762 -4.25097,-2.3953 -1.19944,-1.965 -1.84855,-5.3411 -1.84855,-8.6149 0,-2.6105 0.43744,-5.4433 1.19591,-7.2954 1.09009,-2.727 2.61761,-3.9264 5.01298,-3.8136 1.85561,0.10589 3.05505,0.762 4.03224,2.3954 1.19944,2.0708 1.85208,5.2317 1.85208,8.7136 m 4.90361,0 c 0,-3.9193 -0.762,-7.8422 -2.0708,-10.5657 -1.96498,-3.8135 -4.68489,-5.5562 -8.60425,-5.5562 -3.59833,0 -6.10658,1.0865 -7.95866,3.4854 -2.06728,2.9422 -3.37609,7.5177 -3.37609,12.6365 0,3.7077 0.87136,7.8493 2.17664,10.4634 1.85209,3.8135 4.57906,5.5774 8.93586,5.5774 3.27025,0 5.77497,-1.1077 7.51769,-3.5066 2.18017,-2.7234 3.37961,-7.627 3.37961,-12.5342 m -32.03574,-6.8615 c 0,1.3088 -0.76553,2.6141 -1.96498,3.2702 -0.75847,0.434 -1.30527,0.5433 -2.82575,0.5433 l -5.88433,0 0,-7.627 5.88433,0 c 1.62984,0 2.06728,0.1093 2.82575,0.5432 1.19945,0.6562 1.96498,1.9615 1.96498,3.2703 m 5.55625,22.3379 -5.44689,-14.4921 c 2.8328,-1.3053 4.79778,-4.5756 4.79778,-7.8458 0,-3.1609 -1.96498,-6.4311 -4.68842,-7.7364 -1.52753,-0.762 -3.16089,-0.9808 -5.55978,-0.9808 l -10.24114,0 0,31.0551 4.90714,0 0,-13.5114 5.88433,0 5.00945,13.5114 5.33753,0 z m -31.81351,-22.3379 c 0,1.3088 -0.76553,2.6141 -1.96497,3.2702 -0.762,0.434 -1.30528,0.5433 -2.83281,0.5433 l -5.884349,0 0,-7.627 5.884349,0 c 1.63336,0 2.07081,0.1093 2.83281,0.5432 1.19944,0.6562 1.96497,1.9615 1.96497,3.2703 m 5.55625,22.3379 -5.45042,-14.4921 c 2.83634,-1.3053 4.79426,-4.5756 4.79426,-7.8458 0,-3.1609 -1.95792,-6.4311 -4.68489,-7.7364 -1.524,-0.762 -3.15737,-0.9808 -5.55626,-0.9808 l -10.241148,0 0,31.0551 4.900079,0 0,-13.5114 5.884349,0 5.01298,13.5114 5.34105,0 z m -35.849301,-13.7301 -6.21241,0 3.16089,-8.7172 3.05152,8.7172 z m 10.022422,13.7301 -10.67858,-31.0551 -4.90009,0 -10.682111,31.0551 5.23169,0 3.051531,-8.7136 9.697869,0 3.048001,8.7136 5.23169,0 z m -30.836311,0 0,-31.0551 -4.90361,0 0,19.8332 -11.33123,-19.8332 -4.90361,0 0,31.0551 4.90361,0 0,-21.0291 11.87803,21.0291 4.35681,0 z"
     style="fill:#000000;fill-opacity:1;fill-rule:evenodd;stroke:none"
     id="path3226" />
</svg>
