<?xml version="1.0" encoding="UTF-8" standalone="no"?>
<!-- Generator: Adobe Illustrator 12.0.1, SVG Export Plug-In  -->

<svg
   xmlns:dc="http://purl.org/dc/elements/1.1/"
   xmlns:cc="http://creativecommons.org/ns#"
   xmlns:rdf="http://www.w3.org/1999/02/22-rdf-syntax-ns#"
   xmlns:svg="http://www.w3.org/2000/svg"
   xmlns="http://www.w3.org/2000/svg"
   xmlns:sodipodi="http://sodipodi.sourceforge.net/DTD/sodipodi-0.dtd"
   xmlns:inkscape="http://www.inkscape.org/namespaces/inkscape"
   version="1.1"
   width="286.01401"
   height="286.01096"
   viewBox="0 -1 286.01401 286.01096"
   enable-background="new 0 -1 288 290"
   xml:space="preserve"
   id="svg2"
   inkscape:version="0.48.2 r9819"
   sodipodi:docname="AJAX1.svg"><metadata
   id="metadata18"><rdf:RDF><cc:Work
       rdf:about=""><dc:format>image/svg+xml</dc:format><dc:type
         rdf:resource="http://purl.org/dc/dcmitype/StillImage" /><dc:title></dc:title></cc:Work></rdf:RDF></metadata><sodipodi:namedview
   pagecolor="#ffffff"
   bordercolor="#666666"
   borderopacity="1"
   objecttolerance="10"
   gridtolerance="10"
   guidetolerance="10"
   inkscape:pageopacity="0"
   inkscape:pageshadow="2"
   inkscape:window-width="1280"
   inkscape:window-height="1004"
   id="namedview16"
   showgrid="false"
   fit-margin-top="0"
   fit-margin-left="0"
   fit-margin-right="0"
   fit-margin-bottom="0"
   inkscape:zoom="2.3017545"
   inkscape:cx="75.472003"
   inkscape:cy="147.16495"
   inkscape:window-x="-8"
   inkscape:window-y="-8"
   inkscape:window-maximized="1"
   inkscape:current-layer="svg2"
   showguides="true"
   inkscape:guide-bbox="true" />
<defs
   id="defs4">
</defs>
<path
   d="m 152.271,281.16303 129.88,-129.884 c 2.436,-2.437 3.863,-5.813 3.863,-9.271 0,-3.464 -1.428,-6.834 -3.863,-9.284 L 152.271,2.8430341 c -2.447,-2.45199998 -5.804,-3.851 -9.279,-3.84299998 -3.457,0 -6.833,1.391 -9.268,3.84299998 L 3.8329991,132.72503 c -2.43,2.435 -3.83299997892861,5.849 -3.83299997892861,9.284 0,3.436 1.40199997892861,6.842 3.83299997892861,9.271 L 133.724,281.16403 c 3.142,3.15 7.877,4.505 12.22,3.542 2.548,-0.586 4.329,-1.921 6.327,-3.543 z"
   id="path6"
   style="fill:#f4911d;stroke:none;fill-opacity:1"
   inkscape:connector-curvature="0" />

<path
   clip-rule="evenodd"
   d="M 136.048,278.86003 6.1449991,148.95103 c -1.806,-1.808 -2.851,-4.376 -2.851,-6.942 0,-2.559 1.045,-5.16 2.851,-6.968 L 136.048,5.1450341 c 1.831,-1.823 4.347,-2.848 6.94,-2.848 2.602,0 5.141,1.024 6.976,2.848 L 279.843,135.04103 c 1.823,1.824 2.871,4.382 2.871,6.968 0,2.582 -1.048,5.119 -2.871,6.942 l -129.88,129.909 c -1.82,1.808 -4.417,2.852 -6.976,2.852 -2.558,-0.001 -5.124,-1.045 -6.939,-2.852"
   id="path10"
   inkscape:connector-curvature="0"
   style="fill-rule:evenodd;stroke:none;fill:#000000" />
<path
   clip-rule="evenodd"
   d="m 139.905,274.98003 c 0.797,0.795 1.961,1.269 3.09,1.276 1.133,0 2.289,-0.474 3.082,-1.276 l 129.896,-129.885 c 0.823,-0.814 1.258,-1.945 1.258,-3.082 0,-1.156 -0.435,-2.279 -1.258,-3.09 L 146.077,9.0380341 c -0.793,-0.805 -1.949,-1.286 -3.082,-1.278 -1.129,0 -2.292,0.474 -3.09,1.278 L 10.033999,138.92303 c -0.8129999,0.801 -1.2739999,1.941 -1.2779999,3.09 -0.008,1.164 0.456,2.252 1.2779999,3.082 L 139.905,274.98003"
   id="path12"
   style="fill:#f4911d;fill-rule:evenodd;stroke:none;fill-opacity:1"
   inkscape:connector-curvature="0" />
<path
   clip-rule="evenodd"
   d="m 158.439,173.86203 -0.093,44.657 -30.637,-0.081 v -108.806 l -16.955,5.251 c -0.619,0.192 -1.226,0.351 -1.874,0.39 -1.697,0.095 -3.417,-0.621 -4.612,-1.824 -1.379,-1.402 -1.947,-3.416 -1.641,-5.355 0.159,-0.981 0.621,-1.812 1.201,-2.602 l 39.152,-53.166996 39.251,53.166996 c 0.811,1.092 1.261,2.378 1.261,3.738 0,2.487 -1.439,4.663 -3.72,5.652 -1.23,0.53 -2.359,0.576 -3.636,0.299 -0.333,-0.072 -0.667,-0.262 -0.834,-0.299 l -17.352,-3.742 c 1.365,6.015 2.734,12.054 4.453,17.984 2.553,8.771 5.865,17.32 9.71,25.614 3.802,8.194 8.119,16.151 13.093,23.697 3.301,4.996 6.89,9.812 10.466,14.606 l -16.867,12.186 c -1.509,-1.971 -3.018,-3.941 -4.484,-5.951 -3.375,-4.617 -6.528,-9.412 -9.527,-14.296 -2.231,-3.638 -4.307,-7.359 -6.355,-11.118"
   id="path14"
   inkscape:connector-curvature="0"
   style="fill-rule:evenodd;stroke:none;fill:#000000" />
</svg>