<?xml version="1.0" encoding="UTF-8" standalone="no"?>
<!-- Created with Inkscape (http://www.inkscape.org/) -->

<svg
   xmlns:dc="http://purl.org/dc/elements/1.1/"
   xmlns:cc="http://creativecommons.org/ns#"
   xmlns:rdf="http://www.w3.org/1999/02/22-rdf-syntax-ns#"
   xmlns:svg="http://www.w3.org/2000/svg"
   xmlns="http://www.w3.org/2000/svg"
   xmlns:sodipodi="http://sodipodi.sourceforge.net/DTD/sodipodi-0.dtd"
   xmlns:inkscape="http://www.inkscape.org/namespaces/inkscape"
   version="1.0"
   width="90.001244"
   height="90.001251"
   id="svg2"
   inkscape:version="0.48.2 r9819"
   sodipodi:docname="MUTCD W21-4 (temporary).svg">
  <metadata
     id="metadata13">
    <rdf:RDF>
      <cc:Work
         rdf:about="">
        <dc:format>image/svg+xml</dc:format>
        <dc:type
           rdf:resource="http://purl.org/dc/dcmitype/StillImage" />
        <dc:title></dc:title>
      </cc:Work>
    </rdf:RDF>
  </metadata>
  <sodipodi:namedview
     pagecolor="#ffffff"
     bordercolor="#666666"
     borderopacity="1"
     objecttolerance="10"
     gridtolerance="10"
     guidetolerance="10"
     inkscape:pageopacity="0"
     inkscape:pageshadow="2"
     inkscape:window-width="1280"
     inkscape:window-height="1004"
     id="namedview11"
     showgrid="false"
     fit-margin-top="0"
     fit-margin-left="0"
     fit-margin-right="0"
     fit-margin-bottom="0"
     inkscape:zoom="7.4167644"
     inkscape:cx="46.471178"
     inkscape:cy="39.511039"
     inkscape:window-x="-8"
     inkscape:window-y="-8"
     inkscape:window-maximized="1"
     inkscape:current-layer="svg2" />
  <defs
     id="defs4" />
  <path
     inkscape:connector-curvature="0"
     d="M 1.2890625,41.877812 41.877813,1.2890625 c 1.71875,-1.71875 4.52875,-1.71875 6.245,0 L 88.714059,41.877813 c 1.71625,1.71875 1.71625,4.52875 0,6.245 L 48.122813,88.714067 c -1.71625,1.71625 -4.52625,1.71625 -6.245,0 L 1.2890625,48.122813 c -1.71875,-1.71625 -1.71875,-4.52625 0,-6.245 z"
     style="fill:#f4911d;fill-opacity:1;stroke:none"
     id="path3241" />
  <path
     inkscape:connector-curvature="0"
     d="M 2.2653125,42.525312 42.524062,2.2690625 c 1.3625,-1.3625 3.59125,-1.3625 4.95375,0 L 87.734058,42.525312 c 1.362501,1.3625 1.362501,3.59125 0,4.95375 L 47.477812,87.735316 c -1.3625,1.3625 -3.59125,1.3625 -4.95375,0 L 2.2653125,47.479062 c -1.3625,-1.3625 -1.3625,-3.59125 0,-4.95375"
     style="fill:#000000;fill-opacity:1;fill-rule:evenodd;stroke:none"
     id="path3245" />
  <path
     inkscape:connector-curvature="0"
     d="M 3.5253125,43.762812 43.762812,3.5253125 c 0.68125,-0.68 1.79625,-0.68 2.475,0 L 86.475308,43.762812 c 0.68,0.68125 0.68,1.79625 0,2.475 L 46.237812,86.475316 c -0.67875,0.681251 -1.79375,0.681251 -2.475,0 L 3.5253125,46.237812 c -0.68125,-0.67875 -0.68125,-1.79375 0,-2.475"
     style="fill:#f4911d;fill-opacity:1;fill-rule:evenodd;stroke:none"
     id="path3249" />
  <path
     inkscape:connector-curvature="0"
     d="m 74.797809,40.606562 c 0,0.89 -0.50375,1.39375 -1.43375,1.39375 l -1.62625,0 0,-2.78875 1.62625,0 c 0.8525,0 1.43375,0.5425 1.43375,1.395 m 1.5475,8.09 -1.5875,-5.42 c 1.045,-0.3875 1.5875,-1.355 1.5875,-2.67 0,-1.7825 -1.1625,-2.9425 -2.9025,-2.9425 l -3.29125,0 0,11.0325 1.58625,0 0,-5.1875 1.51125,0 1.47,5.1875 1.62625,0 z m -8.05125,0 0,-1.5475 -4.02625,0 0,-3.64 2.2825,0 0,-1.50875 -2.2825,0 0,-2.78875 3.59875,0 0,-1.5475 -5.18625,0 0,11.0325 5.61375,0 z m -9.33125,-5.45875 c 0,0.8525 -0.07625,1.62625 -0.15375,2.32125 -0.15375,0.852501 -0.66,1.59 -1.5875,1.59 l -1.31625,0 0,-7.9375 1.31625,0 c 0.69625,0 1.1625,0.35 1.43375,1.12375 0.1925,0.463751 0.3075,1.665001 0.3075,2.902501 m 1.55,-0.0775 c 0,-0.85 -0.1175,-1.82 -0.27125,-2.6325 -0.195,-1.1225 -0.65875,-1.975 -1.31625,-2.43875 -0.3875,-0.31 -0.851249,-0.425 -1.78125,-0.425 l -2.825,0 0,11.0325 3.05625,0 c 0.620001,0 1.1625,-0.15625 1.55,-0.5025 1.085,-0.8525 1.587501,-2.47875 1.587501,-5.03375 m -7.705,5.53625 0,-1.4725 -4.026247,0 0,-9.56 -1.586251,0 0,11.0325 5.612498,0 z m -7.973747,-3.29125 0,-7.74125 -1.587501,0 0,7.935 c 0,1.045 -0.62,1.7425 -1.47125,1.7425 -0.927499,0 -1.54875,-0.6975 -1.54875,-1.7425 l 0,-7.935 -1.58625,0 0,7.74125 c 0,0.89125 0.1175,1.355 0.425,1.93625 0.54125,0.9275 1.62625,1.555 2.71,1.555 1.0475,0 2.0925,-0.66375 2.63375,-1.555 0.3075,-0.58125 0.425,-1.045 0.425,-1.93625 m -9.91,-2.245 c 0,1.27875 -0.0775,1.935 -0.34875,2.82625 -0.27125,0.927499 -0.69625,1.355 -1.355,1.355 -0.69625,0 -1.1225,-0.4275 -1.39375,-1.355 -0.2325,-0.89125 -0.35,-1.586251 -0.35,-2.7875 0,-1.2375 0.0787,-1.9725 0.35,-2.825 0.27125,-0.930001 0.6975,-1.355 1.39375,-1.355 0.65875,0 1.08375,0.424999 1.355,1.393749 0.2325,0.81375 0.34875,1.508751 0.34875,2.747501 m 1.50875,0 c 0,-1.66375 -0.15375,-2.71 -0.62,-3.795 -0.54125,-1.355001 -1.31625,-1.89625 -2.5925,-1.89625 -1.27625,0 -2.05125,0.54125 -2.63125,1.86 -0.4675,1.045 -0.62125,2.1675 -0.62125,3.83125 0,1.70375 0.15375,2.74875 0.62125,3.832499 0.541251,1.31625 1.315,1.903751 2.63125,1.903751 1.2375,0 2.05125,-0.587501 2.5925,-1.903751 0.46625,-1.045 0.62,-2.128749 0.62,-3.832499 m -8.6325,5.536249 0,-11.0325 -1.58625,0 0,4.49 -3.02,0 0,-4.49 -1.5875,0 0,11.0325 1.5875,0 0,-4.995 3.02,0 0,4.995 1.586251,0 z m -8.05125,-3.019999 c 0,-1.586251 -0.93,-2.7875 -3.06,-4.026251 -0.8125,-0.46375 -1.045,-0.77375 -1.045,-1.315 0,-0.735 0.58125,-1.2775 1.31625,-1.2775 0.69875,0 1.24,0.50375 1.2775,1.2775 l 1.51125,0 c -0.04,-1.665 -1.23875,-2.866249 -2.78875,-2.866249 -1.58625,0 -2.825,1.27875 -2.825,2.866249 0,0.966251 0.465001,1.81875 1.355,2.43875 2.24375,1.508751 1.62625,1.08375 1.85875,1.31625 0.65625,0.5025 0.88875,0.96625 0.88875,1.586251 0,0.89125 -0.69625,1.665 -1.54875,1.665 -1.08375,0 -1.5475,-0.96875 -1.5475,-1.89625 l -1.5475,0 c 0,1.81875 1.16,3.45125 3.095,3.45125 1.705,0 3.06,-1.44 3.06,-3.22"
     style="fill:#000000;fill-opacity:1;fill-rule:evenodd;stroke:none"
     id="path3253" />
  <path
     inkscape:connector-curvature="0"
     d="m 61.316558,66.364076 -2.55375,-7.16125 2.2825,-3.872504 -1.81875,0 -2.5175,4.413754 0,-4.413754 -1.5875,0 0,11.033754 1.5875,0 0,-3.52375 1.00625,-1.85875 1.93625,5.3825 1.665,0 z m -9.56125,-8.0925 c 0,0.89125 -0.505,1.395 -1.432496,1.395 l -1.62625,0 0,-2.78875 1.62625,0 c 0.851246,0 1.432496,0.5425 1.432496,1.39375 m 1.5475,8.0925 -1.58625,-5.42125 c 1.045,-0.38625 1.58625,-1.355 1.58625,-2.67125 0,-1.77875 -1.16125,-2.941254 -2.902496,-2.941254 l -3.29125,0 0,11.033754 1.5875,0 0,-5.18875 1.50875,0 1.472496,5.18875 1.625,0 z m -9.908746,-5.53625 c 0,1.2775 -0.0787,1.93375 -0.35,2.825 -0.27,0.93 -0.694999,1.355 -1.355,1.355 -0.695,0 -1.1225,-0.425 -1.39375,-1.355 -0.23125,-0.89125 -0.34625,-1.58625 -0.34625,-2.7875 0,-1.23875 0.075,-1.97375 0.34625,-2.825 0.27125,-0.93 0.69875,-1.355 1.39375,-1.355 0.66,0 1.085,0.425 1.355,1.39375 0.2325,0.8125 0.35,1.50875 0.35,2.74875 m 1.50875,0 c 0,-1.665 -0.15375,-2.71 -0.6175,-3.79375 -0.545,-1.355004 -1.31875,-1.896254 -2.59625,-1.896254 -1.27625,0 -2.05,0.54125 -2.63125,1.857504 -0.46375,1.045 -0.62,2.1675 -0.62,3.8325 0,1.7025 0.15625,2.7475 0.62,3.83125 0.5425,1.315 1.31625,1.905 2.63125,1.905 1.24125,0 2.05125,-0.59 2.59625,-1.905 0.46375,-1.045 0.6175,-2.12875 0.6175,-3.83125 m -7.78125,-5.497504 -1.5475,0 -0.97,5.883754 -1.045,-5.883754 -1.2375,0 -1.083749,5.883754 -0.930001,-5.883754 -1.5475,0 1.742501,11.033754 1.39125,0 1.0475,-5.77 1.045,5.77 1.355,0 1.78,-11.033754 z"
     style="fill:#000000;fill-opacity:1;fill-rule:evenodd;stroke:none"
     id="path3257" />
</svg>
