<?xml version="1.0" encoding="UTF-8" standalone="no"?>
<svg
   width="74.429893"
   height="74.431252"
   viewBox="0 0 210.05775 210.06152"
   version="1.1"
   id="svg2"
   inkscape:version="1.2.1 (9c6d41e410, 2022-07-14)"
   sodipodi:docname="MUTCD_W8-4.svg"
   xmlns:inkscape="http://www.inkscape.org/namespaces/inkscape"
   xmlns:sodipodi="http://sodipodi.sourceforge.net/DTD/sodipodi-0.dtd"
   xmlns="http://www.w3.org/2000/svg"
   xmlns:svg="http://www.w3.org/2000/svg"
   xmlns:rdf="http://www.w3.org/1999/02/22-rdf-syntax-ns#"
   xmlns:cc="http://creativecommons.org/ns#"
   xmlns:dc="http://purl.org/dc/elements/1.1/">
  <metadata
     id="metadata62">
    <rdf:RDF>
      <cc:Work
         rdf:about="">
        <dc:format>image/svg+xml</dc:format>
        <dc:type
           rdf:resource="http://purl.org/dc/dcmitype/StillImage" />
        <dc:title />
      </cc:Work>
    </rdf:RDF>
  </metadata>
  <defs
     id="defs60" />
  <sodipodi:namedview
     pagecolor="#ffffff"
     bordercolor="#666666"
     borderopacity="1"
     objecttolerance="10"
     gridtolerance="10"
     guidetolerance="10"
     inkscape:pageopacity="0"
     inkscape:pageshadow="2"
     inkscape:window-width="2048"
     inkscape:window-height="1089"
     id="namedview58"
     showgrid="false"
     fit-margin-top="0"
     fit-margin-left="0"
     fit-margin-right="0"
     fit-margin-bottom="0"
     inkscape:zoom="8.0000001"
     inkscape:cx="41.249999"
     inkscape:cy="28.5"
     inkscape:window-x="-8"
     inkscape:window-y="-8"
     inkscape:window-maximized="1"
     inkscape:current-layer="svg2"
     inkscape:showpageshadow="2"
     inkscape:pagecheckerboard="0"
     inkscape:deskcolor="#d1d1d1" />
  <!-- draw the bicycle -->
  <!-- RIGHT -->
  <!-- LANE -->
  <!-- ONLY -->
  <path
     d="M 206.65025,96.805734 113.26995,3.43602 C 111.11095,1.262908 108.10881,-3.6983694e-5 105.03611,-3.6983694e-5 101.97047,-3.6983694e-5 98.97892,1.262908 96.79522,3.43602 L 3.4113897,96.805734 C 1.2418097,98.978844 -0.00702031,101.95982 2.9689291e-5,105.04663 0.02122969,108.11227 1.2488597,111.11088 3.4113897,113.28046 L 96.79522,206.64665 c 2.16253,2.16253 5.19289,3.41136 8.24795,3.41489 3.05153,-0.003 6.07483,-1.25236 8.23383,-3.41489 l 93.37325,-93.36266 c 2.79752,-2.79753 3.98991,-7.0097 3.13619,-10.86203 -0.50094,-2.21897 -1.72861,-3.866446 -3.13619,-5.616226"
     style="fill:#ffd033;fill-opacity:1;fill-rule:nonzero;stroke:none"
     id="path6132"
     inkscape:connector-curvature="0" />
  <path
     d="m 204.34308,110.97329 -93.36972,93.36619 c -1.56986,1.56281 -3.71828,2.45534 -5.93019,2.45534 -2.21192,0 -4.35681,-0.89253 -5.92667,-2.45534 L 5.7079797,110.96977 c -1.55223,-1.55223 -2.43417,-3.72886 -2.43417,-5.92667 0.007,-2.19781 0.889,-4.37797 2.43769,-5.930196 L 99.10944,5.718492 c 1.56281,-1.545167 3.73592,-2.430639 5.92667,-2.430639 2.19781,0 4.3815,0.885472 5.93725,2.430639 l 93.36972,93.397942 c 1.56633,1.569856 2.45181,3.714746 2.45181,5.926666 0,2.21544 -0.88548,4.36033 -2.45181,5.93019"
     style="fill:#000000;fill-opacity:1;fill-rule:evenodd;stroke:none"
     id="path6140"
     inkscape:connector-curvature="0" />
  <path
     d="m 201.12575,107.74891 c 0.70908,-0.70203 1.12183,-1.71451 1.12183,-2.70581 0,-0.98072 -0.41275,-2.02142 -1.12183,-2.71992 L 107.74192,8.94641 c -0.69497,-0.6985 -1.7145,-1.111251 -2.69875,-1.111251 -0.98778,0 -2.02142,0.412751 -2.72345,1.111251 L 8.9323697,102.32318 c -0.70556,0.70909 -1.09714,1.71803 -1.09714,2.71639 0.007,0.99836 0.39158,1.9932 1.10419,2.70581 l 93.3803003,93.39088 c 0.70203,0.6985 1.74272,1.11125 2.72345,1.11125 0.9913,0 2.00378,-0.41275 2.7058,-1.11125 l 93.37678,-93.38735 z"
     style="fill:#ffd033;fill-opacity:1;fill-rule:evenodd;stroke:none"
     id="path6144"
     inkscape:connector-curvature="0" />
  <path
     style="fill:#f4911d;fill-opacity:1;stroke-width:0.125"
     d="M 36.625,71.386973 C 36.028461,71.009814 2.970417,37.843495 2.8778463,37.529287 2.8319548,37.373521 2.8545539,37.063828 2.9280664,36.841083 3.0228755,36.55381 7.9401257,31.558595 19.845377,19.655546 L 36.629028,2.875 h 0.559968 0.559967 l 16.906769,16.906767 16.906767,16.906769 v 0.55996 0.55996 L 54.843749,54.541878 C 45.003961,64.390302 37.9595,71.347242 37.722765,71.450149 37.198625,71.67799 37.073943,71.670815 36.625,71.386973 Z"
     id="path15426"
     transform="scale(2.8222225)" />
  <path
     style="fill:#f4911d;fill-opacity:1;stroke-width:0.125"
     d="M 36.125,74.208167 C 35.85,74.116784 35.428125,73.942525 35.1875,73.820924 34.946875,73.699323 27.116225,65.969557 17.786056,56.643666 -1.2236238,37.642701 0.13102776,39.130417 0.12700539,37.25 0.12301816,35.38601 -1.3656287,37.022217 17.662512,17.976297 29.35288,6.2750072 34.914851,0.79099204 35.310521,0.57564137 36.405018,-0.0200589 37.853497,-0.04649584 39.033562,0.50769022 39.498957,0.7262511 43.176759,4.3313019 56.291221,17.423971 65.457643,26.575162 73.197938,34.4 73.491877,34.8125 c 0.29394,0.4125 0.598827,0.941206 0.677528,1.174902 0.229114,0.680333 0.1743,1.917668 -0.120791,2.726659 -0.253284,0.694376 -0.949565,1.40972 -17.331895,17.806402 -14.285996,14.298512 -17.178281,17.136959 -17.744542,17.414229 -0.81751,0.400296 -2.09599,0.523096 -2.847177,0.273475 z m 2.486883,-1.22664 C 38.956622,72.81017 44.632697,67.223604 55.909197,55.956988 68.989274,42.888373 72.76171,39.051048 73.002947,38.569207 73.416485,37.743213 73.419674,36.792183 73.011772,35.9375 72.76994,35.430786 69.499542,32.104717 55.731743,18.36332 40.902203,3.5622161 38.684793,1.3958166 38.235497,1.2695694 37.390012,1.0319978 36.556472,1.0900303 35.868292,1.4343782 35.386007,1.6757019 31.548967,5.4496083 18.425039,18.590629 6.6064467,30.424611 1.5332712,35.584733 1.375559,35.932308 1.0824564,36.578265 1.0678286,37.66476 1.3426725,38.375 c 0.182614,0.471902 2.9529954,3.297621 17.2008045,17.544383 15.964763,15.963586 17.02356,16.996215 17.657328,17.220882 0.798795,0.28317 1.63246,0.228284 2.411078,-0.158738 z"
     id="path15428"
     transform="scale(2.8222225)" />
  <path
     d="m 138.77221,63.84572 v -3.453695 h -13.17625 v 3.453695 h 4.72722 v 22.426089 h 3.72181 V 63.84572 Z m -15.21531,0.176389 v -3.630084 h -13.16567 v 25.879784 h 3.72181 V 74.104501 h 5.17525 v -3.54189 h -5.17525 v -6.540502 z m -22.38729,9.263947 c 0,2.998612 -0.17638,4.540251 -0.81844,6.628696 -0.634997,2.180167 -1.633357,3.182056 -3.178527,3.182056 -1.62983,0 -2.62819,-1.001889 -3.27025,-3.182056 -0.54328,-2.088445 -0.81844,-3.721806 -0.81844,-6.536974 0,-2.906889 0.18344,-4.631973 0.81844,-6.628696 0.64206,-2.176639 1.64042,-3.178529 3.27025,-3.178529 1.54517,0 2.54353,1.00189 3.178527,3.266723 0.54328,1.908529 0.81844,3.545418 0.81844,6.44878 m 3.5419,0 c 0,-3.901723 -0.36336,-6.35353 -1.45345,-8.897058 -1.27353,-3.178529 -3.09033,-4.452057 -6.085417,-4.452057 -2.99861,0 -4.81189,1.273528 -6.17008,4.360335 -1.09714,2.451806 -1.45345,5.087057 -1.45345,8.98878 0,3.996973 0.35631,6.445252 1.45345,8.98878 1.26647,3.086806 3.0868,4.466168 6.17008,4.466168 2.903357,0 4.811887,-1.379362 6.085417,-4.466168 1.09009,-2.448278 1.45345,-4.991807 1.45345,-8.98878 M 85.139393,79.18803 c 0,-3.721807 -2.18017,-6.536974 -7.1755,-9.443864 -1.90853,-1.086556 -2.45181,-1.813278 -2.45181,-3.086806 0,-1.725084 1.36525,-2.995084 3.08681,-2.995084 1.63336,0 2.90689,1.178278 2.99861,2.995084 h 3.54189 c -0.0952,-3.901723 -2.91042,-6.720419 -6.5405,-6.720419 -3.72181,0 -6.6287,2.998612 -6.6287,6.720419 0,2.271889 1.09008,4.268612 3.17853,5.722057 5.2705,3.538362 3.81706,2.54 4.36033,3.086806 1.54164,1.178278 2.08845,2.268362 2.08845,3.721807 0,2.091972 -1.63336,3.908778 -3.63361,3.908778 -2.54,0 -3.63362,-2.271889 -3.63362,-4.452056 h -3.63361 c 0,4.268612 2.72698,8.096252 7.26723,8.096252 3.99697,0 7.1755,-3.372557 7.1755,-7.552974"
     style="fill:#000000;fill-opacity:1;fill-rule:evenodd;stroke:none"
     id="path6028"
     inkscape:connector-curvature="0" />
  <path
     d="m 171.68638,108.2922 c 0,2.09198 -1.18533,3.27378 -3.36903,3.27378 h -3.81 v -6.5405 h 3.81 c 1.99673,0 3.36903,1.27 3.36903,3.26672 m 3.62303,18.98298 -3.72181,-12.71411 c 2.45534,-0.91017 3.72181,-3.17853 3.72181,-6.26887 0,-4.17336 -2.71992,-6.90033 -6.80861,-6.90033 h -7.71525 v 25.88331 h 3.7218 v -12.17084 h 3.54189 l 3.45017,12.17084 z m -17.81175,0 v -3.63361 h -9.44034 v -8.53723 h 5.36222 v -3.53836 h -5.36222 v -6.5405 h 8.44197 v -3.63361 h -12.16378 v 25.88331 z m -20.80684,-12.80584 c 0,1.99673 -0.17639,3.81353 -0.35984,5.44689 -0.36336,2.00025 -1.54163,3.72534 -3.71827,3.72534 h -3.09034 v -18.61609 h 3.09034 c 1.62983,0 2.71992,0.81844 3.35491,2.63172 0.45509,1.09009 0.7232,3.90878 0.7232,6.81214 m 3.63714,-0.18344 c 0,-1.99672 -0.26811,-4.26509 -0.63853,-6.17361 -0.45156,-2.63525 -1.54517,-4.63198 -3.08328,-5.72206 -0.91369,-0.72672 -1.99672,-0.99836 -4.18041,-0.99836 h -6.6287 v 25.88331 h 7.17197 c 1.45345,0 2.72345,-0.36689 3.63714,-1.18181 2.53647,-1.99672 3.72181,-5.81025 3.72181,-11.80747 m -16.99684,12.98928 v -3.4537 h -9.44033 v -22.42961 h -3.72886 v 25.88331 z m -17.62478,-7.72231 v -18.161 h -3.72181 v 18.61609 c 0,2.4518 -1.45344,4.08869 -3.450167,4.08869 -2.18722,0 -3.63714,-1.63689 -3.63714,-4.08869 v -18.61609 h -3.7218 v 18.161 c 0,2.08845 0.27516,3.18206 0.99836,4.54378 1.27353,2.17664 3.81706,3.6442 6.36058,3.6442 2.451807,0 4.903617,-1.55928 6.173617,-3.6442 0.73025,-1.36172 0.99836,-2.45533 0.99836,-4.54378 M 83.534253,114.2859 c 0,2.99861 -0.17992,4.54378 -0.81492,6.62869 -0.63853,2.18017 -1.63689,3.18206 -3.18205,3.18206 -1.63337,0 -2.63173,-1.00189 -3.26673,-3.18206 -0.54328,-2.08491 -0.81844,-3.7218 -0.81844,-6.53344 0,-2.90689 0.18344,-4.6355 0.81844,-6.63223 0.635,-2.17663 1.63336,-3.17852 3.26673,-3.17852 1.54516,0 2.54352,1.00189 3.18205,3.27025 0.53622,1.905 0.81492,3.54189 0.81492,6.44525 m 3.54189,0 c 0,-3.90172 -0.36689,-6.35353 -1.44992,-8.89706 -1.27353,-3.17853 -3.09386,-4.45206 -6.08894,-4.45206 -2.99862,0 -4.81189,1.27353 -6.17362,4.36387 -1.09008,2.44827 -1.45344,5.08353 -1.45344,8.98525 0,3.99697 0.36336,6.45231 1.45344,8.99231 1.27353,3.0868 3.08681,4.46264 6.17362,4.46264 2.90689,0 4.81541,-1.37584 6.08894,-4.46264 1.08303,-2.45181 1.44992,-4.99534 1.44992,-8.99231 m -19.16995,12.98928 v -25.88331 h -3.72886 v 10.53394 h -7.08378 v -10.53394 h -3.71828 v 25.88331 h 3.71828 v -11.71575 h 7.08378 v 11.71575 z m -17.81175,-7.08731 c 0,-3.7218 -2.18017,-6.53697 -7.17551,-9.44386 -1.905,-1.08656 -2.4518,-1.81328 -2.4518,-3.08681 0,-1.72508 1.35819,-2.99508 3.09033,-2.99508 1.62631,0 2.90336,1.1818 2.99509,2.99508 h 3.54189 c -0.0882,-3.90525 -2.91042,-6.72042 -6.53698,-6.72042 -3.72886,0 -6.63222,2.99862 -6.63222,6.72042 0,2.27189 1.09008,4.26861 3.17853,5.72559 5.26344,3.53836 3.81352,2.54 4.3568,3.08328 1.5487,1.1818 2.09198,2.27189 2.09198,3.7218 0,2.09198 -1.63689,3.90878 -3.63362,3.90878 -2.54705,0 -3.63361,-2.27189 -3.63361,-4.45206 h -3.63361 c 0,4.26862 2.72344,8.09626 7.26722,8.09626 3.99698,0 7.17551,-3.37256 7.17551,-7.55298"
     style="fill:#000000;fill-opacity:1;fill-rule:evenodd;stroke:none"
     id="path6032"
     inkscape:connector-curvature="0" />
</svg>
