<?xml version="1.0" encoding="UTF-8" standalone="no"?>
<!-- Generator: Adobe Illustrator 14.0.0, SVG Export Plug-In  -->

<svg
   xmlns:dc="http://purl.org/dc/elements/1.1/"
   xmlns:cc="http://creativecommons.org/ns#"
   xmlns:rdf="http://www.w3.org/1999/02/22-rdf-syntax-ns#"
   xmlns:svg="http://www.w3.org/2000/svg"
   xmlns="http://www.w3.org/2000/svg"
   xmlns:sodipodi="http://sodipodi.sourceforge.net/DTD/sodipodi-0.dtd"
   xmlns:inkscape="http://www.inkscape.org/namespaces/inkscape"
   version="1.1"
   x="0px"
   y="0px"
   width="281.125"
   height="281.125"
   viewBox="0 -1.583 281.12501 281.12499"
   enable-background="new 0 -1.583 144 130"
   xml:space="preserve"
   id="svg2"
   inkscape:version="0.48.2 r9819"
   sodipodi:docname="AJAX1.svg"><metadata
   id="metadata24"><rdf:RDF><cc:Work
       rdf:about=""><dc:format>image/svg+xml</dc:format><dc:type
         rdf:resource="http://purl.org/dc/dcmitype/StillImage" /></cc:Work></rdf:RDF></metadata><sodipodi:namedview
   pagecolor="#ffffff"
   bordercolor="#666666"
   borderopacity="1"
   objecttolerance="10"
   gridtolerance="10"
   guidetolerance="10"
   inkscape:pageopacity="0"
   inkscape:pageshadow="2"
   inkscape:window-width="1280"
   inkscape:window-height="1004"
   id="namedview22"
   showgrid="false"
   fit-margin-top="0"
   fit-margin-left="0"
   fit-margin-right="0"
   fit-margin-bottom="0"
   inkscape:zoom="1.2836708"
   inkscape:cx="105.99604"
   inkscape:cy="111.96708"
   inkscape:window-x="-8"
   inkscape:window-y="-8"
   inkscape:window-maximized="1"
   inkscape:current-layer="svg2" />
<defs
   id="defs4">
</defs>








<path
   inkscape:connector-curvature="0"
   d="m 280.37664,261.30955 c 0,9.6125 -7.865,17.4775 -17.4775,17.4775 l -244.676262,0 c -9.6125,0 -17.477501,-7.865 -17.477501,-17.4775 l 0,-244.677515 c 0,-9.6124995 7.865001,-17.47624953 17.477501,-17.47624953 l 244.676262,0 c 9.6125,0 17.4775,7.86375003 17.4775,17.47624953 l 0,244.677515 z"
   style="fill:#ffffff;fill-opacity:1;fill-rule:nonzero;stroke:#000000;stroke-width:1.50000005;stroke-miterlimit:4;stroke-opacity:1;stroke-dasharray:none"
   id="path4707" /><path
   inkscape:connector-curvature="0"
   d="m 262.89965,3.8157855 -244.677512,0 c -7.04875,0 -12.81625,5.7675 -12.81625,12.8162495 l 0,244.677515 c 0,7.04875 5.7675,12.81625 12.81625,12.81625 l 244.677512,0 c 7.04875,0 12.81625,-5.7675 12.81625,-12.81625 l 0,-244.677515 c 0,-7.0487495 -5.7675,-12.8162495 -12.81625,-12.8162495 M 268.7259,261.30955 c 0,3.20375 -2.6225,5.82625 -5.82625,5.82625 l -244.677512,0 c -3.20375,0 -5.825,-2.6225 -5.825,-5.82625 l 0,-244.677515 c 0,-3.20375 2.62125,-5.825 5.825,-5.825 l 244.677512,0 c 3.20375,0 5.82625,2.62125 5.82625,5.825 l 0,244.677515 z"
   style="fill:#000000;fill-opacity:1;fill-rule:nonzero;stroke:none"
   id="path4715" /><path
   inkscape:connector-curvature="0"
   d="m 152.21252,271.33692 -6.99125,0 0,-123.04376 6.99125,0 0,123.04376 z"
   style="fill:#000000;fill-opacity:1;fill-rule:nonzero;stroke:none"
   id="path4717" /><path
   inkscape:connector-curvature="0"
   d="m 262.05976,65.488905 -30.61875,-44.19625 -30.61875,44.19625 c -0.52875,0.75625 -0.84,1.67625 -0.84,2.67 0,2.57375 2.08625,4.66 4.66125,4.66 0.4825,0 0.9475,-0.0725 1.385,-0.20875 l 13.76125,-4.13 0,61.000005 c -12.645,-19.62875 -29.8425,-36.048755 -50.1,-47.767505 l 11.20625,-8.925 c 0.36125,-0.2825 0.6875,-0.62375 0.9625,-1.02 1.4675,-2.11375 0.94375,-5.0175 -1.17125,-6.48625 -0.81625,-0.56625 -1.74875,-0.835 -2.6725,-0.83125 l -53.765,-0.0475 18.84875,50.353755 c 0.31875,0.86625 0.8975,1.64625 1.71375,2.2125 2.115,1.4675 5.01875,0.9425 6.48625,-1.17125 0.275,-0.39625 0.48,-0.82125 0.6175,-1.25875 l 4.4375,-13.59875 c 37.84125,21.105 63.43625,61.5325 63.43625,107.93876 l 0,25.6325 23.3025,0 0,-166.031265 13.76125,4.13 c 0.4375,0.13625 0.9025,0.20875 1.385,0.20875 2.575,0 4.66125,-2.08625 4.66125,-4.66 0,-0.99375 -0.31125,-1.91375 -0.84,-2.67"
   style="fill:#000000;fill-opacity:1;fill-rule:nonzero;stroke:none"
   id="path4721" /><path
   inkscape:connector-curvature="0"
   d="m 114.92552,163.18516 c -0.1125,-29.39375 -19.65751,-54.20375 -46.45751,-62.24875 l 9.3075,-10.762505 c 0.3025,-0.34375 0.56,-0.73875 0.7575,-1.17875 1.05375,-2.34875 0.002,-5.10625 -2.345,-6.16 -0.90625,-0.40625 -1.87375,-0.5 -2.78,-0.32625 l -52.855002,9.85625 27.800002,46.021255 c 0.47375,0.7925 1.18625,1.4525 2.0925,1.85875 2.34875,1.05375 5.10625,0.002 6.16,-2.34625 0.1975,-0.44 0.32,-0.895 0.375,-1.35 l 1.83,-14.05875 c 18.775,4.1675 32.815,20.91875 32.815,40.94875 l 0,36.11876 23.30251,0 0,-36.37251 -0.002,0 z"
   style="fill:#000000;fill-opacity:1;fill-rule:nonzero;stroke:none"
   id="path4725" /><path
   inkscape:connector-curvature="0"
   d="m 42.889505,247.28942 c -2.15375,2.8175 -5.0825,4.19875 -9.00375,4.19875 -5.248751,0 -8.452501,-2.1 -10.716251,-6.685 -1.5475,-3.14875 -2.6525,-8.12 -2.6525,-12.53875 0,-6.1875 1.5475,-11.71125 4.08875,-15.19125 2.15375,-2.9275 5.247501,-4.1975 9.556251,-4.1975 10.33,0 12.815,11.0475 12.815,19.38875 0,5.855 -1.49125,11.71125 -4.0875,15.025 m -8.7275,-28.39375 c -3.315,0 -4.861251,1.32625 -6.187501,4.585 -0.88375,2.21 -1.43625,5.635 -1.43625,8.78375 0,3.92125 0.82875,7.95375 2.265,10.33 1.160001,1.9325 2.706251,2.8725 5.082501,2.8725 2.76125,0 4.47375,-1.43625 5.745,-4.69625 0.7725,-1.9875 1.43625,-5.63375 1.43625,-8.50625 0,-4.30875 -0.94,-13.36875 -6.905,-13.36875"
   style="fill:#000000;fill-opacity:1;fill-rule:nonzero;stroke:none"
   id="path4729" /><path
   inkscape:connector-curvature="0"
   d="m 74.7625,250.82467 -14.25125,-25.245 0,25.245 -5.91125,0 0,-37.28625 5.91125,0 13.58875,23.8075 0,-23.8075 5.855,0 0,37.28625 -5.1925,0 z"
   style="fill:#000000;fill-opacity:1;fill-rule:nonzero;stroke:none"
   id="path4733" /><path
   inkscape:connector-curvature="0"
   d="m 88.35101,250.82467 0,-37.28625 5.91125,0 0,31.8175 17.23376,0 0,5.46875 -23.14501,0 z"
   style="fill:#000000;fill-opacity:1;fill-rule:nonzero;stroke:none"
   id="path4737" /><path
   inkscape:connector-curvature="0"
   d="m 127.18415,234.58417 0,16.24 -5.91,0 0,-16.24 -13.0925,-21.04625 7.07125,0 8.8925,14.3625 9.06,-14.3625 6.905,0 -12.92625,21.04625 z"
   style="fill:#000000;fill-opacity:1;fill-rule:nonzero;stroke:none"
   id="path4741" /></svg>