<?xml version="1.0" encoding="UTF-8" standalone="no"?>
<!-- Generator: Adobe Illustrator 14.0.0, SVG Export Plug-In  -->

<svg
   xmlns:dc="http://purl.org/dc/elements/1.1/"
   xmlns:cc="http://creativecommons.org/ns#"
   xmlns:rdf="http://www.w3.org/1999/02/22-rdf-syntax-ns#"
   xmlns:svg="http://www.w3.org/2000/svg"
   xmlns="http://www.w3.org/2000/svg"
   xmlns:sodipodi="http://sodipodi.sourceforge.net/DTD/sodipodi-0.dtd"
   xmlns:inkscape="http://www.inkscape.org/namespaces/inkscape"
   version="1.1"
   x="0px"
   y="0px"
   width="108.95812"
   height="108.94391"
   viewBox="0 -0.321 108.95811 108.94394"
   enable-background="new 0 -0.321 144 120"
   xml:space="preserve"
   id="svg2"
   inkscape:version="0.48.2 r9819"
   sodipodi:docname="MUTCD W20-2 (temporary).svg"><metadata
   id="metadata44"><rdf:RDF><cc:Work
       rdf:about=""><dc:format>image/svg+xml</dc:format><dc:type
         rdf:resource="http://purl.org/dc/dcmitype/StillImage" /><dc:title></dc:title></cc:Work></rdf:RDF></metadata><sodipodi:namedview
   pagecolor="#ffffff"
   bordercolor="#666666"
   borderopacity="1"
   objecttolerance="10"
   gridtolerance="10"
   guidetolerance="10"
   inkscape:pageopacity="0"
   inkscape:pageshadow="2"
   inkscape:window-width="1280"
   inkscape:window-height="1004"
   id="namedview42"
   showgrid="false"
   fit-margin-top="0"
   fit-margin-left="0"
   fit-margin-right="0"
   fit-margin-bottom="0"
   inkscape:zoom="5.3605324"
   inkscape:cx="44.311927"
   inkscape:cy="43.71383"
   inkscape:window-x="-8"
   inkscape:window-y="-8"
   inkscape:window-maximized="1"
   inkscape:current-layer="svg2" />
<defs
   id="defs4">
</defs>


















<path
   inkscape:connector-curvature="0"
   d="M 51.560314,107.43231 1.2065487,57.078548 c -1.60874999,-1.60875 -1.60874999,-4.231251 0,-5.840002 L 51.557814,0.88728241 c 1.60875,-1.610001 4.233751,-1.611251 5.842501,-0.0025 L 107.75158,51.241046 c 1.60875,1.608751 1.60875,4.230002 0,5.838752 L 57.400315,107.43231 c -1.58875,1.58625 -4.250001,1.58875 -5.840001,0"
   style="fill:#f4911d;fill-opacity:1;fill-rule:nonzero;stroke:none"
   id="path6980" /><path
   inkscape:connector-curvature="0"
   d="M 52.361563,106.61219 2.0265487,56.278428 c -1.15749999,-1.160001 -1.15499999,-3.078751 0,-4.238751 L 52.359063,1.7071624 c 1.16,-1.15874999 3.076251,-1.15624999 4.240001,0 L 106.92908,52.042177 c 1.1575,1.16 1.16,3.075 0,4.236251 L 56.599064,106.61219 c -1.16125,1.1525 -3.078751,1.15625 -4.237501,0"
   style="fill:#000000;fill-opacity:1;fill-rule:evenodd;stroke:none"
   id="path6984" /><path
   inkscape:connector-curvature="0"
   d="M 53.481563,105.46231 3.1765487,55.157297 c -0.55625,-0.53875 -0.55625,-1.4575 0,-1.99625 L 53.481563,2.8572824 c 0.5375,-0.55625 1.455001,-0.55625 1.995001,0 L 105.78158,53.161047 c 0.55625,0.54 0.55625,1.45875 -0.002,1.99875 L 55.479064,105.46231 c -0.54,0.55625 -1.457501,0.55625 -1.997501,0"
   style="fill:#f4911d;fill-opacity:1;fill-rule:evenodd;stroke:none"
   id="path6988" /><path
   d="m 71.172809,33.265917 c 0,1.470001 -0.35,2.671251 -1.008751,3.327501 -0.3075,0.31 -0.65625,0.4275 -1.2375,0.4275 l -1.741251,0 0,-7.510002 1.975001,0 c 0.46125,0 0.85,0.195 1.12125,0.46375 0.541251,0.583751 0.891251,1.821251 0.891251,3.291251 m 1.77625,0 c 0,-2.165 -0.65375,-3.908751 -1.81625,-4.915001 -0.580001,-0.46375 -1.005001,-0.58 -2.128751,-0.58 l -3.558751,0 0,11.030003 3.366251,0 0.6175,0 c 0.58125,-0.04 1.1625,-0.2325 1.587501,-0.6175 1.24,-0.97 1.9325,-2.710001 1.9325,-4.917502 m -12.731254,0.656251 -2.205,0 1.12125,-3.092501 1.08375,3.092501 z m 3.560002,4.878751 -3.792502,-11.030003 -1.7425,0 -3.788751,11.030003 1.855,0 1.083751,-3.096251 3.447501,0 1.07875,3.096251 1.858751,0 z M 51.280303,33.304667 c 0,0.852501 -0.19375,1.936251 -0.4275,2.515001 -0.38875,0.96625 -0.89125,1.393751 -1.702501,1.393751 -0.6975,0 -1.16125,-0.271251 -1.50875,-0.851251 -0.42875,-0.69625 -0.65875,-1.8975 -0.65875,-3.057501 0,-0.9275 0.15375,-1.93375 0.4275,-2.5925 0.385,-0.966251 0.9275,-1.393751 1.7775,-1.355001 0.658751,0.03875 1.083751,0.27125 1.432501,0.852501 0.425,0.735 0.66,1.8575 0.66,3.095 m 1.74,0 c 0,-1.39375 -0.27125,-2.7875 -0.735,-3.755001 -0.6975,-1.355 -1.665,-1.9725 -3.058751,-1.9725 -1.2775,0 -2.165,0.38875 -2.825,1.23875 -0.735001,1.04375 -1.198751,2.670001 -1.198751,4.488751 0,1.316251 0.3075,2.786251 0.77375,3.716251 0.657501,1.355001 1.626251,1.980001 3.173751,1.980001 1.160001,0 2.051251,-0.39375 2.668751,-1.245 0.77625,-0.970001 1.20125,-2.707501 1.20125,-4.451252 M 41.64155,30.865917 c 0,0.46375 -0.26875,0.93 -0.69875,1.1625 -0.26875,0.15375 -0.46125,0.1925 -1.00375,0.1925 l -2.090001,0 0,-2.710001 2.090001,0 c 0.57875,0 0.735,0.03875 1.00375,0.195 0.43,0.2325 0.69875,0.696251 0.69875,1.160001 m 1.975001,7.935002 -1.936251,-5.148752 c 1.00625,-0.465 1.703751,-1.62375 1.703751,-2.78625 0,-1.120001 -0.697501,-2.282501 -1.665001,-2.746251 -0.54125,-0.27125 -1.12,-0.34875 -1.9725,-0.34875 l -3.640001,0 0,11.030003 1.7425,0 0,-4.800001 2.090001,0 1.78,4.800001 1.897501,0 z"
   style="fill:#000000;fill-opacity:1;fill-rule:evenodd;stroke:none"
   id="path6828"
   inkscape:connector-curvature="0" /><path
   d="m 79.249061,52.025673 c 0,1.4725 -0.3475,2.671251 -1.00375,3.327501 -0.31,0.31 -0.660001,0.4275 -1.240001,0.4275 l -1.74125,0 0,-7.510002 1.9725,0 c 0.466251,0 0.852501,0.195 1.123751,0.46625 0.54125,0.57875 0.88875,1.818751 0.88875,3.288751 m 1.78125,0 c 0,-2.167501 -0.65875,-3.908751 -1.81875,-4.915001 -0.58125,-0.466251 -1.005,-0.580001 -2.131251,-0.580001 l -3.558751,0 0,11.027504 3.366251,0 0.6225,0 c 0.578751,-0.0375 1.160001,-0.23 1.585001,-0.617501 1.2375,-0.9675 1.935,-2.7075 1.935,-4.915001 m -9.328752,5.532502 0,-1.777501 -5.108752,0 0,-3.020001 3.215001,0 0,-1.78 -3.215001,0 0,-2.710001 4.760002,0 0,-1.740001 -6.498752,0 0,11.027504 6.847502,0 z m -8.668753,-3.171251 c 0,-4.336252 -5.186251,-2.981251 -5.340001,-5.032502 -0.075,-1.005 0.89125,-1.315 1.7025,-1.27625 1.240001,0.03875 1.626251,0.96625 1.626251,0.96625 l 1.55,-0.46375 c -0.5425,-1.355 -1.59,-2.243751 -3.135001,-2.243751 -1.975,0 -3.445001,0.813751 -3.445001,2.978751 0,1.818751 1.470001,2.478751 2.126251,2.748751 1.43375,0.57875 3.137501,0.81375 3.137501,2.282501 0,0.93125 -0.69875,1.62625 -1.703751,1.62625 -1.045,0 -1.8975,-0.58125 -2.36375,-1.62625 l -1.662501,0.62125 c 0.735,1.6625 2.128751,2.792501 4.026251,2.792501 0.927501,0 1.780001,-0.315 2.397501,-0.857501 0.6975,-0.6225 1.08375,-1.51125 1.08375,-2.51625 M 52.159053,52.064423 c 0,0.85 -0.19375,1.933751 -0.425,2.515001 -0.38625,0.96625 -0.89125,1.39375 -1.70375,1.39375 -0.696251,0 -1.162501,-0.27125 -1.508751,-0.85125 -0.425,-0.69625 -0.6575,-1.895001 -0.6575,-3.057501 0,-0.93 0.15375,-1.936251 0.425,-2.592501 0.38625,-0.96875 0.9275,-1.39375 1.780001,-1.355 0.65625,0.03875 1.08375,0.27125 1.43,0.85 0.4275,0.7375 0.66,1.860001 0.66,3.097501 m 1.742501,0 c 0,-1.39375 -0.27375,-2.785001 -0.735001,-3.755001 -0.6975,-1.3525 -1.6675,-1.972501 -3.05875,-1.972501 -1.276251,0 -2.167501,0.386251 -2.825001,1.237501 -0.735,1.045 -1.201251,2.671251 -1.201251,4.490001 0,1.31625 0.310001,2.788751 0.773751,3.716251 0.66,1.3525 1.62625,1.980001 3.175001,1.980001 1.16125,0 2.0525,-0.39625 2.67,-1.245001 0.773751,-0.97 1.201251,-2.71 1.201251,-4.451251 m -9.211253,5.493752 0,-1.623751 -5.110001,0 0,-9.403753 -1.742501,0 0,11.027504 6.852502,0 z m -9.250003,-2.243751 -1.665,-0.6175 c -0.425,0.89125 -0.9675,1.27625 -1.702501,1.27625 -0.77375,0 -1.27625,-0.27125 -1.665,-0.85125 -0.425,-0.69625 -0.695,-1.895001 -0.695,-3.096251 0,-0.9275 0.15375,-1.897501 0.42625,-2.553751 0.38625,-0.96875 0.9675,-1.355 1.85875,-1.355 0.848751,0 1.196251,0.2325 1.816251,1.1625 l 1.62625,-0.69875 c -0.7375,-1.5475 -1.78,-2.243751 -3.442501,-2.243751 -1.24,0 -2.16875,0.425001 -2.8275,1.237501 -0.773751,0.9675 -1.240001,2.710001 -1.240001,4.451251 0,1.39375 0.31,2.786251 0.815,3.755001 0.696251,1.3525 1.738751,1.980001 3.365001,1.980001 1.588751,0 2.672501,-0.820001 3.330001,-2.446251"
   style="fill:#000000;fill-opacity:1;fill-rule:evenodd;stroke:none"
   id="path6832"
   inkscape:connector-curvature="0" /><path
   d="m 31.624047,76.569055 0,-9.126253 -0.70125,0 0,-1.20875 c 0.625,-0.04125 1.01625,-0.3125 1.25,-0.78125 l 1.050001,0 0,11.116253 -1.598751,0 z"
   style="fill:#000000;fill-opacity:1;fill-rule:nonzero;stroke:none"
   id="path6836"
   inkscape:connector-curvature="0" /><path
   d="m 40.127675,68.222053 c -0.27375,-0.973751 -0.70375,-1.403751 -1.367501,-1.403751 -0.69875,0 -1.13,0.43 -1.40125,1.365001 -0.27375,0.85875 -0.35125,1.59875 -0.35125,2.84875 0,1.208751 0.11625,1.908751 0.35125,2.807501 0.27125,0.935001 0.7025,1.362501 1.40125,1.362501 0.663751,0 1.093751,-0.4275 1.367501,-1.362501 0.27,-0.89875 0.35125,-1.56 0.35125,-2.848751 0,-1.2475 -0.1175,-1.94875 -0.35125,-2.76875 m 1.2475,6.631252 c -0.545,1.325 -1.365,1.90875 -2.615001,1.90875 -1.32375,0 -2.105,-0.58375 -2.65125,-1.90875 -0.468751,-1.093751 -0.622501,-2.143751 -0.622501,-3.862502 0,-1.6775 0.15375,-2.8075 0.622501,-3.860001 0.58625,-1.32625 1.3675,-1.8725 2.65125,-1.8725 1.286251,0 2.070001,0.54625 2.615001,1.91125 0.46875,1.091251 0.6225,2.143751 0.6225,3.821251 0,1.718751 -0.15375,2.810001 -0.6225,3.862502"
   style="fill:#000000;fill-opacity:1;fill-rule:nonzero;stroke:none"
   id="path6840"
   inkscape:connector-curvature="0" /><path
   d="m 48.667677,68.222053 c -0.27375,-0.973751 -0.70125,-1.403751 -1.3675,-1.403751 -0.69875,0 -1.130001,0.43 -1.401251,1.365001 -0.27375,0.85875 -0.35125,1.59875 -0.35125,2.84875 0,1.208751 0.11625,1.908751 0.35125,2.807501 0.27125,0.935001 0.702501,1.362501 1.401251,1.362501 0.66625,0 1.09375,-0.4275 1.3675,-1.362501 0.2725,-0.89875 0.35125,-1.56 0.35125,-2.848751 0,-1.2475 -0.1175,-1.94875 -0.35125,-2.76875 m 1.247501,6.631252 c -0.545001,1.325 -1.365001,1.90875 -2.615001,1.90875 -1.323751,0 -2.102501,-0.58375 -2.651251,-1.90875 -0.46875,-1.093751 -0.6225,-2.143751 -0.6225,-3.862502 0,-1.6775 0.15375,-2.8075 0.6225,-3.860001 0.58625,-1.32625 1.3675,-1.8725 2.651251,-1.8725 1.28875,0 2.07,0.54625 2.615001,1.91125 0.46875,1.091251 0.6225,2.143751 0.6225,3.821251 0,1.718751 -0.15375,2.810001 -0.6225,3.862502"
   style="fill:#000000;fill-opacity:1;fill-rule:nonzero;stroke:none"
   id="path6844"
   inkscape:connector-curvature="0" /><path
   d="m 57.210305,68.222053 c -0.27625,-0.973751 -0.703751,-1.403751 -1.365001,-1.403751 -0.70375,0 -1.1325,0.43 -1.40625,1.365001 -0.27375,0.85875 -0.34875,1.59875 -0.34875,2.84875 0,1.208751 0.11625,1.908751 0.34875,2.807501 0.27375,0.935001 0.7025,1.362501 1.40625,1.362501 0.66125,0 1.088751,-0.4275 1.365001,-1.362501 0.27,-0.89875 0.34875,-1.56 0.34875,-2.848751 0,-1.2475 -0.1175,-1.94875 -0.34875,-2.76875 m 1.2475,6.631252 c -0.5475,1.325 -1.365,1.90875 -2.612501,1.90875 -1.32875,0 -2.1075,-0.58375 -2.656251,-1.90875 -0.46375,-1.093751 -0.6225,-2.143751 -0.6225,-3.862502 0,-1.6775 0.15875,-2.8075 0.6225,-3.860001 0.586251,-1.32625 1.367501,-1.8725 2.656251,-1.8725 1.283751,0 2.065001,0.54625 2.612501,1.91125 0.46625,1.091251 0.625,2.143751 0.625,3.821251 0,1.718751 -0.15875,2.810001 -0.625,3.862502"
   style="fill:#000000;fill-opacity:1;fill-rule:nonzero;stroke:none"
   id="path6848"
   inkscape:connector-curvature="0" /><path
   d="m 68.437808,67.013552 0,2.807501 2.22375,0 0,1.521251 -2.22375,0 0,5.226251 -1.596251,0 0,-11.115003 5.653752,0 0,1.56 -4.057501,0 z"
   style="fill:#000000;fill-opacity:1;fill-rule:nonzero;stroke:none"
   id="path6852"
   inkscape:connector-curvature="0" /><path
   d="m 76.82406,66.935427 0,9.633753 -1.59625,0 0,-9.633753 -2.031251,0 0,-1.4825 5.656252,0 0,1.4825 -2.028751,0 z"
   style="fill:#000000;fill-opacity:1;fill-rule:nonzero;stroke:none"
   id="path6856"
   inkscape:connector-curvature="0" /></svg>