<?xml version="1.0" encoding="UTF-8" standalone="no"?>
<!-- Generator: Adobe Illustrator 14.0.0, SVG Export Plug-In  -->

<svg
   xmlns:dc="http://purl.org/dc/elements/1.1/"
   xmlns:cc="http://creativecommons.org/ns#"
   xmlns:rdf="http://www.w3.org/1999/02/22-rdf-syntax-ns#"
   xmlns:svg="http://www.w3.org/2000/svg"
   xmlns="http://www.w3.org/2000/svg"
   xmlns:sodipodi="http://sodipodi.sourceforge.net/DTD/sodipodi-0.dtd"
   xmlns:inkscape="http://www.inkscape.org/namespaces/inkscape"
   version="1.1"
   x="0px"
   y="0px"
   width="108.94373"
   height="108.94499"
   viewBox="0 -0.321 108.94373 108.94502"
   enable-background="new 0 -0.321 144 120"
   xml:space="preserve"
   id="svg2"
   inkscape:version="0.48.2 r9819"
   sodipodi:docname="MUTCD W8-23 (temporary).svg"><metadata
   id="metadata44"><rdf:RDF><cc:Work
       rdf:about=""><dc:format>image/svg+xml</dc:format><dc:type
         rdf:resource="http://purl.org/dc/dcmitype/StillImage" /><dc:title></dc:title></cc:Work></rdf:RDF></metadata><sodipodi:namedview
   pagecolor="#ffffff"
   bordercolor="#666666"
   borderopacity="1"
   objecttolerance="10"
   gridtolerance="10"
   guidetolerance="10"
   inkscape:pageopacity="0"
   inkscape:pageshadow="2"
   inkscape:window-width="1280"
   inkscape:window-height="1004"
   id="namedview42"
   showgrid="false"
   fit-margin-top="0"
   fit-margin-left="0"
   fit-margin-right="0"
   fit-margin-bottom="0"
   inkscape:zoom="5.3605324"
   inkscape:cx="45.404066"
   inkscape:cy="37.27274"
   inkscape:window-x="-8"
   inkscape:window-y="-8"
   inkscape:window-maximized="1"
   inkscape:current-layer="svg2" />
<defs
   id="defs4">
</defs>


















<path
   inkscape:connector-curvature="0"
   d="m 107.47971,50.61901 c 0.97625,0.97376 1.46375,2.25376 1.46375,3.53251 0,1.28 -0.4875,2.55875 -1.46375,3.535 l -24.737504,24.7375 -24.7363,24.73875 c -0.9762,0.97375 -2.2562,1.46125 -3.5337,1.46125 -1.28,0 -2.5588,-0.4875 -3.5338,-1.46125 L 26.200906,82.42402 1.4634059,57.68652 c -0.97620004,-0.97625 -1.46370004068,-2.255 -1.46370004068,-3.535 0,-1.27875 0.48750000068,-2.55875 1.46370004068,-3.53251 L 26.200906,25.88026 50.938406,1.144 c 0.975,-0.97625 2.2538,-1.465 3.5338,-1.465 1.2775,0 2.5575,0.48875 3.5337,1.465 l 24.7363,24.73626 24.737504,24.73875 z"
   style="fill:#f4911d;fill-opacity:1;fill-rule:nonzero;stroke:none"
   id="path3943" /><path
   inkscape:connector-curvature="0"
   d="m 105.12384,55.33153 -49.473734,49.475 c -0.65,0.64875 -1.7063,0.64875 -2.3563,0 L 3.8188059,55.33153 c -0.65,-0.65 -0.65,-1.7075 0,-2.35625 L 53.293806,3.50026 c 0.65,-0.65 1.7063,-0.65 2.3563,0 l 49.473734,49.47502 c 0.65,0.64875 0.65,1.70625 0,2.35625 m 1.375,-3.73125 L 57.025106,2.12526 c -1.4075,-1.40625 -3.6988,-1.40625 -5.1063,0 L 2.4438059,51.60028 c -1.4062,1.40625 -1.4062,3.69625 0,5.105 l 49.4750001,49.4725 c 1.4075,1.40875 3.6988,1.40875 5.1063,0 l 49.473734,-49.4725 c 1.4075,-1.40875 1.4075,-3.69875 0,-5.105"
   style="fill:#000000;fill-opacity:1;fill-rule:nonzero;stroke:none"
   id="path3967" /><path
   inkscape:connector-curvature="0"
   d="m 68.343946,40.27027 0,-11.10625 1.75125,0 0,9.47 5.13751,0 0,1.63625 -6.88876,0 z"
   style="fill:#000000;fill-opacity:1;fill-rule:nonzero;stroke:none"
   id="path3971" /><path
   inkscape:connector-curvature="0"
   d="m 46.542206,30.72152 0,9.54875 -1.7613,0 0,-9.54875 -2.5437,0 0,-1.5575 6.8875,0 0,1.5575 -2.5825,0 z"
   style="fill:#000000;fill-opacity:1;fill-rule:nonzero;stroke:none"
   id="path3975" /><path
   inkscape:connector-curvature="0"
   d="m 40.256706,39.59402 c -0.6238,0.54375 -1.4813,0.85625 -2.4163,0.85625 -1.9087,0 -3.3125,-1.13 -4.0525,-2.805 l 1.6763,-0.6225 c 0.4675,1.05 1.325,1.63625 2.3762,1.63625 1.0138,0 1.7163,-0.70125 1.7163,-1.63625 0,-1.48125 -1.7163,-1.71625 -3.1575,-2.3 -0.6625,-0.2725 -2.1438,-0.935 -2.1438,-2.76625 0,-2.1825 1.4813,-3 3.4688,-3 1.5587,0 2.6112,0.89625 3.1562,2.25875 l -1.5587,0.46875 c 0,0 -0.39,-0.935 -1.6375,-0.975 -0.8175,-0.0387 -1.7913,0.27375 -1.7138,1.2875 0.155,2.0625 5.3775,0.7 5.3775,5.06375 0,1.0125 -0.3887,1.91125 -1.0912,2.53375"
   style="fill:#000000;fill-opacity:1;fill-rule:nonzero;stroke:none"
   id="path3979" /><path
   inkscape:connector-curvature="0"
   d="m 50.791406,40.27027 0,-11.10625 6.5375,0 0,1.7525 -4.7875,0 0,2.7275 3.23,0 0,1.795 -3.23,0 0,3.03875 5.1388,0 0,1.7925 -6.8888,0 z"
   style="fill:#000000;fill-opacity:1;fill-rule:nonzero;stroke:none"
   id="path3983" /><path
   inkscape:connector-curvature="0"
   d="m 59.567206,40.27027 0,-11.10625 6.53749,0 0,1.7525 -4.78629,0 0,2.7275 3.23004,0 0,1.795 -3.23004,0 0,3.03875 5.13754,0 0,1.7925 -6.88874,0 z"
   style="fill:#000000;fill-opacity:1;fill-rule:nonzero;stroke:none"
   id="path3987" /><path
   inkscape:connector-curvature="0"
   d="m 38.447706,50.54902 c -0.3125,-0.15625 -0.5063,-0.19625 -1.0525,-0.19625 l -2.3,0 0,2.72751 2.3,0 c 0.5462,0 0.74,-0.0387 1.0525,-0.195 0.39,-0.19375 0.6612,-0.70125 0.6612,-1.1675 0,-0.46875 -0.2712,-0.935 -0.6612,-1.16876 m 0.74,3.93501 c -0.5063,0.23375 -1.17,0.38875 -2.0263,0.38875 l -2.0662,0 0,4.83375 -1.7525,0 0,-11.10626 3.8187,0 c 0.8975,0 1.48,0.0775 2.0263,0.34875 0.9737,0.46875 1.715,1.63875 1.715,2.76876 0,1.1675 -0.7413,2.33625 -1.715,2.76625"
   style="fill:#000000;fill-opacity:1;fill-rule:nonzero;stroke:none"
   id="path3991" /><path
   inkscape:connector-curvature="0"
   d="m 42.568806,59.70653 0,-11.10626 1.75,0 0,9.46751 5.1388,0 0,1.63875 -6.8888,0 z"
   style="fill:#000000;fill-opacity:1;fill-rule:nonzero;stroke:none"
   id="path3995" /><path
   inkscape:connector-curvature="0"
   d="m 64.540326,50.15776 0,9.54876 -1.76122,0 0,-9.54876 -2.5438,0 0,-1.5575 6.88752,0 0,1.5575 -2.5825,0 z"
   style="fill:#000000;fill-opacity:1;fill-rule:nonzero;stroke:none"
   id="path3999" /><path
   inkscape:connector-curvature="0"
   d="m 68.789576,59.70653 0,-11.10626 6.53876,0 0,1.7525 -4.78751,0 0,2.72751 3.23,0 0,1.7925 -3.23,0 0,3.03875 5.13751,0 0,1.795 -6.88876,0 z"
   style="fill:#000000;fill-opacity:1;fill-rule:nonzero;stroke:none"
   id="path4003" /><path
   inkscape:connector-curvature="0"
   d="m 54.866106,51.67903 -1.1363,3.1175 2.2338,0 -1.0975,-3.1175 z m 2.8212,8.0275 -1.0975,-3.1175 -3.4875,0 -1.0975,3.1175 -1.8812,0 3.84,-11.10626 1.765,0 3.8412,11.10626 -1.8825,0 z"
   style="fill:#000000;fill-opacity:1;fill-rule:nonzero;stroke:none"
   id="path4007" /><path
   inkscape:connector-curvature="0"
   d="m 47.535906,79.14278 0,-4.835 -4.0537,0 0,4.835 -1.7538,0 0,-11.10625 1.7538,0 0,4.48 4.0537,0 0,-4.48 1.7525,0 0,11.10625 -1.7525,0 z"
   style="fill:#000000;fill-opacity:1;fill-rule:nonzero;stroke:none"
   id="path4011" /><path
   inkscape:connector-curvature="0"
   d="m 75.714586,70.25527 c -0.2725,-0.27125 -0.6625,-0.46625 -1.13,-0.46625 l -1.98751,0 0,7.55875 1.75376,0 c 0.58375,0 0.935,-0.1175 1.24625,-0.4275 0.6625,-0.66375 1.01375,-1.87 1.01375,-3.35125 0,-1.48 -0.35125,-2.7275 -0.89625,-3.31375 m 0.74125,8.2625 c -0.43,0.39 -1.01375,0.585 -1.6,0.625 l -0.62125,0 -3.39126,0 0,-11.10625 3.58501,0 c 1.13,0 1.55875,0.115 2.14375,0.58375 1.16875,1.0125 1.83125,2.765 1.83125,4.94875 0,2.22125 -0.70125,3.97375 -1.9475,4.94875"
   style="fill:#000000;fill-opacity:1;fill-rule:nonzero;stroke:none"
   id="path4015" /><path
   inkscape:connector-curvature="0"
   d="m 51.954706,79.14278 0,-11.10625 6.5387,0 0,1.7525 -4.7887,0 0,2.7275 3.2312,0 0,1.79125 -3.2312,0 0,3.04 5.1387,0 0,1.795 -6.8887,0 z"
   style="fill:#000000;fill-opacity:1;fill-rule:nonzero;stroke:none"
   id="path4019" /><path
   inkscape:connector-curvature="0"
   d="m 64.474326,71.11527 -1.13625,3.115 2.23375,0 -1.0975,-3.115 z m 2.82125,8.0275 -1.0975,-3.11875 -3.48747,0 -1.0975,3.11875 -1.8813,0 3.84002,-11.10625 1.76375,0 3.8425,11.10625 -1.8825,0 z"
   style="fill:#000000;fill-opacity:1;fill-rule:nonzero;stroke:none"
   id="path4023" /><path
   inkscape:connector-curvature="0"
   d="m 35.359306,71.11527 -1.1362,3.115 2.2337,0 -1.0975,-3.115 z m 2.8225,8.0275 -1.0975,-3.11875 -3.4887,0 -1.0975,3.11875 -1.8813,0 3.8413,-11.10625 1.765,0 3.84,11.10625 -1.8813,0 z"
   style="fill:#000000;fill-opacity:1;fill-rule:nonzero;stroke:none"
   id="path4027" /></svg>