<?xml version="1.0" encoding="UTF-8" standalone="no"?>
<!-- Created with Inkscape (http://www.inkscape.org/) -->

<svg
   width="49.251999in"
   height="49.251999in"
   viewBox="0 0 1251.0008 1251.0008"
   version="1.1"
   id="svg7045"
   inkscape:version="1.2.1 (9c6d41e410, 2022-07-14)"
   sodipodi:docname="MUTCD-CA_C12.svg"
   xmlns:inkscape="http://www.inkscape.org/namespaces/inkscape"
   xmlns:sodipodi="http://sodipodi.sourceforge.net/DTD/sodipodi-0.dtd"
   xmlns="http://www.w3.org/2000/svg"
   xmlns:svg="http://www.w3.org/2000/svg"
   xmlns:rdf="http://www.w3.org/1999/02/22-rdf-syntax-ns#"
   xmlns:cc="http://creativecommons.org/ns#"
   xmlns:dc="http://purl.org/dc/elements/1.1/">
  <defs
     id="defs7039" />
  <sodipodi:namedview
     id="base"
     pagecolor="#ffffff"
     bordercolor="#666666"
     borderopacity="1.0"
     inkscape:pageopacity="0.0"
     inkscape:pageshadow="2"
     inkscape:zoom="0.14829203"
     inkscape:cx="1827.4752"
     inkscape:cy="2029.7787"
     inkscape:document-units="in"
     inkscape:current-layer="layer1"
     showgrid="false"
     units="in"
     fit-margin-top="0"
     fit-margin-left="0"
     fit-margin-right="0"
     fit-margin-bottom="0"
     inkscape:window-width="2048"
     inkscape:window-height="1089"
     inkscape:window-x="-8"
     inkscape:window-y="-8"
     inkscape:window-maximized="1"
     inkscape:showpageshadow="2"
     inkscape:pagecheckerboard="0"
     inkscape:deskcolor="#d1d1d1" />
  <metadata
     id="metadata7042">
    <rdf:RDF>
      <cc:Work
         rdf:about="">
        <dc:format>image/svg+xml</dc:format>
        <dc:type
           rdf:resource="http://purl.org/dc/dcmitype/StillImage" />
      </cc:Work>
    </rdf:RDF>
  </metadata>
  <g
     inkscape:label="Layer 1"
     inkscape:groupmode="layer"
     id="layer1"
     transform="translate(-7.6875851e-7,954.00082)">
    <rect
       style="opacity:1;fill:#e67314;fill-opacity:1;stroke:none;stroke-width:36.29109955;stroke-linejoin:round;stroke-miterlimit:4;stroke-dasharray:none;stroke-opacity:1"
       id="rect2313"
       width="914.40002"
       height="914.40002"
       x="-667.21063"
       y="-1131.7772"
       rx="57.150002"
       ry="57.150002"
       transform="matrix(-0.70710678,-0.70710678,-0.70710678,0.70710678,0,0)" />
    <rect
       ry="41.274998"
       rx="41.274998"
       y="-1115.9021"
       x="-651.33557"
       height="882.64996"
       width="882.64996"
       id="rect2315"
       style="opacity:1;fill:#000000;fill-opacity:1;stroke:none;stroke-width:35.0309906;stroke-linejoin:round;stroke-miterlimit:4;stroke-dasharray:none;stroke-opacity:1"
       transform="matrix(-0.70710678,-0.70710678,-0.70710678,0.70710678,0,0)" />
    <rect
       ry="19.049999"
       rx="19.049999"
       y="-1093.6772"
       x="-629.11053"
       height="838.20001"
       width="838.20001"
       id="rect2317"
       style="opacity:1;fill:#e67314;fill-opacity:1;stroke:none;stroke-width:33.26684189;stroke-linejoin:round;stroke-miterlimit:4;stroke-dasharray:none;stroke-opacity:1"
       transform="matrix(-0.70710678,-0.70710678,-0.70710678,0.70710678,0,0)" />
    <path
       style="fill:#f4911d;fill-opacity:1;stroke-width:6.74345"
       d="m 2339.9774,4565.4353 c -7.4178,-3.1732 -501.2913,-493.842 -1097.4966,-1090.3752 C 164.39883,2396.3854 158.47109,2390.3074 158.47109,2363.5796 c 0,-26.7278 5.90559,-32.7829 1080.63801,-1108.0011 C 1833.46,660.95902 2328.3136,169.9053 2338.7837,164.34806 c 11.1678,-5.92749 26.6015,-8.44257 37.3377,-6.08452 12.7618,2.80296 347.3459,333.08803 1105.4337,1091.23016 1041.5345,1041.6091 1087.1328,1088.2268 1087.1328,1111.4375 0,16.1872 -6.4872,32.9544 -19.5487,50.5265 -35.2438,47.415 -2141.0372,2146.2184 -2160.7108,2153.5385 -22.1264,8.2329 -30.0638,8.3047 -48.451,0.439 z"
       id="path5305"
       transform="matrix(0.26458334,0,0,0.26458334,7.6875851e-7,-954.00082)" />
    <path
       style="fill:#f4911d;fill-opacity:1;stroke-width:6.74345"
       d="m 2297.6027,4704.0884 c -15.8882,-5.1471 -44.7165,-21.6482 -64.0628,-36.6689 -19.3462,-15.0207 -519.476,-512.2186 -1111.3996,-1104.8841 C 156.91001,2596.0951 44.364082,2481.2317 30.87137,2448.7953 12.016278,2403.4679 10.358054,2343.0304 26.590588,2292.7733 38.173141,2256.9128 75.009716,2219.2043 1138.6978,1154.3423 1963.5473,328.58259 2247.2625,48.502307 2272.5429,35.024121 c 28.9195,-15.418349 41.8735,-17.976283 91.0366,-17.976283 49.6732,0 62.2669,2.543764 94.4083,19.069329 30.4597,15.660865 232.0021,213.920483 1127.5692,1109.203033 1217.6888,1217.3019 1127.5301,1119.8884 1127.5301,1218.2593 0,98.4132 90.6137,0.5509 -1130.894,1221.357 -892.8392,892.3264 -1100.0561,1096.1572 -1127.577,1109.1521 -40.8693,19.2977 -113.9465,23.9519 -157.0134,9.9998 z m 137.1449,-61.0578 c 26.0771,-13.0512 270.5116,-254.0007 1120.2115,-1104.2401 1064.6958,-1065.3719 1087.073,-1088.2929 1097.4966,-1124.1732 13.257,-45.6338 13.2555,-56.4593 -0.014,-102.0756 -10.435,-35.8727 -33.0387,-59.0259 -1097.4961,-1124.1811 C 2704.9546,337.81354 2460.8339,97.170293 2434.7476,84.120569 2395.5289,64.501427 2342.757,61.935067 2304.3577,77.779554 2271.7822,91.220964 103.83982,2255.9512 82.700439,2296.145 c -18.311078,34.8161 -19.220769,97.0996 -1.96985,134.869 8.719154,19.0898 328.863071,343.8593 1095.322811,1111.1483 847.0447,847.9612 1090.2699,1087.8117 1116.358,1100.8683 45.339,22.6914 96.9973,22.6914 142.3362,0 z"
       id="path5307"
       transform="matrix(0.26458334,0,0,0.26458334,7.6875851e-7,-954.00082)" />
    <path
       inkscape:connector-curvature="0"
       style="fill:#000000;fill-rule:evenodd;stroke:none;stroke-width:4.12941"
       d="m 236.42845,-327.43869 h 22.4723 v -100.21656 l 56.6018,100.21656 h 19.3875 v -146.68904 h -22.4681 v 93.60548 l -52.8605,-93.60548 h -23.133 z"
       id="path635" />
    <path
       inkscape:connector-curvature="0"
       style="fill:#000000;fill-rule:evenodd;stroke:none;stroke-width:4.12941"
       d="m 430.79559,-392.63793 h -29.95474 l 14.98564,-43.82541 z m -52.86054,65.19924 14.98562,-42.2934 h 45.58452 l 14.75851,42.2934 h 24.22726 l -50.21362,-146.68904 h -22.69522 l -50.65137,146.68904 z"
       id="path637" />
    <path
       inkscape:connector-curvature="0"
       style="fill:#000000;fill-rule:evenodd;stroke:none;stroke-width:4.12941"
       d="m 518.55789,-414.65593 v -36.77654 h 31.50322 1.96977 c 8.82449,0 16.30704,8.37031 16.30704,18.04964 0,10.35659 -7.04887,18.50392 -15.85696,18.50392 h -3.08051 z m -22.46809,87.21724 h 22.46809 v -64.0843 l 27.53484,-0.22709 23.77721,64.31139 h 24.22726 l -24.88803,-68.49034 c 15.87346,-10.14601 22.03463,-20.48189 22.03463,-36.56593 0,-24.00009 -18.49985,-41.63265 -43.82543,-41.63265 h -3.08062 -48.24795 z"
       id="path639" />
    <path
       inkscape:connector-curvature="0"
       style="fill:#000000;fill-rule:evenodd;stroke:none;stroke-width:4.12941"
       d="m 788.23307,-347.48701 c -11.22796,0 -19.59827,-6.16103 -22.90588,-17.17827 -2.8534,-9.46874 -4.8397,-24.21077 -4.8397,-36.77653 0,-16.08405 2.64694,-31.94102 7.049,-40.52191 3.74526,-7.70965 12.77633,-12.99933 22.01799,-12.99933 18.2767,0 27.76196,18.28912 27.76196,54.40488 0,35.4551 -9.69584,53.07116 -29.08337,53.07116 z m 0,22.46818 c 15.42325,0 31.7138,-8.14321 38.76267,-20.03181 8.15973,-13.43711 12.56589,-33.9231 12.56589,-57.92738 0,-24.22716 -5.0668,-44.71317 -14.09788,-56.82475 -8.14731,-10.58368 -23.13294,-17.61605 -37.66438,-17.61605 -32.16389,0 -49.77996,27.30778 -49.77996,77.07123 0,11.01737 0.88845,21.60094 2.86994,31.50336 1.9698,10.56705 6.16103,20.25878 11.8886,27.97253 7.25948,9.25816 22.24508,15.85287 35.45512,15.85287 z"
       id="path641" />
    <path
       inkscape:connector-curvature="0"
       style="fill:#000000;fill-rule:evenodd;stroke:none;stroke-width:4.12941"
       d="m 872.03524,-327.43869 h 20.48599 l 23.3394,-92.7176 23.13295,92.7176 h 20.48597 l 20.91962,-146.68904 h -22.9059 l -11.67789,79.06994 -19.38755,-79.06994 h -20.46949 l -20.05243,79.06994 -11.01725,-79.06994 h -23.3394 z"
       id="path643" />
    <path
       inkscape:connector-curvature="0"
       style="fill:#000000;fill-rule:evenodd;stroke:none;stroke-width:4.29018"
       d="m 368.22905,-71.01883 h 92.45329 v -21.49808 h -68.87449 v -130.90192 h -23.5788 z"
       id="path645" />
    <path
       inkscape:connector-curvature="0"
       style="fill:#000000;fill-rule:evenodd;stroke:none;stroke-width:4.29018"
       d="m 548.61524,-138.75645 h -31.12095 l 15.56904,-45.53164 z m -54.91857,67.73762 15.56905,-43.93999 h 47.35931 l 15.33313,43.93999 h 25.17037 l -52.16845,-152.4 h -23.57885 l -52.61901,152.4 z"
       id="path647" />
    <path
       inkscape:connector-curvature="0"
       style="fill:#000000;fill-rule:evenodd;stroke:none;stroke-width:4.29018"
       d="m 617.48118,-71.01883 h 23.34289 v -104.11825 l 58.80539,104.11825 h 20.14236 v -152.4 h -23.34279 v 97.24975 l -54.91855,-97.24975 h -24.0293 z"
       id="path649" />
    <path
       inkscape:connector-curvature="0"
       style="fill:#000000;fill-rule:evenodd;stroke:none;stroke-width:4.29018"
       d="m 755.45318,-71.01883 h 93.14405 v -24.24808 h -69.34642 v -42.33119 h 43.93999 v -24.03356 h -43.93999 v -37.98954 h 64.08235 v -23.79763 h -87.87998 z"
       id="path651" />
    <path
       id="path837"
       d="m 645.56074,-414.65593 v -36.77654 h 31.50323 1.96977 c 8.82449,0 16.30703,8.37031 16.30703,18.04964 0,10.35659 -7.04887,18.50392 -15.85695,18.50392 h -3.08052 z m -22.46809,87.21724 h 22.46809 v -64.0843 l 27.53485,-0.22709 23.7772,64.31139 h 24.22726 l -24.88803,-68.49034 c 15.87347,-10.14601 22.03463,-20.48189 22.03463,-36.56593 0,-24.00009 -18.49985,-41.63265 -43.82542,-41.63265 h -3.08062 -48.24796 z"
       style="fill:#000000;fill-rule:evenodd;stroke:none;stroke-width:4.12941"
       inkscape:connector-curvature="0" />
  </g>
</svg>
