<?xml version="1.0" encoding="UTF-8" standalone="no"?>
<!-- Generator: Adobe Illustrator 12.0.1, SVG Export Plug-In  -->

<svg
   xmlns:dc="http://purl.org/dc/elements/1.1/"
   xmlns:cc="http://creativecommons.org/ns#"
   xmlns:rdf="http://www.w3.org/1999/02/22-rdf-syntax-ns#"
   xmlns:svg="http://www.w3.org/2000/svg"
   xmlns="http://www.w3.org/2000/svg"
   xmlns:sodipodi="http://sodipodi.sourceforge.net/DTD/sodipodi-0.dtd"
   xmlns:inkscape="http://www.inkscape.org/namespaces/inkscape"
   version="1.1"
   width="285.99649"
   height="286.009"
   viewBox="0 0 285.99649 286.009"
   enable-background="new 0 0 288 288"
   xml:space="preserve"
   id="svg2"
   inkscape:version="0.48.2 r9819"
   sodipodi:docname="MUTCD W1-4L (temporary).svg"><metadata
   id="metadata18"><rdf:RDF><cc:Work
       rdf:about=""><dc:format>image/svg+xml</dc:format><dc:type
         rdf:resource="http://purl.org/dc/dcmitype/StillImage" /><dc:title></dc:title></cc:Work></rdf:RDF></metadata><sodipodi:namedview
   pagecolor="#ffffff"
   bordercolor="#666666"
   borderopacity="1"
   objecttolerance="10"
   gridtolerance="10"
   guidetolerance="10"
   inkscape:pageopacity="0"
   inkscape:pageshadow="2"
   inkscape:window-width="1280"
   inkscape:window-height="1004"
   id="namedview16"
   showgrid="false"
   fit-margin-top="0"
   fit-margin-left="0"
   fit-margin-right="0"
   fit-margin-bottom="0"
   inkscape:zoom="2.3177389"
   inkscape:cx="70.351283"
   inkscape:cy="158.39289"
   inkscape:window-x="-8"
   inkscape:window-y="-8"
   inkscape:window-maximized="1"
   inkscape:current-layer="svg2" />
<defs
   id="defs4">
</defs>
<path
   d="M 3.81675,133.7455 133.73475,3.8234989 c 5.098,-5.098 13.43,-5.098 18.527,0 L 282.17975,133.7455 c 5.089,5.094 5.089,13.425 0,18.523 l -129.918,129.917 c -5.097,5.098 -13.429,5.098 -18.527,0 L 3.81675,152.2685 c -5.089,-5.098 -5.089,-13.429 0,-18.523 z"
   id="path6"
   style="fill:#f4911d;fill-opacity:1;stroke:none"
   inkscape:connector-curvature="0" />

<path
   clip-rule="evenodd"
   d="M 6.29275,136.2155 136.21075,6.2984989 c 3.731,-3.733 9.845,-3.733 13.577,0 L 279.70575,136.2155 c 3.731,3.736 3.731,9.841 0,13.577 l -129.918,129.922 c -3.732,3.735 -9.845,3.735 -13.577,0 L 6.29275,149.7925 c -3.732,-3.735 -3.732,-9.84 0,-13.577"
   id="path10"
   inkscape:connector-curvature="0"
   style="fill:#000000;fill-rule:evenodd;stroke:none" />
<path
   clip-rule="evenodd"
   d="m 10.00875,139.9285 129.91,-129.920001 c 1.691,-1.6930001 4.461,-1.6930001 6.16,0 l 129.91,129.920001 c 1.691,1.691 1.691,4.46 0,6.152 l -129.91,129.921 c -1.699,1.691 -4.469,1.691 -6.16,0 l -129.91,-129.921 c -1.699,-1.691 -1.699,-4.46 0,-6.152"
   id="path12"
   style="fill:#f4911d;fill-opacity:1;fill-rule:evenodd;stroke:none"
   inkscape:connector-curvature="0" />
<path
   clip-rule="evenodd"
   d="m 183.15475,106.1255 v 4.934 c 0,13.166 -6.176,26.169 -16.711,34.148 l -41.126,31.146 c -3.305,2.507 -5.275,6.331 -5.275,10.467 v 30.137 h -30.304 v -30.137 c 0,-7.902 2.142,-15.781 6.3,-22.508 2.561,-4.158 5.779,-8.084 9.689,-11.052 l 41.84,-31.735 c 1.986,-1.509 3.623,-3.499 4.516,-5.846 0.574,-1.505 0.884,-3.123 0.884,-4.744 v -5.278 l -20.063,5.774 c -0.313,0.083 -0.636,0.12 -0.946,0.163 -1.42,0.192 -2.785,-0.19 -3.964,-1.004 -1.265,-0.873 -2.157,-2.225 -2.437,-3.73 -0.311,-1.664 -0.008,-3.222 0.962,-4.579 l 41.475,-58.302001 37.759,58.442001 c 0.605,0.933 0.97,2.12 0.962,3.237 0,2.848 -2.126,5.322 -4.88,5.902 -1.009,0.213 -1.979,0.06 -2.933,-0.25 l -15.748,-5.185"
   id="path14"
   inkscape:connector-curvature="0"
   style="fill:#000000;fill-rule:evenodd;stroke:none" />
</svg>