<?xml version="1.0" encoding="UTF-8" standalone="no"?>
<!-- Generator: Adobe Illustrator 12.0.1, SVG Export Plug-In  -->

<svg
   xmlns:dc="http://purl.org/dc/elements/1.1/"
   xmlns:cc="http://creativecommons.org/ns#"
   xmlns:rdf="http://www.w3.org/1999/02/22-rdf-syntax-ns#"
   xmlns:svg="http://www.w3.org/2000/svg"
   xmlns="http://www.w3.org/2000/svg"
   xmlns:sodipodi="http://sodipodi.sourceforge.net/DTD/sodipodi-0.dtd"
   xmlns:inkscape="http://www.inkscape.org/namespaces/inkscape"
   version="1.1"
   width="95.777"
   height="287.33499"
   viewBox="-0.455 -0.586 95.777 287.33499"
   enable-background="new -0.455 -0.586 97 289"
   xml:space="preserve"
   id="svg2"
   inkscape:version="0.48.2 r9819"
   sodipodi:docname="AJAX1.svg"><metadata
   id="metadata34"><rdf:RDF><cc:Work
       rdf:about=""><dc:format>image/svg+xml</dc:format><dc:type
         rdf:resource="http://purl.org/dc/dcmitype/StillImage" /><dc:title></dc:title></cc:Work></rdf:RDF></metadata><sodipodi:namedview
   pagecolor="#ffffff"
   bordercolor="#666666"
   borderopacity="1"
   objecttolerance="10"
   gridtolerance="10"
   guidetolerance="10"
   inkscape:pageopacity="0"
   inkscape:pageshadow="2"
   inkscape:window-width="1280"
   inkscape:window-height="1004"
   id="namedview32"
   showgrid="false"
   fit-margin-top="0"
   fit-margin-left="0"
   fit-margin-right="0"
   fit-margin-bottom="0"
   inkscape:zoom="3.266436"
   inkscape:cx="4.0942514"
   inkscape:cy="113.70161"
   inkscape:window-x="-8"
   inkscape:window-y="-8"
   inkscape:window-maximized="1"
   inkscape:current-layer="svg2" />
<defs
   id="defs4">
</defs>
<path
   clip-rule="evenodd"
   d="m 11.517,-0.58600009 h 71.832 c 6.594,0 11.973,5.37799999 11.973,11.97200009 v 263.391 c 0,6.594 -5.379,11.972 -11.973,11.972 H 11.517 c -6.594,0 -11.972,-5.378 -11.972,-11.972 V 11.386 c 0,-6.5950001 5.377,-11.97200009 11.972,-11.97200009 z"
   id="path6"
   style="fill:#ffd033;fill-rule:evenodd;stroke:none;fill-opacity:1"
   inkscape:connector-curvature="0" />

<path
   clip-rule="evenodd"
   d="m 15.507,51.335 h 63.851 c 4.397,0 7.981,3.585 7.981,7.98 v 175.599 c 0,4.396 -3.584,7.981 -7.981,7.981 H 15.507 c -4.396,0 -7.981,-3.586 -7.981,-7.981 V 59.315 c 0,-4.395 3.585,-7.98 7.981,-7.98"
   id="path10"
   inkscape:connector-curvature="0"
   style="fill-rule:evenodd;stroke:none;fill:#000000" />
<path
   clip-rule="evenodd"
   d="m 15.533,53.33 c 12.398,0 24.797,0 37.194,0 7.293,0 14.588,0 21.883,0 3.423,0 7.489,-0.635 9.71,2.647 1.273,1.882 1.023,4.155 1.023,6.309 0,3.91 0,7.818 0,11.728 0,14.018 0,28.037 0,42.057 0,17.464 0,34.93 0,52.392 0,15.121 0,30.244 0,45.365 0,6.984 0,13.971 0,20.957 0,3.845 -3.099,6.115 -6.695,6.115 -5.442,0 -10.886,0 -16.331,0 -14.934,0 -29.868,0 -44.803,0 -1.249,0 -2.573,0.106 -3.782,-0.27 -2.38,-0.746 -4.048,-2.937 -4.201,-5.409 -0.106,-1.707 -0.01,-3.447 -0.01,-5.152 0,-11.107 0,-22.214 0,-33.321 0,-16.814 0,-33.624 0,-50.429 0,-16.729 0,-33.449 0,-50.173 0,-10.845 0,-21.691 0,-32.538 0,-1.387 0,-2.774 0,-4.161 0,-3.33 2.65,-6.105 6.012,-6.117"
   id="path12"
   inkscape:connector-curvature="0"
   style="fill:#ffffff;fill-rule:evenodd;stroke:none" />
<path
   clip-rule="evenodd"
   d="M 76.885,23.39 H 67.077 V 7.4359999 h 9.309 v 2.519 H 69.572 V 13.873 h 4.599 v 2.574 h -4.599 v 4.367 h 7.313 V 23.39 M 64.749,9.6749999 H 61.094 V 23.39 H 58.6 V 9.6749999 h -3.602 v -2.239 h 9.751 v 2.239 z M 48.9,16.336 47.349,11.858 45.743,16.336 H 48.9 z m 5.101,7.054 H 51.34 L 49.789,18.911 H 44.855 L 43.302,23.39 H 40.644 L 46.075,7.4369999 h 2.492 L 54.001,23.39 z M 39.702,9.6749999 H 36.045 V 23.39 H 33.551 V 9.6749999 H 29.95 v -2.239 h 9.752 v 2.239 z M 28.674,18.799 c 0,1.53 -0.488,2.724 -1.468,3.582 -0.979,0.858 -2.153,1.288 -3.518,1.288 -2.697,0 -4.621,-1.343 -5.763,-4.03 l 2.383,-0.895 c 0.701,1.568 1.829,2.35 3.38,2.35 1.624,0 2.437,-0.782 2.437,-2.35 0,-0.896 -0.48,-1.604 -1.439,-2.127 -0.998,-0.374 -2.013,-0.766 -3.047,-1.176 -2.032,-0.858 -3.048,-2.182 -3.048,-3.974 0,-2.8740001 1.641,-4.3110001 4.932,-4.3110001 2.143,0 3.636,1.084 4.487,3.2460001 -0.886,0.299 -1.624,0.524 -2.216,0.674 -0.48,-0.933 -1.255,-1.4000001 -2.325,-1.4000001 -1.702,0 -2.513,0.6160001 -2.44,1.8470001 0.076,0.785 0.76,1.401 2.05,1.848 1.995,0.634 3.214,1.101 3.658,1.4 1.293,0.855 1.937,2.199 1.937,4.028 z"
   id="path14"
   inkscape:connector-curvature="0"
   style="fill-rule:evenodd;fill:#000000;stroke:none" />
<path
   clip-rule="evenodd"
   d="m 43.991,161.023 c 2.654,0 4.818,2.167 4.818,4.819 0,2.653 -2.164,4.817 -4.818,4.817 -2.652,0 -4.817,-2.164 -4.817,-4.817 0,-2.652 2.165,-4.819 4.817,-4.819"
   id="path16"
   inkscape:connector-curvature="0"
   style="fill-rule:evenodd;fill:#000000;stroke:none" />
<path
   clip-rule="evenodd"
   d="m 29.404,191.411 10.105,-6.742 c 0.468,-1.978 2.406,-10.743 6.294,-12.772 3.851,-2.546 18.048,7.914 18.13,7.998 v 15.263 l -3.079,-0.535 -1.203,-12.185 c -1.161,-0.231 -2.32,-0.466 -3.481,-0.699 2.536,6.558 3.466,12.874 2.009,17.033 l 6.157,25.16 -4.149,2.946 -8.969,-23.287 -4.149,4.414 -5.753,17.535 -5.489,-2.009 4.954,-18.47 5.753,-10.304 -2.206,-7.607 -2.345,3.054 -10.973,3.615 -1.606,-2.408"
   id="path18"
   inkscape:connector-curvature="0"
   style="fill-rule:evenodd;fill:#000000;stroke:none" />
<path
   clip-rule="evenodd"
   d="m 85.399,278.848 h -1.806 l -2.099,-5.838 -1.092,2.016 v 3.822 h -1.723 v -11.967 h 1.723 v 4.785 l 2.729,-4.785 h 1.975 l -2.479,4.198 2.772,7.769 m -8.4,0 h -6.087 v -11.967 h 1.72 v 10.371 h 4.367 v 1.596 z m -10.707,-4.955 -0.882,-3.442 -0.841,3.442 h 1.723 z m 2.981,4.955 h -1.72 l -0.842,-3.276 h -2.563 l -0.797,3.276 H 61.63 l 2.98,-11.967 h 1.681 l 2.982,11.967 z m -8.356,-11.967 -1.934,11.967 h -1.468 l -1.135,-6.256 -1.133,6.256 h -1.513 l -1.89,-11.967 h 1.682 l 1.008,6.381 1.175,-6.381 h 1.346 l 1.133,6.381 1.049,-6.381 h 1.68 z m -10.164,8.69 c 0,0.951 -0.322,1.77 -0.967,2.455 -0.644,0.687 -1.426,1.029 -2.351,1.029 -1.008,0 -1.82,-0.364 -2.434,-1.092 -0.616,-0.727 -0.925,-1.607 -0.925,-2.645 h 1.681 c 0,1.372 0.559,2.058 1.678,2.058 0.45,0 0.839,-0.182 1.177,-0.546 0.336,-0.363 0.504,-0.784 0.504,-1.26 0,-0.615 -0.322,-1.189 -0.966,-1.72 0.14,0.083 -0.532,-0.393 -2.016,-1.429 -0.979,-0.699 -1.471,-1.58 -1.471,-2.646 0,-0.867 0.295,-1.601 0.883,-2.203 0.587,-0.603 1.314,-0.904 2.183,-0.904 0.842,0 1.548,0.297 2.123,0.884 0.571,0.587 0.873,1.33 0.901,2.224 h -1.637 c -0.058,-0.922 -0.52,-1.385 -1.387,-1.385 -0.393,0 -0.728,0.133 -1.008,0.4 -0.278,0.265 -0.418,0.593 -0.418,0.984 0,0.533 0.377,1.009 1.133,1.43 2.211,1.288 3.317,2.742 3.317,4.366 z m -8.104,0 c 0,0.951 -0.322,1.77 -0.968,2.455 -0.643,0.687 -1.427,1.029 -2.35,1.029 -1.008,0 -1.821,-0.364 -2.436,-1.092 -0.616,-0.727 -0.925,-1.607 -0.925,-2.645 h 1.68 c 0,1.372 0.561,2.058 1.681,2.058 0.447,0 0.839,-0.182 1.174,-0.546 0.337,-0.363 0.504,-0.784 0.504,-1.26 0,-0.615 -0.323,-1.189 -0.964,-1.72 0.139,0.083 -0.533,-0.393 -2.016,-1.429 -0.981,-0.699 -1.469,-1.58 -1.469,-2.646 0,-0.867 0.293,-1.601 0.879,-2.203 0.59,-0.603 1.317,-0.904 2.185,-0.904 0.84,0 1.546,0.297 2.12,0.884 0.574,0.587 0.875,1.33 0.904,2.224 h -1.64 c -0.055,-0.922 -0.517,-1.385 -1.385,-1.385 -0.393,0 -0.728,0.133 -1.008,0.4 -0.28,0.265 -0.421,0.593 -0.421,0.984 0,0.533 0.379,1.009 1.136,1.43 2.212,1.288 3.319,2.742 3.319,4.366 z m -10.122,-2.727 c 0,-1.203 -0.127,-2.198 -0.381,-2.98 -0.305,-1.008 -0.796,-1.512 -1.466,-1.512 -0.728,0 -1.231,0.488 -1.512,1.468 -0.252,0.813 -0.379,1.834 -0.379,3.065 0,1.148 0.127,2.154 0.379,3.021 0.281,0.979 0.785,1.471 1.512,1.471 0.699,0 1.19,-0.491 1.466,-1.471 0.254,-0.839 0.381,-1.86 0.381,-3.062 z m 1.637,0 c 0,1.707 -0.224,3.092 -0.67,4.154 -0.561,1.371 -1.499,2.058 -2.813,2.058 -1.346,0 -2.297,-0.687 -2.857,-2.058 -0.448,-1.063 -0.671,-2.447 -0.671,-4.154 0,-1.736 0.223,-3.121 0.671,-4.157 0.589,-1.344 1.54,-2.017 2.857,-2.017 1.314,0 2.252,0.687 2.813,2.058 0.447,1.065 0.67,2.434 0.67,4.116 z m -10.499,-2.773 c 0,-1.006 -0.517,-1.51 -1.554,-1.51 h -1.763 v 3.021 h 1.763 c 1.037,0.001 1.554,-0.503 1.554,-1.511 z m 1.681,8.777 h -1.764 l -1.595,-5.628 h -1.638 v 5.628 h -1.72 v -11.967 h 3.568 c 0.951,0 1.715,0.288 2.289,0.862 0.574,0.571 0.86,1.349 0.86,2.328 0,1.483 -0.574,2.45 -1.723,2.896 l 1.723,5.881 z m -9.114,-8.777 h -1.72 c -0.141,-1.146 -0.616,-1.72 -1.431,-1.72 -0.697,0 -1.188,0.307 -1.469,0.922 -0.278,0.616 -0.418,1.707 -0.418,3.276 0,3.219 0.686,4.827 2.058,4.827 0.839,0 1.26,-0.574 1.26,-1.723 h 1.72 c -0.026,1.009 -0.322,1.827 -0.881,2.458 -0.561,0.629 -1.26,0.943 -2.099,0.943 -2.466,0 -3.697,-2.154 -3.697,-6.464 0,-3.947 1.19,-5.922 3.57,-5.922 1.008,0 1.793,0.408 2.352,1.219 0.391,0.506 0.643,1.233 0.755,2.184 z"
   id="path20"
   inkscape:connector-curvature="0"
   style="fill-rule:evenodd;fill:#000000;stroke:none" />
<path
   clip-rule="evenodd"
   d="M 67.347,29.365 64.998,45.318 H 62.759 L 60.238,35.073 57.775,45.318 h -2.238 l -2.35,-15.953 h 2.574 l 1.231,8.396 2.014,-8.396 h 2.463 l 2.071,8.396 1.231,-8.396 h 2.576 m -20.317,8.901 -1.566,-4.478 -1.625,4.478 h 3.191 z m 5.15,7.052 h -2.687 l -1.567,-4.479 h -4.982 l -1.569,4.479 h -2.688 l 5.487,-15.953 h 2.52 l 5.486,15.953 z m -14.442,0 H 27.831 V 29.365 h 2.519 v 13.602 h 7.388 v 2.351 z"
   id="path22"
   inkscape:connector-curvature="0"
   style="fill-rule:evenodd;fill:#000000;stroke:none" />
<path
   clip-rule="evenodd"
   d="M 68.592,260.879 H 67.29 l -3.694,-8.018 v 8.018 h -1.721 v -11.964 h 1.721 l 3.276,7.179 v -7.179 h 1.72 v 11.964 M 57.56,248.915 h 1.679 v 11.964 H 57.56 v -11.964 z m -2.609,11.964 h -1.723 v -5.414 h -3.273 v 5.414 h -1.72 v -11.964 h 1.72 v 4.871 h 3.273 v -4.871 h 1.723 v 11.964 z M 46.599,250.51 h -2.183 v 10.369 H 42.695 V 250.51 h -2.182 v -1.595 h 6.086 v 1.595 z m -9.478,-1.595 h 1.677 v 11.964 h -1.677 v -11.964 z m -1.645,0 -1.93,11.964 h -1.471 l -1.133,-6.253 -1.133,6.253 h -1.512 l -1.889,-11.964 h 1.681 l 1.005,6.381 1.177,-6.381 h 1.343 l 1.133,6.381 1.05,-6.381 h 1.679 z"
   id="path24"
   inkscape:connector-curvature="0"
   style="fill-rule:evenodd;fill:#000000;stroke:none" />
<path
   clip-rule="evenodd"
   d="m 59.714,142.411 c 0,-0.722 -0.349,-1.18 -1.042,-1.375 -0.166,-0.054 -0.429,-0.083 -0.79,-0.083 h -2.247 v 2.913 h 2.247 c 0.499,0 0.86,-0.067 1.081,-0.207 0.502,-0.251 0.751,-0.667 0.751,-1.248 m 2.12,8.532 h -2.037 l -1.915,-5.163 h -2.247 v 5.163 H 53.762 V 139.08 h 3.913 c 0.859,0 1.566,0.125 2.122,0.374 1.192,0.585 1.789,1.57 1.789,2.957 0,1.417 -0.61,2.414 -1.829,2.996 l 2.077,5.536 z m -12.557,-5.912 c 0,-1.416 -0.236,-2.525 -0.709,-3.33 -0.333,-0.583 -0.846,-0.886 -1.538,-0.916 -0.888,-0.054 -1.527,0.432 -1.915,1.458 -0.307,0.777 -0.458,1.707 -0.458,2.787 0,1.42 0.236,2.514 0.707,3.293 0.361,0.605 0.901,0.912 1.624,0.912 0.832,0 1.442,-0.499 1.829,-1.497 0.307,-0.747 0.46,-1.648 0.46,-2.707 z m 1.871,0 c 0,2.056 -0.429,3.651 -1.288,4.787 -0.641,0.888 -1.595,1.332 -2.871,1.332 -1.582,0 -2.72,-0.709 -3.413,-2.122 -0.556,-1.107 -0.832,-2.439 -0.832,-3.997 0,-2.052 0.429,-3.662 1.29,-4.826 0.665,-0.889 1.676,-1.333 3.037,-1.333 1.471,0 2.564,0.709 3.287,2.122 0.528,1.109 0.79,2.455 0.79,4.037 z m -9.911,-4.078 h -5.491 v 2.913 h 3.455 v 1.915 h -3.455 v 5.163 h -1.873 v -11.863 h 7.364 v 1.872 z"
   id="path26"
   inkscape:connector-curvature="0"
   style="fill-rule:evenodd;fill:#000000;stroke:none" />
<polyline
   clip-rule="evenodd"
   points="16.833,86.453 35.046,68.242 60.78,68.242 79.021,86.456   79.021,112.218 60.78,130.431 35.046,130.431 16.833,112.218 16.833,86.453 "
   id="polyline28"
   style="fill:#af1e2d;fill-rule:evenodd;stroke:none;fill-opacity:1"
   transform="translate(-0.788,-0.91900009)" />
<path
   clip-rule="evenodd"
   d="m 73.055,93.287 c 0,1.958 -0.979,3.087 -2.787,3.087 h -3.162 v -6.1 h 3.162 c 1.657,0 2.787,1.205 2.787,3.013 m 3.014,0 c 0,-3.616 -2.261,-6.024 -5.651,-6.024 h -6.401 v 21.464 h 3.089 v -9.415 h 3.313 c 3.615,-10e-4 5.65,-2.109 5.65,-6.025 z m -19.283,4.67 c 0,2.485 -0.151,3.766 -0.679,5.499 -0.527,1.807 -1.355,2.635 -2.637,2.635 -1.356,0 -2.183,-0.828 -2.71,-2.635 -0.452,-1.733 -0.678,-3.09 -0.678,-5.423 0,-2.412 0.15,-3.842 0.678,-5.5 0.527,-1.809 1.354,-2.637 2.71,-2.637 1.281,0 2.109,0.828 2.637,2.711 0.453,1.584 0.679,2.94 0.679,5.35 z m 2.939,0 c 0,-3.239 -0.301,-5.273 -1.206,-7.382 -1.055,-2.636 -2.562,-3.689 -5.048,-3.689 -2.483,0 -3.991,1.054 -5.121,3.613 -0.905,2.035 -1.206,4.219 -1.206,7.458 0,3.314 0.3,5.348 1.206,7.456 1.055,2.561 2.562,3.703 5.121,3.703 2.411,0 3.993,-1.143 5.048,-3.703 0.905,-2.032 1.206,-4.142 1.206,-7.456 z M 44.583,90.123 v -2.861 h -10.92 v 2.861 h 3.917 v 18.603 h 3.087 V 90.123 h 3.916 z m -12.879,12.729 c 0,-3.088 -1.808,-5.423 -5.95,-7.832 -1.582,-0.905 -2.034,-1.507 -2.034,-2.562 0,-1.432 1.13,-2.485 2.562,-2.485 1.354,0 2.409,0.978 2.484,2.485 h 2.938 c -0.075,-3.238 -2.411,-5.573 -5.422,-5.573 -3.089,0 -5.5,2.485 -5.5,5.573 0,1.883 0.904,3.539 2.637,4.745 4.367,2.937 3.162,2.108 3.614,2.561 1.281,0.98 1.733,1.883 1.733,3.088 0,1.732 -1.356,3.239 -3.011,3.239 -2.109,0 -3.014,-1.884 -3.014,-3.69 h -3.014 c 0,3.54 2.26,6.715 6.027,6.715 3.312,0 5.95,-2.798 5.95,-6.264 z"
   id="path30"
   inkscape:connector-curvature="0"
   style="fill:#ffffff;fill-rule:evenodd;stroke:none" />
</svg>