<?xml version="1.0" encoding="UTF-8" standalone="no"?>
<!-- Generator: Adobe Illustrator 12.0.1, SVG Export Plug-In  -->

<svg
   xmlns:dc="http://purl.org/dc/elements/1.1/"
   xmlns:cc="http://creativecommons.org/ns#"
   xmlns:rdf="http://www.w3.org/1999/02/22-rdf-syntax-ns#"
   xmlns:svg="http://www.w3.org/2000/svg"
   xmlns="http://www.w3.org/2000/svg"
   xmlns:sodipodi="http://sodipodi.sourceforge.net/DTD/sodipodi-0.dtd"
   xmlns:inkscape="http://www.inkscape.org/namespaces/inkscape"
   version="1.1"
   width="309.8125"
   height="124.8125"
   viewBox="-1 0 309.8125 124.8125"
   enable-background="new -1 0 289 288"
   xml:space="preserve"
   id="svg2"
   inkscape:version="0.48.2 r9819"
   sodipodi:docname="AJAX1.svg"><metadata
   id="metadata22"><rdf:RDF><cc:Work
       rdf:about=""><dc:format>image/svg+xml</dc:format><dc:type
         rdf:resource="http://purl.org/dc/dcmitype/StillImage" /><dc:title /></cc:Work></rdf:RDF></metadata><sodipodi:namedview
   pagecolor="#ffffff"
   bordercolor="#666666"
   borderopacity="1"
   objecttolerance="10"
   gridtolerance="10"
   guidetolerance="10"
   inkscape:pageopacity="0"
   inkscape:pageshadow="2"
   inkscape:window-width="1280"
   inkscape:window-height="1004"
   id="namedview20"
   showgrid="false"
   fit-margin-top="0"
   fit-margin-left="0"
   fit-margin-right="0"
   fit-margin-bottom="0"
   inkscape:zoom="1.1588695"
   inkscape:cx="148.35446"
   inkscape:cy="121.14918"
   inkscape:window-x="-8"
   inkscape:window-y="-8"
   inkscape:window-maximized="1"
   inkscape:current-layer="svg2"
   showguides="true"
   inkscape:guide-bbox="true"><sodipodi:guide
     orientation="0,1"
     position="-1129.3637,-3612.5991"
     id="guide2987" /></sodipodi:namedview>
<defs
   id="defs4">
</defs>







<path
   inkscape:connector-curvature="0"
   d="m 308.0495,104.79212 c 0,10.5975 -8.67,19.2675 -19.2675,19.2675 l -269.75,0 c -10.5975,0 -19.26875,-8.67001 -19.26875,-19.2675 l 0,-84.778765 c 0,-10.5975 8.67125,-19.2675 19.26875,-19.2675 l 269.75,0 c 10.5975,0 19.2675,8.67 19.2675,19.2675 l 0,84.778765 z"
   style="fill:#ffffff;fill-opacity:1;fill-rule:nonzero;stroke:#000000;stroke-width:1.5;stroke-miterlimit:4;stroke-opacity:1;stroke-dasharray:none"
   id="path4620" /><path
   inkscape:connector-curvature="0"
   d="m 288.7815,5.883735 -269.75,0 c -7.77125,0 -14.13,6.35875 -14.13,14.13 l 0,84.778755 c 0,7.77125 6.35875,14.13001 14.13,14.13001 l 269.75,0 c 7.77125,0 14.13,-6.35875 14.13,-14.13001 l 0,-84.778755 c 0,-7.77125 -6.35875,-14.13 -14.13,-14.13 m 6.4225,98.908755 c 0,3.53251 -2.89,6.4225 -6.4225,6.4225 l -269.75,0 c -3.5325,0 -6.4225,-2.88999 -6.4225,-6.4225 l 0,-84.778755 c 0,-3.5325 2.89,-6.4225 6.4225,-6.4225 l 269.75,0 c 3.5325,0 6.4225,2.89 6.4225,6.4225 l 0,84.778755 z"
   style="fill:#000000;fill-opacity:1;fill-rule:nonzero;stroke:none"
   id="path4628" /><path
   inkscape:connector-curvature="0"
   d="m 58.209751,82.956615 0,-41.1075 5.2375,0 0,36.3575 10.474999,0 0,4.75 -15.712499,0 z"
   style="fill:#000000;fill-opacity:1;fill-rule:nonzero;stroke:none"
   id="path4632" /><path
   inkscape:connector-curvature="0"
   d="m 79.7075,82.956615 0,-41.1075 15.16375,0 0,5.35875 -9.92625,0 0,10.53625 6.5775,0 0,5.48125 -6.5775,0 0,14.3725 10.475,0 0,5.35875 -15.7125,0 z"
   style="fill:#000000;fill-opacity:1;fill-rule:nonzero;stroke:none"
   id="path4636" /><path
   inkscape:connector-curvature="0"
   d="m 107.23437,47.208105 0,10.53625 6.02875,0 0,5.48 -6.02875,0 0,19.73251 -5.2375,0 0,-41.10751 15.7125,0 0,5.35875 -10.475,0 z"
   style="fill:#000000;fill-opacity:1;fill-rule:nonzero;stroke:none"
   id="path4640" /><path
   inkscape:connector-curvature="0"
   d="m 130.43739,47.208105 0,35.74876 -5.17625,0 0,-35.74876 -5.055,0 0,-5.35875 15.59,0 0,5.35875 -5.35875,0 z"
   style="fill:#000000;fill-opacity:1;fill-rule:nonzero;stroke:none"
   id="path4644" /><path
   inkscape:connector-curvature="0"
   d="m 160.93288,82.956615 0,-41.1075 5.2375,0 0,36.3575 10.475,0 0,4.75 -15.7125,0 z"
   style="fill:#000000;fill-opacity:1;fill-rule:nonzero;stroke:none"
   id="path4648" /><path
   inkscape:connector-curvature="0"
   d="m 195.88964,82.956615 -2.31375,-10.9625 -6.76,0 -2.315,10.9625 -5.35875,0 8.40375,-41.1075 5.29875,0 8.52625,41.1075 -5.48125,0 z m -5.6025,-27.1 -2.315,10.77875 4.44625,0 -2.13125,-10.77875 z"
   style="fill:#000000;fill-opacity:1;fill-rule:nonzero;stroke:none"
   id="path4652" /><path
   inkscape:connector-curvature="0"
   d="m 220.37175,82.956615 -8.03875,-24.36 0,24.36 -5.2375,0 0,-41.1075 5.2375,0 7.3075,20.4625 0,-20.4625 5.2375,0 0,41.1075 -4.50625,0 z"
   style="fill:#000000;fill-opacity:1;fill-rule:nonzero;stroke:none"
   id="path4656" /><path
   inkscape:connector-curvature="0"
   d="m 233.891,82.956615 0,-41.1075 15.16375,0 0,5.35875 -9.92625,0 0,10.53625 6.5775,0 0,5.48125 -6.5775,0 0,14.3725 10.475,0 0,5.35875 -15.7125,0 z"
   style="fill:#000000;fill-opacity:1;fill-rule:nonzero;stroke:none"
   id="path4660" /></svg>