<?xml version="1.0" encoding="UTF-8" standalone="no"?>
<!-- Created with Inkscape (http://www.inkscape.org/) -->

<svg
   xmlns:dc="http://purl.org/dc/elements/1.1/"
   xmlns:cc="http://creativecommons.org/ns#"
   xmlns:rdf="http://www.w3.org/1999/02/22-rdf-syntax-ns#"
   xmlns:svg="http://www.w3.org/2000/svg"
   xmlns="http://www.w3.org/2000/svg"
   xmlns:sodipodi="http://sodipodi.sourceforge.net/DTD/sodipodi-0.dtd"
   xmlns:inkscape="http://www.inkscape.org/namespaces/inkscape"
   width="4414.2979"
   height="4414.2983"
   id="svg2934"
   version="1.1"
   inkscape:version="0.48.2 r9819"
   sodipodi:docname="AJAX1.svg">
  <defs
     id="defs2936">
    <inkscape:perspective
       sodipodi:type="inkscape:persp3d"
       inkscape:vp_x="0 : 526.18109 : 1"
       inkscape:vp_y="0 : 1000 : 0"
       inkscape:vp_z="744.09448 : 526.18109 : 1"
       inkscape:persp3d-origin="372.04724 : 350.78739 : 1"
       id="perspective2942" />
    <inkscape:perspective
       id="perspective2924"
       inkscape:persp3d-origin="0.5 : 0.33333333 : 1"
       inkscape:vp_z="1 : 0.5 : 1"
       inkscape:vp_y="0 : 1000 : 0"
       inkscape:vp_x="0 : 0.5 : 1"
       sodipodi:type="inkscape:persp3d" />
  </defs>
  <sodipodi:namedview
     id="base"
     pagecolor="#ffffff"
     bordercolor="#666666"
     borderopacity="1.0"
     inkscape:pageopacity="0.0"
     inkscape:pageshadow="2"
     inkscape:zoom="0.086881158"
     inkscape:cx="2237.3357"
     inkscape:cy="2110.4849"
     inkscape:document-units="px"
     inkscape:current-layer="g2909"
     showgrid="false"
     inkscape:window-width="1280"
     inkscape:window-height="1004"
     inkscape:window-x="-8"
     inkscape:window-y="-8"
     inkscape:window-maximized="1"
     fit-margin-top="0"
     fit-margin-left="0"
     fit-margin-right="0"
     fit-margin-bottom="0" />
  <metadata
     id="metadata2939">
    <rdf:RDF>
      <cc:Work
         rdf:about="">
        <dc:format>image/svg+xml</dc:format>
        <dc:type
           rdf:resource="http://purl.org/dc/dcmitype/StillImage" />
        <dc:title></dc:title>
      </cc:Work>
    </rdf:RDF>
  </metadata>
  <g
     inkscape:label="Ebene 1"
     inkscape:groupmode="layer"
     id="layer1"
     transform="translate(-1801.7703,1643.4568)">
    <g
       id="g3018"
       transform="translate(2,-2)">
      <g
         id="g2909"
         transform="matrix(0.80835983,0,0,0.80835983,-165.10178,-177.02766)">
        <path
           inkscape:connector-curvature="0"
           style="fill:#f4911d;fill-rule:nonzero;stroke:none;fill-opacity:1"
           d="m 5338.2339,3575.8372 c -97.837,97.8216 -256.4452,97.8216 -354.2667,0 L 2504.0608,1095.9391 c -97.8287,-97.83695 -97.8271,-256.44525 0,-354.26675 L 4983.9672,-1738.2339 c 97.8215,-97.8288 256.4297,-97.8288 354.2667,0 L 7818.132,741.67235 c 97.8215,97.8215 97.8215,256.4298 0,354.26675 z"
           id="path11"
           sodipodi:nodetypes="csccccscc" />
        <path
           inkscape:connector-curvature="0"
           style="fill:#000000;fill-rule:nonzero;stroke:none"
           d="m 2553.266,1046.7296 c -70.5413,-70.54415 -70.5413,-185.31355 0,-255.85765 L 5033.1668,-1689.0288 c 70.5286,-70.5413 185.3135,-70.5413 255.8576,0 L 7768.9225,790.87195 c 70.5441,70.5441 70.5441,185.3135 0,255.85765 L 5289.0244,3526.6277 c -70.5441,70.5441 -185.329,70.5441 -255.8576,0 L 2553.266,1046.7296 z"
           id="path13" />
        <path
           inkscape:connector-curvature="0"
           style="fill:#f4911d;fill-rule:nonzero;stroke:none;fill-opacity:1"
           d="m 2622.1515,977.84185 c -32.5567,-32.5504 -32.5567,-85.5281 0,-118.0786 L 5102.0434,-1620.144 c 32.5659,-32.5567 85.5436,-32.5567 118.094,0 L 7700.0355,859.76325 c 32.5505,32.5505 32.5505,85.5282 0,118.0786 L 5220.1374,3457.74 c -32.5504,32.5505 -85.5281,32.5505 -118.094,0 L 2622.1515,977.84185 z"
           id="path15" />
        <path
           inkscape:connector-curvature="0"
           style="fill:#000000;fill-rule:nonzero;stroke:none"
           d="m 4362.7964,1976.6204 -39.1688,160.17 80.3015,0 -41.1327,-160.17 z m 99.8782,390.6522 -39.1688,-152.3455 -119.4549,0 -37.205,152.3455 -80.3014,0 139.0469,-556.6828 78.3377,0 139.0315,556.6828 -80.286,0 z"
           id="path17" />
        <path
           inkscape:connector-curvature="0"
           style="fill:#000000;fill-rule:nonzero;stroke:none"
           d="m 5565.6487,1976.6204 -39.1688,160.17 80.3015,0 -41.1327,-160.17 z m 99.8782,390.6522 -39.1688,-152.3455 -119.4549,0 -37.2049,152.3455 -80.3015,0 139.047,-556.6828 78.3376,0 139.0315,556.6828 -80.286,0 z"
           id="path19" />
        <path
           inkscape:connector-curvature="0"
           style="fill:#000000;fill-rule:nonzero;stroke:none"
           d="m 6042.0764,1945.3689 c -13.6542,-39.0606 -37.0349,-56.6425 -72.1213,-56.6425 l -66.2762,0 0,400.425 66.2762,0 c 46.7768,0 72.1213,-37.1122 79.9149,-80.085 3.8968,-35.1638 7.7935,-74.2244 7.7935,-117.1972 0,-62.5031 -5.8451,-123.0578 -15.5871,-146.5003 z m 13.6387,396.5128 c -19.4839,17.5819 -46.7768,25.3909 -77.9665,25.3909 l -154.0001,0 0,-556.6828 142.3098,0 c 46.7768,0 70.1729,5.8606 89.6568,21.4941 33.1381,23.4271 56.5343,66.3999 66.2762,123.0579 7.7936,41.0089 13.6387,89.8424 13.6387,132.8152 0,128.9185 -25.329,210.9518 -79.9149,253.9247 z"
           id="path21" />
        <path
           inkscape:connector-curvature="0"
           style="fill:#000000;fill-rule:nonzero;stroke:none"
           d="m 5055.2479,2367.2726 0,-556.6828 262.5069,0 0,78.1366 -182.1899,0 0,140.6397 115.589,0 0,76.1728 -115.589,0 0,183.6125 203.7304,0 0,78.1212 -284.0474,0 z"
           id="path23" />
        <path
           inkscape:connector-curvature="0"
           style="fill:#000000;fill-rule:nonzero;stroke:none"
           d="m 4852.8628,2367.2726 0,-251.9763 -152.0362,0 0,251.9763 -79.9304,0 0,-556.6828 79.9304,0 0,226.5853 152.0362,0 0,-226.5853 79.9149,0 0,556.6828 -79.9149,0 z"
           id="path25" />
        <path
           inkscape:connector-curvature="0"
           style="fill:#000000;fill-rule:nonzero;stroke:none"
           d="m 4869.5942,195.23555 -39.1688,160.17 80.286,0 -41.1172,-160.17 z m 99.8627,390.6521 -39.1688,-152.3455 -119.4548,0 -37.205,152.3455 -80.286,0 139.0315,-556.682699 78.3376,0 139.047,556.682699 -80.3015,0 z"
           id="path27" />
        <path
           inkscape:connector-curvature="0"
           style="fill:#000000;fill-rule:nonzero;stroke:none"
           d="m 6272.3884,177.65365 c -7.8399,-54.6941 -29.4268,-80.084999 -66.6936,-80.084999 -64.7299,0 -88.2652,50.781799 -88.2652,195.333799 0,160.17 27.463,224.6215 96.1206,224.6215 47.0706,0 58.8382,-39.0606 58.8382,-80.085 l 80.4252,0 c -1.9638,91.8063 -60.8021,158.2216 -139.2634,158.2216 -119.6559,0 -172.6181,-95.7185 -172.6181,-300.8097 0,-179.7003 56.8899,-275.403399 166.7265,-275.403399 45.1222,0 84.3529,19.5303 109.8521,56.6425 21.5714,27.339299 29.4114,50.781899 35.3029,101.563699 l -80.4252,0 z"
           id="path29" />
        <path
           inkscape:connector-curvature="0"
           style="fill:#000000;fill-rule:nonzero;stroke:none"
           d="m 5208.011,107.34155 0,140.6397 111.6613,0 0,76.1728 -111.6613,0 0,261.7336 -80.317,0 0,-556.682699 284.0474,0 0,78.136599 -203.7304,0 z"
           id="path31" />
        <path
           inkscape:connector-curvature="0"
           style="fill:#000000;fill-rule:nonzero;stroke:none"
           d="m 5569.9939,107.34155 0,140.6397 111.6613,0 0,76.1728 -111.6613,0 0,261.7336 -80.3169,0 0,-556.682699 284.0474,0 0,78.136599 -203.7305,0 z"
           id="path33" />
        <path
           inkscape:connector-curvature="0"
           style="fill:#000000;fill-rule:nonzero;stroke:none"
           d="m 5851.66,585.88765 0,-556.682699 77.9356,0 0,556.682699 -77.9356,0 z"
           id="path35" />
        <path
           inkscape:connector-curvature="0"
           style="fill:#000000;fill-rule:nonzero;stroke:none"
           d="m 4493.1375,107.34155 -81.8633,0 0,140.6397 81.8633,0 c 46.7923,0 72.1368,-25.4064 72.1368,-70.3276 0,-42.9728 -29.2413,-70.3121 -72.1368,-70.3121 z m 68.2246,478.5461 -74.0698,-261.7336 -76.0181,0 0,261.7336 -79.9149,0 0,-556.682699 165.6904,0 c 87.7085,0 146.1911,58.6063 146.1911,148.448699 0,66.4154 -27.2929,115.2488 -79.9149,134.7791 l 79.9149,273.4549 -81.8787,0 z"
           id="path37" />
        <path
           inkscape:connector-curvature="0"
           style="fill:#000000;fill-rule:nonzero;stroke:none"
           d="m 4151.5508,103.42925 0,482.4584 -80.3169,0 0,-482.4584 -101.8622,0 0,-74.224299 284.0521,0 0,74.224299 -101.873,0 z"
           id="path39" />
        <path
           inkscape:connector-curvature="0"
           style="fill:#000000;fill-rule:nonzero;stroke:none"
           d="m 4443.5154,1085.928 -39.1688,160.17 80.3015,0 -41.1327,-160.17 z m 99.8782,390.6521 -39.1688,-152.3455 -119.4549,0 -37.205,152.3455 -80.3014,0 139.0469,-556.68275 78.3377,0 139.0315,556.68275 -80.286,0 z"
           id="path41" />
        <path
           inkscape:connector-curvature="0"
           style="fill:#000000;fill-rule:nonzero;stroke:none"
           d="m 5336.5274,1476.5801 0,-556.68275 262.4914,0 0,78.1366 -182.1899,0 0,140.63965 115.589,0 0,76.1728 -115.589,0 0,183.6125 203.7304,0 0,78.1212 -284.0319,0 z"
           id="path43" />
        <path
           inkscape:connector-curvature="0"
           style="fill:#000000;fill-rule:nonzero;stroke:none"
           d="m 6373.179,1476.5801 -171.5357,-373.0702 0,373.0702 -79.9149,0 0,-556.68275 79.9149,0 152.0363,334.00965 0,-334.00965 79.9304,0 0,556.68275 -60.431,0 z"
           id="path45" />
        <path
           inkscape:connector-curvature="0"
           style="fill:#000000;fill-rule:nonzero;stroke:none"
           d="m 4050.3737,998.03395 -81.8756,0 0,158.22155 81.8756,0 c 46.7768,0 72.1214,-29.3031 72.1214,-80.085 0,-46.8849 -29.2413,-78.13655 -72.1214,-78.13655 z m 3.8968,234.39435 -85.7724,0 0,244.1518 -79.9165,0 0,-556.68275 165.6889,0 c 87.7085,0 146.1911,62.5031 146.1911,156.27315 0,101.5637 -52.6375,156.2578 -146.1911,156.2578 z"
           id="path47" />
        <path
           inkscape:connector-curvature="0"
           style="fill:#000000;fill-rule:nonzero;stroke:none"
           d="m 5876.989,998.03395 -81.8633,0 0,140.63965 81.8633,0 c 46.7923,0 72.1214,-25.3909 72.1214,-70.3275 0,-42.9728 -29.2413,-70.31215 -72.1214,-70.31215 z m 68.2246,478.54615 -74.0697,-261.7337 -76.0182,0 0,261.7337 -79.9149,0 0,-556.68275 165.675,0 c 87.7239,0 146.2066,58.6063 146.2066,148.44875 0,66.4153 -27.293,115.2488 -79.9304,134.779 l 79.9304,273.455 -81.8788,0 z"
           id="path49" />
        <path
           inkscape:connector-curvature="0"
           style="fill:#000000;fill-rule:nonzero;stroke:none"
           d="m 4839.2705,994.12175 0,482.45835 -80.317,0 0,-482.45835 -101.8729,0 0,-74.2244 284.0474,0 0,74.2244 -101.8575,0 z"
           id="path51" />
        <path
           inkscape:connector-curvature="0"
           style="fill:#000000;fill-rule:nonzero;stroke:none"
           d="m 5156.7188,994.12175 0,482.45835 -80.3169,0 0,-482.45835 -101.873,0 0,-74.2244 284.0474,0 0,74.2244 -101.8575,0 z"
           id="path53" />
        <path
           inkscape:connector-curvature="0"
           style="fill:#000000;fill-rule:nonzero;stroke:none"
           d="m 4999.5178,-304.80165 0,-556.6828 262.4914,0 0,78.132 -182.1744,0 0,140.6335 115.5735,0 0,76.179 -115.5735,0 0,183.6079 203.7304,0 0,78.1304 -284.0474,0 z"
           id="path55" />
        <path
           inkscape:connector-curvature="0"
           style="fill:#000000;fill-rule:nonzero;stroke:none"
           d="m 4816.6166,-304.80165 -171.5356,-373.0749 0,373.0749 -79.9149,0 0,-556.6828 79.9149,0 152.0362,334.0097 0,-334.0097 79.9304,0 0,556.6828 -60.431,0 z"
           id="path57" />
        <path
           inkscape:connector-curvature="0"
           style="fill:#000000;fill-rule:nonzero;stroke:none"
           d="m 5666.8568,-304.80165 -68.5957,0 -52.9158,-291.0369 -52.9158,291.0369 -70.575,0 -88.1879,-556.6828 78.3995,0 47.0397,296.8975 54.8797,-296.8975 62.7196,0 52.9158,296.8975 49.0035,-296.8975 78.3995,0 -90.1671,556.6828 z"
           id="path59" />
      </g>
    </g>
  </g>
</svg>
