<?xml version="1.0" encoding="UTF-8" standalone="no"?>
<!-- Generator: Adobe Illustrator 14.0.0, SVG Export Plug-In  -->

<svg
   version="1.1"
   x="0px"
   y="0px"
   width="108.95812"
   height="108.94391"
   viewBox="0 -0.321 108.95811 108.94394"
   enable-background="new 0 -0.321 144 120"
   xml:space="preserve"
   id="svg2"
   inkscape:version="1.2.1 (9c6d41e410, 2022-07-14)"
   sodipodi:docname="MUTCD_W20-2.svg"
   xmlns:inkscape="http://www.inkscape.org/namespaces/inkscape"
   xmlns:sodipodi="http://sodipodi.sourceforge.net/DTD/sodipodi-0.dtd"
   xmlns="http://www.w3.org/2000/svg"
   xmlns:svg="http://www.w3.org/2000/svg"
   xmlns:rdf="http://www.w3.org/1999/02/22-rdf-syntax-ns#"
   xmlns:cc="http://creativecommons.org/ns#"
   xmlns:dc="http://purl.org/dc/elements/1.1/"><metadata
   id="metadata44"><rdf:RDF><cc:Work
       rdf:about=""><dc:format>image/svg+xml</dc:format><dc:type
         rdf:resource="http://purl.org/dc/dcmitype/StillImage" /></cc:Work></rdf:RDF></metadata><sodipodi:namedview
   pagecolor="#ffffff"
   bordercolor="#666666"
   borderopacity="1"
   objecttolerance="10"
   gridtolerance="10"
   guidetolerance="10"
   inkscape:pageopacity="0"
   inkscape:pageshadow="2"
   inkscape:window-width="1920"
   inkscape:window-height="1017"
   id="namedview42"
   showgrid="false"
   fit-margin-top="0"
   fit-margin-left="0"
   fit-margin-right="0"
   fit-margin-bottom="0"
   inkscape:zoom="5.3605324"
   inkscape:cx="44.398575"
   inkscape:cy="43.65238"
   inkscape:window-x="-8"
   inkscape:window-y="1144"
   inkscape:window-maximized="1"
   inkscape:current-layer="svg2"
   inkscape:showpageshadow="2"
   inkscape:pagecheckerboard="0"
   inkscape:deskcolor="#d1d1d1" />
<defs
   id="defs4">
</defs>


















<path
   inkscape:connector-curvature="0"
   d="M 51.560314,107.43231 1.2065487,57.078548 c -1.60874999,-1.60875 -1.60874999,-4.231251 0,-5.840002 L 51.557814,0.88728241 c 1.60875,-1.610001 4.233751,-1.611251 5.842501,-0.0025 L 107.75158,51.241046 c 1.60875,1.608751 1.60875,4.230002 0,5.838752 L 57.400315,107.43231 c -1.58875,1.58625 -4.250001,1.58875 -5.840001,0"
   style="fill:#f4911d;fill-opacity:1;fill-rule:nonzero;stroke:none"
   id="path6980" /><path
   inkscape:connector-curvature="0"
   d="M 52.361563,106.61219 2.0265487,56.278428 c -1.15749999,-1.160001 -1.15499999,-3.078751 0,-4.238751 L 52.359063,1.7071624 c 1.16,-1.15874999 3.076251,-1.15624999 4.240001,0 L 106.92908,52.042177 c 1.1575,1.16 1.16,3.075 0,4.236251 L 56.599064,106.61219 c -1.16125,1.1525 -3.078751,1.15625 -4.237501,0"
   style="fill:#000000;fill-opacity:1;fill-rule:evenodd;stroke:none"
   id="path6984" /><path
   inkscape:connector-curvature="0"
   d="M 53.481563,105.46231 3.1765487,55.157297 c -0.55625,-0.53875 -0.55625,-1.4575 0,-1.99625 L 53.481563,2.8572824 c 0.5375,-0.55625 1.455001,-0.55625 1.995001,0 L 105.78158,53.161047 c 0.55625,0.54 0.55625,1.45875 -0.002,1.99875 L 55.479064,105.46231 c -0.54,0.55625 -1.457501,0.55625 -1.997501,0"
   style="fill:#f4911d;fill-opacity:1;fill-rule:evenodd;stroke:none"
   id="path6988" /><path
   d="m 84.295312,42.213665 c 0,0.55625 -0.3225,1.11375 -0.835,1.39125 -0.3275,0.18625 -0.55625,0.235 -1.208751,0.235 l -2.5075,0 0,-3.252501 2.5075,0 c 0.698751,0 0.881251,0.04625 1.208751,0.2325 0.5125,0.277501 0.835,0.835001 0.835,1.393751 m 2.367501,9.518753 -2.321251,-6.176252 c 1.20875,-0.55625 2.043751,-1.951251 2.043751,-3.342501 0,-1.347501 -0.835001,-2.741251 -1.997501,-3.298751 -0.64875,-0.32375 -1.345,-0.42 -2.367501,-0.42 l -4.366251,0 0,13.237504 2.090001,0 0,-5.758752 2.5075,0 2.136251,5.758752 2.275001,0 z m -12.121254,-4.736252 0,-8.501252 -2.09,0 0,8.501252 c 0,1.718751 -0.973751,2.832501 -2.413751,2.832501 -1.43875,0 -2.412501,-1.11375 -2.412501,-2.832501 l 0,-8.501252 -2.0925,0 0,8.501252 c 0,1.021251 0.2325,1.951251 0.60375,2.740001 0.6975,1.301251 2.275,2.236251 3.901251,2.236251 1.625,0 3.205001,-0.935 3.901251,-2.236251 0.37125,-0.78875 0.6025,-1.71875 0.6025,-2.740001 m -13.977504,-1.8575 c 0,1.0225 -0.2325,2.32125 -0.51,3.017501 -0.46625,1.1625 -1.07,1.6725 -2.046251,1.6725 -0.835,0 -1.39125,-0.325 -1.80875,-1.02125 -0.5125,-0.8375 -0.79125,-2.277501 -0.79125,-3.668751 0,-1.116251 0.185,-2.322501 0.5125,-3.112501 0.46125,-1.160001 1.11375,-1.670001 2.13375,-1.626251 0.791251,0.04875 1.301251,0.32625 1.718751,1.022501 0.5125,0.88125 0.79125,2.22875 0.79125,3.716251 m 2.088751,0 c 0,-1.672501 -0.32375,-3.342501 -0.8825,-4.505002 -0.835001,-1.62625 -1.997501,-2.3675 -3.667501,-2.3675 -1.532501,0 -2.602501,0.46375 -3.391251,1.48625 -0.883751,1.252501 -1.440001,3.203751 -1.440001,5.386252 0,1.58 0.37125,3.345001 0.9275,4.457501 0.791251,1.626251 1.951251,2.376251 3.808751,2.376251 1.393751,0 2.461251,-0.47125 3.206251,-1.495 0.927501,-1.158751 1.438751,-3.248752 1.438751,-5.338752 m -11.053753,-4.782502 0,-1.86125 -8.173753,0 0,1.86125 3.020001,0 0,11.376254 2.087501,0 0,-11.376254 3.066251,0 z m -9.193753,11.376254 0,-2.136251 -6.133752,0 0,-3.622501 3.857501,0 0,-2.133751 -3.857501,0 0,-3.252501 5.713752,0 0,-2.0925 -7.800002,0 0,13.237504 8.220002,0 z M 29.167797,45.092416 c 0,1.765 -0.4175,3.202501 -1.206251,3.993751 -0.37125,0.37125 -0.79125,0.51 -1.48625,0.51 l -2.090001,0 0,-9.008753 2.367501,0 c 0.55875,0 1.02125,0.2325 1.345,0.557501 0.652501,0.695 1.070001,2.1825 1.070001,3.947501 m 2.13625,0 c 0,-2.600001 -0.78875,-4.692502 -2.1825,-5.898752 -0.696251,-0.55625 -1.206251,-0.69875 -2.553751,-0.69875 l -4.272501,0 0,13.237504 4.040001,0 0.7425,0 c 0.69625,-0.04625 1.39375,-0.2775 1.903751,-0.7425 1.4875,-1.161251 2.3225,-3.251252 2.3225,-5.897502"
   style="fill:#000000;fill-opacity:1;fill-rule:evenodd;stroke:none"
   id="path7048"
   inkscape:connector-curvature="0" /><path
   d="m 78.102854,65.899895 c 0,1.763934 -0.387514,3.201904 -1.126117,3.987956 C 76.63147,70.259043 76.2425,70.3994 75.589847,70.3994 h -1.946305 v -8.995892 h 2.205619 c 0.522997,0 0.955677,0.232383 1.257236,0.558342 0.608943,0.694035 0.996457,2.177234 0.996457,3.938045 m 1.994381,0 c 0,-2.595209 -0.73715,-4.681982 -2.036632,-5.88757 -0.649741,-0.555224 -1.124664,-0.69559 -2.381891,-0.69559 H 71.69578 v 13.217796 h 3.765866 0.691987 c 0.651192,-0.0483 1.300933,-0.28074 1.775858,-0.743946 1.385438,-1.160364 2.167744,-3.24713 2.167744,-5.89069 m -14.252023,0.789173 h -2.466386 l 1.254315,-3.71034 z m 3.985846,5.845463 -4.24516,-13.217796 h -1.949219 l -4.245158,13.217796 h 2.080332 l 1.21207,-3.710345 h 3.854734 l 1.213524,3.710345 z m -11.389381,0 V 70.3994 h -5.716539 v -3.616756 h 3.591047 V 64.64752 h -3.591047 v -3.244012 h 5.326112 v -2.086773 h -7.275331 v 13.217796 z m -10.567736,0 V 59.316735 h -1.95213 v 5.330785 h -4.501558 v -5.330785 h -1.952134 v 13.217796 h 1.952134 v -5.751887 h 4.501558 v 5.751887 z M 33.621923,66.689068 h -2.470759 l 1.258687,-3.71034 z m 3.98293,5.845463 -4.242244,-13.217796 h -1.952133 l -4.242245,13.217796 h 2.080334 l 1.212068,-3.710345 h 3.851817 l 1.212072,3.710345 z"
   style="fill:#000000;fill-opacity:1;fill-rule:evenodd;stroke:none;stroke-width:1.20587"
   id="path5926"
   inkscape:connector-curvature="0" /></svg>
