<?xml version="1.0" encoding="UTF-8" standalone="no"?>
<svg
   xmlns:dc="http://purl.org/dc/elements/1.1/"
   xmlns:cc="http://creativecommons.org/ns#"
   xmlns:rdf="http://www.w3.org/1999/02/22-rdf-syntax-ns#"
   xmlns:svg="http://www.w3.org/2000/svg"
   xmlns="http://www.w3.org/2000/svg"
   xmlns:sodipodi="http://sodipodi.sourceforge.net/DTD/sodipodi-0.dtd"
   xmlns:inkscape="http://www.inkscape.org/namespaces/inkscape"
   width="342.32812"
   height="503.96875"
   viewBox="0 0 273.86249 403.175"
   version="1.1"
   id="svg2"
   inkscape:version="0.48.4 r9939"
   sodipodi:docname="AJAX1.svg">
  <metadata
     id="metadata31">
    <rdf:RDF>
      <cc:Work
         rdf:about="">
        <dc:format>image/svg+xml</dc:format>
        <dc:type
           rdf:resource="http://purl.org/dc/dcmitype/StillImage" />
      </cc:Work>
    </rdf:RDF>
  </metadata>
  <defs
     id="defs29" />
  <sodipodi:namedview
     pagecolor="#ffffff"
     bordercolor="#666666"
     borderopacity="1"
     objecttolerance="10"
     gridtolerance="10"
     guidetolerance="10"
     inkscape:pageopacity="0"
     inkscape:pageshadow="2"
     inkscape:window-width="1280"
     inkscape:window-height="1004"
     id="namedview27"
     showgrid="false"
     fit-margin-top="0.5"
     fit-margin-left="0.5"
     fit-margin-right="0.5"
     fit-margin-bottom="0.5"
     inkscape:zoom="0.70380443"
     inkscape:cx="206.93192"
     inkscape:cy="147.2329"
     inkscape:window-x="-8"
     inkscape:window-y="-8"
     inkscape:window-maximized="1"
     inkscape:current-layer="svg2" />
  <path
     inkscape:connector-curvature="0"
     d="m 1.8181498,229.38099 92.4490042,-92.449 -92.4490042,-92.449 42.6690042,-42.669 92.449096,92.449 92.449,-92.449 42.669,42.669 -92.449,92.449 92.449,92.449 -42.669,42.669 -92.449,-92.449 -92.449096,92.449 z M 40.387154,401.766 l 0,-64.366 64.367096,0 0,-64.36601 64.365,0 0,64.36601 64.366,0 0,64.366 z"
     style="fill:#ffffff;stroke:#000000;stroke-width:2;stroke-miterlimit:4;stroke-opacity:1;stroke-dasharray:none"
     id="path3239"
     sodipodi:nodetypes="cccccccccccccccccccccc" />
  <path
     inkscape:connector-curvature="0"
     d="m 34.601154,58.35899 6.896,-15.205 c 3.157,1.164 7.145,0.167 9.637,-2.326 2.411,-2.409 3.407,-6.397 2.327,-9.471 -0.581,-1.745 -1.662,-3.158 -3.49,-4.985 l -7.809,-7.81 -23.68,23.679 3.739,3.739 10.302,-10.303 4.487,4.487 -6.48,14.124 4.071,4.071 z m 12.795,-21.27 c -0.998,0.998 -2.576,1.413 -3.988,0.998 -0.914,-0.25 -1.412,-0.582 -2.576,-1.745 l -4.487,-4.487 5.817,-5.816 4.486,4.487 c 1.246,1.246 1.496,1.662 1.744,2.575 0.416,1.413 0,2.991 -0.996,3.988"
     style="fill:#000000;fill-opacity:1;fill-rule:nonzero;stroke:none"
     id="path3143" />
  <path
     inkscape:connector-curvature="0"
     d="m 62.857154,86.61599 15.537,-31.821 -3.739,-3.739 -31.821,15.536 3.988,3.988 8.973,-4.32 7.394,7.394 -4.32,8.974 3.988,3.988 z m 2.824,-18.112 -4.734,-4.736 9.056,-4.238 -4.322,8.974 z"
     style="fill:#000000;fill-opacity:1;fill-rule:nonzero;stroke:none"
     id="path3147" />
  <path
     inkscape:connector-curvature="0"
     d="m 76.657154,100.41599 23.679096,-23.679 -3.822096,-3.822 -23.678,23.679 3.821,3.822 z"
     style="fill:#000000;fill-opacity:1;fill-rule:nonzero;stroke:none"
     id="path3151" />
  <path
     inkscape:connector-curvature="0"
     d="m 103.33525,127.09299 3.489,-3.489 -10.967096,-10.967 20.190096,-20.19 -3.739,-3.738 -23.679096,23.678 14.706096,14.706 z"
     style="fill:#000000;fill-opacity:1;fill-rule:nonzero;stroke:none"
     id="path3155" />
  <path
     inkscape:connector-curvature="0"
     d="m 162.61925,186.37799 6.896,-15.205 c 3.157,1.163 7.145,0.166 9.638,-2.327 2.409,-2.409 3.406,-6.397 2.326,-9.471 -0.582,-1.745 -1.662,-3.157 -3.49,-4.985 l -7.81,-7.81 -23.678,23.679 3.738,3.739 10.303,-10.303 4.486,4.487 -6.48,14.124 4.071,4.072 z m 12.795,-21.27 c -0.997,0.997 -2.575,1.412 -3.989,0.997 -0.914,-0.249 -1.412,-0.582 -2.575,-1.745 l -4.486,-4.486 5.815,-5.816 4.487,4.486 c 1.247,1.247 1.496,1.662 1.745,2.576 0.415,1.412 0,2.991 -0.997,3.988"
     style="fill:#000000;fill-opacity:1;fill-rule:nonzero;stroke:none"
     id="path3159" />
  <path
     inkscape:connector-curvature="0"
     d="m 196.80325,196.96599 c 2.992,-2.99 5.401,-6.563 6.481,-9.637 1.413,-4.404 0.665,-7.81 -2.326,-10.801 -2.742,-2.742 -5.484,-3.822 -8.724,-3.407 -3.822,0.665 -8.309,3.157 -12.213,7.063 -2.825,2.824 -5.317,6.646 -6.314,9.637 -1.496,4.321 -0.748,7.727 2.575,11.051 2.492,2.492 5.234,3.572 8.392,3.073 3.738,-0.415 8.391,-3.24 12.129,-6.979 m -3.738,-3.738 c -1.828,1.828 -4.57,3.738 -6.314,4.486 -2.909,1.247 -4.903,1.081 -6.647,-0.665 -1.496,-1.495 -1.911,-3.073 -1.413,-5.067 0.582,-2.41 2.659,-5.484 5.151,-7.977 1.995,-1.994 4.487,-3.821 6.481,-4.652 2.908,-1.246 4.985,-0.997 6.73,0.914 1.329,1.495 1.745,2.907 1.246,4.902 -0.665,2.492 -2.576,5.4 -5.234,8.059"
     style="fill:#000000;fill-opacity:1;fill-rule:nonzero;stroke:none"
     id="path3163" />
  <path
     inkscape:connector-curvature="0"
     d="m 210.30125,234.05999 15.537,-31.822 -3.739,-3.738 -31.821,15.536 3.988,3.989 8.973,-4.321 7.394,7.394 -4.32,8.973 3.988,3.989 z m 2.825,-18.113 -4.736,-4.735 9.056,-4.238 -4.32,8.973 z"
     style="fill:#000000;fill-opacity:1;fill-rule:nonzero;stroke:none"
     id="path3167" />
  <path
     inkscape:connector-curvature="0"
     d="m 244.07125,244.06699 c 4.652,-4.652 6.979,-9.804 6.646,-14.457 -0.249,-2.243 -0.914,-3.406 -3.323,-5.815 l -7.643,-7.644 -23.679,23.679 7.228,7.228 c 0.582,0.582 1.081,1.08 1.33,1.329 1.329,1.164 2.991,1.994 4.735,2.077 4.736,0.582 9.971,-1.661 14.706,-6.397 m -3.822,-3.822 c -3.157,3.157 -6.481,4.985 -9.305,4.985 -1.33,0 -2.326,-0.498 -3.573,-1.745 l -3.739,-3.738 16.119,-16.118 4.237,4.237 c 0.997,0.997 1.412,2.243 1.412,3.406 -0.083,2.41 -1.994,5.816 -5.151,8.973"
     style="fill:#000000;fill-opacity:1;fill-rule:nonzero;stroke:none"
     id="path3171" />
  <path
     inkscape:connector-curvature="0"
     d="m 53.608154,234.47799 -4.901,2.243 c 0.996,2.825 0.664,4.819 -0.914,6.397 -1.662,1.662 -3.325,2.16 -5.401,1.745 -2.41,-0.582 -5.566,-2.575 -8.142,-5.151 -1.994,-1.994 -3.739,-4.404 -4.571,-6.397 -1.246,-2.909 -0.83,-4.986 1.08,-6.896 1.829,-1.829 3.075,-2.078 6.399,-1.413 l 1.994,-4.985 c -4.902,-1.745 -8.641,-0.997 -12.214,2.575 -2.659,2.659 -3.739,5.567 -3.407,8.724 0.416,3.739 3.158,8.475 6.896,12.214 2.992,2.991 6.647,5.317 9.805,6.314 4.402,1.412 7.976,0.499 11.465,-2.991 3.406,-3.406 3.988,-7.478 1.911,-12.379"
     style="fill:#000000;fill-opacity:1;fill-rule:nonzero;stroke:none"
     id="path3175" />
  <path
     inkscape:connector-curvature="0"
     d="m 89.297154,208.42699 -15.206,-6.896 c 1.165,-3.157 0.167,-7.145 -2.326,-9.637 -2.409,-2.41 -6.396,-3.407 -9.47,-2.327 -1.746,0.582 -3.159,1.662 -4.986,3.49 l -7.809,7.81 23.678,23.679 3.74,-3.739 -10.303,-10.303 4.486,-4.486 14.124,6.48 4.072,-4.071 z m -21.27,-12.795 c 0.997,0.997 1.412,2.576 0.997,3.988 -0.249,0.914 -0.581,1.413 -1.745,2.576 l -4.486,4.486 -5.817,-5.815 4.488,-4.487 c 1.246,-1.246 1.661,-1.496 2.575,-1.745 1.412,-0.415 2.991,0 3.988,0.997"
     style="fill:#000000;fill-opacity:1;fill-rule:nonzero;stroke:none"
     id="path3179" />
  <path
     inkscape:connector-curvature="0"
     d="m 107.28925,166.83999 c -2.992,-2.991 -6.565,-5.401 -9.639096,-6.481 -4.403,-1.412 -7.81,-0.665 -10.801,2.327 -2.742,2.741 -3.822,5.483 -3.406,8.723 0.664,3.822 3.157,8.309 7.063,12.214 2.824,2.825 6.646,5.317 9.635996,6.314 4.3211,1.496 7.7281,0.748 11.0511,-2.576 2.492,-2.492 3.572,-5.234 3.074,-8.391 -0.416,-3.739 -3.24,-8.391 -6.978,-12.13 m -3.74,3.739 c 1.828,1.827 3.74,4.569 4.487,6.314 1.246,2.908 1.08,4.902 -0.665,6.647 -1.495,1.495 -3.074,1.911 -5.069,1.412 -2.408096,-0.581 -5.482096,-2.658 -7.975096,-5.151 -1.994,-1.994 -3.821,-4.487 -4.653,-6.481 -1.247,-2.908 -0.997,-4.984 0.914,-6.73 1.496,-1.329 2.908,-1.744 4.902,-1.246 2.492,0.665 5.400096,2.576 8.059096,5.235"
     style="fill:#000000;fill-opacity:1;fill-rule:nonzero;stroke:none"
     id="path3183" />
  <path
     inkscape:connector-curvature="0"
     d="m 141.48025,142.61799 c -9.305,-9.306 -17.531,4.735 -22.265,0.664 -2.328,-1.994 -0.915,-4.736 0.913,-6.397 2.741,-2.576 5.567,-1.413 5.567,-1.413 l 2.326,-4.32 c -4.072,-1.745 -8.225,-1.413 -11.549,1.911 -4.238,4.237 -5.65,9.139 -0.998,13.792 3.907,3.905 8.475,2.16 10.469,1.329 4.32,-1.828 8.475,-4.985 11.633,-1.828 1.994,1.994 1.994,4.985 -0.166,7.146 -2.244,2.243 -5.319,2.824 -8.559,1.578 l -2.242,4.902 c 5.15,1.994 10.551,1.413 14.622,-2.659 1.994,-1.994 3.157,-4.486 3.323,-6.979 0.167,-2.824 -0.913,-5.566 -3.074,-7.726"
     style="fill:#000000;fill-opacity:1;fill-rule:nonzero;stroke:none"
     id="path3187" />
  <path
     inkscape:connector-curvature="0"
     d="m 169.44225,114.65599 c -9.306,-9.305 -17.53,4.736 -22.267,0.665 -2.326,-1.994 -0.914,-4.736 0.915,-6.398 2.742,-2.576 5.566,-1.412 5.566,-1.412 l 2.326,-4.32 c -4.07,-1.746 -8.225,-1.413 -11.548,1.91 -4.237,4.237 -5.65,9.139 -0.997,13.792 3.904,3.905 8.475,2.16 10.469,1.33 4.32,-1.828 8.475,-4.986 11.631,-1.828 1.994,1.994 1.994,4.985 -0.166,7.145 -2.243,2.243 -5.318,2.825 -8.558,1.579 l -2.243,4.902 c 5.151,1.994 10.552,1.412 14.623,-2.659 1.994,-1.994 3.157,-4.487 3.323,-6.979 0.166,-2.825 -0.914,-5.567 -3.074,-7.727"
     style="fill:#000000;fill-opacity:1;fill-rule:nonzero;stroke:none"
     id="path3191" />
  <path
     inkscape:connector-curvature="0"
     d="m 193.58225,104.14199 -23.68,-23.679 -3.821,3.822 23.678,23.679 3.823,-3.822 z"
     style="fill:#000000;fill-opacity:1;fill-rule:nonzero;stroke:none"
     id="path3195" />
  <path
     inkscape:connector-curvature="0"
     d="m 224.86625,72.85799 -23.679,-23.679 -3.739,3.739 15.122,15.121 -23.763,-6.48 -3.738,3.738 23.679,23.679 3.738,-3.739 -16.035,-16.035 25.092,6.979 3.323,-3.323 z"
     style="fill:#000000;fill-opacity:1;fill-rule:nonzero;stroke:none"
     id="path3199" />
  <path
     inkscape:connector-curvature="0"
     d="m 248.59025,35.00899 -4.736,-4.735 -8.058,8.059 3.738,3.739 4.32,-4.32 0.997,0.997 c 2.16,2.16 1.911,5.4 -0.498,7.809 -1.413,1.413 -3.074,1.911 -5.151,1.33 -2.243,-0.748 -5.152,-2.825 -7.644,-5.318 -1.994,-1.994 -3.822,-4.486 -4.653,-6.481 -1.246,-2.907 -0.831,-4.984 1.08,-6.895 1.828,-1.828 3.573,-2.077 6.647,-0.997 l 2.161,-4.985 c -5.318,-2.161 -8.974,-1.496 -12.629,2.16 -2.659,2.658 -3.74,5.567 -3.407,8.724 0.499,3.656 3.157,8.474 6.979,12.296 2.908,2.908 6.397,5.235 9.472,6.315 4.403,1.578 7.809,0.83 11.382,-2.743 4.321,-4.32 4.321,-10.634 0,-14.955"
     style="fill:#000000;fill-opacity:1;fill-rule:nonzero;stroke:none"
     id="path3203" />
  <path
     inkscape:connector-curvature="0"
     d="m 85.197154,359.508 0,-4.013 -17.658,0 0,4.013 6.521,0 0,24.58 4.515,0 0,-24.58 6.622,0 z"
     style="fill:#000000;fill-opacity:1;fill-rule:nonzero;stroke:none"
     id="path3207" />
  <path
     inkscape:connector-curvature="0"
     d="m 108.87425,384.088 -5.017,-13.343 c 2.608,-1.204 4.414,-4.214 4.414,-7.224 0,-2.909 -1.806,-5.919 -4.313,-7.123 -1.406,-0.702 -2.909,-0.903 -5.117096,-0.903 l -9.431,0 0,28.593 4.515,0 0,-12.44 5.417,0 4.616096,12.44 4.916,0 z m -5.117,-20.567 c 0,1.204 -0.703,2.408 -1.806,3.01 -0.702,0.401 -1.203,0.502 -2.609096,0.502 l -5.417,0 0,-7.024 5.417,0 c 1.505096,0 1.907096,0.101 2.609096,0.502 1.103,0.602 1.806,1.806 1.806,3.01"
     style="fill:#000000;fill-opacity:1;fill-rule:nonzero;stroke:none"
     id="path3211" />
  <path
     inkscape:connector-curvature="0"
     d="m 135.25925,384.088 -9.832,-28.593 -4.513,0 -9.832,28.593 4.814,0 2.81,-8.026 8.928,0 2.81,8.026 4.815,0 z m -9.23,-12.641 -5.718,0 2.909,-8.026 2.809,8.026 z"
     style="fill:#000000;fill-opacity:1;fill-rule:nonzero;stroke:none"
     id="path3215" />
  <path
     inkscape:connector-curvature="0"
     d="m 158.43525,378.269 -4.314,-1.605 c -1.104,2.307 -2.508,3.31 -4.414,3.31 -2.007,0 -3.311,-0.702 -4.315,-2.207 -1.103,-1.805 -1.805,-4.916 -1.805,-8.025 0,-2.408 0.401,-4.916 1.103,-6.622 1.003,-2.508 2.509,-3.512 4.816,-3.512 2.208,0 3.11,0.603 4.715,3.01 l 4.214,-1.806 c -1.906,-4.013 -4.615,-5.818 -8.929,-5.818 -3.21,0 -5.619,1.103 -7.324,3.21 -2.007,2.509 -3.211,7.023 -3.211,11.538 0,3.611 0.803,7.222 2.108,9.731 1.805,3.512 4.514,5.116 8.728,5.116 4.114,0 6.922,-2.106 8.628,-6.32"
     style="fill:#000000;fill-opacity:1;fill-rule:nonzero;stroke:none"
     id="path3219" />
  <path
     inkscape:connector-curvature="0"
     d="m 184.62025,384.088 -9.431,-17.457 8.829,-11.136 -5.819,0 -9.029,11.337 0,-11.337 -4.515,0 0,28.593 4.515,0 0,-9.832 3.009,-3.711 7.224,13.543 5.217,0 z"
     style="fill:#000000;fill-opacity:1;fill-rule:nonzero;stroke:none"
     id="path3223" />
  <path
     inkscape:connector-curvature="0"
     d="m 206.89325,375.861 c 0,-11.236 -13.444,-7.725 -13.845,-13.042 -0.201,-2.608 2.307,-3.411 4.415,-3.311 3.21,0.1 4.213,2.508 4.213,2.508 l 4.013,-1.204 c -1.404,-3.511 -4.113,-5.818 -8.126,-5.818 -5.117,0 -8.93,2.106 -8.93,7.724 0,4.716 3.813,6.421 5.519,7.123 3.712,1.505 8.126,2.108 8.126,5.92 0,2.408 -1.806,4.213 -4.414,4.213 -2.709,0 -4.916,-1.504 -6.12,-4.213 l -4.315,1.605 c 1.907,4.314 5.519,7.223 10.435,7.223 2.407,0 4.615,-0.802 6.22,-2.207 1.805,-1.605 2.809,-3.912 2.809,-6.521"
     style="fill:#000000;fill-opacity:1;fill-rule:nonzero;stroke:none"
     id="path3227" />
  <path
     inkscape:connector-curvature="0"
     d="m 148.95425,311.40199 c 0,-3.511 -0.753,-5.393 -3.387,-7.775 1.505,-2.258 2.007,-3.763 2.007,-5.895 0,-6.019 -4.891,-10.911 -10.91,-10.911 -4.641,0 -8.655,2.759 -10.535,7.274 l 5.267,2.007 c 1.254,-2.383 3.01,-3.512 5.393,-3.512 2.884,0 5.141,2.007 5.141,4.766 0,2.257 -1.254,3.511 -3.511,3.511 l -1.129,0 -0.125,0 -0.125,0 0,-0.125 0,5.769 0.627,0 c 2.633,0.125 2.758,0.125 3.636,0.752 1.254,0.878 2.007,2.634 2.007,4.515 0,3.637 -2.634,6.271 -6.396,6.271 -3.386,0 -5.769,-1.881 -6.647,-5.393 l -5.517,1.631 c 1.504,5.768 6.144,9.531 11.914,9.531 7.273,0 12.29,-5.142 12.29,-12.416"
     style="fill:#000000;fill-opacity:1;fill-rule:nonzero;stroke:none"
     id="path3231" />
</svg>
