<svg version="1.1" viewBox="0.95 0.95 24.1 24.1" xmlns="http://www.w3.org/2000/svg">
 <g stroke="#000">
  <rect x="1" y="1" width="24" height="24" ry="1.5" fill="#fff" stroke-width=".1"/>
  <rect x="1.6875" y="1.6875" width="22.625" height="22.625" ry=".8125" fill="none" stroke-width=".625"/>
 </g>
 <path transform="matrix(.006 0 0 -.006 13.142 11.5)" d="m809 498q0-122-28.5-231t-79.5-173q-82-111-243-111-104 0-174 43t-114 135q-70 137-70 337 0 252 109 406 87 113 255 113 185 0 278-179 67-138 67-340zm-158 0q0 180-60 281-41 72-130 77-111 5-161-123-38-94-38-235 0-183 59-277 45-77 137-77 104 0 154 127 39 100 39 227zm-776-498h-141l-382 677v-677h-157v1e3h157l365-639v639h158z"/>
 <path transform="matrix(.005 0 0 -.005 18.947 20.5)" d="m730 288q0-140-98-228-87-77-217-77-125 0-219.5 67.5t-145.5 184.5l150 56q67-147 215-147 67 0 110.5 42t43.5 105q0 38-15.5 67t-49 49.5-61.5 32.5-80.5 30-78.5 28q-194 77-193 249 0 140 84.5 205t228.5 65q200 0 283-203l-141-41q-3 9-12.5 23t-47 38-87.5 26q-65 3-112-26t-42-91q3-50 54.5-79.5t122-49.5 140.5-49 119-98 49-179zm-805-288h-141l-382 677v-677h-157v1e3h157l365-639v639h158zm-804 0h-171l-163 435h-189v-435h-157v1e3h329q113 0 180-32 65-33 107.5-103t42.5-146q0-79-42.5-150t-111.5-103zm-180 719q0 72-62 105-33 19-92 19h-189v-247h189q62 0 92 17 62 32 62 106zm-693-361q0-106-46-207-39-74-121.5-121t-173.5-47-173 47-122 121q-45 98-44 207v642h157v-642q0-98 50-156t132-58 132.5 58 50.5 156v642h158zm-782 502h-231v-860h-158v860h-229v140h618z"/>
</svg>
