<?xml version="1.0" encoding="UTF-8" standalone="no"?>
<!-- Created with Inkscape (http://www.inkscape.org/) -->

<svg
   xmlns:dc="http://purl.org/dc/elements/1.1/"
   xmlns:cc="http://creativecommons.org/ns#"
   xmlns:rdf="http://www.w3.org/1999/02/22-rdf-syntax-ns#"
   xmlns:svg="http://www.w3.org/2000/svg"
   xmlns="http://www.w3.org/2000/svg"
   xmlns:sodipodi="http://sodipodi.sourceforge.net/DTD/sodipodi-0.dtd"
   xmlns:inkscape="http://www.inkscape.org/namespaces/inkscape"
   width="304.5625"
   height="190.90625"
   id="svg4779"
   version="1.1"
   inkscape:version="0.48.2 r9819"
   sodipodi:docname="AJAX1.svg">
  <defs
     id="defs4781" />
  <sodipodi:namedview
     id="base"
     pagecolor="#ffffff"
     bordercolor="#666666"
     borderopacity="1.0"
     inkscape:pageopacity="0.0"
     inkscape:pageshadow="2"
     inkscape:zoom="1.979899"
     inkscape:cx="170.40564"
     inkscape:cy="51.175995"
     inkscape:document-units="px"
     inkscape:current-layer="layer1"
     showgrid="false"
     inkscape:window-width="1280"
     inkscape:window-height="1004"
     inkscape:window-x="-8"
     inkscape:window-y="-8"
     inkscape:window-maximized="1"
     fit-margin-top="0"
     fit-margin-left="0"
     fit-margin-right="0"
     fit-margin-bottom="0" />
  <metadata
     id="metadata4784">
    <rdf:RDF>
      <cc:Work
         rdf:about="">
        <dc:format>image/svg+xml</dc:format>
        <dc:type
           rdf:resource="http://purl.org/dc/dcmitype/StillImage" />
        <dc:title />
      </cc:Work>
    </rdf:RDF>
  </metadata>
  <g
     inkscape:label="Layer 1"
     inkscape:groupmode="layer"
     id="layer1"
     transform="translate(-155.1875,-92.65625)">
    <path
       inkscape:connector-curvature="0"
       d="m 459.00486,263.87463 c 0,10.41875 -8.52375,18.9425 -18.9425,18.9425 l -265.195,0 c -10.41875,0 -18.9425,-8.52375 -18.9425,-18.9425 l 0,-151.54 c 0,-10.41875 8.52375,-18.9425 18.9425,-18.9425 l 265.195,0 c 10.41875,0 18.9425,8.52375 18.9425,18.9425 l 0,151.54"
       style="fill:#ffffff;fill-opacity:1;fill-rule:nonzero;stroke:#000000;stroke-width:1.5;stroke-miterlimit:4;stroke-opacity:1;stroke-dasharray:none"
       id="path3803" />
    <path
       inkscape:connector-curvature="0"
       d="m 446.3765,263.87463 c 0,3.4725 -2.84125,6.31375 -6.31375,6.31375 l -265.195,0 c -3.47375,0 -6.315,-2.84125 -6.315,-6.31375 l 0,-151.54 c 0,-3.4725 2.84125,-6.31375 6.315,-6.31375 l 265.195,0 c 3.4725,0 6.31375,2.84125 6.31375,6.31375 l 0,151.54 z m -6.31375,-165.74625 -265.195,0 c -7.81375,0 -14.2075,6.3925 -14.2075,14.20625 l 0,151.54 c 0,7.81375 6.39375,14.2075 14.2075,14.2075 l 265.195,0 c 7.81375,0 14.20625,-6.39375 14.20625,-14.2075 l 0,-151.54 c 0,-7.81375 -6.3925,-14.20625 -14.20625,-14.20625"
       style="fill:#000000;fill-opacity:1;fill-rule:nonzero;stroke:none"
       id="path3827" />
    <path
       inkscape:connector-curvature="0"
       d="m 359.5625,273.3 -7.50125,0 0,-78.88125 7.50125,0 0,78.88125 z"
       style="fill:#000000;fill-opacity:1;fill-rule:nonzero;stroke:none"
       id="path3829" />
    <path
       inkscape:connector-curvature="0"
       d="m 262.8675,273.3 -7.50125,0 0,-78.88125 7.50125,0 0,78.88125 z"
       style="fill:#000000;fill-opacity:1;fill-rule:nonzero;stroke:none"
       id="path3831" />
    <path
       inkscape:connector-curvature="0"
       d="m 246.28487,209.1045 c -0.13,-18.99625 -12.13625,-35.17125 -28.96625,-41.46875 0,0 -8.29125,-2.75625 -11.1375,-3.30125 l 5.3225,-8.1475 c 0.1725,-0.2575 0.31,-0.54625 0.4025,-0.86 0.49375,-1.67125 -0.46125,-3.4275 -2.13375,-3.92125 -0.645,-0.19125 -1.3025,-0.16625 -1.895,0.0325 l -34.58875,11.41 22.83625,28.37375 c 0.39,0.48875 0.9275,0.86625 1.5725,1.0575 1.6725,0.49375 3.42875,-0.46125 3.9225,-2.13375 0.0925,-0.31375 0.135,-0.62875 0.13,-0.94 l -0.0412,-9.7325 c 4.96875,0.92625 10.37375,3.065 10.37375,3.065 10.72625,4.14875 18.34875,14.53375 18.41875,26.70625 l 0,0 0,20.69125 15.785,0 0,-20.83125 -0.001,0"
       style="fill:#000000;fill-opacity:1;fill-rule:nonzero;stroke:none"
       id="path3835" />
    <path
       inkscape:connector-curvature="0"
       d="m 368.64474,209.1045 c 0.13,-18.99625 12.13625,-35.17125 28.96625,-41.46875 0,0 8.29125,-2.75625 11.13875,-3.30125 l -5.325,-8.1475 c -0.17125,-0.2575 -0.30875,-0.54625 -0.40125,-0.86 -0.49375,-1.67125 0.46125,-3.4275 2.1325,-3.92125 0.64625,-0.19125 1.30375,-0.16625 1.89625,0.0325 l 34.58875,11.41 -22.83625,28.37375 c -0.39,0.48875 -0.9275,0.86625 -1.5725,1.0575 -1.6725,0.49375 -3.42875,-0.46125 -3.9225,-2.13375 -0.0925,-0.31375 -0.13375,-0.62875 -0.13,-0.94 l 0.0413,-9.7325 c -4.96875,0.92625 -10.37375,3.065 -10.37375,3.065 -10.72625,4.14875 -18.3475,14.53375 -18.41875,26.70625 l 0,20.69125 -15.785,0 0,-20.83125 0.001,0"
       style="fill:#000000;fill-opacity:1;fill-rule:nonzero;stroke:none"
       id="path3839" />
    <path
       inkscape:connector-curvature="0"
       d="m 299.57214,231.12336 15.785,0 0,-88.40125 9.3225,2.79625 c 0.29625,0.0925 0.6125,0.1425 0.93875,0.1425 1.74375,0 3.15625,-1.41375 3.15625,-3.1575 0,-0.6725 -0.21,-1.29625 -0.5675,-1.80875 l -20.7425,-29.93875 -20.74125,29.93875 c -0.35875,0.5125 -0.56875,1.13625 -0.56875,1.80875 0,1.74375 1.4125,3.1575 3.1575,3.1575 0.32625,0 0.64125,-0.05 0.9375,-0.1425 l 9.3225,-2.79625 0,88.40125"
       style="fill:#000000;fill-opacity:1;fill-rule:nonzero;stroke:none"
       id="path3843" />
    <path
       inkscape:connector-curvature="0"
       d="m 182.26163,242.24511 c -2.245,0 -3.2925,0.8975 -4.19125,3.10625 -0.59875,1.49625 -0.9725,3.81625 -0.9725,5.94875 0,2.6575 0.56125,5.39 1.53375,6.9975 0.78625,1.31 1.83375,1.94625 3.4425,1.94625 1.87125,0 3.03125,-0.9725 3.8925,-3.18125 0.52375,-1.34625 0.9725,-3.81625 0.9725,-5.7625 0,-2.9175 -0.63625,-9.055 -4.6775,-9.055 m 5.9125,19.23375 c -1.46,1.90875 -3.4425,2.84375 -6.1,2.84375 -3.555,0 -5.725,-1.42125 -7.25875,-4.5275 -1.0475,-2.1325 -1.79625,-5.5 -1.79625,-8.495 0,-4.19 1.0475,-7.9325 2.76875,-10.29 1.46,-1.9825 3.555,-2.84375 6.47375,-2.84375 6.9975,0 8.68125,7.48375 8.68125,13.13375 0,3.9675 -1.01,7.93375 -2.76875,10.17875"
       style="fill:#000000;fill-opacity:1;fill-rule:nonzero;stroke:none"
       id="path3847" />
    <path
       inkscape:connector-curvature="0"
       d="m 208.1935,263.87375 -9.65375,-17.10125 0,17.10125 -4.005,0 0,-25.25875 4.005,0 9.205,16.12875 0,-16.12875 3.96625,0 0,25.25875 -3.5175,0 z"
       style="fill:#000000;fill-opacity:1;fill-rule:nonzero;stroke:none"
       id="path3851" />
    <path
       inkscape:connector-curvature="0"
       d="m 216.57525,263.87375 0,-25.25875 4.00375,0 0,21.555 11.675,0 0,3.70375 -15.67875,0 z"
       style="fill:#000000;fill-opacity:1;fill-rule:nonzero;stroke:none"
       id="path3855" />
    <path
       inkscape:connector-curvature="0"
       d="m 242.0205,252.87225 0,11.00125 -4.00375,0 0,-11.00125 -8.86875,-14.2575 4.79,0 6.025,9.73 6.13625,-9.73 4.6775,0 -8.75625,14.2575 z"
       style="fill:#000000;fill-opacity:1;fill-rule:nonzero;stroke:none"
       id="path3859" />
    <path
       inkscape:connector-curvature="0"
       d="m 373.40924,242.24511 c -2.24625,0 -3.2925,0.8975 -4.19125,3.10625 -0.59875,1.49625 -0.97375,3.81625 -0.97375,5.94875 0,2.6575 0.56125,5.39 1.535,6.9975 0.78625,1.31 1.83375,1.94625 3.4425,1.94625 1.87125,0 3.03125,-0.9725 3.89125,-3.18125 0.52375,-1.34625 0.97375,-3.81625 0.97375,-5.7625 0,-2.9175 -0.63625,-9.055 -4.6775,-9.055 m 5.91125,19.23375 c -1.45875,1.90875 -3.44125,2.84375 -6.09875,2.84375 -3.555,0 -5.725,-1.42125 -7.26,-4.5275 -1.04625,-2.1325 -1.79625,-5.5 -1.79625,-8.495 0,-4.19 1.04875,-7.9325 2.77,-10.29 1.45875,-1.9825 3.55375,-2.84375 6.47375,-2.84375 6.9975,0 8.68125,7.48375 8.68125,13.13375 0,3.9675 -1.01,7.93375 -2.77,10.17875"
       style="fill:#000000;fill-opacity:1;fill-rule:nonzero;stroke:none"
       id="path3863" />
    <path
       inkscape:connector-curvature="0"
       d="m 399.34125,263.87375 -9.655,-17.10125 0,17.10125 -4.00375,0 0,-25.25875 4.00375,0 9.20625,16.12875 0,-16.12875 3.965,0 0,25.25875 -3.51625,0 z"
       style="fill:#000000;fill-opacity:1;fill-rule:nonzero;stroke:none"
       id="path3867" />
    <path
       inkscape:connector-curvature="0"
       d="m 407.72236,263.87375 0,-25.25875 4.00375,0 0,21.555 11.675,0 0,3.70375 -15.67875,0 z"
       style="fill:#000000;fill-opacity:1;fill-rule:nonzero;stroke:none"
       id="path3871" />
    <path
       inkscape:connector-curvature="0"
       d="m 433.16761,252.87225 0,11.00125 -4.00375,0 0,-11.00125 -8.86875,-14.2575 4.79,0 6.02375,9.73 6.1375,-9.73 4.6775,0 -8.75625,14.2575 z"
       style="fill:#000000;fill-opacity:1;fill-rule:nonzero;stroke:none"
       id="path3875" />
    <path
       inkscape:connector-curvature="0"
       d="m 277.60487,242.24511 c -2.245,0 -3.2925,0.8975 -4.19125,3.10625 -0.59875,1.49625 -0.97375,3.81625 -0.97375,5.94875 0,2.6575 0.56125,5.39 1.535,6.9975 0.78625,1.31 1.83375,1.94625 3.44375,1.94625 1.87,0 3.03,-0.9725 3.89,-3.18125 0.52375,-1.34625 0.97375,-3.81625 0.97375,-5.7625 0,-2.9175 -0.63625,-9.055 -4.6775,-9.055 m 5.9125,19.23375 c -1.45875,1.90875 -3.4425,2.84375 -6.09875,2.84375 -3.55625,0 -5.72625,-1.42125 -7.26,-4.5275 -1.0475,-2.1325 -1.7975,-5.5 -1.7975,-8.495 0,-4.19 1.04875,-7.9325 2.77,-10.29 1.45875,-1.9825 3.555,-2.84375 6.47375,-2.84375 6.9975,0 8.68125,7.48375 8.68125,13.13375 0,3.9675 -1.01,7.93375 -2.76875,10.17875"
       style="fill:#000000;fill-opacity:1;fill-rule:nonzero;stroke:none"
       id="path3879" />
    <path
       inkscape:connector-curvature="0"
       d="m 303.53687,263.87375 -9.655,-17.10125 0,17.10125 -4.00375,0 0,-25.25875 4.00375,0 9.20625,16.12875 0,-16.12875 3.96625,0 0,25.25875 -3.5175,0 z"
       style="fill:#000000;fill-opacity:1;fill-rule:nonzero;stroke:none"
       id="path3883" />
    <path
       inkscape:connector-curvature="0"
       d="m 311.918,263.87375 0,-25.25875 4.00375,0 0,21.555 11.675,0 0,3.70375 -15.67875,0 z"
       style="fill:#000000;fill-opacity:1;fill-rule:nonzero;stroke:none"
       id="path3887" />
    <path
       inkscape:connector-curvature="0"
       d="m 337.36325,252.87225 0,11.00125 -4.00375,0 0,-11.00125 -8.86875,-14.2575 4.79,0 6.025,9.73 6.13625,-9.73 4.6775,0 -8.75625,14.2575 z"
       style="fill:#000000;fill-opacity:1;fill-rule:nonzero;stroke:none"
       id="path3891" />
  </g>
</svg>
