<?xml version="1.0" encoding="UTF-8" standalone="no"?>
<!-- Generator: Adobe Illustrator 13.0.0, SVG Export Plug-In  -->

<svg
   version="1.1"
   x="0px"
   y="0px"
   width="2942.8635"
   height="2942.863"
   viewBox="-0.525 -0.67 2942.8636 2942.863"
   enable-background="new -0.525 -0.67 576 508"
   xml:space="preserve"
   id="svg2"
   inkscape:version="1.2.1 (9c6d41e410, 2022-07-14)"
   sodipodi:docname="MUTCD_W8-23.svg"
   xmlns:inkscape="http://www.inkscape.org/namespaces/inkscape"
   xmlns:sodipodi="http://sodipodi.sourceforge.net/DTD/sodipodi-0.dtd"
   xmlns="http://www.w3.org/2000/svg"
   xmlns:svg="http://www.w3.org/2000/svg"
   xmlns:rdf="http://www.w3.org/1999/02/22-rdf-syntax-ns#"
   xmlns:cc="http://creativecommons.org/ns#"
   xmlns:dc="http://purl.org/dc/elements/1.1/"><metadata
   id="metadata14"><rdf:RDF><cc:Work
       rdf:about=""><dc:format>image/svg+xml</dc:format><dc:type
         rdf:resource="http://purl.org/dc/dcmitype/StillImage" /></cc:Work></rdf:RDF></metadata><sodipodi:namedview
   pagecolor="#ffffff"
   bordercolor="#666666"
   borderopacity="1"
   objecttolerance="10"
   gridtolerance="10"
   guidetolerance="10"
   inkscape:pageopacity="0"
   inkscape:pageshadow="2"
   inkscape:window-width="2048"
   inkscape:window-height="1089"
   id="namedview12"
   showgrid="false"
   fit-margin-top="0"
   fit-margin-left="0"
   fit-margin-right="0"
   fit-margin-bottom="0"
   inkscape:zoom="0.14245509"
   inkscape:cx="-603.69903"
   inkscape:cy="2604.3295"
   inkscape:window-x="-8"
   inkscape:window-y="-8"
   inkscape:window-maximized="1"
   inkscape:current-layer="svg2"
   inkscape:showpageshadow="2"
   inkscape:pagecheckerboard="0"
   inkscape:deskcolor="#d1d1d1" />
<defs
   id="defs4">
</defs>



<path
   inkscape:connector-curvature="0"
   style="fill:#ffd033;fill-rule:nonzero;stroke:none"
   d="m 1566.3574,2902.6494 c -52.7125,52.725 -138.2,52.725 -190.9125,0 L 39.015806,1566.2244 c -52.720875,-52.725 -52.720875,-138.2 -0.0012,-190.9125 L 1375.4449,38.871632 c 52.7125,-52.72225 138.2,-52.72225 190.9125,0 L 2902.7949,1375.3119 c 52.725,52.7125 52.725,138.1875 0,190.9125 l -1336.4375,1336.425 z"
   id="path11" /><path
   inkscape:connector-curvature="0"
   style="fill:#000000;fill-rule:nonzero;stroke:none"
   d="m 62.880568,1542.3588 c -39.4775,-39.475 -39.4775,-103.7125 -0.0013,-143.1875 L 1399.3156,62.736362 c 39.475,-39.47762 103.7125,-39.47762 143.1875,0 L 2878.9406,1399.1713 c 39.475,39.475 39.475,103.7125 0,143.1875 L 1542.5031,2878.7963 c -39.475,39.475 -103.7125,39.475 -143.1875,0 L 62.880568,1542.3588 z"
   id="path13" /><path
   inkscape:connector-curvature="0"
   style="fill:#ffd033;fill-rule:nonzero;stroke:none"
   d="m 102.65468,1502.5779 c -17.545118,-17.55 -17.545118,-46.0875 0,-63.6375 L 1439.0845,102.5105 c 17.55,-17.545138 46.1,-17.545138 63.6375,0 l 1336.4375,1336.4299 c 17.5375,17.55 17.5375,46.0875 0,63.6375 L 1502.722,2839.0154 c -17.5375,17.5375 -46.0875,17.5375 -63.6375,0 L 102.65468,1502.5779 z"
   id="path15" /><path
   style="fill:#f4911d;fill-opacity:1;stroke-width:3.50988"
   d="m 1449.5797,2843.3442 c -5.7913,-3.6578 -313.3883,-309.6872 -683.54881,-680.0655 L 93.01177,1489.8638 v -16.1056 c 0,-12.2805 2.415868,-19.3566 10.17206,-29.7942 5.59463,-7.5288 310.8224,-314.0327 678.28393,-681.11979 C 1494.76,50.278779 1457.4554,85.779993 1483.7888,94.47487 c 8.1629,2.695268 204.2763,196.69486 687.7277,680.3151 734.5844,734.84103 688.9746,686.76273 675.5327,712.09453 -2.9415,5.5431 -309.8981,314.5166 -682.126,686.6075 -674.2653,674.0174 -676.8299,676.529 -690.7959,676.5159 -7.7099,-0.01 -18.7563,-3.0059 -24.5476,-6.6637 z"
   id="path16212"
   transform="translate(-0.525,-0.67)" /><path
   style="fill:#f4911d;fill-opacity:1;stroke-width:3.50988"
   d="m 1437.0471,2936.7042 c -8.8233,-2.5031 -23.0383,-8.7134 -31.5889,-13.8007 -8.9909,-5.3492 -304.3021,-298.3215 -700.32724,-694.7808 C -50.874377,1471.2888 7.1384557,1532.9581 2.8289881,1481.5549 0.47267634,1453.4488 7.7242175,1424.247 22.971544,1400.4414 28.535459,1391.7544 339.95259,1078.078 715.00962,703.38273 1335.0994,83.890969 1398.6819,21.390194 1416.2358,14.085915 c 37.0942,-15.4350707 80.0753,-14.7183771 113.5651,1.893656 14.6009,7.242539 149.1189,139.983929 703.0818,693.795879 574.3378,574.18145 686.6308,688.00435 694.9558,704.42475 9.0254,17.8019 9.9295,22.9404 9.9295,56.4387 0,64.78 71.5761,-12.8098 -703.2849,762.3733 -650.8872,651.1577 -684.2275,683.9169 -706.6553,694.3374 -27.7243,12.8814 -64.8603,16.7081 -90.7807,9.3546 z m 79.5371,-37.4354 c 18.048,-9.0667 109.0228,-98.7683 700.3694,-690.5685 611.5272,-611.9963 680.2837,-681.9069 686.1811,-697.6978 8.3003,-22.2246 8.1816,-61.0741 -0.2467,-80.7272 C 2894.1418,1409.8804 1537.0205,52.338814 1514.5124,41.469571 1490.2382,29.747517 1452.1059,30.361395 1426.7654,42.882178 1410.4601,50.938682 1301.8946,158.08567 727.94338,732.57323 260.18549,1200.7682 46.349077,1417.1011 41.762197,1426.7654 c -9.935939,20.9346 -9.343134,72.0455 1.058432,91.2569 4.525875,8.3591 284.267291,290.6015 691.407011,697.5882 376.09316,375.9519 684.58586,683.5726 685.53936,683.6017 0.9535,0.028 8.0514,2.3289 15.7731,5.1107 7.7218,2.7819 24.4485,5.1273 37.1706,5.212 18.8431,0.1256 26.9763,-1.7776 43.8735,-10.2661 z"
   id="path16214"
   transform="translate(-0.525,-0.67)" /><path
   inkscape:connector-curvature="0"
   style="fill:#000000;fill-rule:nonzero;stroke:none"
   d="M 1380.55,1120.8664 1269.6125,879.60273 v 241.26367 h -51.68 V 760.86639 h 51.68 l 98.325,215.99884 V 760.86639 h 51.6875 v 360.00001 z"
   id="path17" /><path
   inkscape:connector-curvature="0"
   style="fill:#000000;fill-rule:nonzero;stroke:none"
   d="m 1643.0375,850.55023 c -8.9125,-31.58 -22.9,-45.4738 -44.5375,-45.4738 -22.9,0 -36.9,13.8938 -45.8,44.21 -8.9125,27.7888 -11.45,51.7888 -11.45,92.21 0,39.1588 3.8125,61.89497 11.45,90.94747 8.9,30.3163 22.9,44.2113 45.8,44.2113 21.6375,0 35.625,-13.895 44.5375,-44.2113 8.9125,-29.0525 11.45,-50.52617 11.45,-92.20867 0,-40.4213 -3.8125,-63.16 -11.45,-89.685 z m 40.7125,214.73617 c -17.8125,42.9475 -44.525,61.895 -85.25,61.895 -43.2625,0 -68.7,-18.9475 -86.5125,-61.895 -15.275,-35.3675 -20.3625,-69.47247 -20.3625,-125.05117 0,-54.3163 5.0875,-90.9488 20.3625,-125.0538 19.075,-42.94754 44.525,-60.63254 86.5125,-60.63254 41.9875,0 67.4375,17.685 85.25,61.89384 15.275,35.37 20.3625,69.4762 20.3625,123.7925 0,55.5787 -5.0875,90.94617 -20.3625,125.05117 z"
   id="path19" /><path
   inkscape:connector-curvature="0"
   style="fill:#000000;fill-rule:nonzero;stroke:none"
   d="m 1887.5875,1478.0213 c -8.8125,-25.2625 -23.95,-36.625 -46.6375,-36.625 h -42.85 v 258.95 h 42.85 c 30.2625,0 46.6375,-24 51.6875,-51.8 2.525,-22.7375 5.0375,-48 5.0375,-75.7875 0,-40.4125 -3.775,-79.575 -10.0875,-94.7375 z m 8.825,256.425 c -12.6,11.3625 -30.25,16.425 -50.4125,16.425 h -99.5875 v -360 h 92.025 c 30.25,0 45.375,3.7875 57.975,13.8875 21.4375,15.1625 36.5625,42.95 42.8625,79.575 5.05,26.5375 8.825,58.1125 8.825,85.9 0,83.375 -16.3875,136.425 -51.6875,164.2125 z"
   id="path21" /><path
   inkscape:connector-curvature="0"
   style="fill:#000000;fill-rule:nonzero;stroke:none"
   d="m 2020.1,1750.8713 v -360 h 169.75 v 50.525 h -117.8125 v 90.95 h 74.75 v 49.2625 h -74.75 v 118.7375 h 131.75 v 50.525 z"
   id="path23" /><path
   inkscape:connector-curvature="0"
   style="fill:#000000;fill-rule:nonzero;stroke:none"
   d="m 823.26003,1750.8713 v -162.95 h -98.3237 v 162.95 h -51.6838 v -360 h 51.6838 v 146.525 h 98.3237 v -146.525 h 51.6813 v 360 z"
   id="path25" /><path
   inkscape:connector-curvature="0"
   style="fill:#000000;fill-rule:nonzero;stroke:none"
   d="m 1512.325,1750.8713 v -360 h 51.9375 v 312 h 131.75 v 48 z"
   id="path27" /><path
   inkscape:connector-curvature="0"
   style="fill:#000000;fill-rule:nonzero;stroke:none"
   d="m 1098.3562,1480.5463 c -8.9062,-31.575 -22.9037,-45.475 -44.5337,-45.475 -22.9038,0 -36.9,13.9 -45.8063,44.2125 -8.90747,27.7875 -11.45117,51.7875 -11.45117,92.2125 0,39.1625 3.81747,61.9 11.45117,90.95 8.9063,30.3125 22.9025,44.2125 45.8063,44.2125 21.63,0 35.6275,-13.9 44.5337,-44.2125 8.9075,-29.05 11.4513,-50.525 11.4513,-92.2125 0,-40.4125 -3.8175,-63.1625 -11.4513,-89.6875 z m 40.7163,214.7375 c -17.8138,42.95 -44.5338,61.9 -85.25,61.9 -43.2625,0 -68.70867,-18.95 -86.52247,-61.9 -15.27,-35.3625 -20.3587,-69.475 -20.3587,-125.05 0,-54.3125 5.0887,-90.95 20.3587,-125.05 19.085,-42.95 44.53367,-60.6375 86.52247,-60.6375 41.9887,0 67.4362,17.6875 85.25,61.9 15.27,35.3625 20.3587,69.475 20.3587,123.7875 0,55.575 -5.0887,90.95 -20.3587,125.05 z"
   id="path29" /><path
   inkscape:connector-curvature="0"
   style="fill:#000000;fill-rule:nonzero;stroke:none"
   d="m 2369.6125,1441.3963 h -52.9375 v 90.95 h 52.9375 c 30.2625,0 46.65,-16.425 46.65,-45.475 0,-27.8 -18.9125,-45.475 -46.65,-45.475 z m 44.125,309.475 -47.9,-169.2625 h -49.1625 v 169.2625 h -51.6875 v -360 h 107.15 c 56.725,0 94.55,37.8875 94.55,96 0,42.9375 -17.65,74.525 -51.6875,87.15 l 51.6875,176.85 z"
   id="path31" /><path
   inkscape:connector-curvature="0"
   style="fill:#000000;fill-rule:nonzero;stroke:none"
   d="m 512.87133,1584.6088 c -15.575,-10.0875 -30.6988,-20.2125 -40.3525,-27 -29.0238,-20.4375 -44.3988,-48 -44.3988,-79.5875 0,-51.7875 40.5925,-93.475 92.6013,-93.475 50.7387,0 90.0625,39.1625 91.3312,93.475 h -49.47 c -1.2687,-25.2625 -19.0287,-41.675 -41.8612,-41.675 -24.1013,0 -43.1288,17.675 -43.1288,41.675 0,17.6875 7.6113,27.7875 34.25,42.95 69.7663,40.425 100.21,79.575 100.21,131.375 0,58.1 -44.3975,104.8375 -100.21,104.8375 -63.4262,0 -101.48,-53.05 -101.48,-112.425 h 50.74 c 0,30.3125 15.2213,61.9 50.74,61.9 27.9063,0 50.74,-25.2625 50.74,-54.3125 0,-22.5625 -9.3225,-41.5625 -49.7112,-67.7375 z"
   id="path33" /><path
   inkscape:connector-curvature="0"
   style="fill:#000000;fill-rule:nonzero;stroke:none"
   d="m 1419.2625,1706.6588 c -17.65,29.05 -51.6875,50.525 -85.725,50.525 -35.3,0 -70.5875,-20.2125 -88.2375,-50.525 -10.09,-18.95 -13.87,-34.1125 -13.87,-63.1625 v -252.625 h 51.6825 v 258.95 c 0,34.1 20.175,56.8375 50.425,56.8375 27.7375,0 47.9,-22.7375 47.9,-56.8375 v -258.95 h 51.6875 v 252.625 c 0,29.05 -3.7875,44.2125 -13.8625,63.1625 z"
   id="path35" /></svg>
