<?xml version="1.0" encoding="UTF-8" standalone="no"?>
<svg
   xmlns:dc="http://purl.org/dc/elements/1.1/"
   xmlns:cc="http://creativecommons.org/ns#"
   xmlns:rdf="http://www.w3.org/1999/02/22-rdf-syntax-ns#"
   xmlns:svg="http://www.w3.org/2000/svg"
   xmlns="http://www.w3.org/2000/svg"
   xmlns:sodipodi="http://sodipodi.sourceforge.net/DTD/sodipodi-0.dtd"
   xmlns:inkscape="http://www.inkscape.org/namespaces/inkscape"
   width="105.69981"
   height="52.826057"
   viewBox="0 0 298.30842 149.08686"
   version="1.1"
   id="svg2"
   inkscape:version="0.48.2 r9819"
   sodipodi:docname="AJAX1.svg">
  <metadata
     id="metadata62">
    <rdf:RDF>
      <cc:Work
         rdf:about="">
        <dc:format>image/svg+xml</dc:format>
        <dc:type
           rdf:resource="http://purl.org/dc/dcmitype/StillImage" />
        <dc:title></dc:title>
      </cc:Work>
    </rdf:RDF>
  </metadata>
  <defs
     id="defs60" />
  <sodipodi:namedview
     pagecolor="#ffffff"
     bordercolor="#666666"
     borderopacity="1"
     objecttolerance="10"
     gridtolerance="10"
     guidetolerance="10"
     inkscape:pageopacity="0"
     inkscape:pageshadow="2"
     inkscape:window-width="1280"
     inkscape:window-height="1004"
     id="namedview58"
     showgrid="false"
     fit-margin-top="0"
     fit-margin-left="0"
     fit-margin-right="0"
     fit-margin-bottom="0"
     inkscape:zoom="5.6568543"
     inkscape:cx="47.659298"
     inkscape:cy="24.093524"
     inkscape:window-x="-8"
     inkscape:window-y="-8"
     inkscape:window-maximized="1"
     inkscape:current-layer="svg2" />
  <!-- draw the bicycle -->
  <!-- RIGHT -->
  <!-- LANE -->
  <!-- ONLY -->
  <path
     inkscape:connector-curvature="0"
     d="m 11.65173,149.08389 275.0009,0.003 c 6.42409,0 11.65578,-5.22817 11.65578,-11.64873 l 0,-125.786465 C 298.31241,5.2352049 293.07672,-2.6097631e-5 286.65263,-2.6097631e-5 L 11.65173,0.00397391 C 5.23117,0.00397391 0.003,5.2321439 0.003,11.652695 L 0,137.43211 c 0.003,6.34647 5.30931,11.6593 11.65225,11.65225"
     style="fill:#f4911d;fill-opacity:1;fill-rule:nonzero;stroke:none"
     id="path3573" />
  <path
     inkscape:connector-curvature="0"
     d="m 11.69403,145.85597 274.9233,-0.004 c 4.62139,-0.003 8.4455,-3.83422 8.45608,-8.45561 l -0.004,-125.701795 c 0.004,-4.6213901 -3.83469,-8.4419711 -8.45608,-8.4560911 l -274.91622,0.004 c -4.62847,0.007 -8.45611,3.82412 -8.45961,8.4560911 l 0,125.701795 c 0.0113,4.61433 3.82411,8.45608 8.45608,8.45608"
     style="fill:#000000;fill-opacity:1;fill-rule:evenodd;stroke:none"
     id="path3577" />
  <path
     inkscape:connector-curvature="0"
     d="m 11.75403,141.32631 274.80335,-0.004 c 2.18723,0.0423 4.02167,-1.79564 3.98639,-3.98639 l -0.004,-125.581386 c 0.0388,-2.1836891 -1.79564,-4.0251891 -3.98287,-3.9828591 l -274.79982,0.004 c -2.19428,-0.0459 -4.02872,1.79564 -3.98286,3.9828601 l -0.008,125.581855 c -0.0389,2.18722 1.79564,4.02166 3.98639,3.98639"
     style="fill:#f4911d;fill-opacity:1;fill-rule:evenodd;stroke:none"
     id="path3581" />
  <path
     inkscape:connector-curvature="0"
     d="m 27.92537,95.338183 158.47133,0 -7.75758,24.511007 c -0.25048,0.7867 -0.42686,1.5875 -0.44097,2.42006 -0.0882,3.87703 2.93158,7.39422 6.68514,8.12094 2.2225,0.43745 4.49791,-0.0318 6.34647,-1.30175 L 270.37899,74.623073 191.31795,20.256475 c -1.40758,-0.97013 -3.02683,-1.54516 -4.7378,-1.55575 -3.87703,-0.0388 -7.39422,2.818701 -8.12447,6.621641 -0.25753,1.37584 -0.24342,2.75167 0.18344,4.078121 l 7.75758,24.507472 -158.47132,0 0,41.430224 z"
     style="fill:#000000;fill-opacity:1;fill-rule:evenodd;stroke:none"
     id="path3585" />
</svg>
