<?xml version="1.0" encoding="UTF-8" standalone="no"?>
<!-- Created with Inkscape (http://www.inkscape.org/) -->

<svg
   xmlns:dc="http://purl.org/dc/elements/1.1/"
   xmlns:cc="http://creativecommons.org/ns#"
   xmlns:rdf="http://www.w3.org/1999/02/22-rdf-syntax-ns#"
   xmlns:svg="http://www.w3.org/2000/svg"
   xmlns="http://www.w3.org/2000/svg"
   xmlns:sodipodi="http://sodipodi.sourceforge.net/DTD/sodipodi-0.dtd"
   xmlns:inkscape="http://www.inkscape.org/namespaces/inkscape"
   width="115.2"
   height="86.400002"
   id="svg2934"
   version="1.1"
   inkscape:version="0.48.2 r9819"
   sodipodi:docname="MUTCD G20-4 (temporary).svg">
  <defs
     id="defs2936">
    <inkscape:perspective
       sodipodi:type="inkscape:persp3d"
       inkscape:vp_x="0 : 526.18109 : 1"
       inkscape:vp_y="0 : 1000 : 0"
       inkscape:vp_z="744.09448 : 526.18109 : 1"
       inkscape:persp3d-origin="372.04724 : 350.78739 : 1"
       id="perspective2942" />
    <inkscape:perspective
       id="perspective2924"
       inkscape:persp3d-origin="0.5 : 0.33333333 : 1"
       inkscape:vp_z="1 : 0.5 : 1"
       inkscape:vp_y="0 : 1000 : 0"
       inkscape:vp_x="0 : 0.5 : 1"
       sodipodi:type="inkscape:persp3d" />
  </defs>
  <sodipodi:namedview
     id="base"
     pagecolor="#ffffff"
     bordercolor="#666666"
     borderopacity="1.0"
     inkscape:pageopacity="0.0"
     inkscape:pageshadow="2"
     inkscape:zoom="5.2462853"
     inkscape:cx="52.666161"
     inkscape:cy="55.860966"
     inkscape:document-units="px"
     inkscape:current-layer="g2909"
     showgrid="false"
     inkscape:window-width="1280"
     inkscape:window-height="1004"
     inkscape:window-x="-8"
     inkscape:window-y="-8"
     inkscape:window-maximized="1"
     fit-margin-top="0"
     fit-margin-left="0"
     fit-margin-right="0"
     fit-margin-bottom="0" />
  <metadata
     id="metadata2939">
    <rdf:RDF>
      <cc:Work
         rdf:about="">
        <dc:format>image/svg+xml</dc:format>
        <dc:type
           rdf:resource="http://purl.org/dc/dcmitype/StillImage" />
        <dc:title></dc:title>
      </cc:Work>
    </rdf:RDF>
  </metadata>
  <g
     inkscape:label="Ebene 1"
     inkscape:groupmode="layer"
     id="layer1"
     transform="translate(1297.9325,3251.0125)">
    <g
       id="g3018"
       transform="translate(2,-2)">
      <g
         id="g2909"
         transform="matrix(0.80835983,0,0,0.80835983,-165.10178,-177.02766)">
        <path
           inkscape:connector-curvature="0"
           d="m -1398.6741,-3800.269 132.1193,0 c 2.8623,0 5.1973,2.3334 5.1973,5.1942 l 0,96.4947 c 0,2.8608 -2.335,5.1942 -5.1973,5.1942 l -132.1193,0 c -2.8623,0 -5.1942,-2.3334 -5.1942,-5.1942 l 0,-96.4947 c 0,-2.8608 2.3319,-5.1942 5.1942,-5.1942"
           style="fill:#f38f00;fill-opacity:1;fill-rule:nonzero;stroke:none"
           id="path6791" />
        <path
           inkscape:connector-curvature="0"
           d="m -1398.6741,-3798.7845 132.1178,0 c 2.0458,0 3.7128,1.6669 3.7128,3.7112 l 0,96.4917 c 0,2.0443 -1.667,3.7112 -3.7128,3.7112 l -132.1178,0 c -2.0428,0 -3.7097,-1.6669 -3.7097,-3.7112 l 0,-96.4917 c 0,-2.0443 1.6669,-3.7112 3.7097,-3.7112"
           style="fill:#000000;fill-opacity:1;fill-rule:evenodd;stroke:none"
           id="path6815" />
        <path
           inkscape:connector-curvature="0"
           d="m -1266.5826,-3796.5579 0.1809,0.01 c 0.2521,0.032 0.4577,0.1082 0.6727,0.2459 l 0.1144,0.087 c 0.2304,0.1994 0.3804,0.419 0.4763,0.7066 0.037,0.1222 0.057,0.2351 0.065,0.3619 l 0,96.5381 -0.01,0.1809 c -0.032,0.2536 -0.1083,0.4577 -0.2459,0.6742 l -0.087,0.1144 c -0.1979,0.2304 -0.4175,0.3804 -0.7051,0.4778 -0.1222,0.036 -0.2366,0.056 -0.3634,0.065 l -132.1642,0 -0.1825,-0.01 c -0.2536,-0.032 -0.4577,-0.1082 -0.6711,-0.2459 l -0.116,-0.087 c -0.2304,-0.1979 -0.3788,-0.4175 -0.4794,-0.7051 -0.032,-0.1237 -0.054,-0.2366 -0.063,-0.3618 l 0,-96.5397 0.01,-0.1809 c 0.031,-0.2536 0.1067,-0.4592 0.2444,-0.6726 l 0.088,-0.116 c 0.1995,-0.2289 0.4175,-0.3789 0.7067,-0.4763 0.1221,-0.037 0.2335,-0.056 0.3587,-0.066 l 132.1692,0 z"
           style="fill:#f38f00;fill-opacity:1;fill-rule:evenodd;stroke:none"
           id="path6819" />
        <path
           inkscape:connector-curvature="0"
           d="m -1296.4871,-3775.5079 0,-4.2045 -17.8139,0 0,4.2045 6.8395,0 0,19.5241 4.1334,0 0,-19.5241 6.841,0 z m -21.7339,-4.2045 -4.2756,0 0,23.7286 4.2756,0 0,-23.7286 z m -8.9765,23.7286 -7.6961,-12.4697 6.9121,-11.2589 -4.9885,0 -4.489,7.2678 -4.489,-7.2678 -5.1308,0 7.1271,11.2589 -7.7688,12.4697 4.9885,0 5.273,-8.409 5.273,8.409 4.9885,0 z m -23.8724,0 0,-4.2045 -13.3944,0 0,-6.4838 7.0529,0 0,-4.3468 -7.0529,0 0,-4.4179 12.9692,0 0,-4.2756 -17.3159,0 0,23.7286 17.7411,0 z"
           style="fill:#000000;fill-opacity:1;fill-rule:evenodd;stroke:none"
           id="path6823" />
        <path
           inkscape:connector-curvature="0"
           d="m -1287.7226,-3714.3701 0,-23.7286 -4.0623,0 0,15.6057 -10.9017,-15.6057 -4.2045,0 0,23.7286 4.2045,0 0,-16.3185 11.3285,16.3185 3.6355,0 z m -23.9405,0 0,-4.2756 -13.3975,0 0,-6.4838 7.1256,0 0,-4.3468 -7.1256,0 0,-4.4179 13.0388,0 0,-4.2045 -17.3144,0 0,23.7286 17.6731,0 z m -25.796,-16.5319 c 0,1.7814 -1.4258,2.921 -3.4917,2.921 l -6.9121,0 0,-5.9132 6.9121,0 c 2.0659,0 3.4917,1.2108 3.4917,2.9922 m 4.2756,0 c 0,-2.6365 -1.4242,-4.9885 -3.705,-6.1993 -1.3546,-0.784 -2.4232,-0.9974 -4.2045,-0.9974 l -11.1151,0 0,23.7286 4.3452,0 0,-9.3352 6.7699,0 c 1.7813,0 2.8499,-0.2134 4.2045,-0.9263 2.2808,-1.2819 3.705,-3.7761 3.705,-6.2704 m -28.7171,4.6313 c 0,3.6339 -1.0685,8.0518 -5.556,8.0518 -3.5628,0 -5.7725,-2.9922 -5.7725,-8.0518 0,-5.0581 2.2097,-8.0518 5.7725,-8.0518 3.5612,0 5.556,2.9937 5.556,8.0518 m 4.2756,-0.1423 c 0,-7.1966 -3.9895,-12.114 -9.8316,-12.114 -6.272,0 -10.0481,4.6328 -10.0481,12.2563 0,5.9859 3.0648,12.3274 10.0481,12.3274 5.9859,0 9.8316,-5.0596 9.8316,-12.4697"
           style="fill:#000000;fill-opacity:1;fill-rule:evenodd;stroke:none"
           id="path6827" />
      </g>
    </g>
  </g>
</svg>
