<?xml version="1.0" encoding="UTF-8" standalone="no"?>
<!-- Generator: Adobe Illustrator 12.0.1, SVG Export Plug-In  -->

<svg
   xmlns:dc="http://purl.org/dc/elements/1.1/"
   xmlns:cc="http://creativecommons.org/ns#"
   xmlns:rdf="http://www.w3.org/1999/02/22-rdf-syntax-ns#"
   xmlns:svg="http://www.w3.org/2000/svg"
   xmlns="http://www.w3.org/2000/svg"
   xmlns:sodipodi="http://sodipodi.sourceforge.net/DTD/sodipodi-0.dtd"
   xmlns:inkscape="http://www.inkscape.org/namespaces/inkscape"
   version="1.1"
   width="309.8125"
   height="155.625"
   viewBox="-1 0 309.8125 155.625"
   enable-background="new -1 0 289 288"
   xml:space="preserve"
   id="svg2"
   inkscape:version="0.48.2 r9819"
   sodipodi:docname="MUTCD R11-2.svg"><metadata
   id="metadata22"><rdf:RDF><cc:Work
       rdf:about=""><dc:format>image/svg+xml</dc:format><dc:type
         rdf:resource="http://purl.org/dc/dcmitype/StillImage" /><dc:title></dc:title></cc:Work></rdf:RDF></metadata><sodipodi:namedview
   pagecolor="#ffffff"
   bordercolor="#666666"
   borderopacity="1"
   objecttolerance="10"
   gridtolerance="10"
   guidetolerance="10"
   inkscape:pageopacity="0"
   inkscape:pageshadow="2"
   inkscape:window-width="1280"
   inkscape:window-height="1004"
   id="namedview20"
   showgrid="false"
   fit-margin-top="0"
   fit-margin-left="0"
   fit-margin-right="0"
   fit-margin-bottom="0"
   inkscape:zoom="1.638889"
   inkscape:cx="132.74897"
   inkscape:cy="32.109075"
   inkscape:window-x="-8"
   inkscape:window-y="-8"
   inkscape:window-maximized="1"
   inkscape:current-layer="svg2"
   showguides="true"
   inkscape:guide-bbox="true" />
<defs
   id="defs4">
</defs>







<path
   inkscape:connector-curvature="0"
   d="m 308.05362,145.2495 c 0,5.29875 -4.335,9.63375 -9.63375,9.63375 l -289.02625,0 c -5.29875,0 -9.635,-4.335 -9.635,-9.63375 l 0,-134.87875 c 0,-5.29875 4.33625,-9.635 9.635,-9.635 l 289.02625,0 c 5.29875,0 9.63375,4.33625 9.63375,9.635 l 0,134.87875"
   style="fill:#ffffff;fill-opacity:1;fill-rule:nonzero;stroke:#000000;stroke-width:1.5;stroke-miterlimit:4;stroke-opacity:1;stroke-dasharray:none"
   id="path8459" /><path
   inkscape:connector-curvature="0"
   d="m 301.63088,145.2495 c 0,1.76625 -1.445,3.21125 -3.21125,3.21125 l -289.02625,0 c -1.76625,0 -3.21125,-1.445 -3.21125,-3.21125 l 0,-134.87875 c 0,-1.76625 1.445,-3.21125 3.21125,-3.21125 l 289.02625,0 c 1.76625,0 3.21125,1.445 3.21125,3.21125 l 0,134.87875 z m -3.21125,-141.94375 -289.02625,0 c -3.88625,0 -7.065,3.17875 -7.065,7.065 l 0,134.87875 c 0,3.88625 3.17875,7.065 7.065,7.065 l 289.02625,0 c 3.885,0 7.065,-3.17875 7.065,-7.065 l 0,-134.87875 c 0,-3.88625 -3.18,-7.065 -7.065,-7.065"
   style="fill:#000000;fill-opacity:1;fill-rule:nonzero;stroke:none"
   id="path8467" /><path
   inkscape:connector-curvature="0"
   d="m 50.18101,25.62824 -4.5675,0 0,7.765 4.5675,0 c 2.60375,0 3.97375,-1.41625 3.97375,-3.8825 0,-2.375 -1.59875,-3.8825 -3.97375,-3.8825 m 3.79125,26.49 -4.11125,-14.4775 -4.2475,0 0,14.4775 -4.43,0 0,-30.82875 9.22625,0 c 4.84125,0 8.08375,3.2425 8.08375,8.22125 0,3.69875 -1.5075,6.39375 -4.43,7.445 l 4.43,15.1625 -4.52125,0"
   style="fill:#000000;fill-opacity:1;fill-rule:nonzero;stroke:none"
   id="path8471" /><path
   inkscape:connector-curvature="0"
   d="M 76.03187,28.9625 C 75.25562,26.2675 74.06812,25.08 72.24062,25.08 c -1.96375,0 -3.105,1.1875 -3.9275,3.79125 -0.685,2.375 -0.96,4.43 -0.96,7.90125 0,3.33375 0.275,5.29875 0.96,7.765 0.73,2.6025 1.96375,3.79 3.9275,3.79 1.8275,0 3.015,-1.1875 3.79125,-3.79 0.73125,-2.46625 0.95875,-4.34 0.95875,-7.9025 0,-3.425 -0.31875,-5.38875 -0.95875,-7.6725 m 3.425,18.40625 c -1.5525,3.65375 -3.79,5.2975 -7.21625,5.2975 -3.7,0 -5.84625,-1.64375 -7.35375,-5.2975 -1.27875,-3.06 -1.735,-5.9375 -1.735,-10.73375 0,-4.65875 0.41125,-7.76375 1.735,-10.6875 1.59875,-3.69875 3.79125,-5.20625 7.35375,-5.20625 3.5625,0 5.66375,1.5525 7.21625,5.29875 1.27875,3.06 1.73625,5.93625 1.73625,10.595 0,4.79625 -0.4575,7.765 -1.73625,10.73375"
   style="fill:#000000;fill-opacity:1;fill-rule:nonzero;stroke:none"
   id="path8475" /><path
   inkscape:connector-curvature="0"
   d="m 94.62087,30.46962 -2.14625,8.90625 4.42875,0 -2.2825,-8.90625 z m 5.52625,21.64875 -2.14625,-8.44875 -6.6225,0 -2.055,8.44875 -4.43125,0 7.67375,-30.82875 4.3375,0 7.67375,30.82875 -4.43,0 z"
   style="fill:#000000;fill-opacity:1;fill-rule:nonzero;stroke:none"
   id="path8479" /><path
   inkscape:connector-curvature="0"
   d="m 121.06501,28.734 c -0.8225,-2.14625 -2.055,-3.10625 -4.01875,-3.10625 l -3.7,0 0,22.1525 3.7,0 c 2.6025,0 4.065,-2.01 4.43,-4.43125 0.27375,-1.9175 0.41125,-4.11 0.41125,-6.485 0,-3.47125 -0.36625,-6.805 -0.8225,-8.13 m 0.73125,21.96875 c -1.1425,0.91375 -2.60375,1.41625 -4.34,1.41625 l -8.54,0 0,-30.83 7.90125,0 c 2.60375,0 3.8825,0.365 4.97875,1.1875 1.82625,1.325 3.105,3.7 3.69875,6.805 0.41125,2.28375 0.73125,4.97875 0.73125,7.35375 0,7.17125 -1.46125,11.6475 -4.43,14.0675"
   style="fill:#000000;fill-opacity:1;fill-rule:nonzero;stroke:none"
   id="path8483" /><path
   inkscape:connector-curvature="0"
   d="m 152.27276,52.66687 c -6.5775,0 -9.5,-5.29875 -9.5,-16.67125 0,-9.95625 3.10625,-15.255 9.18,-15.255 5.11625,0 7.765,4.5675 7.9925,8.77 l -4.43,0 c -0.41125,-3.015 -1.59875,-4.43 -3.65375,-4.43 -3.5625,0 -4.88625,2.78625 -4.88625,10.82375 0,8.86125 1.50625,12.42375 5.2975,12.42375 2.60375,0 3.2425,-2.14625 3.2425,-4.43 l 4.43,0 c -0.0913,5.06875 -3.33375,8.76875 -7.6725,8.76875"
   style="fill:#000000;fill-opacity:1;fill-rule:nonzero;stroke:none"
   id="path8487" /><path
   inkscape:connector-curvature="0"
   d="m 166.11099,52.11876 0,-30.83 4.43,0 0,26.71875 11.28125,0 0,4.11125 -15.71125,0 z"
   style="fill:#000000;fill-opacity:1;fill-rule:nonzero;stroke:none"
   id="path8491" /><path
   inkscape:connector-curvature="0"
   d="m 198.40124,28.9625 c -0.77625,-2.695 -1.96375,-3.8825 -3.79125,-3.8825 -1.96375,0 -3.105,1.1875 -3.9275,3.79125 -0.685,2.375 -0.95875,4.43 -0.95875,7.90125 0,3.33375 0.27375,5.29875 0.95875,7.765 0.73125,2.6025 1.96375,3.79 3.9275,3.79 1.8275,0 3.015,-1.1875 3.79125,-3.79 0.73125,-2.46625 0.95875,-4.34 0.95875,-7.9025 0,-3.425 -0.31875,-5.38875 -0.95875,-7.6725 m 3.425,18.40625 c -1.5525,3.65375 -3.79,5.2975 -7.21625,5.2975 -3.69875,0 -5.84625,-1.64375 -7.3525,-5.2975 -1.28,-3.06 -1.73625,-5.9375 -1.73625,-10.73375 0,-4.65875 0.41125,-7.76375 1.73625,-10.6875 1.5975,-3.69875 3.79,-5.20625 7.3525,-5.20625 3.5625,0 5.66375,1.5525 7.21625,5.29875 1.27875,3.06 1.73625,5.93625 1.73625,10.595 0,4.79625 -0.4575,7.765 -1.73625,10.73375"
   style="fill:#000000;fill-opacity:1;fill-rule:nonzero;stroke:none"
   id="path8495" /><path
   inkscape:connector-curvature="0"
   d="m 216.85338,52.66687 c -5.39,0 -8.6775,-4.5675 -8.6775,-9.6375 l 4.33875,0 c 0,2.60375 1.32375,5.29875 4.33875,5.29875 2.375,0 4.33875,-2.14625 4.33875,-4.65875 0,-3.65375 -3.15125,-4.8875 -7.6725,-8.08375 -2.74125,-1.965 -3.79125,-4.11125 -3.79125,-6.85125 0,-4.43125 3.425,-7.99375 7.90125,-7.99375 4.29375,0 7.67375,3.38 7.765,7.99375 l -4.2025,0 c -0.13625,-2.1475 -1.64375,-3.5625 -3.5625,-3.5625 -2.055,0 -3.7,1.5075 -3.7,3.5625 0,1.5525 0.64,2.375 2.92375,3.69875 5.9375,3.42625 8.54125,6.80625 8.54125,11.23625 0,4.97875 -3.79125,8.9975 -8.54125,8.9975"
   style="fill:#000000;fill-opacity:1;fill-rule:nonzero;stroke:none"
   id="path8499" /><path
   inkscape:connector-curvature="0"
   d="m 230.64662,52.11876 0,-30.83 14.52375,0 0,4.34 -10.09375,0 0,7.76375 6.39375,0 0,4.2475 -6.39375,0 0,10.14 11.28125,0 0,4.33875 -15.71125,0 z"
   style="fill:#000000;fill-opacity:1;fill-rule:nonzero;stroke:none"
   id="path8503" /><path
   inkscape:connector-curvature="0"
   d="m 263.71338,28.734 c -0.8225,-2.14625 -2.055,-3.10625 -4.01875,-3.10625 l -3.7,0 0,22.1525 3.7,0 c 2.6025,0 4.065,-2.01 4.43,-4.43125 0.27375,-1.9175 0.41125,-4.11 0.41125,-6.485 0,-3.47125 -0.36625,-6.805 -0.8225,-8.13 m 0.73125,21.96875 c -1.1425,0.91375 -2.60375,1.41625 -4.34,1.41625 l -8.54,0 0,-30.83 7.90125,0 c 2.60375,0 3.8825,0.365 4.97875,1.1875 1.82625,1.325 3.105,3.7 3.69875,6.805 0.41125,2.28375 0.73125,4.97875 0.73125,7.35375 0,7.17125 -1.46125,11.6475 -4.43,14.0675"
   style="fill:#000000;fill-opacity:1;fill-rule:nonzero;stroke:none"
   id="path8507" /><path
   inkscape:connector-curvature="0"
   d="m 98.39888,95.15088 0,-14.42375 -4.7575,14.42375 -4.795,-14.42375 0,14.42375 -3.69125,0 0,-25.69 3.69125,0 4.795,14.425 4.7575,-14.425 3.73,0 0,25.69 -3.73,0 z"
   style="fill:#000000;fill-opacity:1;fill-rule:nonzero;stroke:none"
   id="path8511" /><path
   inkscape:connector-curvature="0"
   d="m 107.76125,69.46125 3.61625,0 0,25.69 -3.61625,0 0,-25.69 z"
   style="fill:#000000;fill-opacity:1;fill-rule:nonzero;stroke:none"
   id="path8513" /><path
   inkscape:connector-curvature="0"
   d="m 117.00938,95.15088 0,-25.69 3.69125,0 0,22.265 9.40125,0 0,3.425 -13.0925,0 z"
   style="fill:#000000;fill-opacity:1;fill-rule:nonzero;stroke:none"
   id="path8517" /><path
   inkscape:connector-curvature="0"
   d="m 133.67862,95.15088 0,-25.69 12.1025,0 0,3.61625 -8.41125,0 0,6.47 5.32875,0 0,3.53875 -5.32875,0 0,8.44875 9.40125,0 0,3.61625 -13.0925,0 z"
   style="fill:#000000;fill-opacity:1;fill-rule:nonzero;stroke:none"
   id="path8521" /><path
   inkscape:connector-curvature="0"
   d="m 157.04624,95.60762 c -4.49,0 -7.23125,-3.80625 -7.23125,-8.03125 l 3.61625,0 c 0,2.17 1.10375,4.415 3.615,4.415 1.97875,0 3.615,-1.78875 3.615,-3.88125 0,-3.045 -2.625,-4.0725 -6.39375,-6.73625 -2.2825,-1.6375 -3.1575,-3.425 -3.1575,-5.70875 0,-3.6925 2.85375,-6.66 6.58375,-6.66 3.5775,0 6.39375,2.81625 6.47,6.66 l -3.5025,0 c -0.11375,-1.78875 -1.36875,-2.96875 -2.9675,-2.96875 -1.7125,0 -3.08375,1.25625 -3.08375,2.96875 0,1.29375 0.53375,1.97875 2.43625,3.0825 4.9475,2.85375 7.1175,5.67125 7.1175,9.3625 0,4.14875 -3.16,7.4975 -7.1175,7.4975"
   style="fill:#000000;fill-opacity:1;fill-rule:nonzero;stroke:none"
   id="path8525" /><path
   inkscape:connector-curvature="0"
   d="m 186.44561,77.11137 -1.78875,7.42125 3.6925,0 -1.90375,-7.42125 z m 4.605,18.04 -1.78875,-7.04125 -5.5175,0 -1.71375,7.04125 -3.69125,0 6.39375,-25.69 3.61625,0 6.3925,25.69 -3.69125,0 z"
   style="fill:#000000;fill-opacity:1;fill-rule:nonzero;stroke:none"
   id="path8529" /><path
   inkscape:connector-curvature="0"
   d="m 209.09025,95.15088 0,-11.64625 -7.04125,0 0,11.64625 -3.69125,0 0,-25.69 3.69125,0 0,10.46625 7.04125,0 0,-10.46625 3.69125,0 0,25.69 -3.69125,0 z"
   style="fill:#000000;fill-opacity:1;fill-rule:nonzero;stroke:none"
   id="path8533" /><path
   inkscape:connector-curvature="0"
   d="m 218.41411,95.15088 0,-25.69 12.1025,0 0,3.61625 -8.41125,0 0,6.47 5.32875,0 0,3.53875 -5.32875,0 0,8.44875 9.40125,0 0,3.61625 -13.0925,0 z"
   style="fill:#000000;fill-opacity:1;fill-rule:nonzero;stroke:none"
   id="path8537" /><path
   inkscape:connector-curvature="0"
   d="m 241.89662,77.11137 -1.78875,7.42125 3.69125,0 -1.9025,-7.42125 z m 4.605,18.04 -1.78875,-7.04125 -5.51875,0 -1.7125,7.04125 -3.6925,0 6.395,-25.69 3.615,0 6.39375,25.69 -3.69125,0 z"
   style="fill:#000000;fill-opacity:1;fill-rule:nonzero;stroke:none"
   id="path8541" /><path
   inkscape:connector-curvature="0"
   d="m 263.93175,75.66475 c -0.685,-1.78875 -1.7125,-2.5875 -3.34875,-2.5875 l -3.08375,0 0,18.4575 3.08375,0 c 2.16875,0 3.38625,-1.67375 3.69125,-3.69125 0.22875,-1.59875 0.3425,-3.425 0.3425,-5.40375 0,-2.8925 -0.305,-5.67125 -0.685,-6.775 M 264.5405,93.971 c -0.95125,0.76125 -2.17,1.18 -3.615,1.18 l -7.1175,0 0,-25.69 6.58375,0 c 2.17,0 3.235,0.305 4.14875,0.99 1.5225,1.10375 2.58875,3.0825 3.0825,5.67 0.3425,1.9025 0.60875,4.14875 0.60875,6.1275 0,5.97625 -1.2175,9.705 -3.69125,11.7225"
   style="fill:#000000;fill-opacity:1;fill-rule:nonzero;stroke:none"
   id="path8545" /><path
   inkscape:connector-curvature="0"
   d="m 29.946,133.04687 0,-20.555 2.95375,0 0,17.815 7.52125,0 0,2.74 -10.475,0 z"
   style="fill:#000000;fill-opacity:1;fill-rule:nonzero;stroke:none"
   id="path8549" /><path
   inkscape:connector-curvature="0"
   d="m 51.47474,117.60863 c -0.5175,-1.7975 -1.31,-2.58875 -2.5275,-2.58875 -1.31,0 -2.07125,0.79125 -2.61875,2.5275 -0.45625,1.58375 -0.64,2.95375 -0.64,5.2675 0,2.22375 0.18375,3.5325 0.64,5.1775 0.4875,1.735 1.30875,2.52625 2.61875,2.52625 1.2175,0 2.01,-0.79125 2.5275,-2.52625 0.4875,-1.645 0.64,-2.89375 0.64,-5.26875 0,-2.28375 -0.21375,-3.5925 -0.64,-5.115 m 2.28375,12.27125 c -1.035,2.43625 -2.5275,3.5325 -4.81125,3.5325 -2.46625,0 -3.8975,-1.09625 -4.9025,-3.5325 -0.8525,-2.04 -1.1575,-3.95875 -1.1575,-7.15625 0,-3.105 0.27375,-5.17625 1.1575,-7.125 1.06625,-2.46625 2.5275,-3.47125 4.9025,-3.47125 2.375,0 3.77625,1.035 4.81125,3.5325 0.8525,2.04 1.1575,3.95875 1.1575,7.06375 0,3.1975 -0.305,5.1775 -1.1575,7.15625"
   style="fill:#000000;fill-opacity:1;fill-rule:nonzero;stroke:none"
   id="path8553" /><path
   inkscape:connector-curvature="0"
   d="m 64.9645,133.41225 c -4.385,0 -6.33375,-3.5325 -6.33375,-11.11375 0,-6.63875 2.07125,-10.17125 6.12,-10.17125 3.41125,0 5.1775,3.045 5.33,5.84625 l -2.95375,0 c -0.275,-2.01 -1.06625,-2.95375 -2.43625,-2.95375 -2.375,0 -3.25875,1.8575 -3.25875,7.21625 0,5.9075 1.005,8.2825 3.5325,8.2825 1.73625,0 2.1625,-1.43 2.1625,-2.9525 l 2.95375,0 c -0.0613,3.38 -2.22375,5.84625 -5.11625,5.84625"
   style="fill:#000000;fill-opacity:1;fill-rule:nonzero;stroke:none"
   id="path8557" /><path
   inkscape:connector-curvature="0"
   d="m 79.03275,118.61338 -1.43125,5.9375 2.95375,0 -1.5225,-5.9375 z m 3.685,14.43375 -1.4325,-5.63375 -4.415,0 -1.37,5.63375 -2.95375,0 5.11625,-20.555 2.8925,0 5.11625,20.555 -2.95375,0 z"
   style="fill:#000000;fill-opacity:1;fill-rule:nonzero;stroke:none"
   id="path8561" /><path
   inkscape:connector-curvature="0"
   d="m 88.5635,133.04687 0,-20.555 2.95375,0 0,17.815 7.52125,0 0,2.74 -10.475,0 z"
   style="fill:#000000;fill-opacity:1;fill-rule:nonzero;stroke:none"
   id="path8565" /><path
   inkscape:connector-curvature="0"
   d="m 122.2625,115.23286 0,17.81375 -2.985,0 0,-17.81375 -3.745,0 0,-2.74 10.475,0 0,2.74 -3.745,0 z"
   style="fill:#000000;fill-opacity:1;fill-rule:nonzero;stroke:none"
   id="path8569" /><path
   inkscape:connector-curvature="0"
   d="m 134.869,115.3855 -3.045,0 0,5.17625 3.045,0 c 1.735,0 2.64875,-0.94375 2.64875,-2.58875 0,-1.5825 -1.065,-2.5875 -2.64875,-2.5875 m 2.5275,17.66125 -2.74125,-9.6525 -2.83125,0 0,9.6525 -2.95375,0 0,-20.55375 6.15125,0 c 3.2275,0 5.39,2.16125 5.39,5.48 0,2.4675 -1.00625,4.26375 -2.95375,4.96375 l 2.95375,10.11 -3.015,0"
   style="fill:#000000;fill-opacity:1;fill-rule:nonzero;stroke:none"
   id="path8573" /><path
   inkscape:connector-curvature="0"
   d="m 148.75436,118.61338 -1.43125,5.9375 2.95375,0 -1.5225,-5.9375 z m 3.685,14.43375 -1.4325,-5.63375 -4.415,0 -1.37,5.63375 -2.95375,0 5.11625,-20.555 2.8925,0 5.11625,20.555 -2.95375,0 z"
   style="fill:#000000;fill-opacity:1;fill-rule:nonzero;stroke:none"
   id="path8577" /><path
   inkscape:connector-curvature="0"
   d="m 161.23887,115.3855 0,5.17625 4.11125,0 0,2.8325 -4.11125,0 0,9.6525 -2.95375,0 0,-20.55375 10.475,0 0,2.8925 -7.52125,0 z"
   style="fill:#000000;fill-opacity:1;fill-rule:nonzero;stroke:none"
   id="path8581" /><path
   inkscape:connector-curvature="0"
   d="m 174.57625,115.3855 0,5.17625 4.11,0 0,2.8325 -4.11,0 0,9.6525 -2.95375,0 0,-20.55375 10.475,0 0,2.8925 -7.52125,0 z"
   style="fill:#000000;fill-opacity:1;fill-rule:nonzero;stroke:none"
   id="path8585" /><path
   inkscape:connector-curvature="0"
   d="m 184.96,112.4925 2.8925,0 0,20.555 -2.8925,0 0,-20.555 z"
   style="fill:#000000;fill-opacity:1;fill-rule:nonzero;stroke:none"
   id="path8587" /><path
   inkscape:connector-curvature="0"
   d="m 198.29713,133.41225 c -4.385,0 -6.33375,-3.5325 -6.33375,-11.11375 0,-6.63875 2.07,-10.17125 6.12,-10.17125 3.41125,0 5.1775,3.045 5.32875,5.84625 l -2.95375,0 c -0.27375,-2.01 -1.065,-2.95375 -2.435,-2.95375 -2.375,0 -3.25875,1.8575 -3.25875,7.21625 0,5.9075 1.005,8.2825 3.5325,8.2825 1.735,0 2.16125,-1.43 2.16125,-2.9525 l 2.95375,0 c -0.06,3.38 -2.2225,5.84625 -5.115,5.84625"
   style="fill:#000000;fill-opacity:1;fill-rule:nonzero;stroke:none"
   id="path8591" /><path
   inkscape:connector-curvature="0"
   d="m 231.37674,117.60863 c -0.5175,-1.7975 -1.31,-2.58875 -2.5275,-2.58875 -1.31,0 -2.07,0.79125 -2.61875,2.5275 -0.4575,1.58375 -0.64,2.95375 -0.64,5.2675 0,2.22375 0.1825,3.5325 0.64,5.1775 0.48625,1.735 1.30875,2.52625 2.61875,2.52625 1.2175,0 2.01,-0.79125 2.5275,-2.52625 0.48625,-1.645 0.64,-2.89375 0.64,-5.26875 0,-2.28375 -0.21375,-3.5925 -0.64,-5.115 m 2.28375,12.27125 c -1.035,2.43625 -2.5275,3.5325 -4.81125,3.5325 -2.46625,0 -3.89875,-1.09625 -4.9025,-3.5325 -0.85375,-2.04 -1.1575,-3.95875 -1.1575,-7.15625 0,-3.105 0.27375,-5.17625 1.1575,-7.125 1.06625,-2.46625 2.5275,-3.47125 4.9025,-3.47125 2.375,0 3.77625,1.035 4.81125,3.5325 0.8525,2.04 1.15625,3.95875 1.15625,7.06375 0,3.1975 -0.30375,5.1775 -1.15625,7.15625"
   style="fill:#000000;fill-opacity:1;fill-rule:nonzero;stroke:none"
   id="path8595" /><path
   inkscape:connector-curvature="0"
   d="m 248.24664,133.04687 -6.36375,-13.76375 0,13.76375 -2.95375,0 0,-20.555 2.95375,0 5.6325,12.3325 0,-12.3325 2.95375,0 0,20.555 -2.2225,0 z"
   style="fill:#000000;fill-opacity:1;fill-rule:nonzero;stroke:none"
   id="path8599" /><path
   inkscape:connector-curvature="0"
   d="m 254.97625,133.04687 0,-20.555 2.95375,0 0,17.815 7.52125,0 0,2.74 -10.475,0 z"
   style="fill:#000000;fill-opacity:1;fill-rule:nonzero;stroke:none"
   id="path8603" /><path
   inkscape:connector-curvature="0"
   d="m 274.67786,123.72875 0,9.3175 -2.95375,0 0,-9.3175 -5.055,-11.23625 3.10625,0 3.47125,7.43 3.38,-7.43 3.16625,0 -5.115,11.23625 z"
   style="fill:#000000;fill-opacity:1;fill-rule:nonzero;stroke:none"
   id="path8607" /><path
   inkscape:connector-curvature="0"
   d="m 49.26587,94.28737 -4.0325,-8.34375 -4.0325,8.34375 -4.485,0 6.2225,-12.9325 -5.77125,-12.09875 4.485,0 3.58125,7.47375 3.615,-7.47375 4.485,0 -5.875,12.09875 6.2925,12.9325 -4.485,0 z"
   style="fill:#000000;fill-opacity:1;fill-rule:nonzero;stroke:none"
   id="path8611" /><path
   inkscape:connector-curvature="0"
   d="m 68.8385,94.28737 -4.0325,-8.34375 -4.0325,8.34375 -4.485,0 6.2225,-12.9325 -5.77125,-12.09875 4.485,0 3.58125,7.47375 3.615,-7.47375 4.485,0 -5.875,12.09875 6.2925,12.9325 -4.485,0 z"
   style="fill:#000000;fill-opacity:1;fill-rule:nonzero;stroke:none"
   id="path8615" /></svg>