<?xml version="1.0" encoding="UTF-8" standalone="no"?>
<!-- Created with Inkscape (http://www.inkscape.org/) -->

<svg
   xmlns:ns="http://ns.adobe.com/SaveForWeb/1.0/"
   xmlns:dc="http://purl.org/dc/elements/1.1/"
   xmlns:cc="http://creativecommons.org/ns#"
   xmlns:rdf="http://www.w3.org/1999/02/22-rdf-syntax-ns#"
   xmlns:svg="http://www.w3.org/2000/svg"
   xmlns="http://www.w3.org/2000/svg"
   xmlns:sodipodi="http://sodipodi.sourceforge.net/DTD/sodipodi-0.dtd"
   xmlns:inkscape="http://www.inkscape.org/namespaces/inkscape"
   version="1.1"
   width="225.1875"
   height="281.15625"
   viewBox="0 0 225.1875 281.15625"
   id="svg2"
   xml:space="preserve"
   inkscape:version="0.48.2 r9819"
   sodipodi:docname="MUTCD R4-8a.svg"><sodipodi:namedview
   pagecolor="#ffffff"
   bordercolor="#666666"
   borderopacity="1"
   objecttolerance="10"
   gridtolerance="10"
   guidetolerance="10"
   inkscape:pageopacity="0"
   inkscape:pageshadow="2"
   inkscape:window-width="1280"
   inkscape:window-height="1004"
   id="namedview9"
   showgrid="false"
   fit-margin-top="0"
   fit-margin-left="0"
   fit-margin-right="0"
   fit-margin-bottom="0"
   inkscape:zoom="1.9492846"
   inkscape:cx="98.913616"
   inkscape:cy="156.80517"
   inkscape:window-x="-8"
   inkscape:window-y="-8"
   inkscape:window-maximized="1"
   inkscape:current-layer="svg2" /><defs
   id="defs11" />
<metadata
   id="metadata3">
	<ns:sfw>
		<ns:slices />
		<ns:sliceSourceBounds
   bottomLeftOrigin="true"
   x="-75"
   y="93"
   width="745"
   height="655" />
	</ns:sfw>
	<rdf:RDF>
		<cc:Work
   rdf:about="">
			<dc:format>image/svg+xml</dc:format>
			<dc:type
   rdf:resource="http://purl.org/dc/dcmitype/StillImage" />
			<dc:title></dc:title>
		</cc:Work>
	</rdf:RDF>
	<ns:sfw>
		<ns:slices />
		<ns:sliceSourceBounds
   bottomLeftOrigin="true"
   x="-75"
   y="93"
   width="745"
   height="655" />
	</ns:sfw>
</metadata>




<path
   inkscape:connector-curvature="0"
   d="m 224.44551,266.40975 c 0,7.69 -6.29125,13.98125 -13.98125,13.98125 l -195.7425,0 c -7.68875,0 -13.98125,-6.29125 -13.98125,-13.98125 l 0,-251.6675 c 0,-7.69 6.2925,-13.9825 13.98125,-13.9825 l 195.7425,0 c 7.69,0 13.98125,6.2925 13.98125,13.9825 l 0,251.6675 z"
   style="fill:#ffffff;fill-opacity:1;fill-rule:nonzero;stroke:#000000;stroke-width:1.5;stroke-miterlimit:4;stroke-opacity:1;stroke-dasharray:none"
   id="path9133" /><path
   inkscape:connector-curvature="0"
   d="m 210.46388,4.25549 -195.74125,0 c -5.7675,0 -10.48625,4.71875 -10.48625,10.48625 l 0,251.6675 c 0,5.7675 4.71875,10.48625 10.48625,10.48625 l 195.74125,0 c 5.7675,0 10.48625,-4.71875 10.48625,-10.48625 l 0,-251.6675 c 0,-5.7675 -4.71875,-10.48625 -10.48625,-10.48625 m 4.66125,262.15375 c 0,2.56375 -2.0975,4.66125 -4.66125,4.66125 l -195.74125,0 c -2.56375,0 -4.66125,-2.0975 -4.66125,-4.66125 l 0,-251.6675 c 0,-2.56375 2.0975,-4.66 4.66125,-4.66 l 195.74125,0 c 2.56375,0 4.66125,2.09625 4.66125,4.66 l 0,251.6675 z"
   style="fill:#000000;fill-opacity:1;fill-rule:nonzero;stroke:none"
   id="path9141" /><path
   inkscape:connector-curvature="0"
   d="m 56.2695,82.56212 c -8.01,0 -13.87875,-4.765 -16.98625,-11.8075 l 7.0425,-2.62375 c 1.93375,4.41875 5.525,6.905 9.94375,6.905 4.28125,0 7.18125,-2.96875 7.18125,-6.905 0,-6.215 -7.18125,-7.18125 -13.2575,-9.5975 -2.7625,-1.175 -8.97625,-3.93625 -8.97625,-11.60125 0,-9.1825 6.21375,-12.63625 14.56875,-12.63625 6.56,0 10.97875,3.79875 13.2575,9.53 l -6.56,1.9325 c -0.69,-2.07125 -3.65875,-4.07375 -6.97375,-4.07375 -3.52125,0 -7.3875,1.105 -7.11125,5.38625 0.69,8.63125 22.57875,2.96875 22.57875,21.2675 0,8.4925 -6.3525,14.22375 -14.7075,14.22375"
   style="fill:#000000;fill-opacity:1;fill-rule:nonzero;stroke:none"
   id="path9145" /><path
   inkscape:connector-curvature="0"
   d="m 92.72736,41.68475 0,40.04875 -7.38875,0 0,-40.04875 -10.63375,0 0,-6.56 28.79375,0 0,6.56 -10.77125,0 z"
   style="fill:#000000;fill-opacity:1;fill-rule:nonzero;stroke:none"
   id="path9149" /><path
   inkscape:connector-curvature="0"
   d="m 137.81586,81.73361 -4.5575,-13.05 -14.56875,0 -4.5575,13.05 -7.87125,0 16.01875,-46.60875 7.38875,0 16.01875,46.60875 -7.87125,0 z m -11.73875,-33.69625 -4.76375,13.12 9.32125,0 -4.5575,-13.12 z"
   style="fill:#000000;fill-opacity:1;fill-rule:nonzero;stroke:none"
   id="path9153" /><path
   inkscape:connector-curvature="0"
   d="m 169.7455,61.43314 0,20.3 -7.38875,0 0,-20.3 -16.36375,-26.3075 8.8375,0 11.1175,17.9525 11.32375,-17.9525 8.63125,0 -16.1575,26.3075 z"
   style="fill:#000000;fill-opacity:1;fill-rule:nonzero;stroke:none"
   id="path9157" /><path
   inkscape:connector-curvature="0"
   d="m 87.39,117.27125 7.52625,0 0,46.60875 -7.52625,0 0,-46.60875 z"
   style="fill:#000000;fill-opacity:1;fill-rule:nonzero;stroke:none"
   id="path9159" /><path
   inkscape:connector-curvature="0"
   d="m 131.30539,163.87987 -17.815,-31.555 0,31.555 -7.3875,0 0,-46.60875 7.3875,0 16.98625,29.76125 0,-29.76125 7.32,0 0,46.60875 -6.49125,0 z"
   style="fill:#000000;fill-opacity:1;fill-rule:nonzero;stroke:none"
   id="path9163" /><path
   inkscape:connector-curvature="0"
   d="m 37.64037,246.02612 0,-46.60875 7.38875,0 0,39.7725 21.5425,0 0,6.83625 -28.93125,0 z"
   style="fill:#000000;fill-opacity:1;fill-rule:nonzero;stroke:none"
   id="path9167" /><path
   inkscape:connector-curvature="0"
   d="m 100.88937,246.02612 -4.5575,-13.05 -14.56875,0 -4.5575,13.05 -7.8725,0 16.02,-46.60875 7.38875,0 16.01875,46.60875 -7.87125,0 z m -11.73875,-33.69625 -4.76375,13.12 9.32125,0 -4.5575,-13.12 z"
   style="fill:#000000;fill-opacity:1;fill-rule:nonzero;stroke:none"
   id="path9171" /><path
   inkscape:connector-curvature="0"
   d="m 140.93788,246.02612 -17.815,-31.555 0,31.555 -7.3875,0 0,-46.60875 7.3875,0 16.98625,29.76125 0,-29.76125 7.32,0 0,46.60875 -6.49125,0 z"
   style="fill:#000000;fill-opacity:1;fill-rule:nonzero;stroke:none"
   id="path9175" /><path
   inkscape:connector-curvature="0"
   d="m 158.61414,246.02612 0,-46.60875 27.48125,0 0,7.38875 -20.0925,0 0,11.39375 13.53375,0 0,7.52625 -13.53375,0 0,12.77375 21.5425,0 0,7.52625 -28.93125,0 z"
   style="fill:#000000;fill-opacity:1;fill-rule:nonzero;stroke:none"
   id="path9179" /></svg>