<?xml version="1.0" encoding="UTF-8" standalone="no"?>
<!-- Generator: Adobe Illustrator 12.0.1, SVG Export Plug-In  -->

<svg
   xmlns:dc="http://purl.org/dc/elements/1.1/"
   xmlns:cc="http://creativecommons.org/ns#"
   xmlns:rdf="http://www.w3.org/1999/02/22-rdf-syntax-ns#"
   xmlns:svg="http://www.w3.org/2000/svg"
   xmlns="http://www.w3.org/2000/svg"
   xmlns:sodipodi="http://sodipodi.sourceforge.net/DTD/sodipodi-0.dtd"
   xmlns:inkscape="http://www.inkscape.org/namespaces/inkscape"
   version="1.1"
   width="227.8125"
   height="285"
   viewBox="-0.603 0 227.8125 285"
   enable-background="new -0.603 0 232 288"
   xml:space="preserve"
   id="svg2"
   inkscape:version="0.48.2 r9819"
   sodipodi:docname="AJAX1.svg"><metadata
   id="metadata22"><rdf:RDF><cc:Work
       rdf:about=""><dc:format>image/svg+xml</dc:format><dc:type
         rdf:resource="http://purl.org/dc/dcmitype/StillImage" /></cc:Work></rdf:RDF></metadata><sodipodi:namedview
   pagecolor="#ffffff"
   bordercolor="#666666"
   borderopacity="1"
   objecttolerance="10"
   gridtolerance="10"
   guidetolerance="10"
   inkscape:pageopacity="0"
   inkscape:pageshadow="2"
   inkscape:window-width="1280"
   inkscape:window-height="1004"
   id="namedview20"
   showgrid="false"
   fit-margin-top="0"
   fit-margin-left="0"
   fit-margin-right="0"
   fit-margin-bottom="0"
   inkscape:zoom="1.1588694"
   inkscape:cx="219.37704"
   inkscape:cy="45.382788"
   inkscape:window-x="-8"
   inkscape:window-y="-8"
   inkscape:window-maximized="1"
   inkscape:current-layer="svg2" />
<defs
   id="defs4">
</defs>

<path
   d="m 22.7435,0.486 h 181.141 c 12.588,0 22.833,10.249 22.833,22.845 V 261.68 c 0,12.589 -10.245,22.834 -22.833,22.834 H 22.7435 c -12.6,0 -22.85,-10.245 -22.85,-22.834 V 23.332 c 0,-12.597 10.25,-22.846 22.85,-22.846 z"
   id="path8"
   style="fill:#ffffff;stroke:#000000;stroke-opacity:1"
   inkscape:connector-curvature="0" />

<path
   clip-rule="evenodd"
   d="M 203.7945,280.541 H 22.8285 c -10.532,0 -19.063,-8.515 -19.063,-19.047 V 23.108 c 0,-10.53 8.53,-19.055 19.063,-19.055 h 180.966 c 10.532,0 19.052,8.525 19.052,19.055 v 238.386 c 0,10.517 -8.532,19.047 -19.052,19.047"
   id="path12"
   inkscape:connector-curvature="0"
   style="fill:#000000;fill-rule:evenodd;stroke:none" />
<path
   clip-rule="evenodd"
   d="M 203.7825,273.419 H 22.8405 c -6.587,0 -11.905,-5.326 -11.905,-11.894 V 23.124 c 0,-6.582 5.318,-11.9 11.905,-11.9 h 180.942 c 6.572,0 11.895,5.318 11.895,11.9 v 238.401 c 0,6.579 -5.315,11.894 -11.895,11.894"
   id="path14"
   inkscape:connector-curvature="0"
   style="fill:#ffffff;fill-rule:evenodd;stroke:none" />
<path
   clip-rule="evenodd"
   d="m 50.6125,98.152 v 32.117 c 0,8.484 1.07,16.944 3.119,25.169 2.742,10.924 7.114,21.452 13.011,31.05 3.589,5.835 7.735,11.285 11.553,16.976 2.103,3.143 3.957,6.444 5.548,9.873 4.174,9.035 6.455,18.865 6.455,28.819 v 24.665 h 39.68 v -24.665 c 0,-17.503 -3.848,-35.038 -11.766,-50.679 -2.099,-4.167 -4.597,-8.139 -7.468,-11.832 -1.998,-2.572 -4.046,-5.121 -6.133,-7.627 -2.685,-3.235 -5.237,-6.447 -7.119,-10.218 -4.941,-9.916 -6.715,-21.115 -6.784,-32.109 l -0.14,-31.407 23.159,7.588 c 0.722,0.241 1.458,0.376 2.219,0.392 2.929,0.074 5.552,-1.121 7.208,-3.581 1.605,-2.386 1.691,-5.5 0.48,-8.069 -0.356,-0.733 -0.915,-1.311 -1.373,-1.971 L 71.0085,18.636 18.7535,92.767 c -0.399,0.578 -1.574,2.048 -1.854,3.018 -0.249,0.815 -0.357,1.653 -0.342,2.499 0.035,3.86 2.708,7.208 6.533,7.995 1.458,0.307 2.955,0.058 4.36,-0.407 l 23.162,-7.72"
   id="path16"
   inkscape:connector-curvature="0"
   style="fill:#000000;fill-rule:evenodd;stroke:none" />
<path
   clip-rule="evenodd"
   d="m 130.3325,43.572 c 0.189,7.877 0.372,15.766 0.892,23.627 0.85,12.86 2.596,25.669 5.257,38.27 1.951,9.202 4.399,18.287 6.979,27.333 2.196,7.688 4.822,15.288 8.24,22.535 0.555,1.171 1.202,2.304 1.936,3.379 2.351,3.448 5.086,5.869 8.988,7.444 4.899,1.963 10.513,1.893 15.39,-0.155 5.063,-2.13 8.658,-6.168 10.741,-11.219 1.858,-4.504 3.526,-9.09 4.993,-13.745 2.083,-6.626 3.972,-13.321 5.659,-20.06 4.435,-17.787 8.05,-35.802 9.377,-54.108 0.559,-7.751 0.745,-15.537 0.915,-23.301 h -79.367"
   id="path18"
   inkscape:connector-curvature="0"
   style="fill:#000000;fill-rule:evenodd;stroke:none" />
</svg>