<?xml version="1.0" encoding="UTF-8" standalone="no"?>
<!-- Generator: Adobe Illustrator 12.0.1, SVG Export Plug-In  -->

<svg
   xmlns:dc="http://purl.org/dc/elements/1.1/"
   xmlns:cc="http://creativecommons.org/ns#"
   xmlns:rdf="http://www.w3.org/1999/02/22-rdf-syntax-ns#"
   xmlns:svg="http://www.w3.org/2000/svg"
   xmlns="http://www.w3.org/2000/svg"
   xmlns:sodipodi="http://sodipodi.sourceforge.net/DTD/sodipodi-0.dtd"
   xmlns:inkscape="http://www.inkscape.org/namespaces/inkscape"
   version="1.1"
   width="306.03125"
   height="153.75"
   viewBox="-0.999 0 306.03125 153.75"
   enable-background="new -0.999 0 289 289"
   xml:space="preserve"
   id="svg2"
   inkscape:version="0.48.2 r9819"
   sodipodi:docname="MUTCD R9-11.svg"><metadata
   id="metadata18"><rdf:RDF><cc:Work
       rdf:about=""><dc:format>image/svg+xml</dc:format><dc:type
         rdf:resource="http://purl.org/dc/dcmitype/StillImage" /><dc:title></dc:title></cc:Work></rdf:RDF></metadata><sodipodi:namedview
   pagecolor="#ffffff"
   bordercolor="#666666"
   borderopacity="1"
   objecttolerance="10"
   gridtolerance="10"
   guidetolerance="10"
   inkscape:pageopacity="0"
   inkscape:pageshadow="2"
   inkscape:window-width="1280"
   inkscape:window-height="1004"
   id="namedview16"
   showgrid="false"
   fit-margin-top="0"
   fit-margin-left="0"
   fit-margin-right="0"
   fit-margin-bottom="0"
   inkscape:zoom="1.633218"
   inkscape:cx="46.490391"
   inkscape:cy="21.474155"
   inkscape:window-x="-8"
   inkscape:window-y="-8"
   inkscape:window-maximized="1"
   inkscape:current-layer="svg2" />
<defs
   id="defs4">
</defs>





<path
   inkscape:connector-curvature="0"
   d="m 304.29112,133.97712 c 0,10.46875 -8.565,19.03375 -19.03375,19.03375 l -266.46375,0 c -10.4675,0 -19.0325,-8.565 -19.0325,-19.03375 l 0,-114.19875 c 0,-10.46875 8.565,-19.03375 19.0325,-19.03375 l 266.46375,0 c 10.46875,0 19.03375,8.565 19.03375,19.03375 l 0,114.19875 z"
   style="fill:#ffffff;fill-opacity:1;fill-rule:nonzero;stroke:#000000;stroke-width:1.5;stroke-miterlimit:4;stroke-opacity:1;stroke-dasharray:none"
   id="path4953" /><path
   inkscape:connector-curvature="0"
   d="m 285.25786,5.50325 -266.46375,0 c -7.85125,0 -14.275,6.42375 -14.275,14.275 l 0,114.19875 c 0,7.85125 6.42375,14.275 14.275,14.275 l 266.46375,0 c 7.85125,0 14.275,-6.42375 14.275,-14.275 l 0,-114.19875 c 0,-7.85125 -6.42375,-14.275 -14.275,-14.275 m 6.345,128.47375 c 0,3.49 -2.855,6.345 -6.345,6.345 l -266.46375,0 c -3.49,0 -6.345,-2.855 -6.345,-6.345 l 0,-114.19875 c 0,-3.49 2.855,-6.345 6.345,-6.345 l 266.46375,0 c 3.49,0 6.345,2.855 6.345,6.345 l 0,114.19875 z"
   style="fill:#000000;fill-opacity:1;fill-rule:nonzero;stroke:none"
   id="path4961" /><path
   inkscape:connector-curvature="0"
   d="m 32.69912,48.77688 c -4.435,0 -7.1425,-3.75875 -7.1425,-7.93125 l 3.57125,0 c 0,2.1425 1.09,4.36 3.57125,4.36 1.955,0 3.57125,-1.76625 3.57125,-3.83375 0,-3.0075 -2.59375,-4.0225 -6.315,-6.65375 -2.25625,-1.61625 -3.12,-3.38375 -3.12,-5.63875 0,-3.64625 2.81875,-6.5775 6.5025,-6.5775 3.53375,0 6.315,2.78125 6.39125,6.5775 l -3.45875,0 c -0.1125,-1.76625 -1.35375,-2.93125 -2.9325,-2.93125 -1.69125,0 -3.045,1.24 -3.045,2.93125 0,1.27875 0.52625,1.955 2.40625,3.045 4.88625,2.81875 7.03,5.60125 7.03,9.2475 0,4.0975 -3.12,7.405 -7.03,7.405"
   style="fill:#000000;fill-opacity:1;fill-rule:nonzero;stroke:none"
   id="path4965" /><path
   inkscape:connector-curvature="0"
   d="m 44.05125,22.9525 3.57125,0 0,25.37375 -3.57125,0 0,-25.37375 z"
   style="fill:#000000;fill-opacity:1;fill-rule:nonzero;stroke:none"
   id="path4967" /><path
   inkscape:connector-curvature="0"
   d="m 63.78587,47.16051 c -0.94,0.75125 -2.1425,1.165 -3.57125,1.165 l -7.02875,0 0,-25.3725 6.5025,0 c 2.1425,0 3.195,0.3 4.0975,0.97625 1.50375,1.09 2.55625,3.045 3.045,5.60125 0.33875,1.88 0.60125,4.0975 0.60125,6.0525 0,5.90125 -1.2025,9.585 -3.64625,11.5775 M 63.18462,29.07926 c -0.67625,-1.76625 -1.69125,-2.55625 -3.30875,-2.55625 l -3.04375,0 0,18.23125 3.04375,0 c 2.14375,0 3.34625,-1.65375 3.64625,-3.64625 0.22625,-1.57875 0.33875,-3.3825 0.33875,-5.3375 0,-2.85625 -0.3,-5.60125 -0.67625,-6.69125"
   style="fill:#000000;fill-opacity:1;fill-rule:nonzero;stroke:none"
   id="path4971" /><path
   inkscape:connector-curvature="0"
   d="m 72.50675,48.32587 0,-25.37375 11.95375,0 0,3.57125 -8.3075,0 0,6.39 5.2625,0 0,3.49625 -5.2625,0 0,8.345 9.285,0 0,3.57125 -12.93125,0 z"
   style="fill:#000000;fill-opacity:1;fill-rule:nonzero;stroke:none"
   id="path4975" /><path
   inkscape:connector-curvature="0"
   d="m 102.842,48.32587 -3.12,0 -2.40625,-13.27 -2.405,13.27 -3.195,0 -4.0225,-25.37375 3.57125,0 2.1425,13.5325 2.48125,-13.5325 2.85625,0 2.40625,13.5325 2.2175,-13.5325 3.57125,0 -4.0975,25.37375 z"
   style="fill:#000000;fill-opacity:1;fill-rule:nonzero;stroke:none"
   id="path4979" /><path
   inkscape:connector-curvature="0"
   d="m 120.99764,48.32587 -1.76625,-6.95375 -5.45125,0 -1.69125,6.95375 -3.64625,0 6.315,-25.37375 3.57125,0 6.315,25.37375 -3.64625,0 z m -4.54875,-17.8175 -1.76625,7.33 3.64625,0 -1.88,-7.33 z"
   style="fill:#000000;fill-opacity:1;fill-rule:nonzero;stroke:none"
   id="path4983" /><path
   inkscape:connector-curvature="0"
   d="m 128.21451,48.32587 0,-25.37375 3.64625,0 0,21.99125 9.285,0 0,3.3825 -12.93125,0 z"
   style="fill:#000000;fill-opacity:1;fill-rule:nonzero;stroke:none"
   id="path4987" /><path
   inkscape:connector-curvature="0"
   d="m 155.09113,48.32587 -4.435,-12.3675 -2.33125,4.2475 0,8.12 -3.64625,0 0,-25.37375 3.64625,0 0,10.15 5.78875,-10.15 4.21,0 -5.2625,8.90875 5.86375,16.465 -3.83375,0 z"
   style="fill:#000000;fill-opacity:1;fill-rule:nonzero;stroke:none"
   id="path4991" /><path
   inkscape:connector-curvature="0"
   d="m 182.528,48.77688 c -5.4125,0 -7.81875,-4.36 -7.81875,-13.72 0,-8.195 2.55625,-12.555 7.555,-12.555 4.21125,0 6.39125,3.75875 6.57875,7.21625 l -3.64625,0 c -0.3375,-2.48 -1.315,-3.64625 -3.0075,-3.64625 -2.93125,0 -4.02125,2.29375 -4.02125,8.90875 0,7.2925 1.24,10.225 4.36,10.225 2.1425,0 2.66875,-1.76625 2.66875,-3.64625 l 3.64625,0 c -0.075,4.1725 -2.74375,7.2175 -6.315,7.2175"
   style="fill:#000000;fill-opacity:1;fill-rule:nonzero;stroke:none"
   id="path4995" /><path
   inkscape:connector-curvature="0"
   d="m 193.9175,48.32587 0,-25.37375 3.64625,0 0,21.99125 9.285,0 0,3.3825 -12.93125,0 z"
   style="fill:#000000;fill-opacity:1;fill-rule:nonzero;stroke:none"
   id="path4999" /><path
   inkscape:connector-curvature="0"
   d="m 223.31263,44.41636 c -1.2775,3.0075 -3.12,4.36 -5.93875,4.36 -3.045,0 -4.8125,-1.3525 -6.0525,-4.36 -1.0525,-2.51875 -1.42875,-4.88625 -1.42875,-8.83375 0,-3.83375 0.33875,-6.39 1.42875,-8.79625 1.315,-3.045 3.12,-4.285 6.0525,-4.285 2.93125,0 4.66125,1.2775 5.93875,4.36 1.0525,2.51875 1.42875,4.8875 1.42875,8.72125 0,3.9475 -0.37625,6.39 -1.42875,8.83375 m -2.81875,-15.14875 c -0.64,-2.2175 -1.61625,-3.195 -3.12,-3.195 -1.61625,0 -2.55625,0.9775 -3.23375,3.12 -0.56375,1.955 -0.78875,3.64625 -0.78875,6.5025 0,2.745 0.225,4.36125 0.78875,6.39125 0.6025,2.1425 1.6175,3.12 3.23375,3.12 1.50375,0 2.48,-0.9775 3.12,-3.12 0.60125,-2.03 0.78875,-3.57125 0.78875,-6.50375 0,-2.81875 -0.2625,-4.435 -0.78875,-6.315"
   style="fill:#000000;fill-opacity:1;fill-rule:nonzero;stroke:none"
   id="path5003" /><path
   inkscape:connector-curvature="0"
   d="m 235.68,48.77688 c -4.43625,0 -7.1425,-3.75875 -7.1425,-7.93125 l 3.57125,0 c 0,2.1425 1.09,4.36 3.57125,4.36 1.955,0 3.57125,-1.76625 3.57125,-3.83375 0,-3.0075 -2.59375,-4.0225 -6.315,-6.65375 -2.25625,-1.61625 -3.12,-3.38375 -3.12,-5.63875 0,-3.64625 2.81875,-6.5775 6.5025,-6.5775 3.53375,0 6.315,2.78125 6.39,6.5775 l -3.4575,0 c -0.1125,-1.76625 -1.35375,-2.93125 -2.9325,-2.93125 -1.69125,0 -3.045,1.24 -3.045,2.93125 0,1.27875 0.52625,1.955 2.40625,3.045 4.88625,2.81875 7.02875,5.60125 7.02875,9.2475 0,4.0975 -3.12,7.405 -7.02875,7.405"
   style="fill:#000000;fill-opacity:1;fill-rule:nonzero;stroke:none"
   id="path5007" /><path
   inkscape:connector-curvature="0"
   d="m 247.03201,48.32587 0,-25.37375 11.95375,0 0,3.57125 -8.3075,0 0,6.39 5.2625,0 0,3.49625 -5.2625,0 0,8.345 9.285,0 0,3.57125 -12.93125,0 z"
   style="fill:#000000;fill-opacity:1;fill-rule:nonzero;stroke:none"
   id="path5011" /><path
   inkscape:connector-curvature="0"
   d="m 274.84862,47.16051 c -0.94,0.75125 -2.1425,1.165 -3.57125,1.165 l -7.02875,0 0,-25.3725 6.5025,0 c 2.1425,0 3.195,0.3 4.0975,0.97625 1.50375,1.09 2.55625,3.045 3.045,5.60125 0.33875,1.88 0.60125,4.0975 0.60125,6.0525 0,5.90125 -1.2025,9.585 -3.64625,11.5775 m -0.60125,-18.08125 c -0.67625,-1.76625 -1.69125,-2.55625 -3.3075,-2.55625 l -3.045,0 0,18.23125 3.045,0 c 2.1425,0 3.345,-1.65375 3.645,-3.64625 0.22625,-1.57875 0.33875,-3.3825 0.33875,-5.3375 0,-2.85625 -0.3,-5.60125 -0.67625,-6.69125"
   style="fill:#000000;fill-opacity:1;fill-rule:nonzero;stroke:none"
   id="path5015" /><path
   inkscape:connector-curvature="0"
   d="m 263.76336,66.73475 -192.83875,0 1.63125,-5.54875 c 0.2625,-1.02625 0.36375,-1.88375 -0.2025,-2.72 -0.84375,-1.245 -2.55375,-1.56875 -3.7975,-0.7225 l -28.2675,19.14625 28.2675,19.1225 c 1.24375,0.84625 2.95375,0.52125 3.7975,-0.725 0.5925,-0.87125 0.46,-1.70625 0.145,-2.835 l -1.57375,-5.395 192.83875,0 0,-20.3225 z"
   style="fill:#000000;fill-opacity:1;fill-rule:evenodd;stroke:none"
   id="path5019" /><path
   inkscape:connector-curvature="0"
   d="m 73.7515,131.25386 c -5.4125,0 -7.81875,-4.36 -7.81875,-13.72 0,-8.195 2.55625,-12.555 7.555,-12.555 4.21125,0 6.39125,3.75875 6.57875,7.21625 l -3.64625,0 c -0.3375,-2.48 -1.315,-3.64625 -3.0075,-3.64625 -2.93125,0 -4.02125,2.29375 -4.02125,8.91 0,7.2925 1.24,10.22375 4.36,10.22375 2.1425,0 2.66875,-1.76625 2.66875,-3.64625 l 3.64625,0 c -0.075,4.1725 -2.74375,7.2175 -6.315,7.2175"
   style="fill:#000000;fill-opacity:1;fill-rule:nonzero;stroke:none"
   id="path5023" /><path
   inkscape:connector-curvature="0"
   d="m 95.66611,130.80287 -3.3825,-11.91625 -3.49625,0 0,11.91625 -3.64625,0 0,-25.37375 7.5925,0 c 3.985,0 6.65375,2.66875 6.65375,6.76625 0,3.045 -1.24,5.2625 -3.64625,6.1275 l 3.64625,12.48 -3.72125,0 z m -3.12,-21.8025 -3.75875,0 0,6.39 3.75875,0 c 2.1425,0 3.27,-1.165 3.27,-3.195 0,-1.955 -1.315,-3.195 -3.27,-3.195"
   style="fill:#000000;fill-opacity:1;fill-rule:nonzero;stroke:none"
   id="path5027" /><path
   inkscape:connector-curvature="0"
   d="m 116.64125,126.8935 c -1.2775,3.0075 -3.12,4.36 -5.93875,4.36 -3.045,0 -4.8125,-1.3525 -6.0525,-4.36 -1.0525,-2.51875 -1.42875,-4.88625 -1.42875,-8.83375 0,-3.83375 0.33875,-6.39 1.42875,-8.79625 1.315,-3.045 3.12,-4.285 6.0525,-4.285 2.93125,0 4.66125,1.2775 5.93875,4.36 1.0525,2.51875 1.42875,4.8875 1.42875,8.72125 0,3.9475 -0.37625,6.39 -1.42875,8.83375 m -2.81875,-15.14875 c -0.64,-2.2175 -1.6175,-3.195 -3.12,-3.195 -1.6175,0 -2.55625,0.9775 -3.23375,3.12 -0.56375,1.95375 -0.78875,3.64625 -0.78875,6.5025 0,2.74375 0.225,4.36125 0.78875,6.39 0.6025,2.14375 1.61625,3.12 3.23375,3.12 1.5025,0 2.48,-0.97625 3.12,-3.12 0.60125,-2.02875 0.78875,-3.57 0.78875,-6.5025 0,-2.81875 -0.2625,-4.43625 -0.78875,-6.315"
   style="fill:#000000;fill-opacity:1;fill-rule:nonzero;stroke:none"
   id="path5031" /><path
   inkscape:connector-curvature="0"
   d="m 129.00839,131.25386 c -4.435,0 -7.1425,-3.75875 -7.1425,-7.93125 l 3.57125,0 c 0,2.1425 1.09,4.36 3.57125,4.36 1.955,0 3.57125,-1.76625 3.57125,-3.83375 0,-3.0075 -2.59375,-4.0225 -6.315,-6.65375 -2.25625,-1.61625 -3.12,-3.38375 -3.12,-5.63875 0,-3.64625 2.81875,-6.5775 6.5025,-6.5775 3.53375,0 6.315,2.78125 6.39,6.5775 l -3.4575,0 c -0.1125,-1.76625 -1.35375,-2.9325 -2.9325,-2.9325 -1.69125,0 -3.045,1.24125 -3.045,2.9325 0,1.27875 0.52625,1.955 2.40625,3.045 4.88625,2.81875 7.02875,5.60125 7.02875,9.2475 0,4.0975 -3.11875,7.405 -7.02875,7.405"
   style="fill:#000000;fill-opacity:1;fill-rule:nonzero;stroke:none"
   id="path5035" /><path
   inkscape:connector-curvature="0"
   d="m 146.22462,131.25386 c -4.43625,0 -7.1425,-3.75875 -7.1425,-7.93125 l 3.57125,0 c 0,2.1425 1.09,4.36 3.57125,4.36 1.955,0 3.57125,-1.76625 3.57125,-3.83375 0,-3.0075 -2.59375,-4.0225 -6.315,-6.65375 -2.25625,-1.61625 -3.12,-3.38375 -3.12,-5.63875 0,-3.64625 2.81875,-6.5775 6.5025,-6.5775 3.53375,0 6.315,2.78125 6.39125,6.5775 l -3.45875,0 c -0.1125,-1.76625 -1.35375,-2.9325 -2.9325,-2.9325 -1.69125,0 -3.045,1.24125 -3.045,2.9325 0,1.27875 0.52625,1.955 2.40625,3.045 4.88625,2.81875 7.03,5.60125 7.03,9.2475 0,4.0975 -3.12,7.405 -7.03,7.405"
   style="fill:#000000;fill-opacity:1;fill-rule:nonzero;stroke:none"
   id="path5039" /><path
   inkscape:connector-curvature="0"
   d="m 180.19325,130.80287 0,-11.5025 -6.95375,0 0,11.5025 -3.64625,0 0,-25.37375 3.64625,0 0,10.3375 6.95375,0 0,-10.3375 3.64625,0 0,25.37375 -3.64625,0 z"
   style="fill:#000000;fill-opacity:1;fill-rule:nonzero;stroke:none"
   id="path5043" /><path
   inkscape:connector-curvature="0"
   d="m 189.40264,130.80287 0,-25.37375 11.95375,0 0,3.57125 -8.3075,0 0,6.39 5.2625,0 0,3.49625 -5.2625,0 0,8.345 9.285,0 0,3.57125 -12.93125,0 z"
   style="fill:#000000;fill-opacity:1;fill-rule:nonzero;stroke:none"
   id="path5047" /><path
   inkscape:connector-curvature="0"
   d="m 217.14425,130.80287 -3.38375,-11.91625 -3.495,0 0,11.91625 -3.64625,0 0,-25.37375 7.5925,0 c 3.985,0 6.65375,2.66875 6.65375,6.76625 0,3.045 -1.24,5.2625 -3.64625,6.1275 l 3.64625,12.48 -3.72125,0 z m -3.12,-21.8025 -3.75875,0 0,6.39 3.75875,0 c 2.1425,0 3.27,-1.165 3.27,-3.195 0,-1.955 -1.315,-3.195 -3.27,-3.195"
   style="fill:#000000;fill-opacity:1;fill-rule:nonzero;stroke:none"
   id="path5051" /><path
   inkscape:connector-curvature="0"
   d="m 225.18811,130.80287 0,-25.37375 11.95375,0 0,3.57125 -8.3075,0 0,6.39 5.2625,0 0,3.49625 -5.2625,0 0,8.345 9.285,0 0,3.57125 -12.93125,0 z"
   style="fill:#000000;fill-opacity:1;fill-rule:nonzero;stroke:none"
   id="path5055" /></svg>