<?xml version="1.0" encoding="UTF-8" standalone="no"?>
<!-- Created with Inkscape (http://www.inkscape.org/) -->

<svg
   xmlns:dc="http://purl.org/dc/elements/1.1/"
   xmlns:cc="http://creativecommons.org/ns#"
   xmlns:rdf="http://www.w3.org/1999/02/22-rdf-syntax-ns#"
   xmlns:svg="http://www.w3.org/2000/svg"
   xmlns="http://www.w3.org/2000/svg"
   xmlns:sodipodi="http://sodipodi.sourceforge.net/DTD/sodipodi-0.dtd"
   xmlns:inkscape="http://www.inkscape.org/namespaces/inkscape"
   width="71.999962"
   height="57.600002"
   id="svg2934"
   version="1.1"
   inkscape:version="0.48.2 r9819"
   sodipodi:docname="MUTCD M4-9bL.svg">
  <defs
     id="defs2936">
    <inkscape:perspective
       sodipodi:type="inkscape:persp3d"
       inkscape:vp_x="0 : 526.18109 : 1"
       inkscape:vp_y="0 : 1000 : 0"
       inkscape:vp_z="744.09448 : 526.18109 : 1"
       inkscape:persp3d-origin="372.04724 : 350.78739 : 1"
       id="perspective2942" />
    <inkscape:perspective
       id="perspective2924"
       inkscape:persp3d-origin="0.5 : 0.33333333 : 1"
       inkscape:vp_z="1 : 0.5 : 1"
       inkscape:vp_y="0 : 1000 : 0"
       inkscape:vp_x="0 : 0.5 : 1"
       sodipodi:type="inkscape:persp3d" />
  </defs>
  <sodipodi:namedview
     id="base"
     pagecolor="#ffffff"
     bordercolor="#666666"
     borderopacity="1.0"
     inkscape:pageopacity="0.0"
     inkscape:pageshadow="2"
     inkscape:zoom="7.4193678"
     inkscape:cx="31.54667"
     inkscape:cy="10.251372"
     inkscape:document-units="px"
     inkscape:current-layer="g2909"
     showgrid="false"
     inkscape:window-width="1280"
     inkscape:window-height="1004"
     inkscape:window-x="-8"
     inkscape:window-y="-8"
     inkscape:window-maximized="1"
     fit-margin-top="0"
     fit-margin-left="0"
     fit-margin-right="0"
     fit-margin-bottom="0" />
  <metadata
     id="metadata2939">
    <rdf:RDF>
      <cc:Work
         rdf:about="">
        <dc:format>image/svg+xml</dc:format>
        <dc:type
           rdf:resource="http://purl.org/dc/dcmitype/StillImage" />
        <dc:title></dc:title>
      </cc:Work>
    </rdf:RDF>
  </metadata>
  <g
     inkscape:label="Ebene 1"
     inkscape:groupmode="layer"
     id="layer1"
     transform="translate(1342.1794,3431.5976)">
    <g
       id="g3018"
       transform="translate(2,-2)">
      <g
         id="g2909"
         transform="matrix(0.80835983,0,0,0.80835983,-165.10178,-177.02766)">
        <path
           d="m -1452.667,-4023.666 77.1934,0 c 3.2705,0 5.9379,2.6674 5.9379,5.9395 l 0,59.3779 c 0,3.2705 -2.6674,5.938 -5.9379,5.938 l -77.1934,0 c -3.2705,0 -5.9379,-2.6675 -5.9379,-5.938 l 0,-59.3779 c 0,-3.2721 2.6674,-5.9395 5.9379,-5.9395"
           style="fill:#f38f00;fill-opacity:1;fill-rule:nonzero;stroke:none"
           id="path6535"
           inkscape:connector-curvature="0" />
        <path
           d="m -1452.3257,-4022.1228 76.5099,0 c 2.6102,0 4.7364,2.1231 4.7364,4.7272 l 0,58.7161 c 0,2.6025 -2.1262,4.7256 -4.7364,4.7256 l -76.5099,0 c -2.6071,0 -4.7349,-2.1231 -4.7349,-4.7256 l 0,-58.7161 c 0,-2.6041 2.1278,-4.7272 4.7349,-4.7272"
           style="fill:#000000;fill-opacity:1;fill-rule:evenodd;stroke:none"
           id="path6543"
           inkscape:connector-curvature="0" />
        <path
           d="m -1452.2751,-4019.7476 76.4078,0 c 1.3283,0 2.4123,1.0809 2.4123,2.4061 l 0,58.6079 c 0,1.3236 -1.084,2.4045 -2.4123,2.4045 l -76.4078,0 c -1.3284,0 -2.4108,-1.0809 -2.4108,-2.4045 l 0,-58.6079 c 0,-1.3252 1.0824,-2.4061 2.4108,-2.4061"
           style="fill:#f38f00;fill-opacity:1;fill-rule:evenodd;stroke:none"
           id="path6547"
           inkscape:connector-curvature="0" />
        <path
           d="m -1435.723,-3966.0369 29.232,0 -0.8783,4.9391 c 0,0.6355 0.3789,0.8102 0.8428,0.3912 l 12.9073,-7.7054 c 0.4654,-0.4129 0.4608,-1.084 -0.011,-1.4907 l -12.9027,-7.9312 c -0.4593,-0.4221 -0.8366,-0.2505 -0.8366,0.382 l 0.8783,4.6281 -29.232,0 0,6.7869 z"
           style="fill:#000000;fill-opacity:1;fill-rule:nonzero;stroke:none"
           id="path6495"
           inkscape:connector-curvature="0" />
        <path
           d="m -1444.3645,-3981.8451 3.3927,0 c 1.7643,0 2.9272,-0.6649 3.3617,-1.0531 0.7129,-0.6355 1.7226,-1.936 1.7226,-4.121 0,-1.4412 -0.4685,-2.8514 -1.4736,-3.8735 -1.2557,-1.2711 -2.6041,-1.2866 -3.1932,-1.2866 l -3.8102,0 0,10.3342 z m 1.9035,-8.8621 1.783,0 c 1.7674,0 2.7741,1.7195 2.7741,3.6107 0,2.4943 -1.3793,3.7344 -2.9922,3.7344 l -1.5649,0 0,-7.3451 z"
           style="fill:#000000;fill-opacity:1;fill-rule:nonzero;stroke:none"
           id="path6499"
           inkscape:connector-curvature="0" />
        <path
           d="m -1432.569,-3981.8451 0,-10.3342 6.6477,0 0,1.534 -4.7906,0 0,2.805 3.8458,0 0,1.5031 -3.8458,0 0,2.8963 4.8524,0 0,1.5958 -6.7095,0 z"
           style="fill:#000000;fill-opacity:1;fill-rule:nonzero;stroke:none"
           id="path6503"
           inkscape:connector-curvature="0" />
        <path
           d="m -1421.0381,-3981.8451 0,-8.7368 -2.7417,0 0,-1.5974 7.4843,0 0,1.5974 -2.7432,0 0,8.7368 -1.9994,0 z"
           style="fill:#000000;fill-opacity:1;fill-rule:nonzero;stroke:none"
           id="path6507"
           inkscape:connector-curvature="0" />
        <path
           d="m -1405.7077,-3987.0192 c 0,-2.7741 -1.4396,-5.3147 -4.3545,-5.3147 -2.8514,0 -4.4303,2.4942 -4.4303,5.2838 0,2.3381 1.0995,5.3612 4.3545,5.3612 2.7092,0 4.4303,-2.1695 4.4303,-5.3303 m -2.0118,-0.017 c 0,1.4737 -0.218,2.1556 -0.467,2.652 -0.3077,0.6185 -1.0082,1.1922 -1.936,1.1922 -2.154,0 -2.3566,-2.5731 -2.3566,-3.7962 0,-1.8433 0.4345,-3.8427 2.3891,-3.8427 0.4144,0 1.3314,0.063 1.8571,1.1304 0.4809,0.9757 0.5134,2.2468 0.5134,2.6643"
           style="fill:#000000;fill-opacity:1;fill-rule:nonzero;stroke:none"
           id="path6511"
           inkscape:connector-curvature="0" />
        <path
           d="m -1395.3053,-3985.5331 c 0,1.1319 0,2.4169 -1.4582,3.3169 -0.8196,0.4963 -1.8108,0.5273 -2.137,0.5273 -0.6186,0 -2.0304,-0.1237 -2.7711,-0.9912 -0.7762,-0.9294 -0.8226,-1.7969 -0.8226,-2.7123 l 0,-6.7869 1.9035,0 0,6.6462 c 0,0.6046 0.082,1.2881 0.4531,1.6747 0.3417,0.3556 0.9262,0.5427 1.4535,0.5427 0.5908,0 1.2572,-0.2335 1.534,-0.634 0.3108,-0.4345 0.3557,-1.0871 0.3557,-1.5834 l 0,-6.6462 1.4891,0 0,6.6462 z"
           style="fill:#000000;fill-opacity:1;fill-rule:nonzero;stroke:none"
           id="path6515"
           inkscape:connector-curvature="0" />
        <path
           d="m -1384.5412,-3981.8451 -1.8123,-4.5555 c 0.5273,-0.232 1.8587,-0.8041 1.8587,-2.7401 0,-1.0546 -0.4021,-1.752 -0.9294,-2.233 -0.6355,-0.5566 -1.4118,-0.8056 -2.6968,-0.8056 l -4.4782,0 0,10.3342 1.8602,0 0,-4.2447 2.618,0 1.6097,4.2447 1.9701,0 z m -6.1978,-8.8466 2.4804,0 c 1.3144,0 1.8278,0.7438 1.8278,1.52 0,1.2835 -1.0701,1.5959 -1.984,1.5959 l -2.3242,0 0,-3.1159 z"
           style="fill:#000000;fill-opacity:1;fill-rule:nonzero;stroke:none"
           id="path6519"
           inkscape:connector-curvature="0" />
        <path
           d="m -1417.5186,-4018.1625 c -0.7856,0 -1.418,0.7407 -1.418,1.6531 0,0.9139 0.6324,1.653 1.418,1.653 0.7809,0 1.421,-0.7391 1.421,-1.653 0,-0.9124 -0.6401,-1.6531 -1.421,-1.6531"
           style="fill:#000000;fill-opacity:1;fill-rule:evenodd;stroke:none"
           id="path6523"
           inkscape:connector-curvature="0" />
        <path
           d="m -1415.4991,-4014.7002 -1.319,0.091 -1.4768,1.8123 0,2.4417 -3.4205,3.3525 0.5428,0.903 4.3545,-2.0813 0.6974,0.8164 0,0.4516 -1.3979,3.3493 -1.2418,6.4282 1.9423,0.45 0.9324,-5.1571 1.3175,-2.1741 2.8746,7.4239 1.5572,-1.1752 -1.0129,-3.3509 -1.3994,-5.8838 -0.1531,-1.452 -0.6216,-2.8948 0.9324,0.3619 0.467,4.1642 1.0871,0.3619 -0.1562,-5.7029 -4.506,-2.536 z"
           style="fill:#000000;fill-opacity:1;fill-rule:evenodd;stroke:none"
           id="path6527"
           inkscape:connector-curvature="0" />
      </g>
    </g>
  </g>
</svg>
