<?xml version="1.0" encoding="UTF-8" standalone="no"?>
<!-- Generator: Adobe Illustrator 12.0.1, SVG Export Plug-In  -->

<svg
   xmlns:dc="http://purl.org/dc/elements/1.1/"
   xmlns:cc="http://creativecommons.org/ns#"
   xmlns:rdf="http://www.w3.org/1999/02/22-rdf-syntax-ns#"
   xmlns:svg="http://www.w3.org/2000/svg"
   xmlns="http://www.w3.org/2000/svg"
   xmlns:sodipodi="http://sodipodi.sourceforge.net/DTD/sodipodi-0.dtd"
   xmlns:inkscape="http://www.inkscape.org/namespaces/inkscape"
   version="1.1"
   width="187.0625"
   height="279.84375"
   viewBox="-0.999 0 187.0625 279.84375"
   enable-background="new -0.999 0 289 289"
   xml:space="preserve"
   id="svg2"
   inkscape:version="0.48.2 r9819"
   sodipodi:docname="MUTCD R5-1a.svg"><metadata
   id="metadata18"><rdf:RDF><cc:Work
       rdf:about=""><dc:format>image/svg+xml</dc:format><dc:type
         rdf:resource="http://purl.org/dc/dcmitype/StillImage" /><dc:title></dc:title></cc:Work></rdf:RDF></metadata><sodipodi:namedview
   pagecolor="#ffffff"
   bordercolor="#666666"
   borderopacity="1"
   objecttolerance="10"
   gridtolerance="10"
   guidetolerance="10"
   inkscape:pageopacity="0"
   inkscape:pageshadow="2"
   inkscape:window-width="1280"
   inkscape:window-height="1004"
   id="namedview16"
   showgrid="false"
   fit-margin-top="0"
   fit-margin-left="0"
   fit-margin-right="0"
   fit-margin-bottom="0"
   inkscape:zoom="2.309719"
   inkscape:cx="38.366837"
   inkscape:cy="144.80827"
   inkscape:window-x="-8"
   inkscape:window-y="-8"
   inkscape:window-maximized="1"
   inkscape:current-layer="svg2"
   showguides="true"
   inkscape:guide-bbox="true" />
<defs
   id="defs4">
</defs>





<path
   inkscape:connector-curvature="0"
   d="m 185.29937,255.8845 c 0,12.75625 -10.4375,23.19375 -23.19375,23.19375 l -139.16,0 c -12.75625,0 -23.19375,-10.4375 -23.19375,-23.19375 l 0,-231.93375 C -0.24813,11.1945 10.18937,0.757 22.94562,0.757 l 139.16,0 c 12.75625,0 23.19375,10.4375 23.19375,23.19375 l 0,231.93375 z"
   style="fill:#ffffff;stroke:#000000;stroke-width:1.5;stroke-linecap:butt;stroke-linejoin:miter;stroke-miterlimit:4;stroke-opacity:1;stroke-dasharray:none"
   id="path3821" /><path
   inkscape:connector-curvature="0"
   d="m 179.501,255.8845 c 0,9.5675 -7.8275,17.395 -17.395,17.395 l -139.16,0 c -9.5675,0 -17.395,-7.8275 -17.395,-17.395 l 0,-231.93375 c 0,-9.5675 7.8275,-17.395 17.395,-17.395 l 139.16,0 c 9.5675,0 17.395,7.8275 17.395,17.395 l 0,231.93375"
   style="fill:#bf2033;fill-opacity:1;fill-rule:nonzero;stroke:none"
   id="path3833" /><path
   inkscape:connector-curvature="0"
   d="m 113.73537,100.62951 17.9625,-2.9325 -11.32,-14.705 c -5.86875,5.11625 -6.59875,11.25875 -6.6425,17.6375 m -4.94125,1.07625 c -0.03,-0.63875 -0.1325,-1.66375 -0.1325,-2.38125 0,-7.27625 2.355,-14.3475 8.74375,-20.225 l -6.65375,-7.9675 -10.29875,31.41875 8.34125,-0.845 z m -39.53,-31.27 0.57125,-1.74875 36.68125,-0.0475 -9.7575,29.58125 -0.42125,-3.08625 1.1225,0 -0.14,-1.96375 -4.91,0 0.14,1.82375 1.2625,0 0.28125,3.36625 c 0,0 -24.69,-27.785 -24.83,-27.925 M 53.01787,98.85201 c 4.92625,-3.9125 8.76,-7.6425 11.525,-15.105 4.365,3.96 6.85375,9.68625 6.85375,15.5775 0,11.7025 -9.54375,21.24625 -21.245,21.24625 -11.7025,0 -21.24625,-9.54375 -21.24625,-21.24625 0,-11.70125 9.54375,-21.245 21.24625,-21.245 3.73375,0 7.5525,1.07875 10.63,2.89625 -2.08375,6.58375 -4.11,9.98 -10.52125,15.14125 -1.55625,0.065 -2.74,1.315 -2.74,2.805 0,1.545 1.26,2.80625 2.805,2.80625 1.54625,0 2.6925,-1.26125 2.6925,-2.87625 m 61.47,6.29125 c 2.40375,8.955 10.95125,15.4275 20.4125,15.4275 11.7025,0 21.24625,-9.54375 21.24625,-21.24625 0,-11.70125 -9.54375,-21.245 -21.24625,-21.245 -3.735,0 -8.05625,0.88125 -11.20875,2.72625 l 11.53125,15.31125 c 1.41125,0.0213 2.63875,1.2825 2.63875,2.805 0,1.545 -1.26,2.80625 -2.80625,2.80625 -0.4275,0 -0.87625,-0.11 -1.25625,-0.28875 l -19.31125,3.70375 z m -52.18875,-29.085 7.52625,-20.76375 -2.385,-4.0675 4.76875,-5.19 10.24125,0 0.14,2.945 -8.9775,0 -1.82375,1.96375 2.10375,3.7875 -2.64625,9.37875 36.75125,0 0.56125,-1.715 c -2.9525,-0.385 -8.0475,-2.20375 -9.26375,-3.26125 -1.2175,-1.05625 -0.1525,-2.02875 1.23375,-2.07375 7.25375,-0.30875 18.03,-0.91625 20.0775,-0.925 2.04625,-0.01 2.25625,1.02 0.88625,2.51875 -1.37125,1.49875 -2.56875,2.84875 -7.76,3.65375 l -1.4025,3.7875 8.69625,10.7725 c 4.09875,-2.4875 9.05625,-3.7825 13.87375,-3.7825 14.45125,0 26.2375,11.78625 26.2375,26.2375 0,14.4525 -11.78625,26.23875 -26.2375,26.23875 -11.89,0 -22.34375,-8.19875 -25.41625,-19.53125 l -7.99,1.43625 c -0.3425,0.94125 -1.14,1.66375 -2.0925,2.22875 l 1.425,6.76 1.82375,0 0.14,1.82375 -5.75125,0.28125 0,-1.96375 1.4025,0 -1.73625,-6.75625 c -2.585,-0.42375 -3.94,-2.63625 -3.17,-4.8325 l -26.105,-29.52375 -1.16875,3.1675 c 6.335,4.99 10.1275,12.6775 10.1275,20.67125 0,14.4525 -11.78625,26.23875 -26.2375,26.23875 -14.45125,0 -26.23875,-11.78625 -26.23875,-26.23875 0,-14.45125 11.7875,-26.2375 26.23875,-26.2375 4.2025,0 8.50625,1.025 12.1475,2.97125"
   style="fill:#ffffff;fill-opacity:1;fill-rule:evenodd;stroke:none"
   id="path3837" /><path
   inkscape:connector-curvature="0"
   d="m 43.818,194.03638 -4.7525,0 -3.66625,-20.21625 -3.665,20.21625 -4.8675,0 -6.12875,-38.6575 5.44125,0 3.26375,20.6175 3.78,-20.6175 4.3525,0 3.665,20.6175 3.38,-20.6175 5.44,0 -6.2425,38.6575 z"
   style="fill:#ffffff;fill-opacity:1;fill-rule:nonzero;stroke:none"
   id="path3841" /><path
   inkscape:connector-curvature="0"
   d="m 66.72563,160.81975 -5.7275,0 0,9.73625 5.7275,0 c 3.265,0 4.9825,-1.77625 4.9825,-4.86875 0,-2.9775 -2.00375,-4.8675 -4.9825,-4.8675 m 4.75375,33.21625 -5.155,-18.15375 -5.32625,0 0,18.15375 -5.555,0 0,-38.6575 11.56875,0 c 6.07125,0 10.13625,4.06625 10.13625,10.30875 0,4.64 -1.88875,8.01875 -5.555,9.335 l 5.555,19.01375 -5.66875,0"
   style="fill:#ffffff;fill-opacity:1;fill-rule:nonzero;stroke:none"
   id="path3845" /><path
   inkscape:connector-curvature="0"
   d="m 99.14,165.00038 c -0.97375,-3.37875 -2.4625,-4.8675 -4.75375,-4.8675 -2.4625,0 -3.89375,1.48875 -4.925,4.7525 -0.85875,2.97875 -1.2025,5.55625 -1.2025,9.90875 0,4.18 0.34375,6.6425 1.2025,9.735 0.91625,3.265 2.4625,4.75375 4.925,4.75375 2.29125,0 3.78,-1.48875 4.75375,-4.75375 0.91625,-3.0925 1.2025,-5.44 1.2025,-9.9075 0,-4.295 -0.40125,-6.7575 -1.2025,-9.62125 m 4.295,23.08 c -1.9475,4.58125 -4.75375,6.64375 -9.04875,6.64375 -4.63875,0 -7.33,-2.0625 -9.22,-6.64375 -1.60375,-3.8375 -2.17625,-7.445 -2.17625,-13.45875 0,-5.84125 0.515,-9.73625 2.17625,-13.40125 2.00375,-4.63875 4.7525,-6.52875 9.22,-6.52875 4.4675,0 7.10125,1.9475 9.04875,6.64375 1.60375,3.8375 2.17625,7.445 2.17625,13.28625 0,6.01375 -0.5725,9.73625 -2.17625,13.45875"
   style="fill:#ffffff;fill-opacity:1;fill-rule:nonzero;stroke:none"
   id="path3849" /><path
   inkscape:connector-curvature="0"
   d="m 130.86775,194.03638 -11.96875,-25.88625 0,25.88625 -5.55625,0 0,-38.6575 5.55625,0 10.59375,23.195 0,-23.195 5.55625,0 0,38.6575 -4.18125,0 z"
   style="fill:#ffffff;fill-opacity:1;fill-rule:nonzero;stroke:none"
   id="path3853" /><path
   inkscape:connector-curvature="0"
   d="m 163.22513,189.283 c -1.54625,3.37875 -4.58125,5.44 -8.5325,5.44 -4.5825,0 -8.01875,-2.29 -9.90875,-6.6425 -1.2025,-2.86375 -2.00375,-8.30375 -2.00375,-13.2875 0,-5.44 0.4575,-9.33375 1.775,-13.05625 1.375,-4.01 5.26875,-7.045 9.73625,-7.045 5.555,0 9.7925,4.06625 10.0225,9.79375 l -5.55625,0 c -0.11375,-2.5775 -1.89,-4.3525 -4.58125,-4.3525 -1.89,0 -3.37875,0.9725 -4.3525,2.8625 -1.03125,1.89 -1.775,6.2425 -1.775,10.825 0,3.26375 0.22875,6.6425 0.80125,9.62125 0.8025,3.83625 2.74875,5.84125 5.7275,5.84125 2.8625,0 4.18,-1.89 4.18,-5.95625 l 0,-2.5775 -4.3525,0 0,-5.44 9.90875,0 0,8.0175 c 0,2.69125 -0.2875,4.295 -1.08875,5.95625"
   style="fill:#ffffff;fill-opacity:1;fill-rule:nonzero;stroke:none"
   id="path3857" /><path
   inkscape:connector-curvature="0"
   d="m 73.94212,248.15337 -4.75375,0 -3.665,-20.215 -3.665,20.215 -4.8675,0 -6.12875,-38.65625 5.44125,0 3.26375,20.6175 3.78,-20.6175 4.3525,0 3.665,20.6175 3.38,-20.6175 5.44,0 -6.2425,38.65625 z"
   style="fill:#ffffff;fill-opacity:1;fill-rule:nonzero;stroke:none"
   id="path3861" /><path
   inkscape:connector-curvature="0"
   d="m 94.67337,221.0085 -2.69125,11.1675 5.555,0 -2.86375,-11.1675 z m 6.93,27.145 -2.6925,-10.59375 -8.30375,0 -2.5775,10.59375 -5.555,0 9.62125,-38.65625 5.44125,0 9.62125,38.65625 -5.555,0 z"
   style="fill:#ffffff;fill-opacity:1;fill-rule:nonzero;stroke:none"
   id="path3865" /><path
   inkscape:connector-curvature="0"
   d="m 124.56776,230.62951 0,17.52375 -5.555,0 0,-17.52375 -9.5075,-21.1325 5.8425,0 6.52875,13.975 6.35625,-13.975 5.95625,0 -9.62125,21.1325 z"
   style="fill:#ffffff;fill-opacity:1;fill-rule:nonzero;stroke:none"
   id="path3869" /></svg>