<?xml version="1.0" encoding="UTF-8" standalone="no"?>
<svg
   width="89.985153"
   height="90.000923"
   viewBox="0 0 253.95815 254.0026"
   version="1.1"
   id="svg2"
   inkscape:version="1.2.1 (9c6d41e410, 2022-07-14)"
   sodipodi:docname="MUTCD_W12-2.svg"
   xmlns:inkscape="http://www.inkscape.org/namespaces/inkscape"
   xmlns:sodipodi="http://sodipodi.sourceforge.net/DTD/sodipodi-0.dtd"
   xmlns="http://www.w3.org/2000/svg"
   xmlns:svg="http://www.w3.org/2000/svg"
   xmlns:rdf="http://www.w3.org/1999/02/22-rdf-syntax-ns#"
   xmlns:cc="http://creativecommons.org/ns#"
   xmlns:dc="http://purl.org/dc/elements/1.1/">
  <metadata
     id="metadata62">
    <rdf:RDF>
      <cc:Work
         rdf:about="">
        <dc:format>image/svg+xml</dc:format>
        <dc:type
           rdf:resource="http://purl.org/dc/dcmitype/StillImage" />
        <dc:title />
      </cc:Work>
    </rdf:RDF>
  </metadata>
  <defs
     id="defs60" />
  <sodipodi:namedview
     pagecolor="#ffffff"
     bordercolor="#666666"
     borderopacity="1"
     objecttolerance="10"
     gridtolerance="10"
     guidetolerance="10"
     inkscape:pageopacity="0"
     inkscape:pageshadow="2"
     inkscape:window-width="2048"
     inkscape:window-height="1089"
     id="namedview58"
     showgrid="false"
     fit-margin-top="0"
     fit-margin-left="0"
     fit-margin-right="0"
     fit-margin-bottom="0"
     inkscape:zoom="5.6568543"
     inkscape:cx="34.648232"
     inkscape:cy="34.648232"
     inkscape:window-x="-8"
     inkscape:window-y="-8"
     inkscape:window-maximized="1"
     inkscape:current-layer="svg2"
     inkscape:showpageshadow="2"
     inkscape:pagecheckerboard="0"
     inkscape:deskcolor="#d1d1d1" />
  <!-- draw the bicycle -->
  <!-- RIGHT -->
  <!-- LANE -->
  <!-- ONLY -->
  <path
     inkscape:connector-curvature="0"
     d="M 3.3615301,118.7608 118.71636,3.4024968 c 4.54025,-4.5367 11.94153,-4.5367 16.48178,0 L 250.55297,118.7608 c 4.54025,4.5368 4.54025,11.938 0,16.4783 L 135.19814,250.5974 c -4.54025,4.5403 -11.94153,4.5403 -16.48178,0 L 3.3615301,135.2391 c -4.48028,-4.4803 -4.4838,-11.998 0,-16.4783"
     style="fill:#ffd033;fill-opacity:1;fill-rule:nonzero;stroke:none"
     id="path3202" />
  <path
     inkscape:connector-curvature="0"
     d="M 5.6799901,121.0207 120.97838,5.7222968 c 3.27025,-3.2702 8.68891,-3.2631 11.95916,0 L 248.23593,121.0207 c 3.27377,3.2738 3.25966,8.6819 0,11.9592 L 132.93754,248.2783 c -3.27377,3.2632 -8.68186,3.2667 -11.95916,0 L 5.6799901,132.9799 c -3.25967,-3.2773 -3.27378,-8.6854 0,-11.9592"
     style="fill:#000000;fill-opacity:1;fill-rule:evenodd;stroke:none"
     id="path3214" />
  <path
     inkscape:connector-curvature="0"
     d="M 8.9255401,124.1834 124.14279,8.9661968 c 1.52047,-1.577 4.10986,-1.5734 5.63386,0 L 244.99037,124.1834 c 1.57339,1.5205 1.57339,4.1134 0,5.6339 L 129.77665,245.031 c -1.52047,1.5769 -4.11691,1.5804 -5.63386,0 L 8.9255401,129.8173 c -1.57339,-1.524 -1.57339,-4.1134 0,-5.6339"
     style="fill:#ffd033;fill-opacity:1;fill-rule:evenodd;stroke:none"
     id="path3218" />
  <path
     style="fill:#f4911d;fill-opacity:1;stroke-width:0.176777"
     d="M 23.73199,66.335175 C 5.3346444,47.937333 2.9168154,45.457752 2.9168154,44.988366 c 0,-0.469404 2.4173119,-2.948061 20.8172216,-21.345507 C 40.179748,7.199353 44.643322,2.8284271 44.989669,2.8284271 c 0.346346,0 4.80992,4.3709259 21.255631,20.8144319 18.422513,18.420045 20.817222,20.875675 20.817222,21.34681 0,0.471134 -2.394709,2.926764 -20.817222,21.346809 C 49.747573,82.831994 45.336685,87.15091 44.987621,87.15091 44.638539,87.15091 40.229,82.832628 23.73199,66.335175 Z"
     id="path17580"
     transform="scale(2.8222225)" />
  <path
     style="fill:#f4911d;fill-opacity:1;stroke-width:0.176777"
     d="m 44.038233,89.786521 c -0.37745,-0.0907 -1.053621,-0.43763 -1.502601,-0.770944 C 41.275152,88.079827 0.8703682,47.541935 0.53892095,46.880514 0.13058316,46.065653 0.01225048,44.781069 0.25889375,43.84062 0.45119112,43.107391 2.1165878,41.394117 21.535352,21.952487 34.292925,9.1798916 42.875561,0.71815509 43.293705,0.50063448 c 0.929004,-0.48327377 2.462923,-0.48327377 3.391927,0 0.418144,0.21752061 9.00078,8.67925712 21.758353,21.45185252 19.418764,19.44163 21.084161,21.154904 21.276459,21.888133 0.23317,0.889081 0.131142,2.24033 -0.21813,2.888862 -0.433212,0.804394 -41.910547,42.299703 -42.65649,42.674976 -0.898422,0.45198 -1.93159,0.592578 -2.807591,0.382063 z m 2.277261,-1.207407 c 0.885057,-0.4153 42.052736,-41.572582 42.330012,-42.319323 0.237308,-0.639102 0.237038,-1.902283 -5.31e-4,-2.540245 C 88.366529,42.971886 47.1994,1.8143536 46.315494,1.3999439 c -0.897771,-0.42090967 -1.75388,-0.42090967 -2.651651,0 C 43.17478,1.6292354 36.571135,8.1284819 22.248542,22.476683 10.859034,33.886552 1.446622,43.406276 1.3320704,43.63162 c -0.2929476,0.576287 -0.2591416,2.20326 0.058197,2.800817 0.4476651,0.842967 41.6638516,41.909087 42.3619646,42.207725 0.837518,0.358275 1.714124,0.337396 2.563262,-0.06105 z"
     id="path17582"
     transform="scale(2.8222225)" />
  <path
     d="m 194.086,96.542464 h -6.985 l 1.143,14.351006 h 4.699 z"
     style="fill:#000000;fill-opacity:1;fill-rule:evenodd;stroke:none"
     id="path3418"
     inkscape:connector-curvature="0" />
  <path
     d="m 204.373,96.542464 h -7.112 l 1.14653,14.351006 H 203.23 Z"
     style="fill:#000000;fill-opacity:1;fill-rule:evenodd;stroke:none"
     id="path3422"
     inkscape:connector-curvature="0" />
  <path
     d="m 108.11016,158.64548 v -8.763 H 83.091151 c 0.381,-2.159 0.635001,-3.302 1.270001,-4.826 1.778,-5.207 5.842001,-10.92201 9.775474,-13.71601 l 2.413,-1.778 2.162529,-1.524 2.278945,-1.397 c 0.64206,-0.635 1.27706,-1.143 1.90853,-1.524 3.556,-3.302 5.21053,-7.239 5.21053,-12.192 0,-9.652 -7.62,-17.526007 -17.272007,-17.526007 -9.779002,0 -17.145003,7.620007 -17.399004,17.526007 h 8.763002 c 0,-4.826 3.937001,-8.763 8.636002,-8.763 4.822473,0 8.763002,3.937 8.763002,8.763 0,3.048 -1.019528,4.572 -5.210529,7.366 -5.076473,3.556 -6.350001,4.572 -7.874002,5.842 -4.191001,3.81 -7.366001,8.89 -10.033002,15.49401 -2.032,5.461 -2.667,8.509 -3.044473,17.018 z m -45.212013,0 V 96.415464 h -5.845528 c -1.397,2.667 -3.55247,4.190996 -6.985,4.445006 v 6.731 h 3.94053 v 51.05401 z"
     style="fill:#000000;fill-opacity:1;fill-rule:evenodd;stroke:none"
     id="path3426"
     inkscape:connector-curvature="0" />
  <path
     d="m 127.54046,96.542464 h -6.86153 l 1.143,14.351006 h 4.699 z"
     style="fill:#000000;fill-opacity:1;fill-rule:evenodd;stroke:none"
     id="path3430"
     inkscape:connector-curvature="0" />
  <path
     d="M 142.14087,90.319462 H 111.15639 V 64.792457 l -27.56253,5.715001 c -0.889,0.254 -1.266473,0.381 -1.643945,0.381 -1.778,0 -3.556001,-1.778 -3.556001,-3.683 0,-0.762 0,-1.270001 0.889001,-2.032001 L 126.6504,23.009449 173.76741,65.300457 c 0.76553,0.635 0.889,1.270001 0.76553,2.032001 0,1.905 -1.65453,3.556 -3.56306,3.556 -0.24694,0 -0.381,0 -1.01247,-0.127 l -27.81654,-6.350001 z"
     style="fill:#000000;fill-opacity:1;fill-rule:evenodd;stroke:none"
     id="path3434"
     inkscape:connector-curvature="0" />
  <path
     d="m 142.14087,165.11895 h -30.98448 v 25.52701 l -27.56253,-5.84553 c -0.889,-0.12347 -1.266473,-0.254 -1.643945,-0.254 -1.778,0 -3.556001,1.778 -3.556001,3.56305 0,0.75495 0,1.38995 0.889001,2.15901 l 47.367485,42.16048 47.11701,-42.29101 c 0.76553,-0.63853 0.889,-1.27353 0.76553,-2.02848 0,-1.90852 -1.65453,-3.68652 -3.56306,-3.68652 -0.24694,0 -0.381,0.12347 -1.01247,0.254 l -27.81654,6.35 z"
     style="fill:#000000;fill-opacity:1;fill-rule:evenodd;stroke:none"
     id="path3438"
     inkscape:connector-curvature="0" />
  <path
     d="m 137.69693,124.86277 h -21.717 v 8.255 h 21.717 z"
     style="fill:#000000;fill-opacity:1;fill-rule:evenodd;stroke:none"
     id="path3440"
     inkscape:connector-curvature="0" />
  <path
     d="m 174.6557,139.84948 c 0,6.604 -3.556,11.176 -8.763,11.176 -5.334,0 -8.76653,-5.08 -8.76653,-12.065 0,-5.84201 3.43253,-10.54101 8.76653,-10.54101 5.207,0 8.763,4.826 8.763,11.43001 m 8.63248,0 c 0,-11.81101 -6.731,-19.81201 -17.39548,-19.81201 -1.14653,0 -2.413,0 -3.937,0.254 2.159,-5.842 7.87753,-13.335 13.07748,-17.272 l -5.07648,-6.985007 c -13.46553,10.541007 -21.33953,26.289007 -21.33953,41.148007 0,14.22401 5.842,22.60601 17.27553,22.60601 10.66448,0 17.39548,-8.128 17.39548,-19.939"
     style="fill:#000000;fill-opacity:1;fill-rule:evenodd;stroke:none"
     id="path3444"
     inkscape:connector-curvature="0" />
</svg>
