<?xml version="1.0" encoding="UTF-8" standalone="no"?>
<!-- Generator: Adobe Illustrator 12.0.1, SVG Export Plug-In  -->

<svg
   xmlns:dc="http://purl.org/dc/elements/1.1/"
   xmlns:cc="http://creativecommons.org/ns#"
   xmlns:rdf="http://www.w3.org/1999/02/22-rdf-syntax-ns#"
   xmlns:svg="http://www.w3.org/2000/svg"
   xmlns="http://www.w3.org/2000/svg"
   xmlns:sodipodi="http://sodipodi.sourceforge.net/DTD/sodipodi-0.dtd"
   xmlns:inkscape="http://www.inkscape.org/namespaces/inkscape"
   version="1.1"
   width="312.46875"
   height="250.25"
   viewBox="-0.999 0 312.46875 250.25"
   enable-background="new -0.999 0 289 289"
   xml:space="preserve"
   id="svg2"
   inkscape:version="0.48.2 r9819"
   sodipodi:docname="AJAX1.svg"><metadata
   id="metadata18"><rdf:RDF><cc:Work
       rdf:about=""><dc:format>image/svg+xml</dc:format><dc:type
         rdf:resource="http://purl.org/dc/dcmitype/StillImage" /><dc:title /></cc:Work></rdf:RDF></metadata><sodipodi:namedview
   pagecolor="#ffffff"
   bordercolor="#666666"
   borderopacity="1"
   objecttolerance="10"
   gridtolerance="10"
   guidetolerance="10"
   inkscape:pageopacity="0"
   inkscape:pageshadow="2"
   inkscape:window-width="1280"
   inkscape:window-height="1004"
   id="namedview16"
   showgrid="false"
   fit-margin-top="0"
   fit-margin-left="0"
   fit-margin-right="0"
   fit-margin-bottom="0"
   inkscape:zoom="1.8901802"
   inkscape:cx="130.82594"
   inkscape:cy="167.22432"
   inkscape:window-x="-8"
   inkscape:window-y="-8"
   inkscape:window-maximized="1"
   inkscape:current-layer="svg2"
   showguides="true"
   inkscape:guide-bbox="true" />
<defs
   id="defs4">
</defs>





<path
   inkscape:connector-curvature="0"
   d="m 310.70675,230.0715 c 0,10.68875 -8.74625,19.435 -19.435,19.435 l -272.0925,0 c -10.68875,0 -19.435,-8.74625 -19.435,-19.435 l 0,-209.89875 c 0,-10.69 8.74625,-19.435 19.435,-19.435 l 272.0925,0 c 10.68875,0 19.435,8.745 19.435,19.435 l 0,209.89875 z"
   style="fill:#ffffff;fill-opacity:1;fill-rule:nonzero;stroke:#000000;stroke-width:1.5;stroke-miterlimit:4;stroke-opacity:1;stroke-dasharray:none"
   id="path4393" /><path
   inkscape:connector-curvature="0"
   d="m 291.27162,5.91986 -272.09125,0 c -7.839995,0 -14.252495,6.41375 -14.252495,14.2525 l 0,209.89875 c 0,7.83875 6.4125,14.2525 14.252495,14.2525 l 272.09125,0 c 7.83875,0 14.2525,-6.41375 14.2525,-14.2525 l 0,-209.89875 c 0,-7.83875 -6.41375,-14.2525 -14.2525,-14.2525 m 6.47875,224.15125 c 0,3.56375 -2.91625,6.47875 -6.47875,6.47875 l -272.09125,0 c -3.563745,0 -6.478745,-2.915 -6.478745,-6.47875 l 0,-209.89875 c 0,-3.56375 2.915,-6.47875 6.478745,-6.47875 l 272.09125,0 c 3.5625,0 6.47875,2.915 6.47875,6.47875 l 0,209.89875 z"
   style="fill:#000000;fill-opacity:1;fill-rule:nonzero;stroke:none"
   id="path4401" /><path
   inkscape:connector-curvature="0"
   d="m 73.95174,62.92687 -10.04125,0 0,-31.09125 10.04125,0 c 6.31,0 14.83125,4.4675 14.83125,15.47625 0,10.68625 -7.78375,15.615 -14.83125,15.615 m 0,-25.5175 -4.37624,0 0,19.94375 4.37624,0 c 2.4875,0 9.25875,-1.61125 9.25875,-10.04125 0,-7.83 -5.75749,-9.9025 -9.25874,-9.9025"
   style="fill:#000000;fill-opacity:1;fill-rule:nonzero;stroke:none"
   id="path4405" /><path
   inkscape:connector-curvature="0"
   d="m 96.84449,31.83625 5.57375,0 0,31.09125 -5.57375,0 0,-31.09125 z"
   style="fill:#000000;fill-opacity:1;fill-rule:nonzero;stroke:none"
   id="path4407" /><path
   inkscape:connector-curvature="0"
   d="m 126.04612,62.92687 -5.98751,0 -11.47,-31.09125 5.98876,0 8.52124,22.70875 8.52125,-22.70875 5.9875,0 -11.56125,31.09125 z"
   style="fill:#000000;fill-opacity:1;fill-rule:nonzero;stroke:none"
   id="path4411" /><path
   inkscape:connector-curvature="0"
   d="m 143.82574,31.83625 5.57375,0 0,31.09125 -5.57375,0 0,-31.09125 z"
   style="fill:#000000;fill-opacity:1;fill-rule:nonzero;stroke:none"
   id="path4413" /><path
   inkscape:connector-curvature="0"
   d="m 168.42187,62.92687 -10.04125,0 0,-31.09125 10.04125,0 c 6.31,0 14.83125,4.4675 14.83125,15.47625 0,10.68625 -7.78374,15.615 -14.83125,15.615 m 0,-25.5175 -4.37625,0 0,19.94375 4.37625,0 c 2.4875,0 9.2575,-1.61125 9.2575,-10.04125 0,-7.83 -5.75625,-9.9025 -9.2575,-9.9025"
   style="fill:#000000;fill-opacity:1;fill-rule:nonzero;stroke:none"
   id="path4417" /><path
   inkscape:connector-curvature="0"
   d="m 191.314,62.92687 0,-31.09125 22.6625,0 0,5.57375 -16.9975,0 0,5.7575 9.25876,0 0,5.71125 -9.25876,0 0,8.475 17.55,0 0,5.57375 -23.215,0 z"
   style="fill:#000000;fill-opacity:1;fill-rule:nonzero;stroke:none"
   id="path4421" /><path
   inkscape:connector-curvature="0"
   d="m 231.70937,62.92687 -10.04125,0 0,-31.09125 10.04125,0 c 6.31,0 14.83125,4.4675 14.83125,15.47625 0,10.68625 -7.78375,15.615 -14.83125,15.615 m 0,-25.5175 -4.37624,0 0,19.94375 4.37624,0 c 2.4875,0 9.25876,-1.61125 9.25876,-10.04125 0,-7.83 -5.75876,-9.9025 -9.25876,-9.9025"
   style="fill:#000000;fill-opacity:1;fill-rule:nonzero;stroke:none"
   id="path4425" /><path
   inkscape:connector-curvature="0"
   d="m 69.78324,218.40787 0,-13.5425 -13.95625,0 0,13.5425 -5.57375,0 0,-31.09125 5.57375,0 0,12.0225 13.95625,0 0,-12.0225 5.5275,0 0,31.09125 -5.5275,0 z"
   style="fill:#000000;fill-opacity:1;fill-rule:nonzero;stroke:none"
   id="path4429" /><path
   inkscape:connector-curvature="0"
   d="m 84.33824,187.31625 5.57376,0 0,31.09125 -5.57376,0 0,-31.09125 z"
   style="fill:#000000;fill-opacity:1;fill-rule:nonzero;stroke:none"
   id="path4431" /><path
   inkscape:connector-curvature="0"
   d="m 110.82274,218.96051 c -9.16625,0 -12.8975,-8.06 -12.8975,-16.1675 0,-9.48875 5.16,-16.02875 12.8975,-16.02875 5.57375,0 9.39625,2.9475 11.56125,7.7375 l -5.665,1.98125 c -1.1975,-2.625 -3.17875,-4.14625 -5.89625,-4.14625 -4.37625,0 -7.32375,4.37625 -7.32375,10.45625 0,5.02125 1.52,10.59375 7.32375,10.59375 3.04,0 5.7575,-2.0725 6.54126,-4.9275 l -5.11376,0 0,-5.5275 10.91626,0 0,4.0075 c 0,6.77 -5.48126,12.02125 -12.34375,12.02125"
   style="fill:#000000;fill-opacity:1;fill-rule:nonzero;stroke:none"
   id="path4435" /><path
   inkscape:connector-curvature="0"
   d="m 150.75749,218.40787 0,-13.5425 -13.95625,0 0,13.5425 -5.57375,0 0,-31.09125 5.57375,0 0,12.0225 13.95625,0 0,-12.0225 5.5275,0 0,31.09125 -5.5275,0 z"
   style="fill:#000000;fill-opacity:1;fill-rule:nonzero;stroke:none"
   id="path4439" /><path
   inkscape:connector-curvature="0"
   d="m 189.86237,218.40787 -5.85,0 -5.02,-20.82 -4.92875,20.82 -5.89625,0 -5.665,-31.09125 5.80375,0 3.3625,20.0825 4.56,-20.0825 5.57375,0 4.79,20.0825 3.1775,-20.0825 5.66625,0 -5.57375,31.09125 z"
   style="fill:#000000;fill-opacity:1;fill-rule:nonzero;stroke:none"
   id="path4443" /><path
   inkscape:connector-curvature="0"
   d="m 223.21088,218.40787 -3.03999,-7.32375 -13.54125,0 -3.04,7.32375 -6.1275,0 13.08249,-31.09125 5.66501,0 12.98875,31.09125 -5.98751,0 z m -9.81124,-23.3525 -4.37626,10.50125 8.7525,0 -4.37624,-10.50125 z"
   style="fill:#000000;fill-opacity:1;fill-rule:nonzero;stroke:none"
   id="path4447" /><path
   inkscape:connector-curvature="0"
   d="m 247.1165,205.74112 0,12.66625 -5.57376,0 0,-12.66625 -13.08125,-18.425 6.86376,0 9.07374,12.6675 8.935,-12.6675 6.86375,0 -13.08124,18.425 z"
   style="fill:#000000;fill-opacity:1;fill-rule:nonzero;stroke:none"
   id="path4451" /><path
   inkscape:connector-curvature="0"
   d="m 179.34101,157.41876 c -4.59251,0 -8.98251,2.265 -11.50251,5.85875 -1.5725,2.2775 -2.13875,4.6025 -2.27375,7.25625 l -20.6775,0 0,-13.115 -58.585,0 0,-19.36875 58.585,0 0,-12.93125 c 0,-3.39125 -1.53125,-6.7225 -4.09625,-9.1225 -2.55375,-2.41125 -6.07375,-3.79625 -9.6975,-3.79625 l -67.20625,0 4.79125,11.6625 c 0.16875,0.4025 0.37875,0.82 0.37875,1.25625 0.05,1.4925 -1.2725,2.8875 -2.81125,3.16 -0.84,0.17375 -2.00125,0 -2.73625,-0.465 l -39.235,-25.3025 39.235,-25.30375 c 0.58,-0.38 1.4,-0.54375 2.105,-0.54375 1.64,0 3.02625,1.135 3.385,2.625 0.16125,0.7025 -0.0675,1.23125 -0.32125,1.8575 l -4.79125,11.675 81,0 0,-12.75375 20.6775,0 0,12.75375 58.57125,0 0,19.37875 -58.57125,0 0,25.85 80.78,0 -4.79499,-11.675 c -0.15125,-0.39 -0.20875,-0.83875 -0.18126,-1.25625 0.0937,-1.56625 1.14375,-2.82125 2.8175,-3.1725 0.95751,-0.20625 1.78125,0.1825 2.54625,0.6575 l 39.445,25.1225 -39.44499,25.31 c -0.64,0.40125 -1.15625,0.56625 -1.92626,0.54375 -1.51875,-0.07 -3.01,-0.82875 -3.3025,-2.36 -0.135,-0.7275 -0.23375,-1.27125 0.0463,-1.955 l 4.79499,-11.84625 -67.00375,0"
   style="fill:#000000;fill-opacity:1;fill-rule:evenodd;stroke:none"
   id="path4455" /></svg>