<?xml version="1.0" encoding="UTF-8" standalone="no"?>
<!-- Created with Inkscape (http://www.inkscape.org/) -->

<svg
   xmlns:dc="http://purl.org/dc/elements/1.1/"
   xmlns:cc="http://creativecommons.org/ns#"
   xmlns:rdf="http://www.w3.org/1999/02/22-rdf-syntax-ns#"
   xmlns:svg="http://www.w3.org/2000/svg"
   xmlns="http://www.w3.org/2000/svg"
   xmlns:sodipodi="http://sodipodi.sourceforge.net/DTD/sodipodi-0.dtd"
   xmlns:inkscape="http://www.inkscape.org/namespaces/inkscape"
   width="234.5625"
   height="281.1875"
   id="svg4779"
   version="1.1"
   inkscape:version="0.48.2 r9819"
   sodipodi:docname="AJAX1.svg">
  <defs
     id="defs4781" />
  <sodipodi:namedview
     id="base"
     pagecolor="#ffffff"
     bordercolor="#666666"
     borderopacity="1.0"
     inkscape:pageopacity="0.0"
     inkscape:pageshadow="2"
     inkscape:zoom="1.4"
     inkscape:cx="66.807242"
     inkscape:cy="131.67138"
     inkscape:document-units="px"
     inkscape:current-layer="layer1"
     showgrid="false"
     inkscape:window-width="1280"
     inkscape:window-height="1004"
     inkscape:window-x="-8"
     inkscape:window-y="-8"
     inkscape:window-maximized="1"
     fit-margin-top="0"
     fit-margin-left="0"
     fit-margin-right="0"
     fit-margin-bottom="0" />
  <metadata
     id="metadata4784">
    <rdf:RDF>
      <cc:Work
         rdf:about="">
        <dc:format>image/svg+xml</dc:format>
        <dc:type
           rdf:resource="http://purl.org/dc/dcmitype/StillImage" />
        <dc:title></dc:title>
      </cc:Work>
    </rdf:RDF>
  </metadata>
  <g
     inkscape:label="Layer 1"
     inkscape:groupmode="layer"
     id="layer1"
     transform="translate(-121.4375,-182)">
    <path
       inkscape:connector-curvature="0"
       d="m 122.18651,447.86643 c 0,8.01125 6.555,14.56625 14.56625,14.56625 l 203.92875,0 c 8.0125,0 14.5675,-6.555 14.5675,-14.56625 l 0,-250.54125 c 0,-8.01125 -6.555,-14.56625 -14.5675,-14.56625 l -203.92875,0 c -8.01125,0 -14.56625,6.555 -14.56625,14.56625 l 0,250.54125 z"
       style="fill:#ffffff;fill-opacity:1;fill-rule:nonzero;stroke:#000000;stroke-width:1.5;stroke-miterlimit:4;stroke-opacity:1;stroke-dasharray:none"
       id="path3395" />
    <path
       inkscape:connector-curvature="0"
       d="m 126.07088,197.32493 0,250.54125 c 0,5.875 4.80625,10.6825 10.6825,10.6825 l 203.92875,0 c 5.875,0 10.6825,-4.8075 10.6825,-10.6825 l 0,-250.54125 c 0,-5.875 -4.8075,-10.6825 -10.6825,-10.6825 l -203.92875,0 c -5.87625,0 -10.6825,4.8075 -10.6825,10.6825 m 5.82625,0 c 0,-2.67 2.185,-4.855 4.85625,-4.855 l 203.92875,0 c 2.67,0 4.855,2.185 4.855,4.855 l 0,250.54125 c 0,2.67125 -2.185,4.85625 -4.855,4.85625 l -203.92875,0 c -2.67125,0 -4.85625,-2.185 -4.85625,-4.85625 l 0,-250.54125 z"
       style="fill:#000000;fill-opacity:1;fill-rule:nonzero;stroke:none"
       id="path3403" />
    <path
       inkscape:connector-curvature="0"
       d="m 159.54064,255.47244 35.4775,-52.32125 35.4775,52.32125 c 0.595,0.86125 0.9425,1.90625 0.9425,3.03125 0,2.95125 -2.39375,5.345 -5.345,5.345 -0.575,0 -1.12875,-0.0913 -1.6475,-0.25875 l -15.8325,-5.08625 0,73.2175 c 16.35125,-20.6625 39.0275,-36.0875 65.1075,-43.35125 l -10.87875,-12.39 c -0.36125,-0.40875 -0.665,-0.88125 -0.89375,-1.4075 -1.17625,-2.7075 0.0662,-5.85625 2.77375,-7.0325 1.03125,-0.4475 2.12875,-0.545 3.155,-0.3425 l 62.12375,11.69875 -33.85875,53.38375 c -0.55375,0.8875 -1.3725,1.62375 -2.405,2.07125 -2.7075,1.17625 -5.85625,-0.0663 -7.03125,-2.7725 -0.23,-0.5275 -0.3675,-1.07125 -0.42,-1.615 l -1.62,-16.335 c -43.6125,10.37 -76.0525,49.57875 -76.0525,96.365 l 0,23.30625 -27.19,0 0,-174.79625 -15.8325,5.08625 c -0.51875,0.1675 -1.0725,0.25875 -1.6475,0.25875 -2.95125,0 -5.345,-2.39375 -5.345,-5.345 0,-1.125 0.34875,-2.17 0.9425,-3.03125"
       style="fill:#000000;fill-opacity:1;fill-rule:nonzero;stroke:none"
       id="path3407" />
  </g>
</svg>
