<?xml version="1.0" encoding="UTF-8" standalone="no"?>
<!-- Generator: Adobe Illustrator 13.0.0, SVG Export Plug-In  -->

<svg
   version="1.1"
   x="0px"
   y="0px"
   width="2942.8635"
   height="2942.863"
   viewBox="-0.525 -0.67 2942.8636 2942.863"
   enable-background="new -0.525 -0.67 576 508"
   xml:space="preserve"
   id="svg2"
   inkscape:version="1.2.1 (9c6d41e410, 2022-07-14)"
   sodipodi:docname="MUTCD_W8-25.svg"
   xmlns:inkscape="http://www.inkscape.org/namespaces/inkscape"
   xmlns:sodipodi="http://sodipodi.sourceforge.net/DTD/sodipodi-0.dtd"
   xmlns="http://www.w3.org/2000/svg"
   xmlns:svg="http://www.w3.org/2000/svg"
   xmlns:rdf="http://www.w3.org/1999/02/22-rdf-syntax-ns#"
   xmlns:cc="http://creativecommons.org/ns#"
   xmlns:dc="http://purl.org/dc/elements/1.1/"><metadata
   id="metadata14"><rdf:RDF><cc:Work
       rdf:about=""><dc:format>image/svg+xml</dc:format><dc:type
         rdf:resource="http://purl.org/dc/dcmitype/StillImage" /><dc:title /></cc:Work></rdf:RDF></metadata><sodipodi:namedview
   pagecolor="#ffffff"
   bordercolor="#666666"
   borderopacity="1"
   objecttolerance="10"
   gridtolerance="10"
   guidetolerance="10"
   inkscape:pageopacity="0"
   inkscape:pageshadow="2"
   inkscape:window-width="2048"
   inkscape:window-height="1089"
   id="namedview12"
   showgrid="false"
   fit-margin-top="0"
   fit-margin-left="0"
   fit-margin-right="0"
   fit-margin-bottom="0"
   inkscape:zoom="0.20146192"
   inkscape:cx="536.08146"
   inkscape:cy="1573.4984"
   inkscape:window-x="-8"
   inkscape:window-y="-8"
   inkscape:window-maximized="1"
   inkscape:current-layer="svg2"
   inkscape:showpageshadow="2"
   inkscape:pagecheckerboard="0"
   inkscape:deskcolor="#d1d1d1" />
<defs
   id="defs4">
</defs>



<path
   inkscape:connector-curvature="0"
   style="fill:#ffd033;fill-rule:nonzero;stroke:none"
   d="m 1566.3574,2902.6494 c -52.7125,52.725 -138.2,52.725 -190.9125,0 L 39.015806,1566.2244 c -52.720875,-52.725 -52.720875,-138.2 -0.0012,-190.9125 L 1375.4449,38.871632 c 52.7125,-52.72225 138.2,-52.72225 190.9125,0 L 2902.7949,1375.3119 c 52.725,52.7125 52.725,138.1875 0,190.9125 l -1336.4375,1336.425 z"
   id="path11" /><path
   inkscape:connector-curvature="0"
   style="fill:#000000;fill-rule:nonzero;stroke:none"
   d="m 62.880568,1542.3588 c -39.4775,-39.475 -39.4775,-103.7125 -0.0013,-143.1875 L 1399.3156,62.736362 c 39.475,-39.47762 103.7125,-39.47762 143.1875,0 L 2878.9406,1399.1713 c 39.475,39.475 39.475,103.7125 0,143.1875 L 1542.5031,2878.7963 c -39.475,39.475 -103.7125,39.475 -143.1875,0 L 62.880568,1542.3588 z"
   id="path13" /><path
   inkscape:connector-curvature="0"
   style="fill:#ffd033;fill-rule:nonzero;stroke:none"
   d="m 102.65468,1502.5779 c -17.545118,-17.55 -17.545118,-46.0875 0,-63.6375 L 1439.0845,102.5105 c 17.55,-17.545138 46.1,-17.545138 63.6375,0 l 1336.4375,1336.4299 c 17.5375,17.55 17.5375,46.0875 0,63.6375 L 1502.722,2839.0154 c -17.5375,17.5375 -46.0875,17.5375 -63.6375,0 L 102.65468,1502.5779 z"
   id="path15" /><path
   style="fill:#f4911d;fill-opacity:1;stroke-width:3.50988"
   d="m 1449.5797,2843.3442 c -5.7913,-3.6578 -313.3883,-309.6872 -683.54881,-680.0655 L 93.01177,1489.8638 v -16.1056 c 0,-12.2805 2.415868,-19.3566 10.17206,-29.7942 5.59463,-7.5288 310.8224,-314.0327 678.28393,-681.11979 C 1494.76,50.278779 1457.4554,85.779993 1483.7888,94.47487 c 8.1629,2.695268 204.2763,196.69486 687.7277,680.3151 734.5844,734.84103 688.9746,686.76273 675.5327,712.09453 -2.9415,5.5431 -309.8981,314.5166 -682.126,686.6075 -674.2653,674.0174 -676.8299,676.529 -690.7959,676.5159 -7.7099,-0.01 -18.7563,-3.0059 -24.5476,-6.6637 z"
   id="path16385"
   transform="translate(-0.525,-0.67)" /><path
   style="fill:#f4911d;fill-opacity:1;stroke-width:4.96372"
   d="m 1414.3931,2926.2348 c -19.1552,-9.585 -175.2689,-163.161 -710.18751,-698.6432 C 73.262327,1595.9838 17.928641,1539.2829 10.526087,1516.7723 c -10.20459647,-31.0314 -10.20459647,-59.0289 0,-90.0603 7.402355,-22.51 62.753216,-79.2318 693.679503,-710.86133 C 1452.0766,-32.853992 1412.4126,3.9709738 1470.9691,3.9709738 c 59.7887,0 15.2637,-41.1813038 759.3252,702.3025962 511.9968,511.59933 684.8865,687.26143 694.763,705.90393 17.8509,33.6948 18.5729,83.8021 1.6808,116.6474 -17.582,34.1866 -1364.3756,1380.7455 -1397.6468,1397.4032 -34.218,17.1318 -80.4696,17.1344 -114.6982,0.01 z m 109.4681,-30.1719 c 10.9202,-6.3191 325.1287,-317.0912 698.2413,-690.6046 722.909,-723.6857 689.0623,-687.6456 689.0623,-733.7161 0,-46.074 34.0213,-9.8551 -691.5441,-736.21402 C 1845.1431,360.64102 1530.9345,49.874681 1521.3793,44.936338 1494.657,31.125578 1473.7123,28.342548 1445.4635,34.849012 1419.8193,40.75557 1414.4276,45.988205 735.35634,724.0073 260.42643,1198.2014 48.243326,1413.288 41.785892,1427.0687 c -11.342446,24.2057 -12.153663,60.9619 -1.893257,85.7836 5.413902,13.0971 204.629615,215.6029 686.233915,697.5672 373.23295,373.5119 685.30645,682.7165 693.49655,687.1212 33.1493,17.828 71.823,17.2797 104.2381,-1.4778 z"
   id="path16387"
   transform="translate(-0.525,-0.67)" /><path
   style="fill:#000000;fill-rule:nonzero;stroke:none"
   d="m 1642.4605,1834.693 c -8.8125,-25.2625 -23.95,-36.625 -46.6375,-36.625 h -42.8625 v 258.95 h 42.8625 c 30.25,0 46.6375,-24 51.6875,-51.8 2.5125,-22.7375 5.0375,-48 5.0375,-75.7875 0,-40.4125 -3.775,-79.575 -10.0875,-94.7375 z m 8.825,256.425 c -12.6,11.3625 -30.25,16.425 -50.425,16.425 h -99.575 v -360 h 92.0125 c 30.2625,0 45.3875,3.7875 57.9875,13.8875 21.4375,15.1625 36.5625,42.95 42.8625,79.575 5.0375,26.5375 8.825,58.1125 8.825,85.9 0,83.375 -16.3875,136.425 -51.6875,164.2125 z"
   id="path17"
   inkscape:connector-curvature="0" /><path
   style="fill:#000000;fill-rule:nonzero;stroke:none"
   d="m 975.49797,2107.543 v -360 h 169.75383 v 50.525 h -117.815 v 90.95 h 74.7437 v 49.2625 h -74.7437 v 118.7375 h 131.7512 v 50.525 z"
   id="path19"
   inkscape:connector-curvature="0" /><path
   style="fill:#000000;fill-rule:nonzero;stroke:none"
   d="m 1382.998,2107.543 -110.925,-241.2625 v 241.2625 h -51.685 v -360 h 51.685 l 98.325,216 v -216 h 51.675 v 360 z"
   id="path21"
   inkscape:connector-curvature="0" /><path
   style="fill:#000000;fill-rule:nonzero;stroke:none"
   d="m 1859.473,1941.2805 c -15.5625,-10.0875 -30.6875,-20.2125 -40.35,-27 -29.025,-20.4375 -44.4,-48 -44.4,-79.5875 0,-51.7875 40.6,-93.475 92.6125,-93.475 50.7375,0 90.0625,39.1625 91.325,93.475 h -49.475 c -1.2625,-25.2625 -19.025,-41.675 -41.85,-41.675 -24.1125,0 -43.1375,17.675 -43.1375,41.675 0,17.6875 7.6125,27.7875 34.25,42.95 69.775,40.425 100.2125,79.575 100.2125,131.375 0,58.1 -44.4,104.8376 -100.2125,104.8376 -63.425,0 -101.475,-53.0501 -101.475,-112.4251 h 50.7375 c 0,30.3125 15.225,61.9 50.7375,61.9 27.9125,0 50.7375,-25.2625 50.7375,-54.3125 0,-22.5625 -9.3125,-41.5625 -49.7125,-67.7375 z"
   id="path23"
   inkscape:connector-curvature="0" /><path
   style="fill:#000000;fill-rule:nonzero;stroke:none"
   d="m 1888.023,1204.693 c -8.825,-25.2625 -23.95,-36.625 -46.6375,-36.625 h -42.8625 v 258.9375 h 42.8625 c 30.25,0 46.6375,-24 51.6875,-51.7875 2.5125,-22.7375 5.0375,-48 5.0375,-75.7875 0,-40.425 -3.7875,-79.575 -10.0875,-94.7375 z m 8.825,256.425 c -12.6,11.3625 -30.25,16.425 -50.425,16.425 h -99.575 v -360.005 h 92.0125 c 30.2625,0 45.3875,3.7875 57.9875,13.8938 21.425,15.1575 36.5625,42.9487 42.8625,79.5737 5.0375,26.525 8.825,58.1125 8.825,85.9 0,83.3625 -16.3875,136.425 -51.6875,164.2125 z"
   id="path25"
   inkscape:connector-curvature="0" /><path
   style="fill:#000000;fill-rule:nonzero;stroke:none"
   d="m 2020.5355,1477.543 v -360.005 h 169.75 v 50.53 H 2072.473 v 90.9375 h 74.7375 v 49.275 h -74.7375 v 118.725 h 131.75 v 50.5375 z"
   id="path27"
   inkscape:connector-curvature="0" /><path
   style="fill:#000000;fill-rule:nonzero;stroke:none"
   d="m 823.69047,1477.543 v -162.95 h -98.3225 v 162.95 h -51.685 v -360.005 h 51.685 v 146.53 h 98.3225 v -146.53 h 51.6825 v 360.005 z"
   id="path29"
   inkscape:connector-curvature="0" /><path
   style="fill:#000000;fill-rule:nonzero;stroke:none"
   d="m 1512.7605,1477.543 v -360.005 h 51.9375 v 312.005 h 131.75 v 48 z"
   id="path31"
   inkscape:connector-curvature="0" /><path
   style="fill:#000000;fill-rule:nonzero;stroke:none"
   d="m 1098.7881,1207.218 c -8.9063,-31.575 -22.9025,-45.4712 -44.5338,-45.4712 -22.9025,0 -36.8987,13.8962 -45.805,44.2087 -8.90883,27.7875 -11.45253,51.7875 -11.45253,92.2125 0,39.1625 3.81753,61.9 11.45253,90.95 8.9063,30.3125 22.9025,44.2125 45.805,44.2125 21.6313,0 35.6275,-13.9 44.5338,-44.2125 8.9062,-29.05 11.45,-50.525 11.45,-92.2125 0,-40.425 -3.815,-63.1625 -11.45,-89.6875 z m 40.715,214.7375 c -17.8125,42.95 -44.5325,61.9 -85.2488,61.9 -43.2612,0 -68.70883,-18.95 -86.52253,-61.9 -15.2688,-35.3625 -20.36,-69.475 -20.36,-125.05 0,-54.3125 5.0912,-90.95 20.36,-125.05 19.0862,-42.9512 44.53253,-60.635 86.52253,-60.635 41.99,0 67.4363,17.6838 85.2488,61.8975 15.2712,35.3625 20.36,69.475 20.36,123.7875 0,55.575 -5.0888,90.95 -20.36,125.05 z"
   id="path33"
   inkscape:connector-curvature="0" /><path
   style="fill:#000000;fill-rule:nonzero;stroke:none"
   d="m 2370.048,1168.068 h -52.9375 v 90.9375 h 52.9375 c 30.2626,0 46.6501,-16.4125 46.6501,-45.4625 0,-27.8 -18.9125,-45.475 -46.6501,-45.475 z m 44.1251,309.475 -47.9001,-169.275 h -49.1625 v 169.275 h -51.6875 v -360.005 h 107.15 c 56.7251,0 94.5376,37.8938 94.5376,96.005 0,42.9375 -17.65,74.525 -51.675,87.15 l 51.675,176.85 z"
   id="path35"
   inkscape:connector-curvature="0" /><path
   style="fill:#000000;fill-rule:nonzero;stroke:none"
   d="m 513.30297,1311.2805 c -15.5737,-10.0875 -30.6987,-20.2125 -40.3525,-27.0125 -29.0225,-20.425 -44.3987,-48 -44.3987,-79.575 0,-51.7887 40.5925,-93.4725 92.6025,-93.4725 50.7375,0 90.0612,39.1588 91.33,93.4725 h -49.47 c -1.27,-25.2625 -19.0288,-41.6825 -41.86,-41.6825 -24.1013,0 -43.13,17.6825 -43.13,41.6825 0,17.6875 7.6125,27.7875 34.25,42.95 69.7662,40.425 100.21,79.575 100.21,131.3625 0,58.1125 -44.3963,104.85 -100.21,104.85 -63.425,0 -101.4788,-53.05 -101.4788,-112.425 h 50.7388 c 0,30.3125 15.22,61.9 50.74,61.9 27.905,0 50.74,-25.2625 50.74,-54.325 0,-22.55 -9.3238,-41.55 -49.7113,-67.725 z"
   id="path37"
   inkscape:connector-curvature="0" /><path
   style="fill:#000000;fill-rule:nonzero;stroke:none"
   d="m 1419.6855,1433.3305 c -17.65,29.05 -51.675,50.525 -85.7125,50.525 -35.3,0 -70.6,-20.2125 -88.25,-50.525 -10.0875,-18.95 -13.8625,-34.1125 -13.8625,-63.1625 v -252.63 h 51.6875 v 258.9425 c 0,34.1125 20.1625,56.85 50.425,56.85 27.725,0 47.9,-22.7375 47.9,-56.85 V 1117.538 h 51.675 v 252.63 c 0,29.05 -3.775,44.2125 -13.8625,63.1625 z"
   id="path39"
   inkscape:connector-curvature="0" /></svg>
