<?xml version="1.0" encoding="UTF-8" standalone="no"?>
<!-- Generator: Adobe Illustrator 14.0.0, SVG Export Plug-In  -->

<svg
   xmlns:dc="http://purl.org/dc/elements/1.1/"
   xmlns:cc="http://creativecommons.org/ns#"
   xmlns:rdf="http://www.w3.org/1999/02/22-rdf-syntax-ns#"
   xmlns:svg="http://www.w3.org/2000/svg"
   xmlns="http://www.w3.org/2000/svg"
   xmlns:sodipodi="http://sodipodi.sourceforge.net/DTD/sodipodi-0.dtd"
   xmlns:inkscape="http://www.inkscape.org/namespaces/inkscape"
   version="1.1"
   x="0px"
   y="0px"
   width="86.187477"
   height="128.93747"
   viewBox="0 -0.321 86.187481 128.9375"
   enable-background="new 0 -0.321 144 120"
   xml:space="preserve"
   id="svg2"
   inkscape:version="0.48.2 r9819"
   sodipodi:docname="AJAX1.svg"><metadata
   id="metadata44"><rdf:RDF><cc:Work
       rdf:about=""><dc:format>image/svg+xml</dc:format><dc:type
         rdf:resource="http://purl.org/dc/dcmitype/StillImage" /><dc:title></dc:title></cc:Work></rdf:RDF></metadata><sodipodi:namedview
   pagecolor="#ffffff"
   bordercolor="#666666"
   borderopacity="1"
   objecttolerance="10"
   gridtolerance="10"
   guidetolerance="10"
   inkscape:pageopacity="0"
   inkscape:pageshadow="2"
   inkscape:window-width="1280"
   inkscape:window-height="1004"
   id="namedview42"
   showgrid="false"
   fit-margin-top="0"
   fit-margin-left="0"
   fit-margin-right="0"
   fit-margin-bottom="0"
   inkscape:zoom="3.7904688"
   inkscape:cx="36.382054"
   inkscape:cy="75.109718"
   inkscape:window-x="-8"
   inkscape:window-y="-8"
   inkscape:window-maximized="1"
   inkscape:current-layer="svg2" />
<defs
   id="defs4">
</defs>


















<path
   inkscape:connector-curvature="0"
   d="m 11.024008,0.03319 64.12251,0 c 5.88626,0 10.68751,4.80125 10.68751,10.6875 l 0,106.87503 c 0,5.88625 -4.80125,10.68625 -10.68751,10.68625 l -64.12251,0 c -5.8862512,0 -10.68750103,-4.8 -10.68750103,-10.68625 l 0,-106.87503 c 0,-5.8125 4.87374983,-10.6875 10.68750103,-10.6875"
   style="fill:#ffffff;fill-opacity:1;fill-rule:nonzero;stroke:#000000;stroke-width:0.70000017;stroke-linecap:butt;stroke-linejoin:miter;stroke-miterlimit:4;stroke-opacity:1;stroke-dasharray:none"
   id="path3315" /><path
   inkscape:connector-curvature="0"
   d="m 11.057758,2.70469 64.05501,0 c 4.415,0.0175 8.02251,3.6425 8.05001,8.05 l 0,106.80628 c -0.0275,4.41 -3.63501,8.0275 -8.05001,8.05 l -64.05501,0 c -4.4037512,-0.0225 -8.0362512,-3.64 -8.0487512,-8.05 l 0,-106.80628 c 0.0137,-4.4075 3.645,-8.0325 8.0487512,-8.05"
   style="fill:#bf2519;fill-opacity:1;fill-rule:evenodd;stroke:none"
   id="path3319" /><path
   inkscape:connector-curvature="0"
   d="m 11.096508,5.82557 63.97626,0 c 2.75,0.0163 4.955,2.2175 4.97,4.96875 l 0,106.72753 c -0.015,2.7375 -2.22,4.97 -4.97,4.9675 l -63.97626,0 c -2.7475012,0.002 -4.9537512,-2.23 -4.9675012,-4.9675 l 0,-106.72753 c 0.0125,-2.75125 2.22,-4.9525 4.9675012,-4.96875"
   style="fill:#ffffff;fill-opacity:1;fill-rule:evenodd;stroke:none"
   id="path3323" /><path
   inkscape:connector-curvature="0"
   d="m 49.890268,29.97283 -12.24126,0 0,9.70375 12.24126,0 c 3.28375,0 5.37375,-1.94125 5.37375,-4.92625 0,-2.6875 -2.23875,-4.7775 -5.37375,-4.7775 m 7.16375,16.42125 c -2.53625,1.3425 -4.32625,1.79 -8.21,1.79 l -11.19501,0 0,15.97375 -8.35875,0 0,-42.69376 20.00251,0 c 3.5825,0 5.37625,0.4475 7.76125,1.79125 4.03,2.38875 6.5675,6.71751 6.5675,11.49501 0,4.92625 -2.5375,9.40375 -6.5675,11.64375"
   style="fill:#000000;fill-opacity:1;fill-rule:nonzero;stroke:none"
   id="path3327" /><path
   inkscape:connector-curvature="0"
   d="m 43.055268,8.0327 c 19.1275,0 34.73375,15.6025 34.73375,34.73501 0,19.13 -15.60625,34.73376 -34.73375,34.73376 -19.13126,0 -34.7337612,-15.60376 -34.7337612,-34.73376 0,-19.13251 15.6025012,-34.73501 34.7337612,-34.73501 m 21.91875,50.87251 c 8.27375,-10.65 7.2775,-25.99625 -2.495,-35.77001 -9.77375,-9.775 -24.9975,-10.64875 -35.64751,-2.37875 l 38.14251,38.14876 z m -5.725,5.60875 c -10.65,8.27626 -25.84126,7.24501 -35.61626,-2.53125 -9.7775,-9.775 -10.8075,-24.96625 -2.53375,-35.61626 l 38.15001,38.14751 z"
   style="fill:#bf2519;fill-opacity:1;fill-rule:evenodd;stroke:none"
   id="path3331" /><path
   inkscape:connector-curvature="0"
   d="m 41.740268,90.99285 c 0,1.05 0.2,5.4975 -1.39875,5.4975 -1.65,0 -1.4975,-4.4975 -1.4975,-5.4975 0,-0.99875 -0.1525,-5.445 1.4975,-5.495 1.64875,0.05 1.39875,4.49625 1.39875,5.495 m 1.89875,0 c 0,-2.4975 0.2,-7.345 -3.2975,-7.345 -3.29875,0 -3.3475,4.8475 -3.3475,7.345 0,2.39875 -0.20001,7.355 3.3475,7.355 3.4975,0 3.24625,-4.95625 3.2975,-7.355 m -8.49501,3.15 c 0,-1.25 -0.1,-2.19875 -0.39875,-2.9 -0.15,-0.29875 -0.35,-0.54875 -0.69875,-0.89875 0.54875,-0.99875 0.7475,-1.84875 0.7475,-3.0975 0,-2.4 -1,-3.59875 -2.9475,-3.59875 -1.59875,0 -2.6975,1.05 -2.7975,2.79875 l 1.8475,0 c 0.05,-0.6 0.4,-0.94875 0.95,-0.94875 0.74875,0 1.1,0.55 1.1,1.74875 0,1.64875 -0.35125,2.19875 -1.35,2.19875 l -0.44875,0 0,1.84875 0.6,0 c 1.19875,0 1.5475,0.59875 1.5475,2.84875 0,1.6975 -0.34875,2.3975 -1.29875,2.3975 -0.6,0 -1.05,-0.45 -1.1,-1.04875 l -1.8475,0 c 0,0.44875 0.15,0.94875 0.45,1.39875 0.59875,1 1.3975,1.50875 2.4475,1.50875 1.19875,0 1.79875,-0.30875 2.34875,-0.9575 0.54875,-0.70125 0.84875,-1.9 0.84875,-3.29875 m -12.6425,-0.15125 c 0,1.6 -0.4475,2.54875 -1.19875,2.54875 -0.7975,0 -1.24875,-0.94875 -1.24875,-2.54875 0,-1.5975 0.45125,-2.4475 1.24875,-2.4475 0.75125,0 1.19875,0.85 1.19875,2.4475 m -0.24875,-6.19625 c 0,1.3 -0.3,1.89875 -0.95,1.89875 -0.69875,0 -1,-0.59875 -1,-1.89875 0,-1.49875 0.30125,-2.2975 1,-2.2975 0.65,0 0.95,0.79875 0.95,2.2975 m 2.09875,6.19625 c 0,-1.4975 -0.4,-2.64875 -1.09875,-3.54875 0.59875,-0.65 0.84875,-1.5475 0.84875,-2.7475 0,-2.4475 -1.09875,-4.0475 -2.84875,-4.0475 -1.69875,0 -2.7975,1.6 -2.7975,4.0475 0,1.25 0.25,2.05 0.85,2.7475 -0.70125,0.9 -1.09875,2.09875 -1.09875,3.54875 0,1.05 0.24875,2.09875 0.59875,2.84875 0.5,1.05 1.24875,1.55875 2.4975,1.55875 0.95,0 1.65,-0.36 2.14875,-1.00875 0.55,-0.75 0.9,-2.04875 0.9,-3.39875"
   style="fill:#bf2519;fill-opacity:1;fill-rule:evenodd;stroke:none"
   id="path3335" /><path
   inkscape:connector-curvature="0"
   d="m 67.942768,98.13997 0,-14.2425 -1.8,0 -1.6975,5.0475 -1.74875,-5.0475 -1.8,0 0,14.2425 1.8,0 0,-8.44625 1.74875,5.3475 1.6975,-5.3475 0,8.44625 1.8,0 z m -12.0925,-5.64625 -1.5475,0 0.79875,-3.74875 0.74875,3.74875 z m 3.09875,5.64625 -2.9475,-14.2425 -1.8475,0 -2.9,14.2425 1.84875,0 0.79875,-3.79875 2.34625,0 0.80125,3.79875 1.9,0 z"
   style="fill:#bf2519;fill-opacity:1;fill-rule:evenodd;stroke:none"
   id="path3339" /><path
   inkscape:connector-curvature="0"
   d="m 24.421508,110.38372 c 0,0.95 0.2,5.54751 -1.4,5.54751 -1.64875,0 -1.44875,-4.59751 -1.44875,-5.54751 0,-0.99875 -0.2,-5.44625 1.44875,-5.44625 1.34875,0 1.4,4.2975 1.4,5.44625 m 1.89875,0 c 0,-2.3975 0.19875,-7.295 -3.29875,-7.295 -3.4975,0 -3.2975,4.8475 -3.2975,7.295 0,2.3475 -0.25,7.40376 3.2975,7.40376 3.4975,0 3.29875,-5.05626 3.29875,-7.40376 m -8.195,-5.2475 0,-1.84875 -5.39625,0 0,1.84875 1.7475,0 0,12.39376 1.8,0 0,-12.39376 1.84875,0 z"
   style="fill:#bf2519;fill-opacity:1;fill-rule:evenodd;stroke:none"
   id="path3343" /><path
   inkscape:connector-curvature="0"
   d="m 52.481518,110.38372 c 0,1.04875 0.2025,5.49626 -1.39875,5.49626 -1.64875,0 -1.49875,-4.49626 -1.49875,-5.49626 0,-0.99875 -0.15,-5.44625 1.49875,-5.495 1.64875,0.0487 1.39875,4.49625 1.39875,5.495 m 1.89875,0 c 0,-2.49875 0.2,-7.345 -3.2975,-7.345 -3.29875,0 -3.3475,4.84625 -3.3475,7.345 0,2.39875 -0.19875,7.35376 3.3475,7.35376 3.4975,0 3.24625,-4.95501 3.2975,-7.35376 m -8.49375,3.14875 c 0,-1.25 -0.10125,-2.19875 -0.4,-2.9 -0.14875,-0.29875 -0.35,-0.54875 -0.69875,-0.89875 0.55,-0.99875 0.74875,-1.84875 0.74875,-3.0975 0,-2.39875 -0.99875,-3.5975 -2.9475,-3.5975 -1.6,0 -2.69875,1.04875 -2.79875,2.7975 l 1.84875,0 c 0.05,-0.59875 0.4,-0.9475 0.95,-0.9475 0.74875,0 1.09875,0.54875 1.09875,1.7475 0,1.65 -0.35,2.19875 -1.35,2.19875 l -0.44875,0 0,1.84875 0.60125,0 c 1.1975,0 1.54875,0.6 1.54875,2.84875 0,1.69876 -0.35125,2.39876 -1.3,2.39876 -0.6,0 -1.05,-0.45125 -1.1,-1.04875 l -1.84875,0 c 0,0.45 0.15,0.9475 0.45125,1.3975 0.59875,1 1.3975,1.5075 2.4475,1.5075 1.19875,0 1.7975,-0.3075 2.34875,-0.9575 0.54875,-0.7 0.84875,-1.89875 0.84875,-3.29751 m -9.79501,-1.64875 c 0,-1 -0.24875,-2 -0.64875,-2.64875 -0.55,-0.9 -1.24875,-1.29875 -2.3475,-1.29875 -0.3,0 -0.55125,0.05 -0.95,0.0987 l 0.0488,-2.89875 3.49875,0 0,-1.84875 -5.24625,0 -0.24875,6.89625 1.8475,0.2 c 0.35,-0.4 0.6,-0.59875 1,-0.59875 0.74875,0 1.19875,0.7 1.19875,1.79875 0,0.94875 -0.25,2.19876 -0.6,2.99751 -0.35,0.95 -0.79875,1.35 -1.49875,1.35 -0.39875,0 -0.69875,-0.10125 -1.2,-0.4 l -0.95,1.59875 c 0.70125,0.45875 1.40125,0.6575 2.15,0.6575 1.34875,0 2.3475,-0.6575 3.04875,-1.9575 0.59875,-1.19875 0.8975,-2.59751 0.8975,-3.94626"
   style="fill:#bf2519;fill-opacity:1;fill-rule:evenodd;stroke:none"
   id="path3347" /><path
   inkscape:connector-curvature="0"
   d="m 73.396518,117.52986 0,-14.24251 -1.7975,0 -1.70125,5.0475 -1.7475,-5.0475 -1.80125,0 0,14.24251 1.80125,0 0,-8.44501 1.7475,5.34751 1.70125,-5.34751 0,8.44501 1.7975,0 z M 62.552768,107.4361 c 0,1.49875 -0.39875,2.04875 -1.4975,2.04875 l -1.00125,0 0,-4.34875 1.00125,0 c 0.99875,0 1.4975,0.7 1.4975,2.3 m 1.84875,0 c 0,-1.55 -0.55,-2.89875 -1.3475,-3.5475 -0.45125,-0.40125 -1.19875,-0.60125 -1.99875,-0.60125 l -2.8,0 0,14.24251 1.79875,0 0,-6.19626 1.00125,0 c 1.99875,0 3.34625,-1.54875 3.34625,-3.8975"
   style="fill:#bf2519;fill-opacity:1;fill-rule:evenodd;stroke:none"
   id="path3351" /><path
   inkscape:connector-curvature="0"
   d="m 27.850258,88.17122 c 0,-0.6 -0.45125,-1.04875 -1.05,-1.04875 -0.55,0 -1.05,0.44875 -1.05,1.04875 0,0.59875 0.5,1.05 1.05,1.05 0.59875,0 1.05,-0.45125 1.05,-1.05"
   style="fill:#bf2519;fill-opacity:1;fill-rule:evenodd;stroke:none"
   id="path5149" /><path
   inkscape:connector-curvature="0"
   d="m 27.850258,93.86622 c 0,-0.60125 -0.45125,-1.05125 -1.05,-1.05125 -0.55,0 -1.05,0.45 -1.05,1.05125 0,0.55 0.5,1.0575 1.05,1.0575 0.59875,0 1.05,-0.5075 1.05,-1.0575"
   style="fill:#bf2519;fill-opacity:1;fill-rule:evenodd;stroke:none"
   id="path5153" /><path
   inkscape:connector-curvature="0"
   d="m 39.091518,107.56123 c 0,-0.59875 -0.45125,-1.04875 -1.05,-1.04875 -0.55,0 -1.05,0.45 -1.05,1.04875 0,0.6 0.5,1.05 1.05,1.05 0.59875,0 1.05,-0.45 1.05,-1.05"
   style="fill:#bf2519;fill-opacity:1;fill-rule:evenodd;stroke:none"
   id="path5157" /><path
   inkscape:connector-curvature="0"
   d="m 39.091518,113.25623 c 0,-0.60125 -0.45125,-1.05 -1.05,-1.05 -0.55,0 -1.05,0.44875 -1.05,1.05 0,0.55001 0.5,1.05751 1.05,1.05751 0.59875,0 1.05,-0.5075 1.05,-1.05751"
   style="fill:#bf2519;fill-opacity:1;fill-rule:evenodd;stroke:none"
   id="path5161" /></svg>