<?xml version="1.0" encoding="UTF-8" standalone="no"?>
<!-- Generator: Adobe Illustrator 14.0.0, SVG Export Plug-In  -->

<svg
   xmlns:dc="http://purl.org/dc/elements/1.1/"
   xmlns:cc="http://creativecommons.org/ns#"
   xmlns:rdf="http://www.w3.org/1999/02/22-rdf-syntax-ns#"
   xmlns:svg="http://www.w3.org/2000/svg"
   xmlns="http://www.w3.org/2000/svg"
   xmlns:sodipodi="http://sodipodi.sourceforge.net/DTD/sodipodi-0.dtd"
   xmlns:inkscape="http://www.inkscape.org/namespaces/inkscape"
   version="1.1"
   x="0px"
   y="0px"
   width="108.95812"
   height="108.94391"
   viewBox="0 -0.321 108.95811 108.94394"
   enable-background="new 0 -0.321 144 120"
   xml:space="preserve"
   id="svg2"
   inkscape:version="0.48.2 r9819"
   sodipodi:docname="MUTCD W20-1 (temporary).svg"><metadata
   id="metadata44"><rdf:RDF><cc:Work
       rdf:about=""><dc:format>image/svg+xml</dc:format><dc:type
         rdf:resource="http://purl.org/dc/dcmitype/StillImage" /><dc:title></dc:title></cc:Work></rdf:RDF></metadata><sodipodi:namedview
   pagecolor="#ffffff"
   bordercolor="#666666"
   borderopacity="1"
   objecttolerance="10"
   gridtolerance="10"
   guidetolerance="10"
   inkscape:pageopacity="0"
   inkscape:pageshadow="2"
   inkscape:window-width="1280"
   inkscape:window-height="1004"
   id="namedview42"
   showgrid="false"
   fit-margin-top="0"
   fit-margin-left="0"
   fit-margin-right="0"
   fit-margin-bottom="0"
   inkscape:zoom="5.3605324"
   inkscape:cx="44.311927"
   inkscape:cy="43.71383"
   inkscape:window-x="-8"
   inkscape:window-y="-8"
   inkscape:window-maximized="1"
   inkscape:current-layer="svg2" />
<defs
   id="defs4">
</defs>


















<path
   inkscape:connector-curvature="0"
   d="M 51.560314,107.43231 1.2065487,57.078548 c -1.60874999,-1.60875 -1.60874999,-4.231251 0,-5.840002 L 51.557814,0.88728241 c 1.60875,-1.610001 4.233751,-1.611251 5.842501,-0.0025 L 107.75158,51.241046 c 1.60875,1.608751 1.60875,4.230002 0,5.838752 L 57.400315,107.43231 c -1.58875,1.58625 -4.250001,1.58875 -5.840001,0"
   style="fill:#f4911d;fill-opacity:1;fill-rule:nonzero;stroke:none"
   id="path6980" /><path
   inkscape:connector-curvature="0"
   d="M 52.361563,106.61219 2.0265487,56.278428 c -1.15749999,-1.160001 -1.15499999,-3.078751 0,-4.238751 L 52.359063,1.7071624 c 1.16,-1.15874999 3.076251,-1.15624999 4.240001,0 L 106.92908,52.042177 c 1.1575,1.16 1.16,3.075 0,4.236251 L 56.599064,106.61219 c -1.16125,1.1525 -3.078751,1.15625 -4.237501,0"
   style="fill:#000000;fill-opacity:1;fill-rule:evenodd;stroke:none"
   id="path6984" /><path
   inkscape:connector-curvature="0"
   d="M 53.481563,105.46231 3.1765487,55.157297 c -0.55625,-0.53875 -0.55625,-1.4575 0,-1.99625 L 53.481563,2.8572824 c 0.5375,-0.55625 1.455001,-0.55625 1.995001,0 L 105.78158,53.161047 c 0.55625,0.54 0.55625,1.45875 -0.002,1.99875 L 55.479064,105.46231 c -0.54,0.55625 -1.457501,0.55625 -1.997501,0"
   style="fill:#f4911d;fill-opacity:1;fill-rule:evenodd;stroke:none"
   id="path6988" /><path
   d="m 84.295312,42.213665 c 0,0.55625 -0.3225,1.11375 -0.835,1.39125 -0.3275,0.18625 -0.55625,0.235 -1.208751,0.235 l -2.5075,0 0,-3.252501 2.5075,0 c 0.698751,0 0.881251,0.04625 1.208751,0.2325 0.5125,0.277501 0.835,0.835001 0.835,1.393751 m 2.367501,9.518753 -2.321251,-6.176252 c 1.20875,-0.55625 2.043751,-1.951251 2.043751,-3.342501 0,-1.347501 -0.835001,-2.741251 -1.997501,-3.298751 -0.64875,-0.32375 -1.345,-0.42 -2.367501,-0.42 l -4.366251,0 0,13.237504 2.090001,0 0,-5.758752 2.5075,0 2.136251,5.758752 2.275001,0 z m -12.121254,-4.736252 0,-8.501252 -2.09,0 0,8.501252 c 0,1.718751 -0.973751,2.832501 -2.413751,2.832501 -1.43875,0 -2.412501,-1.11375 -2.412501,-2.832501 l 0,-8.501252 -2.0925,0 0,8.501252 c 0,1.021251 0.2325,1.951251 0.60375,2.740001 0.6975,1.301251 2.275,2.236251 3.901251,2.236251 1.625,0 3.205001,-0.935 3.901251,-2.236251 0.37125,-0.78875 0.6025,-1.71875 0.6025,-2.740001 m -13.977504,-1.8575 c 0,1.0225 -0.2325,2.32125 -0.51,3.017501 -0.46625,1.1625 -1.07,1.6725 -2.046251,1.6725 -0.835,0 -1.39125,-0.325 -1.80875,-1.02125 -0.5125,-0.8375 -0.79125,-2.277501 -0.79125,-3.668751 0,-1.116251 0.185,-2.322501 0.5125,-3.112501 0.46125,-1.160001 1.11375,-1.670001 2.13375,-1.626251 0.791251,0.04875 1.301251,0.32625 1.718751,1.022501 0.5125,0.88125 0.79125,2.22875 0.79125,3.716251 m 2.088751,0 c 0,-1.672501 -0.32375,-3.342501 -0.8825,-4.505002 -0.835001,-1.62625 -1.997501,-2.3675 -3.667501,-2.3675 -1.532501,0 -2.602501,0.46375 -3.391251,1.48625 -0.883751,1.252501 -1.440001,3.203751 -1.440001,5.386252 0,1.58 0.37125,3.345001 0.9275,4.457501 0.791251,1.626251 1.951251,2.376251 3.808751,2.376251 1.393751,0 2.461251,-0.47125 3.206251,-1.495 0.927501,-1.158751 1.438751,-3.248752 1.438751,-5.338752 m -11.053753,-4.782502 0,-1.86125 -8.173753,0 0,1.86125 3.020001,0 0,11.376254 2.087501,0 0,-11.376254 3.066251,0 z m -9.193753,11.376254 0,-2.136251 -6.133752,0 0,-3.622501 3.857501,0 0,-2.133751 -3.857501,0 0,-3.252501 5.713752,0 0,-2.0925 -7.800002,0 0,13.237504 8.220002,0 z M 29.167797,45.092416 c 0,1.765 -0.4175,3.202501 -1.206251,3.993751 -0.37125,0.37125 -0.79125,0.51 -1.48625,0.51 l -2.090001,0 0,-9.008753 2.367501,0 c 0.55875,0 1.02125,0.2325 1.345,0.557501 0.652501,0.695 1.070001,2.1825 1.070001,3.947501 m 2.13625,0 c 0,-2.600001 -0.78875,-4.692502 -2.1825,-5.898752 -0.696251,-0.55625 -1.206251,-0.69875 -2.553751,-0.69875 l -4.272501,0 0,13.237504 4.040001,0 0.7425,0 c 0.69625,-0.04625 1.39375,-0.2775 1.903751,-0.7425 1.4875,-1.161251 2.3225,-3.251252 2.3225,-5.897502"
   style="fill:#000000;fill-opacity:1;fill-rule:evenodd;stroke:none"
   id="path7048"
   inkscape:connector-curvature="0" /><path
   d="m 26.325296,72.692174 0,-10.878753 -0.8375,0 0,-1.442501 c 0.745,-0.0475 1.20875,-0.37125 1.49,-0.93125 l 1.255,0 0,13.252504 -1.9075,0 z"
   style="fill:#000000;fill-opacity:1;fill-rule:nonzero;stroke:none"
   id="path7052"
   inkscape:connector-curvature="0" /><path
   d="m 36.462798,62.743421 c -0.3275,-1.165 -0.8375,-1.675 -1.62875,-1.675 -0.8375,0 -1.347501,0.51 -1.675001,1.62625 -0.325,1.0225 -0.4175,1.906251 -0.4175,3.396251 0,1.44 0.14,2.277501 0.4175,3.346251 0.3275,1.11625 0.837501,1.62875 1.675001,1.62875 0.79125,0 1.30125,-0.5125 1.62875,-1.62875 0.325,-1.06875 0.4175,-1.860001 0.4175,-3.395001 0,-1.4875 -0.14,-2.325001 -0.4175,-3.298751 m 1.486251,7.902502 c -0.64875,1.582501 -1.626251,2.277501 -3.115001,2.277501 -1.580001,0 -2.510001,-0.695 -3.161251,-2.277501 -0.5575,-1.30125 -0.745,-2.55625 -0.745,-4.603751 0,-2.000001 0.1875,-3.347501 0.745,-4.602501 0.6975,-1.580001 1.6275,-2.231251 3.161251,-2.231251 1.53625,0 2.466251,0.65125 3.115001,2.277501 0.55875,1.30125 0.745,2.55625 0.745,4.556251 0,2.047501 -0.18625,3.348751 -0.745,4.603751"
   style="fill:#000000;fill-opacity:1;fill-rule:nonzero;stroke:none"
   id="path7056"
   inkscape:connector-curvature="0" /><path
   d="m 46.645301,62.743421 c -0.325,-1.165 -0.8375,-1.675 -1.6275,-1.675 -0.835,0 -1.348751,0.51 -1.672501,1.62625 -0.3275,1.0225 -0.42,1.906251 -0.42,3.396251 0,1.44 0.13875,2.277501 0.42,3.346251 0.32375,1.11625 0.837501,1.62875 1.672501,1.62875 0.79,0 1.3025,-0.5125 1.6275,-1.62875 0.325,-1.06875 0.4175,-1.860001 0.4175,-3.395001 0,-1.4875 -0.13875,-2.325001 -0.4175,-3.298751 m 1.487501,7.902502 c -0.650001,1.582501 -1.626251,2.277501 -3.115001,2.277501 -1.580001,0 -2.510001,-0.695 -3.162501,-2.277501 -0.55875,-1.30125 -0.74375,-2.55625 -0.74375,-4.603751 0,-2.000001 0.185,-3.347501 0.74375,-4.602501 0.69875,-1.580001 1.62875,-2.231251 3.162501,-2.231251 1.535,0 2.465,0.65125 3.115001,2.277501 0.55875,1.30125 0.74375,2.55625 0.74375,4.556251 0,2.047501 -0.185,3.348751 -0.74375,4.603751"
   style="fill:#000000;fill-opacity:1;fill-rule:nonzero;stroke:none"
   id="path7060"
   inkscape:connector-curvature="0" /><path
   d="m 56.829054,62.743421 c -0.3275,-1.165 -0.8375,-1.675 -1.62875,-1.675 -0.837501,0 -1.347501,0.51 -1.672501,1.62625 -0.3275,1.0225 -0.42,1.906251 -0.42,3.396251 0,1.44 0.14,2.277501 0.42,3.346251 0.325,1.11625 0.835,1.62875 1.672501,1.62875 0.79125,0 1.30125,-0.5125 1.62875,-1.62875 0.325,-1.06875 0.4175,-1.860001 0.4175,-3.395001 0,-1.4875 -0.14,-2.325001 -0.4175,-3.298751 m 1.486251,7.902502 c -0.648751,1.582501 -1.626251,2.277501 -3.115001,2.277501 -1.580001,0 -2.510001,-0.695 -3.161251,-2.277501 -0.5575,-1.30125 -0.745,-2.55625 -0.745,-4.603751 0,-2.000001 0.1875,-3.347501 0.745,-4.602501 0.6975,-1.580001 1.6275,-2.231251 3.161251,-2.231251 1.53625,0 2.46625,0.65125 3.115001,2.277501 0.55875,1.30125 0.745,2.55625 0.745,4.556251 0,2.047501 -0.18625,3.348751 -0.745,4.603751"
   style="fill:#000000;fill-opacity:1;fill-rule:nonzero;stroke:none"
   id="path7064"
   inkscape:connector-curvature="0" /><path
   d="m 70.220308,61.300546 0,3.347501 2.651251,0 0,1.81375 -2.651251,0 0,6.230002 -1.906251,0 0,-13.251254 6.742502,0 0,1.860001 -4.836251,0 z"
   style="fill:#000000;fill-opacity:1;fill-rule:nonzero;stroke:none"
   id="path7068"
   inkscape:connector-curvature="0" /><path
   d="m 80.217811,61.207796 0,11.485003 -1.906251,0 0,-11.485003 -2.4175,0 0,-1.767501 6.741252,0 0,1.767501 -2.417501,0 z"
   style="fill:#000000;fill-opacity:1;fill-rule:nonzero;stroke:none"
   id="path7072"
   inkscape:connector-curvature="0" /></svg>