<?xml version="1.0" encoding="UTF-8" standalone="no"?>
<svg
   width="74.429893"
   height="74.431252"
   viewBox="0 0 210.05775 210.06152"
   version="1.1"
   id="svg2"
   inkscape:version="1.2.1 (9c6d41e410, 2022-07-14)"
   sodipodi:docname="MUTCD_W8-11.svg"
   xmlns:inkscape="http://www.inkscape.org/namespaces/inkscape"
   xmlns:sodipodi="http://sodipodi.sourceforge.net/DTD/sodipodi-0.dtd"
   xmlns="http://www.w3.org/2000/svg"
   xmlns:svg="http://www.w3.org/2000/svg"
   xmlns:rdf="http://www.w3.org/1999/02/22-rdf-syntax-ns#"
   xmlns:cc="http://creativecommons.org/ns#"
   xmlns:dc="http://purl.org/dc/elements/1.1/">
  <metadata
     id="metadata62">
    <rdf:RDF>
      <cc:Work
         rdf:about="">
        <dc:format>image/svg+xml</dc:format>
        <dc:type
           rdf:resource="http://purl.org/dc/dcmitype/StillImage" />
        <dc:title />
      </cc:Work>
    </rdf:RDF>
  </metadata>
  <defs
     id="defs60" />
  <sodipodi:namedview
     pagecolor="#ffffff"
     bordercolor="#666666"
     borderopacity="1"
     objecttolerance="10"
     gridtolerance="10"
     guidetolerance="10"
     inkscape:pageopacity="0"
     inkscape:pageshadow="2"
     inkscape:window-width="2048"
     inkscape:window-height="1089"
     id="namedview58"
     showgrid="false"
     fit-margin-top="0"
     fit-margin-left="0"
     fit-margin-right="0"
     fit-margin-bottom="0"
     inkscape:zoom="8.0000001"
     inkscape:cx="41.249999"
     inkscape:cy="28.5"
     inkscape:window-x="-8"
     inkscape:window-y="-8"
     inkscape:window-maximized="1"
     inkscape:current-layer="svg2"
     inkscape:showpageshadow="2"
     inkscape:pagecheckerboard="0"
     inkscape:deskcolor="#d1d1d1" />
  <!-- draw the bicycle -->
  <!-- RIGHT -->
  <!-- LANE -->
  <!-- ONLY -->
  <path
     d="M 206.65025,96.805734 113.26995,3.43602 C 111.11095,1.262908 108.10881,-3.6983694e-5 105.03611,-3.6983694e-5 101.97047,-3.6983694e-5 98.97892,1.262908 96.79522,3.43602 L 3.4113897,96.805734 C 1.2418097,98.978844 -0.00702031,101.95982 2.9689291e-5,105.04663 0.02122969,108.11227 1.2488597,111.11088 3.4113897,113.28046 L 96.79522,206.64665 c 2.16253,2.16253 5.19289,3.41136 8.24795,3.41489 3.05153,-0.003 6.07483,-1.25236 8.23383,-3.41489 l 93.37325,-93.36266 c 2.79752,-2.79753 3.98991,-7.0097 3.13619,-10.86203 -0.50094,-2.21897 -1.72861,-3.866446 -3.13619,-5.616226"
     style="fill:#ffd033;fill-opacity:1;fill-rule:nonzero;stroke:none"
     id="path6132"
     inkscape:connector-curvature="0" />
  <path
     d="m 204.34308,110.97329 -93.36972,93.36619 c -1.56986,1.56281 -3.71828,2.45534 -5.93019,2.45534 -2.21192,0 -4.35681,-0.89253 -5.92667,-2.45534 L 5.7079797,110.96977 c -1.55223,-1.55223 -2.43417,-3.72886 -2.43417,-5.92667 0.007,-2.19781 0.889,-4.37797 2.43769,-5.930196 L 99.10944,5.718492 c 1.56281,-1.545167 3.73592,-2.430639 5.92667,-2.430639 2.19781,0 4.3815,0.885472 5.93725,2.430639 l 93.36972,93.397942 c 1.56633,1.569856 2.45181,3.714746 2.45181,5.926666 0,2.21544 -0.88548,4.36033 -2.45181,5.93019"
     style="fill:#000000;fill-opacity:1;fill-rule:evenodd;stroke:none"
     id="path6140"
     inkscape:connector-curvature="0" />
  <path
     d="m 201.12575,107.74891 c 0.70908,-0.70203 1.12183,-1.71451 1.12183,-2.70581 0,-0.98072 -0.41275,-2.02142 -1.12183,-2.71992 L 107.74192,8.94641 c -0.69497,-0.6985 -1.7145,-1.111251 -2.69875,-1.111251 -0.98778,0 -2.02142,0.412751 -2.72345,1.111251 L 8.9323697,102.32318 c -0.70556,0.70909 -1.09714,1.71803 -1.09714,2.71639 0.007,0.99836 0.39158,1.9932 1.10419,2.70581 l 93.3803003,93.39088 c 0.70203,0.6985 1.74272,1.11125 2.72345,1.11125 0.9913,0 2.00378,-0.41275 2.7058,-1.11125 l 93.37678,-93.38735 z"
     style="fill:#ffd033;fill-opacity:1;fill-rule:evenodd;stroke:none"
     id="path6144"
     inkscape:connector-curvature="0" />
  <path
     style="fill:#f4911d;fill-opacity:1;stroke-width:0.125"
     d="M 36.625,71.386973 C 36.028461,71.009814 2.970417,37.843495 2.8778463,37.529287 2.8319548,37.373521 2.8545539,37.063828 2.9280664,36.841083 3.0228755,36.55381 7.9401257,31.558595 19.845377,19.655546 L 36.629028,2.875 h 0.559968 0.559967 l 16.906769,16.906767 16.906767,16.906769 v 0.55996 0.55996 L 54.843749,54.541878 C 45.003961,64.390302 37.9595,71.347242 37.722765,71.450149 37.198625,71.67799 37.073943,71.670815 36.625,71.386973 Z"
     id="path16753"
     transform="scale(2.8222225)" />
  <path
     style="fill:#f4911d;fill-opacity:1;stroke-width:0.125"
     d="M 36.125,74.208167 C 35.85,74.116784 35.428125,73.942525 35.1875,73.820924 34.946875,73.699323 27.116225,65.969557 17.786056,56.643666 -1.2236238,37.642701 0.13102776,39.130417 0.12700539,37.25 0.12301816,35.38601 -1.3656287,37.022217 17.662512,17.976297 29.35288,6.2750072 34.914851,0.79099204 35.310521,0.57564137 36.405018,-0.0200589 37.853497,-0.04649584 39.033562,0.50769022 39.498957,0.7262511 43.176759,4.3313019 56.291221,17.423971 65.457643,26.575162 73.197938,34.4 73.491877,34.8125 c 0.29394,0.4125 0.598827,0.941206 0.677528,1.174902 0.229114,0.680333 0.1743,1.917668 -0.120791,2.726659 -0.253284,0.694376 -0.949565,1.40972 -17.331895,17.806402 -14.285996,14.298512 -17.178281,17.136959 -17.744542,17.414229 -0.81751,0.400296 -2.09599,0.523096 -2.847177,0.273475 z m 2.486883,-1.22664 C 38.956622,72.81017 44.632697,67.223604 55.909197,55.956988 68.989274,42.888373 72.76171,39.051048 73.002947,38.569207 73.416485,37.743213 73.419674,36.792183 73.011772,35.9375 72.76994,35.430786 69.499542,32.104717 55.731743,18.36332 40.902203,3.5622161 38.684793,1.3958166 38.235497,1.2695694 37.390012,1.0319978 36.556472,1.0900303 35.868292,1.4343782 35.386007,1.6757019 31.548967,5.4496083 18.425039,18.590629 6.6064467,30.424611 1.5332712,35.584733 1.375559,35.932308 1.0824564,36.578265 1.0678286,37.66476 1.3426725,38.375 c 0.182614,0.471902 2.9529954,3.297621 17.2008045,17.544383 15.964763,15.963586 17.02356,16.996215 17.657328,17.220882 0.798795,0.28317 1.63246,0.228284 2.411078,-0.158738 z"
     id="path16755"
     transform="scale(2.8222225)" />
  <path
     d="M 168.38791,99.853753 V 74.326751 h -4.02519 v 16.298338 l -9.31334,-16.298338 h -4.03578 v 25.527002 h 4.03578 V 82.567642 l 9.75784,17.286111 z m -21.58295,0 v -4.120441 h -11.82159 v -6.988529 h 7.43656 v -4.120446 h -7.43656 V 78.355474 H 145.9971 V 74.326751 H 130.95465 V 99.853753 Z M 127.19051,74.326751 h -4.29684 l -5.36928,17.018005 -5.45747,-17.018005 h -4.22275 l 8.06803,25.527002 h 3.12914 z M 105.88273,99.853753 V 95.733312 H 94.054084 v -6.988529 h 7.433026 V 84.624337 H 94.054084 V 78.355474 H 105.07486 V 74.326751 H 90.028894 v 25.527002 z m -21.858116,0 V 74.326751 h -4.02872 v 16.298338 l -9.31334,-16.298338 h -4.025195 v 25.527002 h 4.025195 V 82.567642 l 9.76489,17.286111 z M 60.65308,90.716811 v -16.39006 h -4.032251 v 16.39006 c 0,3.312584 -1.876778,5.464529 -4.646085,5.464529 -2.786945,0 -4.663723,-2.151945 -4.663723,-5.464529 V 74.326751 H 43.27877 v 16.39006 c 0,1.968501 0.451555,3.760612 1.164167,5.284613 1.351139,2.508249 4.392084,4.314466 7.531807,4.314466 3.12914,0 6.173613,-1.806217 7.517697,-4.314466 0.709083,-1.524001 1.160639,-3.316112 1.160639,-5.284613"
     style="fill:#000000;fill-opacity:1;fill-rule:evenodd;stroke:none"
     id="path7276"
     inkscape:connector-curvature="0" />
  <path
     d="m 156.64394,137.29408 c 0,-10.02595 -11.99092,-6.88975 -12.35781,-11.63814 -0.17992,-2.32834 2.06022,-3.04449 3.94405,-2.95629 2.86456,0.0917 3.76062,2.24015 3.76062,2.24015 l 3.58069,-1.07597 c -1.25236,-3.13268 -3.67242,-5.1929 -7.24958,-5.1929 -4.56848,0 -7.97632,1.8803 -7.97632,6.89681 0,4.20159 3.40784,5.73264 4.93537,6.35353 3.30553,1.34056 7.24606,1.88031 7.24606,5.29167 0,2.14136 -1.60514,3.76061 -3.94053,3.76061 -2.42006,0 -4.38856,-1.35114 -5.46453,-3.76061 l -3.84881,1.43228 c 1.70039,3.84528 4.92478,6.45583 9.31334,6.45583 2.15194,0 4.12045,-0.72319 5.55272,-1.98614 1.6122,-1.42522 2.50473,-3.4925 2.50473,-5.82083 m -19.78732,7.34483 v -4.12044 h -11.82158 v -6.985 h 7.43302 v -4.11339 h -7.43302 v -6.27239 h 11.01372 v -4.03579 h -15.0495 v 25.52701 z m -21.85106,0 V 119.1119 h -4.03578 v 16.30893 l -9.31333,-16.30893 h -4.021666 v 25.52701 h 4.021666 v -17.27906 l 9.76489,17.27906 z M 85.534504,133.35355 h -5.09764 l 2.59644,-7.16139 z m 8.24794,11.28536 -8.78416,-25.52701 h -4.0252 l -8.773585,25.52701 h 4.296835 l 2.50825,-7.15786 h 7.96925 l 2.50825,7.15786 z m -23.110473,0 v -3.75355 H 58.850385 V 119.1119 h -4.025196 v 25.52701 z"
     style="fill:#000000;fill-opacity:1;fill-rule:evenodd;stroke:none"
     id="path7280"
     inkscape:connector-curvature="0" />
</svg>
