<?xml version="1.0" encoding="UTF-8" standalone="no"?>
<svg xmlns="http://www.w3.org/2000/svg" xml:space="preserve" width="280.5" height="280.5" viewBox="-1 0 280.5 280.5">
  <path fill="#fff" stroke="#000" stroke-width="1.5" d="M278.75938 256.50463c0 12.7875-10.4625 23.25-23.25 23.25H23.01188c-12.7875 0-23.25-10.4625-23.25-23.25V24.00713c0-12.7875 10.4625-23.25 23.25-23.25h232.4975c12.7875 0 23.25 10.4625 23.25 23.25v232.4975z"/>
  <path d="M255.5095 6.56925H23.01075c-9.59 0-17.43625 7.84625-17.43625 17.4375v232.4975c0 9.59125 7.84625 17.4375 17.43625 17.4375H255.5095c9.59 0 17.4375-7.84625 17.4375-17.4375V24.00675c0-9.59125-7.8475-17.4375-17.4375-17.4375m7.75 249.935c0 4.2625-3.4875 7.75-7.75 7.75H23.012c-4.2625 0-7.75-3.4875-7.75-7.75V24.00675c0-4.2625 3.4875-7.75 7.75-7.75h232.4975c4.2625 0 7.75 3.4875 7.75 7.75v232.4975z"/>
  <path fill-rule="evenodd" d="M204.42811 151.80475c4.87125 0 8.8475-3.97125 8.8475-8.8425s-3.97625-8.845-8.8475-8.845c-4.86875 0-8.845 3.97375-8.845 8.845 0 4.87125 3.97625 8.8425 8.845 8.8425m26.05 51.60875c2.675-7.64.96875-19.23375-3.6875-31.265 2.12875.42375 4.26.8575 6.39 1.28625l2.2125 22.36 5.65125.98125v-28.01125c-.1525-.15875-26.2175-19.35875-33.28625-14.69-7.13875 3.72625-10.69875 19.825-11.55875 23.4475l-18.5525 12.37625 2.94375 4.42 20.15375-6.6325 4.305-5.6075 4.04625 13.96-10.56375 18.92375-9.08875 33.91125 10.07125 3.68 10.565-32.185 7.62125-8.10875 16.46375 42.76125 7.61625-5.41125-11.3025-46.19625zm-163.32424 9.54313 16.625 6.46375c1.62.59 2.68875 2.17625 2.60125 3.9025-.10375 2.03125-1.76375 3.6625-3.78625 3.71125l-45.76375 6.30375-.0863-.0913 8.17625-45.4625c.13125-2.02 1.835-3.615 3.87-3.6325 1.72875-.015 3.2675 1.12 3.7875 2.76l5.5875 16.23625c20.55875-18.3525 47.15125-28.37875 74.61125-28.37375 8.2875 0 17.4375 1.31 25.2175 3.11875l-.41375 24.83125c-10.71625-4.27125-23.68875-6.94-35.52-6.94-19.45625 0-38.91625 6.49125-54.90625 17.1725"/>
  <path d="M49.68826 165.1175v-14.05125h-8.495v14.05125h-4.45375v-30.995h4.45375V146.75h8.495v-12.6275h4.45375v30.995h-4.45375zm11.24962 0v-30.995h14.6025v4.3625H65.39163v7.80625h6.42875v4.27h-6.42875V160.755h11.3425v4.3625H60.93788zm33.88724 0-4.1325-14.55625h-4.27v14.55625h-4.455v-30.995h9.27625c4.8675 0 8.1275 3.26 8.1275 8.265 0 3.72-1.515 6.42875-4.455 7.485l4.455 15.245h-4.54625zm-3.81125-26.6325h-4.59125v7.80625h4.59125c2.6175 0 3.995-1.42375 3.995-3.90375 0-2.3875-1.6075-3.9025-3.995-3.9025m13.63739 26.6325v-30.995h14.6025v4.3625h-10.14875v7.80625h6.42875v4.27h-6.42875V160.755h11.3425v4.3625h-15.79625zm26.22162 50.68425v26.8625h-4.5v-26.8625h-5.6475v-4.1325h15.79625v4.1325h-5.64875zm25.75974 22.08637c-1.56125 3.67375-3.81125 5.32625-7.255 5.32625-3.72 0-5.8775-1.6525-7.3925-5.32625-1.28625-3.07625-1.745-5.96875-1.745-10.79125 0-4.6825.4125-7.805 1.745-10.74375 1.6075-3.72 3.81125-5.235 7.3925-5.235 3.58125 0 5.69375 1.56125 7.255 5.32625 1.28625 3.07625 1.745 5.97 1.745 10.6525 0 4.8225-.45875 7.80625-1.745 10.79125m-3.44375-18.505c-.78-2.70875-1.975-3.9025-3.81125-3.9025-1.975 0-3.1225 1.19375-3.94875 3.81125-.68875 2.3875-.965 4.45375-.965 7.94375 0 3.35125.27625 5.32625.965 7.805.73375 2.6175 1.97375 3.8125 3.94875 3.8125 1.83625 0 3.03125-1.195 3.81125-3.8125.735-2.47875.96375-4.36125.96375-7.94375 0-3.44375-.32125-5.4175-.96375-7.71375"/>
  <path fill="#af1e2d" d="M200.02512 32.77186c-1.27375-5.03125-5.91125-7.25875-10.67125-7.25875-20.475-.005-40.945-.008-61.42-.0163-10.5575 0-21.115-.005-31.6725-.007h-7.625c-7.42125-.002-12.87875 7.22125-9.29625 14.23625 2.7 4.67125 5.40125 9.335 8.09875 14.00125 11.84625 20.48375 23.69125 40.9675 35.53375 61.45 2.73625 4.7275 5.37 9.52875 8.20875 14.1925 3.77625 6.19375 13.0925 5.95625 16.6725-.275 1.04-1.80625 2.07375-3.605 3.11125-5.40625 11.29625-19.65875 22.59625-39.31625 33.895-58.97625 4.315-7.5075 8.62875-15.01625 12.9425-22.52375 1.7125-2.98125 3.085-5.72875 2.2225-9.41625m-27.435 17.56125-28.825 50.135c-.845 1.565-2.54125 2.5825-4.335 2.5825-1.79625 0-3.49375-1.0175-4.34125-2.5825l-29.025-50.1525c-.44125-.755-.69375-1.65875-.69375-2.5475 0-2.7175 2.2175-4.93375 4.94-4.93375h57.3125c3.46375 0 5.68125 2.21625 5.68125 4.93375 0 .88875-.27 1.81375-.71375 2.565"/>
  <path fill="#af1e2d" fill-rule="evenodd" d="M128.61038 51.48324h-1.9175l-2.04875 4.48375-2.09125-4.48375h-1.86875l3.0475 6.79375v5.61625h1.78625v-5.61625l3.0925-6.79375zm1.6925 12.41h1.74375v-12.41h-1.74375v12.41zm10.7575 0v-1.74125h-4.52875v-4.095h2.56875v-1.69375h-2.56875v-3.13875h4.04625v-1.74125h-5.8325v12.41h6.315zm8.40125 0v-1.6525h-4.52625v-10.7575h-1.78875v12.41h6.315zm8.665-6.225c0-.95875-.13125-2.04875-.3025-2.96375-.2225-1.25875-.74125-2.21625-1.48125-2.74125-.43625-.34625-.96125-.48-2.005-.48h-3.17375v12.41h3.43625c.69625 0 1.30625-.17625 1.7425-.5625 1.21875-.95875 1.78375-2.79125 1.78375-5.6625m-1.74.0863c0 .95875-.0862 1.82625-.175 2.61-.17625.95625-.73875 1.7875-1.78875 1.7875h-1.4775v-8.9275h1.4775c.7875 0 1.3125.39125 1.6125 1.26625.2175.5175.35125 1.8725.35125 3.26375"/>
</svg>