<?xml version="1.0" encoding="UTF-8" standalone="no"?>
<svg
   width="72.001251"
   height="89.999977"
   viewBox="0 0 203.20358 253.99993"
   version="1.1"
   id="svg2"
   inkscape:version="1.2.1 (9c6d41e410, 2022-07-14)"
   sodipodi:docname="MUTCD_W16-1P.svg"
   xmlns:inkscape="http://www.inkscape.org/namespaces/inkscape"
   xmlns:sodipodi="http://sodipodi.sourceforge.net/DTD/sodipodi-0.dtd"
   xmlns="http://www.w3.org/2000/svg"
   xmlns:svg="http://www.w3.org/2000/svg"
   xmlns:rdf="http://www.w3.org/1999/02/22-rdf-syntax-ns#"
   xmlns:cc="http://creativecommons.org/ns#"
   xmlns:dc="http://purl.org/dc/elements/1.1/">
  <metadata
     id="metadata62">
    <rdf:RDF>
      <cc:Work
         rdf:about="">
        <dc:format>image/svg+xml</dc:format>
        <dc:type
           rdf:resource="http://purl.org/dc/dcmitype/StillImage" />
      </cc:Work>
    </rdf:RDF>
  </metadata>
  <defs
     id="defs60" />
  <sodipodi:namedview
     pagecolor="#ffffff"
     bordercolor="#666666"
     borderopacity="1"
     objecttolerance="10"
     gridtolerance="10"
     guidetolerance="10"
     inkscape:pageopacity="0"
     inkscape:pageshadow="2"
     inkscape:window-width="1920"
     inkscape:window-height="1017"
     id="namedview58"
     showgrid="false"
     fit-margin-top="0"
     fit-margin-left="0"
     fit-margin-right="0"
     fit-margin-bottom="0"
     inkscape:zoom="5.6568543"
     inkscape:cx="-7.8665629"
     inkscape:cy="46.492271"
     inkscape:window-x="-8"
     inkscape:window-y="1144"
     inkscape:window-maximized="1"
     inkscape:current-layer="svg2"
     showguides="true"
     inkscape:guide-bbox="true"
     inkscape:showpageshadow="2"
     inkscape:pagecheckerboard="0"
     inkscape:deskcolor="#d1d1d1" />
  <!-- draw the bicycle -->
  <!-- RIGHT -->
  <!-- LANE -->
  <!-- ONLY -->
  <path
     inkscape:connector-curvature="0"
     d="M 0,237.06666 0,16.933266 C 0,7.6058668 7.60589,-3.3187396e-5 16.93686,-3.3187396e-5 l 169.32985,0 c 9.32039,0 16.93686,7.605899987396 16.93686,16.933299187396 l 0,220.133394 c 0,9.3274 -7.61647,16.9333 -16.93686,16.9333 l -169.32985,0 C 7.60589,253.99996 0,246.39406 0,237.06666"
     style="fill:#fecf33;fill-opacity:1;fill-rule:nonzero;stroke:none"
     id="path3303" />
  <path
     inkscape:connector-curvature="0"
     d="m 4.40267,236.09506 0,-218.189494 c 0,-7.4366 6.05014,-13.5043992 13.47611,-13.5043992 l 167.44248,0 c 7.42245,0 13.47612,6.0677992 13.47612,13.5043992 l 0,218.189494 c 0,7.4331 -6.05367,13.5009 -13.47612,13.5009 l -167.44248,0 c -7.42597,0 -13.47611,-6.0678 -13.47611,-13.5009"
     style="fill:#000000;fill-opacity:1;fill-rule:evenodd;stroke:none"
     id="path3311" />
  <path
     inkscape:connector-curvature="0"
     d="m 11.17565,235.95006 0,-217.900294 c 0,-3.7853 3.07975,-6.8756 6.85447,-6.8756 l 167.13204,0 c 3.77825,0 6.86506,3.0903 6.86506,6.8756 l 0,217.900294 c 0,3.7818 -3.08681,6.8722 -6.86506,6.8722 l -167.13204,0 c -3.77472,0 -6.85447,-3.0904 -6.85447,-6.8722"
     style="fill:#fecf33;fill-opacity:1;fill-rule:evenodd;stroke:none"
     id="path3315" />
  <path
     style="fill:#f4911d;fill-opacity:1;stroke-width:0.176777"
     d="M 5.7820689,85.876895 C 5.5592553,85.833813 5.1080083,85.529619 4.7792979,85.200908 4.3023682,84.723979 4.1593724,84.414208 4.0713942,83.667374 4.0107576,83.152639 3.9847074,65.429474 4.0135049,44.282562 4.0630302,7.9145815 4.0827692,5.8026982 4.3782155,5.262099 4.5500088,4.9477564 4.9477564,4.5500088 5.262099,4.3782155 5.8022022,4.0830403 7.4976443,4.065864 36.093677,4.065864 h 30.260046 l 0.499099,0.3661195 c 0.274504,0.2013658 0.638187,0.6388881 0.808184,0.9722718 0.291494,0.5716559 0.309083,2.8244769 0.309083,39.5854137 0,36.760936 -0.01759,39.013757 -0.309083,39.585414 -0.169997,0.333383 -0.533671,0.770906 -0.808167,0.972272 l -0.499081,0.366119 -30.083287,0.02088 C 19.724663,85.945824 6.0048823,85.919979 5.7820689,85.876895 Z"
     id="path13074"
     transform="scale(2.8222225)" />
  <path
     style="fill:#f4911d;fill-opacity:1;stroke-width:0.176777"
     d="M 4.3034842,89.64559 C 2.5704698,89.023831 1.5219602,88.109624 0.65312052,86.462797 L 0.17677669,85.55992 V 45.078057 4.5961941 L 0.63659285,3.6158557 C 1.2928614,2.2166765 2.069104,1.4171984 3.414368,0.75493265 L 4.5887793,0.17677669 H 36.058739 67.528697 l 0.883884,0.43511722 c 1.304488,0.64217179 2.609077,2.02279039 3.066406,3.24510929 l 0.380739,1.0176186 V 44.989669 c 0,40.032182 -7.07e-4,40.117051 -0.363055,41.0854 -0.479943,1.282762 -1.697661,2.612616 -2.959885,3.232454 l -1.008089,0.495038 -31.289475,0.03745 C 10.79677,89.870456 4.828981,89.834126 4.3034842,89.64559 Z M 67.705474,88.054715 c 1.069322,-0.506382 1.889771,-1.33852 2.372601,-2.406406 0.358277,-0.792407 0.359681,-0.950246 0.361829,-40.65864 L 70.44206,5.1265241 70.0259,4.2328105 C 69.797011,3.741268 69.271442,3.0495276 68.857968,2.6956093 67.357342,1.411132 69.878608,1.5026019 35.974057,1.5026019 1.7988779,1.5026019 4.486488,1.3966068 3.0440662,2.801309 2.6293988,3.2051326 2.13282,3.8537319 1.9405579,4.2426407 1.5958645,4.9398877 1.5903579,5.5042852 1.5456424,44.719609 1.4944729,89.594924 1.3636299,85.526172 2.9075506,87.070094 4.4073768,88.56992 1.4847545,88.447306 36.062446,88.461052 l 30.759145,0.01223 z"
     id="path13076"
     transform="scale(2.8222225)" />
  <path
     inkscape:connector-curvature="0"
     d="m 175.93638,82.035177 v -5.9408 h -15.43403 v -13.9524 h 8.75594 v -5.7855 h -8.75594 v -10.6963 h 13.80067 v -5.9302 h -19.88609 v 42.3052 z m -34.43818,-31.0269 c 0,3.4185 -1.92969,5.3482 -5.48922,5.3482 h -6.23711 v -10.6963 h 6.23711 c 3.2632,0 5.48922,2.0814 5.48922,5.3481 m 5.94078,31.0269 -6.08541,-20.7822 c 4.00402,-1.4887 6.08541,-5.1929 6.08541,-10.2447 0,-6.8297 -4.45205,-11.2783 -11.13367,-11.2783 h -12.62239 v 42.3052 h 6.08895 v -19.8932 h 5.78908 l 5.64092,19.8932 z m -40.08614,-17.5155 h -6.08542 l 2.97039,-12.1743 z m 10.541,17.5155 -10.541,-42.3052 h -5.93373 l -10.541004,42.3052 h 6.08189 l 2.82575,-11.5782 h 9.052284 l 2.97039,11.5782 z m -32.804824,0 v -42.3052 h -6.09247 v 17.2191 h -11.57464 v -17.2191 h -6.08895 v 42.3052 h 6.08895 v -19.1488 h 11.57464 v 19.1488 z m -30.88217,-11.5782 c 0,-6.089 -3.56306,-10.6927 -11.72634,-15.4376 -3.11503,-1.785 -4.01108,-2.9704 -4.01108,-5.0517 0,-2.8187 2.23308,-4.9001 5.05178,-4.9001 2.67405,0 4.74839,1.9297 4.90008,4.9001 h 5.78556 c -0.14464,-6.3783 -4.74839,-10.982 -10.68564,-10.982 -6.08542,0 -10.83734,4.8965 -10.83734,10.982 0,3.7147 1.78153,6.9814 5.19289,9.3556 8.61484,5.7891 6.23711,4.1557 7.12611,5.0447 2.52942,1.9297 3.41842,3.7148 3.41842,6.089 0,3.4114 -2.67405,6.3817 -5.94078,6.3817 -4.15572,0 -5.94078,-3.7112 -5.94078,-7.2742 h -5.93019 c 0,6.9779 4.44853,13.2362 11.87097,13.2362 6.52992,0 11.72634,-5.5139 11.72634,-12.3437"
     style="fill:#000000;fill-opacity:1;fill-rule:evenodd;stroke:none"
     id="path3319" />
  <path
     inkscape:connector-curvature="0"
     d="m 143.99342,150.70227 v -5.9337 h -15.43403 v -13.9594 h 8.75594 v -5.7856 h -8.75594 v -10.6891 h 13.80067 v -5.9373 h -19.89315 v 42.3051 z m -30.57879,0 v -42.3051 h -6.08542 v 17.2191 H 95.747506 v -17.2191 h -6.08894 v 42.3051 h 6.08894 v -19.1488 h 11.581704 v 19.1488 z m -29.545154,-36.6607 v -5.6444 h -21.5265 v 5.6444 h 7.71878 v 36.6607 h 6.09247 v -36.6607 z"
     style="fill:#000000;fill-opacity:1;fill-rule:evenodd;stroke:none"
     id="path3323" />
  <path
     inkscape:connector-curvature="0"
     d="m 155.49996,198.74817 c 0,3.2667 -0.29634,6.2371 -0.59267,8.9006 -0.59267,3.2667 -2.52236,6.0924 -6.09247,6.0924 h -5.0412 v -30.4341 h 5.0412 c 2.67405,0 4.45911,1.337 5.4998,4.3074 0.74437,1.7851 1.18534,6.3782 1.18534,11.1337 m 5.94078,-0.2963 c 0,-3.2668 -0.44803,-6.9815 -1.0407,-10.093 -0.74436,-4.3074 -2.52236,-7.5742 -5.05178,-9.3592 -1.48166,-1.1854 -3.26672,-1.6334 -6.82272,-1.6334 H 137.6882 v 42.3157 h 11.72634 c 2.37772,0 4.45206,-0.5997 5.93372,-1.9297 4.16278,-3.2667 6.09248,-9.5038 6.09248,-19.3004 m -40.08262,3.7076 h -6.08895 l 2.96686,-12.1673 z m 10.53747,17.5225 -10.53747,-42.3157 h -5.93725 l -10.54453,42.3157 h 6.09247 l 2.81869,-11.5852 h 9.05228 l 2.97039,11.5852 z m -38.001234,-21.2301 c 0,4.9 -0.29634,7.4189 -1.33703,10.8302 -1.04069,3.5701 -2.67406,5.2035 -5.19642,5.2035 -2.67053,0 -4.30389,-1.6334 -5.34458,-5.2035 -0.889,-3.4113 -1.33703,-6.0819 -1.33703,-10.6856 0,-4.7484 0.29633,-7.5671 1.33703,-10.8303 1.04069,-3.5701 2.67405,-5.2035 5.34458,-5.2035 2.52236,0 4.15573,1.6334 5.19642,5.3481 0.889,3.1186 1.33703,5.7856 1.33703,10.5411 m 5.78908,0 c 0,-6.3889 -0.59266,-10.3964 -2.37772,-14.5521 -2.07433,-5.1965 -5.04472,-7.2743 -9.94481,-7.2743 -4.89655,0 -7.86694,2.0778 -10.09297,7.1296 -1.78506,4.0111 -2.37772,8.3079 -2.37772,14.6968 0,6.5334 0.59266,10.541 2.37772,14.6967 2.07433,5.0447 5.04472,7.2954 10.09297,7.2954 4.74839,0 7.87048,-2.2507 9.94481,-7.2954 1.78506,-4.0111 2.37772,-8.1633 2.37772,-14.6967 m -36.96759,-9.7967 c 0,3.4078 -1.92969,5.3375 -5.48922,5.3375 h -6.23711 v -10.6856 h 6.23711 c 3.26319,0 5.48922,2.0814 5.48922,5.3481 m 5.94078,31.0268 -6.08542,-20.7892 c 4.00403,-1.4816 6.08542,-5.1964 6.08542,-10.2376 0,-6.8298 -4.45206,-11.2889 -11.13367,-11.2889 h -12.61886 v 42.3157 h 6.08542 v -19.8931 h 5.78908 l 5.64092,19.8931 z"
     style="fill:#000000;fill-opacity:1;fill-rule:evenodd;stroke:none"
     id="path3327" />
</svg>
