<?xml version="1.0" encoding="UTF-8" standalone="no"?>
<!-- Generator: Adobe Illustrator 12.0.1, SVG Export Plug-In  -->

<svg
   xmlns:dc="http://purl.org/dc/elements/1.1/"
   xmlns:cc="http://creativecommons.org/ns#"
   xmlns:rdf="http://www.w3.org/1999/02/22-rdf-syntax-ns#"
   xmlns:svg="http://www.w3.org/2000/svg"
   xmlns="http://www.w3.org/2000/svg"
   xmlns:sodipodi="http://sodipodi.sourceforge.net/DTD/sodipodi-0.dtd"
   xmlns:inkscape="http://www.inkscape.org/namespaces/inkscape"
   version="1.1"
   width="281.06625"
   height="281.06625"
   viewBox="-1 0 281.06625 281.06625"
   enable-background="new -1 0 289 288"
   xml:space="preserve"
   id="svg2"
   inkscape:version="0.48.2 r9819"
   sodipodi:docname="AJAX1.svg"><metadata
   id="metadata22"><rdf:RDF><cc:Work
       rdf:about=""><dc:format>image/svg+xml</dc:format><dc:type
         rdf:resource="http://purl.org/dc/dcmitype/StillImage" /><dc:title></dc:title></cc:Work></rdf:RDF></metadata><sodipodi:namedview
   pagecolor="#ffffff"
   bordercolor="#666666"
   borderopacity="1"
   objecttolerance="10"
   gridtolerance="10"
   guidetolerance="10"
   inkscape:pageopacity="0"
   inkscape:pageshadow="2"
   inkscape:window-width="1280"
   inkscape:window-height="1004"
   id="namedview20"
   showgrid="false"
   fit-margin-top="0"
   fit-margin-left="0"
   fit-margin-right="0"
   fit-margin-bottom="0"
   inkscape:zoom="1.638889"
   inkscape:cx="97.214601"
   inkscape:cy="92.71637"
   inkscape:window-x="-8"
   inkscape:window-y="-8"
   inkscape:window-maximized="1"
   inkscape:current-layer="svg2"
   showguides="true"
   inkscape:guide-bbox="true" />
<defs
   id="defs4">
</defs>







<path
   inkscape:connector-curvature="0"
   d="m 279.31625,262.84375 c 0,9.61 -7.8625,17.4725 -17.4725,17.4725 l -244.62125,0 c -9.61,0 -17.4725,-7.8625 -17.4725,-17.4725 l 0,-244.62125 C -0.25,8.6125 7.6125,0.75 17.2225,0.75 l 244.62125,0 c 9.61,0 17.4725,7.8625 17.4725,17.4725 l 0,244.62125"
   style="fill:#ffffff;fill-opacity:1;fill-rule:nonzero;stroke:#000000;stroke-width:1.5;stroke-miterlimit:4;stroke-opacity:1;stroke-dasharray:none"
   id="path3813" /><path
   inkscape:connector-curvature="0"
   d="m 267.66763,262.84375 c 0,3.20375 -2.62125,5.82375 -5.82375,5.82375 l -244.62125,0 c -3.20375,0 -5.825,-2.62 -5.825,-5.82375 l 0,-244.62125 c 0,-3.2025 2.62125,-5.82375 5.825,-5.82375 l 244.62125,0 c 3.2025,0 5.82375,2.62125 5.82375,5.82375 l 0,244.62125 z m -5.82375,-257.725 -244.62125,0 c -7.2075,0 -13.105,5.89625 -13.105,13.10375 l 0,244.62125 c 0,7.2075 5.8975,13.105 13.105,13.105 l 244.62125,0 c 7.2075,0 13.10375,-5.8975 13.10375,-13.105 l 0,-244.62125 c 0,-7.2075 -5.89625,-13.10375 -13.10375,-13.10375"
   style="fill:#000000;fill-opacity:1;fill-rule:nonzero;stroke:none"
   id="path3837" /><path
   inkscape:connector-curvature="0"
   d="m 106.12262,172.44899 -14.10625,-4.5425 c -0.71625,-0.39875 -1.56875,-0.57125 -2.40375,-0.63625 -2.665,-0.2475 -4.845,2.1725 -4.845,4.845 0,1.24125 0.51125,2.48 1.36875,3.36375 l 32.045,44.39125 30.865,-44.39125 c 0.86125,-0.88375 1.365,-2.1225 1.365,-3.36375 0,-2.6725 -2.35875,-5.20625 -4.84625,-4.845 -0.82625,0.11 -1.67875,0.2375 -2.40375,0.63625 l -13.2175,4.5425 -0.009,-27.57 c 0,-14.30625 11.865,-26.065 26.1725,-26.065 14.305,0 26.1625,11.75875 26.1625,26.065 l -0.006,74.88875 24.20625,0.11 -0.045,-75.09375 c 0,-27.715 -22.60625,-50.12125 -50.3175,-50.12125 -0.39875,0 -0.7975,0.007 -1.18375,0.0113 l -60.855,0 4.0525,-13.495 c 0.425,-1.6675 0.5925,-3.0675 -0.32875,-4.425 -1.3775,-2.02 -4.1525,-2.555 -6.185,-1.17125 l -45.97625,31.14625 45.97625,31.10125 c 2.0325,1.37625 4.8075,0.84875 6.185,-1.18 0.9625,-1.40625 0.74625,-2.775 0.235,-4.6075 l -3.95875,-13.27875 19.0275,0 c -4.63375,7.58375 -7.315,16.4875 -7.315,26.02 l 0.34125,27.665"
   style="fill:#000000;fill-opacity:1;fill-rule:evenodd;stroke:none"
   id="path3841" /><path
   inkscape:connector-curvature="0"
   d="M 217.29876,201.826 78.24126,62.76725 c 16.85875,-13.305 38.1475,-21.2475 61.29125,-21.2475 54.68375,0 99.01375,44.33 99.01375,99.01375 0,23.14375 -7.9425,44.4325 -21.2475,61.2925 M 40.52001,140.5335 c 0,-23.145 7.94125,-44.43375 21.2475,-61.2925 l 139.05875,139.0575 c -16.86,13.30625 -38.1475,21.2475 -61.29375,21.2475 -54.6825,0 -99.0125,-44.32875 -99.0125,-99.0125 m 99.0125,-122.31 c -67.55,0 -122.31,54.76 -122.31,122.31 0,67.55 54.76,122.31 122.31,122.31 67.55125,0 122.31125,-54.76 122.31125,-122.31 0,-67.55 -54.76,-122.31 -122.31125,-122.31"
   style="fill:#bf2033;fill-opacity:1;fill-rule:nonzero;stroke:none"
   id="path3845" /></svg>