<?xml version="1.0" encoding="UTF-8" standalone="no"?>
<svg
   width="74.429893"
   height="74.431252"
   viewBox="0 0 210.05775 210.06152"
   version="1.1"
   id="svg2"
   inkscape:version="1.2.1 (9c6d41e410, 2022-07-14)"
   sodipodi:docname="MUTCD_W8-3.svg"
   xmlns:inkscape="http://www.inkscape.org/namespaces/inkscape"
   xmlns:sodipodi="http://sodipodi.sourceforge.net/DTD/sodipodi-0.dtd"
   xmlns="http://www.w3.org/2000/svg"
   xmlns:svg="http://www.w3.org/2000/svg"
   xmlns:rdf="http://www.w3.org/1999/02/22-rdf-syntax-ns#"
   xmlns:cc="http://creativecommons.org/ns#"
   xmlns:dc="http://purl.org/dc/elements/1.1/">
  <metadata
     id="metadata62">
    <rdf:RDF>
      <cc:Work
         rdf:about="">
        <dc:format>image/svg+xml</dc:format>
        <dc:type
           rdf:resource="http://purl.org/dc/dcmitype/StillImage" />
        <dc:title />
      </cc:Work>
    </rdf:RDF>
  </metadata>
  <defs
     id="defs60" />
  <sodipodi:namedview
     pagecolor="#ffffff"
     bordercolor="#666666"
     borderopacity="1"
     objecttolerance="10"
     gridtolerance="10"
     guidetolerance="10"
     inkscape:pageopacity="0"
     inkscape:pageshadow="2"
     inkscape:window-width="2048"
     inkscape:window-height="1089"
     id="namedview58"
     showgrid="false"
     fit-margin-top="0"
     fit-margin-left="0"
     fit-margin-right="0"
     fit-margin-bottom="0"
     inkscape:zoom="8.0000001"
     inkscape:cx="41.249999"
     inkscape:cy="28.5"
     inkscape:window-x="-8"
     inkscape:window-y="-8"
     inkscape:window-maximized="1"
     inkscape:current-layer="svg2"
     inkscape:showpageshadow="2"
     inkscape:pagecheckerboard="0"
     inkscape:deskcolor="#d1d1d1" />
  <!-- draw the bicycle -->
  <!-- RIGHT -->
  <!-- LANE -->
  <!-- ONLY -->
  <path
     d="M 206.65025,96.805734 113.26995,3.43602 C 111.11095,1.262908 108.10881,-3.6983694e-5 105.03611,-3.6983694e-5 101.97047,-3.6983694e-5 98.97892,1.262908 96.79522,3.43602 L 3.4113897,96.805734 C 1.2418097,98.978844 -0.00702031,101.95982 2.9689291e-5,105.04663 0.02122969,108.11227 1.2488597,111.11088 3.4113897,113.28046 L 96.79522,206.64665 c 2.16253,2.16253 5.19289,3.41136 8.24795,3.41489 3.05153,-0.003 6.07483,-1.25236 8.23383,-3.41489 l 93.37325,-93.36266 c 2.79752,-2.79753 3.98991,-7.0097 3.13619,-10.86203 -0.50094,-2.21897 -1.72861,-3.866446 -3.13619,-5.616226"
     style="fill:#ffd033;fill-opacity:1;fill-rule:nonzero;stroke:none"
     id="path6132"
     inkscape:connector-curvature="0" />
  <path
     d="m 204.34308,110.97329 -93.36972,93.36619 c -1.56986,1.56281 -3.71828,2.45534 -5.93019,2.45534 -2.21192,0 -4.35681,-0.89253 -5.92667,-2.45534 L 5.7079797,110.96977 c -1.55223,-1.55223 -2.43417,-3.72886 -2.43417,-5.92667 0.007,-2.19781 0.889,-4.37797 2.43769,-5.930196 L 99.10944,5.718492 c 1.56281,-1.545167 3.73592,-2.430639 5.92667,-2.430639 2.19781,0 4.3815,0.885472 5.93725,2.430639 l 93.36972,93.397942 c 1.56633,1.569856 2.45181,3.714746 2.45181,5.926666 0,2.21544 -0.88548,4.36033 -2.45181,5.93019"
     style="fill:#000000;fill-opacity:1;fill-rule:evenodd;stroke:none"
     id="path6140"
     inkscape:connector-curvature="0" />
  <path
     d="m 201.12575,107.74891 c 0.70908,-0.70203 1.12183,-1.71451 1.12183,-2.70581 0,-0.98072 -0.41275,-2.02142 -1.12183,-2.71992 L 107.74192,8.94641 c -0.69497,-0.6985 -1.7145,-1.111251 -2.69875,-1.111251 -0.98778,0 -2.02142,0.412751 -2.72345,1.111251 L 8.9323697,102.32318 c -0.70556,0.70909 -1.09714,1.71803 -1.09714,2.71639 0.007,0.99836 0.39158,1.9932 1.10419,2.70581 l 93.3803003,93.39088 c 0.70203,0.6985 1.74272,1.11125 2.72345,1.11125 0.9913,0 2.00378,-0.41275 2.7058,-1.11125 l 93.37678,-93.38735 z"
     style="fill:#ffd033;fill-opacity:1;fill-rule:evenodd;stroke:none"
     id="path6144"
     inkscape:connector-curvature="0" />
  <path
     style="fill:#f4911d;fill-opacity:1;stroke-width:0.125"
     d="M 36.625,71.386973 C 36.028461,71.009814 2.970417,37.843495 2.8778463,37.529287 2.8319548,37.373521 2.8545539,37.063828 2.9280664,36.841083 3.0228755,36.55381 7.9401257,31.558595 19.845377,19.655546 L 36.629028,2.875 h 0.559968 0.559967 l 16.906769,16.906767 16.906767,16.906769 v 0.55996 0.55996 L 54.843749,54.541878 C 45.003961,64.390302 37.9595,71.347242 37.722765,71.450149 37.198625,71.67799 37.073943,71.670815 36.625,71.386973 Z"
     id="path15254"
     transform="scale(2.8222225)" />
  <path
     style="fill:#f4911d;fill-opacity:1;stroke-width:0.125"
     d="M 36.125,74.208167 C 35.85,74.116784 35.428125,73.942525 35.1875,73.820924 34.946875,73.699323 27.116225,65.969557 17.786056,56.643666 -1.2236238,37.642701 0.13102776,39.130417 0.12700539,37.25 0.12301816,35.38601 -1.3656287,37.022217 17.662512,17.976297 29.35288,6.2750072 34.914851,0.79099204 35.310521,0.57564137 36.405018,-0.0200589 37.853497,-0.04649584 39.033562,0.50769022 39.498957,0.7262511 43.176759,4.3313019 56.291221,17.423971 65.457643,26.575162 73.197938,34.4 73.491877,34.8125 c 0.29394,0.4125 0.598827,0.941206 0.677528,1.174902 0.229114,0.680333 0.1743,1.917668 -0.120791,2.726659 -0.253284,0.694376 -0.949565,1.40972 -17.331895,17.806402 -14.285996,14.298512 -17.178281,17.136959 -17.744542,17.414229 -0.81751,0.400296 -2.09599,0.523096 -2.847177,0.273475 z m 2.486883,-1.22664 C 38.956622,72.81017 44.632697,67.223604 55.909197,55.956988 68.989274,42.888373 72.76171,39.051048 73.002947,38.569207 73.416485,37.743213 73.419674,36.792183 73.011772,35.9375 72.76994,35.430786 69.499542,32.104717 55.731743,18.36332 40.902203,3.5622161 38.684793,1.3958166 38.235497,1.2695694 37.390012,1.0319978 36.556472,1.0900303 35.868292,1.4343782 35.386007,1.6757019 31.548967,5.4496083 18.425039,18.590629 6.6064467,30.424611 1.5332712,35.584733 1.375559,35.932308 1.0824564,36.578265 1.0678286,37.66476 1.3426725,38.375 c 0.182614,0.471902 2.9529954,3.297621 17.2008045,17.544383 15.964763,15.963586 17.02356,16.996215 17.657328,17.220882 0.798795,0.28317 1.63246,0.228284 2.411078,-0.158738 z"
     id="path15256"
     transform="scale(2.8222225)" />
  <path
     d="m 178.85131,85.488644 v -3.453696 h -13.1692 v 3.453696 h 4.7237 v 22.426096 h 3.71828 V 85.488644 Z M 161.86153,107.91474 V 82.034948 h -3.72533 v 15.532808 l -7.08026,-15.532808 h -3.72886 v 25.879792 h 3.72886 V 90.572173 l 7.99395,17.342567 z m -19.16642,0 v -3.63009 h -9.44387 v -8.537226 h 5.35517 v -3.54189 h -5.35517 v -6.533446 h 8.44551 v -3.63714 h -12.17084 v 25.879792 z m -19.07823,0 V 82.034948 h -3.72181 l -4.81894,14.534449 -4.80837,-14.534449 h -3.7218 v 25.879792 h 3.7218 v -14.5274 l 4.80837,14.5274 4.81894,-14.5274 v 14.5274 z m -21.70995,0 v -3.63009 h -9.443863 v -8.537226 h 5.35164 v -3.54189 h -5.35164 v -6.533446 h 8.445503 v -3.63714 H 88.734207 V 107.91474 Z M 84.917147,82.034948 h -3.72181 l -4.27214,16.799278 -4.26155,-16.799278 h -3.72887 l 6.53698,25.879792 h 2.81869 z m -24.25348,15.165918 h -3.72181 l 1.81328,-7.44361 z m 6.44878,10.713874 -6.44878,-25.879792 h -3.63714 l -6.44525,25.879792 h 3.72181 l 1.72508,-7.08026 h 5.54214 l 1.82033,7.08026 z M 45.127327,89.302172 c 0,2.360084 -1.17828,3.725335 -3.36197,3.725335 h -3.81 v -7.355419 h 3.81 c 1.99672,0 3.36197,1.449917 3.36197,3.630084 m 3.63009,0 c 0,-4.356806 -2.72345,-7.267224 -6.80862,-7.267224 h -7.7223 v 25.879792 h 3.72886 V 96.569397 h 3.99344 c 4.36034,0 6.80862,-2.547057 6.80862,-7.267225"
     style="fill:#000000;fill-opacity:1;fill-rule:evenodd;stroke:none"
     id="path6112"
     inkscape:connector-curvature="0" />
  <path
     d="m 141.86502,141.83432 c 0,-3.72181 -2.18369,-6.53698 -7.17197,-9.44387 -1.91206,-1.09008 -2.45534,-1.8168 -2.45534,-3.0868 0,-1.72509 1.36172,-2.99509 3.08681,-2.99509 1.63336,0 2.90336,1.17475 2.99509,2.99509 h 3.54541 c -0.0917,-3.90878 -2.90689,-6.72041 -6.5405,-6.72041 -3.71828,0 -6.62517,2.99507 -6.62517,6.72041 0,2.26836 1.08303,4.26861 3.175,5.72205 5.27051,3.54189 3.81706,2.54353 4.35328,3.08681 1.5487,1.17828 2.09198,2.26836 2.09198,3.72181 0,2.08845 -1.63689,3.90526 -3.62656,3.90526 -2.54353,0 -3.63362,-2.27189 -3.63362,-4.45207 h -3.63714 c 0,4.26862 2.7305,8.09979 7.27076,8.09979 3.98992,0 7.17197,-3.37608 7.17197,-7.55298 m -21.59353,-5.72206 c 0,2.00025 -0.17992,3.81706 -0.36689,5.45042 -0.35631,1.99673 -1.54164,3.72182 -3.71828,3.72182 h -3.08681 v -18.61257 h 3.08681 c 1.63689,0 2.71992,0.81138 3.36197,2.63172 0.45156,1.08655 0.7232,3.90525 0.7232,6.80861 m 3.63008,-0.17992 c 0,-2.00025 -0.26811,-4.26508 -0.635,-6.17361 -0.45156,-2.63525 -1.54164,-4.6355 -3.08328,-5.72206 -0.90664,-0.72319 -2.00025,-1.00188 -4.18042,-1.00188 h -6.62516 v 25.88332 h 7.17197 c 1.44992,0 2.72697,-0.36336 3.63361,-1.18181 2.54,-1.99672 3.71828,-5.81026 3.71828,-11.80396 m -19.7732,12.98577 v -25.88332 h -3.7218 v 15.5328 l -7.083783,-15.5328 h -3.72534 v 25.88332 h 3.72534 v -17.3461 l 7.993943,17.3461 z m -18.598453,0 v -3.63361 h -9.44386 v -8.53724 h 5.36222 v -3.53836 h -5.36222 v -6.53697 h 8.4455 v -3.63714 h -12.16731 v 25.88332 z"
     style="fill:#000000;fill-opacity:1;fill-rule:evenodd;stroke:none"
     id="path6116"
     inkscape:connector-curvature="0" />
</svg>
