<?xml version="1.0" encoding="UTF-8"?>
<svg version="1.1" viewBox=".95 .95 18.1 18.1" xmlns="http://www.w3.org/2000/svg">
 <g transform="matrix(.971 0 0 .971 .32152 .38451)" fill="#fff" stroke="#000">
  <rect x="1" y="1" width="18" height="18" ry="1.5" stroke-width=".1"/>
  <rect x="1.6875" y="1.6875" width="16.625" height="16.625" ry=".8125" stroke-width=".625"/>
 </g>
 <path d="m9.5381 5.5355a0.78151 0.78151 0 0 1-1.563 0 0.78151 0.78151 0 0 1 1.563 0zm-3.1479 4.1465 1.6395-1.093c0.075735-0.32027 0.39012-1.7424 1.0208-2.0715 0.62461-0.413 2.9276 1.2835 2.9408 1.2975v2.4748l-0.4993-0.08684-0.19543-1.9755c-0.18813-0.037867-0.37627-0.075668-0.5644-0.11354 0.41112 1.0629 0.56213 2.0872 0.32562 2.7621l0.99861 4.0814-0.67299 0.47756-1.4545-3.7774-0.67299 0.71641-0.93351 2.8439-0.89009-0.32569 0.80325-2.9959 0.93351-1.6716-0.35787-1.2337-0.38028 0.49556-1.7802 0.58614z" stroke-width=".017127"/>
 <path d="m5.1765 5.2395 9.71 9.71m2.0634-4.855a6.9184 6.9184 0 0 1-13.837 0 6.9184 6.9184 0 0 1 13.837 0z" fill="none" stroke="#a6192e" stroke-width="1.4565"/>
</svg>
