<?xml version="1.0" encoding="UTF-8" standalone="no"?>
<!-- Created with Inkscape (http://www.inkscape.org/) -->

<svg
   xmlns:dc="http://purl.org/dc/elements/1.1/"
   xmlns:cc="http://creativecommons.org/ns#"
   xmlns:rdf="http://www.w3.org/1999/02/22-rdf-syntax-ns#"
   xmlns:svg="http://www.w3.org/2000/svg"
   xmlns="http://www.w3.org/2000/svg"
   xmlns:sodipodi="http://sodipodi.sourceforge.net/DTD/sodipodi-0.dtd"
   xmlns:inkscape="http://www.inkscape.org/namespaces/inkscape"
   version="1.0"
   width="89.998749"
   height="90"
   id="svg2"
   inkscape:version="0.48.2 r9819"
   sodipodi:docname="MUTCD W23-1 (temporary).svg">
  <metadata
     id="metadata13">
    <rdf:RDF>
      <cc:Work
         rdf:about="">
        <dc:format>image/svg+xml</dc:format>
        <dc:type
           rdf:resource="http://purl.org/dc/dcmitype/StillImage" />
        <dc:title></dc:title>
      </cc:Work>
    </rdf:RDF>
  </metadata>
  <sodipodi:namedview
     pagecolor="#ffffff"
     bordercolor="#666666"
     borderopacity="1"
     objecttolerance="10"
     gridtolerance="10"
     guidetolerance="10"
     inkscape:pageopacity="0"
     inkscape:pageshadow="2"
     inkscape:window-width="1280"
     inkscape:window-height="1004"
     id="namedview11"
     showgrid="false"
     fit-margin-top="0"
     fit-margin-left="0"
     fit-margin-right="0"
     fit-margin-bottom="0"
     inkscape:zoom="5.6568543"
     inkscape:cx="58.460574"
     inkscape:cy="28.721052"
     inkscape:window-x="-8"
     inkscape:window-y="-8"
     inkscape:window-maximized="1"
     inkscape:current-layer="svg2" />
  <defs
     id="defs4" />
  <path
     d="M 1.28875,41.8775 21.58375,21.58125 41.8775,1.28625 C 42.735,0.42625 43.8675,0 45,0 c 1.13125,0 2.265,0.42625 3.1225,1.28625 l 20.294995,20.295 20.2925,20.29625 c 0.86,0.85625 1.28875,1.98875 1.28875,3.12 0,1.1325 -0.42875,2.265 -1.28875,3.125 l -20.2925,20.292503 -20.294995,20.295 c -0.8575,0.86 -1.99125,1.29 -3.1225,1.29 -1.1325,0 -2.265,-0.43 -3.1225,-1.29 L 21.58375,68.415003 1.28875,48.1225 C 0.43,47.2625 0,46.13 0,44.9975 c 0,-1.13125 0.43,-2.26375 1.28875,-3.12"
     style="fill:#f4911d;fill-opacity:1;fill-rule:nonzero;stroke:none"
     id="path4155"
     inkscape:connector-curvature="0" />
  <path
     d="M 2.265,42.52112 42.5225,2.26487 c 1.36125,-1.3625 3.59375,-1.3625 4.955,0 l 40.256245,40.25625 c 1.3625,1.3625 1.3625,3.59125 0,4.95625 L 47.4775,87.731123 c -1.36125,1.365 -3.59375,1.365 -4.955,0 L 2.265,47.47737 c -1.36125,-1.365 -1.36125,-3.59375 0,-4.95625"
     style="fill:#000000;fill-opacity:1;fill-rule:evenodd;stroke:none"
     id="path4163"
     inkscape:connector-curvature="0" />
  <path
     d="M 3.525,43.76112 43.7625,3.52237 c 0.68125,-0.67875 1.79375,-0.67875 2.475,0 l 40.236245,40.23875 c 0.68125,0.68125 0.68125,1.795 0,2.47625 L 46.2375,86.473623 c -0.68125,0.68125 -1.79375,0.68125 -2.475,0 L 3.525,46.23737 c -0.68125,-0.68125 -0.68125,-1.795 0,-2.47625"
     style="fill:#f4911d;fill-opacity:1;fill-rule:evenodd;stroke:none"
     id="path4167"
     inkscape:connector-curvature="0" />
  <path
     d="m 50.11,52.2625 c -0.005,0.935 -0.535,1.805 -1.34,2.26875 l -8.9625,6.19125 c -1.79,1.235003 -2.57625,3.630003 -2.57625,5.835003 l -0.008,6.13 5.30125,0 10e-4,-6.09875 c 0,-0.84 0.40625,-1.635 1.0775,-2.13125 l 7.885,-5.363753 c 2.39,-1.39625 3.911245,-4.065 3.911245,-6.8575 0,0 0,-0.0325 0,0 -0.0025,-3.28625 -0.0025,-6.57 0,-9.85625 l 0,0.002 c 0,-2.7925 -1.521245,-5.46375 -3.911245,-6.86 L 43.603,30.15825 C 42.9318,29.662 42.52555,28.86575 42.52555,28.027 l -0.001,-2.37375 2.91875,0.87125 c 0.40625,0.1125 0.70375,0.16125 1.01625,-0.0512 0.44375,-0.3025 0.56125,-0.9125 0.25875,-1.36 l -6.84375,-10.11375 -6.85,10.11375 c -0.305,0.4475 -0.1875,1.0575 0.25875,1.36 0.295,0.2025 0.605,0.16625 0.97125,0.0737 l 2.96875,-0.89375 0.008,2.405 c 0,2.205 0.78625,4.6 2.57625,5.835 l 8.9625,6.19125 c 0.805,0.46625 1.335,1.335 1.34,2.27 0.005,3.30125 0.005,6.605 0,9.9075"
     style="fill:#000000;fill-opacity:1;fill-rule:evenodd;stroke:none"
     id="path4171"
     inkscape:connector-curvature="0" />
</svg>
