<?xml version="1.0" encoding="UTF-8" standalone="no"?>
<!-- Created with Inkscape (http://www.inkscape.org/) -->

<svg
   xmlns:dc="http://purl.org/dc/elements/1.1/"
   xmlns:cc="http://creativecommons.org/ns#"
   xmlns:rdf="http://www.w3.org/1999/02/22-rdf-syntax-ns#"
   xmlns:svg="http://www.w3.org/2000/svg"
   xmlns="http://www.w3.org/2000/svg"
   xmlns:sodipodi="http://sodipodi.sourceforge.net/DTD/sodipodi-0.dtd"
   xmlns:inkscape="http://www.inkscape.org/namespaces/inkscape"
   width="234.5625"
   height="281.15625"
   id="svg4779"
   version="1.1"
   inkscape:version="0.48.2 r9819"
   sodipodi:docname="AJAX1.svg">
  <defs
     id="defs4781" />
  <sodipodi:namedview
     id="base"
     pagecolor="#ffffff"
     bordercolor="#666666"
     borderopacity="1.0"
     inkscape:pageopacity="0.0"
     inkscape:pageshadow="2"
     inkscape:zoom="1.4"
     inkscape:cx="108.31876"
     inkscape:cy="100.03905"
     inkscape:document-units="px"
     inkscape:current-layer="layer1"
     showgrid="false"
     inkscape:window-width="1280"
     inkscape:window-height="1004"
     inkscape:window-x="-8"
     inkscape:window-y="-8"
     inkscape:window-maximized="1"
     fit-margin-top="0"
     fit-margin-left="0"
     fit-margin-right="0"
     fit-margin-bottom="0" />
  <metadata
     id="metadata4784">
    <rdf:RDF>
      <cc:Work
         rdf:about="">
        <dc:format>image/svg+xml</dc:format>
        <dc:type
           rdf:resource="http://purl.org/dc/dcmitype/StillImage" />
        <dc:title></dc:title>
      </cc:Work>
    </rdf:RDF>
  </metadata>
  <g
     inkscape:label="Layer 1"
     inkscape:groupmode="layer"
     id="layer1"
     transform="translate(-276.3125,586.34375)">
    <path
       inkscape:connector-curvature="0"
       d="m 510.11687,-320.49761 c 0,8.01125 -6.555,14.56625 -14.56625,14.56625 l -203.92875,0 c -8.0125,0 -14.5675,-6.555 -14.5675,-14.56625 l 0,-250.54125 c 0,-8.01125 6.555,-14.56625 14.5675,-14.56625 l 203.92875,0 c 8.01125,0 14.56625,6.555 14.56625,14.56625 l 0,250.54125 z"
       style="fill:#ffffff;fill-opacity:1;fill-rule:nonzero;stroke:#000000;stroke-width:1.5;stroke-miterlimit:4;stroke-opacity:1;stroke-dasharray:none"
       id="path3416" />
    <path
       inkscape:connector-curvature="0"
       d="m 495.55063,-581.72113 -203.92875,0 c -5.875,0 -10.6825,4.8075 -10.6825,10.6825 l 0,250.54125 c 0,5.875 4.8075,10.68125 10.6825,10.68125 l 203.92875,0 c 5.875,0 10.6825,-4.80625 10.6825,-10.68125 l 0,-250.54125 c 0,-5.875 -4.8075,-10.6825 -10.6825,-10.6825 m 4.855,261.22375 c 0,2.67 -2.185,4.855 -4.855,4.855 l -203.92875,0 c -2.67125,0 -4.85625,-2.185 -4.85625,-4.855 l 0,-250.54125 c 0,-2.67125 2.185,-4.85625 4.85625,-4.85625 l 203.92875,0 c 2.67,0 4.855,2.185 4.855,4.85625 l 0,250.54125 z"
       style="fill:#000000;fill-opacity:1;fill-rule:nonzero;stroke:none"
       id="path3424" />
    <path
       inkscape:connector-curvature="0"
       d="m 452.18699,-504.94863 c -0.4575,-0.61875 -1.10375,-1.10625 -1.88875,-1.36875 -2.035,-0.68 -4.235,0.41875 -4.915,2.45375 -0.1275,0.38125 -0.1925,0.76875 -0.2,1.15125 l -0.36875,11.96875 -16.48625,-5.53 c -14.55625,-4.9425 -25.03125,-18.72375 -25.03125,-34.95125 l 0,-23.30625 -19.4225,0 0,23.5625 0.004,0 c 0.11,24.76625 16.2025,45.75875 38.4975,53.19 l 16.28625,5.45625 -6.8975,9.78875 c -0.2225,0.31 -0.40375,0.65875 -0.53125,1.04 -0.68,2.035 0.41875,4.235 2.45375,4.915 0.785,0.26125 1.595,0.25875 2.3325,0.04 l 43.0225,-12.53625 -26.855,-35.87375 z"
       style="fill:#000000;fill-opacity:1;fill-rule:nonzero;stroke:none"
       id="path3428" />
    <path
       inkscape:connector-curvature="0"
       d="m 334.985,-456.50688 c 0.4575,0.61875 1.10375,1.10625 1.88875,1.36875 2.035,0.68 4.235,-0.41875 4.915,-2.45375 0.1275,-0.38125 0.1925,-0.76875 0.2,-1.15125 l 0.36875,-11.96875 16.48625,5.53 c 14.55625,4.9425 25.03125,18.72375 25.03125,34.95125 l 0,23.30625 19.4225,0 0,-23.5625 -0.004,0 c -0.11,-24.76625 -16.2025,-45.75875 -38.4975,-53.19 l -16.286,-5.45625 6.8975,-9.7875 c 0.2225,-0.31125 0.40375,-0.66 0.53125,-1.04125 0.68,-2.035 -0.41875,-4.235 -2.45375,-4.915 -0.785,-0.26125 -1.595,-0.25875 -2.3325,-0.04 l -43.0225,12.53625 26.855,35.87375 z"
       style="fill:#000000;fill-opacity:1;fill-rule:nonzero;stroke:none"
       id="path3432" />
    <path
       inkscape:connector-curvature="0"
       d="m 343.83264,-337.54138 c -2.69375,3.52125 -6.3525,5.24875 -11.25625,5.24875 -6.56,0 -10.565,-2.625 -13.39625,-8.35625 -1.93375,-3.93625 -3.315,-10.15125 -3.315,-15.675 0,-7.735 1.93375,-14.64 5.11,-18.99125 2.69375,-3.66 6.56,-5.2475 11.94625,-5.2475 12.91375,0 16.02125,13.81125 16.02125,24.23875 0,7.31875 -1.865,14.63875 -5.11,18.7825 m -10.91125,-35.495 c -4.1425,0 -6.07625,1.6575 -7.73375,5.7325 -1.105,2.7625 -1.795,7.04375 -1.795,10.98 0,4.9025 1.035,9.94375 2.83125,12.9125 1.45,2.4175 3.38375,3.59125 6.3525,3.59125 3.4525,0 5.59375,-1.795 7.1825,-5.87 0.96625,-2.48625 1.795,-7.04375 1.795,-10.63375 0,-5.38625 -1.17375,-16.7125 -8.6325,-16.7125"
       style="fill:#000000;fill-opacity:1;fill-rule:nonzero;stroke:none"
       id="path3436" />
    <path
       inkscape:connector-curvature="0"
       d="m 384.50576,-333.12175 -17.81625,-31.55875 0,31.55875 -7.38875,0 0,-46.6125 7.38875,0 16.9875,29.7625 0,-29.7625 7.32,0 0,46.6125 -6.49125,0 z"
       style="fill:#000000;fill-opacity:1;fill-rule:nonzero;stroke:none"
       id="path3440" />
    <path
       inkscape:connector-curvature="0"
       d="m 402.32111,-333.12175 0,-46.6125 7.38875,0 0,39.77625 21.545,0 0,6.83625 -28.93375,0 z"
       style="fill:#000000;fill-opacity:1;fill-rule:nonzero;stroke:none"
       id="path3444" />
    <path
       inkscape:connector-curvature="0"
       d="m 455.14775,-353.42411 0,20.3025 -7.38875,0 0,-20.3025 -16.36625,-26.31 8.83875,0 11.11875,17.95375 11.325,-17.95375 8.63125,0 -16.15875,26.31 z"
       style="fill:#000000;fill-opacity:1;fill-rule:nonzero;stroke:none"
       id="path3448" />
  </g>
</svg>
