<?xml version="1.0" encoding="UTF-8" standalone="no"?>
<!-- Created with Inkscape (http://www.inkscape.org/) -->

<svg
   xmlns:dc="http://purl.org/dc/elements/1.1/"
   xmlns:cc="http://creativecommons.org/ns#"
   xmlns:rdf="http://www.w3.org/1999/02/22-rdf-syntax-ns#"
   xmlns:svg="http://www.w3.org/2000/svg"
   xmlns="http://www.w3.org/2000/svg"
   xmlns:sodipodi="http://sodipodi.sourceforge.net/DTD/sodipodi-0.dtd"
   xmlns:inkscape="http://www.inkscape.org/namespaces/inkscape"
   width="2169.9915"
   height="2710.001"
   id="svg2934"
   version="1.1"
   inkscape:version="0.48.2 r9819"
   sodipodi:docname="AJAX1.svg">
  <defs
     id="defs2936">
    <inkscape:perspective
       sodipodi:type="inkscape:persp3d"
       inkscape:vp_x="0 : 526.18109 : 1"
       inkscape:vp_y="0 : 1000 : 0"
       inkscape:vp_z="744.09448 : 526.18109 : 1"
       inkscape:persp3d-origin="372.04724 : 350.78739 : 1"
       id="perspective2942" />
    <inkscape:perspective
       id="perspective2924"
       inkscape:persp3d-origin="0.5 : 0.33333333 : 1"
       inkscape:vp_z="1 : 0.5 : 1"
       inkscape:vp_y="0 : 1000 : 0"
       inkscape:vp_x="0 : 0.5 : 1"
       sodipodi:type="inkscape:persp3d" />
  </defs>
  <sodipodi:namedview
     id="base"
     pagecolor="#ffffff"
     bordercolor="#666666"
     borderopacity="1.0"
     inkscape:pageopacity="0.0"
     inkscape:pageshadow="2"
     inkscape:zoom="0.17376232"
     inkscape:cx="15.876847"
     inkscape:cy="1971.6369"
     inkscape:document-units="px"
     inkscape:current-layer="g2909"
     showgrid="false"
     inkscape:window-width="1280"
     inkscape:window-height="1004"
     inkscape:window-x="-8"
     inkscape:window-y="-8"
     inkscape:window-maximized="1"
     fit-margin-top="0"
     fit-margin-left="0"
     fit-margin-right="0"
     fit-margin-bottom="0" />
  <metadata
     id="metadata2939">
    <rdf:RDF>
      <cc:Work
         rdf:about="">
        <dc:format>image/svg+xml</dc:format>
        <dc:type
           rdf:resource="http://purl.org/dc/dcmitype/StillImage" />
        <dc:title></dc:title>
      </cc:Work>
    </rdf:RDF>
  </metadata>
  <g
     inkscape:label="Ebene 1"
     inkscape:groupmode="layer"
     id="layer1"
     transform="translate(-59.146651,2134.349)">
    <g
       id="g3018"
       transform="translate(2,-2)">
      <g
         id="g2909"
         transform="matrix(0.80835983,0,0,0.80835983,-165.10178,-177.02766)">
        <path
           inkscape:connector-curvature="0"
           style="fill:#ffffff;fill-rule:nonzero;stroke:#000000;stroke-width:12.37072849;stroke-linecap:butt;stroke-linejoin:miter;stroke-miterlimit:4;stroke-opacity:1;stroke-dasharray:none"
           d="m 2953.1943,760.40949 c 0,92.2393 -74.7656,167.0049 -167.0049,167.0049 l -2338.06764,0 c -92.23538,0 -167.00483,-74.7656 -167.00483,-167.0049 l 0,-3006.08699 c 0,-92.2338 74.76945,-167.0048 167.00483,-167.0048 l 2338.06764,0 c 92.2393,0 167.0049,74.771 167.0049,167.0048 l 0,3006.08699 z"
           id="path11" />
        <path
           inkscape:connector-curvature="0"
           style="fill:#000000;fill-rule:nonzero;stroke:none"
           d="m 2786.1895,-2370.9311 -2338.06774,0 c -69.06594,0 -125.25363,56.1877 -125.25363,125.2536 l 0,3006.08709 c 0,69.0595 56.18769,125.2536 125.25363,125.2536 l 2338.06774,0 c 69.0595,0 125.2536,-56.1941 125.2536,-125.2536 l 0,-3006.08709 c 0,-69.0659 -56.1941,-125.2536 -125.2536,-125.2536 z"
           id="path13" />
        <path
           inkscape:connector-curvature="0"
           style="fill:#ffffff;fill-rule:nonzero;stroke:none"
           d="m 2841.8577,760.40954 c 0,30.6949 -24.9734,55.6683 -55.6683,55.6683 l -2338.06764,0 c -30.6958,0 -55.66828,-24.9734 -55.66828,-55.6683 l 0,-3006.08704 c 0,-30.6958 24.97248,-55.6683 55.66828,-55.6683 l 2338.06764,0 c 30.6949,0 55.6683,24.9725 55.6683,55.6683 l 0,3006.08704 z"
           id="path15" />
        <path
           inkscape:connector-curvature="0"
           style="fill:#000000;fill-rule:nonzero;stroke:none"
           d="m 1995.7309,-408.6243 -205.8489,-447.69666 0,447.69666 -95.9025,0 0,-668.0193 95.9025,0 182.4528,400.81157 0,-400.81157 95.904,0 0,668.0193 -72.5079,0 z"
           id="path17" />
        <path
           inkscape:connector-curvature="0"
           style="fill:#000000;fill-rule:nonzero;stroke:none"
           d="m 1447.0426,-910.22486 c -16.5257,-58.5986 -42.4981,-84.38229 -82.6364,-84.38229 -42.4997,0 -68.4705,25.78369 -84.9978,82.03803 -16.5288,51.56275 -21.2498,96.09737 -21.2498,171.11037 0,72.66257 7.0838,114.84675 21.2498,168.7522 16.5273,56.25589 42.4981,82.04886 84.9978,82.04886 40.1383,0 66.1107,-25.79297 82.6364,-82.04886 16.5289,-53.90545 21.2483,-93.75466 21.2483,-171.10264 0,-74.99754 -7.0822,-117.19718 -21.2483,-166.41567 z m 75.5558,398.45961 c -33.0561,79.69842 -82.6396,114.86222 -158.1922,114.86222 -80.2768,0 -127.4959,-35.1638 -160.5505,-114.86222 -28.3367,-65.62671 -37.7802,-128.90299 -37.7802,-232.04394 0,-100.79051 9.4435,-168.75993 37.7802,-232.04548 35.4143,-79.69373 82.635,-112.51023 160.5505,-112.51023 77.917,0 125.1361,32.8165 158.1922,114.85294 28.3336,65.63135 37.7756,128.91226 37.7756,229.70277 0,103.14095 -9.442,168.76767 -37.7756,232.04394 z"
           id="path19" />
        <path
           inkscape:connector-curvature="0"
           style="fill:#000000;fill-rule:nonzero;stroke:none"
           d="m 1874.7452,36.134324 c -16.5304,-58.59086 -42.4935,-84.38383 -82.638,-84.38383 -42.4981,0 -68.472,25.79297 -84.9978,82.03339 -16.5272,51.57045 -21.2467,96.105046 -21.2467,171.118146 0,72.6625 7.0823,114.8467 21.2467,168.7676 16.5258,56.2404 42.4997,82.0334 84.9978,82.0334 40.1445,0 66.1076,-25.793 82.638,-82.0334 16.5304,-53.9209 21.2467,-93.7701 21.2467,-171.1181 0,-74.9975 -7.0822,-117.197196 -21.2467,-166.417206 z m 75.5542,398.476606 c -33.0608,79.683 -82.6365,114.8468 -158.1922,114.8468 -80.2768,0 -127.4958,-35.1638 -160.5504,-114.8468 -28.3352,-65.6422 -37.7771,-128.9184 -37.7771,-232.0594 0,-100.7905 9.4419,-168.767646 37.7771,-232.043926 35.4143,-79.698414 82.638,-112.511774 160.5504,-112.511774 77.9217,0 125.1314,32.81336 158.1922,114.846754 28.329,65.64218 37.7771,128.918446 37.7771,229.708946 0,103.141 -9.4481,168.7677 -37.7771,232.0594 z"
           id="path21" />
        <path
           inkscape:connector-curvature="0"
           style="fill:#000000;fill-rule:nonzero;stroke:none"
           d="m 2315.8235,-36.528246 -98.239,0 0,189.859776 98.239,0 c 56.1477,0 86.5487,-35.1638 86.5487,-96.105096 0,-56.25590971 -35.0865,-93.75468 -86.5487,-93.75468 z m 4.6854,281.279476 -102.9244,0 0,292.9852 -95.9041,0 0,-668.01934 198.8285,0 c 105.244,0 175.417,74.997544 175.417,187.509344 0,121.882596 -63.1526,187.524796 -175.417,187.524796 z"
           id="path23" />
        <path
           inkscape:connector-curvature="0"
           style="fill:#000000;fill-rule:nonzero;stroke:none"
           d="m 928.59467,229.24143 c -28.90266,-18.7262 -56.96411,-37.5143 -74.88002,-50.1324 -53.85597,-37.9008 -82.38287,-89.069296 -82.38287,-147.660126 0,-96.10509 75.32228,-173.453074 171.82942,-173.453074 94.1521,0 167.1208,72.662564 169.4743,173.453074 l -91.8,0 c -2.3505,-46.88506 -35.3061,-77.34798 -77.6743,-77.34798 -44.72327,0 -80.03088,32.81336 -80.03088,77.34798 0,32.81333 14.12273,51.57043 63.55307,79.698426 129.45971,74.9975 185.95211,147.6601 185.95211,243.7652 0,107.8264 -82.3844,194.5452 -185.95211,194.5452 -117.69202,0 -188.30568,-98.4401 -188.30568,-208.6169 l 94.15207,0 c 0,56.2559 28.24701,114.8622 94.15361,114.8622 51.78542,0 94.15211,-46.8851 94.15211,-100.7905 0,-41.8595 -17.2959,-77.116 -92.24083,-125.6711 z"
           id="path25" />
        <path
           inkscape:connector-curvature="0"
           style="fill:#000000;fill-rule:nonzero;stroke:none"
           d="m 1391.3759,-41.213656 0,578.950086 -96.3788,0 0,-578.950086 -122.2398,0 0,-89.069254 340.8569,0 0,89.069254 -122.2383,0 z"
           id="path27" />
        <path
           inkscape:connector-curvature="0"
           style="fill:#000000;fill-rule:nonzero;stroke:none"
           d="m 1578.1461,-1823.7707 -47.001,192.2025 96.354,0 -49.353,-192.2025 z m 119.8507,468.7857 -46.9995,-182.827 -143.3489,0 -44.6506,182.827 -96.351,0 166.8487,-668.0194 94.0036,0 166.8487,668.0194 -96.351,0 z"
           id="path29" />
        <path
           inkscape:connector-curvature="0"
           style="fill:#000000;fill-rule:nonzero;stroke:none"
           d="m 1887.8736,-1354.9835 0,-668.0209 93.5227,0 0,668.0209 -93.5227,0 z"
           id="path31" />
        <path
           inkscape:connector-curvature="0"
           style="fill:#000000;fill-rule:nonzero;stroke:none"
           d="m 2293.5407,-1933.9336 0,578.9486 -96.3834,0 0,-578.9486 -122.2383,0 0,-89.0708 340.86,0 0,89.0708 -122.2383,0 z"
           id="path33" />
        <path
           inkscape:connector-curvature="0"
           style="fill:#000000;fill-rule:nonzero;stroke:none"
           d="m 1218.3728,-1354.985 -82.3164,0 -63.5051,-349.2442 -63.5051,349.2442 -84.67149,0 -105.83777,-668.0194 94.07784,0 56.45073,356.277 65.85559,-356.277 75.2619,0 63.5036,356.277 58.8012,-356.277 94.0778,0 -108.1928,668.0194 z"
           id="path35" />
      </g>
    </g>
  </g>
</svg>
