<?xml version="1.0" encoding="UTF-8" standalone="no"?>
<!-- Generator: Adobe Illustrator 12.0.1, SVG Export Plug-In  -->

<svg
   xmlns:dc="http://purl.org/dc/elements/1.1/"
   xmlns:cc="http://creativecommons.org/ns#"
   xmlns:rdf="http://www.w3.org/1999/02/22-rdf-syntax-ns#"
   xmlns:svg="http://www.w3.org/2000/svg"
   xmlns="http://www.w3.org/2000/svg"
   xmlns:sodipodi="http://sodipodi.sourceforge.net/DTD/sodipodi-0.dtd"
   xmlns:inkscape="http://www.inkscape.org/namespaces/inkscape"
   version="1.1"
   width="286.03589"
   height="286.01199"
   viewBox="-1 -1 286.03589 286.01199"
   enable-background="new -1 -1 289 289"
   xml:space="preserve"
   id="svg2"
   inkscape:version="0.48.2 r9819"
   sodipodi:docname="AJAX1.svg"><metadata
   id="metadata22"><rdf:RDF><cc:Work
       rdf:about=""><dc:format>image/svg+xml</dc:format><dc:type
         rdf:resource="http://purl.org/dc/dcmitype/StillImage" /><dc:title></dc:title></cc:Work></rdf:RDF></metadata><sodipodi:namedview
   pagecolor="#ffffff"
   bordercolor="#666666"
   borderopacity="1"
   objecttolerance="10"
   gridtolerance="10"
   guidetolerance="10"
   inkscape:pageopacity="0"
   inkscape:pageshadow="2"
   inkscape:window-width="1280"
   inkscape:window-height="1004"
   id="namedview20"
   showgrid="false"
   fit-margin-top="0"
   fit-margin-left="0"
   fit-margin-right="0"
   fit-margin-bottom="0"
   inkscape:zoom="2.309719"
   inkscape:cx="159.39934"
   inkscape:cy="153.92228"
   inkscape:window-x="-8"
   inkscape:window-y="-8"
   inkscape:window-maximized="1"
   inkscape:current-layer="svg2" />
<defs
   id="defs4">
</defs>
<path
   clip-rule="evenodd"
   d="M 2.7863755,132.72525 132.71138,2.8302476 c 5.114,-5.107 13.449,-5.107 18.567,0 l 129.922,129.8950024 c 5.114,5.113 5.114,13.447 0,18.557 l -129.922,129.895 c -5.118,5.113 -13.453,5.113 -18.567,0 L 2.7863755,151.28225 c -5.045,-5.047 -5.052,-13.504 0,-18.557"
   id="path6"
   style="fill:#f4911d;fill-rule:evenodd;stroke:none;fill-opacity:1"
   inkscape:connector-curvature="0" />

<path
   clip-rule="evenodd"
   d="M 5.1373755,135.01425 135.00138,5.1832476 c 3.845,-3.818 10.135,-3.802 13.984,0 l 129.863,129.8310024 c 3.826,3.814 3.818,10.167 0,13.983 l -129.863,129.83 c -3.818,3.81 -10.174,3.825 -13.984,0 L 5.1373755,148.99725 c -3.81,-3.831 -3.818,-10.154 0,-13.983"
   id="path10"
   inkscape:connector-curvature="0"
   style="fill-rule:evenodd;stroke:none;fill:#000000" />
<path
   clip-rule="evenodd"
   d="M 9.0483755,138.83225 138.81938,9.0952476 c 1.715,-1.771 4.633,-1.771 6.348,0 l 129.767,129.7370024 c 1.773,1.716 1.773,4.632 0,6.35 l -129.767,129.727 c -1.715,1.776 -4.633,1.776 -6.348,0 L 9.0483755,145.18125 c -1.769,-1.718 -1.769,-4.633 0,-6.349"
   id="path12"
   style="fill:#f4911d;fill-rule:evenodd;stroke:none;fill-opacity:1"
   inkscape:connector-curvature="0" />
<path
   clip-rule="evenodd"
   d="m 163.42738,91.238248 v -4.906 h -12.767 v -11.54 h 7.249 v -4.784 h -7.249 v -8.833 h 11.416 v -4.912 h -16.444 v 34.975 h 17.795 m -28.473,-9.939 c 0,3.066 -1.847,5.033 -4.664,5.033 h -5.037 v -10.924 h 5.037 c 2.576,0 4.664,2.578 4.664,5.891 z m -0.613,-15.954 c 0,3.193 -1.475,5.156 -3.811,5.156 h -5.277 v -9.326 h 5.277 c 2.701,0 3.811,1.226 3.811,4.17 z m 5.518,16.323 c 0,-3.563 -1.591,-6.507 -4.292,-8.715 2.825,-2.945 3.679,-4.415 3.679,-7.608 0,-5.397 -3.314,-9.082 -7.978,-9.082 h -11.043 v 34.975 h 10.306 c 5.16,0 9.328,-4.295 9.328,-9.57 z"
   id="path14"
   inkscape:connector-curvature="0"
   style="fill-rule:evenodd;stroke:none;fill:#000000" />
<path
   clip-rule="evenodd"
   d="m 232.49538,129.93225 c 0,2.702 -0.248,5.153 -0.488,7.365 -0.497,2.698 -2.084,5.026 -5.037,5.026 h -4.171 v -25.154 h 4.171 c 2.212,0 3.687,1.105 4.54,3.563 0.621,1.474 0.985,5.276 0.985,9.2 m 4.913,-0.246 c 0,-2.696 -0.373,-5.766 -0.861,-8.34 -0.613,-3.563 -2.088,-6.257 -4.176,-7.728 -1.226,-0.985 -2.7,-1.35 -5.642,-1.35 h -8.963 v 34.968 h 9.7 c 1.963,0 3.679,-0.492 4.904,-1.601 3.439,-2.695 5.038,-7.849 5.038,-15.949 z m -25.536,17.55 v -4.913 h -12.766 v -11.528 h 7.244 v -4.787 h -7.244 v -8.839 h 11.419 v -4.901 h -16.452 v 34.968 h 17.799 z m -28.477,-25.64 c 0,2.812 -1.599,4.413 -4.54,4.413 h -5.161 v -8.839 h 5.161 c 2.7,-10e-4 4.54,1.724 4.54,4.426 z m 4.912,25.64 -5.037,-17.18 c 3.314,-1.224 5.037,-4.298 5.037,-8.46 0,-5.651 -3.687,-9.328 -9.212,-9.328 h -10.43 v 34.968 h 5.028 v -16.441 h 4.788 l 4.664,16.441 h 5.162 z m -33.145,-14.48 h -5.028 l 2.452,-10.061 2.576,10.061 z m 8.716,14.48 -8.716,-34.968 h -4.912 l -8.715,34.968 h 5.037 l 2.328,-9.576 h 7.488 l 2.46,9.576 h 5.03 z m -29.339,-25.152 c 0,3.185 -1.595,5.024 -4.536,5.024 h -5.161 v -9.939 h 5.161 c 2.693,0 4.536,1.963 4.536,4.915 z m 4.908,0 c 0,-5.893 -3.679,-9.816 -9.208,-9.816 h -10.43 v 34.968 h 5.033 v -15.341 h 5.397 c 5.894,0 9.208,-3.437 9.208,-9.811 z m -25.531,25.152 v -4.913 h -12.766 v -11.528 h 7.248 v -4.787 h -7.248 v -8.839 h 11.416 v -4.901 H 96.121375 v 34.968 h 17.795005 z m -28.473005,-25.64 c 0,2.812 -1.599,4.413 -4.544,4.413 h -5.157 v -8.839 h 5.157 c 2.704,-10e-4 4.544,1.724 4.544,4.426 z m 4.916,25.64 -5.041,-17.18 c 3.314,-1.224 5.041,-4.298 5.041,-8.46 0,-5.651 -3.69,-9.328 -9.215,-9.328 h -10.43 v 34.968 h 5.029 v -16.441 h 4.788 l 4.664,16.441 h 5.164 z m -29.347,-25.152 c 0,3.185 -1.591,5.024 -4.54,5.024 h -5.153 v -9.939 h 5.153 c 2.701,0 4.54,1.963 4.54,4.915 z m 4.913,0 c 0,-5.893 -3.687,-9.816 -9.204,-9.816 h -10.438 v 34.968 h 5.036 v -15.341 h 5.401 c 5.891,0 9.205,-3.437 9.205,-9.811 z"
   id="path16"
   inkscape:connector-curvature="0"
   style="fill-rule:evenodd;stroke:none;fill:#000000" />
<path
   clip-rule="evenodd"
   d="m 217.78138,178.07225 c 0,3.193 -1.591,5.04 -4.539,5.04 h -5.161 v -9.938 h 5.161 c 2.7,-0.001 4.539,1.958 4.539,4.898 m 4.913,0 c 0,-5.884 -3.687,-9.81 -9.212,-9.81 h -10.43 v 34.965 h 5.028 v -15.336 h 5.401 c 5.899,0 9.213,-3.429 9.213,-9.819 z m -31.43,7.612 c 0,4.054 -0.241,6.129 -1.103,8.954 -0.861,2.947 -2.212,4.298 -4.299,4.298 -2.204,0 -3.555,-1.351 -4.416,-4.298 -0.737,-2.825 -1.102,-5.024 -1.102,-8.83 0,-3.934 0.24,-6.262 1.102,-8.957 0.861,-2.945 2.212,-4.299 4.416,-4.299 2.087,0 3.438,1.354 4.299,4.423 0.738,2.572 1.103,4.787 1.103,8.709 z m 4.788,0 c 0,-5.276 -0.489,-8.589 -1.964,-12.021 -1.715,-4.299 -4.175,-6.018 -8.226,-6.018 -4.044,0 -6.504,1.719 -8.343,5.893 -1.475,3.313 -1.964,6.87 -1.964,12.146 0,5.403 0.489,8.717 1.964,12.146 1.715,4.174 4.175,6.031 8.343,6.031 3.935,0 6.511,-1.857 8.226,-6.031 1.475,-3.313 1.964,-6.742 1.964,-12.146 z m -24.671,-12.762 v -4.659 h -17.799 v 4.659 h 6.384 v 30.306 h 5.036 v -30.306 h 6.379 z m -20.992,20.738 c 0,-5.031 -2.941,-8.837 -9.692,-12.763 -2.577,-1.475 -3.314,-2.448 -3.314,-4.174 0,-2.328 1.839,-4.047 4.167,-4.047 2.212,0 3.938,1.594 4.059,4.047 h 4.78 c -0.116,-5.276 -3.931,-9.078 -8.839,-9.078 -5.029,0 -8.956,4.054 -8.956,9.078 0,3.075 1.475,5.775 4.299,7.738 7.116,4.78 5.153,3.43 5.89,4.167 2.087,1.599 2.825,3.072 2.825,5.031 0,2.816 -2.212,5.276 -4.912,5.276 -3.438,0 -4.913,-3.069 -4.913,-6.01 h -4.912 c 0,5.766 3.69,10.936 9.825,10.936 5.402,10e-4 9.693,-4.558 9.693,-10.201 z m -47.012,-7.976 c 0,4.054 -0.24,6.129 -1.098,8.954 -0.865,2.947 -2.215,4.298 -4.303005,4.298 -2.204,0 -3.555,-1.351 -4.416,-4.298 -0.741,-2.825 -1.102,-5.024 -1.102,-8.83 0,-3.934 0.241,-6.262 1.102,-8.957 0.861,-2.945 2.212,-4.299 4.416,-4.299 2.087005,0 3.438005,1.354 4.303005,4.423 0.733,2.572 1.098,4.787 1.098,8.709 z m 4.788,0 c 0,-5.276 -0.489,-8.589 -1.963,-12.021 -1.715,-4.299 -4.175,-6.018 -8.226005,-6.018 -4.043,0 -6.503,1.719 -8.343,5.893 -1.475,3.313 -1.963,6.87 -1.963,12.146 0,5.403 0.489,8.717 1.963,12.146 1.719,4.174 4.175,6.031 8.343,6.031 3.934005,0 6.511005,-1.857 8.226005,-6.031 1.474,-3.313 1.963,-6.742 1.963,-12.146 z m -24.671005,-12.762 v -4.659 h -17.794 v 4.659 h 6.379 v 30.306 h 5.037 v -30.306 h 6.378 z"
   id="path18"
   inkscape:connector-curvature="0"
   style="fill-rule:evenodd;stroke:none;fill:#000000" />
</svg>