<?xml version="1.0" encoding="UTF-8" standalone="no"?>
<!-- Created with Inkscape (http://www.inkscape.org/) -->

<svg
   xmlns:dc="http://purl.org/dc/elements/1.1/"
   xmlns:cc="http://creativecommons.org/ns#"
   xmlns:rdf="http://www.w3.org/1999/02/22-rdf-syntax-ns#"
   xmlns:svg="http://www.w3.org/2000/svg"
   xmlns="http://www.w3.org/2000/svg"
   xmlns:sodipodi="http://sodipodi.sourceforge.net/DTD/sodipodi-0.dtd"
   xmlns:inkscape="http://www.inkscape.org/namespaces/inkscape"
   version="1.0"
   width="88.048752"
   height="44.013752"
   id="svg2"
   inkscape:version="0.48.2 r9819"
   sodipodi:docname="MUTCD W22-3 (temporary).svg">
  <metadata
     id="metadata13">
    <rdf:RDF>
      <cc:Work
         rdf:about="">
        <dc:format>image/svg+xml</dc:format>
        <dc:type
           rdf:resource="http://purl.org/dc/dcmitype/StillImage" />
        <dc:title></dc:title>
      </cc:Work>
    </rdf:RDF>
  </metadata>
  <sodipodi:namedview
     pagecolor="#ffffff"
     bordercolor="#666666"
     borderopacity="1"
     objecttolerance="10"
     gridtolerance="10"
     guidetolerance="10"
     inkscape:pageopacity="0"
     inkscape:pageshadow="2"
     inkscape:window-width="1280"
     inkscape:window-height="1004"
     id="namedview11"
     showgrid="false"
     fit-margin-top="0"
     fit-margin-left="0"
     fit-margin-right="0"
     fit-margin-bottom="0"
     inkscape:zoom="8"
     inkscape:cx="39.388458"
     inkscape:cy="2.8269424"
     inkscape:window-x="-8"
     inkscape:window-y="-8"
     inkscape:window-maximized="1"
     inkscape:current-layer="svg2" />
  <defs
     id="defs4" />
  <path
     d="M 83.6325,44.01125 4.41625,44.01375 C 1.9875,44.01625 0.0025,42.02875 0,39.5975 L 0.005,4.41625 C 0.0025,1.9875 1.99,0 4.42125,0 L 83.63,0 c 2.43125,0 4.41875,1.9875 4.41625,4.41625 l 0.0025,35.17875 c -0.0025,2.42875 -1.99,4.41625 -4.41625,4.41625"
     style="fill:#f4911d;fill-opacity:1;fill-rule:nonzero;stroke:none"
     id="path3963"
     inkscape:connector-curvature="0" />
  <path
     d="m 83.39562,42.86375 -78.7425,0.0025 c -1.92625,0 -3.50375,-1.5775 -3.50625,-3.50625 L 1.15187,4.6525 C 1.15187,2.725 2.72937,1.15 4.65562,1.15 l 78.74,-0.0025 c 1.92625,0.0025 3.50375,1.57875 3.50375,3.505 l 0,34.7075 c 0,1.92625 -1.575,3.50375 -3.50375,3.50375"
     style="fill:#000000;fill-opacity:1;fill-rule:evenodd;stroke:none"
     id="path3979"
     inkscape:connector-curvature="0" />
  <path
     d="m 83.38349,41.09637 -78.71875,0.0025 c -0.96125,0.0025 -1.75,-0.78875 -1.75,-1.75125 l 0.005,-34.6825 c 0,-0.96375 0.78625,-1.75 1.75,-1.75 l 78.71375,0 c 0.9625,0 1.7525,0.78875 1.75,1.75 l 0,34.68 c 0,0.9625 -0.7875,1.75125 -1.75,1.75125"
     style="fill:#f4911d;fill-opacity:1;fill-rule:evenodd;stroke:none"
     id="path3983"
     inkscape:connector-curvature="0" />
  <path
     d="m 79.32824,11.59387 c -0.095,-0.8375 -0.225,-1.2225 -0.57875,-1.675 -0.42,-0.6125 -1.06375,-0.935 -1.80375,-0.935 -1.805,0 -2.74,1.58 -2.74,4.54375 0,3.38125 0.8725,4.96625 2.835,4.96625 1.28875,0 2.25625,-1.10125 2.2875,-2.615 l -1.32125,0 c 0,0.67625 -0.1925,1.32125 -0.96625,1.32125 -1.125,0 -1.5775,-1.0625 -1.5775,-3.70375 0,-2.38625 0.38625,-3.2225 1.4475,-3.2225 0.61375,0 0.9675,0.42 1.09625,1.32 l 1.32125,0 z m -6.9575,-2.44625 -1.28875,0 0,9.18 1.28875,0 0,-9.18 z m -2.545,1.28625 0,-1.28625 -4.67,0 0,9.18 1.32125,0 0,-4.31625 1.835,0 0,-1.2575 -1.835,0 0,-2.32 3.34875,0 z m -5.9275,0 0,-1.28625 -4.6725,0 0,9.18 1.32375,0 0,-4.31625 1.835,0 0,-1.2575 -1.835,0 0,-2.32 3.34875,0 z m -8.2125,4.0925 -1.32375,0 0.645,-2.64125 0.67875,2.64125 z m 2.285,3.80125 -2.285,-9.18 -1.29125,0 -2.2875,9.18 1.3225,0 0.61125,-2.5125 1.9675,0 0.64125,2.5125 1.32125,0 z m -7.95625,-6.73375 c 0,0.74 -0.42,1.16 -1.19125,1.16 l -1.3525,0 0,-2.32 1.3525,0 c 0.7075,0 1.19125,0.4525 1.19125,1.16 m 1.28875,6.73375 -1.32,-4.50875 c 0.86875,-0.3225 1.32,-1.12875 1.32,-2.225 0,-1.48125 -0.96625,-2.44625 -2.4175,-2.44625 l -2.73625,0 0,9.18 1.32125,0 0,-4.31625 1.2575,0 1.22,4.31625 1.355,0 z m -6.41125,-7.95625 0,-1.22375 -4.67,0 0,1.22375 1.675,0 0,7.95625 1.32,0 0,-7.95625 1.675,0 z m -9.7925,-1.22375 -1.28875,0 -0.80625,4.895 -0.86875,-4.895 -1.03,0 -0.90375,4.895 -0.77125,-4.895 -1.28875,0 1.45,9.18 1.16,0 0.86875,-4.8 0.86875,4.8 1.12875,0 1.48125,-9.18 z m -9.3425,4.5725 c 0,1.0625 -0.06375,1.61125 -0.28875,2.35125 -0.22625,0.77375 -0.58125,1.12875 -1.1275,1.12875 -0.58125,0 -0.935,-0.355 -1.16,-1.12875 -0.1925,-0.74 -0.29,-1.32 -0.29,-2.31875 0,-1.03 0.065,-1.64375 0.29,-2.35125 0.225,-0.77375 0.57875,-1.1275 1.16,-1.1275 0.54625,0 0.90125,0.35375 1.1275,1.15875 0.1925,0.67625 0.28875,1.2575 0.28875,2.2875 m 1.2575,0 c 0,-1.38625 -0.13,-2.255 -0.51625,-3.15625 -0.45125,-1.1275 -1.09625,-1.58 -2.1575,-1.58 -1.065,0 -1.70875,0.4525 -2.19,1.54875 -0.38875,0.86875 -0.515,1.80125 -0.515,3.1875 0,1.41875 0.12625,2.2875 0.515,3.18875 0.45125,1.09625 1.09375,1.585 2.19,1.585 1.03,0 1.70625,-0.48875 2.1575,-1.585 0.38625,-0.86875 0.51625,-1.77 0.51625,-3.18875 m -6.475,4.6075 0,-1.22375 -3.3525,0 0,-7.95625 -1.31875,0 0,9.18 4.67125,0 z m -6.21875,-2.5125 c 0,-1.32 -0.77375,-2.31875 -2.54375,-3.35125 -0.67625,-0.38625 -0.86875,-0.6425 -0.86875,-1.09375 0,-0.61375 0.4825,-1.065 1.09375,-1.065 0.58125,0 1.0325,0.42 1.06375,1.065 l 1.255,0 c -0.03125,-1.385 -1.03,-2.38625 -2.31875,-2.38625 -1.32125,0 -2.35125,1.065 -2.35125,2.38625 0,0.805 0.385,1.5125 1.1275,2.02875 1.8675,1.25625 1.3525,0.9025 1.545,1.09625 0.55,0.4175 0.7425,0.805 0.7425,1.32 0,0.74 -0.58125,1.385 -1.28875,1.385 -0.90375,0 -1.28875,-0.80625 -1.28875,-1.5775 l -1.29,0 c 0,1.51375 0.9675,2.87125 2.57875,2.87125 1.41625,0 2.54375,-1.19625 2.54375,-2.67875"
     style="fill:#000000;fill-opacity:1;fill-rule:evenodd;stroke:none"
     id="path3987"
     inkscape:connector-curvature="0" />
  <path
     d="m 58.95237,30.3225 c 0,0.7075 -0.06625,1.3525 -0.13,1.93125 -0.12875,0.7075 -0.54625,1.32 -1.32,1.32 l -1.09625,0 0,-6.60125 1.09625,0 c 0.58125,0 0.96625,0.2875 1.19125,0.9325 0.16375,0.38875 0.25875,1.38375 0.25875,2.4175 m 1.28875,-0.06625 c 0,-0.70875 -0.0975,-1.51375 -0.22625,-2.19 -0.16125,-0.935 -0.5475,-1.64375 -1.09375,-2.03125 -0.3225,-0.25625 -0.71125,-0.35375 -1.485,-0.35375 l -2.34875,0 0,9.18375 2.54375,0 c 0.515,0 0.9675,-0.12875 1.29,-0.42 0.9025,-0.71 1.32,-2.0625 1.32,-4.18875 m -8.69875,0.805 -1.32,0 0.64375,-2.64125 0.67625,2.64125 z m 2.2875,3.80375 -2.2875,-9.18375 -1.28625,0 -2.2875,9.18375 1.32125,0 0.6125,-2.51375 1.9625,0 0.645,2.51375 1.32,0 z m -6.69875,0 0,-1.29125 -3.3525,0 0,-3.0275 1.9025,0 0,-1.2575 -1.9025,0 0,-2.31625 2.99875,0 0,-1.29125 -4.31875,0 0,9.18375 4.6725,0 z m -6.63875,0 0,-9.18375 -1.32,0 0,3.7375 -2.5125,0 0,-3.7375 -1.32125,0 0,9.18375 1.32125,0 0,-4.1575 2.5125,0 0,4.1575 1.32,0 z m -8.69625,-3.80375 -1.32,0 0.64375,-2.64125 0.67625,2.64125 z m 2.2875,3.80375 -2.2875,-9.18375 -1.28875,0 -2.2875,9.18375 1.32125,0 0.6125,-2.51375 1.965,0 0.645,2.51375 1.32,0 z"
     style="fill:#000000;fill-opacity:1;fill-rule:evenodd;stroke:none"
     id="path3991"
     inkscape:connector-curvature="0" />
</svg>
