<?xml version="1.0" encoding="UTF-8" standalone="no"?>
<svg
   width="89.985161"
   height="90.000931"
   viewBox="0 0 253.95815 254.00261"
   version="1.1"
   id="svg2"
   inkscape:version="1.2.1 (9c6d41e410, 2022-07-14)"
   sodipodi:docname="MUTCD_W11-1.svg"
   xmlns:inkscape="http://www.inkscape.org/namespaces/inkscape"
   xmlns:sodipodi="http://sodipodi.sourceforge.net/DTD/sodipodi-0.dtd"
   xmlns="http://www.w3.org/2000/svg"
   xmlns:svg="http://www.w3.org/2000/svg"
   xmlns:rdf="http://www.w3.org/1999/02/22-rdf-syntax-ns#"
   xmlns:cc="http://creativecommons.org/ns#"
   xmlns:dc="http://purl.org/dc/elements/1.1/">
  <metadata
     id="metadata62">
    <rdf:RDF>
      <cc:Work
         rdf:about="">
        <dc:format>image/svg+xml</dc:format>
        <dc:type
           rdf:resource="http://purl.org/dc/dcmitype/StillImage" />
      </cc:Work>
    </rdf:RDF>
  </metadata>
  <defs
     id="defs60" />
  <sodipodi:namedview
     pagecolor="#ffffff"
     bordercolor="#666666"
     borderopacity="1"
     objecttolerance="10"
     gridtolerance="10"
     guidetolerance="10"
     inkscape:pageopacity="0"
     inkscape:pageshadow="2"
     inkscape:window-width="1920"
     inkscape:window-height="1017"
     id="namedview58"
     showgrid="false"
     fit-margin-top="0"
     fit-margin-left="0"
     fit-margin-right="0"
     fit-margin-bottom="0"
     inkscape:zoom="5.8194445"
     inkscape:cx="27.494033"
     inkscape:cy="27.665871"
     inkscape:window-x="-8"
     inkscape:window-y="1144"
     inkscape:window-maximized="1"
     inkscape:current-layer="svg2"
     showguides="true"
     inkscape:guide-bbox="true"
     inkscape:showpageshadow="2"
     inkscape:pagecheckerboard="0"
     inkscape:deskcolor="#d1d1d1" />
  <!-- draw the bicycle -->
  <!-- RIGHT -->
  <!-- LANE -->
  <!-- ONLY -->
  <path
     inkscape:connector-curvature="0"
     d="M 3.3615264,118.7608 118.71636,3.4025018 c 4.54025,-4.5367 11.94153,-4.5367 16.48178,0 L 250.55296,118.7608 c 4.54025,4.5367 4.54025,11.938 0,16.4783 L 135.19814,250.5974 c -4.54025,4.5403 -11.94153,4.5403 -16.48178,0 L 3.3615264,135.2391 c -4.48027,-4.4803 -4.4838,-11.9945 0,-16.4783"
     style="fill:#fecf33;fill-opacity:1;fill-rule:nonzero;stroke:none"
     id="path3260" />
  <path
     inkscape:connector-curvature="0"
     d="M 5.6764564,121.0211 120.97837,5.7227018 c 3.27025,-3.2702 8.68892,-3.2632 11.95917,0 L 248.23591,121.0211 c 3.27378,3.2738 3.25967,8.6819 0,11.9592 L 132.93754,248.2786 c -3.27731,3.2632 -8.68187,3.2703 -11.95917,0 L 5.6764564,132.9803 c -3.25614,-3.2773 -3.27025,-8.6854 0,-11.9592"
     style="fill:#000000;fill-opacity:1;fill-rule:evenodd;stroke:none"
     id="path3272" />
  <path
     inkscape:connector-curvature="0"
     d="M 8.9220164,124.1837 124.13926,8.9665018 c 1.524,-1.5734 4.11339,-1.5734 5.63739,0 L 244.99036,124.1837 c 1.57339,1.5205 1.57339,4.1134 0,5.6339 L 129.77665,245.0313 c -1.524,1.5769 -4.11692,1.5804 -5.63739,0 L 8.9220164,129.8176 c -1.56986,-1.5205 -1.56986,-4.1134 0,-5.6339"
     style="fill:#fecf33;fill-opacity:1;fill-rule:evenodd;stroke:none"
     id="path3276" />
  <path
     style="fill:#f4911d;fill-opacity:1;stroke-width:0.171838"
     d=""
     id="path16545"
     transform="scale(2.8222223)" />
  <path
     style="fill:#f4911d;fill-opacity:1;stroke-width:0.171838"
     d="m 43.989341,89.796485 c -0.23689,-0.07206 -0.662188,-0.25378 -0.945107,-0.403826 C 42.761313,89.242614 33.11792,79.700343 21.614474,68.18761 6.2292167,52.789936 0.6261616,47.078683 0.42320166,46.587122 0.04490661,45.670906 0.07172769,44.261213 0.48468456,43.355631 0.73814265,42.799819 6.0742222,37.374942 21.933712,21.549675 44.680541,-1.1480668 43.350016,0.08312724 45.127335,0.08759752 c 1.6005,0.0040256 1.119058,-0.44550227 23.214245,21.67542948 16.263909,16.28286 20.904449,21.022186 21.175224,21.625994 0.484369,1.080107 0.458583,2.30168 -0.07092,3.360056 -0.330908,0.66141 -5.067377,5.488108 -21.350835,21.757561 -20.443319,20.425735 -20.947104,20.913849 -21.85893,21.178998 -1.001154,0.291124 -1.562998,0.318845 -2.246773,0.110849 z m 2.320921,-1.200287 c 0.85944,-0.402952 42.079023,-41.613172 42.349702,-42.340082 0.230928,-0.620154 0.231182,-1.848042 5.16e-4,-2.469273 C 88.418881,43.136181 46.995838,1.6726634 46.272822,1.357771 45.331382,0.94774852 44.16383,1.047984 43.293785,1.6135244 42.873611,1.8866431 33.276248,11.378528 21.966313,22.706604 4.1377826,40.563727 1.3781994,43.394522 1.2178689,43.990453 c -0.24992516,0.928946 -0.2343681,1.35649 0.076796,2.110531 0.3167388,0.76755 41.6183401,42.20463 42.4380311,42.577239 0.724716,0.329436 1.770994,0.29614 2.577566,-0.08203 z"
     id="path16547"
     transform="scale(2.8222223)" />
  <path
     style="fill:#f4911d;fill-opacity:1;stroke-width:0.171838"
     d="M 23.853318,66.481407 C 12.41977,55.05649 3.0046506,45.554577 2.9308304,45.366045 2.8570101,45.177513 2.8649863,44.827121 2.9485551,44.587395 3.0321239,44.347669 12.398786,34.855384 23.763361,23.493426 41.945024,5.315949 44.48766,2.8353222 44.937854,2.8353222 c 0.450246,0 3.011573,2.4999406 21.347748,20.8361158 18.365134,18.365134 20.836116,20.896979 20.836116,21.34934 0,0.45239 -2.459508,2.971847 -20.749404,21.255156 C 51.656439,80.98651 45.480236,87.052194 45.132249,87.135923 44.664413,87.248491 43.674529,86.287657 23.853318,66.481407 Z"
     id="path16549"
     transform="scale(2.8222223)" />
  <path
     d="m 152.52433,135.83984 22.38375,-3.65125 -14.10758,-18.32681 c -7.31308,6.37469 -8.21972,14.02997 -8.27617,21.97806 m -6.1595,1.34055 c -0.0353,-0.79375 -0.1658,-2.0708 -0.1658,-2.96333 0,-9.06992 2.93511,-17.88231 10.8973,-25.20598 L 148.80253,99.080394 135.972,138.2352 Z m -49.261887,-38.967836 0.71261,-2.17664 45.709417,-0.0635 -12.16025,36.865286 -0.52564,-3.84175 h 1.40053 l -0.17286,-2.45181 h -6.11717 l 0.17639,2.27542 h 1.56986 l 0.34925,4.19453 c 0,0 -30.765747,-34.625146 -30.942137,-34.801536 m -20.24239,35.411836 c 6.13833,-4.87539 10.91494,-9.52147 14.36158,-18.8207 5.43631,4.93537 8.54075,12.06853 8.54075,19.41337 0,14.58031 -11.89214,26.47597 -26.47597,26.47597 -14.58384,0 -26.475977,-11.89566 -26.475977,-26.47597 0,-14.58384 11.892137,-26.47598 26.475977,-26.47598 4.65314,0 9.41211,1.34409 13.24681,3.60892 -2.59292,8.20561 -5.12234,12.43542 -13.11275,18.86656 -1.94028,0.0847 -3.4149,1.64041 -3.4149,3.49955 0,1.92264 1.57339,3.49603 3.49603,3.49603 1.92617,0 3.35845,-1.57339 3.35845,-3.58775 m 76.602167,7.84225 c 2.99156,11.15836 13.64545,19.22639 25.43528,19.22639 14.58031,0 26.47245,-11.89566 26.47245,-26.47597 0,-14.58384 -11.89214,-26.47598 -26.47245,-26.47598 -4.65667,0 -10.04006,1.09714 -13.96647,3.39725 l 14.36864,19.07823 c 1.75683,0.0282 3.28436,1.59808 3.28436,3.49955 0,1.92264 -1.56986,3.49603 -3.4925,3.49603 -0.5327,0 -1.09361,-0.13758 -1.56633,-0.36336 z m -65.038117,-36.24792 9.37684,-25.872722 -2.97039,-5.069418 5.944307,-6.466417 h 12.75997 l 0.17639,3.668889 h -11.19011 l -2.26836,2.448278 2.62114,4.720167 -3.298477,11.687527 h 45.797617 l 0.70202,-2.14136 c -3.683,-0.47625 -10.03299,-2.74461 -11.54994,-4.06047 -1.51342,-1.31586 -0.18697,-2.529418 1.53811,-2.585863 9.03817,-0.384528 22.46842,-1.139472 25.02253,-1.153583 2.55058,-0.01058 2.81164,1.277055 1.10419,3.143246 -1.70744,1.8662 -3.20322,3.54895 -9.67316,4.55084 l -1.74625,4.72017 10.83733,13.423186 c 5.10822,-3.09739 11.28536,-4.70958 17.28964,-4.70958 18.00931,0 32.69545,14.68614 32.69545,32.69545 0,18.00931 -14.68614,32.69545 -32.69545,32.69545 -14.81667,0 -27.84475,-10.21998 -31.67239,-24.33815 l -9.95539,1.78859 c -0.42686,1.17475 -1.42522,2.07433 -2.61408,2.77989 l 1.778,8.42433 h 2.27542 l 0.17286,2.26836 -7.16845,0.35278 v -2.44828 h 1.75331 l -2.16959,-8.41728 c -3.22086,-0.52564 -4.90714,-3.28789 -3.94758,-6.02544 l -32.533167,-36.7912 -1.45697,3.94758 c 7.898687,6.21948 12.625917,15.80092 12.625917,25.76337 0,18.00931 -14.693197,32.69545 -32.698977,32.69545 -18.009309,0 -32.698977,-14.68614 -32.698977,-32.69545 0,-18.00931 14.689668,-32.69545 32.698977,-32.69545 5.23522,0 10.60097,1.27353 15.13769,3.69711"
     style="fill:#000000;fill-opacity:1;fill-rule:evenodd;stroke:none"
     id="path3420"
     inkscape:connector-curvature="0" />
</svg>
