<?xml version="1.0" encoding="UTF-8" standalone="no"?>
<!-- Created with Inkscape (http://www.inkscape.org/) -->

<svg
   xmlns:dc="http://purl.org/dc/elements/1.1/"
   xmlns:cc="http://creativecommons.org/ns#"
   xmlns:rdf="http://www.w3.org/1999/02/22-rdf-syntax-ns#"
   xmlns:svg="http://www.w3.org/2000/svg"
   xmlns="http://www.w3.org/2000/svg"
   xmlns:sodipodi="http://sodipodi.sourceforge.net/DTD/sodipodi-0.dtd"
   xmlns:inkscape="http://www.inkscape.org/namespaces/inkscape"
   width="184.65625"
   height="230.4375"
   id="svg4779"
   version="1.1"
   inkscape:version="0.48.2 r9819"
   sodipodi:docname="MUTCD R3-11b.svg">
  <defs
     id="defs4781" />
  <sodipodi:namedview
     id="base"
     pagecolor="#ffffff"
     bordercolor="#666666"
     borderopacity="1.0"
     inkscape:pageopacity="0.0"
     inkscape:pageshadow="2"
     inkscape:zoom="1.979899"
     inkscape:cx="112.78267"
     inkscape:cy="109.45635"
     inkscape:document-units="px"
     inkscape:current-layer="layer1"
     showgrid="false"
     inkscape:window-width="1280"
     inkscape:window-height="1004"
     inkscape:window-x="-8"
     inkscape:window-y="-8"
     inkscape:window-maximized="1"
     fit-margin-top="0"
     fit-margin-left="0"
     fit-margin-right="0"
     fit-margin-bottom="0" />
  <metadata
     id="metadata4784">
    <rdf:RDF>
      <cc:Work
         rdf:about="">
        <dc:format>image/svg+xml</dc:format>
        <dc:type
           rdf:resource="http://purl.org/dc/dcmitype/StillImage" />
        <dc:title></dc:title>
      </cc:Work>
    </rdf:RDF>
  </metadata>
  <g
     inkscape:label="Layer 1"
     inkscape:groupmode="layer"
     id="layer1"
     transform="translate(-778.1875,260.375)">
    <path
       inkscape:connector-curvature="0"
       d="m 962.08636,-42.13199 c 0,6.29625 -5.15125,11.4475 -11.4475,11.4475 l -160.2675,0 c -6.29625,0 -11.44875,-5.15125 -11.44875,-11.4475 l 0,-206.05875 c 0,-6.29625 5.1525,-11.4475 11.44875,-11.4475 l 160.2675,0 c 6.29625,0 11.4475,5.15125 11.4475,11.4475 l 0,206.05875 z"
       style="fill:#ffffff;fill-opacity:1;fill-rule:nonzero;stroke:#000000;stroke-width:1.5;stroke-miterlimit:4;stroke-opacity:1;stroke-dasharray:none"
       id="path7177" />
    <path
       inkscape:connector-curvature="0"
       d="m 950.63864,-256.7765 -160.2675,0 c -4.7225,0 -8.58625,3.86375 -8.58625,8.58625 l 0,206.05875 c 0,4.72125 3.86375,8.585 8.58625,8.585 l 160.2675,0 c 4.7225,0 8.58625,-3.86375 8.58625,-8.585 l 0,-206.05875 c 0,-4.7225 -3.86375,-8.58625 -8.58625,-8.58625 m 3.81625,214.645 c 0,2.09875 -1.7175,3.815 -3.81625,3.815 l -160.2675,0 c -2.09875,0 -3.81625,-1.71625 -3.81625,-3.815 l 0,-206.05875 c 0,-2.09875 1.7175,-3.81625 3.81625,-3.81625 l 160.2675,0 c 2.09875,0 3.81625,1.7175 3.81625,3.81625 l 0,206.05875 z"
       style="fill:#000000;fill-opacity:1;fill-rule:nonzero;stroke:none"
       id="path7185" />
    <path
       inkscape:connector-curvature="0"
       d="m 850.87237,-187.13625 -16.145,0 0,-45.79125 14.78875,0 c 4.68,0 6.44375,0.4075 8.81875,2.375 4.88375,4.1375 7.53,11.465 7.53,20.41875 0,13.5675 -6.9875,22.9975 -14.9925,22.9975 m -0.74625,-38.5325 -8.14,0 0,31.13875 8.005,0 c 6.58,0 8.5475,-9.295 8.5475,-15.60375 0,-5.29125 -1.08625,-15.535 -8.4125,-15.535"
       style="fill:#000000;fill-opacity:1;fill-rule:nonzero;stroke:none"
       id="path7189" />
    <path
       inkscape:connector-curvature="0"
       d="m 903.64376,-191.47786 c -2.64625,3.46 -6.24125,5.15625 -11.0575,5.15625 -6.445,0 -10.38,-2.57875 -13.16125,-8.20875 -1.89875,-3.8675 -3.25625,-9.9725 -3.25625,-15.4 0,-7.5975 1.9,-14.38125 5.02,-18.655 2.64625,-3.595 6.445,-5.15625 11.73625,-5.15625 12.68625,0 15.73875,13.56875 15.73875,23.81125 0,7.19125 -1.83125,14.3825 -5.02,18.4525 m -10.71875,-34.86875 c -4.07,0 -5.97,1.6275 -7.5975,5.63 -1.085,2.71375 -1.76375,6.92 -1.76375,10.78625 0,4.8175 1.0175,9.76875 2.78125,12.68625 1.425,2.37375 3.32375,3.5275 6.24125,3.5275 3.39125,0 5.495,-1.76375 7.055,-5.76625 0.95,-2.4425 1.76375,-6.92 1.76375,-10.4475 0,-5.29125 -1.15375,-16.41625 -8.48,-16.41625"
       style="fill:#000000;fill-opacity:1;fill-rule:nonzero;stroke:none"
       id="path7193" />
    <path
       inkscape:connector-curvature="0"
       d="m 840.88926,-122.26588 -17.5025,-31.0025 0,31.0025 -7.25875,0 0,-45.79125 7.25875,0 16.68875,29.23875 0,-29.23875 7.19,0 0,45.79125 -6.37625,0 z"
       style="fill:#000000;fill-opacity:1;fill-rule:nonzero;stroke:none"
       id="path7197" />
    <path
       inkscape:connector-curvature="0"
       d="m 886.00087,-126.60762 c -2.64625,3.46 -6.24125,5.15625 -11.0575,5.15625 -6.445,0 -10.38,-2.57875 -13.16125,-8.20875 -1.89875,-3.8675 -3.25625,-9.9725 -3.25625,-15.4 0,-7.5975 1.9,-14.38125 5.02,-18.655 2.64625,-3.595 6.445,-5.15625 11.73625,-5.15625 12.68625,0 15.73875,13.56875 15.73875,23.81125 0,7.19125 -1.83125,14.3825 -5.02,18.4525 m -10.71875,-34.86875 c -4.07,0 -5.97,1.6275 -7.5975,5.63 -1.085,2.71375 -1.76375,6.92 -1.76375,10.78625 0,4.8175 1.0175,9.76875 2.78125,12.68625 1.425,2.37375 3.32375,3.5275 6.24125,3.5275 3.39125,0 5.495,-1.76375 7.055,-5.76625 0.95,-2.4425 1.76375,-6.91875 1.76375,-10.4475 0,-5.29125 -1.15375,-16.41625 -8.48,-16.41625"
       style="fill:#000000;fill-opacity:1;fill-rule:nonzero;stroke:none"
       id="path7201" />
    <path
       inkscape:connector-curvature="0"
       d="m 916.20663,-161.61213 0,39.34625 -7.25875,0 0,-39.34625 -10.4475,0 0,-6.445 28.28875,0 0,6.445 -10.5825,0 z"
       style="fill:#000000;fill-opacity:1;fill-rule:nonzero;stroke:none"
       id="path7205" />
    <path
       inkscape:connector-curvature="0"
       d="m 815.17,-77.34001 -8.955,0 0,19.945 -7.25875,0 0,-45.79125 17.3675,0 c 10.65,0 13.77125,8.615 13.77125,12.82125 0,3.5275 -2.17125,13.025 -14.925,13.025 m 1.4925,-18.5875 -10.4475,0 0,11.19375 10.4475,0 c 3.595,0 6.105,-2.375 6.105,-5.63125 0,-2.71375 -2.1025,-5.5625 -6.105,-5.5625"
       style="fill:#000000;fill-opacity:1;fill-rule:nonzero;stroke:none"
       id="path7209" />
    <path
       inkscape:connector-curvature="0"
       d="m 864.86999,-57.39563 -4.4775,-12.82125 -14.31375,0 -4.4775,12.82125 -7.73375,0 15.73875,-45.79125 7.25875,0 15.73875,45.79125 -7.73375,0 z m -11.5325,-33.105 -4.68125,12.88875 9.15875,0 -4.4775,-12.88875 z"
       style="fill:#000000;fill-opacity:1;fill-rule:nonzero;stroke:none"
       id="path7213" />
    <path
       inkscape:connector-curvature="0"
       d="m 893.83638,-56.58149 c -7.86875,0 -13.635,-4.68125 -16.68875,-11.6 l 6.92,-2.57875 c 1.9,4.3425 5.4275,6.785 9.76875,6.785 4.20625,0 7.055,-2.9175 7.055,-6.785 0,-6.105 -7.055,-7.055 -13.025,-9.42875 -2.71375,-1.15375 -8.81875,-3.8675 -8.81875,-11.3975 0,-9.0225 6.105,-12.41375 14.31375,-12.41375 6.445,0 10.78625,3.73125 13.025,9.36125 l -6.445,1.9 c -0.6775,-2.035 -3.595,-4.0025 -6.85125,-4.0025 -3.46,0 -7.25875,1.085 -6.9875,5.29125 0.67875,8.48 22.18375,2.9175 22.18375,20.89375 0,8.345 -6.24125,13.975 -14.45,13.975"
       style="fill:#000000;fill-opacity:1;fill-rule:nonzero;stroke:none"
       id="path7217" />
    <path
       inkscape:connector-curvature="0"
       d="m 930.46537,-56.58149 c -7.86875,0 -13.635,-4.68125 -16.68875,-11.6 l 6.92,-2.57875 c 1.9,4.3425 5.4275,6.785 9.76875,6.785 4.20625,0 7.055,-2.9175 7.055,-6.785 0,-6.105 -7.055,-7.055 -13.025,-9.42875 -2.71375,-1.15375 -8.81875,-3.8675 -8.81875,-11.3975 0,-9.0225 6.105,-12.41375 14.31375,-12.41375 6.445,0 10.78625,3.73125 13.025,9.36125 l -6.445,1.9 c -0.6775,-2.035 -3.595,-4.0025 -6.85125,-4.0025 -3.46,0 -7.25875,1.085 -6.9875,5.29125 0.67875,8.48 22.18375,2.9175 22.18375,20.89375 0,8.345 -6.24125,13.975 -14.45,13.975"
       style="fill:#000000;fill-opacity:1;fill-rule:nonzero;stroke:none"
       id="path7221" />
  </g>
</svg>
