<?xml version="1.0" encoding="UTF-8" standalone="no"?>
<!-- Generator: Adobe Illustrator 14.0.0, SVG Export Plug-In  -->

<svg
   xmlns:dc="http://purl.org/dc/elements/1.1/"
   xmlns:cc="http://creativecommons.org/ns#"
   xmlns:rdf="http://www.w3.org/1999/02/22-rdf-syntax-ns#"
   xmlns:svg="http://www.w3.org/2000/svg"
   xmlns="http://www.w3.org/2000/svg"
   xmlns:sodipodi="http://sodipodi.sourceforge.net/DTD/sodipodi-0.dtd"
   xmlns:inkscape="http://www.inkscape.org/namespaces/inkscape"
   version="1.1"
   x="0px"
   y="0px"
   width="90"
   height="90"
   viewBox="0 -0.321 89.99999 90.000026"
   enable-background="new 0 -0.321 144 120"
   xml:space="preserve"
   id="svg2"
   inkscape:version="0.48.2 r9819"
   sodipodi:docname="MUTCD W21-1 (temporary).svg"><metadata
   id="metadata44"><rdf:RDF><cc:Work
       rdf:about=""><dc:format>image/svg+xml</dc:format><dc:type
         rdf:resource="http://purl.org/dc/dcmitype/StillImage" /><dc:title></dc:title></cc:Work></rdf:RDF></metadata><sodipodi:namedview
   pagecolor="#ffffff"
   bordercolor="#666666"
   borderopacity="1"
   objecttolerance="10"
   gridtolerance="10"
   guidetolerance="10"
   inkscape:pageopacity="0"
   inkscape:pageshadow="2"
   inkscape:window-width="1280"
   inkscape:window-height="1004"
   id="namedview42"
   showgrid="false"
   fit-margin-top="0"
   fit-margin-left="0"
   fit-margin-right="0"
   fit-margin-bottom="0"
   inkscape:zoom="7.5809376"
   inkscape:cx="37.792579"
   inkscape:cy="33.914836"
   inkscape:window-x="-8"
   inkscape:window-y="-8"
   inkscape:window-maximized="1"
   inkscape:current-layer="svg2" />
<defs
   id="defs4">
</defs>


















<path
   d="M 1.2871665,41.5562 41.878427,0.9661875 c 1.716251,-1.71625 4.526252,-1.71625 6.245002,0 L 88.710941,41.5562 c 1.71875,1.717501 1.71875,4.527501 0,6.246252 L 48.123429,88.389963 c -1.71875,1.718751 -4.528751,1.718751 -6.245002,0 L 1.2871665,47.802452 c -1.71625103,-1.718751 -1.71625103,-4.528751 0,-6.246252"
   style="fill:#f4911d;fill-opacity:1;fill-rule:nonzero;stroke:none"
   id="path6400"
   inkscape:connector-curvature="0" /><path
   d="M 2.2659165,42.2012 42.522177,1.9449375 c 1.362501,-1.3625 3.591251,-1.3625 4.956252,0 L 87.73219,42.2012 c 1.362501,1.362501 1.362501,3.591251 0,4.953752 L 47.478429,87.411213 c -1.365001,1.3625 -3.593751,1.3625 -4.956252,0 L 2.2659165,47.154952 c -1.36250003,-1.362501 -1.36250003,-3.591251 0,-4.953752"
   style="fill:#000000;fill-opacity:1;fill-rule:evenodd;stroke:none"
   id="path6416"
   inkscape:connector-curvature="0" /><path
   d="M 3.5259165,43.441201 43.762178,3.2049385 c 0.681251,-0.68125 1.795,-0.68125 2.476252,0 L 86.47469,43.441201 c 0.68125,0.67875 0.68125,1.795 0,2.47625 L 46.23843,86.153713 c -0.681252,0.68125 -1.795001,0.68125 -2.476252,0 L 3.5259165,45.917451 c -0.68125,-0.68125 -0.68125,-1.7975 0,-2.47625"
   style="fill:#f4911d;fill-opacity:1;fill-rule:evenodd;stroke:none"
   id="path6420"
   inkscape:connector-curvature="0" /><path
   d="m 70.559685,44.634826 0,-13.241254 -2.09,0 0,5.343752 -4.831251,0 0,-5.343752 -2.090001,0 0,13.241254 2.090001,0 0,-5.761252 4.831251,0 0,5.761252 2.09,0 z M 59.365932,40.824825 c 0,-5.203752 -6.226252,-3.577501 -6.411252,-6.038752 -0.0925,-1.2075 1.066251,-1.57875 2.043751,-1.5325 1.48625,0.04625 1.950001,1.16 1.950001,1.16 l 1.85875,-0.5575 c -0.65,-1.625001 -1.905,-2.695001 -3.762501,-2.695001 -2.368751,0 -4.136251,0.97625 -4.136251,3.578751 0,2.182501 1.7675,2.971251 2.556251,3.298751 1.71875,0.69625 3.762501,0.97375 3.762501,2.738751 0,1.11625 -0.835001,1.95125 -2.043751,1.95125 -1.255,0 -2.275001,-0.69625 -2.833751,-1.95125 l -1.9975,0.745 c 0.88375,1.997501 2.55625,3.352501 4.831251,3.352501 1.11625,0 2.136251,-0.37875 2.881251,-1.03 0.835,-0.742501 1.30125,-1.812501 1.30125,-3.020001 m -10.268753,3.810001 0,-2.138751 -6.130001,0 0,-3.622501 3.855001,0 0,-2.13625 -3.855001,0 0,-3.252501 5.712501,0 0,-2.091251 -7.805002,0 0,13.241254 8.222502,0 z M 36.323426,35.111073 c 0,0.5575 -0.32625,1.113751 -0.837501,1.393751 -0.32375,0.18625 -0.55625,0.2325 -1.2075,0.2325 l -2.507501,0 0,-3.252501 2.507501,0 c 0.6975,0 0.88375,0.0475 1.2075,0.2325 0.511251,0.27875 0.837501,0.835 0.837501,1.39375 m 2.36875,9.523753 -2.3225,-6.178752 c 1.20625,-0.55875 2.04375,-1.95125 2.04375,-3.345001 0,-1.3475 -0.8375,-2.741251 -1.9975,-3.297501 -0.651251,-0.325 -1.3475,-0.42 -2.370001,-0.42 l -4.365001,0 0,13.241254 2.090001,0 0,-5.761252 2.507501,0 2.137501,5.761252 2.27625,0 z m -10.965003,-11.150003 0,-2.091251 -8.222502,0 0,13.241254 2.0925,0 0,-5.761252 3.855002,0 0,-2.13625 -3.855002,0 0,-3.252501 6.130002,0 z"
   style="fill:#000000;fill-opacity:1;fill-rule:evenodd;stroke:none"
   id="path6424"
   inkscape:connector-curvature="0" /><path
   d="m 57.885932,66.759832 0,-1.95375 -6.130002,0 0,-11.286254 -2.092501,0 0,13.240004 8.222503,0 z m -11.335003,-13.240004 -2.136251,0 0,13.240004 2.136251,0 0,-13.240004 z m -7.107502,6.642502 c 0,1.021251 -0.231251,2.3225 -0.510001,3.020001 -0.46375,1.16 -1.06875,1.670001 -2.04375,1.670001 -0.8375,0 -1.393751,-0.325 -1.811251,-1.020001 -0.5125,-0.8375 -0.79125,-2.2775 -0.79125,-3.670001 0,-1.115 0.18625,-2.32375 0.51125,-3.112501 0.46625,-1.1625 1.115001,-1.6725 2.137501,-1.62625 0.78875,0.04625 1.30125,0.324999 1.71875,1.021249 0.51125,0.883752 0.788751,2.231251 0.788751,3.717501 m 2.0925,0 c 0,-1.6725 -0.3275,-3.345 -0.88375,-4.506251 -0.8375,-1.62625 -1.997501,-2.371251 -3.668751,-2.371251 -1.533751,0 -2.602501,0.466251 -3.391251,1.487501 -0.88375,1.255001 -1.441251,3.205002 -1.441251,5.390001 0,1.580002 0.371251,3.345002 0.928751,4.458753 0.79,1.625 1.9525,2.377499 3.810001,2.377499 1.395,0 2.461251,-0.473749 3.206251,-1.493749 0.9275,-1.162501 1.44,-3.252501 1.44,-5.342502"
   style="fill:#000000;fill-opacity:1;fill-rule:evenodd;stroke:none"
   id="path6428"
   inkscape:connector-curvature="0" /></svg>