<svg version="1.1" viewBox="0.95 0.95 24.1 24.1" xmlns="http://www.w3.org/2000/svg">
 <g stroke="#000">
  <rect x="1" y="1" width="24" height="24" ry="1.5" fill="#fff" stroke-width=".1"/>
  <rect x="1.6875" y="1.6875" width="22.625" height="22.625" ry=".8125" fill="none" stroke-width=".625"/>
 </g>
 <path transform="matrix(-.02051478694 0 0 .02051478694 20.92657904 18.5188267)" d="m147.167969-201.992188h-77.628907v-280.367187l421.296876-0.742187v48.953124h67.496093c27.429688 0 44.605469 0 55.972657 37.929688l18.941406 74.070312h43.761718c21.507813 0 21.507813 0 21.507813 20.769532v99.386718h22.992187v22.996094h-82.371093c-4.1875 31.273438-24.183594 52.660156-55.707031 52.660156-31.273438 0-52.515626-21.878906-59.542969-52.660156h-33.050781v-22.996094h-219.546876c0.496094 2.957032 0.742188 9.410157 0.742188 12.609376 0 34.726562-28.324219 63.046874-63.046875 63.046874-34.726563 0-63.046875-28.320312-63.046875-63.046874 0-3.9375 0.492188-8.914063 1.230469-12.609376z"/>
 <path d="m22.5 13a9.5 9.5 0 0 1-19 0 9.5 9.5 0 0 1 19 0zm-16-6.5 13 13" fill="none" stroke="#a6192e" stroke-width="2"/>
</svg>
