<?xml version="1.0" encoding="UTF-8" standalone="no"?>
<!-- Created with Inkscape (http://www.inkscape.org/) -->

<svg
   xmlns:dc="http://purl.org/dc/elements/1.1/"
   xmlns:cc="http://creativecommons.org/ns#"
   xmlns:rdf="http://www.w3.org/1999/02/22-rdf-syntax-ns#"
   xmlns:svg="http://www.w3.org/2000/svg"
   xmlns="http://www.w3.org/2000/svg"
   xmlns:sodipodi="http://sodipodi.sourceforge.net/DTD/sodipodi-0.dtd"
   xmlns:inkscape="http://www.inkscape.org/namespaces/inkscape"
   width="2710"
   height="2710"
   id="svg2"
   sodipodi:version="0.32"
   inkscape:version="0.48.2 r9819"
   version="1.0"
   sodipodi:docname="AJAX1.svg">
  <defs
     id="defs4">
    <clipPath
       id="Clip0">
      <path
         inkscape:connector-curvature="0"
         d="m 0,0 0,3024.5 2160.5,0 L 2160.5,0 0,0 z"
         transform="translate(0,0.5)"
         id="path7" />
    </clipPath>
    <clipPath
       id="Clip0-1">
      <path
         inkscape:connector-curvature="0"
         d="m 0,0 0,3024.5 2592.5,0 L 2592.5,0 0,0 z"
         transform="translate(0,0.5)"
         id="path7-7" />
    </clipPath>
    <clipPath
       id="Clip0-4">
      <path
         inkscape:connector-curvature="0"
         d="m 0,0 0,1728.5 4320.5,0 L 4320.5,0 0,0 z"
         transform="translate(0,0.5)"
         id="path7-0" />
    </clipPath>
  </defs>
  <sodipodi:namedview
     id="base"
     pagecolor="#ffffff"
     bordercolor="#666666"
     borderopacity="1.0"
     gridtolerance="10000"
     guidetolerance="10"
     objecttolerance="10"
     inkscape:pageopacity="0.0"
     inkscape:pageshadow="2"
     inkscape:zoom="0.17436557"
     inkscape:cx="935.9184"
     inkscape:cy="1636.1622"
     inkscape:document-units="px"
     inkscape:current-layer="layer1"
     width="601px"
     height="601px"
     inkscape:window-width="1280"
     inkscape:window-height="1004"
     inkscape:window-x="-8"
     inkscape:window-y="-8"
     showgrid="false"
     fit-margin-top="0"
     fit-margin-left="0"
     fit-margin-right="0"
     fit-margin-bottom="0"
     inkscape:window-maximized="1"
     showguides="true"
     inkscape:guide-bbox="true" />
  <metadata
     id="metadata7">
    <rdf:RDF>
      <cc:Work
         rdf:about="">
        <dc:format>image/svg+xml</dc:format>
        <dc:type
           rdf:resource="http://purl.org/dc/dcmitype/StillImage" />
        <dc:title />
      </cc:Work>
    </rdf:RDF>
  </metadata>
  <g
     inkscape:label="Layer 1"
     inkscape:groupmode="layer"
     id="layer1"
     transform="translate(2180.4063,1496.4688)">
    <path
       inkscape:connector-curvature="0"
       style="fill:#ffffff;fill-rule:nonzero;stroke:none"
       d="m -2175.415,1039.775 c 0,93.2 75.5512,168.75 168.75,168.75 l 2362.5,0 c 93.2,0 168.75,-75.55 168.75,-168.75 l 0,-2362.4876 c 0,-93.1987 -75.55,-168.75 -168.75,-168.75 l -2362.5,0 c -93.1988,0 -168.75,75.5513 -168.75,168.75 l 0,2362.4876 z"
       id="path11" />
    <path
       inkscape:connector-curvature="0"
       style="fill:#ffd033;fill-rule:nonzero;stroke:none"
       d="m -2006.665,-1491.4626 2362.5,0 c 93.2,0 168.75,75.5513 168.75,168.75 l 0,1023.7439 -2700,0 0,-1023.7439 c 0,-93.1987 75.5512,-168.75 168.75,-168.75 z"
       id="path13" />
    <path
       inkscape:connector-curvature="0"
       style="fill:#000000;fill-rule:nonzero;stroke:none"
       d="m 448.635,-265.2187 -2554,0 0,-56.25 2554,0 0,56.25 z"
       id="path41" />
    <path
       inkscape:connector-curvature="0"
       style="fill:#000000;fill-rule:nonzero;stroke:none"
       d="m -2085.415,-1322.7126 c 0,-43.4225 35.3262,-78.75 78.75,-78.75 l 2362.5,0 c 43.425,0 78.75,35.3275 78.75,78.75 l 0,2362.4876 c 0,43.425 -35.325,78.75 -78.75,78.75 l -2362.5,0 c -43.4238,0 -78.75,-35.325 -78.75,-78.75 l 0,-2362.4876 z m -56.25,0 0,2362.4876 c 0,74.45 60.56,135 135,135 l 2362.5,0 c 74.4375,0 135,-60.55 135,-135 l 0,-2362.4876 c 0,-74.4387 -60.5625,-135 -135,-135 l -2362.5,0 c -74.44,0 -135,60.5613 -135,135 z"
       id="path73" />
    <path
       inkscape:connector-curvature="0"
       style="fill:#000000;fill-rule:evenodd;stroke:none"
       d="m -67.16245,-96.4687 c 43.5375,0 79.025,35.4875 79.025,79.0375 0,43.5125 -35.4875,79.025 -79.025,79.025 -43.5125,0 -79.025,-35.5125 -79.025,-79.025 0,-43.55 35.5125,-79.0375 79.025,-79.0375 z"
       id="path29" />
    <path
       inkscape:connector-curvature="0"
       style="fill:#000000;fill-rule:evenodd;stroke:none"
       d="m -306.42495,401.8313 165.7625,-110.5 c 7.6625,-32.4125 39.475,-176.1875 103.2125,-209.4875 63.175,-41.75 296.0375,129.8125 297.375,131.2125 l 0,250.225 -50.5126,-8.7625 -19.75,-199.75 c -19.025,-3.85 -38.0374,-7.65 -57.0625,-11.5 41.5876,107.5 56.8251,211.0625 32.9251,279.3 l 100.975,412.6875 -68.0625,48.275 -147.05,-381.9125 -68.05,72.3875 -94.4,287.575 -90.0125,-32.9125 81.2375,-302.9375 94.4,-169.0125 -36.2,-124.75 -38.45,50.1 -179.9875,59.2875 -26.35,-39.525 z"
       id="path31" />
    <path
       inkscape:connector-curvature="0"
       style="fill:#000000;fill-rule:nonzero;stroke:none"
       d="m 130.66245,-1107.6376 c -4,-2.6275 -8.7749,-4.1612 -13.9124,-4.1612 -13.9875,0 -25.3376,11.3437 -25.3376,25.335 0,2.9512 0.5126,5.7825 1.4375,8.415 l 22.3001,64.71 -304.9375,0 c -15.5375,0 -28.125,12.5925 -28.125,28.12505 l 0,376.87625 123.75,0 0,-264.37495 c 0,-9.3201 7.55,-16.875 16.875,-16.875 l 192.4375,0 -22.3001,64.7087 c -0.9249,2.635 -1.4375,5.465 -1.4375,8.4163 0,13.9912 11.35,25.3337 25.3376,25.3337 5.1375,0 9.9124,-1.5325 13.9124,-4.16 l 236.4251,-156.1737 -236.4251,-156.17515 z"
       id="path35" />
    <path
       inkscape:connector-curvature="0"
       style="fill:#000000;fill-rule:nonzero;stroke:none"
       d="m -579.04995,379.8063 c -8.5501,-14.2125 -19,-19.9 -35.15,-20.85 -20.8876,-0.9375 -34.1875,9.475 -43.675,33.1625 -6.6501,16.1 -10.45,40.7375 -10.45,63.475 0,28.425 5.7,57.7875 16.1375,74.8375 8.55,14.2125 19.95,20.85 37.0374,20.85 19.9501,0 32.3,-10.425 41.7876,-34.1125 5.6999,-14.2125 10.4499,-40.7375 10.4499,-61.575 0,-30.3125 -5.6999,-57.7875 -16.1374,-75.7875 z m 29.4375,184.7375 c -15.2,20.8375 -37.0376,30.3125 -65.5376,30.3125 -37.9749,0 -61.7249,-15.1625 -77.8624,-48.3125 -11.4001,-22.7375 -19,-58.7375 -19,-90.95 0,-44.525 11.4,-84.3125 29.4375,-109.9 16.15,-20.8375 37.9874,-30.3125 69.325,-30.3125 34.2,0 57.9375,15.1625 75.0249,48.3125 11.4001,23.6875 18.0501,57.8 18.0501,91.9 0,42.625 -10.45,85.2625 -29.4375,108.95 z"
       id="path37" />
    <path
       inkscape:connector-curvature="0"
       style="fill:#000000;fill-rule:nonzero;stroke:none"
       d="m -809.91255,357.6813 0,232.1 -42.8125,0 0,-232.1 -61.8499,0 0,-37.9 167.4625,0 0,37.9 -62.8001,0 z"
       id="path39" />
    <path
       inkscape:connector-curvature="0"
       style="fill:#000000;fill-rule:nonzero;stroke:none"
       d="m -1075.6001,-962.71005 -103.2712,-182.84375 0,182.84375 -42.6338,0 0,-270.00125 42.6338,0 98.5337,172.4212 0,-172.4212 42.6376,0 0,270.00125 -37.9001,0 z"
       id="path43" />
    <path
       inkscape:connector-curvature="0"
       style="fill:#000000;fill-rule:nonzero;stroke:none"
       d="m -718.99995,-962.71005 -103.2625,-182.84375 0,182.84375 -42.6376,0 0,-270.00125 42.6376,0 98.5249,172.4212 0,-172.4212 42.6375,0 0,270.00125 -37.8999,0 z"
       id="path45" />
    <path
       inkscape:connector-curvature="0"
       style="fill:#000000;fill-rule:nonzero;stroke:none"
       d="m -972.90005,-962.71005 0,-270.00125 43.2001,0 0,270.00125 -43.2001,0 z"
       id="path47" />
    <path
       inkscape:connector-curvature="0"
       style="fill:#000000;fill-rule:nonzero;stroke:none"
       d="m -1528.3238,-1003.4476 c -14.2125,26.52635 -46.4238,45.47385 -79.585,45.47385 -33.16,0 -65.3737,-18.9475 -79.585,-45.47385 -7.5787,-16.105 -12.3175,-35.0525 -12.3175,-55.895 l 0,-173.3675 42.635,0 0,173.3675 c 0,35.0538 19.8975,57.7913 49.2675,57.7913 29.37,0 49.2675,-22.7375 49.2675,-57.7913 l 0,-173.3675 42.6337,0 0,173.3675 c 0,20.8425 -4.7362,39.79 -12.3162,55.895 z"
       id="path49" />
    <path
       inkscape:connector-curvature="0"
       style="fill:#000000;fill-rule:nonzero;stroke:none"
       d="m -1803.1113,-1194.8175 0,232.10505 -42.815,0 0,-232.10505 -61.8512,0 0,-37.895 167.4688,0 0,37.895 -62.8025,0 z"
       id="path51" />
    <path
       inkscape:connector-curvature="0"
       style="fill:#000000;fill-rule:nonzero;stroke:none"
       d="m -1332.7801,-1185.3426 c -6.6312,-3.79 -10.4212,-4.7375 -24.6337,-4.7375 l -51.16,0 0,66.3163 51.16,0 c 13.2662,0 18.0025,-0.9475 24.6337,-4.735 10.4238,-5.6863 17.0563,-17.055 17.0563,-28.4213 0,-11.37 -6.6325,-22.7387 -17.0563,-28.4225 z m 18.9488,222.63135 -43.5825,-117.47635 -51.16,0 0,117.47635 -42.6338,0 0,-270.00005 89.0575,0 c 20.8451,0 35.0563,1.8937 48.3188,8.5262 23.6862,11.37 40.7413,39.7888 40.7413,67.265 0,28.4213 -17.055,56.84 -41.6863,68.21 l 47.3725,125.99885 -46.4275,0 z"
       id="path53" />
    <path
       inkscape:connector-curvature="0"
       style="fill:#000000;fill-rule:nonzero;stroke:none"
       d="m -523.16255,-957.97375 c -40.7375,0 -64.425,-15.1588 -80.5374,-49.26385 -11.3625,-23.6837 -18,-56.8425 -18,-90 0,-43.58 12.3125,-86.2112 30.325,-109.895 16.0999,-19.895 38.8374,-30.315 69.1624,-30.315 41.6875,0 66.3125,17.0525 84.3125,59.685 l -40.7374,16.1038 c -11.3625,-23.685 -22.7375,-32.2113 -43.5751,-32.2113 -21.7999,0 -36.0125,9.4738 -45.4874,33.1588 -6.625,16.105 -10.4125,40.7362 -10.4125,63.4737 0,28.4213 4.7375,56.8425 13.2624,73.895 8.5251,15.1575 20.8376,21.7914 36.95,21.7914 27.4751,0 47.375,-17.0551 47.375,-41.6864 l 0,-11.3687 -49.2749,0 0,-42.6313 91.8999,0 0,54 c 0,49.26385 -36,85.26385 -85.2625,85.26385 z"
       id="path55" />
    <path
       inkscape:connector-curvature="0"
       style="fill:#000000;fill-rule:nonzero;stroke:none"
       d="m -1281.4451,-490.20625 0,-270.005 43.1975,0 0,270.005 -43.1975,0 z"
       id="path57" />
    <path
       inkscape:connector-curvature="0"
       style="fill:#000000;fill-rule:nonzero;stroke:none"
       d="m -959.40005,-490.2062 0,-270.00625 42.5751,0 0,230.2125 124.8875,0 0,39.79375 -167.4626,0 z"
       id="path59" />
    <path
       inkscape:connector-curvature="0"
       style="fill:#000000;fill-rule:nonzero;stroke:none"
       d="m -413.18745,-506.64375 c -15.1626,13.2625 -36.0125,20.8375 -58.75,20.8375 -46.4251,0 -80.5251,-27.4725 -98.5251,-68.20875 l 40.7375,-15.15875 c 11.3625,25.57875 32.2126,39.78875 57.7876,39.78875 24.6374,0 41.6875,-17.0525 41.6875,-39.78875 0,-35.99875 -41.6875,-41.6825 -76.7376,-55.895 -16.1125,-6.63125 -52.1125,-22.73375 -52.1125,-67.26125 0,-53.05495 36,-72.95005 84.325,-72.95005 37.9001,0 63.475,21.79 76.7375,54.9488 l -37.8875,11.36625 c 0,0 -9.475,-22.735 -39.8,-23.68 -19.8999,-0.95 -43.5874,6.62875 -41.6875,31.26125 3.7876,50.21 130.75,17.0525 130.75,123.15625 0,24.6325 -9.4749,46.42125 -26.5249,61.58375 z"
       id="path61" />
    <path
       inkscape:connector-curvature="0"
       style="fill:#000000;fill-rule:nonzero;stroke:none"
       d="m -1840.1813,-490.20625 -33.2725,0 -85.555,-270.005 44.68,0 57.9875,179.99875 57.0364,-179.99875 45.6299,0 -86.5062,270.005 z"
       id="path63" />
    <path
       inkscape:connector-curvature="0"
       style="fill:#000000;fill-rule:nonzero;stroke:none"
       d="m -1375.9188,-490.20625 0,-117.48 -98.535,0 0,117.48 -42.6338,0 0,-270.005 42.6338,0 0,108.94625 98.535,0 0,-108.94625 42.635,0 0,270.005 -42.635,0 z"
       id="path65" />
    <path
       inkscape:connector-curvature="0"
       style="fill:#000000;fill-rule:nonzero;stroke:none"
       d="m -1721.275,-490.20625 0,-270.005 158.9525,0 0,42.63125 -116.3763,0 0,66.31625 78.5325,0 0,43.57875 -78.5325,0 0,73.89625 124.8925,0 0,43.5825 -167.4688,0 z"
       id="path67" />
    <path
       inkscape:connector-curvature="0"
       style="fill:#000000;fill-rule:nonzero;stroke:none"
       d="m -759.53745,-490.20625 0,-270.005 158.95,0 0,42.63125 -116.375,0 0,66.31625 78.5375,0 0,43.57875 -78.5375,0 0,73.89625 124.9,0 0,43.5825 -167.475,0 z"
       id="path69" />
    <path
       inkscape:connector-curvature="0"
       style="fill:#000000;fill-rule:nonzero;stroke:none"
       d="m -1088.4038,-485.46875 c -39.7925,0 -65.3738,-15.1625 -82.4263,-48.32 -12.3175,-23.685 -19.895,-57.79125 -19.895,-91.89625 0,-42.63125 11.3663,-85.26375 30.3176,-108.9475 16.105,-19.89375 38.845,-30.31505 69.1624,-30.31505 40.745,0 66.32,17.0526 84.32,54.94755 l -39.7875,17.0525 c -15.1624,-22.7375 -23.6875,-28.42125 -44.5325,-28.42125 -21.7925,0 -36.0037,9.47375 -45.4762,33.1575 -6.6338,16.105 -10.4225,39.79 -10.4225,62.52625 0,29.36875 6.6312,58.7375 17.0551,75.79 9.4737,14.21 21.7899,20.84375 40.7374,20.84375 18.0012,0 31.2637,-9.475 41.6887,-31.26375 l 40.7375,15.1575 c -16.0999,39.78875 -42.6375,59.68875 -81.4787,59.68875 z"
       id="path71" />
    <path
       inkscape:connector-curvature="0"
       style="fill:#af1e2d;fill-opacity:1;fill-rule:evenodd;stroke:none"
       d="m -1457.72,843.8688 c -3.2512,5.025 -6.73,8.25 -12.0562,11.3125 -9.4438,5.45 -21.7075,5.9125 -31.8463,2.2 -7.0575,-2.575 -13.2612,-7.425 -17.01,-13.925 l -426.8912,-738.90005 c -4.4088,-7.625 -5.8825,-16.3375 -4.2325,-25.0125 3.1912,-16.675 19.0562,-29.325 35.92,-29.35 l 850.1362,-0.4125 c 17.5125,0 32.575,12.2 35.8875,29.45 1.65,8.525 0.5625,16.6375 -3.775,24.1375 L -1457.72,843.8688 z"
       id="path15" />
    <path
       inkscape:connector-curvature="0"
       style="fill:#ffffff;fill-rule:evenodd;stroke:none"
       d="m -1285.5575,251.60625 c 1.8863,-3.3375 3.4375,-6.8 4.5875,-10.4625 3.2163,-10.275 1.1425,-20.325 -4.9462,-29.225 -6.7238,-9.8125 -18.1388,-15.8125 -30.0388,-15.8125 l -344.0325,0.2375 c -16.8125,0 -32.5525,11.9625 -35.78,28.7 -1.6787,8.6875 -0.6725,17.2625 3.7525,25 l 171.7863,298.1 c 6.795,11.7875 17.84,19.175 31.6987,19.1 11.1625,-0.013 23.7825,-5.5125 29.535,-15.5 l 173.4375,-300.1375 z"
       id="path17" />
    <path
       inkscape:connector-curvature="0"
       style="fill:#af1e2d;fill-opacity:1;fill-rule:evenodd;stroke:none"
       d="m -1595.4088,262.24375 -14.0638,-31.375 -13.6187,0 21.4138,48.0125 0,40.575 12.5262,0 0,-40.575 21.4475,-48.0125 -13.6412,0 -14.0638,31.375 z"
       id="path19" />
    <path
       inkscape:connector-curvature="0"
       style="fill:#af1e2d;fill-opacity:1;fill-rule:evenodd;stroke:none"
       d="m -1509.2125,277.93125 18.7651,0 0,-12.4125 -18.7651,0 0,-22.15 30.465,0 0,-12.5 -42.8725,0 0,88.5875 44.2888,0 0,-12.375 -31.8813,0 0,-29.15 z"
       id="path21" />
    <path
       inkscape:connector-curvature="0"
       style="fill:#af1e2d;fill-opacity:1;fill-rule:evenodd;stroke:none"
       d="m -1449.9138,230.86875 -12.4075,0 0,88.5875 44.305,0 0,-11.75 -31.8975,0 0,-76.8375 z"
       id="path23" />
    <path
       inkscape:connector-curvature="0"
       style="fill:#af1e2d;fill-opacity:1;fill-rule:evenodd;stroke:none"
       d="m -1369.4587,297.21875 c -1.4375,5.7375 -6.4375,9.8625 -12.4314,9.8625 l -8.7361,0 0,-63.7125 9.0625,0 c 5.4337,0 10.4263,3.65 11.9,8.9125 2.0712,7.3 2.5437,15.375 2.5675,22.8875 0.029,7.375 -0.5212,14.9125 -2.3625,22.05 z m 13.2087,-41.825 c -1.2675,-7.35 -3.7887,-14.3375 -9.8337,-19.125 -4.3689,-3.4375 -9.9062,-5.4 -15.48,-5.4 l -21.47,0 0,88.5875 21.47,0 c 6.0475,-0.35 10.7424,-1.5875 15.6487,-5.4875 8.1863,-6.5 9.665,-16.425 10.73,-26.125 1.1813,-10.775 0.8001,-21.7625 -1.065,-32.45 z"
       id="path25" />
    <path
       inkscape:connector-curvature="0"
       style="fill:#af1e2d;fill-opacity:1;fill-rule:evenodd;stroke:none"
       d="m -1552.7287,319.45625 12.385,0 0,-88.5875 -12.385,0 0,88.5875 z"
       id="path27" />
    <path
       id="path4108"
       d="m -2175.415,1039.775 c 0,93.2 75.5512,168.75 168.75,168.75 l 2362.5,0 c 93.2,0 168.75,-75.55 168.75,-168.75 l 0,-2362.4876 c 0,-93.1987 -75.55,-168.75 -168.75,-168.75 l -2362.5,0 c -93.1988,0 -168.75,75.5513 -168.75,168.75 l 0,2362.4876 z"
       style="fill:none;stroke:#000000;stroke-width:10;stroke-miterlimit:4;stroke-opacity:1;stroke-dasharray:none"
       inkscape:connector-curvature="0" />
  </g>
</svg>
