<svg version="1.1" viewBox="0.95 0.95 36.1 24.1" xmlns="http://www.w3.org/2000/svg">
 <rect x="1" y="1" width="36" height="24" ry="1.5" fill="#fff" stroke="#000" stroke-width=".1"/>
 <rect x="1.75" y="1.75" width="34.5" height="22.5" ry=".75" fill="#a6192e"/>
 <path transform="matrix(.006 0 0 -.006 21.759 20.5)" d="m884 1e3 -346-565v-435h-159v435l-349 565h188l240-387 241 387zm-903.3333333-1e3h-168l-99 281h-312l-98-281h-169l344 1e3h158zm-322 442-99 281-101-281zm-573.3333333 558-147-1e3h-141l-159 642-154-642h-141l-147 1e3h163l77-527 125 527h156l128-527 77 527zm2673.666667 798q0-135-89.5-225t-227.5-90q-113 0-183 43t-115 138q-67 137-66 334 0 120 30.5 230t82.5 176q92 113 255 113 116 0 190-51t123-170l-150-59q-33 65-69 92t-94 27q-120 0-168-123-38-94-38-235 0-175 48-274 45-81 137-80 75 0 125 43t50 111v43h-182v157h341zm-915.6666667-298h-141l-382 677v-677h-157v1e3h157l365-639v639h158zm-914.6666667 498q0-122-28.5-231t-79.5-173q-82-111-243-111-104 0-174 43t-114 135q-70 137-70 337 0 252 109 406 87 113 255 113 185 0 278-179 67-138 67-340zm-158 0q0 180-60 281-41 72-130 77-111 5-161-123-38-94-38-235 0-183 59-277 45-77 137-77 104 0 154 127 39 100 39 227zm-715.6666667-498h-171l-163 435h-189v-435h-157v1e3h329q113 0 180-32 65-33 107.5-103t42.5-146q0-79-42.5-150t-111.5-103zm-180 719q0 72-62 105-33 19-92 19h-189v-247h189q62 0 92 17 62 32 62 106zm-664.6666667 281-147-1e3h-141l-159 642-154-642h-141l-147 1e3h163l77-527 125 527h156l128-527 77 527z" fill="#fff"/>
</svg>
