<?xml version="1.0" encoding="UTF-8" standalone="no"?>
<svg
   width="74.429893"
   height="74.431252"
   viewBox="0 0 210.05775 210.06152"
   version="1.1"
   id="svg2"
   inkscape:version="1.2.1 (9c6d41e410, 2022-07-14)"
   sodipodi:docname="MUTCD_W8-7.svg"
   xmlns:inkscape="http://www.inkscape.org/namespaces/inkscape"
   xmlns:sodipodi="http://sodipodi.sourceforge.net/DTD/sodipodi-0.dtd"
   xmlns="http://www.w3.org/2000/svg"
   xmlns:svg="http://www.w3.org/2000/svg"
   xmlns:rdf="http://www.w3.org/1999/02/22-rdf-syntax-ns#"
   xmlns:cc="http://creativecommons.org/ns#"
   xmlns:dc="http://purl.org/dc/elements/1.1/">
  <metadata
     id="metadata62">
    <rdf:RDF>
      <cc:Work
         rdf:about="">
        <dc:format>image/svg+xml</dc:format>
        <dc:type
           rdf:resource="http://purl.org/dc/dcmitype/StillImage" />
        <dc:title />
      </cc:Work>
    </rdf:RDF>
  </metadata>
  <defs
     id="defs60" />
  <sodipodi:namedview
     pagecolor="#ffffff"
     bordercolor="#666666"
     borderopacity="1"
     objecttolerance="10"
     gridtolerance="10"
     guidetolerance="10"
     inkscape:pageopacity="0"
     inkscape:pageshadow="2"
     inkscape:window-width="2048"
     inkscape:window-height="1089"
     id="namedview58"
     showgrid="false"
     fit-margin-top="0"
     fit-margin-left="0"
     fit-margin-right="0"
     fit-margin-bottom="0"
     inkscape:zoom="8.0000001"
     inkscape:cx="41.249999"
     inkscape:cy="28.5"
     inkscape:window-x="-8"
     inkscape:window-y="-8"
     inkscape:window-maximized="1"
     inkscape:current-layer="svg2"
     inkscape:showpageshadow="2"
     inkscape:pagecheckerboard="0"
     inkscape:deskcolor="#d1d1d1" />
  <!-- draw the bicycle -->
  <!-- RIGHT -->
  <!-- LANE -->
  <!-- ONLY -->
  <path
     d="M 206.65025,96.805734 113.26995,3.43602 C 111.11095,1.262908 108.10881,-3.6983694e-5 105.03611,-3.6983694e-5 101.97047,-3.6983694e-5 98.97892,1.262908 96.79522,3.43602 L 3.4113897,96.805734 C 1.2418097,98.978844 -0.00702031,101.95982 2.9689291e-5,105.04663 0.02122969,108.11227 1.2488597,111.11088 3.4113897,113.28046 L 96.79522,206.64665 c 2.16253,2.16253 5.19289,3.41136 8.24795,3.41489 3.05153,-0.003 6.07483,-1.25236 8.23383,-3.41489 l 93.37325,-93.36266 c 2.79752,-2.79753 3.98991,-7.0097 3.13619,-10.86203 -0.50094,-2.21897 -1.72861,-3.866446 -3.13619,-5.616226"
     style="fill:#ffd033;fill-opacity:1;fill-rule:nonzero;stroke:none"
     id="path6132"
     inkscape:connector-curvature="0" />
  <path
     d="m 204.34308,110.97329 -93.36972,93.36619 c -1.56986,1.56281 -3.71828,2.45534 -5.93019,2.45534 -2.21192,0 -4.35681,-0.89253 -5.92667,-2.45534 L 5.7079797,110.96977 c -1.55223,-1.55223 -2.43417,-3.72886 -2.43417,-5.92667 0.007,-2.19781 0.889,-4.37797 2.43769,-5.930196 L 99.10944,5.718492 c 1.56281,-1.545167 3.73592,-2.430639 5.92667,-2.430639 2.19781,0 4.3815,0.885472 5.93725,2.430639 l 93.36972,93.397942 c 1.56633,1.569856 2.45181,3.714746 2.45181,5.926666 0,2.21544 -0.88548,4.36033 -2.45181,5.93019"
     style="fill:#000000;fill-opacity:1;fill-rule:evenodd;stroke:none"
     id="path6140"
     inkscape:connector-curvature="0" />
  <path
     d="m 201.12575,107.74891 c 0.70908,-0.70203 1.12183,-1.71451 1.12183,-2.70581 0,-0.98072 -0.41275,-2.02142 -1.12183,-2.71992 L 107.74192,8.94641 c -0.69497,-0.6985 -1.7145,-1.111251 -2.69875,-1.111251 -0.98778,0 -2.02142,0.412751 -2.72345,1.111251 L 8.9323697,102.32318 c -0.70556,0.70909 -1.09714,1.71803 -1.09714,2.71639 0.007,0.99836 0.39158,1.9932 1.10419,2.70581 l 93.3803003,93.39088 c 0.70203,0.6985 1.74272,1.11125 2.72345,1.11125 0.9913,0 2.00378,-0.41275 2.7058,-1.11125 l 93.37678,-93.38735 z"
     style="fill:#ffd033;fill-opacity:1;fill-rule:evenodd;stroke:none"
     id="path6144"
     inkscape:connector-curvature="0" />
  <path
     style="fill:#f4911d;fill-opacity:1;stroke-width:0.125"
     d="M 36.625,71.386973 C 36.028461,71.009814 2.970417,37.843495 2.8778463,37.529287 2.8319548,37.373521 2.8545539,37.063828 2.9280664,36.841083 3.0228755,36.55381 7.9401257,31.558595 19.845377,19.655546 L 36.629028,2.875 h 0.559968 0.559967 l 16.906769,16.906767 16.906767,16.906769 v 0.55996 0.55996 L 54.843749,54.541878 C 45.003961,64.390302 37.9595,71.347242 37.722765,71.450149 37.198625,71.67799 37.073943,71.670815 36.625,71.386973 Z"
     id="path15612"
     transform="scale(2.8222225)" />
  <path
     style="fill:#f4911d;fill-opacity:1;stroke-width:0.125"
     d="M 36.125,74.208167 C 35.85,74.116784 35.428125,73.942525 35.1875,73.820924 34.946875,73.699323 27.116225,65.969557 17.786056,56.643666 -1.2236238,37.642701 0.13102776,39.130417 0.12700539,37.25 0.12301816,35.38601 -1.3656287,37.022217 17.662512,17.976297 29.35288,6.2750072 34.914851,0.79099204 35.310521,0.57564137 36.405018,-0.0200589 37.853497,-0.04649584 39.033562,0.50769022 39.498957,0.7262511 43.176759,4.3313019 56.291221,17.423971 65.457643,26.575162 73.197938,34.4 73.491877,34.8125 c 0.29394,0.4125 0.598827,0.941206 0.677528,1.174902 0.229114,0.680333 0.1743,1.917668 -0.120791,2.726659 -0.253284,0.694376 -0.949565,1.40972 -17.331895,17.806402 -14.285996,14.298512 -17.178281,17.136959 -17.744542,17.414229 -0.81751,0.400296 -2.09599,0.523096 -2.847177,0.273475 z m 2.486883,-1.22664 C 38.956622,72.81017 44.632697,67.223604 55.909197,55.956988 68.989274,42.888373 72.76171,39.051048 73.002947,38.569207 73.416485,37.743213 73.419674,36.792183 73.011772,35.9375 72.76994,35.430786 69.499542,32.104717 55.731743,18.36332 40.902203,3.5622161 38.684793,1.3958166 38.235497,1.2695694 37.390012,1.0319978 36.556472,1.0900303 35.868292,1.4343782 35.386007,1.6757019 31.548967,5.4496083 18.425039,18.590629 6.6064467,30.424611 1.5332712,35.584733 1.375559,35.932308 1.0824564,36.578265 1.0678286,37.66476 1.3426725,38.375 c 0.182614,0.471902 2.9529954,3.297621 17.2008045,17.544383 15.964763,15.963586 17.02356,16.996215 17.657328,17.220882 0.798795,0.28317 1.63246,0.228284 2.411078,-0.158738 z"
     id="path15614"
     transform="scale(2.8222225)" />
  <path
     d="m 155.89181,92.678254 v -4.173362 h -11.98386 v -7.083779 h 7.53181 v -4.17689 h -7.53181 v -6.360585 h 11.17247 V 66.79847 h -15.25764 v 25.879784 z m -19.09233,-7.440085 c 0,-10.174113 -12.16731,-6.995585 -12.5342,-11.811003 -0.17992,-2.360084 2.0955,-3.086806 3.99697,-2.991556 2.90689,0.09172 3.81706,2.268362 3.81706,2.268362 l 3.63008,-1.086556 c -1.27352,-3.182056 -3.72533,-5.270501 -7.35189,-5.270501 -4.62844,0 -8.08214,1.905 -8.08214,6.992057 0,4.268612 3.4537,5.813779 4.98828,6.448779 3.3655,1.361723 7.35895,1.908528 7.35895,5.355168 0,2.183695 -1.64042,3.817057 -3.99345,3.817057 -2.45533,0 -4.45205,-1.365251 -5.54214,-3.817057 l -3.89819,1.453445 c 1.72155,3.905251 4.98828,6.554613 9.44033,6.554613 2.17664,0 4.17336,-0.740834 5.62681,-2.014362 1.63336,-1.449917 2.54353,-3.54189 2.54353,-5.898446 m -24.26759,-5.450418 c 0,1.996723 -0.45509,4.540251 -0.99836,5.901974 -0.91017,2.268362 -2.08845,3.270251 -3.99698,3.270251 -1.63336,0 -2.71991,-0.635 -3.54189,-2.000251 -0.99836,-1.633361 -1.54163,-4.452056 -1.54163,-7.171974 0,-2.180167 0.36336,-4.540251 0.99836,-6.085418 0.91016,-2.268362 2.17664,-3.266723 4.17336,-3.175001 1.54516,0.08819 2.54353,0.635 3.3655,1.996723 0.99836,1.725084 1.54164,4.356807 1.54164,7.263696 m 4.08517,0 c 0,-3.270251 -0.635,-6.540501 -1.72156,-8.808863 -1.64042,-3.182056 -3.90525,-4.631973 -7.17903,-4.631973 -2.99156,0 -5.08,0.906639 -6.62164,2.906889 -1.728612,2.451806 -2.818692,6.265335 -2.818692,10.533947 0,3.086807 0.72319,6.536974 1.820332,8.717141 1.54164,3.178529 3.81,4.646085 7.44008,4.646085 2.71992,0 4.81542,-0.924278 6.26887,-2.921001 1.81327,-2.271889 2.81164,-6.357057 2.81164,-10.442225 m -26.264322,0 c 0,1.996723 -0.45508,4.540251 -0.99836,5.901974 -0.91016,2.268362 -2.08844,3.270251 -3.99697,3.270251 -1.63336,0 -2.72344,-0.635 -3.54189,-2.000251 -0.99836,-1.633361 -1.54517,-4.452056 -1.54517,-7.171974 0,-2.180167 0.36689,-4.540251 1.00189,-6.085418 0.90664,-2.268362 2.17664,-3.266723 4.17336,-3.175001 1.54517,0.08819 2.54353,0.635 3.35492,1.996723 1.00189,1.725084 1.55222,4.356807 1.55222,7.263696 m 4.08517,0 c 0,-3.270251 -0.64205,-6.540501 -1.72861,-8.808863 -1.63336,-3.182056 -3.90878,-4.631973 -7.17197,-4.631973 -2.99861,0 -5.08706,0.906639 -6.6287,2.906889 -1.72508,2.451806 -2.81869,6.265335 -2.81869,10.533947 0,3.086807 0.73025,6.536974 1.82739,8.717141 1.53458,3.178529 3.81,4.646085 7.44008,4.646085 2.71992,0 4.80836,-0.924278 6.26181,-2.921001 1.82033,-2.271889 2.81869,-6.357057 2.81869,-10.442225 M 74.072048,92.678254 V 88.868253 H 62.088178 V 66.79847 h -4.08517 v 25.879784 z"
     style="fill:#000000;fill-opacity:1;fill-rule:evenodd;stroke:none"
     id="path5956"
     inkscape:connector-curvature="0" />
  <path
     d="m 167.54301,136.37685 v -3.81001 h -11.98739 v -22.06978 h -4.08164 v 25.87979 z m -19.36045,0 v -4.17689 H 136.1987 v -7.08026 h 7.53886 v -4.17689 h -7.53886 v -6.36058 h 11.16894 v -4.08517 h -15.25411 v 25.87979 z m -18.90184,-25.87979 h -4.36033 l -5.44336,17.25437 -5.53862,-17.25437 h -4.26508 l 8.17033,25.87979 h 3.17501 z m -28.61381,14.43567 h -5.182302 l 2.63877,-7.26369 z m 8.35025,11.44412 -8.89353,-25.87979 h -4.088692 l -8.90059,25.87979 h 4.35328 l 2.55059,-7.2637 h 8.082142 l 2.53647,7.2637 z M 81.489908,117.76781 c 0,1.08656 -0.63853,2.17664 -1.63689,2.71992 -0.635,0.35983 -1.09009,0.45508 -2.35656,0.45508 h -4.90714 v -6.36058 h 4.90714 c 1.35467,0 1.72156,0.0917 2.35656,0.45508 0.99836,0.54328 1.63689,1.63336 1.63689,2.7305 m 4.62491,18.60904 -4.53319,-12.07912 c 2.36361,-1.08655 3.99697,-3.81 3.99697,-6.52992 0,-2.63877 -1.63336,-5.36222 -3.90878,-6.4523 -1.27352,-0.63853 -2.63172,-0.81845 -4.62844,-0.81845 h -8.53723 v 25.87979 h 4.08517 V 125.1197 h 4.90714 l 4.17336,11.25715 z m -22.25675,-7.71878 v -5.17173 h -8.81239 v 4.08517 h 4.72722 v 1.08656 c 0,2.36361 -1.90853,3.99697 -4.54025,3.99697 -1.54164,0 -2.72697,-0.63147 -3.54189,-2.08845 -0.81844,-1.63688 -1.27353,-4.36033 -1.27353,-7.08025 0,-2.18016 0.36336,-4.54025 0.99836,-6.08542 0.91017,-2.27188 2.27542,-3.18205 4.36034,-3.18205 2.00025,0 3.0868,0.81844 4.17689,3.09386 l 3.90525,-1.54517 c -1.72861,-4.09222 -4.08517,-5.72558 -8.08214,-5.72558 -2.90689,0 -5.08353,0.99836 -6.6287,2.90689 -1.72861,2.26836 -2.90689,6.36058 -2.90689,10.53747 0,3.175 0.635,6.35 1.72509,8.62542 1.54164,3.26672 3.81705,4.74134 7.7223,4.74134 4.72017,0 8.17034,-3.47487 8.17034,-8.19503"
     style="fill:#000000;fill-opacity:1;fill-rule:evenodd;stroke:none"
     id="path5960"
     inkscape:connector-curvature="0" />
</svg>
