<?xml version="1.0" encoding="UTF-8" standalone="no"?>
<svg
   width="74.429893"
   height="74.431252"
   viewBox="0 0 210.05775 210.06152"
   version="1.1"
   id="svg2"
   inkscape:version="1.2.1 (9c6d41e410, 2022-07-14)"
   sodipodi:docname="MUTCD_W8-1.svg"
   xmlns:inkscape="http://www.inkscape.org/namespaces/inkscape"
   xmlns:sodipodi="http://sodipodi.sourceforge.net/DTD/sodipodi-0.dtd"
   xmlns="http://www.w3.org/2000/svg"
   xmlns:svg="http://www.w3.org/2000/svg"
   xmlns:rdf="http://www.w3.org/1999/02/22-rdf-syntax-ns#"
   xmlns:cc="http://creativecommons.org/ns#"
   xmlns:dc="http://purl.org/dc/elements/1.1/">
  <metadata
     id="metadata62">
    <rdf:RDF>
      <cc:Work
         rdf:about="">
        <dc:format>image/svg+xml</dc:format>
        <dc:type
           rdf:resource="http://purl.org/dc/dcmitype/StillImage" />
        <dc:title />
      </cc:Work>
    </rdf:RDF>
  </metadata>
  <defs
     id="defs60" />
  <sodipodi:namedview
     pagecolor="#ffffff"
     bordercolor="#666666"
     borderopacity="1"
     objecttolerance="10"
     gridtolerance="10"
     guidetolerance="10"
     inkscape:pageopacity="0"
     inkscape:pageshadow="2"
     inkscape:window-width="2048"
     inkscape:window-height="1089"
     id="namedview58"
     showgrid="false"
     fit-margin-top="0"
     fit-margin-left="0"
     fit-margin-right="0"
     fit-margin-bottom="0"
     inkscape:zoom="8.0000001"
     inkscape:cx="41.249999"
     inkscape:cy="28.5"
     inkscape:window-x="-8"
     inkscape:window-y="-8"
     inkscape:window-maximized="1"
     inkscape:current-layer="svg2"
     inkscape:showpageshadow="2"
     inkscape:pagecheckerboard="0"
     inkscape:deskcolor="#d1d1d1" />
  <!-- draw the bicycle -->
  <!-- RIGHT -->
  <!-- LANE -->
  <!-- ONLY -->
  <path
     d="M 206.65025,96.805734 113.26995,3.43602 C 111.11095,1.262908 108.10881,-3.6983694e-5 105.03611,-3.6983694e-5 101.97047,-3.6983694e-5 98.97892,1.262908 96.79522,3.43602 L 3.4113897,96.805734 C 1.2418097,98.978844 -0.00702031,101.95982 2.9689291e-5,105.04663 0.02122969,108.11227 1.2488597,111.11088 3.4113897,113.28046 L 96.79522,206.64665 c 2.16253,2.16253 5.19289,3.41136 8.24795,3.41489 3.05153,-0.003 6.07483,-1.25236 8.23383,-3.41489 l 93.37325,-93.36266 c 2.79752,-2.79753 3.98991,-7.0097 3.13619,-10.86203 -0.50094,-2.21897 -1.72861,-3.866446 -3.13619,-5.616226"
     style="fill:#ffd033;fill-opacity:1;fill-rule:nonzero;stroke:none"
     id="path6132"
     inkscape:connector-curvature="0" />
  <path
     d="m 204.34308,110.97329 -93.36972,93.36619 c -1.56986,1.56281 -3.71828,2.45534 -5.93019,2.45534 -2.21192,0 -4.35681,-0.89253 -5.92667,-2.45534 L 5.7079797,110.96977 c -1.55223,-1.55223 -2.43417,-3.72886 -2.43417,-5.92667 0.007,-2.19781 0.889,-4.37797 2.43769,-5.930196 L 99.10944,5.718492 c 1.56281,-1.545167 3.73592,-2.430639 5.92667,-2.430639 2.19781,0 4.3815,0.885472 5.93725,2.430639 l 93.36972,93.397942 c 1.56633,1.569856 2.45181,3.714746 2.45181,5.926666 0,2.21544 -0.88548,4.36033 -2.45181,5.93019"
     style="fill:#000000;fill-opacity:1;fill-rule:evenodd;stroke:none"
     id="path6140"
     inkscape:connector-curvature="0" />
  <path
     d="m 201.12575,107.74891 c 0.70908,-0.70203 1.12183,-1.71451 1.12183,-2.70581 0,-0.98072 -0.41275,-2.02142 -1.12183,-2.71992 L 107.74192,8.94641 c -0.69497,-0.6985 -1.7145,-1.111251 -2.69875,-1.111251 -0.98778,0 -2.02142,0.412751 -2.72345,1.111251 L 8.9323697,102.32318 c -0.70556,0.70909 -1.09714,1.71803 -1.09714,2.71639 0.007,0.99836 0.39158,1.9932 1.10419,2.70581 l 93.3803003,93.39088 c 0.70203,0.6985 1.74272,1.11125 2.72345,1.11125 0.9913,0 2.00378,-0.41275 2.7058,-1.11125 l 93.37678,-93.38735 z"
     style="fill:#ffd033;fill-opacity:1;fill-rule:evenodd;stroke:none"
     id="path6144"
     inkscape:connector-curvature="0" />
  <path
     style="fill:#f4911d;fill-opacity:1;stroke-width:0.125"
     d="M 36.625,71.386973 C 36.028461,71.009814 2.970417,37.843495 2.8778463,37.529287 2.8319548,37.373521 2.8545539,37.063828 2.9280664,36.841083 3.0228755,36.55381 7.9401257,31.558595 19.845377,19.655546 L 36.629028,2.875 h 0.559968 0.559967 l 16.906769,16.906767 16.906767,16.906769 v 0.55996 0.55996 L 54.843749,54.541878 C 45.003961,64.390302 37.9595,71.347242 37.722765,71.450149 37.198625,71.67799 37.073943,71.670815 36.625,71.386973 Z"
     id="path14819"
     transform="scale(2.8222225)" />
  <path
     style="fill:#f4911d;fill-opacity:1;stroke-width:0.125"
     d="M 36.125,74.208167 C 35.85,74.116784 35.428125,73.942525 35.1875,73.820924 34.946875,73.699323 27.116225,65.969557 17.786056,56.643666 -1.2236238,37.642701 0.13102776,39.130417 0.12700539,37.25 0.12301816,35.38601 -1.3656287,37.022217 17.662512,17.976297 29.35288,6.2750072 34.914851,0.79099204 35.310521,0.57564137 36.405018,-0.0200589 37.853497,-0.04649584 39.033562,0.50769022 39.498957,0.7262511 43.176759,4.3313019 56.291221,17.423971 65.457643,26.575162 73.197938,34.4 73.491877,34.8125 c 0.29394,0.4125 0.598827,0.941206 0.677528,1.174902 0.229114,0.680333 0.1743,1.917668 -0.120791,2.726659 -0.253284,0.694376 -0.949565,1.40972 -17.331895,17.806402 -14.285996,14.298512 -17.178281,17.136959 -17.744542,17.414229 -0.81751,0.400296 -2.09599,0.523096 -2.847177,0.273475 z m 2.486883,-1.22664 C 38.956622,72.81017 44.632697,67.223604 55.909197,55.956988 68.989274,42.888373 72.76171,39.051048 73.002947,38.569207 73.416485,37.743213 73.419674,36.792183 73.011772,35.9375 72.76994,35.430786 69.499542,32.104717 55.731743,18.36332 40.902203,3.5622161 38.684793,1.3958166 38.235497,1.2695694 37.390012,1.0319978 36.556472,1.0900303 35.868292,1.4343782 35.386007,1.6757019 31.548967,5.4496083 18.425039,18.590629 6.6064467,30.424611 1.5332712,35.584733 1.375559,35.932308 1.0824564,36.578265 1.0678286,37.66476 1.3426725,38.375 c 0.182614,0.471902 2.9529954,3.297621 17.2008045,17.544383 15.964763,15.963586 17.02356,16.996215 17.657328,17.220882 0.798795,0.28317 1.63246,0.228284 2.411078,-0.158738 z"
     id="path14821"
     transform="scale(2.8222225)" />
  <path
     d="m 176.72758,94.925456 c 0,1.81327 -1.06186,3.78178 -2.5788,4.54025 -1.21003,0.606774 -1.96145,0.758464 -4.07812,0.758464 H 161.1348 V 89.630255 h 8.93586 c 2.11667,0 2.86809,0.1517 4.07812,0.75495 1.51694,0.906631 2.5788,2.723441 2.5788,4.540251 m 6.95678,0 c 0,-4.388561 -2.87161,-8.932341 -6.65339,-10.745621 -2.12372,-1.05833 -4.38855,-1.36172 -7.87753,-1.36172 h -14.82725 v 43.134145 h 6.80861 v -18.76778 h 8.01864 c 3.33728,0 5.9055,-0.60678 7.87753,-1.51342 3.78178,-1.66511 6.65339,-6.205354 6.65339,-10.745604 M 143.52413,125.95226 V 82.818115 h -6.80861 l -9.99067,24.211145 -9.98361,-24.211145 h -6.81567 v 43.134145 h 6.81567 v -24.97314 l 9.98361,24.97314 9.99067,-24.97314 v 24.97314 z M 99.282256,110.51118 V 82.818115 h -6.82272 v 27.693065 c 0,5.60211 -3.18206,9.23219 -7.87401,9.23219 -4.69194,0 -7.86341,-3.63008 -7.86341,-9.23219 V 82.818115 h -6.81567 v 27.693065 c 0,3.33022 0.75141,6.35353 1.96497,8.93233 2.27542,4.23686 7.42245,7.28839 12.71411,7.28839 5.29873,0 10.44576,-3.05153 12.71765,-7.28839 1.21355,-2.5788 1.97908,-5.60211 1.97908,-8.93233 m -43.95965,3.48191 c 0,3.33023 -1.82033,4.99181 -5.29872,4.99181 h -10.29406 v -11.80042 h 8.63247 c 1.50989,0 1.97203,0 2.87161,0.29986 2.42006,0.90664 4.0887,3.63714 4.0887,6.50875 m -0.91017,-19.974274 c 0,1.9685 -0.91016,3.78178 -2.42711,4.9918 -1.20297,0.910166 -2.11314,1.213554 -4.07811,1.213554 h -8.17739 V 89.630255 h 9.99067 c 3.0233,0 4.69194,1.509891 4.69194,4.388561 m 7.87401,19.822584 c 0,-4.69195 -2.57528,-8.32203 -7.11553,-10.44223 4.08516,-2.26836 6.05014,-5.446884 6.05014,-9.683744 0,-6.205361 -5.13998,-10.897311 -11.95565,-10.897311 h -16.34419 v 43.134145 h 16.34419 c 1.9685,0 4.54731,-0.45508 6.0572,-1.06186 4.08517,-1.66864 6.96384,-6.35706 6.96384,-11.049"
     style="fill:#000000;fill-opacity:1;fill-rule:evenodd;stroke:none"
     id="path6148"
     inkscape:connector-curvature="0" />
</svg>
