<?xml version="1.0" encoding="UTF-8" standalone="no"?>
<svg
   xmlns:dc="http://purl.org/dc/elements/1.1/"
   xmlns:cc="http://creativecommons.org/ns#"
   xmlns:rdf="http://www.w3.org/1999/02/22-rdf-syntax-ns#"
   xmlns:svg="http://www.w3.org/2000/svg"
   xmlns="http://www.w3.org/2000/svg"
   xmlns:sodipodi="http://sodipodi.sourceforge.net/DTD/sodipodi-0.dtd"
   xmlns:inkscape="http://www.inkscape.org/namespaces/inkscape"
   width="210.39999"
   height="630.39874"
   viewBox="-50 -30 21.040002 63.039864"
   id="svg2"
   version="1.1"
   inkscape:version="0.92.4 (5da689c313, 2019-01-14)"
   sodipodi:docname="MUTCD_R1-6b.svg">
  <metadata
     id="metadata14">
    <rdf:RDF>
      <cc:Work
         rdf:about="">
        <dc:format>image/svg+xml</dc:format>
        <dc:type
           rdf:resource="http://purl.org/dc/dcmitype/StillImage" />
      </cc:Work>
    </rdf:RDF>
  </metadata>
  <defs
     id="defs12" />
  <sodipodi:namedview
     pagecolor="#ffffff"
     bordercolor="#666666"
     borderopacity="1"
     objecttolerance="10"
     gridtolerance="10"
     guidetolerance="10"
     inkscape:pageopacity="0"
     inkscape:pageshadow="2"
     inkscape:window-width="1920"
     inkscape:window-height="1057"
     id="namedview10"
     showgrid="false"
     fit-margin-top="0.2"
     fit-margin-left="0.2"
     fit-margin-right="0.2"
     fit-margin-bottom="0.2"
     inkscape:zoom="0.87990975"
     inkscape:cx="53.674706"
     inkscape:cy="307.43401"
     inkscape:window-x="-8"
     inkscape:window-y="-8"
     inkscape:window-maximized="1"
     inkscape:current-layer="svg2"
     showguides="true"
     inkscape:guide-bbox="true" />
  <path
     inkscape:connector-curvature="0"
     d="m -28.979997,30.394873 c 0,1.44975 -1.17525,2.625 -2.625,2.625 l -15.750003,0 c -1.449875,0 -2.625,-1.17525 -2.625,-2.625 l 0,-57.749882 c 0,-1.449751 1.175125,-2.625001 2.625,-2.625001 l 15.750003,0 c 1.44975,0 2.625,1.17525 2.625,2.625001 l 0,57.749882 z"
     style="fill:#cdff00;fill-opacity:1;fill-rule:nonzero;stroke:none"
     id="path3109" />
  <path
     inkscape:connector-curvature="0"
     d="m -30.729997,21.644872 c 0,0.9665 -0.783625,1.75 -1.75,1.75 l -14.000002,0 c -0.966376,0 -1.750001,-0.7835 -1.750001,-1.75 l 0,-38.49988 c 0,-0.9665 0.783625,-1.75 1.750001,-1.75 l 14.000002,0 c 0.966375,0 1.75,0.7835 1.75,1.75 l 0,38.49988 z"
     style="fill:#000000;fill-opacity:1;fill-rule:nonzero;stroke:none"
     id="path3117" />
  <path
     inkscape:connector-curvature="0"
     d="m -46.479999,22.957372 c -0.723751,0 -1.312501,-0.588625 -1.312501,-1.3125 l 0,-38.49988 c 0,-0.72375 0.58875,-1.3125 1.312501,-1.3125 l 14.000002,0 c 0.72375,0 1.3125,0.58875 1.3125,1.3125 l 0,38.49988 c 0,0.723875 -0.58875,1.3125 -1.3125,1.3125 l -14.000002,0 z"
     style="fill:#ffffff;fill-opacity:1;fill-rule:nonzero;stroke:none"
     id="path3121" />
  <path
     inkscape:connector-curvature="0"
     d="m -42.009174,-27.738797 0,3.00875 -0.554875,0 0,-3.00875 -0.801875,0 0,-0.49125 2.171,0 0,0.49125 -0.81425,0 z"
     style="fill:#000000;fill-opacity:1;fill-rule:nonzero;stroke:none"
     id="path3125" />
  <path
     inkscape:connector-curvature="0"
     d="m -36.441423,-27.738797 0,3.00875 -0.555,0 0,-3.00875 -0.80175,0 0,-0.49125 2.170875,0 0,0.49125 -0.814125,0 z"
     style="fill:#000000;fill-opacity:1;fill-rule:nonzero;stroke:none"
     id="path3129" />
  <path
     inkscape:connector-curvature="0"
     d="m -43.989636,-24.938747 c -0.1965,0.171875 -0.46675,0.270125 -0.7615,0.270125 -0.60175,0 -1.043875,-0.356125 -1.277375,-0.88425 l 0.528125,-0.196375 c 0.1475,0.3315 0.417625,0.51575 0.74925,0.51575 0.319375,0 0.54025,-0.221125 0.54025,-0.51575 0,-0.46675 -0.54025,-0.5405 -0.994875,-0.724625 -0.208625,-0.086 -0.67525,-0.29475 -0.67525,-0.872 0,-0.687625 0.466625,-0.945501 1.093,-0.945501 0.49125,0 0.82275,0.282376 0.99475,0.712251 l -0.49125,0.147375 c 0,0 -0.122875,-0.29475 -0.51575,-0.307 -0.258,-0.01237 -0.565,0.08587 -0.5405,0.40525 0.04912,0.650875 1.694875,0.221 1.694875,1.596375 0,0.319375 -0.12275,0.601875 -0.34375,0.798375"
     style="fill:#000000;fill-opacity:1;fill-rule:nonzero;stroke:none"
     id="path3133" />
  <path
     inkscape:connector-curvature="0"
     d="m -35.102435,-24.730009 0,-3.5 2.0605,0 0,0.552625 -1.508625,0 0,0.859625 1.018125,0 0,0.564875 -1.018125,0 0,0.957875 1.619,0 0,0.565 -2.170875,0 z"
     style="fill:#000000;fill-opacity:1;fill-rule:nonzero;stroke:none"
     id="path3137" />
  <path
     inkscape:connector-curvature="0"
     d="m -39.490498,-27.259797 -0.358126,0.982375 0.704126,0 -0.346,-0.982375 z m 0.889375,2.52975 -0.345875,-0.982375 -1.099251,0 -0.345875,0.982375 -0.592875,0 1.2105,-3.5 0.555751,0 1.210375,3.5 -0.59275,0 z"
     style="fill:#000000;fill-opacity:1;fill-rule:nonzero;stroke:none"
     id="path3141" />
  <path
     inkscape:connector-curvature="0"
     d="m -43.822162,-19.917508 0,-3.500001 0.551875,0 0,2.984251 1.619,0 0,0.51575 -2.170875,0 z"
     style="fill:#000000;fill-opacity:1;fill-rule:nonzero;stroke:none"
     id="path3145" />
  <path
     inkscape:connector-curvature="0"
     d="m -35.655286,-19.917508 -0.492625,0 -0.5545,-2.247376 -0.542,2.247376 -0.49275,0 -0.517375,-3.500001 0.566625,0 0.271,1.842125 0.4435,-1.842125 0.542125,0 0.45575,1.842125 0.271,-1.842125 0.56675,0 -0.5175,3.500001 z"
     style="fill:#000000;fill-opacity:1;fill-rule:nonzero;stroke:none"
     id="path3149" />
  <path
     inkscape:connector-curvature="0"
     d="m -39.946799,-22.447297 -0.358125,0.982375 0.704126,0 -0.346001,-0.982375 z m 0.889376,2.529751 -0.345875,-0.982375 -1.099251,0 -0.345875,0.982375 -0.592875,0 1.2105,-3.500001 0.555751,0 1.210375,3.500001 -0.59275,0 z"
     style="fill:#000000;fill-opacity:1;fill-rule:nonzero;stroke:none"
     id="path3153" />
  <path
     inkscape:connector-curvature="0"
     d="m -36.241223,9.9273452 0.722,1.1031248 -0.1805,0.6815 -0.241125,0.06075 -0.300375,-1.8453748 z m -4.692751,2.4676248 -0.221,0.039 0.20075,-0.902375 0.180375,0.381125 -0.160125,0.48225 z m 5.214126,1.142251 1.644625,-0.481 -0.441875,-1.604126 -0.420125,0.05925 0.140125,-0.862125 -1.344375,-2.5471245 -0.722125,-0.3205 -0.119875,-0.280125 c -0.09013,0.07212 -0.184,0.1335 -0.290875,0.177625 -0.10825,0.04387 -0.226625,0.07425 -0.343625,0.07925 -0.08387,0.0038 -0.165375,-0.0014 -0.247625,-0.01725 l -0.0405,0.241125 -0.56175,0.52125 -0.70175,2.3667495 -1.022251,0.421625 -0.582,-1.28375 -0.882125,-0.5008745 c -0.07163,0.04025 -0.14375,0.07787 -0.223125,0.101 -0.07362,0.02088 -0.1495,0.041 -0.22675,0.04175 -0.1125,0.0015 -0.2245,-0.01287 -0.33275,-0.04312 l -0.02025,0 -0.620875,0.6612495 -0.622375,1.985375 -1.1825,1.123376 0.340625,0.3205 1.403625,-0.922625 0.1805,-0.740626 0.220875,0.681501 -0.9025,2.786875 0.3205,0.101 -0.942875,3.54925 0.5025,0.180625 1.342875,-3.54925 0.5415,0.04038 1.484375,3.448125 0.521375,-0.16025 -1.06275,-3.348625 c 0.107375,-0.02388 0.213625,-0.05413 0.321875,-0.07788 0.09462,-0.02163 0.18775,-0.052 0.280125,-0.08237 l -0.5415,-1.664875 1.343001,-0.320625 -0.280251,-1.364501 -0.3205,0 0.2195,-0.34075 -0.039,-0.07938 1.162376,-0.322 0.300375,-0.52125 0.441875,1.845376 -0.862125,2.727625 -0.241125,4.151376 0.942875,0.08075 0.340875,-3.449501 0.581875,-1.283625 0.4405,1.764375 1.644625,3.068376 0.862,-0.421626 -1.543625,-3.18825 0.160375,-2.74775 z"
     style="fill:#000000;fill-opacity:1;fill-rule:evenodd;stroke:none"
     id="path3157" />
  <path
     inkscape:connector-curvature="0"
     d="m -38.45546,7.4307575 c 0.3595,0.245375 0.840375,0.253375 1.2,0.0049 0.309625,-0.213625 0.463375,-0.5255 0.47275,-0.897375 0.0086,-0.355125 -0.179,-0.698125 -0.47075,-0.89725 -0.2995,-0.204375 -0.68225,-0.23975 -1.015125,-0.09763 -0.395625,0.16975 -0.65975,0.563125 -0.65975,0.994875 -8e-4,0.35525 0.179625,0.692375 0.472875,0.8925"
     style="fill:#000000;fill-opacity:1;fill-rule:evenodd;stroke:none"
     id="path3161" />
  <path
     inkscape:connector-curvature="0"
     d="m -41.814836,9.4262445 c 0.387,-0.165375 0.6275,-0.524875 0.639625,-0.943 0.01013,-0.337125 -0.189125,-0.6765 -0.466375,-0.858375 -0.397125,-0.259125 -0.9465,-0.203625 -1.28075,0.132125 -0.334375,0.335 -0.395,0.88375 -0.13375,1.280875 0.268,0.407 0.789375,0.581125 1.24125,0.388375"
     style="fill:#000000;fill-opacity:1;fill-rule:evenodd;stroke:none"
     id="path3165" />
  <path
     inkscape:connector-curvature="0"
     d="m -38.215223,27.332373 0,-1.188001 -0.716875,0 0,1.188001 -0.377,0 0,-2.625001 0.377,0 0,1.068625 0.716875,0 0,-1.068625 0.376875,0 0,2.625001 -0.376875,0 z"
     style="fill:#000000;fill-opacity:1;fill-rule:nonzero;stroke:none"
     id="path3169" />
  <path
     inkscape:connector-curvature="0"
     d="m -41.750874,24.707409 0.367375,0 0,2.625001 -0.367375,0 0,-2.625001 z"
     style="fill:#000000;fill-opacity:1;fill-rule:nonzero;stroke:none"
     id="path3171" />
  <path
     inkscape:connector-curvature="0"
     d="m -37.260873,24.707409 0.367375,0 0,2.625001 -0.367375,0 0,-2.625001 z"
     style="fill:#000000;fill-opacity:1;fill-rule:nonzero;stroke:none"
     id="path3173" />
  <path
     inkscape:connector-curvature="0"
     d="m -35.130148,27.332373 -0.808875,-1.759001 0,1.759001 -0.37675,0 0,-2.625001 0.37675,0 0.717,1.575 0,-1.575 0.37675,0 0,2.625001 -0.284875,0 z"
     style="fill:#000000;fill-opacity:1;fill-rule:nonzero;stroke:none"
     id="path3177" />
  <path
     inkscape:connector-curvature="0"
     d="m -40.156874,25.057472 0,2.274876 -0.37875,0 0,-2.274876 -0.480375,0 0,-0.350125 1.339501,0 0,0.350125 -0.480376,0 z"
     style="fill:#000000;fill-opacity:1;fill-rule:nonzero;stroke:none"
     id="path3181" />
  <path
     inkscape:connector-curvature="0"
     d="m -42.543599,27.332373 -0.3235,0 -0.2495,-1.372376 -0.2495,1.372376 -0.33275,0 -0.415875,-2.625001 0.36975,0 0.221625,1.400125 0.25875,-1.400125 0.296,0 0.2495,1.400125 0.230875,-1.400125 0.36975,0 -0.425125,2.625001 z"
     style="fill:#000000;fill-opacity:1;fill-rule:nonzero;stroke:none"
     id="path3185" />
  <path
     inkscape:connector-curvature="0"
     d="m -35.53701,29.427835 -0.18475,0.755375 0.37875,0 -0.194,-0.755375 z m 0.471,1.842 -0.18475,-0.71825 -0.56325,0 -0.175375,0.71825 -0.378625,0 0.655625,-2.625 0.369375,0 0.655625,2.625 -0.378625,0 z"
     style="fill:#000000;fill-opacity:1;fill-rule:nonzero;stroke:none"
     id="path3189" />
  <path
     inkscape:connector-curvature="0"
     d="m -46.726213,29.345072 c -0.037,-0.258 -0.138625,-0.377625 -0.3145,-0.377625 -0.30525,0 -0.41625,0.2395 -0.41625,0.920875 0,0.755375 0.1295,1.05925 0.45325,1.05925 0.222,0 0.2775,-0.18425 0.2775,-0.377625 l 0.379126,0 c -0.0091,0.432875 -0.286626,0.746125 -0.656626,0.746125 -0.56425,0 -0.813875,-0.4515 -0.813875,-1.4185 0,-0.847375 0.268125,-1.298625 0.78625,-1.298625 0.212625,0 0.397625,0.09212 0.517751,0.267125 0.101875,0.128875 0.138875,0.2395 0.1665,0.479 l -0.379126,0 z"
     style="fill:#000000;fill-opacity:1;fill-rule:nonzero;stroke:none"
     id="path3193" />
  <path
     inkscape:connector-curvature="0"
     d="m -31.53761,31.269873 -0.459625,-1.28025 -0.238875,0.442125 0,0.838125 -0.377,0 0,-2.625 0.377,0 0,1.05 0.597375,-1.05 0.432,0 -0.54225,0.921125 0.606625,1.703875 -0.39525,0 z"
     style="fill:#000000;fill-opacity:1;fill-rule:nonzero;stroke:none"
     id="path3197" />
  <path
     inkscape:connector-curvature="0"
     d="m -34.319961,31.269873 0,-2.625 0.37875,0 0,2.275125 0.96075,0 0,0.349875 -1.3395,0 z"
     style="fill:#000000;fill-opacity:1;fill-rule:nonzero;stroke:none"
     id="path3201" />
  <path
     inkscape:connector-curvature="0"
     d="m -42.853536,29.298922 c -0.065,-0.23025 -0.167,-0.3315 -0.32475,-0.3315 -0.167,0 -0.269,0.10125 -0.334,0.32225 -0.06488,0.202625 -0.0835,0.377625 -0.0835,0.672375 0,0.285625 0.02775,0.451375 0.0835,0.663 0.065,0.22125 0.167,0.3225 0.334,0.3225 0.15775,0 0.25975,-0.10125 0.32475,-0.3225 0.065,-0.211625 0.0835,-0.368375 0.0835,-0.672375 0,-0.294625 -0.02788,-0.460375 -0.0835,-0.65375 m 0.296875,1.565625 c -0.129875,0.31325 -0.32475,0.4515 -0.621625,0.4515 -0.315375,0 -0.500875,-0.13825 -0.630875,-0.4515 -0.111375,-0.25775 -0.1485,-0.5065 -0.1485,-0.911875 0,-0.395875 0.03712,-0.663 0.1485,-0.91175 0.13925,-0.313 0.32475,-0.442 0.630875,-0.442 0.30625,0 0.49175,0.129 0.621625,0.45125 0.1115,0.258 0.1485,0.506625 0.1485,0.9025 0,0.405375 -0.037,0.663375 -0.1485,0.911875"
     style="fill:#000000;fill-opacity:1;fill-rule:nonzero;stroke:none"
     id="path3205" />
  <path
     inkscape:connector-curvature="0"
     d="m -45.059099,29.013285 -0.386125,0 0,0.663375 0.386125,0 c 0.220625,0 0.340125,-0.119875 0.340125,-0.331875 0,-0.202625 -0.137875,-0.3315 -0.340125,-0.3315 m 0.321625,2.256625 -0.34925,-1.234125 -0.3585,0 0,1.234125 -0.37675,0 0,-2.625 0.78125,0 c 0.413625,0 0.689375,0.276375 0.689375,0.699875 0,0.31325 -0.128625,0.5435 -0.376875,0.63575 l 0.376875,1.289375 -0.386125,0 z"
     style="fill:#000000;fill-opacity:1;fill-rule:nonzero;stroke:none"
     id="path3209" />
  <path
     inkscape:connector-curvature="0"
     d="m -41.266987,30.05771 c -0.1135,-0.07375 -0.223875,-0.1475 -0.29425,-0.197 -0.211625,-0.149 -0.323625,-0.349875 -0.323625,-0.580375 0,-0.377375 0.295875,-0.681375 0.675125,-0.681375 0.37,0 0.65675,0.285375 0.665875,0.681375 l -0.360625,0 c -0.0093,-0.184 -0.138875,-0.303875 -0.30525,-0.303875 -0.17575,0 -0.314625,0.129125 -0.314625,0.303875 0,0.129125 0.05562,0.202625 0.24975,0.31325 0.508875,0.29475 0.73075,0.580375 0.73075,0.958 0,0.423625 -0.32375,0.764375 -0.73075,0.764375 -0.462375,0 -0.739875,-0.386875 -0.739875,-0.81975 l 0.37,0 c 0,0.221125 0.111,0.451375 0.369875,0.451375 0.203625,0 0.370125,-0.18425 0.370125,-0.396 0,-0.1645 -0.06813,-0.30325 -0.3625,-0.493875"
     style="fill:#000000;fill-opacity:1;fill-rule:nonzero;stroke:none"
     id="path3213" />
  <path
     inkscape:connector-curvature="0"
     d="m -39.481336,30.05771 c -0.113625,-0.07375 -0.223875,-0.1475 -0.294251,-0.197 -0.211625,-0.149 -0.323625,-0.349875 -0.323625,-0.580375 0,-0.377375 0.295875,-0.681375 0.675126,-0.681375 0.37,0 0.65675,0.285375 0.665875,0.681375 l -0.36075,0 c -0.0093,-0.184 -0.138625,-0.303875 -0.305125,-0.303875 -0.17575,0 -0.3145,0.129125 -0.3145,0.303875 0,0.129125 0.0555,0.202625 0.249625,0.31325 0.508875,0.29475 0.73075,0.580375 0.73075,0.958 0,0.423625 -0.32375,0.764375 -0.73075,0.764375 -0.462376,0 -0.739751,-0.386875 -0.739751,-0.81975 l 0.369875,0 c 0,0.221125 0.111001,0.451375 0.369876,0.451375 0.2035,0 0.37,-0.18425 0.37,-0.396 0,-0.1645 -0.068,-0.30325 -0.362375,-0.493875"
     style="fill:#000000;fill-opacity:1;fill-rule:nonzero;stroke:none"
     id="path3217" />
  <path
     inkscape:connector-curvature="0"
     d="m -36.950698,31.269873 -0.3235,0 -0.2495,-1.372375 -0.249625,1.372375 -0.332625,0 -0.415875,-2.625 0.369625,0 0.22175,1.400125 0.25875,-1.400125 0.295875,0 0.249625,1.400125 0.230875,-1.400125 0.369625,0 -0.425,2.625 z"
     style="fill:#000000;fill-opacity:1;fill-rule:nonzero;stroke:none"
     id="path3221" />
  <path
     inkscape:connector-curvature="0"
     d="m -38.135148,1.2252565 c -0.08313,-0.138125 -0.18475,-0.193375 -0.341625,-0.202625 -0.203125,-0.0092 -0.3325,0.09213 -0.42475,0.322375 -0.0645,0.1565 -0.1015,0.396 -0.1015,0.617125 0,0.27625 0.05525,0.56175 0.156875,0.7275 0.08325,0.13825 0.193875,0.20275 0.36,0.20275 0.194,0 0.314,-0.101375 0.40625,-0.331625 0.0555,-0.138 0.10175,-0.396 0.10175,-0.598625 0,-0.29475 -0.05537,-0.561875 -0.157,-0.736875 m 0.286125,1.796125 c -0.14775,0.202625 -0.36,0.29475 -0.637125,0.29475 -0.36925,0 -0.6,-0.1475 -0.757,-0.469875 -0.11075,-0.221 -0.184625,-0.571 -0.184625,-0.884125 0,-0.433 0.11075,-0.81975 0.286125,-1.06849992 0.157,-0.202625 0.369375,-0.294625 0.674125,-0.294625 0.332375,0 0.563125,0.14725 0.729375,0.46974992 0.11075,0.230125 0.175375,0.561875 0.175375,0.893375 0,0.414375 -0.1015,0.828875 -0.28625,1.05925"
     style="fill:#000000;fill-opacity:1;fill-rule:nonzero;stroke:none"
     id="path4253" />
  <path
     inkscape:connector-curvature="0"
     d="m -40.379662,1.0133945 0,2.256625 -0.41625,0 0,-2.256625 -0.601375,0 0,-0.36837492 1.62825,0 0,0.36837492 -0.610625,0 z"
     style="fill:#000000;fill-opacity:1;fill-rule:nonzero;stroke:none"
     id="path4257" />
  <path
     inkscape:connector-curvature="0"
     d="m -35.313735,-11.999359 -3.60275,6.2671265 c -0.106125,0.19525 -0.31825,0.323 -0.5425,0.323 -0.224125,0 -0.436126,-0.12775 -0.542376,-0.323 l -3.628125,-6.2695015 c -0.0555,-0.09413 -0.087,-0.207375 -0.087,-0.31825 0,-0.339875 0.2775,-0.617125 0.61725,-0.617125 l 7.164751,0 c 0.432625,0 0.709875,0.27725 0.709875,0.617125 0,0.110875 -0.03375,0.226625 -0.08912,0.320625 m 3.429501,-2.195499 -0.03538,-0.112875 c -0.02175,-0.0555 -0.0455,-0.10725 -0.07275,-0.16025 -0.02975,-0.05113 -0.06038,-0.09875 -0.09488,-0.146876 -0.03675,-0.0465 -0.07413,-0.08912 -0.11525,-0.131875 -0.04312,-0.04075 -0.0865,-0.07775 -0.133375,-0.11425 -0.04887,-0.03463 -0.09737,-0.06537 -0.149375,-0.09488 -0.05412,-0.0275 -0.107125,-0.05125 -0.163625,-0.07313 -0.05862,-0.01962 -0.1155,-0.03562 -0.175875,-0.04937 -0.06287,-0.01112 -0.123126,-0.01875 -0.186626,-0.02362 l -12.889876,-0.003 c -0.06388,0.0015 -0.12425,0.0059 -0.1875,0.014 -0.05987,0.01075 -0.11625,0.02388 -0.174625,0.04038 -0.05675,0.01925 -0.10975,0.04025 -0.164125,0.065 -0.05288,0.02712 -0.102,0.05525 -0.151751,0.08737 -0.08138,0.058 -0.150625,0.11775 -0.219625,0.190125 -0.03862,0.04462 -0.07375,0.08912 -0.107875,0.137251 -0.03213,0.04988 -0.06038,0.09913 -0.08737,0.15175 -0.02488,0.0545 -0.04575,0.1075 -0.06488,0.164125 -0.02263,0.079 -0.03787,0.153625 -0.04825,0.235 -0.0036,0.04737 -0.0064,0.09437 -0.006,0.142 0.0049,0.19425 0.05513,0.380249 0.1435,0.553124 l 6.448001,11.1500025 c 0.02088,0.03738 0.0425,0.073 0.06612,0.1085 0.03963,0.05537 0.08087,0.105375 0.1275,0.155 0.11875,0.117375 0.245125,0.20325 0.3975,0.271375 l 0.07575,0.02925 c 0.146001,0.04863 0.284751,0.07062 0.438876,0.068 l 0.08025,-0.0055 c 0.16475,-0.01987 0.30925,-0.06537 0.45625,-0.142375 l 0.069,-0.0405 c 0.138875,-0.09112 0.249,-0.1955 0.3465,-0.33 l 0.04387,-0.06788 6.429626,-11.1866275 c 0.0815,-0.149875 0.126125,-0.315124 0.140875,-0.484874 0.0095,-0.13475 -0.0039,-0.2625 -0.03462,-0.394375"
     style="fill:#af1e2d;fill-opacity:1;fill-rule:evenodd;stroke:none"
     id="path4261" />
  <path
     inkscape:connector-curvature="0"
     d="m -40.811662,-11.854396 -0.2395,0 -0.25575,0.5605 -0.26125,-0.5605 -0.234,0 0.381,0.848875 0,0.702125 0.223,0 0,-0.702125 0.3865,-0.848875 z m 0.43,0 -0.217625,0 0,1.551 0.217625,0 0,-1.551 z m 1.126626,1.551 0,-0.217625 -0.565876,0 0,-0.511625 0.321001,0 0,-0.21225 -0.321001,0 0,-0.39175 0.506126,0 0,-0.21775 -0.729251,0 0,1.551 0.789001,0 z m 1.050375,0 0,-0.206875 -0.565875,0 0,-1.344125 -0.223125,0 0,1.551 0.789,0 z m 1.083125,-0.77825 c 0,-0.11975 -0.01625,-0.255875 -0.038,-0.37 -0.02725,-0.158 -0.0925,-0.277625 -0.185125,-0.342875 -0.05438,-0.04363 -0.11975,-0.05987 -0.250375,-0.05987 l -0.397125,0 0,1.551 0.429875,0 c 0.08713,0 0.16325,-0.02187 0.217625,-0.07075 0.152375,-0.11975 0.223125,-0.348375 0.223125,-0.7075 m -0.217625,0.01088 c 0,0.11975 -0.011,0.2285 -0.02175,0.3265 -0.02175,0.11975 -0.0925,0.22325 -0.223125,0.22325 l -0.185,0 0,-1.115625 0.185,0 c 0.09788,0 0.16325,0.049 0.201375,0.15775 0.02713,0.06525 0.0435,0.234 0.0435,0.408125"
     style="fill:#af1e2d;fill-opacity:1;fill-rule:nonzero;stroke:none"
     id="path4357" />
</svg>
