<?xml version="1.0" encoding="UTF-8" standalone="no"?>
<!-- Generator: Adobe Illustrator 12.0.1, SVG Export Plug-In  -->

<svg
   xmlns:dc="http://purl.org/dc/elements/1.1/"
   xmlns:cc="http://creativecommons.org/ns#"
   xmlns:rdf="http://www.w3.org/1999/02/22-rdf-syntax-ns#"
   xmlns:svg="http://www.w3.org/2000/svg"
   xmlns="http://www.w3.org/2000/svg"
   xmlns:sodipodi="http://sodipodi.sourceforge.net/DTD/sodipodi-0.dtd"
   xmlns:inkscape="http://www.inkscape.org/namespaces/inkscape"
   version="1.1"
   width="197.0625"
   height="245.96875"
   viewBox="-0.999 0 197.0625 245.96875"
   enable-background="new -0.999 0 289 289"
   xml:space="preserve"
   id="svg2"
   inkscape:version="0.48.2 r9819"
   sodipodi:docname="MUTCD R8-7.svg"><metadata
   id="metadata18"><rdf:RDF><cc:Work
       rdf:about=""><dc:format>image/svg+xml</dc:format><dc:type
         rdf:resource="http://purl.org/dc/dcmitype/StillImage" /><dc:title></dc:title></cc:Work></rdf:RDF></metadata><sodipodi:namedview
   pagecolor="#ffffff"
   bordercolor="#666666"
   borderopacity="1"
   objecttolerance="10"
   gridtolerance="10"
   guidetolerance="10"
   inkscape:pageopacity="0"
   inkscape:pageshadow="2"
   inkscape:window-width="1280"
   inkscape:window-height="1004"
   id="namedview16"
   showgrid="false"
   fit-margin-top="0"
   fit-margin-left="0"
   fit-margin-right="0"
   fit-margin-bottom="0"
   inkscape:zoom="1.8901801"
   inkscape:cx="130.9262"
   inkscape:cy="67.866446"
   inkscape:window-x="-8"
   inkscape:window-y="-8"
   inkscape:window-maximized="1"
   inkscape:current-layer="svg2"
   showguides="true"
   inkscape:guide-bbox="true" />
<defs
   id="defs4">
</defs>





<path
   inkscape:connector-curvature="0"
   d="m 11.966991,245.21814 171.123749,0 0.60375,-0.0163 0.6025,-0.04 0.595,-0.0825 c 2.77,-0.4 5.395,-1.78875 7.26875,-3.87 l 0.39125,-0.4575 0.36625,-0.47125 0.3425,-0.48875 c 0.53875,-0.8175 1.01125,-1.75 1.33625,-2.67375 l 0.1875,-0.57 0.1625,-0.57875 c 0.25,-1.0025 0.36375,-1.94125 0.3675,-2.975 l 0,-220.01625 -0.0162,-0.6025 -0.0413,-0.60375 -0.0737,-0.595 -0.10505,-0.5862 c -0.55625,-2.765 -2.0325,-5.29375 -4.23,-7.0725 l -0.4725,-0.375 -0.48875,-0.3425 -0.51375,-0.3175 c -0.8375,-0.495 -1.7975,-0.91875 -2.72875,-1.1975 l -0.57875,-0.16375 -0.58625,-0.13 -0.5875,-0.10625 -0.595,-0.0737 -0.6025,-0.04 -0.60375,-0.0163 -171.123749,0 -0.60375,0.0163 c -0.985,0.0387 -2.0075,0.2225 -2.94875,0.51375 l -0.57125,0.1875 -0.55375,0.21125 c -2.6525,1.10125 -4.75625,2.99875 -6.11125,5.53375 l -0.26125,0.53625 -0.24375,0.54625 -0.2125,0.555 c -0.3525,0.98125 -0.53875,1.88375 -0.66,2.91625 l -0.04,0.60375 -0.0175,0.6025 0,220.01625 0.0087,0.3925 0.01625,0.39 0.0325,0.39125 0.04875,0.3825 0.0575,0.38375 0.065,0.3825 0.08125,0.375 0.09,0.375 0.10625,0.375 c 1.24125,4.21875 4.75375,7.705 9.1675,8.43375 l 0.415,0.0737 0.42375,0.065 0.8475,0.10625 0.86375,0.0975"
   style="fill:#ffffff;fill-opacity:1;fill-rule:evenodd;stroke:#000000;stroke-width:1.5;stroke-miterlimit:4;stroke-opacity:1;stroke-dasharray:none"
   id="path4853" /><path
   inkscape:connector-curvature="0"
   d="m 2.848376,232.99487 0,-220.01625 0.01625,-0.45625 0.0325,-0.44875 c 0.4325,-4.50375 4.10875,-7.9825 8.62125,-8.205 l 0.44875,-0.009 171.123754,0 c 4.5275,-0.004 8.34875,3.2875 9.02125,7.76625 l 0.0575,0.4475 0.0312,0.44875 0.009,0.45625 0,220.01625 c 10e-4,4.525 -3.285,8.34875 -7.76625,9.02125 l -0.4475,0.0488 -0.44875,0.0325 -0.45625,0.0162 -171.123754,0 -0.44875,-0.0162 -0.45625,-0.0325 -0.44,-0.0488 -0.44,-0.0825 -0.44,-0.0962 -0.43125,-0.115 c -0.69625,-0.2075 -1.405,-0.525 -2.03,-0.89625 l -0.37395,-0.2363 -0.3675,-0.26125 -0.3575,-0.27625 c -1.4925,-1.21125 -2.60875,-2.9625 -3.05625,-4.8325 l -0.0975,-0.44 -0.0825,-0.44 -0.04875,-0.44125 -0.0325,-0.455"
   style="fill:#000000;fill-opacity:1;fill-rule:evenodd;stroke:none"
   id="path4861" /><path
   inkscape:connector-curvature="0"
   d="m 7.982367,232.99487 0.01625,0.39125 0.05625,0.39125 0.09,0.375 c 0.45,1.6625 2.13,2.82375 3.8225,2.8525 l 171.123753,0 0.19625,-0.01 c 2.09625,-0.155 3.78875,-1.86875 3.78875,-4 l 0,-220.01625 -0.0163,-0.39125 -0.065,-0.38375 -0.09,-0.37375 c -0.48875,-1.555 -1.81125,-2.63625 -3.4225,-2.82 l -0.195,-0.0163 -0.19625,0 -171.123753,0 c -0.8937,-0.005 -1.8612,0.3325 -2.54245,0.9125 l -0.1475,0.1225 -0.14625,0.13875 c -0.45375,0.46375 -0.7925,1.04 -0.9775,1.6625 l -0.09,0.37375 -0.0575,0.38375 -0.01625,0.19625 -0.0075,0.195"
   style="fill:#ffffff;fill-opacity:1;fill-rule:evenodd;stroke:none"
   id="path4865" /><path
   inkscape:connector-curvature="0"
   d="m 47.162,46.10587 c 0,-6.18375 -1.8775,-11.15375 -5.19,-14.025 -1.6575,-1.325 -2.87125,-1.65625 -6.07375,-1.65625 l -10.16,0 0,31.4725 9.6075,0 1.76625,0 c 1.6575,-0.11 3.31375,-0.6625 4.52875,-1.76625 3.53375,-2.76125 5.52125,-7.73 5.52125,-14.025 m -5.08,0 c 0,4.19625 -0.99375,7.62 -2.87125,9.4975 -0.88375,0.88375 -1.8775,1.21375 -3.53375,1.21375 l -4.97,0 0,-21.4225 5.6325,0 c 1.325,0 2.43,0.55125 3.2025,1.32375 1.54625,1.65625 2.54,5.19125 2.54,9.3875 m 32.47375,0.11 c 0,-3.975 -0.77375,-7.95125 -2.09875,-10.71125 -1.98875,-3.86625 -4.74875,-5.6325 -8.725,-5.6325 -3.64375,0 -6.18375,1.10375 -8.06125,3.53375 -2.0975,2.98125 -3.42375,7.62 -3.42375,12.81 0,3.755 0.88375,7.9525 2.20875,10.60125 1.8775,3.86625 4.63875,5.6325 9.055,5.6325 3.31375,0 5.85375,-1.10375 7.62125,-3.53375 2.20875,-2.76 3.42375,-7.73 3.42375,-12.7 m -4.97,0 c 0,2.43 -0.5525,5.5225 -1.215,7.17875 -1.105,2.76125 -2.54,3.975 -4.86,3.975 -1.9875,0 -3.3125,-0.7725 -4.30625,-2.43 -1.21375,-1.9875 -1.8775,-5.41 -1.8775,-8.72375 0,-2.65 0.4425,-5.52125 1.215,-7.39875 1.105,-2.76125 2.65,-3.975 5.08,-3.865 1.8775,0.11125 3.0925,0.7725 4.08625,2.43 1.21375,2.0975 1.8775,5.3 1.8775,8.83375 m 48.92625,15.68125 0,-31.4725 -4.96875,0 0,20.09875 -11.48625,-20.09875 -4.97,0 0,31.4725 4.97,0 0,-21.31375 12.0375,21.31375 4.4175,0 z m 27.945,-15.68125 c 0,-3.975 -0.7725,-7.95125 -2.0975,-10.71125 -1.9875,-3.86625 -4.74875,-5.6325 -8.725,-5.6325 -3.64375,0 -6.18375,1.10375 -8.06125,3.53375 -2.09875,2.98125 -3.4225,7.62 -3.4225,12.81 0,3.755 0.8825,7.9525 2.2075,10.60125 1.8775,3.86625 4.63875,5.6325 9.05625,5.6325 3.3125,0 5.8525,-1.10375 7.61875,-3.53375 2.21,-2.76 3.42375,-7.73 3.42375,-12.7 m -4.96875,0 c 0,2.43 -0.5525,5.5225 -1.215,7.17875 -1.105,2.76125 -2.54,3.975 -4.85875,3.975 -1.9875,0 -3.31375,-0.7725 -4.3075,-2.43 -1.215,-1.9875 -1.8775,-5.41 -1.8775,-8.72375 0,-2.65 0.4425,-5.52125 1.215,-7.39875 1.105,-2.76125 2.65,-3.975 5.08,-3.865 1.8775,0.11125 3.0925,0.7725 4.08625,2.43 1.215,2.0975 1.8775,5.3 1.8775,8.83375 m 27.3925,-11.37375 0,-4.4175 -19.43625,0 0,4.4175 7.17875,0 0,27.055 4.96875,0 0,-27.055 7.28875,0"
   style="fill:#000000;fill-opacity:1;fill-rule:nonzero;stroke:none"
   id="path4869" /><path
   inkscape:connector-curvature="0"
   d="m 72.82439,103.90413 c 0,-12.36875 -14.7975,-8.50375 -15.23875,-14.35625 -0.22125,-2.87125 2.53875,-3.755 4.85875,-3.64375 3.53375,0.11 4.6375,2.76 4.6375,2.76 l 4.4175,-1.325 c -1.54625,-3.865 -4.5275,-6.405 -8.945,-6.405 -5.6325,0 -9.82875,2.31875 -9.82875,8.5025 0,5.19125 4.19625,7.06875 6.07375,7.84125 4.08625,1.65625 8.945,2.32 8.945,6.515 0,2.65125 -1.9875,4.63875 -4.85875,4.63875 -2.98125,0 -5.41125,-1.65625 -6.73625,-4.63875 l -4.74875,1.7675 c 2.0975,4.74875 6.07375,7.95125 11.485,7.95125 2.65,0 5.08,-0.88375 6.84625,-2.43 1.9875,-1.76625 3.0925,-4.30625 3.0925,-7.1775 m 21.86375,-18 0,-4.4175 -19.43625,0 0,4.4175 7.17875,0 0,27.055 4.96875,0 0,-27.055 7.28875,0 z m 26.2825,11.37375 c 0,-3.975 -0.77375,-7.95125 -2.09875,-10.71125 -1.9875,-3.865 -4.74875,-5.6325 -8.72375,-5.6325 -3.64375,0 -6.18375,1.10375 -8.06125,3.53375 -2.09875,2.98125 -3.42375,7.62 -3.42375,12.81 0,3.755 0.88375,7.95125 2.20875,10.60125 1.8775,3.86625 4.6375,5.6325 9.055,5.6325 3.31375,0 5.85375,-1.105 7.62,-3.53375 2.20875,-2.76 3.42375,-7.73 3.42375,-12.7 m -4.97,0 c 0,2.43 -0.5525,5.52125 -1.215,7.17875 -1.10375,2.76125 -2.54,3.975 -4.85875,3.975 -1.9875,0 -3.3125,-0.7725 -4.30625,-2.42875 -1.215,-1.98875 -1.87875,-5.4125 -1.87875,-8.725 0,-2.65 0.4425,-5.52125 1.215,-7.39875 1.105,-2.76125 2.65125,-3.975 5.08,-3.865 1.8775,0.11125 3.0925,0.7725 4.08625,2.43 1.215,2.0975 1.8775,5.3 1.8775,8.83375 m 33.23875,-6.95625 c 0,-3.20375 -2.0975,-6.51625 -4.85875,-7.84125 -1.54625,-0.77375 -3.2025,-0.99375 -5.7425,-0.99375 l -10.8225,0 0,31.4725 4.96875,0 0,-13.69375 5.85375,0 c 2.43,0 4.3075,-0.44125 5.7425,-1.10375 2.76125,-1.215 4.85875,-4.52875 4.85875,-7.84 m -5.08,0 c 0,1.32375 -0.7725,2.76 -1.8775,3.31125 -0.88375,0.4425 -1.435,0.5525 -2.98125,0.5525 l -6.51625,0 0,-7.73 6.51625,0 c 1.54625,0 2.0975,0.11125 2.98125,0.5525 1.105,0.6625 1.8775,1.9875 1.8775,3.31375"
   style="fill:#000000;fill-opacity:1;fill-rule:nonzero;stroke:none"
   id="path4873" /><path
   inkscape:connector-curvature="0"
   d="m 94.6685,148.1615 c 0,-3.975 -0.77375,-7.95125 -2.0975,-10.71125 -1.9875,-3.86625 -4.74875,-5.6325 -8.725,-5.6325 -3.645,0 -6.18375,1.105 -8.06125,3.53375 -2.0975,2.98125 -3.4225,7.62 -3.4225,12.81 0,3.755 0.8825,7.95125 2.2075,10.60125 1.8775,3.86625 4.63875,5.6325 9.05625,5.6325 3.3125,0 5.8525,-1.10375 7.61875,-3.53375 2.20875,-2.76125 3.42375,-7.73 3.42375,-12.7 m -4.97,0 c 0,2.43 -0.5525,5.5225 -1.21375,7.1775 -1.105,2.76125 -2.54,3.97625 -4.85875,3.97625 -1.9875,0 -3.31375,-0.7725 -4.3075,-2.43 -1.215,-1.9875 -1.8775,-5.41 -1.8775,-8.72375 0,-2.65 0.4425,-5.5225 1.215,-7.39875 1.10375,-2.76125 2.65,-3.97625 5.08,-3.865 1.8775,0.11 3.0925,0.7725 4.08625,2.42875 1.21375,2.09875 1.87625,5.30125 1.87625,8.835 m 33.23875,15.68125 0,-31.4725 -4.96875,0 0,20.0975 -11.485,-20.0975 -4.97,0 0,31.4725 4.97,0 0,-21.31375 12.0375,21.31375 4.41625,0"
   style="fill:#000000;fill-opacity:1;fill-rule:nonzero;stroke:none"
   id="path4877" /><path
   inkscape:connector-curvature="0"
   d="m 40.23687,188.66425 0,-4.4175 -19.43625,0 0,4.4175 7.1775,0 0,27.05625 4.97,0 0,-27.05625 7.28875,0 z m 26.06,27.05625 -5.52125,-14.6875 c 2.87125,-1.325 4.86,-4.63875 4.86,-7.95125 0,-3.2025 -1.98875,-6.51625 -4.74875,-7.84125 -1.54625,-0.7725 -3.2025,-0.99375 -5.6325,-0.99375 l -10.38125,0 0,31.47375 4.97,0 0,-13.69375 5.9625,0 5.08125,13.69375 5.41,0 z m -5.63125,-22.63875 c 0,1.325 -0.77375,2.65 -1.9875,3.3125 -0.77375,0.4425 -1.32625,0.55125 -2.8725,0.55125 l -5.9625,0 0,-7.72875 5.9625,0 c 1.6575,0 2.09875,0.11 2.8725,0.5525 1.21375,0.66125 1.9875,1.9875 1.9875,3.3125 m 34.67375,22.63875 -10.8225,-31.47375 -4.97,0 -10.82125,31.47375 5.30125,0 3.0925,-8.835 9.8275,0 3.0925,8.835 5.3,0 z m -10.15875,-13.915 -6.295,0 3.2025,-8.835 3.0925,8.835 z m 35.66875,7.51 -4.74875,-1.7675 c -1.215,2.54 -2.76125,3.645 -4.85875,3.645 -2.20875,0 -3.645,-0.77375 -4.74875,-2.43 -1.215,-1.9875 -1.98875,-5.41125 -1.98875,-8.835 0,-2.65 0.4425,-5.41 1.215,-7.28875 1.105,-2.76 2.76125,-3.865 5.30125,-3.865 2.43,0 3.4225,0.66375 5.19,3.31375 l 4.63875,-1.98875 c -2.09875,-4.41625 -5.08,-6.405 -9.82875,-6.405 -3.53375,0 -6.18375,1.215 -8.0625,3.535 -2.20875,2.76 -3.5325,7.73 -3.5325,12.69875 0,3.97625 0.8825,7.95125 2.31875,10.7125 1.9875,3.865 4.96875,5.6325 9.6075,5.6325 4.5275,0 7.62,-2.32 9.4975,-6.9575 m 28.82125,6.405 -10.38,-19.215 9.7175,-12.25875 -6.405,0 -9.93875,12.47875 0,-12.47875 -4.97,0 0,31.47375 4.97,0 0,-10.8225 3.3125,-4.08625 7.95125,14.90875 5.7425,0 z m 24.51375,-9.05625 c 0,-12.3675 -14.7975,-8.5025 -15.23875,-14.35625 -0.22125,-2.87 2.54,-3.755 4.85875,-3.64375 3.53375,0.11 4.63875,2.76125 4.63875,2.76125 l 4.4175,-1.32625 c -1.54625,-3.865 -4.52875,-6.405 -8.945,-6.405 -5.6325,0 -9.82875,2.32 -9.82875,8.50375 0,5.19 4.19625,7.0675 6.0725,7.84125 4.0875,1.65625 8.94625,2.31875 8.94625,6.515 0,2.65 -1.98875,4.63875 -4.85875,4.63875 -2.9825,0 -5.41125,-1.65625 -6.7375,-4.63875 l -4.74875,1.7675 c 2.1,4.74875 6.075,7.95125 11.48625,7.95125 2.65,0 5.07875,-0.88375 6.84625,-2.43 1.9875,-1.76625 3.09125,-4.30625 3.09125,-7.17875"
   style="fill:#000000;fill-opacity:1;fill-rule:nonzero;stroke:none"
   id="path4881" /></svg>