<?xml version="1.0" encoding="UTF-8" standalone="no"?>
<!-- Created with Inkscape (http://www.inkscape.org/) -->

<svg
   xmlns:dc="http://purl.org/dc/elements/1.1/"
   xmlns:cc="http://creativecommons.org/ns#"
   xmlns:rdf="http://www.w3.org/1999/02/22-rdf-syntax-ns#"
   xmlns:svg="http://www.w3.org/2000/svg"
   xmlns="http://www.w3.org/2000/svg"
   xmlns:sodipodi="http://sodipodi.sourceforge.net/DTD/sodipodi-0.dtd"
   xmlns:inkscape="http://www.inkscape.org/namespaces/inkscape"
   width="310.25"
   height="258.78125"
   id="svg4779"
   version="1.1"
   inkscape:version="0.48.2 r9819"
   sodipodi:docname="AJAX1.svg">
  <defs
     id="defs4781" />
  <sodipodi:namedview
     id="base"
     pagecolor="#ffffff"
     bordercolor="#666666"
     borderopacity="1.0"
     inkscape:pageopacity="0.0"
     inkscape:pageshadow="2"
     inkscape:zoom="0.9899495"
     inkscape:cx="334.65645"
     inkscape:cy="125.93392"
     inkscape:document-units="px"
     inkscape:current-layer="layer1"
     showgrid="false"
     inkscape:window-width="1280"
     inkscape:window-height="1004"
     inkscape:window-x="-8"
     inkscape:window-y="-8"
     inkscape:window-maximized="1"
     fit-margin-top="0"
     fit-margin-left="0"
     fit-margin-right="0"
     fit-margin-bottom="0" />
  <metadata
     id="metadata4784">
    <rdf:RDF>
      <cc:Work
         rdf:about="">
        <dc:format>image/svg+xml</dc:format>
        <dc:type
           rdf:resource="http://purl.org/dc/dcmitype/StillImage" />
        <dc:title></dc:title>
      </cc:Work>
    </rdf:RDF>
  </metadata>
  <g
     inkscape:label="Layer 1"
     inkscape:groupmode="layer"
     id="layer1"
     transform="translate(-1725.25,1662.5938)">
    <path
       inkscape:connector-curvature="0"
       d="m 2034.7595,-1423.8528 c 0,10.6138 -8.6838,19.2975 -19.2975,19.2975 l -270.1587,0 c -10.6138,0 -19.2975,-8.6837 -19.2975,-19.2975 l 0,-218.7 c 0,-10.6138 8.6838,-19.2975 19.2975,-19.2975 l 270.1587,0 c 10.6138,0 19.2975,8.6837 19.2975,19.2975 l 0,218.7 z"
       style="fill:#ffffff;fill-opacity:1;fill-rule:nonzero;stroke:#000000;stroke-width:1.5;stroke-miterlimit:4;stroke-opacity:1;stroke-dasharray:none"
       id="path3442" />
    <path
       inkscape:connector-curvature="0"
       d="m 2015.4625,-1656.4899 -270.1588,0 c -7.665,0 -13.9375,6.2712 -13.9375,13.9362 l 0,218.7013 c 0,7.665 6.2725,13.9362 13.9375,13.9362 l 270.1588,0 c 7.665,0 13.9362,-6.2712 13.9362,-13.9362 l 0,-218.7013 c 0,-7.665 -6.2711,-13.9362 -13.9362,-13.9362 m 6.4325,232.6375 c 0,3.5375 -2.895,6.4325 -6.4325,6.4325 l -270.1588,0 c -3.5387,0 -6.4324,-2.895 -6.4324,-6.4325 l 0,-218.7013 c 0,-3.5375 2.8938,-6.4312 6.4324,-6.4312 l 270.1588,0 c 3.5375,0 6.4325,2.8937 6.4325,6.4312 l 0,218.7013 z"
       style="fill:#000000;fill-opacity:1;fill-rule:nonzero;stroke:none"
       id="path3450" />
    <path
       inkscape:connector-curvature="0"
       d="m 1923.1477,-1508.9543 0,0 -24.1424,14.0125 13.3562,11.6575 c 0.395,0.36 0.6825,0.8812 0.915,1.3487 1.21,2.3438 1.1075,5.1575 -1.0313,6.9675 -1.0962,0.9388 -2.6263,1.7163 -4.125,1.61 l -66.4525,-5.125 28.4775,-60.1475 c 0.4863,-1.03 1.1513,-1.8237 2.1288,-2.3675 2.355,-1.3537 5.4325,-0.9 7.255,1.1213 0.4,0.46 1.1712,1.7537 1.3275,2.4462 l 4.2725,18.335 24.1625,-13.985 13.8562,24.1263"
       style="fill:#000000;fill-opacity:1;fill-rule:evenodd;stroke:none"
       id="path3454" />
    <path
       inkscape:connector-curvature="0"
       d="m 1847.1588,-1606.9257 c 0,-3.49 -1.5637,-6.3837 -4.2125,-8.5437 2.7725,-2.8913 3.6088,-4.3338 3.6088,-7.4675 0,-5.2976 -3.2463,-8.9038 -7.8188,-8.9038 l -10.8325,0 0,34.3063 10.1075,0 c 5.0588,0 9.1475,-4.2163 9.1475,-9.3913 m -5.4137,-16.0112 c 0,3.1337 -1.4475,5.0575 -3.7338,5.0575 l -5.175,0 0,-9.1463 5.175,0 c 2.6488,0 3.7338,1.2025 3.7338,4.0888 m 0.6,15.6487 c 0,3.0113 -1.8075,4.9363 -4.5725,4.9363 l -4.9363,0 0,-10.7125 4.9363,0 c 2.525,0 4.5725,2.53 4.5725,5.7762 m 27.9262,9.7538 0,-4.8175 -12.5175,0 0,-11.3163 7.1013,0 0,-4.6925 -7.1013,0 0,-8.665 11.1938,0 0,-4.815 -16.13,0 0,34.3063 17.4537,0 z m 24.315,-9.5125 0,-7.0975 -8.7874,0 0,4.8087 3.855,0 0,2.2888 c 0,3.6112 -1.2063,5.2962 -3.7337,5.2962 -2.6488,0 -4.3325,-1.8025 -5.0538,-5.175 -0.4862,-2.6462 -0.7287,-5.6562 -0.7287,-8.5437 0,-4.0975 0.6012,-7.9463 1.5662,-9.6338 0.8475,-1.6825 2.1725,-2.5262 3.8575,-2.5262 2.4063,0 3.9725,1.5675 4.0925,3.8537 l 4.9325,0 c -0.24,-5.0588 -3.97,-8.67 -8.9062,-8.67 -3.9763,0 -7.4625,2.6487 -8.6713,6.2575 -1.1987,3.2513 -1.5662,6.7463 -1.5662,11.555 0,4.4575 0.7225,9.27 1.8112,11.8013 1.685,3.8525 4.6938,5.9187 8.7838,5.9187 3.4962,0 6.2637,-1.83 7.5887,-4.8375 0.72,-1.4425 0.96,-2.8887 0.96,-5.2962 m 6.7375,9.5125 4.815,0 0,-34.3063 -4.815,0 0,34.3063 z m 31.5388,0 0,-34.3063 -4.9363,0 0,20.5825 -9.3862,-20.5825 -4.9338,0 0,34.3063 4.9338,0 0,-22.9938 10.5912,22.9938 3.7313,0"
       style="fill:#000000;fill-opacity:1;fill-rule:evenodd;stroke:none"
       id="path3458" />
    <path
       inkscape:connector-curvature="0"
       d="m 1762.2048,-1570.8267 c 0,-6.3787 -2.7711,-9.6312 -8.0675,-9.6312 l -6.7387,0 0,34.31 4.3312,0 0,-16.0125 2.0463,0 3.8562,16.0125 4.45,0 -3.4875,-17.0925 c 2.5225,-1.57 3.61,-3.7313 3.61,-7.5863 m -4.4575,-0.1187 c 0,3.2512 -0.72,4.3337 -3.125,4.3337 l -2.8925,0 0,-9.39 2.1675,0 c 3.0088,0 3.85,1.2013 3.85,5.0563 m 8.5938,24.7975 4.335,0 0,-34.3088 -4.335,0 0,34.3088 z m 24.3575,-7.8238 0,-8.7887 -6.3775,0 0,4.4575 2.045,0 0,4.5737 c 0,2.2838 -0.8499,3.7313 -2.4063,3.7313 -1.5675,0 -2.4075,-1.2088 -2.8925,-3.4938 -0.3587,-2.8862 -0.6036,-5.1737 -0.6036,-9.8725 0,-4.6937 0.2449,-6.9787 0.72,-9.7512 0.3687,-2.2888 1.4525,-3.3688 3.0087,-3.3688 1.2088,0 1.93,0.72 2.1738,2.1675 l 4.3325,0 c -0.4813,-4.2137 -2.77,-6.62 -6.6225,-6.62 -3.3675,0 -5.4138,1.325 -6.4975,4.4525 -1.205,3.25 -1.565,6.26 -1.565,13.12 0,6.9863 0.36,10.1163 1.44,13.2438 1.0812,3.2475 3.1287,4.5987 6.6225,4.5987 3.1287,0 5.4137,-1.5862 6.1412,-4 0.2375,-1.0812 0.4813,-2.8825 0.4813,-4.45 m 20.0225,7.8238 0,-34.31 -4.3338,0 0,13.8462 -6.1387,0 0,-13.8462 -4.33,0 0,34.31 4.33,0 0,-16.0125 6.1387,0 0,16.0125 4.3338,0 z m 16.5312,-29.8538 0,-4.4562 -12.9975,0 0,4.4562 4.2088,0 0,29.8538 4.335,0 0,-29.8538 4.4537,0"
       style="fill:#000000;fill-opacity:1;fill-rule:evenodd;stroke:none"
       id="path3462" />
    <path
       inkscape:connector-curvature="0"
       d="m 1862.4216,-1575.9857 0,-4.455 -13,0 0,4.455 4.2137,0 0,29.8575 4.3325,0 0,-29.8575 4.4538,0 z m 17.1462,21.4263 0,-25.8813 -4.3375,0 0,26.485 c 0,2.5338 -1.0812,3.9738 -3.0075,3.9738 -2.0475,0 -3.1325,-1.44 -3.1325,-3.9738 l 0,-26.485 -4.3287,0 0,25.8813 c 0,2.0525 0.24,3.2525 0.5975,4.3387 1.2062,3.13 3.37,4.715 6.8637,4.715 3.0075,0 4.9339,-1.1075 6.2551,-3.63 0.7249,-1.325 1.09,-3.0137 1.09,-5.4237 m 19.6687,-16.2525 c 0,-6.3763 -2.77,-9.6288 -8.0675,-9.6288 l -6.7388,0 0,34.3125 4.33,0 0,-16.0162 2.0488,0 3.8475,16.0162 4.4587,0 -3.4875,-17.0962 c 2.5225,-1.5638 3.6088,-3.7313 3.6088,-7.5875 m -4.4538,-0.1175 c 0,3.255 -0.725,4.3362 -3.1287,4.3362 l -2.8938,0 0,-9.3925 2.1713,0 c 3.0075,0 3.8512,1.2025 3.8512,5.0563 m 22.0738,24.8012 0,-34.3125 -4.3313,0 0,17.0975 -6.1362,-17.0975 -4.3375,0 0,34.3125 4.3375,0 0,-20.3487 6.7387,20.3487 3.7288,0"
       style="fill:#000000;fill-opacity:1;fill-rule:evenodd;stroke:none"
       id="path3466" />
    <path
       inkscape:connector-curvature="0"
       d="m 1956.3898,-1545.8909 0,-3.9738 -8.7911,0 0,-30.3362 -4.3314,0 0,34.31 13.1225,0 z m 19.3875,0 -7.0925,-34.31 -4.46,0 -6.9837,34.31 4.4537,0 1.9301,-9.1475 5.6624,0 1.9201,9.1475 4.5699,0 z m -7.46,-13.605 -3.7325,0 1.9238,-9.0263 1.8087,9.0263 z m 25.7788,13.605 0,-34.31 -4.3388,0 0,17.0925 -6.1424,-17.0925 -4.3325,0 0,34.31 4.3325,0 0,-20.3425 6.7488,20.3425 3.7325,0 z m 19.2712,0 0,-4.45 -8.7912,0 0,-12.0475 5.54,0 0,-4.5688 -5.54,0 0,-8.79 8.3113,0 0,-4.4537 -12.6387,0 0,34.31 13.1187,0 z"
       style="fill:#000000;fill-opacity:1;fill-rule:evenodd;stroke:none"
       id="path3470" />
    <path
       inkscape:connector-curvature="0"
       d="m 1776.4487,-1468.9476 -4.6925,0 -4.4525,12.0388 -4.5725,-12.0388 -4.6937,0 6.9812,18.775 0,15.5288 4.45,0 0,-15.5288 6.98,-18.775 z m 4.6926,34.3038 4.3338,0 0,-34.3038 -4.3338,0 0,34.3038 z m 24.9112,0 0,-4.46 -8.7813,0 0,-12.0313 5.5338,0 0,-4.575 -5.5338,0 0,-8.7812 8.305,0 0,-4.4563 -12.6361,0 0,34.3038 13.1124,0 z m 18.5374,0 0,-3.9725 -8.7849,0 0,-30.3313 -4.3313,0 0,34.3038 13.1162,0 z m 19.5,-17.2113 c 0,-2.89 -0.2448,-6.0175 -0.7249,-8.7925 -0.2388,-2.1625 -0.96,-4.4487 -1.8074,-5.7725 -1.0776,-1.6837 -2.7638,-2.5275 -5.1675,-2.5275 l -7.1113,0 0,34.3038 7.1113,0 c 1.9237,0 3.6036,-0.6025 4.5712,-1.6838 2.045,-2.2887 3.1287,-7.465 3.1287,-15.5275 m -4.4524,1.0825 c 0,3.0075 -0.24,6.8588 -0.3638,8.0613 -0.48,2.5275 -1.325,3.6075 -2.8837,3.6075 l -2.7688,0 0,-25.3875 2.7688,0 c 1.7987,0 2.5274,1.195 2.8837,4.9337 0.1238,2.405 0.3638,6.2525 0.3638,8.785"
       style="fill:#000000;fill-opacity:1;fill-rule:evenodd;stroke:none"
       id="path3474" />
    <path
       inkscape:connector-curvature="0"
       d="m 1875.5727,-1464.4915 0,-4.4563 -12.9962,0 0,4.4563 4.21,0 0,29.8475 4.3337,0 0,-29.8475 4.4525,0 z m 19.7388,12.6362 c 0,-5.7837 0.4801,-17.5725 -7.9449,-17.5725 -8.425,0 -7.94,11.6725 -7.94,17.5725 0,5.6563 -0.6063,17.83 7.94,17.83 8.425,0 7.9449,-12.1737 7.9449,-17.83 m -4.5737,0 c 0,2.2863 0.485,13.3588 -3.3712,13.3588 -3.9675,0 -3.4926,-11.0725 -3.4926,-13.3588 0,-2.405 -0.4749,-13.12 3.4926,-13.12 3.2525,0 3.3712,10.3463 3.3712,13.12"
       style="fill:#000000;fill-opacity:1;fill-rule:evenodd;stroke:none"
       id="path3478" />
    <path
       inkscape:connector-curvature="0"
       d="m 1933.6386,-1444.0361 c 0,-2.1637 -0.2449,-4.4512 -0.7249,-5.775 -0.2389,-1.325 -0.5988,-1.8012 -1.5625,-3.0087 1.2037,-1.81 1.6837,-3.6113 1.6837,-6.9813 0,-6.8625 -1.925,-9.1462 -7.94,-9.1462 l -6.2675,0 0,34.3037 8.19,0 c 4.3338,0 6.6213,-3.2512 6.6213,-9.3925 m -5.0563,-15.765 c 0,3.6125 -0.485,4.6925 -2.4125,4.6925 l -3.005,0 0,-9.3825 2.5288,0 c 2.1687,0 2.8887,1.3238 2.8887,4.69 m 0.6,16.1325 c 0,3.4838 -0.6,4.565 -2.645,4.565 l -3.3725,0 0,-11.4275 3.2538,0 c 2.1637,0 2.7637,1.4413 2.7637,6.8625 m 9.7525,9.025 4.3288,0 0,-34.3037 -4.3288,0 0,34.3037 z m 27.07,0 -6.13,-22.5087 5.6575,-11.795 -5.0537,0 -5.4213,10.9475 0,-10.9475 -4.3362,0 0,34.3037 4.3362,0 0,-12.8799 1.6888,-3.3688 4.5687,16.2487 4.69,0 z m 18.5363,0 0,-4.46 -8.78,0 0,-12.0325 5.535,0 0,-4.575 -5.535,0 0,-8.78 8.31,0 0,-4.4562 -12.6401,0 0,34.3037 13.11,0 z m 18.1787,-7.34 c 0,-2.4137 -0.72,-5.295 -1.6837,-7.465 -1.0851,-2.1637 -1.6839,-3.0112 -5.4176,-7.2275 -1.8088,-1.9262 -2.4112,-3.125 -2.4112,-4.69 0,-2.29 0.97,-3.73 2.6487,-3.73 1.5676,0 2.2937,1.0813 2.4112,3.73 l 4.4526,0 c -0.485,-5.4125 -2.7688,-8.0612 -6.98,-8.0612 -4.0937,0 -6.9787,3.3662 -6.9787,8.0612 0,2.4025 0.8412,4.8175 2.765,7.105 0.3575,0.4775 1.445,1.8013 3.0062,3.6038 2.6475,3.1337 3.735,5.6562 3.735,8.6737 0,2.1638 -1.0875,3.4875 -2.7687,3.4875 -1.3213,0 -2.4075,-0.8387 -2.7675,-2.1637 -0.245,-0.7275 -0.3613,-1.2075 -0.3613,-2.53 l -4.4525,0 c 0.2412,6.0125 2.7688,9.165 7.5813,9.165 1.8087,0 3.3699,-0.6188 4.4525,-1.5825 1.685,-1.44 2.7687,-3.9725 2.7687,-6.3763"
       style="fill:#000000;fill-opacity:1;fill-rule:evenodd;stroke:none"
       id="path3482" />
  </g>
</svg>
