<?xml version="1.0" encoding="UTF-8" standalone="no"?>
<!-- Created with Inkscape (http://www.inkscape.org/) -->

<svg
   xmlns:dc="http://purl.org/dc/elements/1.1/"
   xmlns:cc="http://creativecommons.org/ns#"
   xmlns:rdf="http://www.w3.org/1999/02/22-rdf-syntax-ns#"
   xmlns:svg="http://www.w3.org/2000/svg"
   xmlns="http://www.w3.org/2000/svg"
   xmlns:sodipodi="http://sodipodi.sourceforge.net/DTD/sodipodi-0.dtd"
   xmlns:inkscape="http://www.inkscape.org/namespaces/inkscape"
   version="1.0"
   width="77.016251"
   height="66.028748"
   id="svg2"
   inkscape:version="0.48.2 r9819"
   sodipodi:docname="MUTCD W22-2 (temporary).svg">
  <metadata
     id="metadata13">
    <rdf:RDF>
      <cc:Work
         rdf:about="">
        <dc:format>image/svg+xml</dc:format>
        <dc:type
           rdf:resource="http://purl.org/dc/dcmitype/StillImage" />
        <dc:title></dc:title>
      </cc:Work>
    </rdf:RDF>
  </metadata>
  <sodipodi:namedview
     pagecolor="#ffffff"
     bordercolor="#666666"
     borderopacity="1"
     objecttolerance="10"
     gridtolerance="10"
     guidetolerance="10"
     inkscape:pageopacity="0"
     inkscape:pageshadow="2"
     inkscape:window-width="1280"
     inkscape:window-height="1004"
     id="namedview11"
     showgrid="false"
     fit-margin-top="0"
     fit-margin-left="0"
     fit-margin-right="0"
     fit-margin-bottom="0"
     inkscape:zoom="5.6568543"
     inkscape:cx="23.018678"
     inkscape:cy="31.317062"
     inkscape:window-x="-8"
     inkscape:window-y="-8"
     inkscape:window-maximized="1"
     inkscape:current-layer="svg2" />
  <defs
     id="defs4" />
  <path
     d="M 0.00300151,61.61125 1.508492e-6,4.4175 C -0.00199849,1.9875 1.9850015,0 4.4162515,0 L 72.600002,0.005 c 2.42875,-0.0025 4.41625,1.985 4.41625,4.415 l 0,57.19 c 0,2.43125 -1.9875,4.41875 -4.41625,4.41625 l -68.1812505,0.0025 c -2.43,-0.0025 -4.41624999,-1.99 -4.41624999,-4.4175"
     style="fill:#f4911d;fill-opacity:1;fill-rule:nonzero;stroke:none"
     id="path3585"
     inkscape:connector-curvature="0" />
  <path
     d="m 1.1505015,61.37488 -0.002,-56.72375 c 0,-1.92625 1.57625,-3.50125 3.5025,-3.50375 l 67.7125005,0.005 c 1.92875,0 3.50375,1.575 3.50375,3.50125 l 0.0025,56.72125 c -0.0025,1.92625 -1.58,3.50375 -3.50625,3.50375 l -67.7100005,0 c -1.92625,0 -3.5025,-1.575 -3.5025,-3.50375"
     style="fill:#000000;fill-opacity:1;fill-rule:evenodd;stroke:none"
     id="path3593"
     inkscape:connector-curvature="0" />
  <path
     d="m 2.9180015,61.3625 -0.002,-56.69625 c -0.002,-0.9625 0.78625,-1.75125 1.75,-1.75125 L 72.352252,2.9175 c 0.96375,0 1.75,0.78875 1.75,1.75125 l 0,56.69375 c 0,0.9625 -0.78875,1.75375 -1.75,1.75125 l -67.6837505,0 c -0.96125,0 -1.75,-0.78875 -1.75,-1.75125"
     style="fill:#f4911d;fill-opacity:1;fill-rule:evenodd;stroke:none"
     id="path3597"
     inkscape:connector-curvature="0" />
  <path
     d="m 47.75375,15.58362 c 0,0.825 -0.07625,1.575 -0.15125,2.24875 -0.15,0.825 -0.6375,1.5375 -1.53875,1.5375 l -1.27375,0 0,-7.69 1.27375,0 c 0.67625,0 1.125,0.34 1.38875,1.08875 0.18625,0.4525 0.30125,1.61375 0.30125,2.815 m 1.49875,-0.075 c 0,-0.82625 -0.1125,-1.76375 -0.26125,-2.55125 -0.1875,-1.0875 -0.6375,-1.915 -1.2775,-2.36375 -0.375,-0.3 -0.825,-0.4125 -1.725,-0.4125 l -2.7375,0 0,10.69125 2.96375,0 c 0.59875,0 1.12375,-0.15125 1.49875,-0.48875 1.05,-0.825 1.53875,-2.4 1.53875,-4.875 m -8.28875,5.36375 0,-10.69125 -1.5375,0 0,6.41375 -2.9275,-6.41375 -1.53625,0 0,10.69125 1.53625,0 0,-7.16625 3.3,7.16625 1.165,0 z m -7.8025,0 0,-1.5025 -3.90125,0 0,-3.525 2.21375,0 0,-1.4625 -2.21375,0 0,-2.7025 3.48875,0 0,-1.49875 -5.0275,0 0,10.69125 5.44,0 z"
     style="fill:#000000;fill-opacity:1;fill-rule:evenodd;stroke:none"
     id="path3561"
     inkscape:connector-curvature="0" />
  <path
     d="m 65.1775,35.27862 0,-2.21375 -2.73875,0 0,1.50125 1.20125,0 0,0.7125 c 0,1.1225 -0.37625,1.65 -1.165,1.65 -0.825,0 -1.3475,-0.56375 -1.575,-1.61375 -0.14875,-0.825 -0.22375,-1.7625 -0.22375,-2.66375 0,-1.27375 0.1875,-2.475 0.4875,-3 0.26125,-0.525 0.67375,-0.78875 1.19875,-0.78875 0.7525,0 1.24,0.48875 1.2775,1.20125 l 1.5375,0 c -0.075,-1.575 -1.2375,-2.7 -2.77625,-2.7 -1.2375,0 -2.32625,0.825 -2.7,1.95125 -0.37625,1.0125 -0.4875,2.09875 -0.4875,3.6 0,1.3875 0.22375,2.88875 0.56125,3.675 0.5275,1.20125 1.465,1.845 2.73875,1.845 1.08875,0 1.95125,-0.56875 2.36375,-1.50625 0.225,-0.45125 0.3,-0.9 0.3,-1.65 m -8.06375,2.96125 0,-10.68875 -1.53875,0 0,6.41375 -2.92625,-6.41375 -1.53625,0 0,10.68875 1.53625,0 0,-7.1625 3.3025,7.1625 1.1625,0 z m -8.3275,-10.68875 -1.50125,0 0,10.68875 1.50125,0 0,-10.68875 z m -2.96375,1.42625 0,-1.42625 -5.4375,0 0,1.42625 1.95125,0 0,9.2625 1.535,0 0,-9.2625 1.95125,0 z m -6.41375,6.3375 c 0,-1.5375 -0.90125,-2.7 -2.96125,-3.90125 -0.78875,-0.44875 -1.01375,-0.74875 -1.01375,-1.27375 0,-0.71375 0.56125,-1.23875 1.275,-1.23875 0.67625,0 1.20125,0.48875 1.2375,1.23875 l 1.4625,0 c -0.03625,-1.61375 -1.20125,-2.77625 -2.7,-2.77625 -1.53875,0 -2.74,1.2375 -2.74,2.77625 0,0.9375 0.45,1.7625 1.31375,2.3625 2.175,1.4625 1.575,1.05 1.8025,1.275 0.63625,0.48875 0.86125,0.9375 0.86125,1.5375 0,0.8625 -0.67375,1.61375 -1.49875,1.61375 -1.0525,0 -1.50125,-0.94 -1.50125,-1.8375 l -1.5025,0 c 0,1.7625 1.12625,3.34375 3.00375,3.34375 1.65,0 2.96125,-1.39375 2.96125,-3.12 m -9.565,-1.49875 -1.53625,0 0.75,-3.07625 0.78625,3.07625 z m 2.6625,4.42375 -2.6625,-10.68875 -1.5,0 -2.66375,10.68875 1.53875,0 0.7125,-2.925 2.2875,0 0.7525,2.925 1.535,0 z m -7.4625,0 0,-1.425 -3.90125,0 0,-9.26375 -1.53875,0 0,10.68875 5.44,0 z M 16.3425,35.20362 c 0,0.9375 -0.56375,1.5375 -1.42625,1.5375 l -1.5375,0 0,-3.3375 1.5375,0 c 0.78875,0 1.42625,0.78625 1.42625,1.8 m -0.18875,-4.87625 c 0,0.97375 -0.44875,1.575 -1.16125,1.575 l -1.61375,0 0,-2.85125 1.61375,0 c 0.825,0 1.16125,0.375 1.16125,1.27625 m 1.6875,4.9875 c 0,-1.08625 -0.48625,-1.98625 -1.31125,-2.66375 0.8625,-0.9 1.12375,-1.35 1.12375,-2.32375 0,-1.65 -1.01125,-2.77625 -2.4375,-2.77625 l -3.37625,0 0,10.68875 3.1525,0 c 1.57375,0 2.84875,-1.31125 2.84875,-2.925"
     style="fill:#000000;fill-opacity:1;fill-rule:evenodd;stroke:none"
     id="path3565"
     inkscape:connector-curvature="0" />
  <path
     d="m 53.3275,55.657495 0,-1.50125 -3.90125,0 0,-3.52625 2.21375,0 0,-1.4625 -2.21375,0 0,-2.7 3.48875,0 0,-1.50125 -5.025,0 0,10.69125 5.4375,0 z m -7.725,0 0,-10.69125 -1.53875,0 0,6.41375 -2.92625,-6.41375 -1.53875,0 0,10.69125 1.53875,0 0,-7.16625 3.3,7.16625 1.165,0 z m -9.605,-5.36375 c 0,1.2375 -0.0725,1.875 -0.33625,2.73625 -0.26375,0.90125 -0.67625,1.31375 -1.31375,1.31375 -0.67375,0 -1.08625,-0.4125 -1.35,-1.31375 -0.225,-0.86125 -0.3375,-1.5375 -0.3375,-2.7 0,-1.20125 0.07625,-1.91375 0.3375,-2.73875 0.26375,-0.89875 0.67625,-1.31125 1.35,-1.31125 0.6375,0 1.05,0.4125 1.31375,1.35 0.225,0.78625 0.33625,1.4625 0.33625,2.66375 m 1.4625,0 c 0,-1.61375 -0.14875,-2.6275 -0.5975,-3.6775 -0.5275,-1.3125 -1.2775,-1.8375 -2.515,-1.8375 -1.2375,0 -1.9875,0.525 -2.55125,1.79875 -0.44875,1.01375 -0.5975,2.1025 -0.5975,3.71625 0,1.65 0.14875,2.66125 0.5975,3.7125 0.525,1.275 1.2775,1.84375 2.55125,1.84375 1.20125,0 1.9875,-0.56875 2.515,-1.84375 0.44875,-1.0125 0.5975,-2.0625 0.5975,-3.7125 m -7.875,5.36375 0,-1.465 -4.315,0 4.315,-8.28875 0,-0.97375 -5.47625,0 0,1.49875 3.56125,0 -3.97375,7.5775 0,1.65125 5.88875,0 z"
     style="fill:#000000;fill-opacity:1;fill-rule:evenodd;stroke:none"
     id="path3569"
     inkscape:connector-curvature="0" />
</svg>
