<?xml version="1.0" encoding="UTF-8" standalone="no"?>
<svg xmlns="http://www.w3.org/2000/svg" xml:space="preserve" width="309.78125" height="124.8125" viewBox="-1 0 309.78125 124.8125">
  <path fill="#fff" stroke="#000" stroke-width="1.5" d="M308.03622 104.79627c0 10.5975-8.67 19.2675-19.2675 19.2675H19.018741c-10.5974976 0-19.26874758-8.67001-19.26874758-19.2675V20.0175C-.25000658 9.42 8.4212434.75 19.018741.75H288.76872c10.5975 0 19.2675 8.67 19.2675 19.2675v84.77877z"/>
  <path d="M288.76822 5.88788H19.018241c-7.77125 0-14.1299976 6.35875-14.1299976 14.13v84.77876c0 7.77125 6.3587476 14.13001 14.1299976 14.13001H288.76822c7.77125 0 14.13-6.35875 14.13-14.13001V20.01788c0-7.77125-6.35875-14.13-14.13-14.13m6.4225 98.90876c0 3.53251-2.89 6.4225-6.4225 6.4225H19.018241c-3.5325 0-6.4225-2.88999-6.4225-6.4225V20.01788c0-3.5325 2.89-6.4225 6.4225-6.4225H288.76822c3.5325 0 6.4225 2.89 6.4225 6.4225v84.77876z"/>
  <path d="M155.49073 82.960767V41.853266h5.9075v35.626251h15.0425v5.48125h-20.95zm43.726 0-2.8625-11.26625h-8.83l-2.74125 11.26625h-5.9075l10.23125-41.107501h5.78625l10.23125 41.107501h-5.9075zm-7.36875-28.866251-2.8625 11.875001h5.9075l-3.045-11.875001zm37.69637 28.866251L216.8156 55.433266v27.527501h-5.9075V41.853266h5.9075l11.2675 24.665001V41.853266h5.9075v41.107501h-4.44625zm13.45887 0V41.853266h19.36625v5.785h-13.45875v10.35375h8.52625v5.663751h-8.52625v13.52h15.0425v5.785h-20.95zm-187.050494 0h-12.11875V41.853266h12.97125c5.48125 0 9.37875 4.32375 9.37875 10.6575 0 3.77625-.975 5.48125-4.32375 8.952501 3.16625 2.61875 5.055 6.09 5.055 10.23125 0 6.21125-4.8725 11.26625-10.9625 11.26625m0-35.322501h-6.21125v10.9625h6.21125c2.74 0 4.50625-2.31375 4.50625-6.09 0-3.47125-1.33875-4.8725-4.50625-4.8725m-.305 16.687501h-5.90625v12.85h5.90625c3.35 0 5.48125-2.315 5.48125-5.9075 0-3.8975-2.43625-6.9425-5.48125-6.9425M95.415589 77.90603c-1.94875 3.35-5.9075 5.78625-9.805 5.78625-4.018751 0-8.100001-2.315-10.108751-5.78625-1.1575-2.13125-1.58375-3.8975-1.58375-7.18625V41.853529h5.9075V71.38978c0 3.8975 2.313751 6.51625 5.785001 6.51625 3.16625 0 5.48125-2.61875 5.48125-6.51625V41.853529h5.9075V70.71978c0 3.28875-.36625 5.055-1.58375 7.18625m20.097011 5.785625c-7.18625 0-11.57125-6.09-11.57125-12.85h5.78625c0 3.47125 1.765 7.06375 5.785 7.06375 3.16625 0 5.785-2.86125 5.785-6.21125 0-4.8725-4.20125-6.51625-10.23125-10.77875-3.65375-2.618751-5.05375-5.481251-5.05375-9.135001 0-5.9075 4.5675-10.65875 10.535-10.65875 5.725 0 10.23125 4.5075 10.35375 10.65875h-5.60375c-.1825-2.8625-2.1925-4.75125-4.75-4.75125-2.74 0-4.9325 2.01-4.9325 4.75125 0 2.07.8525 3.16625 3.8975 4.9325 7.9175 4.567501 11.38875 9.073751 11.38875 14.981251 0 6.63875-5.055 11.9975-11.38875 11.9975"/>
</svg>