<?xml version="1.0" encoding="UTF-8" standalone="no"?>
<!-- Created with Inkscape (http://www.inkscape.org/) -->

<svg
   xmlns:dc="http://purl.org/dc/elements/1.1/"
   xmlns:cc="http://creativecommons.org/ns#"
   xmlns:rdf="http://www.w3.org/1999/02/22-rdf-syntax-ns#"
   xmlns:svg="http://www.w3.org/2000/svg"
   xmlns="http://www.w3.org/2000/svg"
   xmlns:sodipodi="http://sodipodi.sourceforge.net/DTD/sodipodi-0.dtd"
   xmlns:inkscape="http://www.inkscape.org/namespaces/inkscape"
   width="2170.0166"
   height="2710.001"
   id="svg2934"
   version="1.1"
   inkscape:version="0.48.2 r9819"
   sodipodi:docname="AJAX2.svg">
  <defs
     id="defs2936">
    <inkscape:perspective
       sodipodi:type="inkscape:persp3d"
       inkscape:vp_x="0 : 526.18109 : 1"
       inkscape:vp_y="0 : 1000 : 0"
       inkscape:vp_z="744.09448 : 526.18109 : 1"
       inkscape:persp3d-origin="372.04724 : 350.78739 : 1"
       id="perspective2942" />
    <inkscape:perspective
       id="perspective2924"
       inkscape:persp3d-origin="0.5 : 0.33333333 : 1"
       inkscape:vp_z="1 : 0.5 : 1"
       inkscape:vp_y="0 : 1000 : 0"
       inkscape:vp_x="0 : 0.5 : 1"
       sodipodi:type="inkscape:persp3d" />
  </defs>
  <sodipodi:namedview
     id="base"
     pagecolor="#ffffff"
     bordercolor="#666666"
     borderopacity="1.0"
     inkscape:pageopacity="0.0"
     inkscape:pageshadow="2"
     inkscape:zoom="0.17376232"
     inkscape:cx="20.575438"
     inkscape:cy="1976.336"
     inkscape:document-units="px"
     inkscape:current-layer="g2909"
     showgrid="false"
     inkscape:window-width="1280"
     inkscape:window-height="1004"
     inkscape:window-x="-8"
     inkscape:window-y="-8"
     inkscape:window-maximized="1"
     fit-margin-top="0"
     fit-margin-left="0"
     fit-margin-right="0"
     fit-margin-bottom="0" />
  <metadata
     id="metadata2939">
    <rdf:RDF>
      <cc:Work
         rdf:about="">
        <dc:format>image/svg+xml</dc:format>
        <dc:type
           rdf:resource="http://purl.org/dc/dcmitype/StillImage" />
        <dc:title></dc:title>
      </cc:Work>
    </rdf:RDF>
  </metadata>
  <g
     inkscape:label="Ebene 1"
     inkscape:groupmode="layer"
     id="layer1"
     transform="translate(-54.448059,2129.6505)">
    <g
       id="g3018"
       transform="translate(2,-2)">
      <g
         id="g2909"
         transform="matrix(0.80835983,0,0,0.80835983,-165.10178,-177.02766)">
        <path
           inkscape:connector-curvature="0"
           style="fill:#ffffff;fill-rule:nonzero;stroke:#000000;stroke-width:12.37072849;stroke-linecap:butt;stroke-linejoin:miter;stroke-miterlimit:4;stroke-opacity:1;stroke-dasharray:none"
           d="m 2947.4014,766.2022 c 0,92.23924 -74.7655,167.00483 -167.0048,167.00483 l -2338.06768,0 c -92.23538,0 -167.00483,-74.76559 -167.00483,-167.00483 l 0,-3006.087 c 0,-92.2338 74.76945,-167.0048 167.00483,-167.0048 l 2338.06768,0 c 92.2393,0 167.0048,74.771 167.0048,167.0048 l 0,3006.087 z"
           id="path11" />
        <path
           inkscape:connector-curvature="0"
           style="fill:#000000;fill-rule:nonzero;stroke:none"
           d="m 2780.3966,-2365.1384 -2338.06768,0 c -69.06594,0 -125.25363,56.1877 -125.25363,125.2536 l 0,3006.08702 c 0,69.05959 56.18769,125.25362 125.25363,125.25362 l 2338.06768,0 c 69.0596,0 125.2536,-56.19403 125.2536,-125.25362 l 0,-3006.08702 c 0,-69.0659 -56.194,-125.2536 -125.2536,-125.2536 z"
           id="path13" />
        <path
           inkscape:connector-curvature="0"
           style="fill:#ffffff;fill-rule:nonzero;stroke:none"
           d="m 2836.0648,766.20222 c 0,30.69487 -24.9734,55.66828 -55.6682,55.66828 l -2338.06768,0 c -30.6958,0 -55.66828,-24.97341 -55.66828,-55.66828 l 0,-3006.08702 c 0,-30.6958 24.97248,-55.6683 55.66828,-55.6683 l 2338.06768,0 c 30.6948,0 55.6682,24.9725 55.6682,55.6683 l 0,3006.08702 z"
           id="path15" />
        <path
           inkscape:connector-curvature="0"
           style="fill:#000000;fill-rule:nonzero;stroke:none"
           d="m 1989.9381,-402.83163 -205.849,-447.68124 0,447.68124 -95.9025,0 0,-668.01937 95.9025,0 182.4529,400.81163 0,-400.81163 95.9041,0 0,668.01937 -72.508,0 z"
           id="path17" />
        <path
           inkscape:connector-curvature="0"
           style="fill:#000000;fill-rule:nonzero;stroke:none"
           d="m 1441.2498,-904.43217 c -16.5257,-58.597 -42.4981,-84.3823 -82.6365,-84.3823 -42.4996,0 -68.4704,25.7853 -84.9977,82.0381 -16.5289,51.5627 -21.2498,96.0973 -21.2498,171.1104 0,72.6626 7.0838,114.8468 21.2498,168.76767 16.5273,56.24043 42.4981,82.0334 84.9977,82.0334 40.1384,0 66.1108,-25.79297 82.6365,-82.0334 16.5288,-53.92087 21.2483,-93.77007 21.2483,-171.11807 0,-74.9976 -7.0823,-117.1973 -21.2483,-166.4158 z m 75.5558,398.47517 c -33.0562,79.68296 -82.6396,114.84676 -158.1923,114.84676 -80.2767,0 -127.4958,-35.1638 -160.5504,-114.84676 -28.3367,-65.64217 -37.7802,-128.91847 -37.7802,-232.05937 0,-100.7906 9.4435,-168.76 37.7802,-232.0456 35.4143,-79.69383 82.6349,-112.50873 160.5504,-112.50873 77.9171,0 125.1361,32.8149 158.1923,114.85143 28.3336,65.6329 37.7755,128.9123 37.7755,229.7029 0,103.1409 -9.4419,168.76763 -37.7755,232.05937 z"
           id="path19" />
        <path
           inkscape:connector-curvature="0"
           style="fill:#000000;fill-rule:nonzero;stroke:none"
           d="m 1153.519,543.5291 0,-668.01934 96.3804,0 0,578.9501 244.4765,0 0,89.06924 -340.8569,0 z"
           id="path21" />
        <path
           inkscape:connector-curvature="0"
           style="fill:#000000;fill-rule:nonzero;stroke:none"
           d="m 1855.4991,41.926984 c -16.5149,-58.59086 -42.4934,-84.38383 -82.6318,-84.38383 -42.4981,0 -68.4705,25.79297 -84.9962,82.04886 -16.5288,51.55501 -21.2498,96.089626 -21.2498,171.102636 0,72.66256 7.0822,114.84675 21.2498,168.7522 16.5257,56.25589 42.4981,82.04886 84.9962,82.04886 40.1384,0 66.1169,-25.79297 82.6318,-82.04886 16.5304,-53.90545 21.2622,-93.75466 21.2622,-171.10264 0,-74.99754 -7.0977,-117.197186 -21.2622,-166.417226 z m 75.5542,398.461166 c -33.0453,79.69842 -82.6364,114.86221 -158.186,114.86221 -80.2768,0 -127.4958,-35.16379 -160.5504,-114.86221 -28.3352,-65.62671 -37.7756,-128.90299 -37.7756,-232.04394 0,-100.79051 9.4404,-168.752196 37.7756,-232.043936 35.4174,-79.698424 82.638,-112.511784 160.5504,-112.511784 77.9155,0 125.1407,32.81336 158.186,114.846754 28.3445,65.64218 37.7771,128.918456 37.7771,229.708966 0,103.14095 -9.4326,168.76767 -37.7771,232.04394 z"
           id="path23" />
        <path
           inkscape:connector-curvature="0"
           style="fill:#000000;fill-rule:nonzero;stroke:none"
           d="M 855.9133,235.03406 C 827.01374,216.30787 798.94919,197.51982 781.03483,184.90168 727.17886,147.00086 698.65042,95.832434 698.65042,37.241574 c 0,-96.1051 75.32382,-173.453084 171.83096,-173.453084 94.15207,0 167.11922,72.662574 169.47592,173.453084 l -91.80166,0 c -2.35198,-46.8850597 -35.3076,-77.34798 -77.67426,-77.34798 -44.72327,0 -80.03242,32.8133603 -80.03242,77.34798 0,32.81336 14.12427,51.57047 63.55616,79.698416 129.45813,74.99754 185.95218,147.66011 185.95218,243.76521 0,107.82636 -82.38599,194.54516 -185.95218,194.54516 -117.69357,0 -188.30723,-98.44006 -188.30723,-208.61687 l 94.15207,0 c 0,56.25589 28.24701,114.86222 94.15516,114.86222 51.78232,0 94.15052,-46.88506 94.15052,-100.79051 0,-41.85945 -17.29737,-77.11603 -92.24234,-125.67114 z"
           id="path25" />
        <path
           inkscape:connector-curvature="0"
           style="fill:#000000;fill-rule:nonzero;stroke:none"
           d="m 2448.8302,543.5291 -82.3118,0 -63.5082,-349.24113 -63.5082,349.24113 -84.6622,0 -105.847,-668.01934 94.0794,0 56.4569,356.27698 65.8432,-356.27698 75.2759,0 63.4927,356.27698 58.8074,-356.27698 94.0794,0 -108.1975,668.01934 z"
           id="path27" />
        <path
           inkscape:connector-curvature="0"
           style="fill:#000000;fill-rule:nonzero;stroke:none"
           d="m 1522.3894,-1431.2289 c -25.8904,58.5955 -80.0309,93.7562 -148.291,93.7562 -80.0294,0 -138.8738,-39.8476 -171.8279,-114.8529 -21.1849,-49.2231 -35.3091,-142.9809 -35.3091,-229.7059 0,-93.7577 7.0636,-161.7318 30.6005,-225.0174 23.5369,-70.3183 91.8001,-121.8841 169.4759,-121.8841 96.5041,0 169.4743,70.3183 174.1814,168.763 l -96.5071,0 c -2.3536,-44.5346 -32.951,-75.0083 -80.0294,-75.0083 -32.9541,0 -58.846,16.4097 -75.3207,49.2246 -18.8298,32.8149 -30.5975,107.8218 -30.5975,187.514 0,56.2559 4.704,114.8529 14.1181,166.4203 14.1228,65.6298 47.0768,100.7905 98.8622,100.7905 49.4304,0 72.9673,-32.8164 72.9673,-103.1347 l 0,-44.5331 -75.3192,0 0,-93.7593 171.8263,0 0,138.2924 c 0,46.8788 -4.7071,75.0068 -18.8298,103.1347 z"
           id="path29" />
        <path
           inkscape:connector-curvature="0"
           style="fill:#000000;fill-rule:nonzero;stroke:none"
           d="m 1942.4344,-1850.793 c -16.5304,-58.5986 -42.5089,-84.3838 -82.6365,-84.3838 -42.5058,0 -68.4766,25.7852 -85.0039,82.038 -16.5257,51.5674 -21.2467,96.1005 -21.2467,171.1073 0,72.6626 7.0791,114.853 21.2467,168.7661 16.5273,56.2513 42.4981,82.035 85.0039,82.035 40.1276,0 66.1061,-25.7837 82.6365,-82.035 16.5304,-53.9131 21.2467,-93.7608 21.2467,-171.1088 0,-75.0053 -7.0822,-117.1972 -21.2467,-166.4188 z m 75.5542,398.4674 c -33.0607,79.6922 -82.6364,114.8529 -158.1907,114.8529 -80.2829,0 -127.5035,-35.1607 -160.5566,-114.8529 -28.3351,-65.6298 -37.7802,-128.9169 -37.7802,-232.0486 0,-100.789 9.4451,-168.7646 37.7802,-232.0501 35.4143,-79.6938 82.6381,-112.5087 160.5566,-112.5087 77.9047,0 125.13,32.8149 158.1907,114.8514 28.329,65.6313 37.7771,128.9184 37.7771,229.7074 0,103.1317 -9.4481,168.7615 -37.7771,232.0486 z"
           id="path31" />
      </g>
    </g>
  </g>
</svg>
