<?xml version="1.0" encoding="UTF-8" standalone="no"?>
<svg
   xmlns:dc="http://purl.org/dc/elements/1.1/"
   xmlns:cc="http://creativecommons.org/ns#"
   xmlns:rdf="http://www.w3.org/1999/02/22-rdf-syntax-ns#"
   xmlns:svg="http://www.w3.org/2000/svg"
   xmlns="http://www.w3.org/2000/svg"
   xmlns:sodipodi="http://sodipodi.sourceforge.net/DTD/sodipodi-0.dtd"
   xmlns:inkscape="http://www.inkscape.org/namespaces/inkscape"
   width="210.40001"
   height="630.39874"
   viewBox="-50 -30 21.040004 63.039864"
   id="svg2"
   version="1.1"
   inkscape:version="0.92.4 (5da689c313, 2019-01-14)"
   sodipodi:docname="MUTCD_R1-6c.svg">
  <metadata
     id="metadata14">
    <rdf:RDF>
      <cc:Work
         rdf:about="">
        <dc:format>image/svg+xml</dc:format>
        <dc:type
           rdf:resource="http://purl.org/dc/dcmitype/StillImage" />
      </cc:Work>
    </rdf:RDF>
  </metadata>
  <defs
     id="defs12" />
  <sodipodi:namedview
     pagecolor="#ffffff"
     bordercolor="#666666"
     borderopacity="1"
     objecttolerance="10"
     gridtolerance="10"
     guidetolerance="10"
     inkscape:pageopacity="0"
     inkscape:pageshadow="2"
     inkscape:window-width="1920"
     inkscape:window-height="1057"
     id="namedview10"
     showgrid="false"
     fit-margin-top="0.2"
     fit-margin-left="0.2"
     fit-margin-right="0.2"
     fit-margin-bottom="0.2"
     inkscape:zoom="1.2443803"
     inkscape:cx="114.16331"
     inkscape:cy="527.47173"
     inkscape:window-x="-8"
     inkscape:window-y="-8"
     inkscape:window-maximized="1"
     inkscape:current-layer="svg2"
     showguides="true"
     inkscape:guide-bbox="true" />
  <path
     inkscape:connector-curvature="0"
     d="m -28.979997,30.394863 c 0,1.44975 -1.17525,2.625 -2.625,2.625 l -15.750003,0 c -1.449875,0 -2.625,-1.17525 -2.625,-2.625 l 0,-57.749884 c 0,-1.44975 1.175125,-2.625 2.625,-2.625 l 15.750003,0 c 1.44975,0 2.625,1.17525 2.625,2.625 l 0,57.749884 z"
     style="fill:#cdff00;fill-opacity:1;fill-rule:nonzero;stroke:none"
     id="path3025" />
  <path
     inkscape:connector-curvature="0"
     d="m -30.729997,21.644861 c 0,0.966501 -0.783625,1.750001 -1.75,1.750001 l -14.000002,0 c -0.966376,0 -1.750001,-0.7835 -1.750001,-1.750001 l 0,-38.49988 c 0,-0.9665 0.783625,-1.75 1.750001,-1.75 l 14.000002,0 c 0.966375,0 1.75,0.7835 1.75,1.75 l 0,38.49988 z"
     style="fill:#000000;fill-opacity:1;fill-rule:nonzero;stroke:none"
     id="path3033" />
  <path
     inkscape:connector-curvature="0"
     d="m -46.479999,22.957362 c -0.723751,0 -1.312501,-0.588626 -1.312501,-1.312501 l 0,-38.49988 c 0,-0.72375 0.58875,-1.3125 1.312501,-1.3125 l 14.000002,0 c 0.72375,0 1.3125,0.58875 1.3125,1.3125 l 0,38.49988 c 0,0.723875 -0.58875,1.312501 -1.3125,1.312501 l -14.000002,0 z"
     style="fill:#ffffff;fill-opacity:1;fill-rule:nonzero;stroke:none"
     id="path3037" />
  <path
     inkscape:connector-curvature="0"
     d="m -42.009174,-27.738809 0,3.008751 -0.554875,0 0,-3.008751 -0.801875,0 0,-0.49125 2.171,0 0,0.49125 -0.81425,0 z"
     style="fill:#000000;fill-opacity:1;fill-rule:nonzero;stroke:none"
     id="path3041" />
  <path
     inkscape:connector-curvature="0"
     d="m -36.441423,-27.738809 0,3.008751 -0.555,0 0,-3.008751 -0.80175,0 0,-0.49125 2.170875,0 0,0.49125 -0.814125,0 z"
     style="fill:#000000;fill-opacity:1;fill-rule:nonzero;stroke:none"
     id="path3045" />
  <path
     inkscape:connector-curvature="0"
     d="m -43.989636,-24.938758 c -0.1965,0.171875 -0.46675,0.270125 -0.7615,0.270125 -0.60175,0 -1.043875,-0.356125 -1.277375,-0.88425 l 0.528125,-0.196375 c 0.1475,0.3315 0.417625,0.51575 0.74925,0.51575 0.319375,0 0.54025,-0.221125 0.54025,-0.51575 0,-0.466751 -0.54025,-0.540501 -0.994875,-0.724626 -0.208625,-0.086 -0.67525,-0.29475 -0.67525,-0.872 0,-0.687625 0.466625,-0.9455 1.093,-0.9455 0.49125,0 0.82275,0.282375 0.99475,0.71225 l -0.49125,0.147375 c 0,0 -0.122875,-0.29475 -0.51575,-0.307 -0.258,-0.01237 -0.565,0.08588 -0.5405,0.40525 0.04912,0.650875 1.694875,0.221 1.694875,1.596376 0,0.319375 -0.12275,0.601875 -0.34375,0.798375"
     style="fill:#000000;fill-opacity:1;fill-rule:nonzero;stroke:none"
     id="path3049" />
  <path
     inkscape:connector-curvature="0"
     d="m -35.102435,-24.73002 0,-3.500001 2.0605,0 0,0.552625 -1.508625,0 0,0.859625 1.018125,0 0,0.564875 -1.018125,0 0,0.957876 1.619,0 0,0.565 -2.170875,0 z"
     style="fill:#000000;fill-opacity:1;fill-rule:nonzero;stroke:none"
     id="path3053" />
  <path
     inkscape:connector-curvature="0"
     d="m -39.490498,-27.259809 -0.358126,0.982375 0.704126,0 -0.346,-0.982375 z m 0.889375,2.529751 -0.345875,-0.982375 -1.099251,0 -0.345875,0.982375 -0.592875,0 1.2105,-3.500001 0.555751,0 1.210375,3.500001 -0.59275,0 z"
     style="fill:#000000;fill-opacity:1;fill-rule:nonzero;stroke:none"
     id="path3057" />
  <path
     inkscape:connector-curvature="0"
     d="m -43.822162,-19.91752 0,-3.5 0.551875,0 0,2.98425 1.619,0 0,0.51575 -2.170875,0 z"
     style="fill:#000000;fill-opacity:1;fill-rule:nonzero;stroke:none"
     id="path3061" />
  <path
     inkscape:connector-curvature="0"
     d="m -35.655286,-19.91752 -0.492625,0 -0.5545,-2.247375 -0.542,2.247375 -0.49275,0 -0.517375,-3.5 0.566625,0 0.271,1.842125 0.4435,-1.842125 0.542125,0 0.45575,1.842125 0.271,-1.842125 0.56675,0 -0.5175,3.5 z"
     style="fill:#000000;fill-opacity:1;fill-rule:nonzero;stroke:none"
     id="path3065" />
  <path
     inkscape:connector-curvature="0"
     d="m -39.946799,-22.447308 -0.358125,0.982375 0.704126,0 -0.346001,-0.982375 z m 0.889376,2.52975 -0.345875,-0.982375 -1.099251,0 -0.345875,0.982375 -0.592875,0 1.2105,-3.5 0.55575,0 1.210376,3.5 -0.59275,0 z"
     style="fill:#000000;fill-opacity:1;fill-rule:nonzero;stroke:none"
     id="path3069" />
  <path
     inkscape:connector-curvature="0"
     d="m -36.241223,9.9273349 0.722,1.1031251 -0.1805,0.6815 -0.241125,0.06075 -0.300375,-1.8453751 z m -4.692751,2.4676251 -0.221,0.039 0.20075,-0.902375 0.180375,0.381125 -0.160125,0.48225 z m 5.214126,1.14225 1.644625,-0.481 -0.441875,-1.604125 -0.420125,0.05925 0.140125,-0.862125 -1.344375,-2.5471251 -0.722125,-0.3205 -0.119875,-0.280126 c -0.09013,0.07212 -0.184,0.1335 -0.290875,0.177626 -0.10825,0.04388 -0.226625,0.07425 -0.343625,0.07925 -0.08387,0.0038 -0.165375,-0.0014 -0.247625,-0.01725 l -0.0405,0.241125 -0.56175,0.52125 -0.70175,2.3667501 -1.022251,0.421625 -0.582,-1.28375 -0.882125,-0.5008751 c -0.07163,0.04025 -0.14375,0.07788 -0.223125,0.101 -0.07362,0.02087 -0.1495,0.041 -0.22675,0.04175 -0.1125,0.0015 -0.2245,-0.01287 -0.33275,-0.04313 l -0.02025,0 -0.620875,0.6612501 -0.622375,1.985375 -1.1825,1.123375 0.340625,0.3205 1.403625,-0.922625 0.1805,-0.740625 0.220875,0.6815 -0.9025,2.786875 0.3205,0.101001 -0.942875,3.54925 0.5025,0.180625 1.342875,-3.54925 0.5415,0.04037 1.484375,3.448125 0.521375,-0.16025 -1.06275,-3.348625 c 0.107375,-0.02387 0.213625,-0.05412 0.321875,-0.07787 0.09462,-0.02163 0.18775,-0.052 0.280125,-0.08238 l -0.5415,-1.664876 1.343001,-0.320625 -0.280251,-1.3645 -0.3205,0 0.2195,-0.34075 -0.039,-0.07937 1.162376,-0.322 0.300375,-0.52125 0.441875,1.845375 -0.862125,2.727625 -0.241125,4.151376 0.942875,0.08075 0.340875,-3.4495 0.581875,-1.283626 0.4405,1.764376 1.644625,3.068375 0.862,-0.421625 -1.543625,-3.18825 0.160375,-2.747751 z"
     style="fill:#000000;fill-opacity:1;fill-rule:evenodd;stroke:none"
     id="path3073" />
  <path
     inkscape:connector-curvature="0"
     d="m -38.45546,7.4307459 c 0.3595,0.245376 0.840375,0.253376 1.2,0.0049 0.309625,-0.213625 0.463375,-0.5255 0.47275,-0.897375 0.0086,-0.355125 -0.179,-0.698125 -0.47075,-0.89725 -0.2995,-0.204375 -0.68225,-0.23975 -1.015125,-0.09763 -0.395625,0.16975 -0.65975,0.563125 -0.65975,0.994875 -8e-4,0.35525 0.179625,0.692376 0.472875,0.892501"
     style="fill:#000000;fill-opacity:1;fill-rule:evenodd;stroke:none"
     id="path3077" />
  <path
     inkscape:connector-curvature="0"
     d="m -41.814836,9.4262339 c 0.387,-0.165375 0.6275,-0.524875 0.639625,-0.943 0.01013,-0.337125 -0.189125,-0.6765 -0.466375,-0.858376 -0.397125,-0.259125 -0.9465,-0.203625 -1.28075,0.132126 -0.334375,0.335 -0.395,0.88375 -0.13375,1.280875 0.268,0.407 0.789375,0.581125 1.24125,0.388375"
     style="fill:#000000;fill-opacity:1;fill-rule:evenodd;stroke:none"
     id="path3081" />
  <path
     inkscape:connector-curvature="0"
     d="m -38.215223,27.332362 0,-1.188 -0.716875,0 0,1.188 -0.377,0 0,-2.625 0.377,0 0,1.068625 0.716875,0 0,-1.068625 0.376875,0 0,2.625 -0.376875,0 z"
     style="fill:#000000;fill-opacity:1;fill-rule:nonzero;stroke:none"
     id="path3085" />
  <path
     inkscape:connector-curvature="0"
     d="m -41.750874,24.707399 0.367375,0 0,2.625 -0.367375,0 0,-2.625 z"
     style="fill:#000000;fill-opacity:1;fill-rule:nonzero;stroke:none"
     id="path3087" />
  <path
     inkscape:connector-curvature="0"
     d="m -37.260873,24.707399 0.367375,0 0,2.625 -0.367375,0 0,-2.625 z"
     style="fill:#000000;fill-opacity:1;fill-rule:nonzero;stroke:none"
     id="path3089" />
  <path
     inkscape:connector-curvature="0"
     d="m -35.130148,27.332362 -0.808875,-1.759 0,1.759 -0.37675,0 0,-2.625 0.37675,0 0.717,1.575 0,-1.575 0.37675,0 0,2.625 -0.284875,0 z"
     style="fill:#000000;fill-opacity:1;fill-rule:nonzero;stroke:none"
     id="path3093" />
  <path
     inkscape:connector-curvature="0"
     d="m -40.156874,25.057462 0,2.274875 -0.37875,0 0,-2.274875 -0.480375,0 0,-0.350125 1.3395,0 0,0.350125 -0.480375,0 z"
     style="fill:#000000;fill-opacity:1;fill-rule:nonzero;stroke:none"
     id="path3097" />
  <path
     inkscape:connector-curvature="0"
     d="m -42.543599,27.332362 -0.3235,0 -0.2495,-1.372375 -0.2495,1.372375 -0.33275,0 -0.415875,-2.625 0.36975,0 0.221625,1.400125 0.25875,-1.400125 0.296,0 0.2495,1.400125 0.230875,-1.400125 0.36975,0 -0.425125,2.625 z"
     style="fill:#000000;fill-opacity:1;fill-rule:nonzero;stroke:none"
     id="path3101" />
  <path
     inkscape:connector-curvature="0"
     d="m -35.53701,29.427825 -0.18475,0.755375 0.37875,0 -0.194,-0.755375 z m 0.471,1.842 -0.18475,-0.71825 -0.56325,0 -0.175375,0.71825 -0.378625,0 0.655625,-2.625001 0.369375,0 0.655625,2.625001 -0.378625,0 z"
     style="fill:#000000;fill-opacity:1;fill-rule:nonzero;stroke:none"
     id="path3105" />
  <path
     inkscape:connector-curvature="0"
     d="m -46.726213,29.345061 c -0.037,-0.258 -0.138625,-0.377625 -0.3145,-0.377625 -0.30525,0 -0.41625,0.2395 -0.41625,0.920876 0,0.755375 0.1295,1.05925 0.45325,1.05925 0.222,0 0.2775,-0.18425 0.2775,-0.377625 l 0.379126,0 c -0.0091,0.432875 -0.286626,0.746125 -0.656626,0.746125 -0.56425,0 -0.813875,-0.4515 -0.813875,-1.4185 0,-0.847376 0.268125,-1.298626 0.78625,-1.298626 0.212625,0 0.397625,0.09213 0.517751,0.267125 0.101875,0.128875 0.138875,0.2395 0.1665,0.479 l -0.379126,0 z"
     style="fill:#000000;fill-opacity:1;fill-rule:nonzero;stroke:none"
     id="path3109" />
  <path
     inkscape:connector-curvature="0"
     d="m -31.53761,31.269863 -0.459625,-1.28025 -0.238875,0.442125 0,0.838125 -0.377,0 0,-2.625001 0.377,0 0,1.050001 0.597375,-1.050001 0.432,0 -0.54225,0.921126 0.606625,1.703875 -0.39525,0 z"
     style="fill:#000000;fill-opacity:1;fill-rule:nonzero;stroke:none"
     id="path3113" />
  <path
     inkscape:connector-curvature="0"
     d="m -34.319961,31.269863 0,-2.625001 0.37875,0 0,2.275126 0.96075,0 0,0.349875 -1.3395,0 z"
     style="fill:#000000;fill-opacity:1;fill-rule:nonzero;stroke:none"
     id="path3117" />
  <path
     inkscape:connector-curvature="0"
     d="m -42.853536,29.298911 c -0.065,-0.23025 -0.167,-0.3315 -0.32475,-0.3315 -0.167,0 -0.269,0.10125 -0.334,0.32225 -0.06488,0.202626 -0.0835,0.377626 -0.0835,0.672376 0,0.285625 0.02775,0.451375 0.0835,0.663 0.065,0.22125 0.167,0.3225 0.334,0.3225 0.15775,0 0.25975,-0.10125 0.32475,-0.3225 0.065,-0.211625 0.0835,-0.368375 0.0835,-0.672375 0,-0.294625 -0.02788,-0.460375 -0.0835,-0.653751 m 0.296875,1.565626 c -0.129875,0.31325 -0.32475,0.4515 -0.621625,0.4515 -0.315375,0 -0.500875,-0.13825 -0.630875,-0.4515 -0.111375,-0.25775 -0.1485,-0.5065 -0.1485,-0.911875 0,-0.395875 0.03712,-0.663001 0.1485,-0.911751 0.13925,-0.313 0.32475,-0.442 0.630875,-0.442 0.30625,0 0.49175,0.129 0.621625,0.45125 0.1115,0.258 0.1485,0.506626 0.1485,0.902501 0,0.405375 -0.037,0.663375 -0.1485,0.911875"
     style="fill:#000000;fill-opacity:1;fill-rule:nonzero;stroke:none"
     id="path3121" />
  <path
     inkscape:connector-curvature="0"
     d="m -45.059099,29.013274 -0.386125,0 0,0.663376 0.386125,0 c 0.220625,0 0.340125,-0.119875 0.340125,-0.331876 0,-0.202625 -0.137875,-0.3315 -0.340125,-0.3315 m 0.321625,2.256626 -0.34925,-1.234125 -0.3585,0 0,1.234125 -0.37675,0 0,-2.625001 0.78125,0 c 0.413625,0 0.689375,0.276375 0.689375,0.699875 0,0.313251 -0.128625,0.543501 -0.376875,0.635751 l 0.376875,1.289375 -0.386125,0 z"
     style="fill:#000000;fill-opacity:1;fill-rule:nonzero;stroke:none"
     id="path3125" />
  <path
     inkscape:connector-curvature="0"
     d="m -41.266987,30.0577 c -0.1135,-0.07375 -0.223875,-0.1475 -0.29425,-0.197 -0.211625,-0.149 -0.323625,-0.349875 -0.323625,-0.580376 0,-0.377375 0.295875,-0.681375 0.675125,-0.681375 0.37,0 0.65675,0.285375 0.665875,0.681375 l -0.360625,0 c -0.0093,-0.184 -0.138875,-0.303875 -0.30525,-0.303875 -0.17575,0 -0.314625,0.129125 -0.314625,0.303875 0,0.129126 0.05562,0.202626 0.24975,0.313251 0.508875,0.29475 0.73075,0.580375 0.73075,0.958 0,0.423625 -0.32375,0.764375 -0.73075,0.764375 -0.462375,0 -0.739875,-0.386875 -0.739875,-0.81975 l 0.37,0 c 0,0.221125 0.111,0.451375 0.369875,0.451375 0.203625,0 0.370125,-0.18425 0.370125,-0.396 0,-0.1645 -0.06813,-0.30325 -0.3625,-0.493875"
     style="fill:#000000;fill-opacity:1;fill-rule:nonzero;stroke:none"
     id="path3129" />
  <path
     inkscape:connector-curvature="0"
     d="m -39.481336,30.0577 c -0.113625,-0.07375 -0.223876,-0.1475 -0.294251,-0.197 -0.211625,-0.149 -0.323625,-0.349875 -0.323625,-0.580376 0,-0.377375 0.295875,-0.681375 0.675126,-0.681375 0.37,0 0.65675,0.285375 0.665875,0.681375 l -0.36075,0 c -0.0093,-0.184 -0.138625,-0.303875 -0.305125,-0.303875 -0.17575,0 -0.314501,0.129125 -0.314501,0.303875 0,0.129126 0.0555,0.202626 0.249626,0.313251 0.508875,0.29475 0.73075,0.580375 0.73075,0.958 0,0.423625 -0.32375,0.764375 -0.73075,0.764375 -0.462376,0 -0.739751,-0.386875 -0.739751,-0.81975 l 0.369875,0 c 0,0.221125 0.111,0.451375 0.369876,0.451375 0.2035,0 0.37,-0.18425 0.37,-0.396 0,-0.1645 -0.068,-0.30325 -0.362375,-0.493875"
     style="fill:#000000;fill-opacity:1;fill-rule:nonzero;stroke:none"
     id="path3133" />
  <path
     inkscape:connector-curvature="0"
     d="m -36.950698,31.269863 -0.3235,0 -0.2495,-1.372375 -0.249625,1.372375 -0.332625,0 -0.415875,-2.625001 0.369625,0 0.22175,1.400126 0.25875,-1.400126 0.295875,0 0.249625,1.400126 0.230875,-1.400126 0.369625,0 -0.425,2.625001 z"
     style="fill:#000000;fill-opacity:1;fill-rule:nonzero;stroke:none"
     id="path3137" />
  <path
     inkscape:connector-curvature="0"
     d="m -39.317398,1.2251829 c -0.08313,-0.138 -0.18475,-0.193375 -0.341626,-0.202625 -0.203125,-0.0091 -0.3325,0.09212 -0.42475,0.322375 -0.0645,0.156625 -0.1015,0.396125 -0.1015,0.61725 0,0.276125 0.05538,0.56175 0.156875,0.7275 0.08325,0.138125 0.193875,0.202625 0.36,0.202625 0.194001,0 0.314001,-0.101375 0.406376,-0.3315 0.05538,-0.13825 0.101625,-0.396125 0.101625,-0.598625 0,-0.294875 -0.05538,-0.562 -0.157,-0.737 m 0.286125,1.796125 c -0.14775,0.202625 -0.36,0.29475 -0.637126,0.29475 -0.36925,0 -0.6,-0.147375 -0.757,-0.46975 -0.11075,-0.221125 -0.184625,-0.571125 -0.184625,-0.884125 0,-0.433 0.11075,-0.819875 0.286125,-1.068501 0.157,-0.202625 0.369375,-0.29475 0.674125,-0.29475 0.332376,0 0.563251,0.147375 0.729376,0.469751 0.110875,0.23025 0.175375,0.56175 0.175375,0.8935 0,0.414375 -0.1015,0.82875 -0.28625,1.059125"
     style="fill:#000000;fill-opacity:1;fill-rule:nonzero;stroke:none"
     id="path3141" />
  <path
     inkscape:connector-curvature="0"
     d="m -37.016136,1.1054329 c -0.0645,-0.03675 -0.101375,-0.046 -0.2395,-0.046 l -0.4975,0 0,0.64475 0.4975,0 c 0.129,0 0.175,-0.0093 0.2395,-0.046 0.101375,-0.05537 0.16575,-0.165875 0.16575,-0.276375 0,-0.110625 -0.06437,-0.221125 -0.16575,-0.276375 m 0.18425,2.1645 -0.42375,-1.142125 -0.4975,0 0,1.142125 -0.414375,0 0,-2.625001 0.865875,0 c 0.202625,0 0.34075,0.0185 0.46975,0.08288 0.23025,0.1105 0.396125,0.386876 0.396125,0.654001 0,0.276375 -0.165875,0.552625 -0.405375,0.66325 l 0.460625,1.224875 -0.451375,0 z"
     style="fill:#000000;fill-opacity:1;fill-rule:nonzero;stroke:none"
     id="path3145" />
  <path
     inkscape:connector-curvature="0"
     d="m -42.165424,1.0594079 0,0.64475 0.763375,0 0,0.42375 -0.763375,0 0,1.142125 -0.414125,0 0,-2.625001 1.62825,0 0,0.414376 -1.214125,0 z"
     style="fill:#000000;fill-opacity:1;fill-rule:nonzero;stroke:none"
     id="path3149" />
  <path
     inkscape:connector-curvature="0"
     d="m -46.261249,-11.133344 3.973,-3.971626 5.610626,0 3.978876,3.971626 0,5.6191259 -3.978876,3.97175 -5.610626,0 -3.973,-3.97175 0,-5.6191259 z"
     style="fill:#af1e2d;fill-opacity:1;fill-rule:evenodd;stroke:none"
     id="path3153" />
  <path
     inkscape:connector-curvature="0"
     d="m -44.384662,-5.8640551 c -0.833,0 -1.33275,-0.699751 -1.33275,-1.482751 l 0.666375,0 c 0,0.399875 0.2,0.816375 0.666375,0.816375 0.366625,0 0.6665,-0.33325 0.6665,-0.7165 0,-0.2665 -0.100125,-0.466375 -0.38325,-0.683 -0.09987,-0.1 0.166625,0.08337 -0.799625,-0.5665 -0.38325,-0.2665 -0.58325,-0.633 -0.58325,-1.0495 0,-0.6831249 0.53325,-1.2328749 1.216375,-1.2328749 0.66625,0 1.18275,0.516375 1.199375,1.2328749 l -0.649625,0 c -0.01675,-0.33325 -0.25,-0.5498749 -0.54975,-0.5498749 -0.31675,0 -0.566625,0.2333749 -0.566625,0.5498749 0,0.23325 0.1,0.3665 0.449875,0.566375 0.91625,0.53325 1.316125,1.049625 1.316125,1.732625 0,0.766375 -0.583,1.382876 -1.316125,1.382876"
     style="fill:#ffffff;fill-opacity:1;fill-rule:nonzero;stroke:none"
     id="path3157" />
  <path
     inkscape:connector-curvature="0"
     d="m -41.086074,-10.062419 0,4.1150009 -0.683,0 0,-4.1150009 -0.866375,0 0,-0.633 2.415875,0 0,0.633 -0.8665,0 z"
     style="fill:#ffffff;fill-opacity:1;fill-rule:nonzero;stroke:none"
     id="path3161" />
  <path
     inkscape:connector-curvature="0"
     d="m -37.670911,-9.5126181 c -0.116625,-0.4165 -0.29975,-0.5997499 -0.583125,-0.5997499 -0.29975,0 -0.483,0.1832499 -0.59975,0.5829999 -0.116625,0.366625 -0.149875,0.683125 -0.149875,1.21625 0,0.5165 0.04988,0.816375 0.149875,1.1995 0.11675,0.399875 0.3,0.583125 0.59975,0.583125 0.283375,0 0.4665,-0.18325 0.583125,-0.583125 0.11675,-0.383125 0.149875,-0.666375 0.149875,-1.216125 0,-0.533125 -0.04988,-0.833 -0.149875,-1.182875 m 0.533125,2.832125 c -0.23325,0.566501 -0.583,0.816376 -1.11625,0.816376 -0.566375,0 -0.899625,-0.249875 -1.132875,-0.816376 -0.199875,-0.466375 -0.266501,-0.91625 -0.266501,-1.64925 0,-0.7165 0.06663,-1.199625 0.266501,-1.64925 0.249875,-0.5666249 0.583125,-0.7998749 1.132875,-0.7998749 0.54975,0 0.883,0.23325 1.11625,0.8163749 0.199875,0.4665 0.2665,0.91625 0.2665,1.63275 0,0.733 -0.06663,1.1995 -0.2665,1.64925"
     style="fill:#ffffff;fill-opacity:1;fill-rule:nonzero;stroke:none"
     id="path3165" />
  <path
     inkscape:connector-curvature="0"
     d="m -34.538836,-10.029093 -0.69975,0 0,1.3494999 0.69975,0 c 0.39975,0 0.616375,-0.249875 0.616375,-0.683125 0,-0.39975 -0.249875,-0.6663749 -0.616375,-0.6663749 m 0.03337,1.9991249 -0.733125,0 0,2.082501 -0.683125,0 0,-4.7480009 1.41625,0 c 0.749625,0 1.249375,0.533125 1.249375,1.3327499 0,0.866375 -0.44975,1.33275 -1.249375,1.33275"
     style="fill:#ffffff;fill-opacity:1;fill-rule:nonzero;stroke:none"
     id="path3169" />
</svg>
