<?xml version="1.0" encoding="UTF-8" standalone="no"?>
<!-- Generator: Adobe Illustrator 14.0.0, SVG Export Plug-In  -->

<svg
   xmlns:dc="http://purl.org/dc/elements/1.1/"
   xmlns:cc="http://creativecommons.org/ns#"
   xmlns:rdf="http://www.w3.org/1999/02/22-rdf-syntax-ns#"
   xmlns:svg="http://www.w3.org/2000/svg"
   xmlns="http://www.w3.org/2000/svg"
   xmlns:sodipodi="http://sodipodi.sourceforge.net/DTD/sodipodi-0.dtd"
   xmlns:inkscape="http://www.inkscape.org/namespaces/inkscape"
   version="1.1"
   x="0px"
   y="0px"
   width="136.62498"
   height="181.81248"
   viewBox="0 -0.321 136.62499 181.81251"
   enable-background="new 0 -0.321 144 120"
   xml:space="preserve"
   id="svg2"
   inkscape:version="0.48.2 r9819"
   sodipodi:docname="MUTCD R1-5bR.svg"><metadata
   id="metadata44"><rdf:RDF><cc:Work
       rdf:about=""><dc:format>image/svg+xml</dc:format><dc:type
         rdf:resource="http://purl.org/dc/dcmitype/StillImage" /><dc:title></dc:title></cc:Work></rdf:RDF></metadata><sodipodi:namedview
   pagecolor="#ffffff"
   bordercolor="#666666"
   borderopacity="1"
   objecttolerance="10"
   gridtolerance="10"
   guidetolerance="10"
   inkscape:pageopacity="0"
   inkscape:pageshadow="2"
   inkscape:window-width="1280"
   inkscape:window-height="1004"
   id="namedview42"
   showgrid="false"
   fit-margin-top="0"
   fit-margin-left="0"
   fit-margin-right="0"
   fit-margin-bottom="0"
   inkscape:zoom="1.8952344"
   inkscape:cx="37.228515"
   inkscape:cy="88.592066"
   inkscape:window-x="-8"
   inkscape:window-y="-8"
   inkscape:window-maximized="1"
   inkscape:current-layer="svg2" />
<defs
   id="defs4">
</defs>


















<path
   inkscape:connector-curvature="0"
   d="m 136.1104,169.69792 c 0,6.24125 -5.06,11.30125 -11.30125,11.30125 l -113.017499,0 c -6.2425,0 -11.30124988,-5.06 -11.30124988,-11.30125 l 0,-158.22627 C 0.49040112,5.2304 5.549151,0.1704 11.791651,0.1704 l 113.017499,0 c 6.24125,0 11.30125,5.06 11.30125,11.30125 l 0,158.22627 z"
   style="fill:#ffffff;fill-opacity:1;fill-rule:nonzero;stroke:#000000;stroke-width:1.00000012;stroke-miterlimit:4;stroke-opacity:1;stroke-dasharray:none"
   id="path3357" /><path
   inkscape:connector-curvature="0"
   d="m 128.57664,169.69792 c 0,2.07625 -1.69124,3.76625 -3.7675,3.76625 l -113.017489,0 c -2.0775,0 -3.7675,-1.69 -3.7675,-3.76625 l 0,-158.22627 c 0,-2.07625 1.69,-3.76625 3.7675,-3.76625 l 113.017489,0 c 2.07625,0 3.7675,1.69 3.7675,3.76625 l 0,158.22627 z m -3.7675,-166.70252 -113.017489,0 c -4.67375,0 -8.47625,3.8025 -8.47625,8.47625 l 0,158.22627 c 0,4.6725 3.8025,8.475 8.47625,8.475 l 113.017489,0 c 4.6725,0 8.475,-3.8025 8.475,-8.475 l 0,-158.22627 c 0,-4.67375 -3.8025,-8.47625 -8.475,-8.47625"
   style="fill:#000000;fill-opacity:1;fill-rule:nonzero;stroke:none"
   id="path3381" /><path
   inkscape:connector-curvature="0"
   d="m 20.945411,96.60291 0,-6.81625 -4.1225,0 0,6.81625 -2.165,0 0,-15.06 2.165,0 0,6.13125 4.1225,0 0,-6.13125 2.1675,0 0,15.06 -2.1675,0 z"
   style="fill:#000000;fill-opacity:1;fill-rule:nonzero;stroke:none"
   id="path3385" /><path
   inkscape:connector-curvature="0"
   d="m 26.387901,96.60291 0,-15.06 7.08125,0 0,2.115 -4.915,0 0,3.8025 3.1175,0 0,2.06125 -3.1175,0 0,4.96875 5.49625,0 0,2.1125 -7.6625,0 z"
   style="fill:#000000;fill-opacity:1;fill-rule:nonzero;stroke:none"
   id="path3389" /><path
   inkscape:connector-curvature="0"
   d="m 40.971661,83.65741 -2.22,0 0,3.80375 2.22,0 c 1.26875,0 1.955,-0.68625 1.955,-1.9025 0,-1.16125 -0.79125,-1.90125 -1.955,-1.90125 m 1.85,12.945 -2.0075,-7.08125 -2.0625,0 0,7.08125 -2.165,0 0,-15.05875 4.4925,0 c 2.3775,0 3.9625,1.58375 3.9625,4.015 0,1.7975 -0.74,3.11875 -2.1675,3.64625 l 2.1675,7.3975 -2.22,0 z"
   style="fill:#000000;fill-opacity:1;fill-rule:nonzero;stroke:none"
   id="path3393" /><path
   inkscape:connector-curvature="0"
   d="m 47.577901,96.60291 0,-15.06 7.08001,0 0,2.115 -4.91501,0 0,3.8025 3.11876,0 0,2.06125 -3.11876,0 0,4.96875 5.49751,0 0,2.1125 -7.66251,0 z"
   style="fill:#000000;fill-opacity:1;fill-rule:nonzero;stroke:none"
   id="path3397" /><path
   inkscape:connector-curvature="0"
   d="m 19.019161,149.97904 -2.21875,0 0,4.28 2.21875,0 c 1.26875,0 1.95625,-0.7925 1.95625,-2.165 0,-1.27 -0.7925,-2.115 -1.95625,-2.115 m 0.10625,6.34125 -2.325,0 0,6.60625 -2.16625,0 0,-15.06 4.49125,0 c 2.37875,0 3.9625,1.69 3.9625,4.2275 0,2.74625 -1.425,4.22625 -3.9625,4.22625"
   style="fill:#000000;fill-opacity:1;fill-rule:nonzero;stroke:none"
   id="path3401" /><path
   inkscape:connector-curvature="0"
   d="m 25.149161,162.92667 0,-15.06 7.08125,0 0,2.1125 -4.915,0 0,3.805 3.1175,0 0,2.06125 -3.1175,0 0,4.96625 5.49625,0 0,2.115 -7.6625,0 z"
   style="fill:#000000;fill-opacity:1;fill-rule:nonzero;stroke:none"
   id="path3405" /><path
   inkscape:connector-curvature="0"
   d="m 41.266651,151.51292 c -0.37125,-1.05875 -1.005,-1.53375 -1.955,-1.53375 l -1.7975,0 0,10.8325 1.7975,0 c 1.26625,0 1.955,-1.00375 2.165,-2.165 0.10625,-0.95125 0.2125,-2.00875 0.2125,-3.17125 0,-1.69125 -0.15875,-3.32875 -0.4225,-3.9625 m 0.36875,10.7275 c -0.5275,0.475 -1.2675,0.68625 -2.1125,0.68625 l -4.175,0 0,-15.06 3.8575,0 c 1.2675,0 1.9025,0.1575 2.43,0.58125 0.89875,0.6325 1.53375,1.795 1.7975,3.32875 0.2125,1.10875 0.37,2.43 0.37,3.59375 0,3.4875 -0.68625,5.70625 -2.1675,6.87"
   style="fill:#000000;fill-opacity:1;fill-rule:nonzero;stroke:none"
   id="path3409" /><path
   inkscape:connector-curvature="0"
   d="m 46.761651,162.92667 0,-15.06 7.08126,0 0,2.1125 -4.91501,0 0,3.805 3.1175,0 0,2.06125 -3.1175,0 0,4.96625 5.49626,0 0,2.115 -7.66251,0 z"
   style="fill:#000000;fill-opacity:1;fill-rule:nonzero;stroke:none"
   id="path3413" /><path
   inkscape:connector-curvature="0"
   d="m 60.447911,163.19029 c -2.6425,0 -4.2275,-2.22 -4.2275,-4.7025 l 2.1125,0 c 0,1.2675 0.635,2.58875 2.115,2.58875 1.1625,0 2.11375,-1.0575 2.11375,-2.27125 0,-0.84625 -0.3175,-1.48 -1.215,-2.1675 -0.3175,-0.3175 0.5275,0.26375 -2.5375,-1.7975 -1.215,-0.845 -1.84875,-2.0075 -1.84875,-3.3275 0,-2.1675 1.69,-3.91125 3.8575,-3.91125 2.11375,0 3.75125,1.6375 3.805,3.91125 l -2.06125,0 c -0.0538,-1.05875 -0.7925,-1.745 -1.74375,-1.745 -1.00375,0 -1.7975,0.74 -1.7975,1.745 0,0.73875 0.3175,1.16125 1.4275,1.795 2.905,1.6925 4.175,3.33 4.175,5.4975 0,2.43 -1.85125,4.385 -4.175,4.385"
   style="fill:#000000;fill-opacity:1;fill-rule:nonzero;stroke:none"
   id="path3417" /><path
   inkscape:connector-curvature="0"
   d="m 70.910411,149.87292 0,13.05375 -2.16625,0 0,-13.05375 -2.74875,0 0,-2.00625 7.6625,0 0,2.00625 -2.7475,0 z"
   style="fill:#000000;fill-opacity:1;fill-rule:nonzero;stroke:none"
   id="path3421" /><path
   inkscape:connector-curvature="0"
   d="m 80.104161,149.97904 -2.21875,0 0,3.805 2.21875,0 c 1.26875,0 1.95625,-0.6875 1.95625,-1.90125 0,-1.16375 -0.79375,-1.90375 -1.95625,-1.90375 m 1.85,12.9475 -2.0075,-7.08125 -2.06125,0 0,7.08125 -2.16625,0 0,-15.06 4.49125,0 c 2.37875,0 3.9625,1.58375 3.9625,4.01625 0,1.795 -0.73875,3.1175 -2.16625,3.64625 l 2.16625,7.3975 -2.21875,0 z"
   style="fill:#000000;fill-opacity:1;fill-rule:nonzero;stroke:none"
   id="path3425" /><path
   inkscape:connector-curvature="0"
   d="m 86.710041,147.86642 2.11375,0 0,15.06 -2.11375,0 0,-15.06 z"
   style="fill:#000000;fill-opacity:1;fill-rule:nonzero;stroke:none"
   id="path3427" /><path
   inkscape:connector-curvature="0"
   d="m 95.746661,152.35792 -1.0575,4.3325 2.16625,0 -1.10875,-4.3325 z m 2.69375,10.56875 -1.05625,-4.12125 -3.2225,0 -1.005,4.12125 -2.1675,0 3.7525,-15.06 2.11375,0 3.752489,15.06 -2.167489,0 z"
   style="fill:#000000;fill-opacity:1;fill-rule:nonzero;stroke:none"
   id="path3431" /><path
   inkscape:connector-curvature="0"
   d="m 109.48415,162.92667 -4.64875,-10.09375 0,10.09375 -2.16875,0 0,-15.06 2.16875,0 4.12125,9.035 0,-9.035 2.16625,0 0,15.06 -1.63875,0 z"
   style="fill:#000000;fill-opacity:1;fill-rule:nonzero;stroke:none"
   id="path3435" /><path
   inkscape:connector-curvature="0"
   d="m 117.88665,163.19029 c -2.6425,0 -4.22875,-2.22 -4.22875,-4.7025 l 2.115,0 c 0,1.2675 0.63375,2.58875 2.11375,2.58875 1.1625,0 2.1125,-1.0575 2.1125,-2.27125 0,-0.84625 -0.31625,-1.48 -1.21375,-2.1675 -0.3175,-0.3175 0.5275,0.26375 -2.53751,-1.7975 -1.215,-0.845 -1.85,-2.0075 -1.85,-3.3275 0,-2.1675 1.6925,-3.91125 3.85875,-3.91125 2.1125,0 3.75125,1.6375 3.805,3.91125 l -2.0625,0 c -0.0513,-1.05875 -0.79125,-1.745 -1.7425,-1.745 -1.005,0 -1.7975,0.74 -1.7975,1.745 0,0.73875 0.3175,1.16125 1.4275,1.795 2.90625,1.6925 4.175,3.33 4.175,5.4975 0,2.43 -1.85,4.385 -4.175,4.385"
   style="fill:#000000;fill-opacity:1;fill-rule:nonzero;stroke:none"
   id="path3439" /><path
   inkscape:connector-curvature="0"
   d="m 45.885411,122.53666 10.81126,4.20375 c 1.0525,0.38375 1.7475,1.41375 1.69125,2.53875 -0.065,1.32 -1.145,2.3825 -2.46125,2.415 l -29.76376,4.1 -0.055,-0.06 5.31625,-29.57 c 0.0875,-1.3125 1.1925,-2.3475 2.51625,-2.36 1.125,-0.01 2.12625,0.7275 2.465,1.79375 l 3.6325,10.5625 c 13.37001,-11.9375 30.66626,-18.4575 48.52876,-18.45625 5.38625,0 11.34,0.8525 16.397489,2.0275 l -0.26875,16.1525 c -6.969989,-2.78 -15.407489,-4.515 -23.099989,-4.515 -12.65625,0 -25.31125,4.22 -35.71001,11.1675"
   style="fill:#000000;fill-opacity:1;fill-rule:evenodd;stroke:none"
   id="path3443" /><path
   inkscape:connector-curvature="0"
   d="m 82.546671,125.84416 -5.57875,0 0,3.9225 3.31875,0 0,2.1075 -3.31875,0 0,6.93251 -2.10625,0 0,-15.07001 7.685,0 0,2.1075 z"
   style="fill:#000000;fill-opacity:1;fill-rule:nonzero;stroke:none"
   id="path3467" /><path
   inkscape:connector-curvature="0"
   d="m 91.144161,131.27166 c 0,-1.2875 -0.13125,-2.41 -0.3925,-3.36625 -0.3925,-1.48 -1.0425,-2.21875 -1.95,-2.21875 -0.905,0 -1.555,0.73875 -1.9475,2.21875 -0.2625,0.95625 -0.39375,2.07875 -0.39375,3.36625 0,1.28875 0.13125,2.41 0.39375,3.3675 0.3925,1.4775 1.0425,2.2175 1.9475,2.2175 0.9075,0 1.5575,-0.74 1.95,-2.2175 0.26125,-0.9575 0.3925,-2.07875 0.3925,-3.3675 m 2.10625,0 c 0,1.85 -0.21125,3.3825 -0.63375,4.6 -0.72375,2.06001 -1.995,3.09251 -3.815,3.09251 -1.81875,0 -3.09,-1.0325 -3.8125,-3.09251 -0.4225,-1.2175 -0.63375,-2.75 -0.63375,-4.6 0,-5.1275 1.48125,-7.69125 4.44625,-7.69125 2.96625,0 4.44875,2.56375 4.44875,7.69125"
   style="fill:#000000;fill-opacity:1;fill-rule:nonzero;stroke:none"
   id="path3471" /><path
   inkscape:connector-curvature="0"
   d="m 102.59039,127.80528 c 0,-1.2475 -0.51874,-1.9025 -1.55375,-1.96125 l -2.671229,0 0,3.9225 2.671229,0 c 1.035,-0.06 1.55375,-0.71375 1.55375,-1.96125 m 2.105,11.00126 -2.18499,0 -1.99,-6.93251 -2.154989,0 0,6.93251 -2.1075,0 0,-15.07001 4.671239,0 c 0.80375,0.0713 1.25625,0.11625 1.35625,0.13625 0.6925,0.16 1.235,0.4925 1.62625,0.99375 0.5225,0.67375 0.78375,1.65375 0.78375,2.94 0,1.8575 -0.6975,3.08375 -2.09125,3.67625 l 2.09125,7.32376 z"
   style="fill:#000000;fill-opacity:1;fill-rule:nonzero;stroke:none"
   id="path3475" /><path
   inkscape:connector-curvature="0"
   d="m 38.161651,32.99327 17.65876,-17.65125 24.935,0 17.6825,17.65125 0,24.97251 -17.6825,17.6525 -24.935,0 -17.65876,-17.6525 0,-24.97251 z"
   style="fill:#af1e2d;fill-opacity:1;fill-rule:evenodd;stroke:none"
   id="path3447" /><path
   inkscape:connector-curvature="0"
   d="m 46.502911,56.41129 c -3.7025,0 -5.925,-3.10875 -5.925,-6.58875 l 2.9625,0 c 0,1.77625 0.8875,3.6275 2.9625,3.6275 1.6275,0 2.96126,-1.48125 2.96126,-3.18375 0,-1.185 -0.445,-2.0725 -1.70376,-3.03626 -0.44375,-0.44375 0.74001,0.37125 -3.55375,-2.51625 -1.7025,-1.185 -2.59125,-2.81375 -2.59125,-4.665 0,-3.03625 2.37,-5.48 5.40625,-5.48 2.96126,0 5.25626,2.29625 5.33001,5.48 l -2.8875,0 c -0.075,-1.48125 -1.11,-2.44375 -2.44251,-2.44375 -1.4075,0 -2.51875,1.03625 -2.51875,2.44375 0,1.03625 0.445,1.62875 2,2.5175 4.07126,2.36875 5.84876,4.66375 5.84876,7.70001 0,3.40625 -2.59125,6.145 -5.84876,6.145"
   style="fill:#ffffff;fill-opacity:1;fill-rule:nonzero;stroke:none"
   id="path3451" /><path
   inkscape:connector-curvature="0"
   d="m 61.161671,37.7534 0,18.28751 -3.035,0 0,-18.28751 -3.85,0 0,-2.81375 10.73625,0 0,2.81375 -3.85125,0 z"
   style="fill:#ffffff;fill-opacity:1;fill-rule:nonzero;stroke:none"
   id="path3455" /><path
   inkscape:connector-curvature="0"
   d="m 76.340411,40.19665 c -0.51875,-1.85125 -1.33375,-2.665 -2.59125,-2.665 -1.33375,0 -2.1475,0.81375 -2.66625,2.59 -0.5175,1.63 -0.66625,3.0375 -0.66625,5.40625 0,2.295 0.22125,3.62876 0.66625,5.33126 0.51875,1.77625 1.3325,2.59 2.66625,2.59 1.2575,0 2.0725,-0.81375 2.59125,-2.59 0.51875,-1.7025 0.66625,-2.96251 0.66625,-5.40501 0,-2.37 -0.2225,-3.7025 -0.66625,-5.2575 m 2.36875,12.58751 c -1.03625,2.5175 -2.59125,3.6275 -4.96,3.6275 -2.5175,0 -3.99875,-1.11 -5.035,-3.6275 -0.88875,-2.07375 -1.185,-4.0725 -1.185,-7.33001 0,-3.18375 0.29625,-5.3325 1.185,-7.33125 1.11125,-2.51625 2.59,-3.55375 5.035,-3.55375 2.44375,0 3.92375,1.0375 4.96,3.62875 0.88875,2.0725 1.18625,4.0725 1.18625,7.25625 0,3.25751 -0.2975,5.33126 -1.18625,7.33001"
   style="fill:#ffffff;fill-opacity:1;fill-rule:nonzero;stroke:none"
   id="path3459" /><path
   inkscape:connector-curvature="0"
   d="m 90.260411,37.90115 -3.11,0 0,5.9975 3.11,0 c 1.77625,0 2.73875,-1.11 2.73875,-3.035 0,-1.7775 -1.11,-2.9625 -2.73875,-2.9625 m 0.14875,8.885 -3.25875,0 0,9.25501 -3.03625,0 0,-21.10126 6.295,0 c 3.33125,0 5.55125,2.36875 5.55125,5.92375 0,3.85 -1.99875,5.9225 -5.55125,5.9225"
   style="fill:#ffffff;fill-opacity:1;fill-rule:nonzero;stroke:none"
   id="path3463" /></svg>