<?xml version="1.0" encoding="UTF-8" standalone="no"?>
<svg
   width="90.000015"
   height="74.845001"
   viewBox="0 0 254.0001 211.22922"
   version="1.1"
   id="svg2"
   inkscape:version="1.2.1 (9c6d41e410, 2022-07-14)"
   sodipodi:docname="MUTCD_W14-3.svg"
   xmlns:inkscape="http://www.inkscape.org/namespaces/inkscape"
   xmlns:sodipodi="http://sodipodi.sourceforge.net/DTD/sodipodi-0.dtd"
   xmlns="http://www.w3.org/2000/svg"
   xmlns:svg="http://www.w3.org/2000/svg"
   xmlns:rdf="http://www.w3.org/1999/02/22-rdf-syntax-ns#"
   xmlns:cc="http://creativecommons.org/ns#"
   xmlns:dc="http://purl.org/dc/elements/1.1/">
  <metadata
     id="metadata62">
    <rdf:RDF>
      <cc:Work
         rdf:about="">
        <dc:format>image/svg+xml</dc:format>
        <dc:type
           rdf:resource="http://purl.org/dc/dcmitype/StillImage" />
        <dc:title />
      </cc:Work>
    </rdf:RDF>
  </metadata>
  <defs
     id="defs60" />
  <sodipodi:namedview
     pagecolor="#ffffff"
     bordercolor="#666666"
     borderopacity="1"
     objecttolerance="10"
     gridtolerance="10"
     guidetolerance="10"
     inkscape:pageopacity="0"
     inkscape:pageshadow="2"
     inkscape:window-width="2048"
     inkscape:window-height="1089"
     id="namedview58"
     showgrid="false"
     fit-margin-top="0"
     fit-margin-left="0"
     fit-margin-right="0"
     fit-margin-bottom="0"
     inkscape:zoom="4.1149687"
     inkscape:cx="27.94675"
     inkscape:cy="16.282019"
     inkscape:window-x="-8"
     inkscape:window-y="-8"
     inkscape:window-maximized="1"
     inkscape:current-layer="svg2"
     showguides="true"
     inkscape:guide-bbox="true"
     inkscape:showpageshadow="2"
     inkscape:pagecheckerboard="0"
     inkscape:deskcolor="#d1d1d1" />
  <!-- draw the bicycle -->
  <!-- RIGHT -->
  <!-- LANE -->
  <!-- ONLY -->
  <path
     d="M 21.70289,1.5275035 244.0552,91.602273 c 5.8844,2.11667 9.9449,7.88106 9.9449,14.174607 0,6.47348 -4.1769,12.29431 -10.2941,14.29809 L 20.93736,210.05449 c -1.82386,0.762 -3.88408,1.17475 -5.88433,1.17475 C 6.75922,211.22924 0,204.46649 0,196.16915 L 0,15.056533 C 0,6.7662535 6.75922,-2.6508088e-5 15.05303,-2.6508088e-5 c 2.29658,0 4.58964,0.529169998088 6.64986,1.527530008088"
     style="fill:#fecf33;fill-opacity:1;fill-rule:nonzero;stroke:none"
     id="path3308"
     inkscape:connector-curvature="0" />
  <path
     d="m 242.6794,95.105363 c 0.441,0.16933 0.8608,0.34572 1.2947,0.55033 0.7796,0.40922 1.4605,0.86078 2.1414,1.41464 0.3316,0.28222 0.635,0.5715 0.9454,0.88194 0.695,0.76553 1.2594,1.53812 1.778,2.434167 0.1976,0.38453 0.3775,0.76905 0.5503,1.17122 0.3775,0.96308 0.6209,1.88736 0.7656,2.91395 0.042,0.44097 0.067,0.86783 0.074,1.30527 -0.014,0.76553 -0.081,1.47814 -0.2187,2.22956 -0.099,0.43744 -0.2082,0.85372 -0.3387,1.28058 -0.2963,0.8502 -0.6456,1.60867 -1.1007,2.38831 -0.2363,0.37042 -0.4833,0.72319 -0.7443,1.0795 -0.6633,0.81139 -1.3441,1.48519 -2.1802,2.12725 -0.4798,0.34219 -0.956,0.64206 -1.4781,0.92781 -0.4022,0.19402 -0.8009,0.37041 -1.2136,0.53622 l -0.5786,0.20461 -223.02259,90.08183 c -1.32997,0.52916 -2.72697,0.8008 -4.16278,0.82902 -0.43391,0.004 -0.86078,-0.0247 -1.28764,-0.0564 -0.76553,-0.0988 -1.4605,-0.23989 -2.1978,-0.44803 -0.52211,-0.17992 -1.01953,-0.37747 -1.53106,-0.60678 -0.49389,-0.25047 -0.94897,-0.51858 -1.41817,-0.81844 -0.45508,-0.3175 -0.86783,-0.64558 -1.28058,-1.00895 -0.39864,-0.381 -0.76553,-0.76552 -1.13242,-1.1818 -0.33514,-0.43392 -0.64558,-0.86431 -0.94191,-1.32997 -0.28223,-0.47978 -0.52564,-0.9525 -0.75142,-1.4605 -0.20814,-0.51859 -0.37747,-1.02659 -0.52917,-1.56634 -0.13053,-0.55386 -0.2293,-1.09361 -0.29633,-1.66158 l -0.0635,-1.19945 0.0141,-181.645307 c 0.0494,-0.5786 0.1164,-1.12188 0.21517,-1.68985 0.13053,-0.55033 0.27517,-1.06539 0.45862,-1.59808 0.20108,-0.52211 0.42333,-1.00542 0.67733,-1.4993095 0.27517,-0.47978 0.56444,-0.92428 0.88194,-1.37583 0.3422,-0.43392 0.68792,-0.83256 1.06892,-1.2312 0.39864,-0.38453 0.79728,-0.73025 1.2312,-1.07244 0.45508,-0.32103 0.90311,-0.60678 1.37936,-0.88195 0.49389,-0.254 0.97719,-0.47625 1.49578,-0.68086 l 1.05833,-0.32455 c 1.15358,-0.27164 2.27542,-0.40217 3.46075,-0.3422 1.47461,0.0952 2.86456,0.44803 4.20864,1.06539 L 242.6793,95.105363 z"
     style="fill:#000000;fill-opacity:1;fill-rule:evenodd;stroke:none"
     id="path3332"
     inkscape:connector-curvature="0" />
  <path
     d="m 241.3145,101.34952 c 0.8114,0.4692 1.4182,1.0795 1.9156,1.87678 l 0.194,0.34925 c 0.6809,1.42875 0.702,2.86103 0.067,4.31095 -0.3563,0.73377 -0.8043,1.31586 -1.4252,1.83797 -0.4128,0.3175 -0.822,0.5468 -1.3018,0.74083 l -0.5997,0.21167 -223.16019,90.13827 c -1.18533,0.46919 -2.4377,0.48683 -3.65831,0.0705 l -0.44097,-0.18697 c -0.91722,-0.46919 -1.58397,-1.0795 -2.14489,-1.94733 -0.29633,-0.51506 -0.48683,-0.99836 -0.61736,-1.57339 -0.0706,-0.38453 -0.0988,-0.74436 -0.10583,-1.13595 l 0.007,-181.246667 0.0494,-0.50448 c 0.18697,-1.016 0.57855,-1.81327 1.25236,-2.59291 l 0.34572,-0.34925 c 1.1042,-0.9525 2.40595,-1.4216995 3.86645,-1.28412 0.59266,0.0635 1.15711,0.21873 1.69333,0.46567 l 0.40217,0.1905 223.17082,90.395797 c 0.1658,0.067 0.3316,0.14816 0.4903,0.23283"
     style="fill:#fecf33;fill-opacity:1;fill-rule:evenodd;stroke:none"
     id="path3336"
     inkscape:connector-curvature="0" />
  <path
     style="fill:#f4911d;fill-opacity:1;stroke-width:0.243015"
     d="M 4.4245096,70.713525 3.7667358,70.196121 V 37.41617 4.6362225 L 4.2985895,4.1407253 C 4.5911091,3.8682019 4.9861399,3.6452282 5.1764359,3.6452282 c 0.2881474,0 69.9304951,28.1019778 78.0937311,31.5122668 2.135972,0.892327 2.639286,1.202757 2.875779,1.7737 0.330576,0.798079 0.05508,1.533168 -0.732592,1.954714 C 84.69974,39.267825 6.2231219,70.944598 5.6082542,71.09892 5.2794405,71.181448 4.8357207,71.036985 4.4245096,70.713525 Z"
     id="path17815"
     transform="scale(2.8222225)" />
  <path
     style="fill:#f4911d;fill-opacity:1;stroke-width:0.243015"
     d="M 4.4957815,74.595304 C 2.7433436,74.294988 1.1917145,73.052019 0.49892188,71.393525 0.16398902,70.59172 0.12150761,66.76818 0.12150761,37.424343 0.12150761,8.0805074 0.16398902,4.2569658 0.49892188,3.4551614 1.3140272,1.5038597 3.2389359,0.20610966 5.3099245,0.21164178 6.3999269,0.21455335 11.548195,2.235574 45.208567,15.874378 66.464503,24.487044 84.694139,31.882804 85.718868,32.3094 c 2.994013,1.246411 4.247012,3.040473 4.021635,5.758233 -0.124964,1.506872 -1.064324,3.072104 -2.258389,3.763086 C 86.297142,42.51644 6.8698894,74.526241 6.0753804,74.638266 5.6744053,74.694804 4.9635857,74.675472 4.4957815,74.595304 Z M 45.994989,57.570353 c 21.884159,-8.834794 40.226809,-16.298399 40.761442,-16.585789 1.094653,-0.588429 2.06563,-2.204845 2.06563,-3.438713 0,-0.974178 -0.923261,-2.763798 -1.727914,-3.349338 C 86.745255,33.94263 68.373305,26.406881 46.267591,17.450409 8.5530826,2.1697924 6.0031047,1.172827 4.9029554,1.2780687 3.613011,1.4014666 2.6977347,1.960477 1.9227962,3.0982189 1.4167694,3.8411524 1.4149912,3.9280333 1.2440536,36.260808 c -0.094263,17.82974 -0.096796,32.903801 -0.00563,33.497917 0.2222085,1.448101 0.6683339,2.272336 1.6167502,2.987012 0.8653997,0.652119 1.3558953,0.817073 2.5562748,0.859683 0.533989,0.01896 13.8293314,-5.234202 40.5835404,-16.035067 z"
     id="path17817"
     transform="scale(2.8222225)" />
  <path
     d="m 57.59849,54.043581 c 0,3.62656 -0.2187,5.49981 -0.9842,8.02923 -0.7726,2.6423 -1.9862,3.8488 -3.8524,3.8488 -1.9826,0 -3.1891,-1.2065 -3.9617,-3.8488 -0.6632,-2.52942 -0.9913,-4.51203 -0.9913,-7.92339 0,-3.52073 0.2188,-5.60917 0.9913,-8.02923 0.7726,-2.63878 1.9791,-3.85233 3.9617,-3.85233 1.8662,0 3.0798,1.21355 3.8524,3.96169 0.6526,2.3107 0.9842,4.29331 0.9842,7.81403 m 4.2933,0 c 0,-4.73428 -0.4409,-7.70114 -1.7639,-10.78442 -1.5381,-3.8488 -3.7359,-5.39044 -7.366,-5.39044 -3.6301,0 -5.8349,1.54164 -7.4824,5.28108 -1.3229,2.97039 -1.7639,6.1595 -1.7639,10.89378 0,4.83659 0.441,7.8105 1.7639,10.89026 1.5346,3.74297 3.7395,5.40808 7.4824,5.40808 3.5208,0 5.8279,-1.66511 7.366,-5.40808 1.323,-2.97039 1.7639,-6.05367 1.7639,-10.89026 m -24.5357,15.73037 v -31.35843 h -4.512 v 18.81717 l -8.5796,-18.81717 H 19.7525 v 31.35843 h 4.51199 v -21.01498 l 9.6803,21.01498 z"
     style="fill:#000000;fill-opacity:1;fill-rule:evenodd;stroke:none"
     id="path3340"
     inkscape:connector-curvature="0" />
  <path
     d="m 158.56669,104.94237 v -6.491109 h -8.0327 v 4.402659 h 3.5207 v 2.08845 c 0,3.29847 -1.0971,4.84364 -3.4114,4.84364 -2.4165,0 -3.9617,-1.65453 -4.6143,-4.73428 -0.441,-2.41653 -0.6632,-5.171719 -0.6632,-7.814029 0,-3.73591 0.5503,-7.25664 1.4252,-8.79828 0.7726,-1.54164 1.9861,-2.31069 3.5207,-2.31069 2.2049,0 3.6336,1.42875 3.743,3.52072 h 4.512 c -0.2187,-4.62139 -3.6301,-7.91986 -8.1421,-7.91986 -3.6336,0 -6.8227,2.41653 -7.9198,5.71853 -1.1007,2.97039 -1.4323,6.16303 -1.4323,10.56217 0,4.071049 0.6632,8.470189 1.6545,10.784409 1.5381,3.52073 4.2863,5.40809 8.0257,5.40809 3.1926,0 5.7256,-1.66864 6.9321,-4.41678 0.6632,-1.32292 0.8819,-2.64231 0.8819,-4.84364 m -23.6537,8.69245 V 82.276391 h -4.5121 v 18.813639 l -8.5866,-18.813639 h -4.5049 v 31.358429 h 4.5049 V 92.623371 l 9.6873,21.011449 z m -24.4264,-31.358429 h -4.4026 v 31.358429 h 4.4026 z m -9.6802,22.775339 c 0,-4.5085 -2.6458,-7.923389 -8.696,-11.440579 -2.3071,-1.31939 -2.9668,-2.20134 -2.9668,-3.74298 0,-2.08844 1.6439,-3.63008 3.7394,-3.63008 1.9791,0 3.5207,1.42875 3.6301,3.63008 h 4.2933 c -0.1094,-4.72722 -3.5207,-8.13858 -7.9234,-8.13858 -4.512,0 -8.0327,3.63008 -8.0327,8.13858 0,2.7552 1.3229,5.17173 3.8523,6.93209 6.3782,4.289769 4.6214,3.07975 5.2846,3.742969 1.8662,1.42875 2.5259,2.74814 2.5259,4.5085 0,2.53294 -1.9826,4.73428 -4.4027,4.73428 -3.0797,0 -4.4026,-2.75167 -4.4026,-5.39397 h -4.3956 c 0,5.17172 3.302,9.81075 8.7982,9.81075 4.8437,0 8.696,-4.0887 8.696,-9.15106 m -21.2337,0 c 0,-4.5085 -2.6458,-7.923389 -8.696,-11.440579 -2.3071,-1.31939 -2.9704,-2.20134 -2.9704,-3.74298 0,-2.08844 1.6546,-3.63008 3.743,-3.63008 1.9756,0 3.5207,1.42875 3.6301,3.63008 h 4.2933 c -0.1129,-4.72722 -3.5207,-8.13858 -7.9234,-8.13858 -4.5155,0 -8.0363,3.63008 -8.0363,8.13858 0,2.7552 1.323,5.17173 3.8524,6.93209 6.3817,4.289769 4.6249,3.07975 5.2846,3.742969 1.8662,1.42875 2.5294,2.74814 2.5294,4.5085 0,2.53294 -1.9791,4.73428 -4.4027,4.73428 -3.0797,0 -4.3956,-2.75167 -4.3956,-5.39397 h -4.4026 c 0,5.17172 3.2984,9.81075 8.7982,9.81075 4.8437,0 8.696,-4.0887 8.696,-9.15106 m -28.0564,-4.39914 h -4.5156 l 2.2049,-9.024049 z m 7.8105,12.98223 -7.8105,-31.358429 h -4.4062 l -7.8105,31.358429 h 4.512 l 2.0885,-8.58309 h 6.7169 l 2.1978,8.58309 z M 33.02719,91.078201 c 0,2.86103 -1.4252,4.51203 -4.0711,4.51203 h -4.6178 v -8.91117 h 4.6178 c 2.4236,0 4.0711,1.76036 4.0711,4.39914 m 4.4027,0 c 0,-5.28108 -3.2985,-8.80181 -8.255,-8.80181 h -9.34865 v 31.358429 h 4.51205 V 99.880011 h 4.8366 c 5.2881,0 8.255,-3.07975 8.255,-8.80181"
     style="fill:#000000;fill-opacity:1;fill-rule:evenodd;stroke:none"
     id="path3344"
     inkscape:connector-curvature="0" />
  <path
     d="m 103.75599,157.71441 v -4.39914 h -11.4371 v -10.34345 h 6.4911 v -4.2933 h -6.4911 v -7.91987 h 10.2306 v -4.39914 h -14.7426 v 31.3549 z m -21.5936,0 v -31.3549 h -4.512 v 18.81365 l -8.5795,-18.81365 h -4.5121 v 31.3549 h 4.5121 v -21.01145 l 9.6802,21.01145 z m -27.1004,-15.73037 c 0,3.62656 -0.2187,5.49628 -0.9842,8.02923 -0.7726,2.63878 -1.9826,3.85233 -3.8523,3.85233 -1.9827,0 -3.1892,-1.21355 -3.9617,-3.85233 -0.6597,-2.53295 -0.9913,-4.5085 -0.9913,-7.91986 0,-3.52073 0.2187,-5.6127 0.9913,-8.03276 0.7725,-2.63878 1.979,-3.85233 3.9617,-3.85233 1.8697,0 3.0797,1.21355 3.8523,3.96169 0.6562,2.3107 0.9842,4.29331 0.9842,7.81403 m 4.2934,0 c 0,-4.73427 -0.441,-7.70466 -1.7569,-10.78442 -1.5416,-3.85233 -3.7394,-5.39044 -7.373,-5.39044 -3.6301,0 -5.835,1.53811 -7.4825,5.28108 -1.3229,2.97039 -1.7638,6.15951 -1.7638,10.89378 0,4.84012 0.4409,7.81051 1.7638,10.89026 1.5452,3.73944 3.743,5.40808 7.4825,5.40808 3.5207,0 5.8314,-1.66864 7.373,-5.40808 1.3159,-2.97039 1.7569,-6.05014 1.7569,-10.89026 m -22.0346,15.73037 v -4.28978 h -12.6506 l 12.6506,-24.31698 v -2.8575 h -16.0619 v 4.39914 h 10.4528 L 20.04883,152.8743 v 4.84011 z"
     style="fill:#000000;fill-opacity:1;fill-rule:evenodd;stroke:none"
     id="path3348"
     inkscape:connector-curvature="0" />
</svg>
