<?xml version="1.0" encoding="UTF-8" standalone="no"?>
<svg
   width="90.084061"
   height="89.999992"
   viewBox="0 0 254.23725 253.99997"
   version="1.1"
   id="svg2"
   inkscape:version="1.2.1 (9c6d41e410, 2022-07-14)"
   sodipodi:docname="MUTCD_W1-3L.svg"
   xmlns:inkscape="http://www.inkscape.org/namespaces/inkscape"
   xmlns:sodipodi="http://sodipodi.sourceforge.net/DTD/sodipodi-0.dtd"
   xmlns="http://www.w3.org/2000/svg"
   xmlns:svg="http://www.w3.org/2000/svg"
   xmlns:rdf="http://www.w3.org/1999/02/22-rdf-syntax-ns#"
   xmlns:cc="http://creativecommons.org/ns#"
   xmlns:dc="http://purl.org/dc/elements/1.1/">
  <metadata
     id="metadata62">
    <rdf:RDF>
      <cc:Work
         rdf:about="">
        <dc:format>image/svg+xml</dc:format>
        <dc:type
           rdf:resource="http://purl.org/dc/dcmitype/StillImage" />
      </cc:Work>
    </rdf:RDF>
  </metadata>
  <defs
     id="defs60" />
  <sodipodi:namedview
     pagecolor="#ffffff"
     bordercolor="#666666"
     borderopacity="1"
     objecttolerance="10"
     gridtolerance="10"
     guidetolerance="10"
     inkscape:pageopacity="0"
     inkscape:pageshadow="2"
     inkscape:window-width="1920"
     inkscape:window-height="1017"
     id="namedview58"
     showgrid="false"
     fit-margin-top="0"
     fit-margin-left="0"
     fit-margin-right="0"
     fit-margin-bottom="0"
     inkscape:zoom="6.6107689"
     inkscape:cx="27.530837"
     inkscape:cy="27.530837"
     inkscape:window-x="-8"
     inkscape:window-y="1144"
     inkscape:window-maximized="1"
     inkscape:current-layer="svg2"
     inkscape:showpageshadow="2"
     inkscape:pagecheckerboard="0"
     inkscape:deskcolor="#d1d1d1" />
  <!-- draw the bicycle -->
  <!-- RIGHT -->
  <!-- LANE -->
  <!-- ONLY -->
  <path
     inkscape:connector-curvature="0"
     d="M 250.84268,118.77494 135.24098,3.3919397 c -4.5262,-4.5226 -11.9345,-4.5226 -16.4536,0 L 3.397275,118.77494 c -4.5297,4.5226 -4.5297,11.9239 0,16.4536 l 115.390105,115.3795 c 4.5191,4.5226 11.9274,4.5226 16.4536,0 l 115.6017,-115.3795 c 4.5261,-4.5297 4.5261,-11.931 0,-16.4536"
     style="fill:#ffd033;fill-opacity:1;fill-rule:nonzero;stroke:none"
     id="path3163" />
  <path
     inkscape:connector-curvature="0"
     d="M 248.65198,120.97104 133.04318,5.5914397 c -3.3232,-3.3161 -8.7454,-3.3161 -12.058,0 L 5.602175,120.97104 c -3.3232,3.3161 -3.3232,8.7418 0,12.0579 l 115.383005,115.383 c 3.3126,3.3161 8.7348,3.3161 12.058,0 l 115.6088,-115.383 c 3.3161,-3.3161 3.3161,-8.7418 0,-12.0579"
     style="fill:#000000;fill-opacity:1;fill-rule:evenodd;stroke:none"
     id="path3171" />
  <path
     inkscape:connector-curvature="0"
     d="M 245.35348,124.26634 129.74118,8.8832397 c -1.5029,-1.4993 -3.9617,-1.4993 -5.4646,0 L 8.893575,124.26634 c -1.5028,1.5028 -1.5028,3.9652 0,5.4645 l 115.383005,115.3795 c 1.5029,1.5064 3.9617,1.5064 5.4646,0 l 115.6123,-115.3795 c 1.4993,-1.4993 1.4993,-3.9617 0,-5.4645"
     style="fill:#ffd033;fill-opacity:1;fill-rule:evenodd;stroke:none"
     id="path3175" />
  <path
     style="fill:#f4911d;fill-opacity:1;stroke-width:0.151268"
     d="M 44.548524,87.060897 C 44.382129,86.987946 34.937313,77.613463 23.560043,66.228712 4.0015015,46.657308 2.8740984,45.50045 2.8740984,45.002325 c 0,-0.498172 1.1296675,-1.656826 20.7615786,-21.294292 11.418869,-11.4221 20.919074,-20.8078975 21.111567,-20.8573283 0.192494,-0.049431 0.476272,-0.030354 0.630618,0.042394 0.519102,0.2446667 41.559173,41.1882143 41.752044,41.6538453 0.148745,0.359103 0.149787,0.549154 0.0049,0.898882 -0.255533,0.616911 -41.45383,41.569562 -41.919452,41.669508 -0.200375,0.04301 -0.500459,0.01851 -0.666854,-0.05444 z"
     id="path2846"
     transform="scale(2.8222222)" />
  <path
     style="fill:#f4911d;fill-opacity:1;stroke-width:0.151268"
     d=""
     id="path2848"
     transform="scale(2.8222222)" />
  <path
     style="fill:#f4911d;fill-opacity:1;stroke-width:0.151268"
     d="M 43.56528,89.681097 C 42.976365,89.473483 40.053606,86.613134 21.891048,68.469689 4.9563782,51.552841 0.82387664,47.348651 0.51660311,46.724453 -0.0138537,45.646879 -0.0155347,44.361327 0.51211138,43.289387 0.82533428,42.653058 4.8296774,38.578326 21.891048,21.534655 41.964144,1.4823835 42.920086,0.55146419 43.694571,0.30185393 44.733123,-0.03286289 45.893389,0.05645029 46.800479,0.54093582 47.738548,1.0419682 89.092639,42.298697 89.578869,43.21861 c 0.4788,0.905862 0.485657,2.649018 0.01392,3.540146 -0.483567,0.913484 -41.876939,42.220664 -42.799856,42.710737 -0.876305,0.465322 -2.252116,0.555521 -3.227655,0.211604 z m 2.882031,-1.041955 C 46.66186,88.528195 56.273741,79.021896 67.80705,67.514033 L 88.7767,46.590647 88.951963,45.796488 c 0.13309,-0.603073 0.132817,-0.985244 -0.0012,-1.588317 C 88.774406,43.414255 88.767934,43.407604 67.829794,22.503012 56.310356,11.001962 46.690011,1.4910219 46.451318,1.3675892 45.791121,1.0261884 44.912222,0.93531132 44.163999,1.1310835 43.543824,1.293352 41.808683,2.9867951 22.566561,22.209501 10.65546,34.108585 1.5175767,43.353208 1.3511769,43.672705 c -0.37201448,0.714289 -0.37283052,1.824423 -0.00192,2.615405 0.4260873,0.908654 41.9771741,42.378686 42.5941961,42.511108 0.249593,0.05357 0.521876,0.122732 0.605073,0.153704 0.264821,0.09858 1.494243,-0.104582 1.898787,-0.31378 z"
     id="path2850"
     transform="scale(2.8222222)" />
  <path
     inkscape:connector-curvature="0"
     d="m 146.63552,156.31463 0.042,40.3507 h 27.1604 l -0.028,-55.0157 c 0,-10.1 -8.4209,-18.3938 -18.5703,-18.3938 h -34.484 c -3.6301,0 -6.5934,-2.9633 -6.5934,-6.5934 l 0.014,-22.122693 14.5238,4.3321 c 2.0109,0.5609 3.4996,0.7937 5.04479,-0.2575 2.21891,-1.5064 2.7975,-4.5438 1.28761,-6.7593 l -34.0254,-50.303 -34.078309,50.3026 c -1.5099,2.2154 -0.9314,5.2528 1.2806,6.7592 1.4816,1.0089 3.0197,0.8255 4.8436,0.3598 l 14.7673,-4.4344 0.021,36.777093 v -0.074 c 0,10.0965 8.1492,18.3903 18.252809,18.4679 l 33.9337,0.01 c 3.63,0 6.6075,2.9633 6.6075,6.5934"
     style="fill:#000000;fill-opacity:1;fill-rule:evenodd;stroke:none"
     id="path3179" />
</svg>
