<?xml version="1.0" encoding="UTF-8" standalone="no"?>
<!-- Created with Inkscape (http://www.inkscape.org/) -->

<svg
   xmlns:dc="http://purl.org/dc/elements/1.1/"
   xmlns:cc="http://creativecommons.org/ns#"
   xmlns:rdf="http://www.w3.org/1999/02/22-rdf-syntax-ns#"
   xmlns:svg="http://www.w3.org/2000/svg"
   xmlns="http://www.w3.org/2000/svg"
   xmlns:sodipodi="http://sodipodi.sourceforge.net/DTD/sodipodi-0.dtd"
   xmlns:inkscape="http://www.inkscape.org/namespaces/inkscape"
   version="1.0"
   width="90"
   height="90.003128"
   id="svg2"
   inkscape:version="0.48.2 r9819"
   sodipodi:docname="MUTCD W21-6 (temporary).svg">
  <metadata
     id="metadata13">
    <rdf:RDF>
      <cc:Work
         rdf:about="">
        <dc:format>image/svg+xml</dc:format>
        <dc:type
           rdf:resource="http://purl.org/dc/dcmitype/StillImage" />
        <dc:title></dc:title>
      </cc:Work>
    </rdf:RDF>
  </metadata>
  <sodipodi:namedview
     pagecolor="#ffffff"
     bordercolor="#666666"
     borderopacity="1"
     objecttolerance="10"
     gridtolerance="10"
     guidetolerance="10"
     inkscape:pageopacity="0"
     inkscape:pageshadow="2"
     inkscape:window-width="1280"
     inkscape:window-height="1004"
     id="namedview11"
     showgrid="false"
     fit-margin-top="0"
     fit-margin-left="0"
     fit-margin-right="0"
     fit-margin-bottom="0"
     inkscape:zoom="7.4167644"
     inkscape:cx="45.70667"
     inkscape:cy="42.069213"
     inkscape:window-x="-8"
     inkscape:window-y="-8"
     inkscape:window-maximized="1"
     inkscape:current-layer="svg2" />
  <defs
     id="defs4" />
  <path
     d="M 1.2871875,41.877814 41.878438,1.2890625 c 1.71625,-1.71875 4.52625,-1.71875 6.245,0 L 88.710937,41.877814 c 1.71875,1.718749 1.71875,4.528749 0,6.244999 L 48.123438,88.714064 c -1.71875,1.71875 -4.52875,1.71875 -6.245,0 L 1.2871875,48.122813 c -1.71625,-1.71625 -1.71625,-4.52625 0,-6.244999"
     style="fill:#f4911d;fill-opacity:1;fill-rule:nonzero;stroke:none"
     id="path3445"
     inkscape:connector-curvature="0" />
  <path
     d="M 2.2661875,42.525314 42.522437,2.2690625 c 1.362501,-1.3625 3.59125,-1.3625 4.956251,0 l 40.25375,40.2562515 c 1.362499,1.362499 1.362499,3.591249 0,4.953749 l -40.25375,40.256251 c -1.365,1.36125 -3.59375,1.36125 -4.956251,0 L 2.2661875,47.479063 c -1.3625,-1.3625 -1.3625,-3.59125 0,-4.953749"
     style="fill:#000000;fill-opacity:1;fill-rule:evenodd;stroke:none"
     id="path3461"
     inkscape:connector-curvature="0" />
  <path
     d="M 3.5259375,43.762823 43.762187,3.5253225 c 0.681251,-0.68 1.795,-0.68 2.476251,0 L 86.474686,43.762823 c 0.68125,0.68125 0.68125,1.79625 0,2.475 L 46.238438,86.477824 c -0.681251,0.68125 -1.795,0.68125 -2.476251,0 L 3.5259375,46.237823 c -0.68125,-0.67875 -0.68125,-1.79375 0,-2.475"
     style="fill:#f4911d;fill-opacity:1;fill-rule:evenodd;stroke:none"
     id="path3465"
     inkscape:connector-curvature="0" />
  <path
     d="m 65.371688,26.421564 -1.641251,0 -2.134999,3.4075 -2.107501,-3.4075 -1.672499,0 3.098749,4.985 0,3.84 1.393751,0 0,-3.84 3.06375,-4.985 z m -8.2375,1.24 0,-1.24 -5.45125,0 0,1.24 2.01375,0 0,7.585 1.39375,0 0,-7.585 2.04375,0 z m -6.75,-1.24 -1.42625,0 0,8.825 1.42625,0 0,-8.825 z m -2.7275,8.825 0,-1.29875 -4.08625,0 0,-7.52625 -1.395001,0 0,8.825 5.481251,0 z m -7.55625,-8.825 -1.423751,0 0,8.825 1.423751,0 0,-8.825 z m -2.72375,1.24 0,-1.24 -5.452501,0 0,1.24 2.015001,0 0,7.585 1.393749,0 0,-7.585 2.043751,0 z m -6.753751,4.42875 0,-5.66875 -1.39125,0 0,5.66875 c 0,1.145 -0.6525,1.8875 -1.611249,1.8875 -0.960001,0 -1.61125,-0.7425 -1.61125,-1.8875 l 0,-5.66875 -1.3925,0 0,5.66875 c 0,0.68125 0.155,1.29875 0.40125,1.82625 0.46625,0.86625 1.51875,1.49125 2.6025,1.49125 1.08375,0 2.13625,-0.625 2.6025,-1.49125 0.24625,-0.5275 0.4,-1.145 0.4,-1.82625"
     style="fill:#000000;fill-opacity:1;fill-rule:evenodd;stroke:none"
     id="path3469"
     inkscape:connector-curvature="0" />
  <path
     d="m 60.354556,50.295313 -2.909998,-5.3875 2.724998,-3.437499 -1.797499,0 -2.785,3.501249 0,-3.501249 -1.395,0 0,8.824999 1.395,0 0,-3.03375 0.927501,-1.145 2.231249,4.17875 1.608749,0 z m -9.196249,-6.3475 c 0,0.37125 -0.2175,0.7425 -0.56,0.93 -0.2175,0.1225 -0.37125,0.155 -0.805,0.155 l -1.6725,0 0,-2.168749 1.6725,0 c 0.46625,0 0.587501,0.0325 0.805001,0.15375 0.342499,0.18625 0.559999,0.558749 0.559999,0.929999 m 1.57875,6.3475 -1.549999,-4.1175 c 0.806249,-0.37125 1.362499,-1.3 1.362499,-2.23 0,-0.897499 -0.55625,-1.826249 -1.331249,-2.198749 -0.433751,-0.215 -0.897501,-0.27875 -1.57875,-0.27875 l -2.910001,0 0,8.824999 1.39125,0 0,-3.84 1.6725,0 1.425001,3.84 1.518749,0 z m -9.32375,-4.39625 c 0,0.68125 -0.15375,1.5475 -0.33875,2.01375 -0.31,0.77375 -0.71375,1.11375 -1.3625,1.11375 -0.55875,0 -0.93,-0.215 -1.20875,-0.68125 -0.34125,-0.55625 -0.5275,-1.51625 -0.5275,-2.44625 0,-0.7425 0.125001,-1.5475 0.3425,-2.075 0.31,-0.773749 0.74125,-1.113749 1.4225,-1.083749 0.5275,0.03125 0.87,0.21625 1.1475,0.679999 0.34,0.58875 0.525,1.4875 0.525,2.47875 m 1.39375,0 c 0,-1.11625 -0.21625,-2.22875 -0.5875,-3.002499 -0.5575,-1.085 -1.33125,-1.58 -2.44625,-1.58 -1.02375,0 -1.73375,0.31 -2.26125,0.99125 -0.58875,0.835 -0.958751,2.136249 -0.958751,3.591249 0,1.0525 0.246251,2.22875 0.617501,2.97375 0.5275,1.08375 1.30125,1.58375 2.54125,1.58375 0.9275,0 1.64,-0.315 2.13625,-0.99625 0.62,-0.77375 0.95875,-2.1675 0.95875,-3.56125 m -7.370001,-4.428749 -1.42625,0 -0.68125,4.646249 -1.145,-4.646249 -1.36125,0 -1.11625,4.646249 -0.681249,-4.646249 -1.42375,0 1.29875,8.824999 1.24125,0 1.361249,-5.66625 1.395001,5.66625 1.237499,0 1.301251,-8.824999 z"
     style="fill:#000000;fill-opacity:1;fill-rule:evenodd;stroke:none"
     id="path3473"
     inkscape:connector-curvature="0" />
  <path
     d="m 62.481057,60.862813 c 0,1.17625 -0.278749,2.13875 -0.80625,2.662501 -0.24625,0.25 -0.524999,0.3425 -0.988749,0.3425 l -1.393751,0 0,-6.008751 1.58,0 c 0.371251,0 0.68125,0.15375 0.89875,0.37125 0.431251,0.46375 0.71,1.455 0.71,2.6325 m 1.426251,0 c 0,-1.73375 -0.527501,-3.1275 -1.455001,-3.93375 -0.467499,-0.37125 -0.80625,-0.46375 -1.705,-0.46375 l -2.848749,0 0,8.826251 2.692499,0 0.49625,0 c 0.46625,-0.03 0.93,-0.18625 1.27125,-0.49625 0.98875,-0.77375 1.548751,-2.167501 1.548751,-3.932501 m -10.19125,0.52625 -1.765,0 0.89875,-2.4775 0.86625,2.4775 z m 2.85,3.902501 -3.035,-8.826251 -1.39375,0 -3.035,8.826251 1.48625,0 0.8675,-2.476251 2.75625,0 0.86875,2.476251 1.485,0 z m -8.145,0 0,-1.42375 -4.0875,0 0,-2.417501 2.57125,0 0,-1.4225 -2.57125,0 0,-2.16875 3.80875,0 0,-1.39375 -5.2025,0 0,8.826251 5.48125,0 z m -7.55625,0 0,-8.826251 -1.39375,0 0,3.5625 -3.220001,0 0,-3.5625 -1.395,0 0,8.826251 1.395,0 0,-3.841251 3.220001,0 0,3.841251 1.39375,0 z m -10.190001,-3.902501 -1.765,0 0.8975,-2.4775 0.8675,2.4775 z m 2.84875,3.902501 -3.035,-8.826251 -1.39125,0 -3.0375,8.826251 1.4875,0 0.86625,-2.476251 2.75625,0 0.87,2.476251 1.48375,0 z"
     style="fill:#000000;fill-opacity:1;fill-rule:evenodd;stroke:none"
     id="path3477"
     inkscape:connector-curvature="0" />
</svg>
