<?xml version="1.0" encoding="UTF-8" standalone="no"?>
<!-- Created with Inkscape (http://www.inkscape.org/) -->

<svg
   xmlns:dc="http://purl.org/dc/elements/1.1/"
   xmlns:cc="http://creativecommons.org/ns#"
   xmlns:rdf="http://www.w3.org/1999/02/22-rdf-syntax-ns#"
   xmlns:svg="http://www.w3.org/2000/svg"
   xmlns="http://www.w3.org/2000/svg"
   xmlns:sodipodi="http://sodipodi.sourceforge.net/DTD/sodipodi-0.dtd"
   xmlns:inkscape="http://www.inkscape.org/namespaces/inkscape"
   width="216.60001"
   height="324.60001"
   id="svg2"
   version="1.1"
   inkscape:version="0.48.5 r10040"
   sodipodi:docname="Caltrans R13A.svg">
  <defs
     id="defs4" />
  <sodipodi:namedview
     id="base"
     pagecolor="#ffffff"
     bordercolor="#666666"
     borderopacity="1.0"
     inkscape:pageopacity="0.0"
     inkscape:pageshadow="2"
     inkscape:zoom="0.7"
     inkscape:cx="121.33305"
     inkscape:cy="165.66468"
     inkscape:document-units="px"
     inkscape:current-layer="layer1"
     showgrid="false"
     fit-margin-top="0"
     fit-margin-left="0"
     fit-margin-right="0"
     fit-margin-bottom="0"
     inkscape:window-width="1024"
     inkscape:window-height="578"
     inkscape:window-x="-8"
     inkscape:window-y="-8"
     inkscape:window-maximized="1" />
  <metadata
     id="metadata7">
    <rdf:RDF>
      <cc:Work
         rdf:about="">
        <dc:format>image/svg+xml</dc:format>
        <dc:type
           rdf:resource="http://purl.org/dc/dcmitype/StillImage" />
        <dc:title />
      </cc:Work>
    </rdf:RDF>
  </metadata>
  <g
     inkscape:label="Layer 1"
     inkscape:groupmode="layer"
     id="layer1"
     transform="translate(-211.7,-152.91933)">
    <path
       inkscape:connector-curvature="0"
       d="m 428,170.01933 c 0,-9.3 -7.5,-16.8 -16.8,-16.8 l -182.4,0 c -9.3,0 -16.8,7.5 -16.8,16.8 l 0,290.4 c 0,9.3 7.5,16.8 16.8,16.8 l 182.4,0 c 9.3,0 16.8,-7.5 16.8,-16.8 l 0,-290.4 z"
       style="fill:#ffffff;stroke:#000000;stroke-width:0.59999996000000000;stroke-linecap:round;stroke-linejoin:round;stroke-miterlimit:10;stroke-opacity:1;stroke-dasharray:none"
       id="path338" />
    <path
       inkscape:connector-curvature="0"
       id="path3906"
       style="font-size:67.5px;font-variant:normal;writing-mode:lr-tb;fill:#000000;fill-opacity:1;fill-rule:nonzero;stroke:none;font-family:Roadgeek 2005 Series C;-inkscape-font-specification:Roadgeek 2005 Series C"
       d="m 259.59459,410.58961 c 0.0112,-3.35384 -0.18003,-6.24786 -0.57375,-8.68208 -0.39377,-2.43415 -1.05751,-4.73756 -1.99122,-6.91022 -1.09126,-2.74492 -2.48624,-4.73052 -4.18495,-5.9568 -1.69875,-1.22619 -3.83622,-1.82805 -6.41241,-1.8056 -2.60577,-0.0196 -4.76855,0.5766 -6.48836,1.78873 -1.71983,1.21221 -3.157,3.15843 -4.3115,5.83867 -0.93375,2.11923 -1.59749,4.42826 -1.99123,6.9271 -0.39375,2.49891 -0.585,5.4323 -0.57374,8.8002 -0.0113,3.41857 0.17999,6.35196 0.57374,8.8002 0.39374,2.44826 1.05748,4.75729 1.99123,6.9271 1.087,2.65637 2.49042,4.61666 4.21025,5.88086 1.71981,1.2642 3.91634,1.89138 6.58961,1.88154 2.51713,0.01 4.63773,-0.61734 6.36179,-1.88154 1.72401,-1.2642 3.13587,-3.22449 4.23557,-5.88086 0.93371,-2.11075 1.59745,-4.4029 1.99122,-6.87648 0.39372,-2.47354 0.58497,-5.42381 0.57375,-8.85082 z m -6.20992,0 c 0.008,2.52702 -0.0928,4.6448 -0.30375,6.35335 -0.21096,1.70859 -0.5822,3.43826 -1.11373,5.189 -0.56393,1.9167 -1.29235,3.33137 -2.18529,4.24401 -0.89298,0.91265 -2.00952,1.36546 -3.34964,1.35842 -1.44141,0.007 -2.62545,-0.44577 -3.55215,-1.35842 -0.92672,-0.91264 -1.65514,-2.32731 -2.18528,-4.24401 -0.4725,-1.762 -0.82688,-3.50291 -1.06311,-5.22275 -0.23626,-1.7198 -0.35438,-3.78133 -0.35437,-6.1846 -0.008,-2.48057 0.0928,-4.60679 0.30374,-6.37867 0.21093,-1.77182 0.58217,-3.49305 1.11374,-5.16368 0.53014,-1.91666 1.25856,-3.33133 2.18528,-4.24401 0.9267,-0.91261 2.11074,-1.36541 3.55215,-1.35842 1.34012,-0.01 2.45666,0.44863 3.34964,1.37529 0.89294,0.92675 1.62136,2.38079 2.18529,4.36213 0.47247,1.60033 0.82684,3.25968 1.06311,4.97807 0.23622,1.71844 0.35434,3.81653 0.35437,6.29429 z" />
    <path
       inkscape:connector-curvature="0"
       d="m 387.8,236.16933 -43.95,-30.3 -0.6,-0.3 -0.75,-0.3 -0.75,-0.15 -1.65,0 -0.6,0.15 -0.45,0.15 -0.75,0.45 -0.75,0.6 -0.6,0.75 -0.3,0.45 -0.45,1.35 -0.15,1.05 0.3,1.8 4.65,13.5 -14.4,0 0,21.6 14.4,0 -4.65,13.5 -0.15,0.9 -0.15,0.45 0,0.45 0.15,1.05 0.15,0.45 0.15,0.45 0.45,0.75 0.6,0.75 0.75,0.6 0.3,0.3 0.45,0.15 1.05,0.3 0.9,0.15 0.75,0 0.75,-0.15 0.75,-0.3 0.6,-0.45 43.95,-30.15 z"
       style="fill:#000000;fill-opacity:1;fill-rule:evenodd;stroke:none"
       id="path58" />
    <path
       inkscape:connector-curvature="0"
       d="m 232.7,163.26933 174.6,0 0,-5.55 -174.6,0 0,5.55 z"
       style="fill:#000000;fill-opacity:1;fill-rule:nonzero;stroke:none"
       id="path340" />
    <path
       inkscape:connector-curvature="0"
       d="m 407.6,157.71933 3,0.15 3,1.05 2.85,1.5 2.4,1.95 1.95,2.4 1.5,2.85 0.9,2.85 0.3,3.15 -5.55,0.6 -0.15,-2.55 -0.6,-1.95 -1.05,-1.95 -1.2,-1.5 -1.8,-1.35 -1.65,-0.9 -2.1,-0.75 -2.4,0 0.6,-5.55 z"
       style="fill:#000000;fill-opacity:1;fill-rule:nonzero;stroke:none"
       id="path342" />
    <path
       inkscape:connector-curvature="0"
       d="m 407.3,157.71933 0.3,0 -0.6,5.55 0.3,0 0,-5.55 z"
       style="fill:#000000;fill-opacity:1;fill-rule:nonzero;stroke:none"
       id="path344" />
    <path
       inkscape:connector-curvature="0"
       d="m 418.1,456.51933 5.55,0 0,-282.6 -5.55,0 0,282.6 z"
       style="fill:#000000;fill-opacity:1;fill-rule:nonzero;stroke:none"
       id="path346" />
    <path
       inkscape:connector-curvature="0"
       id="path3908"
       style="font-size:67.5px;font-variant:normal;writing-mode:lr-tb;fill:#000000;fill-opacity:1;fill-rule:nonzero;stroke:none;font-family:Roadgeek 2005 Series C;-inkscape-font-specification:Roadgeek 2005 Series C"
       d="m 292.7071,433.26932 0,-45.22442 -6.47991,0 0,27.13465 -12.41984,-27.13465 -6.47992,0 0,45.22442 6.47992,0 0,-30.30711 13.97232,30.30711 z" />
    <path
       inkscape:connector-curvature="0"
       id="path3910"
       style="font-size:67.5px;font-variant:normal;writing-mode:lr-tb;fill:#000000;fill-opacity:1;fill-rule:nonzero;stroke:none;font-family:Roadgeek 2005 Series C;-inkscape-font-specification:Roadgeek 2005 Series C"
       d="m 344.4571,433.26932 -6.47991,-22.20722 c 2.13041,-0.82684 3.74195,-2.17682 4.83462,-4.04994 1.09261,-1.87308 1.64104,-4.16805 1.64529,-6.88492 -0.0521,-3.69272 -1.1461,-6.61768 -3.28214,-8.77488 -2.13609,-2.15712 -5.00199,-3.2596 -8.5977,-3.30746 l -13.49983,0 0,45.22442 6.47992,0 0,-21.26223 6.20992,0 6.00742,21.26223 z m -6.34491,-33.14208 c -0.008,1.83095 -0.51471,3.23155 -1.51874,4.20182 -1.00407,0.97033 -2.4553,1.4597 -4.35369,1.46811 l -6.68241,0 0,-11.40735 6.68241,0 c 1.78027,0.0197 3.19775,0.53722 4.25245,1.55248 1.05465,1.01533 1.59464,2.41031 1.61998,4.18494 z" />
    <path
       inkscape:connector-curvature="0"
       id="path3912"
       style="font-size:67.5px;font-variant:normal;writing-mode:lr-tb;fill:#000000;fill-opacity:1;fill-rule:nonzero;stroke:none;font-family:Roadgeek 2005 Series C;-inkscape-font-specification:Roadgeek 2005 Series C"
       d="m 375.84463,433.26932 0,-6.34492 -16.53728,0 0,-14.91731 9.38238,0 0,-6.20992 -9.38238,0 0,-11.40735 14.78231,0 0,-6.34492 -21.26223,0 0,45.22442 z" />
    <path
       inkscape:connector-curvature="0"
       d="m 216.5,456.51933 5.55,0 0,-282.6 -5.55,0 0,282.6 z"
       style="fill:#000000;fill-opacity:1;fill-rule:nonzero;stroke:none"
       id="path362" />
    <path
       inkscape:connector-curvature="0"
       id="path3914"
       style="font-size:67.5px;font-variant:normal;writing-mode:lr-tb;fill:#000000;fill-opacity:1;fill-rule:nonzero;stroke:none;font-family:Roadgeek 2005 Series C;-inkscape-font-specification:Roadgeek 2005 Series C"
       d="m 407.75709,410.58961 c -0.007,-1.77886 -0.11112,-3.60415 -0.31218,-5.47587 -0.20112,-1.87166 -0.45706,-3.64633 -0.7678,-5.32399 -0.41065,-2.30619 -1.07439,-4.30866 -1.99123,-6.00742 -0.91689,-1.69869 -2.05312,-3.02617 -3.40871,-3.98245 -0.77485,-0.63417 -1.72265,-1.08698 -2.8434,-1.35842 -1.12079,-0.27136 -2.62545,-0.40355 -4.514,-0.39656 l -11.54235,0 0,45.22442 12.55484,0 c 1.25574,0.006 2.42291,-0.1575 3.50151,-0.48937 1.07856,-0.33187 2.02636,-0.86624 2.8434,-1.60311 2.18948,-1.70997 3.8179,-4.26369 4.88525,-7.66115 1.0673,-3.39744 1.59886,-7.70613 1.59467,-12.92608 z m -6.34492,0.3375 c -0.008,1.72124 -0.076,3.37497 -0.20249,4.96118 -0.12659,1.58625 -0.26159,3.10498 -0.405,4.55619 -0.32767,1.77608 -1.02235,3.28638 -2.08404,4.53088 -1.06172,1.24452 -2.54951,1.8942 -4.46337,1.94904 l -5.39994,0 0,-32.53458 5.39994,0 c 1.44699,-0.007 2.65353,0.36144 3.61963,1.1053 0.96606,0.74393 1.71699,1.90548 2.25279,3.48464 0.40778,1.00408 0.72278,2.59031 0.94499,4.75869 0.22216,2.16843 0.33466,4.56465 0.33749,7.18866 z" />
    <path
       inkscape:connector-curvature="0"
       d="m 423.5,456.81933 -0.3,3 -0.9,3 -1.5,2.85 -1.95,2.25 -2.4,1.95 -2.85,1.5 -3,1.05 -3,0.3 -0.75,-5.4 2.55,-0.3 2.1,-0.75 1.65,-0.9 1.8,-1.35 1.35,-1.65 0.9,-1.65 0.6,-2.1 0.15,-2.25 5.55,0.45 z"
       style="fill:#000000;fill-opacity:1;fill-rule:nonzero;stroke:none"
       id="path350" />
    <path
       inkscape:connector-curvature="0"
       d="m 232.7,472.86933 174.6,0 0,-5.55 -174.6,0 0,5.55 z"
       style="fill:#000000;fill-opacity:1;fill-rule:nonzero;stroke:none"
       id="path354" />
    <path
       inkscape:connector-curvature="0"
       d="m 232.4,472.71933 -3,-0.3 -3,-1.05 -2.85,-1.5 -2.4,-1.95 -1.95,-2.25 -1.5,-2.85 -0.9,-3 -0.3,-3 5.4,-0.6 0.3,2.4 0.6,2.1 0.9,1.8 1.35,1.5 1.8,1.5 1.65,0.75 2.1,0.75 2.4,0.3 -0.6,5.4 z"
       style="fill:#000000;fill-opacity:1;fill-rule:nonzero;stroke:none"
       id="path358" />
    <path
       inkscape:connector-curvature="0"
       d="m 232.7,472.86933 1.2,0 -1.5,-0.15 0.6,-5.4 -0.3,0 0,5.55 z"
       style="fill:#000000;fill-opacity:1;fill-rule:nonzero;stroke:none"
       id="path360" />
    <path
       inkscape:connector-curvature="0"
       d="m 216.5,173.61933 0.3,-3.15 0.9,-2.85 1.5,-3 1.95,-2.25 2.55,-1.95 2.7,-1.5 3,-1.05 3,-0.15 0.45,5.55 -2.25,0 -2.1,0.75 -1.8,1.05 -1.65,1.2 -1.5,1.8 -0.75,1.65 -0.6,1.95 -0.3,2.7 -5.4,-0.75 z"
       style="fill:#000000;fill-opacity:1;fill-rule:nonzero;stroke:none"
       id="path366" />
    <path
       inkscape:connector-curvature="0"
       d="m 387.8,236.16933 -43.95,-30.3 -1.35,-0.6 -1.5,-0.3 -1.95,0.45 -1.5,1.05 -1.05,1.65 -0.3,0.9 -0.15,1.05 0.3,1.65 4.65,13.65 -14.4,0 0,21.6 14.4,0 -4.65,13.5 -0.3,1.8 0.15,0.9 0.3,1.05 1.05,1.5 1.5,1.05 1.95,0.45 1.5,-0.3 1.35,-0.6 43.95,-30.15"
       style="fill:none;stroke:#000000;stroke-width:0.14999999;stroke-linecap:round;stroke-linejoin:round;stroke-miterlimit:10;stroke-opacity:1;stroke-dasharray:none"
       id="path60" />
    <path
       inkscape:connector-curvature="0"
       d="m 405.65,260.91933 c 0,-47.25 -38.25,-85.5 -85.5,-85.5 -47.25,0 -85.5,38.25 -85.5,85.5 0,47.25 38.25,85.5 85.5,85.5 47.25,0 85.5,-38.25 85.5,-85.5 z"
       style="fill:none;stroke:#af1e2d;stroke-width:18;stroke-linecap:round;stroke-linejoin:round;stroke-miterlimit:10;stroke-opacity:1;stroke-dasharray:none"
       id="path404" />
    <path
       inkscape:connector-curvature="0"
       d="m 306.95,247.41933 0,66.45 -22.5,0 0,-73.8 0.3,-1.65 0.45,-1.65 1.2,-3 0.9,-1.35 1.05,-1.35 1.05,-1.2 1.2,-1.05 1.35,-1.05 1.35,-0.75 1.5,-0.75 1.5,-0.6 1.65,-0.45 1.65,-0.15 0.9,-0.15 47.4,0 0,22.5 -40.95,0 z"
       style="fill:#000000;fill-opacity:1;fill-rule:evenodd;stroke:none"
       id="path62" />
    <path
       inkscape:connector-curvature="0"
       d="m 372.35,326.31933 12.6,-12.75 -116.7,-116.7 -12.6,12.75 116.7,116.7 z"
       style="fill:#af1e2d;fill-opacity:1;fill-rule:nonzero;stroke:none"
       id="path402" />
    <path
       inkscape:connector-curvature="0"
       d="m 306.95,247.41933 0,66.45 -22.5,0 0,-72 0.3,-3.45 1.05,-3.15 1.5,-2.85 2.1,-2.55 2.4,-2.1 3,-1.5 3.15,-1.05 1.65,-0.15 1.8,-0.15 46.5,0 0,22.5 -40.95,0"
       style="fill:none;stroke:#000000;stroke-width:0.14999999;stroke-linecap:round;stroke-linejoin:round;stroke-miterlimit:10;stroke-opacity:1;stroke-dasharray:none"
       id="path64" />
  </g>
</svg>
