<?xml version="1.0" encoding="UTF-8" standalone="no"?>
<svg
   width="74.429893"
   height="74.431252"
   viewBox="0 0 210.05775 210.06152"
   version="1.1"
   id="svg2"
   inkscape:version="1.2.1 (9c6d41e410, 2022-07-14)"
   sodipodi:docname="MUTCD_W8-8.svg"
   xmlns:inkscape="http://www.inkscape.org/namespaces/inkscape"
   xmlns:sodipodi="http://sodipodi.sourceforge.net/DTD/sodipodi-0.dtd"
   xmlns="http://www.w3.org/2000/svg"
   xmlns:svg="http://www.w3.org/2000/svg"
   xmlns:rdf="http://www.w3.org/1999/02/22-rdf-syntax-ns#"
   xmlns:cc="http://creativecommons.org/ns#"
   xmlns:dc="http://purl.org/dc/elements/1.1/">
  <metadata
     id="metadata62">
    <rdf:RDF>
      <cc:Work
         rdf:about="">
        <dc:format>image/svg+xml</dc:format>
        <dc:type
           rdf:resource="http://purl.org/dc/dcmitype/StillImage" />
        <dc:title />
      </cc:Work>
    </rdf:RDF>
  </metadata>
  <defs
     id="defs60" />
  <sodipodi:namedview
     pagecolor="#ffffff"
     bordercolor="#666666"
     borderopacity="1"
     objecttolerance="10"
     gridtolerance="10"
     guidetolerance="10"
     inkscape:pageopacity="0"
     inkscape:pageshadow="2"
     inkscape:window-width="2048"
     inkscape:window-height="1089"
     id="namedview58"
     showgrid="false"
     fit-margin-top="0"
     fit-margin-left="0"
     fit-margin-right="0"
     fit-margin-bottom="0"
     inkscape:zoom="8.0000001"
     inkscape:cx="41.249999"
     inkscape:cy="28.5"
     inkscape:window-x="-8"
     inkscape:window-y="-8"
     inkscape:window-maximized="1"
     inkscape:current-layer="svg2"
     inkscape:showpageshadow="2"
     inkscape:pagecheckerboard="0"
     inkscape:deskcolor="#d1d1d1" />
  <!-- draw the bicycle -->
  <!-- RIGHT -->
  <!-- LANE -->
  <!-- ONLY -->
  <path
     d="M 206.65025,96.805734 113.26995,3.43602 C 111.11095,1.262908 108.10881,-3.6983694e-5 105.03611,-3.6983694e-5 101.97047,-3.6983694e-5 98.97892,1.262908 96.79522,3.43602 L 3.4113897,96.805734 C 1.2418097,98.978844 -0.00702031,101.95982 2.9689291e-5,105.04663 0.02122969,108.11227 1.2488597,111.11088 3.4113897,113.28046 L 96.79522,206.64665 c 2.16253,2.16253 5.19289,3.41136 8.24795,3.41489 3.05153,-0.003 6.07483,-1.25236 8.23383,-3.41489 l 93.37325,-93.36266 c 2.79752,-2.79753 3.98991,-7.0097 3.13619,-10.86203 -0.50094,-2.21897 -1.72861,-3.866446 -3.13619,-5.616226"
     style="fill:#ffd033;fill-opacity:1;fill-rule:nonzero;stroke:none"
     id="path6132"
     inkscape:connector-curvature="0" />
  <path
     d="m 204.34308,110.97329 -93.36972,93.36619 c -1.56986,1.56281 -3.71828,2.45534 -5.93019,2.45534 -2.21192,0 -4.35681,-0.89253 -5.92667,-2.45534 L 5.7079797,110.96977 c -1.55223,-1.55223 -2.43417,-3.72886 -2.43417,-5.92667 0.007,-2.19781 0.889,-4.37797 2.43769,-5.930196 L 99.10944,5.718492 c 1.56281,-1.545167 3.73592,-2.430639 5.92667,-2.430639 2.19781,0 4.3815,0.885472 5.93725,2.430639 l 93.36972,93.397942 c 1.56633,1.569856 2.45181,3.714746 2.45181,5.926666 0,2.21544 -0.88548,4.36033 -2.45181,5.93019"
     style="fill:#000000;fill-opacity:1;fill-rule:evenodd;stroke:none"
     id="path6140"
     inkscape:connector-curvature="0" />
  <path
     d="m 201.12575,107.74891 c 0.70908,-0.70203 1.12183,-1.71451 1.12183,-2.70581 0,-0.98072 -0.41275,-2.02142 -1.12183,-2.71992 L 107.74192,8.94641 c -0.69497,-0.6985 -1.7145,-1.111251 -2.69875,-1.111251 -0.98778,0 -2.02142,0.412751 -2.72345,1.111251 L 8.9323697,102.32318 c -0.70556,0.70909 -1.09714,1.71803 -1.09714,2.71639 0.007,0.99836 0.39158,1.9932 1.10419,2.70581 l 93.3803003,93.39088 c 0.70203,0.6985 1.74272,1.11125 2.72345,1.11125 0.9913,0 2.00378,-0.41275 2.7058,-1.11125 l 93.37678,-93.38735 z"
     style="fill:#ffd033;fill-opacity:1;fill-rule:evenodd;stroke:none"
     id="path6144"
     inkscape:connector-curvature="0" />
  <path
     style="fill:#f4911d;fill-opacity:1;stroke-width:0.125"
     d="M 36.625,71.386973 C 36.028461,71.009814 2.970417,37.843495 2.8778463,37.529287 2.8319548,37.373521 2.8545539,37.063828 2.9280664,36.841083 3.0228755,36.55381 7.9401257,31.558595 19.845377,19.655546 L 36.629028,2.875 h 0.559968 0.559967 l 16.906769,16.906767 16.906767,16.906769 v 0.55996 0.55996 L 54.843749,54.541878 C 45.003961,64.390302 37.9595,71.347242 37.722765,71.450149 37.198625,71.67799 37.073943,71.670815 36.625,71.386973 Z"
     id="path15724"
     transform="scale(2.8222225)" />
  <path
     style="fill:#f4911d;fill-opacity:1;stroke-width:0.125"
     d="M 36.125,74.208167 C 35.85,74.116784 35.428125,73.942525 35.1875,73.820924 34.946875,73.699323 27.116225,65.969557 17.786056,56.643666 -1.2236238,37.642701 0.13102776,39.130417 0.12700539,37.25 0.12301816,35.38601 -1.3656287,37.022217 17.662512,17.976297 29.35288,6.2750072 34.914851,0.79099204 35.310521,0.57564137 36.405018,-0.0200589 37.853497,-0.04649584 39.033562,0.50769022 39.498957,0.7262511 43.176759,4.3313019 56.291221,17.423971 65.457643,26.575162 73.197938,34.4 73.491877,34.8125 c 0.29394,0.4125 0.598827,0.941206 0.677528,1.174902 0.229114,0.680333 0.1743,1.917668 -0.120791,2.726659 -0.253284,0.694376 -0.949565,1.40972 -17.331895,17.806402 -14.285996,14.298512 -17.178281,17.136959 -17.744542,17.414229 -0.81751,0.400296 -2.09599,0.523096 -2.847177,0.273475 z m 2.486883,-1.22664 C 38.956622,72.81017 44.632697,67.223604 55.909197,55.956988 68.989274,42.888373 72.76171,39.051048 73.002947,38.569207 73.416485,37.743213 73.419674,36.792183 73.011772,35.9375 72.76994,35.430786 69.499542,32.104717 55.731743,18.36332 40.902203,3.5622161 38.684793,1.3958166 38.235497,1.2695694 37.390012,1.0319978 36.556472,1.0900303 35.868292,1.4343782 35.386007,1.6757019 31.548967,5.4496083 18.425039,18.590629 6.6064467,30.424611 1.5332712,35.584733 1.375559,35.932308 1.0824564,36.578265 1.0678286,37.66476 1.3426725,38.375 c 0.182614,0.471902 2.9529954,3.297621 17.2008045,17.544383 15.964763,15.963586 17.02356,16.996215 17.657328,17.220882 0.798795,0.28317 1.63246,0.228284 2.411078,-0.158738 z"
     id="path15726"
     transform="scale(2.8222225)" />
  <path
     d="M 163.48606,99.261089 V 73.384833 h -4.09222 V 83.827058 H 149.9535 V 73.384833 h -4.08517 v 25.876256 h 4.08517 V 88.003948 h 9.44034 v 11.257141 z m -23.68198,-7.715252 v -5.175251 h -8.80533 v 4.085168 h 4.72016 v 1.090083 c 0,2.363612 -1.90853,3.996974 -4.54025,3.996974 -1.55222,0 -2.72344,-0.631473 -3.54894,-2.088445 -0.81492,-1.63689 -1.27,-4.360335 -1.27,-7.08378 0,-2.180167 0.36689,-4.540251 0.99836,-6.081891 0.91016,-2.275417 2.26836,-3.182056 4.36386,-3.182056 1.99672,0 3.08681,0.818445 4.17336,3.090334 l 3.90878,-1.545167 c -1.72861,-4.088695 -4.08517,-5.722057 -8.08214,-5.722057 -2.90689,0 -5.09411,0.998362 -6.6287,2.90689 -1.72861,2.264834 -2.90689,6.357057 -2.90689,10.533947 0,3.178529 0.63148,6.35353 1.72156,8.628947 1.54869,3.263195 3.81706,4.730749 7.71525,4.730749 4.72723,0 8.18092,-3.464277 8.18092,-8.184445 M 116.2103,90.00067 V 73.384833 h -4.08517 V 90.00067 c 0,3.361973 -1.90853,5.542141 -4.72017,5.542141 -2.81869,0 -4.72016,-2.180168 -4.72016,-5.542141 V 73.384833 H 98.592575 V 90.00067 c 0,2.000251 0.455084,3.813529 1.185334,5.358696 1.358191,2.540001 4.445001,4.370916 7.627051,4.370916 3.17147,0 6.26534,-1.830915 7.62,-4.370916 0.73025,-1.545167 1.18534,-3.358445 1.18534,-5.358696 M 88.443156,86.370586 c 0,2.000251 -0.455083,4.540251 -0.998361,5.901974 -0.910167,2.271889 -2.088445,3.270251 -3.996973,3.270251 -1.633362,0 -2.719918,-0.631473 -3.54189,-2.000251 -0.998362,-1.633361 -1.541639,-4.448529 -1.541639,-7.171974 0,-2.180167 0.363361,-4.540251 0.998361,-6.081891 0.910167,-2.275417 2.176639,-3.273778 4.17689,-3.182056 1.541639,0.09525 2.54,0.638528 3.361973,1.996723 0.998361,1.728611 1.541639,4.360335 1.541639,7.267224 m 4.085168,0 c 0,-3.273778 -0.631473,-6.536974 -1.728612,-8.808863 -1.633361,-3.178529 -3.898195,-4.631974 -7.164918,-4.631974 -2.998612,0 -5.090585,0.906639 -6.635752,2.90689 -1.721556,2.451806 -2.811639,6.261807 -2.811639,10.533947 0,3.086807 0.73025,6.540502 1.813278,8.717141 1.541639,3.175001 3.817056,4.642555 7.447141,4.642555 2.7305,0 4.81189,-0.920748 6.265334,-2.920999 1.816806,-2.264834 2.815168,-6.353529 2.815168,-10.438697 M 65.396178,80.648529 c 0,1.093611 -0.635,2.180167 -1.633361,2.726973 -0.635,0.359834 -1.086556,0.451556 -2.363612,0.451556 H 56.502648 V 77.47 h 4.896557 c 1.36525,0 1.728612,0.09172 2.363612,0.455084 0.998361,0.543278 1.633361,1.636889 1.633361,2.723445 m 4.631974,18.61256 -4.543779,-12.075586 c 2.363611,-1.090083 3.996973,-3.810001 3.996973,-6.536974 0,-2.635251 -1.633362,-5.355168 -3.898195,-6.445252 -1.277056,-0.638528 -2.638779,-0.818444 -4.639029,-0.818444 h -8.530169 v 25.876256 h 4.088695 V 88.003948 h 4.896557 l 4.183946,11.257141 z"
     style="fill:#000000;fill-opacity:1;fill-rule:evenodd;stroke:none"
     id="path5992"
     inkscape:connector-curvature="0" />
  <path
     d="m 148.88458,133.74865 c 0,3.45017 -0.8255,6.26886 -2.36361,7.81403 -0.73025,0.72319 -1.54164,0.99836 -2.90689,0.99836 h -4.08517 v -17.61772 h 4.62845 c 1.09008,0 2.00025,0.45508 2.63172,1.08655 1.27,1.36525 2.0955,4.26509 2.0955,7.71878 m 4.16984,0 c 0,-5.08 -1.54517,-9.17222 -4.26509,-11.52878 -1.35819,-1.08656 -2.35655,-1.36172 -4.99533,-1.36172 h -8.35025 v 25.87978 h 7.89516 1.45345 c 1.36525,-0.0917 2.71992,-0.5468 3.72181,-1.45697 2.90689,-2.26483 4.54025,-6.35 4.54025,-11.53231 m -30.67757,1.54164 h -5.17172 l 2.63878,-7.26017 z m 8.35378,11.44764 -8.89705,-25.87978 h -4.08517 l -8.89706,25.87978 h 4.35681 l 2.54,-7.26369 h 8.08214 l 2.54353,7.26369 z M 100.59988,133.8439 c 0,2.00025 -0.45508,4.54025 -1.001888,5.89845 -0.906639,2.27541 -2.077861,3.27378 -3.989917,3.27378 -1.63689,0 -2.726973,-0.635 -3.538362,-2.00026 -1.00189,-1.62983 -1.545167,-4.44852 -1.545167,-7.17197 0,-2.18369 0.359833,-4.54025 0.998361,-6.08189 0.903111,-2.27542 2.173111,-3.27378 4.169834,-3.18558 1.548695,0.0988 2.550584,0.64205 3.361973,2.00025 0.998366,1.72861 1.545166,4.36033 1.545166,7.26722 m 4.08516,0 c 0,-3.27378 -0.635,-6.53697 -1.72507,-8.81239 -1.62984,-3.175 -3.905256,-4.62845 -7.171979,-4.62845 -2.995084,0 -5.083529,0.90664 -6.628696,2.90689 -1.728611,2.45181 -2.815167,6.26181 -2.815167,10.53395 0,3.08681 0.73025,6.5405 1.816806,8.71714 1.545167,3.175 3.810001,4.64256 7.447141,4.64256 2.723445,0 4.811895,-0.92075 6.265335,-2.921 1.81328,-2.26484 2.81163,-6.35353 2.81163,-10.4387 m -27.49197,-5.71853 c 0,1.09009 -0.642056,2.16959 -1.640417,2.72345 -0.635,0.36336 -1.090084,0.44802 -2.356556,0.44802 h -4.90714 v -6.35352 h 4.90714 c 1.358195,0 1.721556,0.0882 2.356556,0.45508 0.998361,0.54328 1.640417,1.63336 1.640417,2.72697 m 4.62139,18.61256 -4.540251,-12.07911 c 2.363612,-1.09009 3.996973,-3.81 3.996973,-6.53345 0,-2.63878 -1.633361,-5.35869 -3.905251,-6.44878 -1.27,-0.64205 -2.628195,-0.81844 -4.624918,-0.81844 h -8.537224 v 25.87978 h 4.085168 v -11.26067 h 4.90714 l 4.169834,11.26067 z"
     style="fill:#000000;fill-opacity:1;fill-rule:evenodd;stroke:none"
     id="path5996"
     inkscape:connector-curvature="0" />
</svg>
