<?xml version="1.0" encoding="UTF-8" standalone="no"?>
<!-- Created with Inkscape (http://www.inkscape.org/) -->

<svg
   xmlns:dc="http://purl.org/dc/elements/1.1/"
   xmlns:cc="http://creativecommons.org/ns#"
   xmlns:rdf="http://www.w3.org/1999/02/22-rdf-syntax-ns#"
   xmlns:svg="http://www.w3.org/2000/svg"
   xmlns="http://www.w3.org/2000/svg"
   xmlns:sodipodi="http://sodipodi.sourceforge.net/DTD/sodipodi-0.dtd"
   xmlns:inkscape="http://www.inkscape.org/namespaces/inkscape"
   width="71.999962"
   height="57.600002"
   id="svg2934"
   version="1.1"
   inkscape:version="0.48.2 r9819"
   sodipodi:docname="MUTCD M4-9bR.svg">
  <defs
     id="defs2936">
    <inkscape:perspective
       sodipodi:type="inkscape:persp3d"
       inkscape:vp_x="0 : 526.18109 : 1"
       inkscape:vp_y="0 : 1000 : 0"
       inkscape:vp_z="744.09448 : 526.18109 : 1"
       inkscape:persp3d-origin="372.04724 : 350.78739 : 1"
       id="perspective2942" />
    <inkscape:perspective
       id="perspective2924"
       inkscape:persp3d-origin="0.5 : 0.33333333 : 1"
       inkscape:vp_z="1 : 0.5 : 1"
       inkscape:vp_y="0 : 1000 : 0"
       inkscape:vp_x="0 : 0.5 : 1"
       sodipodi:type="inkscape:persp3d" />
  </defs>
  <sodipodi:namedview
     id="base"
     pagecolor="#ffffff"
     bordercolor="#666666"
     borderopacity="1.0"
     inkscape:pageopacity="0.0"
     inkscape:pageshadow="2"
     inkscape:zoom="7.4193678"
     inkscape:cx="31.54667"
     inkscape:cy="10.251372"
     inkscape:document-units="px"
     inkscape:current-layer="g2909"
     showgrid="false"
     inkscape:window-width="1280"
     inkscape:window-height="1004"
     inkscape:window-x="-8"
     inkscape:window-y="-8"
     inkscape:window-maximized="1"
     fit-margin-top="0"
     fit-margin-left="0"
     fit-margin-right="0"
     fit-margin-bottom="0" />
  <metadata
     id="metadata2939">
    <rdf:RDF>
      <cc:Work
         rdf:about="">
        <dc:format>image/svg+xml</dc:format>
        <dc:type
           rdf:resource="http://purl.org/dc/dcmitype/StillImage" />
        <dc:title></dc:title>
      </cc:Work>
    </rdf:RDF>
  </metadata>
  <g
     inkscape:label="Ebene 1"
     inkscape:groupmode="layer"
     id="layer1"
     transform="translate(1342.1794,3431.5976)">
    <g
       id="g3018"
       transform="translate(2,-2)">
      <g
         id="g2909"
         transform="matrix(0.80835983,0,0,0.80835983,-165.10178,-177.02766)">
        <path
           d="m -1452.667,-4023.666 77.1934,0 c 3.2705,0 5.9379,2.6674 5.9379,5.9395 l 0,59.3779 c 0,3.2705 -2.6674,5.938 -5.9379,5.938 l -77.1934,0 c -3.2705,0 -5.9379,-2.6675 -5.9379,-5.938 l 0,-59.3779 c 0,-3.2721 2.6674,-5.9395 5.9379,-5.9395"
           style="fill:#f38f00;fill-opacity:1;fill-rule:nonzero;stroke:none"
           id="path6535"
           inkscape:connector-curvature="0" />
        <path
           d="m -1452.3257,-4022.1228 76.5099,0 c 2.6102,0 4.7364,2.1231 4.7364,4.7272 l 0,58.7161 c 0,2.6025 -2.1262,4.7256 -4.7364,4.7256 l -76.5099,0 c -2.6071,0 -4.7349,-2.1231 -4.7349,-4.7256 l 0,-58.7161 c 0,-2.6041 2.1278,-4.7272 4.7349,-4.7272"
           style="fill:#000000;fill-opacity:1;fill-rule:evenodd;stroke:none"
           id="path6543"
           inkscape:connector-curvature="0" />
        <path
           d="m -1452.2751,-4019.7476 76.4078,0 c 1.3283,0 2.4123,1.0809 2.4123,2.4061 l 0,58.6079 c 0,1.3236 -1.084,2.4045 -2.4123,2.4045 l -76.4078,0 c -1.3284,0 -2.4108,-1.0809 -2.4108,-2.4045 l 0,-58.6079 c 0,-1.3252 1.0824,-2.4061 2.4108,-2.4061"
           style="fill:#f38f00;fill-opacity:1;fill-rule:evenodd;stroke:none"
           id="path6547"
           inkscape:connector-curvature="0" />
        <path
           d="m -1435.723,-3966.0369 29.232,0 -0.8783,4.9391 c 0,0.6355 0.3789,0.8102 0.8428,0.3912 l 12.9073,-7.7054 c 0.4654,-0.4129 0.4608,-1.084 -0.011,-1.4907 l -12.9027,-7.9312 c -0.4593,-0.4221 -0.8366,-0.2505 -0.8366,0.382 l 0.8783,4.6281 -29.232,0 0,6.7869 z"
           style="fill:#000000;fill-opacity:1;fill-rule:nonzero;stroke:none"
           id="path6495"
           inkscape:connector-curvature="0" />
        <path
           d="m -1444.3645,-3981.8451 3.3927,0 c 1.7643,0 2.9272,-0.6649 3.3617,-1.0531 0.7129,-0.6355 1.7226,-1.936 1.7226,-4.121 0,-1.4412 -0.4685,-2.8514 -1.4736,-3.8735 -1.2557,-1.2711 -2.6041,-1.2866 -3.1932,-1.2866 l -3.8102,0 0,10.3342 z m 1.9035,-8.8621 1.783,0 c 1.7674,0 2.7741,1.7195 2.7741,3.6107 0,2.4943 -1.3793,3.7344 -2.9922,3.7344 l -1.5649,0 0,-7.3451 z"
           style="fill:#000000;fill-opacity:1;fill-rule:nonzero;stroke:none"
           id="path6499"
           inkscape:connector-curvature="0" />
        <path
           d="m -1432.569,-3981.8451 0,-10.3342 6.6477,0 0,1.534 -4.7906,0 0,2.805 3.8458,0 0,1.5031 -3.8458,0 0,2.8963 4.8524,0 0,1.5958 -6.7095,0 z"
           style="fill:#000000;fill-opacity:1;fill-rule:nonzero;stroke:none"
           id="path6503"
           inkscape:connector-curvature="0" />
        <path
           d="m -1421.0381,-3981.8451 0,-8.7368 -2.7417,0 0,-1.5974 7.4843,0 0,1.5974 -2.7432,0 0,8.7368 -1.9994,0 z"
           style="fill:#000000;fill-opacity:1;fill-rule:nonzero;stroke:none"
           id="path6507"
           inkscape:connector-curvature="0" />
        <path
           d="m -1405.7077,-3987.0192 c 0,-2.7741 -1.4396,-5.3147 -4.3545,-5.3147 -2.8514,0 -4.4303,2.4942 -4.4303,5.2838 0,2.3381 1.0995,5.3612 4.3545,5.3612 2.7092,0 4.4303,-2.1695 4.4303,-5.3303 m -2.0118,-0.017 c 0,1.4737 -0.218,2.1556 -0.467,2.652 -0.3077,0.6185 -1.0082,1.1922 -1.936,1.1922 -2.154,0 -2.3566,-2.5731 -2.3566,-3.7962 0,-1.8433 0.4345,-3.8427 2.3891,-3.8427 0.4144,0 1.3314,0.063 1.8571,1.1304 0.4809,0.9757 0.5134,2.2468 0.5134,2.6643"
           style="fill:#000000;fill-opacity:1;fill-rule:nonzero;stroke:none"
           id="path6511"
           inkscape:connector-curvature="0" />
        <path
           d="m -1395.3053,-3985.5331 c 0,1.1319 0,2.4169 -1.4582,3.3169 -0.8196,0.4963 -1.8108,0.5273 -2.137,0.5273 -0.6186,0 -2.0304,-0.1237 -2.7711,-0.9912 -0.7762,-0.9294 -0.8226,-1.7969 -0.8226,-2.7123 l 0,-6.7869 1.9035,0 0,6.6462 c 0,0.6046 0.082,1.2881 0.4531,1.6747 0.3417,0.3556 0.9262,0.5427 1.4535,0.5427 0.5908,0 1.2572,-0.2335 1.534,-0.634 0.3108,-0.4345 0.3557,-1.0871 0.3557,-1.5834 l 0,-6.6462 1.4891,0 0,6.6462 z"
           style="fill:#000000;fill-opacity:1;fill-rule:nonzero;stroke:none"
           id="path6515"
           inkscape:connector-curvature="0" />
        <path
           d="m -1384.5412,-3981.8451 -1.8123,-4.5555 c 0.5273,-0.232 1.8587,-0.8041 1.8587,-2.7401 0,-1.0546 -0.4021,-1.752 -0.9294,-2.233 -0.6355,-0.5566 -1.4118,-0.8056 -2.6968,-0.8056 l -4.4782,0 0,10.3342 1.8602,0 0,-4.2447 2.618,0 1.6097,4.2447 1.9701,0 z m -6.1978,-8.8466 2.4804,0 c 1.3144,0 1.8278,0.7438 1.8278,1.52 0,1.2835 -1.0701,1.5959 -1.984,1.5959 l -2.3242,0 0,-3.1159 z"
           style="fill:#000000;fill-opacity:1;fill-rule:nonzero;stroke:none"
           id="path6519"
           inkscape:connector-curvature="0" />
        <path
           d="m -1401.4606,-4002.4071 c -1.0113,2.12 -3.5565,3.02 -5.6766,2.0087 -1.1458,-0.5444 -1.9283,-1.5402 -2.253,-2.6706 1.3438,-0.2304 2.8839,-0.4963 3.8767,-0.668 0.1129,0.1222 0.2721,0.1995 0.45,0.1995 0.2567,0 0.4747,-0.1531 0.569,-0.3758 0.011,0 0.017,0 0.017,0 l -0.014,-0.019 c 0.026,-0.07 0.045,-0.1422 0.045,-0.218 0,-0.3402 -0.2753,-0.617 -0.617,-0.617 -0.02,0 -0.039,0 -0.057,0.01 l -2.3767,-3.1236 c 1.1814,-0.7098 2.6907,-0.8351 4.0267,-0.1964 2.12,1.0097 3.0231,3.555 2.0102,5.6751 m -7.6853,-3.668 c 0.232,-0.4855 0.5459,-0.9015 0.9155,-1.2525 0.8443,1.1149 1.7334,2.2839 2.0983,2.7633 -0.5984,0.1021 -2.0721,0.3572 -3.4189,0.5892 -0.045,-0.7005 0.082,-1.4211 0.4051,-2.1 m -1.3144,2.2546 c -0.3556,0.063 -0.685,0.1191 -0.9541,0.1655 l -0.4917,-0.4175 c 0.4979,-1.3516 1.4768,-4.7349 1.8417,-5.7231 0.2319,0.3062 0.8041,1.1165 1.2711,1.7304 -0.4825,0.4376 -0.8907,0.9696 -1.183,1.5958 -0.4113,0.8551 -0.5566,1.7675 -0.484,2.6489 m -2.2313,-0.7732 -0.1361,-0.7963 0.2288,0 0,-0.7052 -1.5216,0 0,0.6804 c -1.5772,-1.6577 -3.8302,-4.0282 -4.0808,-4.2942 l 0.034,-0.079 c 0.079,-0.1995 0.1531,-0.382 0.2412,-0.5938 0.5644,0 6.8348,0.054 7.0637,0.054 -0.1237,0.3371 -1.1026,3.7514 -1.8293,5.7338 m -1.2077,-0.5845 c -0.063,-0.068 -0.133,-0.1407 -0.1995,-0.2118 l 0.5335,0 0.133,0.7762 -0.467,-0.5644 z m -4.2324,2.7602 c -1.0113,2.1201 -3.5581,3.0216 -5.6781,2.0103 -2.117,-1.0113 -3.02,-3.5582 -2.0072,-5.6751 1.0082,-2.1216 3.5535,-3.0231 5.6735,-2.0102 0.082,0.037 0.1578,0.083 0.2366,0.1268 -0.2907,0.7035 -0.5226,1.2788 -0.5798,1.4149 -0.079,0.087 -1.0995,1.1953 -1.5804,1.718 -0.023,0 -0.048,-0.01 -0.076,-0.01 -0.3371,0 -0.6123,0.2768 -0.6123,0.6155 0,0.3417 0.2752,0.6154 0.6123,0.6154 0.2691,0 0.4964,-0.1716 0.5799,-0.4067 l 1.8664,-2.0334 0.5629,-1.3685 c 1.3685,1.2278 1.8324,3.2581 1.002,5.0008 m 15.0568,-6.4961 c -1.6593,-0.7918 -3.5288,-0.6155 -4.9808,0.2938 l -1.7211,-2.2438 0.3433,-0.8675 c 1.1598,-0.054 1.4505,-0.7809 1.3778,-1.2139 l -4.506,0.4083 c 0.1499,0.2721 1.1721,0.7329 1.9684,0.8056 l -0.1113,0.4825 -6.8766,-0.053 c 0.133,-0.4778 0.4222,-1.5185 0.4222,-1.5185 l 0.042,-0.1593 c 0,0 -0.4762,-0.6943 -0.5798,-0.9278 -0.1346,-0.1376 0.2427,-0.053 0.269,-0.1051 0.4083,-0.01 1.9824,0.023 1.9824,0.023 0.1809,0 0.2382,-0.9247 -0.015,-0.9186 l -2.4433,-0.017 -0.9154,1.1134 c 0,0 0.6402,0.7005 0.7283,0.9046 -0.073,0.2613 -0.4268,1.5448 -0.4268,1.5448 0,0 -0.012,0.023 -0.023,0.054 l 0,0 -0.7346,1.8 0,0 c -0.091,0.2211 -0.1871,0.4515 -0.2783,0.6819 -0.063,-0.036 -0.1206,-0.071 -0.1902,-0.1036 -2.5762,-1.2294 -5.672,-0.1315 -6.9013,2.4478 -1.2309,2.5762 -0.133,5.672 2.4432,6.9029 2.5793,1.2294 5.6751,0.1314 6.9044,-2.4448 1.0608,-2.2236 0.3897,-4.8292 -1.4706,-6.2951 l 0.1872,-0.4577 c 1.2602,1.3283 3.8905,4.0978 4.9962,5.2622 -0.031,0.088 -0.049,0.1824 -0.049,0.2845 0,0.4129 0.2907,0.7623 0.6804,0.8489 0.1206,0.4547 0.2783,1.0423 0.3835,1.435 l -0.1206,0 0,0.7052 1.5216,0 0,-0.7052 -0.4469,0 c -0.093,-0.3479 -0.2954,-1.1025 -0.4469,-1.6654 0.1716,-0.028 0.8675,-0.1484 1.7644,-0.3046 0.3742,1.4165 1.3437,2.6659 2.7695,3.3463 2.5793,1.2324 5.675,0.1345 6.9075,-2.4448 1.2247,-2.5777 0.1314,-5.675 -2.4494,-6.9028"
           style="fill:#000000;fill-opacity:1;fill-rule:evenodd;stroke:none"
           id="path6471"
           inkscape:connector-curvature="0" />
      </g>
    </g>
  </g>
</svg>
