<?xml version="1.0" encoding="UTF-8" standalone="no"?>
<!-- Created with Inkscape (http://www.inkscape.org/) -->

<svg
   xmlns:dc="http://purl.org/dc/elements/1.1/"
   xmlns:cc="http://creativecommons.org/ns#"
   xmlns:rdf="http://www.w3.org/1999/02/22-rdf-syntax-ns#"
   xmlns:svg="http://www.w3.org/2000/svg"
   xmlns="http://www.w3.org/2000/svg"
   xmlns:sodipodi="http://sodipodi.sourceforge.net/DTD/sodipodi-0.dtd"
   xmlns:inkscape="http://www.inkscape.org/namespaces/inkscape"
   id="svg40979"
   version="1.1"
   inkscape:version="0.48.2 r9819"
   width="8106.0156"
   height="2166.0156"
   xml:space="preserve"
   sodipodi:docname="AJAX1.svg"><metadata
     id="metadata40985"><rdf:RDF><cc:Work
         rdf:about=""><dc:format>image/svg+xml</dc:format><dc:type
           rdf:resource="http://purl.org/dc/dcmitype/StillImage" /><dc:title /></cc:Work></rdf:RDF></metadata><defs
     id="defs40983"><inkscape:perspective
       sodipodi:type="inkscape:persp3d"
       inkscape:vp_x="0 : 0.5 : 1"
       inkscape:vp_y="0 : 1000 : 0"
       inkscape:vp_z="1 : 0.5 : 1"
       inkscape:persp3d-origin="0.5 : 0.33333333 : 1"
       id="perspective40987" /><clipPath
       clipPathUnits="userSpaceOnUse"
       id="clipPath40997"><path
         d="m -2,710 501,0 0,-711 -501,0 0,711 z"
         id="path40999"
         inkscape:connector-curvature="0" /></clipPath><clipPath
       clipPathUnits="userSpaceOnUse"
       id="clipPath41003"><path
         d="m 0,708.06 498,0 0,-708 -498,0 0,708 z"
         id="path41005"
         inkscape:connector-curvature="0" /></clipPath><clipPath
       clipPathUnits="userSpaceOnUse"
       id="clipPath41119"><path
         d="m 325.02,565.24 60,0 0,-71 -60,0 0,71 z"
         id="path41121"
         inkscape:connector-curvature="0" /></clipPath><clipPath
       clipPathUnits="userSpaceOnUse"
       id="clipPath41125"><path
         d="m 326.67,566.59 56.69,0 0,-73.7 -56.69,0 0,73.7 z"
         clip-rule="evenodd"
         id="path41127"
         inkscape:connector-curvature="0" /></clipPath><clipPath
       clipPathUnits="userSpaceOnUse"
       id="clipPath41131"><path
         d="m -2,710 501,0 0,-711 -501,0 0,711 z"
         id="path41133"
         inkscape:connector-curvature="0" /></clipPath><clipPath
       clipPathUnits="userSpaceOnUse"
       id="clipPath41137"><path
         d="m 0,708.06 498,0 0,-708 -498,0 0,708 z"
         id="path41139"
         inkscape:connector-curvature="0" /></clipPath><clipPath
       clipPathUnits="userSpaceOnUse"
       id="clipPath41173"><path
         d="m -2,710 501,0 0,-711 -501,0 0,711 z"
         id="path41175"
         inkscape:connector-curvature="0" /></clipPath><clipPath
       clipPathUnits="userSpaceOnUse"
       id="clipPath41179"><path
         d="m 0,708.06 498,0 0,-708 -498,0 0,708 z"
         id="path41181"
         inkscape:connector-curvature="0" /></clipPath></defs><sodipodi:namedview
     pagecolor="#ffffff"
     bordercolor="#666666"
     borderopacity="1"
     objecttolerance="10"
     gridtolerance="10"
     guidetolerance="10"
     inkscape:pageopacity="0"
     inkscape:pageshadow="2"
     inkscape:window-width="1280"
     inkscape:window-height="1004"
     id="namedview40981"
     showgrid="false"
     inkscape:zoom="0.08672543"
     inkscape:cx="3397.442"
     inkscape:cy="2.5166039"
     inkscape:window-x="-8"
     inkscape:window-y="-8"
     inkscape:window-maximized="1"
     inkscape:current-layer="g40989"
     fit-margin-top="0"
     fit-margin-left="0"
     fit-margin-right="0"
     fit-margin-bottom="0" /><g
     id="g40989"
     inkscape:groupmode="layer"
     inkscape:label="GG1999P002"
     transform="matrix(1.25,0,0,-1.25,-160.70312,2759.4922)"><path
       inkscape:connector-curvature="0"
       style="fill:#ffffff;fill-rule:nonzero;stroke:#000000;stroke-width:4.80000019;stroke-linecap:butt;stroke-linejoin:miter;stroke-miterlimit:4;stroke-opacity:1;stroke-dasharray:none"
       d="m 130.96875,1512.1875 0,-900 c 0,-74.56 60.4414,-135 135,-135 l 6210.00005,0 c 74.56,0 135,60.44 135,135 l 0,900"
       id="path11" /><path
       inkscape:connector-curvature="0"
       style="fill:#ffd033;fill-rule:nonzero;stroke:#000000;stroke-width:4.80000019;stroke-linecap:butt;stroke-linejoin:miter;stroke-miterlimit:4;stroke-opacity:1;stroke-dasharray:none"
       d="m 6610.9688,1512.1875 0,558 c 0,74.5586 -60.44,135 -135,135 l -6210.00005,0 c -74.5586,0 -135,-60.4414 -135,-135 l 0,-558"
       id="path13" /><path
       inkscape:connector-curvature="0"
       style="fill:#000000;fill-rule:nonzero;stroke:none"
       d="m 6475.9688,567.1875 -6210.00005,0 c -24.813,0 -45,20.19 -45,45 l 0,873 6300.00005,0 0,-873 c 0,-24.81 -20.19,-45 -45,-45 z m -6210.00005,1548 6210.00005,0 c 24.81,0 45,-20.187 45,-45 l 0,-531 -6300.00005,0 0,531 c 0,24.813 20.187,45 45,45 z m 6210.00005,54 -6210.00005,0 c -54.5889,0 -99,-44.4111 -99,-99 l 0,-1458 c 0,-54.59 44.4111,-99 99,-99 l 6210.00005,0 c 54.59,0 99,44.41 99,99 l 0,1458 c 0,54.5889 -44.41,99 -99,99 z"
       id="path15" /><path
       inkscape:connector-curvature="0"
       style="fill:#000000;fill-rule:nonzero;stroke:none"
       d="m 3696.5188,1683.1865 0,288.004 45.41,0 0,-245.563 133.22,0 0,-42.441 -178.63,0 z"
       id="path17" /><path
       inkscape:connector-curvature="0"
       style="fill:#000000;fill-rule:nonzero;stroke:none"
       d="m 2661.5588,1930.7665 0,-247.578 -45.67,0 0,247.578 -65.97,0 0,40.422 178.63,0 0,-40.422 -66.99,0 z"
       id="path19" /><path
       inkscape:connector-curvature="0"
       style="fill:#000000;fill-rule:nonzero;stroke:none"
       d="m 3119.6988,1930.7665 0,-247.578 -45.67,0 0,247.578 -65.98,0 0,40.422 178.64,0 0,-40.422 -66.99,0 z"
       id="path21" /><path
       inkscape:connector-curvature="0"
       style="fill:#000000;fill-rule:nonzero;stroke:none"
       d="m 4368.5388,1683.1885 -40.55,0 -45.61,184.926 -44.61,-184.926 -40.54,0 -42.58,288 46.63,0 22.3,-151.58 36.49,151.58 44.61,0 37.5,-151.58 22.31,151.58 46.63,0 -42.58,-288 z"
       id="path23" /><path
       inkscape:connector-curvature="0"
       style="fill:#000000;fill-rule:nonzero;stroke:none"
       d="m 2498.5788,1700.3665 c -16.17,-14.148 -38.4,-22.232 -62.65,-22.232 -49.52,0 -85.9,29.305 -105.11,72.758 l 43.46,16.168 c 12.13,-27.283 34.36,-42.441 61.65,-42.441 26.27,0 44.46,18.189 44.46,42.441 0,38.4 -44.46,44.463 -81.86,59.621 -17.18,7.074 -55.58,24.252 -55.58,71.748 0,56.589 38.4,77.811 89.95,77.811 40.42,0 67.7,-23.242 81.85,-58.612 l -40.42,-12.125 c 0,0 -10.11,24.252 -42.45,25.262 -21.22,1.011 -46.48,-7.072 -44.46,-33.348 4.04,-53.556 139.46,-18.189 139.46,-131.367 0,-26.273 -10.11,-49.515 -28.3,-65.684 z"
       id="path25" /><path
       inkscape:connector-curvature="0"
       style="fill:#000000;fill-rule:nonzero;stroke:none"
       d="m 3229.8788,1683.1865 0,288.002 169.55,0 0,-45.475 -124.13,0 0,-70.737 83.77,0 0,-46.484 -83.77,0 0,-78.822 133.22,0 0,-46.484 -178.64,0 z"
       id="path27" /><path
       inkscape:connector-curvature="0"
       style="fill:#000000;fill-rule:nonzero;stroke:none"
       d="m 2868.8088,1891.3565 -29.47,-80.844 57.93,0 -28.46,80.844 z m 73.18,-208.17 -28.46,80.842 -90.46,0 -28.45,-80.842 -48.79,0 99.6,288.002 45.74,0 99.6,-288.002 -48.78,0 z"
       id="path29" /><path
       inkscape:connector-curvature="0"
       style="fill:#000000;fill-rule:nonzero;stroke:none"
       d="m 4015.4088,1891.3565 -29.48,-80.844 57.94,0 -28.46,80.844 z m 73.18,-208.17 -28.46,80.842 -90.46,0 -28.46,-80.842 -48.78,0 99.6,288.002 45.74,0 99.6,-288.002 -48.78,0 z"
       id="path31" /><path
       inkscape:connector-curvature="0"
       style="fill:#000000;fill-rule:evenodd;stroke:none"
       d="m 546.57775,1314.1875 c 23.214,0 42.148,-18.934 42.148,-42.146 0,-23.215 -18.934,-42.147 -42.148,-42.147 -23.213,0 -42.145,18.932 -42.145,42.147 0,23.212 18.932,42.146 42.145,42.146 z"
       id="path33" /><path
       inkscape:connector-curvature="0"
       style="fill:#000000;fill-rule:evenodd;stroke:none"
       d="m 418.96875,1048.4274 88.411,58.94 c 4.086,17.28 21.038,93.9701 55.046,111.7151 33.684,22.273 157.878,-69.2151 158.593,-69.9651 l 0,-133.47 -26.929,4.69 -10.536,106.53 c -10.147,2.04 -20.292,4.08 -30.439,6.12 22.171,-57.31 30.314,-112.56 17.562,-148.94998 l 53.853,-220.1 -36.294,-25.75 -78.438,203.71 -36.292,-38.64 -50.342,-153.36 -47.999,17.56 43.316,161.56 50.342,90.13998 -19.297,66.53 -20.509,-26.72 -95.999,-31.61 -14.049,21.07 z"
       id="path35" /><path
       inkscape:connector-curvature="0"
       style="fill:#000000;fill-rule:evenodd;stroke:none"
       d="m 6145.0188,1314.1875 c 23.21,0 42.15,-18.934 42.15,-42.146 0,-23.215 -18.94,-42.147 -42.15,-42.147 -23.21,0 -42.15,18.932 -42.15,42.147 0,23.212 18.94,42.146 42.15,42.146 z"
       id="path37" /><path
       inkscape:connector-curvature="0"
       style="fill:#000000;fill-rule:evenodd;stroke:none"
       d="m 6017.4088,1048.4274 88.41,58.94 c 4.09,17.28 21.04,93.9701 55.05,111.7151 33.68,22.273 157.87,-69.2151 158.59,-69.9651 l 0,-133.47 -26.93,4.69 -10.54,106.53 c -10.14,2.04 -20.29,4.08 -30.44,6.12 22.18,-57.31 30.32,-112.56 17.57,-148.94998 l 53.85,-220.1 -36.29,-25.75 -78.44,203.71 -36.29,-38.64 -50.35,-153.36 -47.99,17.56 43.31,161.56 50.34,90.13998 -19.29,66.53 -20.51,-26.72 -96,-31.61 -14.05,21.07 z"
       id="path39" /><path
       inkscape:connector-curvature="0"
       style="fill:#000000;fill-rule:nonzero;stroke:none"
       d="m 5382.2488,882.18742 -110.15,195.02998 0,-195.02998 -45.48,0 0,287.99998 45.48,0 105.1,-183.91998 0,183.91998 45.48,0 0,-287.99998 -40.43,0 z"
       id="path41" /><path
       inkscape:connector-curvature="0"
       style="fill:#000000;fill-rule:nonzero;stroke:none"
       d="m 4849.1988,882.18742 0,287.99998 46.08,0 0,-287.99998 -46.08,0 z"
       id="path43" /><path
       inkscape:connector-curvature="0"
       style="fill:#000000;fill-rule:nonzero;stroke:none"
       d="m 3361.9488,1119.6674 c -8.09,4.04 -13.14,5.05 -27.29,5.05 l -59.62,0 0,-70.74 59.62,0 c 14.15,0 19.2,1.01 27.29,5.05 10.1,5.06 17.18,18.19 17.18,30.32 0,12.13 -7.08,24.25 -17.18,30.32 z m 19.2,-102.07 c -13.14,-6.06 -30.32,-10.1 -52.55,-10.1 l -53.56,0 0,-125.30998 -45.48,0 0,287.99998 99.04,0 c 23.24,0 38.4,-2.02 52.55,-9.09 25.27,-12.13 44.47,-42.45 44.47,-71.75 0,-30.32 -19.2,-60.63 -44.47,-71.75 z"
       id="path45" /><path
       inkscape:connector-curvature="0"
       style="fill:#000000;fill-rule:nonzero;stroke:none"
       d="m 4493.9888,1129.7674 0,-247.57998 -45.67,0 0,247.57998 -65.97,0 0,40.42 178.63,0 0,-40.42 -66.99,0 z"
       id="path47" /><path
       inkscape:connector-curvature="0"
       style="fill:#000000;fill-rule:nonzero;stroke:none"
       d="m 4730.4988,1119.6574 c -7.07,4.05 -11.11,5.06 -26.27,5.06 l -54.57,0 0,-70.74 54.57,0 c 14.15,0 19.2,1.01 26.27,5.05 11.12,6.06 18.2,18.19 18.2,30.32 0,12.12 -7.08,24.25 -18.2,30.31 z m 20.22,-237.46998 -46.49,125.30998 -54.57,0 0,-125.30998 -45.48,0 0,287.99998 95,0 c 22.23,0 37.39,-2.02 51.54,-9.1 25.26,-12.12 43.45,-42.44 43.45,-71.74 0,-30.32 -18.19,-60.63 -44.46,-72.76 l 50.53,-134.39998 -49.52,0 z"
       id="path49" /><path
       inkscape:connector-curvature="0"
       style="fill:#000000;fill-rule:nonzero;stroke:none"
       d="m 5639.3988,899.36742 c -16.17,-14.15 -38.4,-22.23 -62.66,-22.23 -49.52,0 -85.9,29.3 -105.1,72.76 l 43.46,16.16 c 12.12,-27.28 34.35,-42.44 61.64,-42.44 26.28,0 44.47,18.19 44.47,42.44 0,38.39998 -44.47,44.46998 -81.86,59.61998 -17.18,7.08 -55.58,24.26 -55.58,71.75 0,56.59 38.4,77.81 89.94,77.81 40.42,0 67.71,-23.24 81.86,-58.61 l -40.43,-12.12 c 0,0 -10.1,24.25 -42.44,25.26 -21.22,1.01 -46.49,-7.07 -44.47,-33.35 4.04,-53.56 139.46,-18.19 139.46,-131.36998 0,-26.27 -10.1,-49.51 -28.29,-65.68 z"
       id="path51" /><path
       inkscape:connector-curvature="0"
       style="fill:#000000;fill-rule:nonzero;stroke:none"
       d="m 4331.0088,899.36742 c -16.16,-14.15 -38.4,-22.23 -62.65,-22.23 -49.52,0 -85.9,29.3 -105.1,72.76 l 43.45,16.16 c 12.13,-27.28 34.36,-42.44 61.65,-42.44 26.27,0 44.46,18.19 44.46,42.44 0,38.39998 -44.46,44.46998 -81.86,59.61998 -17.18,7.08 -55.58,24.26 -55.58,71.75 0,56.59 38.4,77.81 89.95,77.81 40.42,0 67.7,-23.24 81.85,-58.61 l -40.42,-12.12 c 0,0 -10.11,24.25 -42.45,25.26 -21.22,1.01 -46.48,-7.07 -44.46,-33.35 4.04,-53.56 139.46,-18.19 139.46,-131.36998 0,-26.27 -10.11,-49.51 -28.3,-65.68 z"
       id="path53" /><path
       inkscape:connector-curvature="0"
       style="fill:#000000;fill-rule:nonzero;stroke:none"
       d="m 3822.7288,1112.5874 c -7.07,7.07 -17.18,12.13 -29.31,12.13 l -51.54,0 0,-196.04998 45.48,0 c 15.16,0 24.25,3.04 32.34,11.12 17.18,17.18 26.27,48.51 26.27,86.90998 0,38.4 -9.09,70.73 -23.24,85.89 z m 19.2,-214.22998 c -11.11,-10.11 -26.27,-15.16 -41.43,-16.17 -3.03,0 -9.1,0 -16.17,0 l -87.92,0 0,287.99998 92.97,0 c 29.31,0 40.43,-3.03 55.58,-15.16 30.32,-26.27 47.5,-71.75 47.5,-128.33 0,-57.59998 -18.19,-103.07998 -50.53,-128.33998 z"
       id="path55" /><path
       inkscape:connector-curvature="0"
       style="fill:#000000;fill-rule:nonzero;stroke:none"
       d="m 3468.8088,882.18742 0,287.99998 169.55,0 0,-45.47 -124.13,0 0,-70.74 83.77,0 0,-46.49 -83.77,0 0,-78.81998 133.22,0 0,-46.48 -178.64,0 z"
       id="path57" /><path
       inkscape:connector-curvature="0"
       style="fill:#000000;fill-rule:nonzero;stroke:none"
       d="m 3955.8188,882.18742 0,287.99998 169.55,0 0,-45.47 -124.13,0 0,-70.74 83.76,0 0,-46.49 -83.76,0 0,-78.81998 133.21,0 0,-46.48 -178.63,0 z"
       id="path59" /><path
       inkscape:connector-curvature="0"
       style="fill:#000000;fill-rule:nonzero;stroke:none"
       d="m 5061.4588,1090.3574 -29.48,-80.84 57.93,0 -28.45,80.84 z m 73.17,-208.16998 -28.45,80.84 -90.46,0 -28.46,-80.84 -48.78,0 99.6,287.99998 45.74,0 99.6,-287.99998 -48.79,0 z"
       id="path61" /><path
       inkscape:connector-curvature="0"
       style="fill:#000000;fill-rule:nonzero;stroke:none"
       d="m 1651.2288,1106.5274 c -9.12,15.16 -20.26,21.22 -37.48,22.23 -22.29,1.01 -36.47,-10.1 -46.6,-35.37 -7.09,-17.18 -11.14,-43.45 -11.14,-67.7 0,-30.31998 6.08,-61.63998 17.22,-79.82998 9.12,-15.16 21.27,-22.24 39.51,-22.24 21.27,0 34.44,11.12 44.57,36.38 6.08,15.16 11.14,43.45998 11.14,65.68998 0,32.33 -6.08,61.64 -17.22,80.84 z m 31.4,-197.04998 c -16.21,-22.24 -39.5,-32.34 -69.89,-32.34 -40.52,0 -65.85,16.17 -83.07,51.54 -12.15,24.25 -20.26,62.65 -20.26,97.00998 0,47.49 12.16,89.93 31.4,117.22 17.23,22.23 40.52,32.33 73.95,32.33 36.47,0 61.79,-16.16 80.03,-51.53 12.15,-25.26 19.25,-61.64 19.25,-98.02 0,-45.47998 -11.15,-90.94998 -31.41,-116.20998 z"
       id="path63" /><path
       inkscape:connector-curvature="0"
       style="fill:#000000;fill-rule:nonzero;stroke:none"
       d="m 2619.3388,1106.5274 c -9.12,15.16 -20.26,21.22 -37.48,22.23 -22.29,1.01 -36.47,-10.1 -46.6,-35.37 -7.09,-17.18 -11.14,-43.45 -11.14,-67.7 0,-30.31998 6.08,-61.63998 17.22,-79.82998 9.12,-15.16 21.27,-22.24 39.51,-22.24 21.27,0 34.44,11.12 44.57,36.38 6.08,15.16 11.14,43.45998 11.14,65.68998 0,32.33 -6.08,61.64 -17.22,80.84 z m 31.4,-197.04998 c -16.2,-22.24 -39.5,-32.34 -69.89,-32.34 -40.52,0 -65.85,16.17 -83.07,51.54 -12.15,24.25 -20.26,62.65 -20.26,97.00998 0,47.49 12.16,89.93 31.41,117.22 17.22,22.23 40.52,32.33 73.94,32.33 36.47,0 61.8,-16.16 80.03,-51.53 12.15,-25.26 19.25,-61.64 19.25,-98.02 0,-45.47998 -11.15,-90.94998 -31.41,-116.20998 z"
       id="path65" /><path
       inkscape:connector-curvature="0"
       style="fill:#000000;fill-rule:nonzero;stroke:none"
       d="m 1909.7788,1119.6674 c -8.08,4.04 -13.14,5.05 -27.28,5.05 l -59.63,0 0,-70.74 59.63,0 c 14.14,0 19.2,1.01 27.28,5.06 10.11,5.05 17.18,18.19 17.18,30.31 0,12.13 -7.07,24.25 -17.18,30.32 z m 19.2,-102.07 c -13.13,-6.06 -30.31,-10.1 -52.55,-10.1 l -53.56,0 0,-125.30998 -45.48,0 0,287.99998 99.04,0 c 23.25,0 38.4,-2.02 52.55,-9.09 25.27,-12.13 44.47,-42.44 44.47,-71.75 0,-30.31 -19.2,-60.63 -44.47,-71.75 z"
       id="path67" /><path
       inkscape:connector-curvature="0"
       style="fill:#000000;fill-rule:nonzero;stroke:none"
       d="m 1404.9788,1129.7674 0,-247.57998 -45.67,0 0,247.57998 -65.97,0 0,40.42 178.63,0 0,-40.42 -66.99,0 z"
       id="path69" /><path
       inkscape:connector-curvature="0"
       style="fill:#000000;fill-rule:nonzero;stroke:none"
       d="m 2871.8288,1119.6674 c -7.07,4.04 -11.12,5.05 -26.28,5.05 l -54.57,0 0,-70.74 54.57,0 c 14.15,0 19.21,1.01 26.28,5.05 11.12,6.07 18.19,18.19 18.19,30.32 0,12.13 -7.07,24.25 -18.19,30.32 z m 20.21,-237.47998 -46.49,125.30998 -54.57,0 0,-125.30998 -45.47,0 0,287.99998 94.99,0 c 22.23,0 37.39,-2.02 51.54,-9.09 25.27,-12.13 43.46,-42.44 43.46,-71.75 0,-30.32 -18.19,-60.63 -44.47,-72.76 l 50.53,-134.39998 -49.52,0 z"
       id="path71" /><path
       inkscape:connector-curvature="0"
       style="fill:#000000;fill-rule:nonzero;stroke:none"
       d="m 1241.9988,899.36742 c -16.16,-14.15 -38.4,-22.23 -62.65,-22.23 -49.521,0 -85.901,29.3 -105.105,72.76 l 43.456,16.16 c 12.128,-27.28 34.359,-42.44 61.649,-42.44 26.27,0 44.46,18.19 44.46,42.44 0,38.40998 -44.46,44.46998 -81.86,59.62998 -17.174,7.07 -55.577,24.25 -55.577,71.74 0,56.59 38.403,77.81 89.947,77.81 40.42,0 67.71,-23.24 81.85,-58.61 l -40.42,-12.12 c 0,0 -10.11,24.25 -42.45,25.26 -21.22,1.01 -46.483,-7.07 -44.46,-33.35 4.04,-53.55 139.46,-18.19 139.46,-131.35998 0,-26.28 -10.11,-49.52 -28.3,-65.69 z"
       id="path73" /><path
       inkscape:connector-curvature="0"
       style="fill:#000000;fill-rule:nonzero;stroke:none"
       d="m 2306.8688,1124.7174 0,-70.74 83.76,0 0,-46.48 -83.76,0 0,-125.30998 -45.42,0 0,287.99998 178.63,0 0,-45.47 -133.21,0 z"
       id="path75" /></g></svg>