<?xml version="1.0" encoding="UTF-8" standalone="no"?>
<!-- Created with Inkscape (http://www.inkscape.org/) -->

<svg
   xmlns:dc="http://purl.org/dc/elements/1.1/"
   xmlns:cc="http://creativecommons.org/ns#"
   xmlns:rdf="http://www.w3.org/1999/02/22-rdf-syntax-ns#"
   xmlns:svg="http://www.w3.org/2000/svg"
   xmlns="http://www.w3.org/2000/svg"
   xmlns:sodipodi="http://sodipodi.sourceforge.net/DTD/sodipodi-0.dtd"
   xmlns:inkscape="http://www.inkscape.org/namespaces/inkscape"
   width="211.1875"
   height="281.09375"
   id="svg4779"
   version="1.1"
   inkscape:version="0.48.2 r9819"
   sodipodi:docname="AJAX1.svg">
  <defs
     id="defs4781" />
  <sodipodi:namedview
     id="base"
     pagecolor="#ffffff"
     bordercolor="#666666"
     borderopacity="1.0"
     inkscape:pageopacity="0.0"
     inkscape:pageshadow="2"
     inkscape:zoom="1.4"
     inkscape:cx="111.68536"
     inkscape:cy="152.52581"
     inkscape:document-units="px"
     inkscape:current-layer="layer1"
     showgrid="false"
     inkscape:window-width="1280"
     inkscape:window-height="1004"
     inkscape:window-x="-8"
     inkscape:window-y="-8"
     inkscape:window-maximized="1"
     fit-margin-top="0"
     fit-margin-left="0"
     fit-margin-right="0"
     fit-margin-bottom="0" />
  <metadata
     id="metadata4784">
    <rdf:RDF>
      <cc:Work
         rdf:about="">
        <dc:format>image/svg+xml</dc:format>
        <dc:type
           rdf:resource="http://purl.org/dc/dcmitype/StillImage" />
        <dc:title></dc:title>
      </cc:Work>
    </rdf:RDF>
  </metadata>
  <g
     inkscape:label="Layer 1"
     inkscape:groupmode="layer"
     id="layer1"
     transform="translate(-1200.4375,900.25)">
    <path
       inkscape:connector-curvature="0"
       d="m 1410.8726,-637.39363 c 0,9.61 -7.8625,17.4725 -17.4725,17.4725 l -174.73,0 c -9.61,0 -17.4725,-7.8625 -17.4725,-17.4725 l 0,-244.62125 c 0,-9.61 7.8625,-17.4725 17.4725,-17.4725 l 174.73,0 c 9.61,0 17.4725,7.8625 17.4725,17.4725 l 0,244.62125"
       style="fill:#ffffff;fill-opacity:1;fill-rule:nonzero;stroke:#000000;stroke-width:1.5;stroke-miterlimit:4;stroke-opacity:1;stroke-dasharray:none"
       id="path9735" />
    <path
       inkscape:connector-curvature="0"
       d="m 1399.224,-637.39363 c 0,3.20375 -2.6213,5.82375 -5.8238,5.82375 l -174.73,0 c -3.2025,0 -5.8237,-2.62 -5.8237,-5.82375 l 0,-244.62125 c 0,-3.2025 2.6212,-5.82375 5.8237,-5.82375 l 174.73,0 c 3.2025,0 5.8238,2.62125 5.8238,5.82375 l 0,244.62125 z m -5.8238,-257.725 -174.73,0 c -7.2075,0 -13.1037,5.89625 -13.1037,13.10375 l 0,244.62125 c 0,7.2075 5.8962,13.105 13.1037,13.105 l 174.73,0 c 7.2075,0 13.1038,-5.8975 13.1038,-13.105 l 0,-244.62125 c 0,-7.2075 -5.8963,-13.10375 -13.1038,-13.10375"
       style="fill:#000000;fill-opacity:1;fill-rule:nonzero;stroke:none"
       id="path9759" />
    <path
       inkscape:connector-curvature="0"
       d="m 1256.2938,-852.15874 -6.9025,0 0,13.2525 6.9025,0 c 3.935,0 6.005,-2.48375 6.005,-6.76375 0,-3.86625 -2.415,-6.48875 -6.005,-6.48875 m 0.345,19.60375 -7.2475,0 0,20.43125 -6.6963,0 0,-46.5925 13.9438,0 c 7.3162,0 12.2175,5.24625 12.2175,13.04625 0,8.55875 -4.4175,13.115 -12.2175,13.115"
       style="fill:#000000;fill-opacity:1;fill-rule:nonzero;stroke:none"
       id="path9763" />
    <path
       inkscape:connector-curvature="0"
       d="m 1286.9416,-844.842 -3.2437,13.46 6.695,0 -3.4513,-13.46 z m 8.3525,32.71875 -3.245,-12.77 -10.0087,0 -3.1063,12.77 -6.695,0 11.5963,-46.5925 6.5575,0 11.5962,46.5925 -6.695,0 z"
       style="fill:#000000;fill-opacity:1;fill-rule:nonzero;stroke:none"
       id="path9767" />
    <path
       inkscape:connector-curvature="0"
       d="m 1323.1795,-811.29538 c -8.145,0 -13.115,-6.9025 -13.115,-14.565 l 6.5575,0 c 0,3.935 2.0013,8.0075 6.5575,8.0075 3.5888,0 6.5575,-3.24375 6.5575,-7.04 0,-5.5225 -4.7625,-7.38625 -11.5962,-12.21875 -4.1413,-2.9675 -5.73,-6.21125 -5.73,-10.35375 0,-6.695 5.1775,-12.07875 11.9425,-12.07875 6.4875,0 11.5962,5.1075 11.7337,12.07875 l -6.35,0 c -0.2075,-3.24375 -2.485,-5.38375 -5.3837,-5.38375 -3.1063,0 -5.5913,2.2775 -5.5913,5.38375 0,2.3475 0.9663,3.59 4.4175,5.59125 8.9738,5.1775 12.9075,10.285 12.9075,16.98125 0,7.52375 -5.7287,13.5975 -12.9075,13.5975"
       style="fill:#000000;fill-opacity:1;fill-rule:nonzero;stroke:none"
       id="path9771" />
    <path
       inkscape:connector-curvature="0"
       d="m 1358.6504,-811.29538 c -8.145,0 -13.115,-6.9025 -13.115,-14.565 l 6.5575,0 c 0,3.935 2.0025,8.0075 6.5575,8.0075 3.5887,0 6.5575,-3.24375 6.5575,-7.04 0,-5.5225 -4.7625,-7.38625 -11.5963,-12.21875 -4.1412,-2.9675 -5.7287,-6.21125 -5.7287,-10.35375 0,-6.695 5.1762,-12.07875 11.9412,-12.07875 6.4875,0 11.5963,5.1075 11.735,12.07875 l -6.3512,0 c -0.2063,-3.24375 -2.485,-5.38375 -5.3838,-5.38375 -3.1062,0 -5.5912,2.2775 -5.5912,5.38375 0,2.3475 0.9662,3.59 4.4175,5.59125 8.9737,5.1775 12.9087,10.285 12.9087,16.98125 0,7.52375 -5.73,13.5975 -12.9087,13.5975"
       style="fill:#000000;fill-opacity:1;fill-rule:nonzero;stroke:none"
       id="path9775" />
    <path
       inkscape:connector-curvature="0"
       d="m 1275.6095,-736.40837 -5.7287,0 -4.4175,-24.365 -4.4188,24.365 -5.8662,0 -7.3863,-46.5925 6.5575,0 3.935,24.85 4.555,-24.85 5.2463,0 4.4175,24.85 4.0725,-24.85 6.5575,0 -7.5238,46.5925 z"
       style="fill:#000000;fill-opacity:1;fill-rule:nonzero;stroke:none"
       id="path9779" />
    <path
       inkscape:connector-curvature="0"
       d="m 1290.4325,-783 6.5575,0 0,46.5925 -6.5575,0 0,-46.5925 z"
       style="fill:#000000;fill-opacity:1;fill-rule:nonzero;stroke:none"
       id="path9781" />
    <path
       inkscape:connector-curvature="0"
       d="m 1319.4233,-776.78788 0,40.38 -6.765,0 0,-40.38 -8.49,0 0,-6.2125 23.745,0 0,6.2125 -8.49,0 z"
       style="fill:#000000;fill-opacity:1;fill-rule:nonzero;stroke:none"
       id="path9785" />
    <path
       inkscape:connector-curvature="0"
       d="m 1354.6701,-736.40837 0,-21.12125 -12.77,0 0,21.12125 -6.695,0 0,-46.5925 6.695,0 0,18.9825 12.77,0 0,-18.9825 6.6963,0 0,46.5925 -6.6963,0 z"
       style="fill:#000000;fill-opacity:1;fill-rule:nonzero;stroke:none"
       id="path9789" />
    <path
       inkscape:connector-curvature="0"
       d="m 1258.1424,-659.86413 c -9.94,0 -14.3575,-8.00625 -14.3575,-25.19375 0,-15.0475 4.6937,-23.05375 13.8737,-23.05375 7.7313,0 11.735,6.90125 12.08,13.25125 l -6.695,0 c -0.6212,-4.555 -2.4162,-6.695 -5.5225,-6.695 -5.3837,0 -7.3862,4.21 -7.3862,16.35875 0,13.39125 2.2787,18.775 8.0075,18.775 3.9337,0 4.9012,-3.24375 4.9012,-6.695 l 6.695,0 c -0.1375,7.6625 -5.0387,13.2525 -11.5962,13.2525"
       style="fill:#000000;fill-opacity:1;fill-rule:nonzero;stroke:none"
       id="path9793" />
    <path
       inkscape:connector-curvature="0"
       d="m 1290.1004,-693.4105 -3.2438,13.46 6.695,0 -3.4512,-13.46 z m 8.3525,32.72 -3.245,-12.77125 -10.0088,0 -3.1062,12.77125 -6.695,0 11.5962,-46.59375 6.5575,0 11.5963,46.59375 -6.695,0 z"
       style="fill:#000000;fill-opacity:1;fill-rule:nonzero;stroke:none"
       id="path9797" />
    <path
       inkscape:connector-curvature="0"
       d="m 1325.7884,-700.7265 -6.9025,0 0,11.73375 6.9025,0 c 3.935,0 6.005,-2.14 6.005,-5.8675 0,-3.58875 -2.4163,-5.86625 -6.005,-5.86625 m 5.7287,40.03625 -6.2125,-21.8825 -6.4187,0 0,21.8825 -6.6963,0 0,-46.59375 13.9438,0 c 7.3162,0 12.2175,4.90125 12.2175,12.42375 0,5.59125 -2.2775,9.66375 -6.695,11.2525 l 6.695,22.9175 -6.8338,0"
       style="fill:#000000;fill-opacity:1;fill-rule:nonzero;stroke:none"
       id="path9801" />
    <path
       inkscape:connector-curvature="0"
       d="m 1346.3573,-660.69089 0,-46.5925 21.9512,0 0,6.55625 -15.255,0 0,11.735 9.6625,0 0,6.42 -9.6625,0 0,15.3225 17.0488,0 0,6.55875 -23.745,0 z"
       style="fill:#000000;fill-opacity:1;fill-rule:nonzero;stroke:none"
       id="path9805" />
  </g>
</svg>
