<?xml version="1.0" encoding="UTF-8" standalone="no"?>
<!-- Created with Inkscape (http://www.inkscape.org/) -->

<svg
   xmlns:dc="http://purl.org/dc/elements/1.1/"
   xmlns:cc="http://creativecommons.org/ns#"
   xmlns:rdf="http://www.w3.org/1999/02/22-rdf-syntax-ns#"
   xmlns:svg="http://www.w3.org/2000/svg"
   xmlns="http://www.w3.org/2000/svg"
   xmlns:sodipodi="http://sodipodi.sourceforge.net/DTD/sodipodi-0.dtd"
   xmlns:inkscape="http://www.inkscape.org/namespaces/inkscape"
   width="115.2"
   height="43.200043"
   id="svg2934"
   version="1.1"
   inkscape:version="0.48.2 r9819"
   sodipodi:docname="MUTCD M4-10R.svg">
  <defs
     id="defs2936">
    <inkscape:perspective
       sodipodi:type="inkscape:persp3d"
       inkscape:vp_x="0 : 526.18109 : 1"
       inkscape:vp_y="0 : 1000 : 0"
       inkscape:vp_z="744.09448 : 526.18109 : 1"
       inkscape:persp3d-origin="372.04724 : 350.78739 : 1"
       id="perspective2942" />
    <inkscape:perspective
       id="perspective2924"
       inkscape:persp3d-origin="0.5 : 0.33333333 : 1"
       inkscape:vp_z="1 : 0.5 : 1"
       inkscape:vp_y="0 : 1000 : 0"
       inkscape:vp_x="0 : 0.5 : 1"
       sodipodi:type="inkscape:persp3d" />
  </defs>
  <sodipodi:namedview
     id="base"
     pagecolor="#ffffff"
     bordercolor="#666666"
     borderopacity="1.0"
     inkscape:pageopacity="0.0"
     inkscape:pageshadow="2"
     inkscape:zoom="5.2462853"
     inkscape:cx="67.612079"
     inkscape:cy="12.329077"
     inkscape:document-units="px"
     inkscape:current-layer="g2909"
     showgrid="false"
     inkscape:window-width="1280"
     inkscape:window-height="1004"
     inkscape:window-x="-8"
     inkscape:window-y="-8"
     inkscape:window-maximized="1"
     fit-margin-top="0"
     fit-margin-left="0"
     fit-margin-right="0"
     fit-margin-bottom="0" />
  <metadata
     id="metadata2939">
    <rdf:RDF>
      <cc:Work
         rdf:about="">
        <dc:format>image/svg+xml</dc:format>
        <dc:type
           rdf:resource="http://purl.org/dc/dcmitype/StillImage" />
        <dc:title></dc:title>
      </cc:Work>
    </rdf:RDF>
  </metadata>
  <g
     inkscape:label="Ebene 1"
     inkscape:groupmode="layer"
     id="layer1"
     transform="translate(1368.6447,3500.5932)">
    <g
       id="g3018"
       transform="translate(2,-2)">
      <g
         id="g2909"
         transform="matrix(0.80835983,0,0,0.80835983,-165.10178,-177.02766)">
        <path
           d="m -1491.3444,-4103.8228 c 0,-2.8607 2.3334,-5.1957 5.1973,-5.1957 l 132.1194,0 c 2.8622,0 5.1941,2.335 5.1941,5.1957 l 0,43.0502 c 0,2.8622 -2.3319,5.1957 -5.1941,5.1957 l -132.1194,0 c -2.8639,0 -5.1973,-2.3335 -5.1973,-5.1957 l 0,-43.0502 z"
           style="fill:#000000;fill-opacity:1;fill-rule:evenodd;stroke:none"
           id="path6599"
           inkscape:connector-curvature="0" />
        <path
           d="m -1449.9505,-4059.9051 -33.0809,-22.374 33.0809,-22.4112 c 1.4582,-0.9912 3.4545,-0.6123 4.4457,0.8459 0.6649,0.9742 0.5428,1.9824 0.2381,3.1839 l -1.9112,6.4884 89.4372,0 0,23.7859 -89.4372,0 1.8432,6.3183 c 0.368,1.3221 0.5211,2.301 -0.1701,3.3169 -0.9912,1.4582 -2.9875,1.8402 -4.4457,0.8459"
           style="fill:#f38f00;fill-opacity:1;fill-rule:evenodd;stroke:none"
           id="path6603"
           inkscape:connector-curvature="0" />
        <path
           d="m -1366.8175,-4086.145 c 0,0.75 -0.4345,1.4984 -1.1195,1.8726 -0.4376,0.2521 -0.75,0.3139 -1.6252,0.3139 l -3.3741,0 0,-4.373 3.3741,0 c 0.9386,0 1.1876,0.062 1.6252,0.3139 0.685,0.3727 1.1195,1.1226 1.1195,1.8726 m 3.1901,12.8068 -3.1251,-8.3085 c 1.6237,-0.75 2.7494,-2.6257 2.7494,-4.4983 0,-1.8123 -1.1257,-3.6865 -2.6845,-4.4349 -0.8752,-0.4376 -1.8138,-0.5613 -3.187,-0.5613 l -5.8714,0 0,17.803 2.8097,0 0,-7.7487 3.3741,0 2.8746,7.7487 3.0602,0 z m -15.7417,-6.3725 0,-11.4305 -2.8082,0 0,11.4305 c 0,2.3103 -1.3113,3.8087 -3.2473,3.8087 -1.9391,0 -3.2488,-1.4984 -3.2488,-3.8087 l 0,-11.4305 -2.8128,0 0,11.4305 c 0,1.3732 0.3123,2.6226 0.8133,3.685 0.9371,1.7504 3.0587,3.0076 5.2483,3.0076 2.1835,0 4.3097,-1.2572 5.2452,-3.0076 0.4995,-1.0624 0.8103,-2.3118 0.8103,-3.685 m -18.236,-2.4989 c 0,1.3747 -0.3108,3.1221 -0.685,4.0592 -0.6263,1.5618 -1.4381,2.2484 -2.7479,2.2484 -1.1273,0 -1.8757,-0.4376 -2.4386,-1.3732 -0.6881,-1.1242 -1.0623,-3.0602 -1.0623,-4.9344 0,-1.4984 0.2505,-3.1236 0.6881,-4.1844 0.6232,-1.5633 1.4984,-2.2499 2.8731,-2.188 1.0593,0.063 1.7489,0.4376 2.3134,1.3762 0.685,1.1876 1.0592,2.9953 1.0592,4.9962 m 2.8097,0 c 0,-2.2483 -0.4361,-4.4967 -1.186,-6.0601 -1.1227,-2.1849 -2.6829,-3.1854 -4.9344,-3.1854 -2.0597,0 -3.4994,0.6247 -4.5602,1.9994 -1.186,1.6886 -1.9345,4.3096 -1.9345,7.2461 0,2.1247 0.498,4.4968 1.2495,5.9952 1.0608,2.1865 2.621,3.1963 5.123,3.1963 1.8726,0 3.3061,-0.6356 4.3097,-2.0087 1.2463,-1.5618 1.9329,-4.3715 1.9329,-7.1828 m -14.3006,-6.4343 0,-2.4973 -10.9944,0 0,2.4973 4.0606,0 0,15.3057 2.8113,0 0,-15.3057 4.1225,0 z m -11.8032,15.3057 0,-2.8762 -8.2451,0 0,-4.8725 5.1834,0 0,-2.8716 -5.1834,0 0,-4.373 7.6807,0 0,-2.8097 -10.4935,0 0,17.803 11.0579,0 z m -17.2401,-8.9348 c 0,2.3737 -0.5614,4.3097 -1.6222,5.372 -0.501,0.4995 -1.0623,0.6866 -1.9978,0.6866 l -2.8128,0 0,-12.1171 3.187,0 c 0.7469,0 1.3731,0.3139 1.8108,0.7515 0.8736,0.934 1.435,2.9334 1.435,5.307 m 2.8762,0 c 0,-3.4962 -1.0639,-6.309 -2.9396,-7.9327 -0.9356,-0.75 -1.6237,-0.9355 -3.4314,-0.9355 l -5.7493,0 0,17.803 5.4354,0 1.0005,0 c 0.9355,-0.065 1.8726,-0.3758 2.5607,-1.002 1.9964,-1.5618 3.1237,-4.3731 3.1237,-7.9328"
           style="fill:#000000;fill-opacity:1;fill-rule:evenodd;stroke:none"
           id="path6607"
           inkscape:connector-curvature="0" />
      </g>
    </g>
  </g>
</svg>
