<?xml version="1.0" encoding="UTF-8" standalone="no"?>
<!-- Created with Inkscape (http://www.inkscape.org/) -->

<svg
   xmlns:dc="http://purl.org/dc/elements/1.1/"
   xmlns:cc="http://creativecommons.org/ns#"
   xmlns:rdf="http://www.w3.org/1999/02/22-rdf-syntax-ns#"
   xmlns:svg="http://www.w3.org/2000/svg"
   xmlns="http://www.w3.org/2000/svg"
   xmlns:sodipodi="http://sodipodi.sourceforge.net/DTD/sodipodi-0.dtd"
   xmlns:inkscape="http://www.inkscape.org/namespaces/inkscape"
   width="2710"
   height="2710"
   id="svg2"
   sodipodi:version="0.32"
   inkscape:version="0.48.2 r9819"
   version="1.0"
   sodipodi:docname="AJAX1.svg">
  <defs
     id="defs4">
    <clipPath
       id="Clip0">
      <path
         inkscape:connector-curvature="0"
         d="m 0,0 0,3024.5 2160.5,0 L 2160.5,0 0,0 z"
         transform="translate(0,0.5)"
         id="path7" />
    </clipPath>
    <clipPath
       id="Clip0-1">
      <path
         inkscape:connector-curvature="0"
         d="m 0,0 0,3024.5 2592.5,0 L 2592.5,0 0,0 z"
         transform="translate(0,0.5)"
         id="path7-7" />
    </clipPath>
    <clipPath
       id="Clip0-4">
      <path
         inkscape:connector-curvature="0"
         d="m 0,0 0,1728.5 4320.5,0 L 4320.5,0 0,0 z"
         transform="translate(0,0.5)"
         id="path7-0" />
    </clipPath>
  </defs>
  <sodipodi:namedview
     id="base"
     pagecolor="#ffffff"
     bordercolor="#666666"
     borderopacity="1.0"
     gridtolerance="10000"
     guidetolerance="10"
     objecttolerance="10"
     inkscape:pageopacity="0.0"
     inkscape:pageshadow="2"
     inkscape:zoom="0.17436557"
     inkscape:cx="1089.0122"
     inkscape:cy="2090.2809"
     inkscape:document-units="px"
     inkscape:current-layer="layer1"
     width="601px"
     height="601px"
     inkscape:window-width="1280"
     inkscape:window-height="1004"
     inkscape:window-x="-8"
     inkscape:window-y="-8"
     showgrid="false"
     fit-margin-top="0"
     fit-margin-left="0"
     fit-margin-right="0"
     fit-margin-bottom="0"
     inkscape:window-maximized="1"
     showguides="true"
     inkscape:guide-bbox="true" />
  <metadata
     id="metadata7">
    <rdf:RDF>
      <cc:Work
         rdf:about="">
        <dc:format>image/svg+xml</dc:format>
        <dc:type
           rdf:resource="http://purl.org/dc/dcmitype/StillImage" />
        <dc:title />
      </cc:Work>
    </rdf:RDF>
  </metadata>
  <g
     inkscape:label="Layer 1"
     inkscape:groupmode="layer"
     id="layer1"
     transform="translate(2333.5,1501.1563)">
    <path
       inkscape:connector-curvature="0"
       style="fill:#ffffff;fill-rule:nonzero;stroke:none"
       d="m 371.4912,1035.0874 c 0,93.2 -75.55,168.75 -168.75,168.75 l -2362.5,0 c -93.1988,0 -168.75,-75.55 -168.75,-168.75 l 0,-2362.4875 c 0,-93.1988 75.5512,-168.75 168.75,-168.75 l 2362.5,0 c 93.2,0 168.75,75.5512 168.75,168.75 l 0,2362.4875 z"
       id="path11" />
    <path
       inkscape:connector-curvature="0"
       style="fill:#ffd033;fill-rule:nonzero;stroke:none"
       d="m 202.7412,-1496.1501 -2362.5,0 c -93.1975,0 -168.75,75.5512 -168.75,168.75 l 0,1023.7438 2700,0 0,-1023.7438 c 0,-93.1988 -75.55,-168.75 -168.75,-168.75 z"
       id="path13" />
    <path
       inkscape:connector-curvature="0"
       style="fill:#000000;fill-rule:nonzero;stroke:none"
       d="m 295.5412,-269.9063 -2554,0 0,-56.25 2554,0 0,56.25 z"
       id="path41" />
    <path
       inkscape:connector-curvature="0"
       style="fill:#000000;fill-rule:nonzero;stroke:none"
       d="m 281.4912,1035.0874 c 0,43.425 -35.325,78.75 -78.75,78.75 l -2362.5,0 c -43.4238,0 -78.75,-35.325 -78.75,-78.75 l 0,-2362.4875 c 0,-43.4225 35.3262,-78.75 78.75,-78.75 l 2362.5,0 c 43.425,0 78.75,35.3275 78.75,78.75 l 0,2362.4875 z m -78.75,-2497.4875 -2362.5,0 c -74.4388,0 -135,60.5612 -135,135 l 0,2362.4875 c 0,74.45 60.5612,135 135,135 l 2362.5,0 c 74.4375,0 135,-60.55 135,-135 l 0,-2362.4875 c 0,-74.4388 -60.5625,-135 -135,-135 z"
       id="path73" />
    <path
       inkscape:connector-curvature="0"
       style="fill:#000000;fill-rule:evenodd;stroke:none"
       d="m -220.2563,-101.1563 c 43.5375,0 79.025,35.4875 79.025,79.0375 0,43.5125 -35.4875,79.025 -79.025,79.025 -43.5125,0 -79.025,-35.5125 -79.025,-79.025 0,-43.55 35.5125,-79.0375 79.025,-79.0375 z"
       id="path29" />
    <path
       inkscape:connector-curvature="0"
       style="fill:#000000;fill-rule:evenodd;stroke:none"
       d="m -459.5188,397.1437 165.7625,-110.5 c 7.6625,-32.4125 39.475,-176.1875 103.2125,-209.4875 63.175,-41.75 296.0375,129.8125 297.375,131.2125 l 0,250.225 -50.5125,-8.7625 -19.75,-199.75 c -19.025,-3.85 -38.0375,-7.65 -57.0625,-11.5 41.5875,107.5 56.825,211.0625 32.925,279.3 l 100.975,412.6875 -68.0625,48.275 -147.05,-381.9125 -68.05,72.3875 -94.4,287.575 -90.0125,-32.9125 81.2375,-302.9375 94.4,-169.0125 -36.2,-124.75 -38.45,50.1 -179.9875,59.2875 -26.35,-39.525 z"
       id="path31" />
    <path
       inkscape:connector-curvature="0"
       style="fill:#000000;fill-rule:nonzero;stroke:none"
       d="m -1934.5813,-1112.3251 c 3.9937,-2.6275 8.77,-4.1613 13.9063,-4.1613 13.9937,0 25.3362,11.3438 25.3362,25.335 0,2.9513 -0.51,5.7825 -1.4375,8.415 l -22.2925,64.71 304.935,0 c 15.535,0 28.125,12.5925 28.125,28.125 l 0,376.8763 -123.75,0 0,-264.375 c 0,-9.32 -7.555,-16.875 -16.875,-16.875 l -192.4338,0 22.2913,64.7087 c 0.9275,2.635 1.4375,5.465 1.4375,8.4163 0,13.9912 -11.3425,25.3337 -25.3362,25.3337 -5.1363,0 -9.9126,-1.5325 -13.9063,-4.16 l -236.4275,-156.1737 236.4275,-156.175 z"
       id="path35" />
    <path
       inkscape:connector-curvature="0"
       style="fill:#000000;fill-rule:nonzero;stroke:none"
       d="m -732.1438,375.1187 c -8.55,-14.2125 -19,-19.9 -35.15,-20.85 -20.8875,-0.9375 -34.1875,9.475 -43.675,33.1625 -6.65,16.1 -10.45,40.7375 -10.45,63.475 0,28.425 5.7,57.7875 16.1375,74.8375 8.55,14.2125 19.95,20.85 37.0375,20.85 19.95,0 32.3,-10.425 41.7875,-34.1125 5.7,-14.2125 10.45,-40.7375 10.45,-61.575 0,-30.3125 -5.7,-57.7875 -16.1375,-75.7875 z m 29.4375,184.7375 c -15.2,20.8375 -37.0375,30.3125 -65.5375,30.3125 -37.975,0 -61.725,-15.1625 -77.8625,-48.3125 -11.4,-22.7375 -19,-58.7375 -19,-90.95 0,-44.525 11.4,-84.3125 29.4375,-109.9 16.15,-20.8375 37.9875,-30.3125 69.325,-30.3125 34.2,0 57.9375,15.1625 75.025,48.3125 11.4,23.6875 18.05,57.8 18.05,91.9 0,42.625 -10.45,85.2625 -29.4375,108.95 z"
       id="path37" />
    <path
       inkscape:connector-curvature="0"
       style="fill:#000000;fill-rule:nonzero;stroke:none"
       d="m -963.0063,352.9937 0,232.1 -42.8125,0 0,-232.1 -61.85,0 0,-37.9 167.4625,0 0,37.9 -62.8,0 z"
       id="path39" />
    <path
       inkscape:connector-curvature="0"
       style="fill:#000000;fill-rule:nonzero;stroke:none"
       d="m -533.8438,-967.3976 -103.275,-182.8438 0,182.8438 -42.6375,0 0,-270.0013 42.6375,0 98.525,172.4213 0,-172.4213 42.6375,0 0,270.0013 -37.8875,0 z"
       id="path43" />
    <path
       inkscape:connector-curvature="0"
       style="fill:#000000;fill-rule:nonzero;stroke:none"
       d="m -177.2438,-967.3976 -103.275,-182.8438 0,182.8438 -42.6375,0 0,-270.0013 42.6375,0 98.5375,172.4213 0,-172.4213 42.625,0 0,270.0013 -37.8875,0 z"
       id="path45" />
    <path
       inkscape:connector-curvature="0"
       style="fill:#000000;fill-rule:nonzero;stroke:none"
       d="m -431.1563,-967.3976 0,-270.0013 43.2,0 0,270.0013 -43.2,0 z"
       id="path47" />
    <path
       inkscape:connector-curvature="0"
       style="fill:#000000;fill-rule:nonzero;stroke:none"
       d="m -986.5688,-1008.1351 c -14.2125,26.5262 -46.425,45.4737 -79.5875,45.4737 -33.1625,0 -65.375,-18.9475 -79.5875,-45.4737 -7.575,-16.105 -12.3125,-35.0525 -12.3125,-55.895 l 0,-173.3675 42.625,0 0,173.3675 c 0,35.0537 19.9,57.7912 49.275,57.7912 29.3625,0 49.2625,-22.7375 49.2625,-57.7912 l 0,-173.3675 42.6375,0 0,173.3675 c 0,20.8425 -4.7375,39.79 -12.3125,55.895 z"
       id="path49" />
    <path
       inkscape:connector-curvature="0"
       style="fill:#000000;fill-rule:nonzero;stroke:none"
       d="m -1261.3614,-1199.5051 0,232.105 -42.815,0 0,-232.105 -61.8512,0 0,-37.895 167.4712,0 0,37.895 -62.805,0 z"
       id="path51" />
    <path
       inkscape:connector-curvature="0"
       style="fill:#000000;fill-rule:nonzero;stroke:none"
       d="m -791.0313,-1190.0301 c -6.625,-3.79 -10.425,-4.7375 -24.6375,-4.7375 l -51.15,0 0,66.3162 51.15,0 c 13.275,0 18.0125,-0.9475 24.6375,-4.735 10.425,-5.6862 17.0625,-17.055 17.0625,-28.4212 0,-11.37 -6.6375,-22.7388 -17.0625,-28.4225 z m 18.95,222.6312 -43.5875,-117.4762 -51.15,0 0,117.4762 -42.6375,0 0,-270 89.0625,0 c 20.8375,0 35.05,1.8938 48.3125,8.5263 23.6875,11.37 40.7375,39.7887 40.7375,67.265 0,28.4212 -17.05,56.84 -41.6875,68.21 l 47.375,125.9987 -46.425,0 z"
       id="path53" />
    <path
       inkscape:connector-curvature="0"
       style="fill:#000000;fill-rule:nonzero;stroke:none"
       d="m 18.5812,-962.6614 c -40.7375,0 -64.425,-15.1587 -80.525,-49.2637 -11.375,-23.6838 -18,-56.8425 -18,-90 0,-43.58 12.3125,-86.2113 30.3125,-109.895 16.1125,-19.895 38.85,-30.315 69.1625,-30.315 41.6875,0 66.325,17.0525 84.325,59.685 l -40.7375,16.1037 c -11.375,-23.685 -22.7375,-32.2112 -43.5875,-32.2112 -21.7875,0 -36,9.4737 -45.475,33.1587 -6.6375,16.105 -10.425,40.7363 -10.425,63.4738 0,28.4212 4.7375,56.8425 13.2625,73.895 8.5375,15.1575 20.85,21.7912 36.95,21.7912 27.475,0 47.375,-17.055 47.375,-41.6862 l 0,-11.3688 -49.2625,0 0,-42.6312 91.9,0 0,54 c 0,49.2637 -36,85.2637 -85.275,85.2637 z"
       id="path55" />
    <path
       inkscape:connector-curvature="0"
       style="fill:#000000;fill-rule:nonzero;stroke:none"
       d="m -739.6938,-494.8939 0,-270.005 43.2,0 0,270.005 -43.2,0 z"
       id="path57" />
    <path
       inkscape:connector-curvature="0"
       style="fill:#000000;fill-rule:nonzero;stroke:none"
       d="m -417.6563,-494.8938 0,-270.0063 42.575,0 0,230.2125 124.9,0 0,39.7938 -167.475,0 z"
       id="path59" />
    <path
       inkscape:connector-curvature="0"
       style="fill:#000000;fill-rule:nonzero;stroke:none"
       d="m 128.5562,-511.3314 c -15.1625,13.2625 -36,20.8375 -58.7375,20.8375 -46.425,0 -80.5375,-27.4725 -98.5375,-68.2087 l 40.7375,-15.1588 c 11.375,25.5788 32.2125,39.7888 57.8,39.7888 24.625,0 41.6875,-17.0525 41.6875,-39.7888 0,-35.9987 -41.6875,-41.6825 -76.75,-55.895 -16.1,-6.6312 -52.1,-22.7337 -52.1,-67.2612 0,-53.055 36,-72.95 84.3125,-72.95 37.9,0 63.4875,21.79 76.75,54.9487 l -37.9,11.3663 c 0,0 -9.475,-22.735 -39.7875,-23.68 -19.9,-0.95 -43.5875,6.6287 -41.6875,31.2612 3.7875,50.21 130.7375,17.0525 130.7375,123.1563 0,24.6325 -9.475,46.4212 -26.525,61.5837 z"
       id="path61" />
    <path
       inkscape:connector-curvature="0"
       style="fill:#000000;fill-rule:nonzero;stroke:none"
       d="m -1298.4313,-494.8939 -33.2725,0 -85.555,-270.005 44.6787,0 57.9888,179.9988 57.0362,-179.9988 45.6363,0 -86.5125,270.005 z"
       id="path63" />
    <path
       inkscape:connector-curvature="0"
       style="fill:#000000;fill-rule:nonzero;stroke:none"
       d="m -834.1688,-494.8939 0,-117.48 -98.5375,0 0,117.48 -42.6375,0 0,-270.005 42.6375,0 0,108.9463 98.5375,0 0,-108.9463 42.6375,0 0,270.005 -42.6375,0 z"
       id="path65" />
    <path
       inkscape:connector-curvature="0"
       style="fill:#000000;fill-rule:nonzero;stroke:none"
       d="m -1179.5188,-494.8939 0,-270.005 158.95,0 0,42.6313 -116.375,0 0,66.3162 78.525,0 0,43.5788 -78.525,0 0,73.8962 124.8875,0 0,43.5825 -167.4625,0 z"
       id="path67" />
    <path
       inkscape:connector-curvature="0"
       style="fill:#000000;fill-rule:nonzero;stroke:none"
       d="m -217.7813,-494.8939 0,-270.005 158.95,0 0,42.6313 -116.375,0 0,66.3162 78.525,0 0,43.5788 -78.525,0 0,73.8962 124.8875,0 0,43.5825 -167.4625,0 z"
       id="path69" />
    <path
       inkscape:connector-curvature="0"
       style="fill:#000000;fill-rule:nonzero;stroke:none"
       d="m -546.6563,-490.1564 c -39.7875,0 -65.375,-15.1625 -82.425,-48.32 -12.3125,-23.685 -19.9,-57.7912 -19.9,-91.8962 0,-42.6313 11.375,-85.2638 30.325,-108.9475 16.1,-19.8938 38.8375,-30.315 69.1625,-30.315 40.7375,0 66.325,17.0525 84.325,54.9475 l -39.8,17.0525 c -15.1625,-22.7375 -23.6875,-28.4213 -44.525,-28.4213 -21.7875,0 -36,9.4738 -45.475,33.1575 -6.6375,16.105 -10.425,39.79 -10.425,62.5263 0,29.3687 6.625,58.7375 17.05,75.79 9.475,14.21 21.8,20.8437 40.7375,20.8437 18,0 31.275,-9.475 41.6875,-31.2637 l 40.75,15.1575 c -16.1125,39.7887 -42.6375,59.6888 -81.4875,59.6888 z"
       id="path71" />
    <path
       inkscape:connector-curvature="0"
       style="fill:#af1e2d;fill-opacity:1;fill-rule:evenodd;stroke:none"
       d="m -1610.8138,839.1812 c -3.2512,5.025 -6.73,8.25 -12.0562,11.3125 -9.4438,5.45 -21.7075,5.9125 -31.8463,2.2 -7.0575,-2.575 -13.2612,-7.425 -17.01,-13.925 l -426.8912,-738.9 c -4.4088,-7.625 -5.8825,-16.3375 -4.2325,-25.0125 3.1912,-16.675 19.0562,-29.325 35.92,-29.35 l 850.1362,-0.4125 c 17.5125,0 32.575,12.2 35.8875,29.45 1.65,8.525 0.5625,16.6375 -3.775,24.1375 l -426.1325,740.5 z"
       id="path15" />
    <path
       inkscape:connector-curvature="0"
       style="fill:#ffffff;fill-rule:evenodd;stroke:none"
       d="m -1438.6513,246.9187 c 1.8863,-3.3375 3.4375,-6.8 4.5875,-10.4625 3.2163,-10.275 1.1425,-20.325 -4.9462,-29.225 -6.7238,-9.8125 -18.1388,-15.8125 -30.0388,-15.8125 l -344.0325,0.2375 c -16.8125,0 -32.5525,11.9625 -35.78,28.7 -1.6787,8.6875 -0.6725,17.2625 3.7525,25 l 171.7863,298.1 c 6.795,11.7875 17.84,19.175 31.6987,19.1 11.1625,-0.013 23.7825,-5.5125 29.535,-15.5 l 173.4375,-300.1375 z"
       id="path17" />
    <path
       inkscape:connector-curvature="0"
       style="fill:#af1e2d;fill-opacity:1;fill-rule:evenodd;stroke:none"
       d="m -1748.5026,257.5562 -14.0638,-31.375 -13.6187,0 21.4137,48.0125 0,40.575 12.5263,0 0,-40.575 21.4476,-48.0125 -13.6413,0 -14.0637,31.375 z"
       id="path19" />
    <path
       inkscape:connector-curvature="0"
       style="fill:#af1e2d;fill-opacity:1;fill-rule:evenodd;stroke:none"
       d="m -1662.3063,273.2437 18.7649,0 0,-12.4125 -18.7649,0 0,-22.15 30.465,0 0,-12.5 -42.8725,0 0,88.5875 44.2888,0 0,-12.375 -31.8813,0 0,-29.15 z"
       id="path21" />
    <path
       inkscape:connector-curvature="0"
       style="fill:#af1e2d;fill-opacity:1;fill-rule:evenodd;stroke:none"
       d="m -1603.0075,226.1812 -12.4075,0 0,88.5875 44.305,0 0,-11.75 -31.8975,0 0,-76.8375 z"
       id="path23" />
    <path
       inkscape:connector-curvature="0"
       style="fill:#af1e2d;fill-opacity:1;fill-rule:evenodd;stroke:none"
       d="m -1522.5525,292.5312 c -1.4375,5.7375 -6.4375,9.8625 -12.4314,9.8625 l -8.7362,0 0,-63.7125 9.0625,0 c 5.4338,0 10.4262,3.65 11.9001,8.9125 2.0711,7.3 2.5437,15.375 2.5675,22.8875 0.029,7.375 -0.5213,14.9125 -2.3625,22.05 z m 13.2087,-41.825 c -1.2675,-7.35 -3.7887,-14.3375 -9.8337,-19.125 -4.3689,-3.4375 -9.9064,-5.4 -15.4801,-5.4 l -21.4699,0 0,88.5875 21.4699,0 c 6.0476,-0.35 10.7425,-1.5875 15.6488,-5.4875 8.1863,-6.5 9.665,-16.425 10.73,-26.125 1.1813,-10.775 0.8,-21.7625 -1.065,-32.45 z"
       id="path25" />
    <path
       inkscape:connector-curvature="0"
       style="fill:#af1e2d;fill-opacity:1;fill-rule:evenodd;stroke:none"
       d="m -1705.8225,314.7687 12.385,0 0,-88.5875 -12.385,0 0,88.5875 z"
       id="path27" />
    <path
       id="path3945"
       d="m 371.4912,1035.0874 c 0,93.2 -75.55,168.75 -168.75,168.75 l -2362.5,0 c -93.1988,0 -168.75,-75.55 -168.75,-168.75 l 0,-2362.4875 c 0,-93.1988 75.5512,-168.75 168.75,-168.75 l 2362.5,0 c 93.2,0 168.75,75.5512 168.75,168.75 l 0,2362.4875 z"
       style="fill:none;stroke:#000000;stroke-width:10;stroke-miterlimit:4;stroke-opacity:1;stroke-dasharray:none"
       inkscape:connector-curvature="0" />
  </g>
</svg>
