<?xml version="1.0" encoding="UTF-8" standalone="no"?>
<svg xmlns="http://www.w3.org/2000/svg" xml:space="preserve" width="236.90625" height="284" viewBox="-1 0 236.90625 283.99999">
  <path fill="#fff" stroke="#000" stroke-width="1.5" d="M235.16575 268.54561c0 8.09249-6.62125 14.71375-14.71375 14.71375H14.45325c-8.09375 0-14.715-6.62124-14.715-14.71375V15.461835c0-8.09375 6.62125-14.715 14.715-14.715H220.452c8.0925 0 14.71375 6.62125 14.71375 14.715V268.54561z"/>
  <path d="M220.45149 4.670955H14.45274c-5.935 0-10.79 4.85625-10.79 10.79V268.54597c0 5.935 4.855 10.79001 10.79 10.79001h205.99875c5.935 0 10.79-4.85501 10.79-10.79001V15.460955c0-5.93375-4.855-10.78999-10.79-10.78999m4.905 263.875005c0 2.6975-2.2075 4.90499-4.905 4.90499H14.45274c-2.6975 0-4.905-2.20749-4.905-4.90499V15.460955c0-2.6975 2.2075-4.90375 4.905-4.90375h205.99875c2.6975 0 4.905 2.20625 4.905 4.90375V268.54597z"/>
  <path d="M131.67574 181.24135V89.98009l16.82375 5.05125c.5275.1625 1.08875.25 1.67125.25 3.14125 0 5.68875-2.5475 5.68875-5.68875 0-1.24625-.4-2.39875-1.07875-3.33625l-37.32875-54.11875-37.3275 54.11875c-.68.9375-1.08 2.09-1.08 3.33625 0 3.14125 2.5475 5.68875 5.68875 5.68875.5825 0 1.14375-.0875 1.6725-.25l16.8225-5.05125v91.26126h28.4475zM69.8445 247.40522c-2.72 3.5575-6.4175 5.30127-11.37 5.30127-6.6275 0-10.6725-2.65003-13.5325-8.44-1.95375-3.97625-3.34875-10.255-3.34875-15.83503 0-7.8125 1.95375-14.78872 5.1625-19.1825 2.72-3.69749 6.62625-5.30125 12.0675-5.30125 13.04375 0 16.18375 13.95124 16.18375 24.48374 0 7.39377-1.88375 14.78875-5.1625 18.97375m-11.02125-35.85496c-4.185 0-6.13875 1.67499-7.8125 5.78997-1.11625 2.79001-1.81375 7.11502-1.81375 11.09125 0 4.95251 1.04625 10.04501 2.86 13.04501 1.465 2.44125 3.4175 3.62625 6.4175 3.62625 3.4875 0 5.65-1.8125 7.255-5.92878.97625-2.51123 1.8125-7.115 1.8125-10.7425 0-5.44125-1.185-16.88125-8.71875-16.88125m51.27 40.31944-17.9975-31.87875v31.87875H84.632V204.7846h7.46375l17.16 30.065v-30.065h7.395v47.08501h-6.5575zm17.15913 0V204.7846h7.46375v40.17876h21.76375v6.90625h-29.2275zm49.7355-20.5084v20.50872h-7.46375v-20.50873l-16.5325-26.57751h8.92875l11.23125 18.1375 11.44-18.1375h8.71875l-16.3225 26.57751z"/>
</svg>