<?xml version="1.0" encoding="UTF-8" standalone="no"?>
<!-- Created with Inkscape (http://www.inkscape.org/) -->

<svg
   xmlns:dc="http://purl.org/dc/elements/1.1/"
   xmlns:cc="http://creativecommons.org/ns#"
   xmlns:rdf="http://www.w3.org/1999/02/22-rdf-syntax-ns#"
   xmlns:svg="http://www.w3.org/2000/svg"
   xmlns="http://www.w3.org/2000/svg"
   xmlns:sodipodi="http://sodipodi.sourceforge.net/DTD/sodipodi-0.dtd"
   xmlns:inkscape="http://www.inkscape.org/namespaces/inkscape"
   version="1.0"
   width="90"
   height="90.001251"
   id="svg2"
   inkscape:version="0.48.2 r9819"
   sodipodi:docname="MUTCD W24-1aR (temporary).svg">
  <metadata
     id="metadata13">
    <rdf:RDF>
      <cc:Work
         rdf:about="">
        <dc:format>image/svg+xml</dc:format>
        <dc:type
           rdf:resource="http://purl.org/dc/dcmitype/StillImage" />
        <dc:title></dc:title>
      </cc:Work>
    </rdf:RDF>
  </metadata>
  <sodipodi:namedview
     pagecolor="#ffffff"
     bordercolor="#666666"
     borderopacity="1"
     objecttolerance="10"
     gridtolerance="10"
     guidetolerance="10"
     inkscape:pageopacity="0"
     inkscape:pageshadow="2"
     inkscape:window-width="1280"
     inkscape:window-height="1004"
     id="namedview11"
     showgrid="false"
     fit-margin-top="0"
     fit-margin-left="0"
     fit-margin-right="0"
     fit-margin-bottom="0"
     inkscape:zoom="5.6568543"
     inkscape:cx="50.369577"
     inkscape:cy="34.167723"
     inkscape:window-x="-8"
     inkscape:window-y="-8"
     inkscape:window-maximized="1"
     inkscape:current-layer="svg2" />
  <defs
     id="defs4" />
  <path
     d="M 1.2890625,41.878439 41.876563,1.2871875 c 1.71875,-1.71625 4.53,-1.71625 6.24625,0 L 88.712811,41.878439 c 1.71625,1.71625 1.71625,4.52625 0,6.244999 l -40.589998,40.58875 c -1.716251,1.71875 -4.5275,1.71875 -6.24625,0 L 1.2890625,48.123438 c -1.71875,-1.71875 -1.71875,-4.528749 0,-6.244999"
     style="fill:#f4911d;fill-opacity:1;fill-rule:nonzero;stroke:none"
     id="path4007"
     inkscape:connector-curvature="0" />
  <path
     d="M 2.2678125,42.522187 42.521563,2.2659375 c 1.365,-1.3625 3.59375,-1.3625 4.956249,0 L 87.734061,42.522187 c 1.3625,1.3625 1.3625,3.59375 0,4.95625 L 47.477813,87.734689 c -1.3625,1.3625 -3.59125,1.3625 -4.95625,0 L 2.2678125,47.478437 c -1.365,-1.3625 -1.365,-3.59375 0,-4.95625"
     style="fill:#000000;fill-opacity:1;fill-rule:evenodd;stroke:none"
     id="path4015"
     inkscape:connector-curvature="0" />
  <path
     d="M 3.5254375,43.763429 43.761687,3.5259275 c 0.68125,-0.68125 1.7975,-0.68125 2.47625,0 L 86.474186,43.763429 c 0.68125,0.68 0.68125,1.79375 0,2.475 L 46.237937,86.474678 c -0.67875,0.681251 -1.795,0.681251 -2.47625,0 L 3.5254375,46.238428 c -0.68125,-0.68125 -0.68125,-1.795 0,-2.474999"
     style="fill:#f4911d;fill-opacity:1;fill-rule:evenodd;stroke:none"
     id="path4019"
     inkscape:connector-curvature="0" />
  <path
     d="m 30.119063,50.887058 c 0.005,0.77875 0.4475,1.50375 1.11875,1.89125 l 7.475,5.16125 c 1.4925,1.0325 2.14875,3.03 2.14875,4.86875 l 0.005,5.1125 -4.41875,0 -0.005,-5.08875 c 0,-0.6975 -0.335,-1.36125 -0.896251,-1.77625 l -6.5775,-4.47375 c -1.99375,-1.16375 -3.261249,-3.39125 -3.261249,-5.72 l 0,0.0025 c 0.0025,-2.74125 0.0025,-5.48125 0,-8.219999 0,0.02625 0,0 0,0 0,-2.32875 1.267499,-4.556251 3.261249,-5.72 l 6.5775,-4.472501 c 0.561251,-0.415 0.896251,-1.079999 0.896251,-1.7775 l 0.005,-1.98 -2.43625,0.7275 c -0.3375,0.0925 -0.58625,0.13125 -0.8475,-0.04375 -0.37125,-0.25125 -0.46875,-0.7625 -0.215,-1.13375 l 5.705,-8.4375 5.71625,8.4375 c 0.253749,0.37125 0.15625,0.8825 -0.215001,1.13375 -0.24875,0.1675 -0.50625,0.13875 -0.813749,0.06125 l -2.475001,-0.745 -0.005,2.00625 c 0,1.83625 -0.65625,3.83375 -2.14875,4.866251 l -7.475,5.163749 c -0.67125,0.3875 -1.11375,1.11 -1.11875,1.89125 -0.0025,2.755 -0.0025,5.50875 0,8.265"
     style="fill:#000000;fill-opacity:1;fill-rule:evenodd;stroke:none"
     id="path4023"
     inkscape:connector-curvature="0" />
  <path
     d="m 45.854063,50.887058 c 0.005,0.77875 0.4475,1.50375 1.11875,1.89125 l 7.475,5.16125 c 1.49125,1.0325 2.14875,3.03 2.14875,4.86875 l 0.005,5.1125 -4.41875,0 -0.005,-5.08875 c 0,-0.6975 -0.335001,-1.36125 -0.896251,-1.77625 l -6.5775,-4.47375 c -1.99375,-1.16375 -3.261249,-3.39125 -3.261249,-5.72 l 0,0.0025 0,-8.219999 c 0,0.02625 0,0 0,0 0,-2.32875 1.267499,-4.556251 3.261249,-5.72 l 6.5775,-4.472501 c 0.56125,-0.415 0.896251,-1.079999 0.896251,-1.7775 l 0.005,-1.98 -2.4375,0.7275 c -0.33625,0.0925 -0.585,0.13125 -0.84625,-0.04375 -0.37125,-0.25125 -0.46875,-0.7625 -0.215,-1.13375 l 5.705,-8.4375 5.716249,8.4375 c 0.25375,0.37125 0.15625,0.8825 -0.215,1.13375 -0.25,0.1675 -0.50625,0.13875 -0.813749,0.06125 l -2.475001,-0.745 -0.005,2.00625 c 0,1.83625 -0.6575,3.83375 -2.14875,4.866251 l -7.475,5.163749 c -0.67125,0.3875 -1.113751,1.11 -1.11875,1.89125 -0.0025,2.755 -0.0025,5.50875 0,8.265"
     style="fill:#000000;fill-opacity:1;fill-rule:evenodd;stroke:none"
     id="path4027"
     inkscape:connector-curvature="0" />
</svg>
