<?xml version="1.0" encoding="UTF-8" standalone="no"?>
<!-- Generator: Adobe Illustrator 14.0.0, SVG Export Plug-In  -->

<svg
   xmlns:dc="http://purl.org/dc/elements/1.1/"
   xmlns:cc="http://creativecommons.org/ns#"
   xmlns:rdf="http://www.w3.org/1999/02/22-rdf-syntax-ns#"
   xmlns:svg="http://www.w3.org/2000/svg"
   xmlns="http://www.w3.org/2000/svg"
   xmlns:sodipodi="http://sodipodi.sourceforge.net/DTD/sodipodi-0.dtd"
   xmlns:inkscape="http://www.inkscape.org/namespaces/inkscape"
   version="1.1"
   x="0px"
   y="0px"
   width="108.95812"
   height="108.94391"
   viewBox="0 -0.321 108.95811 108.94394"
   enable-background="new 0 -0.321 144 120"
   xml:space="preserve"
   id="svg2"
   inkscape:version="0.48.2 r9819"
   sodipodi:docname="MUTCD W20-3 (temporary).svg"><metadata
   id="metadata44"><rdf:RDF><cc:Work
       rdf:about=""><dc:format>image/svg+xml</dc:format><dc:type
         rdf:resource="http://purl.org/dc/dcmitype/StillImage" /><dc:title></dc:title></cc:Work></rdf:RDF></metadata><sodipodi:namedview
   pagecolor="#ffffff"
   bordercolor="#666666"
   borderopacity="1"
   objecttolerance="10"
   gridtolerance="10"
   guidetolerance="10"
   inkscape:pageopacity="0"
   inkscape:pageshadow="2"
   inkscape:window-width="1280"
   inkscape:window-height="1004"
   id="namedview42"
   showgrid="false"
   fit-margin-top="0"
   fit-margin-left="0"
   fit-margin-right="0"
   fit-margin-bottom="0"
   inkscape:zoom="5.3605324"
   inkscape:cx="44.311927"
   inkscape:cy="43.71383"
   inkscape:window-x="-8"
   inkscape:window-y="-8"
   inkscape:window-maximized="1"
   inkscape:current-layer="svg2" />
<defs
   id="defs4">
</defs>


















<path
   inkscape:connector-curvature="0"
   d="M 51.560314,107.43231 1.2065487,57.078548 c -1.60874999,-1.60875 -1.60874999,-4.231251 0,-5.840002 L 51.557814,0.88728241 c 1.60875,-1.610001 4.233751,-1.611251 5.842501,-0.0025 L 107.75158,51.241046 c 1.60875,1.608751 1.60875,4.230002 0,5.838752 L 57.400315,107.43231 c -1.58875,1.58625 -4.250001,1.58875 -5.840001,0"
   style="fill:#f4911d;fill-opacity:1;fill-rule:nonzero;stroke:none"
   id="path6980" /><path
   inkscape:connector-curvature="0"
   d="M 52.361563,106.61219 2.0265487,56.278428 c -1.15749999,-1.160001 -1.15499999,-3.078751 0,-4.238751 L 52.359063,1.7071624 c 1.16,-1.15874999 3.076251,-1.15624999 4.240001,0 L 106.92908,52.042177 c 1.1575,1.16 1.16,3.075 0,4.236251 L 56.599064,106.61219 c -1.16125,1.1525 -3.078751,1.15625 -4.237501,0"
   style="fill:#000000;fill-opacity:1;fill-rule:evenodd;stroke:none"
   id="path6984" /><path
   inkscape:connector-curvature="0"
   d="M 53.481563,105.46231 3.1765487,55.157297 c -0.55625,-0.53875 -0.55625,-1.4575 0,-1.99625 L 53.481563,2.8572824 c 0.5375,-0.55625 1.455001,-0.55625 1.995001,0 L 105.78158,53.161047 c 0.55625,0.54 0.55625,1.45875 -0.002,1.99875 L 55.479064,105.46231 c -0.54,0.55625 -1.457501,0.55625 -1.997501,0"
   style="fill:#f4911d;fill-opacity:1;fill-rule:evenodd;stroke:none"
   id="path6988" /><path
   d="m 84.066562,46.000797 0,-1.5475 -4.026251,0 0,-3.638752 2.282501,0 0,-1.50875 -2.282501,0 0,-2.787501 3.601251,0 0,-1.5475 -5.187501,0 0,11.030003 5.612501,0 z m -7.971252,0 0,-11.030003 -1.590001,0 0,6.617502 -3.0175,-6.617502 -1.586251,0 0,11.030003 1.586251,0 0,-7.392502 3.406251,7.392502 1.20125,0 z m -10.451253,-4.566251 -1.587501,0 0.773751,-3.173751 0.81375,3.173751 z m 2.748751,4.566251 -2.748751,-11.030003 -1.548751,0 -2.74875,11.030003 1.5875,0 0.73625,-3.018751 2.361251,0 0.77375,3.018751 1.587501,0 z m -7.702502,0 0,-1.47125 -4.026252,0 0,-9.558753 -1.5875,0 0,11.030003 5.613752,0 z m -12.966254,0 0,-1.5475 -4.023751,0 0,-3.638752 2.2825,0 0,-1.50875 -2.2825,0 0,-2.787501 3.598751,0 0,-1.5475 -5.186252,0 0,11.030003 5.611252,0 z m -7.971253,0 0,-11.030003 -1.59,0 0,6.617502 -3.017501,-6.617502 -1.58625,0 0,11.030003 1.58625,0 0,-7.392502 3.408751,7.392502 1.19875,0 z m -9.910002,-5.535002 c 0,1.277501 -0.07625,1.935001 -0.34625,2.825001 -0.27125,0.93 -0.696251,1.355001 -1.355001,1.355001 -0.69625,0 -1.12125,-0.425001 -1.395,-1.355001 -0.23125,-0.89 -0.34625,-1.585 -0.34625,-2.785001 0,-1.24 0.07875,-1.975 0.34625,-2.825 0.27375,-0.930001 0.69875,-1.355001 1.395,-1.355001 0.65875,0 1.083751,0.425 1.355001,1.392501 0.23375,0.8125 0.34625,1.50875 0.34625,2.7475 m 1.50875,0 c 0,-1.66375 -0.15125,-2.70875 -0.6175,-3.792501 -0.5425,-1.355 -1.31625,-1.89625 -2.592501,-1.89625 -1.2775,0 -2.05125,0.54125 -2.63,1.8575 -0.466251,1.046251 -0.622501,2.167501 -0.622501,3.831251 0,1.703751 0.15625,2.748751 0.622501,3.832501 0.5425,1.315001 1.31375,1.901251 2.63,1.901251 1.240001,0 2.050001,-0.58625 2.592501,-1.901251 0.46625,-1.045 0.6175,-2.12875 0.6175,-3.832501"
   style="fill:#000000;fill-opacity:1;fill-rule:evenodd;stroke:none"
   id="path6892"
   inkscape:connector-curvature="0" /><path
   d="m 69.007808,56.51855 c 0,0.85125 -0.07625,1.625001 -0.15625,2.321251 -0.15125,0.85375 -0.65375,1.58875 -1.585001,1.58875 l -1.315,0 0,-7.935002 1.315,0 c 0.698751,0 1.160001,0.34875 1.433751,1.1225 0.1925,0.465001 0.3075,1.665001 0.3075,2.902501 m 1.55,-0.0775 c 0,-0.85125 -0.1175,-1.81875 -0.27375,-2.631251 -0.1925,-1.1225 -0.65625,-1.97375 -1.315,-2.43875 -0.38625,-0.30875 -0.8525,-0.425 -1.780001,-0.425 l -2.825,0 0,11.028753 3.05875,0 c 0.618751,0 1.160001,-0.155 1.546251,-0.50125 1.08375,-0.852501 1.58875,-2.478751 1.58875,-5.032502 m -10.451253,0.967501 -1.5875,0 0.77375,-3.173751 0.81375,3.173751 z m 2.748751,4.566251 -2.748751,-11.028753 -1.5475,0 -2.747501,11.028753 1.585001,0 0.7375,-3.017501 2.36,0 0.775001,3.017501 1.58625,0 z M 52.947803,56.44105 c 0,1.277501 -0.0775,1.935001 -0.34875,2.825001 -0.27125,0.92875 -0.69875,1.355 -1.355,1.355 -0.69625,0 -1.120001,-0.42625 -1.393751,-1.355 -0.2325,-0.89 -0.35,-1.585 -0.35,-2.786251 0,-1.2375 0.08125,-1.97375 0.35,-2.825001 0.27375,-0.92875 0.697501,-1.355 1.393751,-1.355 0.65625,0 1.08375,0.42625 1.355,1.3925 0.2325,0.813751 0.34875,1.508751 0.34875,2.748751 m 1.508751,0 c 0,-1.665 -0.15625,-2.708751 -0.62,-3.792501 -0.541251,-1.355 -1.313751,-1.89625 -2.592501,-1.89625 -1.276251,0 -2.051251,0.54125 -2.631251,1.8575 -0.465,1.045 -0.62125,2.166251 -0.62125,3.831251 0,1.702501 0.15625,2.748751 0.62125,3.832501 0.54125,1.315001 1.3175,1.900001 2.631251,1.900001 1.2375,0 2.05125,-0.585 2.592501,-1.900001 0.46375,-1.04625 0.62,-2.13 0.62,-3.832501 m -9.636253,-2.555001 c 0,0.890001 -0.505,1.395001 -1.4325,1.395001 l -1.626251,0 0,-2.787501 1.626251,0 c 0.85125,0 1.4325,0.5425 1.4325,1.3925 m 1.54625,8.088753 -1.585,-5.416252 c 1.0425,-0.3875 1.585,-1.3575 1.585,-2.672501 0,-1.77875 -1.16,-2.94 -2.90375,-2.94 l -3.286251,0 0,11.028753 1.585,0 0,-5.185002 1.50875,0 1.470001,5.185002 1.62625,0 z"
   style="fill:#000000;fill-opacity:1;fill-rule:evenodd;stroke:none"
   id="path6896"
   inkscape:connector-curvature="0" /><path
   d="m 32.462798,78.211681 0,-9.126252 -0.703751,0 0,-1.20875 c 0.625001,-0.03875 1.013751,-0.312501 1.247501,-0.780001 l 1.055,0 0,11.115003 -1.59875,0 z"
   style="fill:#000000;fill-opacity:1;fill-rule:nonzero;stroke:none"
   id="path6900"
   inkscape:connector-curvature="0" /><path
   d="m 40.9628,69.865554 c -0.2725,-0.975 -0.7025,-1.40375 -1.363751,-1.40375 -0.70375,0 -1.13125,0.42875 -1.40375,1.365 -0.27375,0.8575 -0.3525,1.598751 -0.3525,2.846251 0,1.21 0.1175,1.91125 0.3525,2.808751 0.2725,0.93625 0.7,1.365 1.40375,1.365 0.661251,0 1.091251,-0.42875 1.363751,-1.365 0.27375,-0.897501 0.3525,-1.560001 0.3525,-2.846251 0,-1.24875 -0.1175,-1.951251 -0.3525,-2.770001 m 1.2475,6.630002 c -0.54625,1.32625 -1.36375,1.911251 -2.611251,1.911251 -1.32625,0 -2.1075,-0.585001 -2.65125,-1.911251 -0.46875,-1.09125 -0.625,-2.145001 -0.625,-3.860001 0,-1.677501 0.15625,-2.808751 0.625,-3.862501 0.5825,-1.326251 1.36375,-1.871251 2.65125,-1.871251 1.286251,0 2.065001,0.545 2.611251,1.910001 0.46875,1.0925 0.625,2.14625 0.625,3.823751 0,1.715 -0.15625,2.806251 -0.625,3.860001"
   style="fill:#000000;fill-opacity:1;fill-rule:nonzero;stroke:none"
   id="path6904"
   inkscape:connector-curvature="0" /><path
   d="m 49.502802,69.865554 c -0.2725,-0.975 -0.7,-1.40375 -1.36375,-1.40375 -0.70375,0 -1.13125,0.42875 -1.403751,1.365 -0.27375,0.8575 -0.3525,1.598751 -0.3525,2.846251 0,1.21 0.1175,1.91125 0.3525,2.808751 0.272501,0.93625 0.700001,1.365 1.403751,1.365 0.66375,0 1.09125,-0.42875 1.36375,-1.365 0.27375,-0.897501 0.3525,-1.560001 0.3525,-2.846251 0,-1.24875 -0.1175,-1.951251 -0.3525,-2.770001 m 1.247501,6.630002 c -0.543751,1.32625 -1.363751,1.911251 -2.611251,1.911251 -1.32625,0 -2.107501,-0.585001 -2.651251,-1.911251 -0.46875,-1.09125 -0.625,-2.145001 -0.625,-3.860001 0,-1.677501 0.15625,-2.808751 0.625,-3.862501 0.585,-1.326251 1.363751,-1.871251 2.651251,-1.871251 1.28625,0 2.0675,0.545 2.611251,1.910001 0.46875,1.0925 0.625,2.14625 0.625,3.823751 0,1.715 -0.15625,2.806251 -0.625,3.860001"
   style="fill:#000000;fill-opacity:1;fill-rule:nonzero;stroke:none"
   id="path6908"
   inkscape:connector-curvature="0" /><path
   d="m 58.042805,69.865554 c -0.27,-0.975 -0.7,-1.40375 -1.363751,-1.40375 -0.70125,0 -1.13125,0.42875 -1.40375,1.365 -0.27375,0.8575 -0.35,1.598751 -0.35,2.846251 0,1.21 0.115,1.91125 0.35,2.808751 0.2725,0.93625 0.7025,1.365 1.40375,1.365 0.663751,0 1.093751,-0.42875 1.363751,-1.365 0.27375,-0.897501 0.3525,-1.560001 0.3525,-2.846251 0,-1.24875 -0.1175,-1.951251 -0.3525,-2.770001 m 1.25,6.630002 c -0.54625,1.32625 -1.36375,1.911251 -2.613751,1.911251 -1.32625,0 -2.105,-0.585001 -2.65125,-1.911251 -0.468751,-1.09125 -0.622501,-2.145001 -0.622501,-3.860001 0,-1.677501 0.15375,-2.808751 0.622501,-3.862501 0.585,-1.326251 1.36375,-1.871251 2.65125,-1.871251 1.288751,0 2.067501,0.545 2.613751,1.910001 0.4675,1.0925 0.62375,2.14625 0.62375,3.823751 0,1.715 -0.15625,2.806251 -0.62375,3.860001"
   style="fill:#000000;fill-opacity:1;fill-rule:nonzero;stroke:none"
   id="path6912"
   inkscape:connector-curvature="0" /><path
   d="m 69.276558,68.655929 0,2.808751 2.221251,0 0,1.52125 -2.221251,0 0,5.226251 -1.6,0 0,-11.115003 5.655001,0 0,1.558751 -4.055001,0 z"
   style="fill:#000000;fill-opacity:1;fill-rule:nonzero;stroke:none"
   id="path6916"
   inkscape:connector-curvature="0" /><path
   d="m 77.662685,68.578929 0,9.632502 -1.60125,0 0,-9.632502 -2.027501,0 0,-1.481251 5.655002,0 0,1.481251 -2.026251,0 z"
   style="fill:#000000;fill-opacity:1;fill-rule:nonzero;stroke:none"
   id="path6920"
   inkscape:connector-curvature="0" /></svg>