<?xml version="1.0" encoding="UTF-8" standalone="no"?>
<!-- Created with Inkscape (http://www.inkscape.org/) -->

<svg
   xmlns:dc="http://purl.org/dc/elements/1.1/"
   xmlns:cc="http://creativecommons.org/ns#"
   xmlns:rdf="http://www.w3.org/1999/02/22-rdf-syntax-ns#"
   xmlns:svg="http://www.w3.org/2000/svg"
   xmlns="http://www.w3.org/2000/svg"
   xmlns:sodipodi="http://sodipodi.sourceforge.net/DTD/sodipodi-0.dtd"
   xmlns:inkscape="http://www.inkscape.org/namespaces/inkscape"
   width="66.028046"
   height="33.007435"
   id="svg2934"
   version="1.1"
   inkscape:version="0.48.2 r9819"
   sodipodi:docname="MUTCD G20-1.svg">
  <defs
     id="defs2936">
    <inkscape:perspective
       sodipodi:type="inkscape:persp3d"
       inkscape:vp_x="0 : 526.18109 : 1"
       inkscape:vp_y="0 : 1000 : 0"
       inkscape:vp_z="744.09448 : 526.18109 : 1"
       inkscape:persp3d-origin="372.04724 : 350.78739 : 1"
       id="perspective2942" />
    <inkscape:perspective
       id="perspective2924"
       inkscape:persp3d-origin="0.5 : 0.33333333 : 1"
       inkscape:vp_z="1 : 0.5 : 1"
       inkscape:vp_y="0 : 1000 : 0"
       inkscape:vp_x="0 : 0.5 : 1"
       sodipodi:type="inkscape:persp3d" />
  </defs>
  <sodipodi:namedview
     id="base"
     pagecolor="#ffffff"
     bordercolor="#666666"
     borderopacity="1.0"
     inkscape:pageopacity="0.0"
     inkscape:pageshadow="2"
     inkscape:zoom="5.2462853"
     inkscape:cx="24.610881"
     inkscape:cy="19.332361"
     inkscape:document-units="px"
     inkscape:current-layer="g2909"
     showgrid="false"
     inkscape:window-width="1280"
     inkscape:window-height="1004"
     inkscape:window-x="-8"
     inkscape:window-y="-8"
     inkscape:window-maximized="1"
     fit-margin-top="0"
     fit-margin-left="0"
     fit-margin-right="0"
     fit-margin-bottom="0" />
  <metadata
     id="metadata2939">
    <rdf:RDF>
      <cc:Work
         rdf:about="">
        <dc:format>image/svg+xml</dc:format>
        <dc:type
           rdf:resource="http://purl.org/dc/dcmitype/StillImage" />
        <dc:title></dc:title>
      </cc:Work>
    </rdf:RDF>
  </metadata>
  <g
     inkscape:label="Ebene 1"
     inkscape:groupmode="layer"
     id="layer1"
     transform="translate(1269.8773,3150.2796)">
    <g
       id="g3018"
       transform="translate(2,-2)">
      <g
         id="g2909"
         transform="matrix(0.80835983,0,0,0.80835983,-165.10178,-177.02766)">
        <path
           inkscape:connector-curvature="0"
           d="m -1292.9412,-3634.8225 -70.7575,0 c -3.0061,0 -5.4601,-2.4555 -5.4632,-5.4632 l 0.01,-29.9062 c 0,-3.0045 2.454,-5.4601 5.4632,-5.4632 l 70.7482,0 c 3.0046,0 5.4632,2.4586 5.4601,5.4601 l 0,29.9031 c 0,3.0046 -2.4586,5.4633 -5.4601,5.4633"
           style="fill:#f4911d;fill-opacity:1;fill-rule:nonzero;stroke:none"
           id="path3172" />
        <path
           inkscape:connector-curvature="0"
           d="m -1293.235,-3636.2419 -70.1714,0 c -2.3829,0 -4.3329,-1.9515 -4.3375,-4.3344 l 0.01,-29.3217 c 0,-2.383 1.9515,-4.3344 4.3344,-4.3344 l 70.1652,0 c 2.386,0 4.3344,1.9514 4.3344,4.3344 l 0,29.3186 c 0,2.3829 -1.9484,4.3344 -4.3313,4.3344"
           style="fill:#000000;fill-opacity:1;fill-rule:evenodd;stroke:none"
           id="path3180" />
        <path
           inkscape:connector-curvature="0"
           d="m -1293.2536,-3638.4285 -70.1373,0 c -1.1907,0 -2.1649,-0.9726 -2.1649,-2.1648 l 0,-29.2908 c 0,-1.1892 0.9727,-2.1649 2.1664,-2.1649 l 70.1312,0 c 1.1938,0 2.1696,0.9757 2.1665,2.1649 l 0,29.2877 c 0,1.1891 -0.9758,2.1648 -2.1665,2.1648"
           style="fill:#f4911d;fill-opacity:1;fill-rule:evenodd;stroke:none"
           id="path3184" />
        <path
           d="m -1320.4413,-3662.6199 c 0,0.7005 -0.063,1.3376 -0.1268,1.9082 -0.1299,0.7005 -0.5397,1.3082 -1.3036,1.3082 l -1.0855,0 0,-6.5271 1.0855,0 c 0.5706,0 0.9541,0.2861 1.1737,0.9247 0.1608,0.3804 0.2567,1.367 0.2567,2.386 m 1.2726,-0.063 c 0,-0.702 -0.094,-1.4953 -0.2242,-2.1633 -0.1562,-0.9247 -0.5396,-1.6252 -1.0809,-2.0056 -0.317,-0.2536 -0.7005,-0.3495 -1.4643,-0.3495 l -2.3227,0 0,9.0693 2.5159,0 c 0.5072,0 0.9541,-0.1268 1.2711,-0.4144 0.8907,-0.7005 1.3051,-2.035 1.3051,-4.1365 m -7.0312,4.5509 0,-9.0693 -1.3035,0 0,5.4416 -2.4835,-5.4416 -1.3051,0 0,9.0693 1.3051,0 0,-6.0771 2.8005,6.0771 0.9865,0 z m -6.6199,0 0,-1.2711 -3.3107,0 0,-2.9937 1.8788,0 0,-1.2417 -1.8788,0 0,-2.2917 2.9613,0 0,-1.2711 -4.2648,0 0,9.0693 4.6142,0 z"
           style="fill:#000000;fill-opacity:1;fill-rule:evenodd;stroke:none"
           id="path3126"
           inkscape:connector-curvature="0" />
        <path
           d="m -1299.6461,-3643.4391 -2.103,-5.89 1.8788,-3.1824 -1.4953,0 -2.069,3.6262 0,-3.6262 -1.3036,0 0,9.0724 1.3036,0 0,-2.8994 0.8288,-1.5247 1.5912,4.4241 1.3685,0 z m -7.8616,-6.6539 c 0,0.7314 -0.4144,1.1443 -1.1783,1.1443 l -1.3345,0 0,-2.2886 1.3345,0 c 0.7005,0 1.1783,0.4438 1.1783,1.1443 m 1.2742,6.6539 -1.3082,-4.4581 c 0.8613,-0.317 1.3082,-1.1149 1.3082,-2.1958 0,-1.4644 -0.9572,-2.4185 -2.3891,-2.4185 l -2.703,0 0,9.0724 1.3051,0 0,-4.2679 1.2402,0 1.2092,4.2679 1.3376,0 z m -8.1492,-4.554 c 0,1.05 -0.063,1.5912 -0.2861,2.3242 -0.2211,0.7623 -0.5706,1.1118 -1.1149,1.1118 -0.5706,0 -0.9216,-0.3495 -1.1443,-1.1118 -0.1902,-0.733 -0.2876,-1.3067 -0.2876,-2.2917 0,-1.0175 0.067,-1.6221 0.2876,-2.3226 0.2227,-0.7639 0.5737,-1.1149 1.1443,-1.1149 0.5443,0 0.8938,0.351 1.1149,1.1458 0.1902,0.6696 0.2861,1.2402 0.2861,2.2592 m 1.2417,0 c 0,-1.3685 -0.1268,-2.2267 -0.5103,-3.1174 -0.4438,-1.1149 -1.0809,-1.5618 -2.1324,-1.5618 -1.0484,0 -1.6855,0.4469 -2.1618,1.5278 -0.3835,0.8613 -0.5072,1.7829 -0.5072,3.1514 0,1.401 0.1237,2.2577 0.5072,3.153 0.4469,1.0809 1.0809,1.5634 2.1618,1.5634 1.0206,0 1.6886,-0.4825 2.1324,-1.5634 0.3835,-0.8613 0.5103,-1.752 0.5103,-3.153 m -6.3972,-4.5184 -1.2711,0 -0.7964,4.8385 -0.8582,-4.8385 -1.0175,0 -0.8922,4.8385 -0.7639,-4.8385 -1.2727,0 1.4304,9.0724 1.1474,0 0.8582,-4.7442 0.8598,4.7442 1.1149,0 1.4613,-9.0724 z m -13.747,4.5818 c 0,0.7005 -0.063,1.3376 -0.1268,1.9113 -0.1268,0.7005 -0.5397,1.3051 -1.3036,1.3051 l -1.0824,0 0,-6.524 1.0824,0 c 0.5737,0 0.9541,0.2861 1.1768,0.9216 0.1608,0.3835 0.2536,1.367 0.2536,2.386 m 1.2757,-0.063 c 0,-0.6989 -0.097,-1.4953 -0.2242,-2.1633 -0.1608,-0.9247 -0.5412,-1.6221 -1.0809,-2.0056 -0.3201,-0.2536 -0.7005,-0.3495 -1.4659,-0.3495 l -2.3211,0 0,9.0724 2.5128,0 c 0.5103,0 0.9541,-0.1299 1.2742,-0.4175 0.8907,-0.7005 1.3051,-2.035 1.3051,-4.1365 m -8.593,0.7964 -1.3082,0 0.6371,-2.6087 0.6711,2.6087 z m 2.2592,3.7576 -2.2592,-9.0724 -1.2742,0 -2.2592,9.0724 1.3036,0 0.6046,-2.4865 1.9422,0 0.6371,2.4865 1.3051,0 z m -8.1492,-4.554 c 0,1.05 -0.063,1.5912 -0.2861,2.3242 -0.2211,0.7623 -0.5706,1.1118 -1.1118,1.1118 -0.5737,0 -0.9247,-0.3495 -1.1474,-1.1118 -0.1902,-0.733 -0.2876,-1.3067 -0.2876,-2.2917 0,-1.0175 0.066,-1.6221 0.2876,-2.3226 0.2227,-0.7639 0.5737,-1.1149 1.1474,-1.1149 0.5412,0 0.8907,0.351 1.1118,1.1458 0.1902,0.6696 0.2861,1.2402 0.2861,2.2592 m 1.2417,0 c 0,-1.3685 -0.1268,-2.2267 -0.5072,-3.1174 -0.4469,-1.1149 -1.084,-1.5618 -2.1324,-1.5618 -1.0515,0 -1.6886,0.4469 -2.1649,1.5278 -0.3819,0.8613 -0.5103,1.7829 -0.5103,3.1514 0,1.401 0.1284,2.2577 0.5103,3.153 0.4469,1.0809 1.0809,1.5634 2.1649,1.5634 1.0175,0 1.6855,-0.4825 2.1324,-1.5634 0.3804,-0.8613 0.5072,-1.752 0.5072,-3.153 m -7.925,-2.0999 c 0,0.7314 -0.4144,1.1443 -1.1752,1.1443 l -1.3376,0 0,-2.2886 1.3376,0 c 0.7005,0 1.1752,0.4438 1.1752,1.1443 m 1.2742,6.6539 -1.3051,-4.4581 c 0.8582,-0.317 1.3051,-1.1149 1.3051,-2.1958 0,-1.4644 -0.9541,-2.4185 -2.386,-2.4185 l -2.7061,0 0,9.0724 1.3051,0 0,-4.2679 1.2417,0 1.2077,4.2679 1.3376,0 z"
           style="fill:#000000;fill-opacity:1;fill-rule:evenodd;stroke:none"
           id="path3130"
           inkscape:connector-curvature="0" />
      </g>
    </g>
  </g>
</svg>
