<?xml version="1.0" encoding="UTF-8" standalone="no"?>
<!-- Generator: Adobe Illustrator 14.0.0, SVG Export Plug-In  -->

<svg
   xmlns:dc="http://purl.org/dc/elements/1.1/"
   xmlns:cc="http://creativecommons.org/ns#"
   xmlns:rdf="http://www.w3.org/1999/02/22-rdf-syntax-ns#"
   xmlns:svg="http://www.w3.org/2000/svg"
   xmlns="http://www.w3.org/2000/svg"
   xmlns:sodipodi="http://sodipodi.sourceforge.net/DTD/sodipodi-0.dtd"
   xmlns:inkscape="http://www.inkscape.org/namespaces/inkscape"
   version="1.1"
   x="0px"
   y="0px"
   width="136.62498"
   height="136.62498"
   viewBox="0 -0.321 136.62499 136.625"
   enable-background="new 0 -0.321 144 120"
   xml:space="preserve"
   id="svg2"
   inkscape:version="0.48.2 r9819"
   sodipodi:docname="AJAX1.svg"><metadata
   id="metadata44"><rdf:RDF><cc:Work
       rdf:about=""><dc:format>image/svg+xml</dc:format><dc:type
         rdf:resource="http://purl.org/dc/dcmitype/StillImage" /><dc:title></dc:title></cc:Work></rdf:RDF></metadata><sodipodi:namedview
   pagecolor="#ffffff"
   bordercolor="#666666"
   borderopacity="1"
   objecttolerance="10"
   gridtolerance="10"
   guidetolerance="10"
   inkscape:pageopacity="0"
   inkscape:pageshadow="2"
   inkscape:window-width="1280"
   inkscape:window-height="1004"
   id="namedview42"
   showgrid="false"
   fit-margin-top="0"
   fit-margin-left="0"
   fit-margin-right="0"
   fit-margin-bottom="0"
   inkscape:zoom="1.8952344"
   inkscape:cx="67.03399"
   inkscape:cy="80.091901"
   inkscape:window-x="-8"
   inkscape:window-y="-8"
   inkscape:window-maximized="1"
   inkscape:current-layer="svg2" />
<defs
   id="defs4">
</defs>


















<path
   inkscape:connector-curvature="0"
   d="m 136.11163,124.48769 c 0,6.24125 -5.05875,11.30125 -11.30124,11.30125 l -113.017508,0 c -6.2425001,0 -11.3012501,-5.06 -11.3012501,-11.30125 l 0,-113.01751 c 0,-6.2425 5.05875,-11.3025 11.3012501,-11.3025 l 113.017508,0 c 6.24249,0 11.30124,5.06 11.30124,11.3025 l 0,113.01751 z"
   style="fill:#ffffff;fill-opacity:1;fill-rule:nonzero;stroke:#000000;stroke-width:1.00000012;stroke-miterlimit:4;stroke-opacity:1;stroke-dasharray:none"
   id="path3051" /><path
   inkscape:connector-curvature="0"
   d="m 128.57789,124.48769 c 0,2.0775 -1.68998,3.76625 -3.76748,3.76625 l -113.017518,0 c -2.0775001,0 -3.7675001,-1.68875 -3.7675001,-3.76625 l 0,-113.01751 c 0,-2.07875 1.69,-3.7675 3.7675001,-3.7675 l 113.017518,0 c 2.0775,0 3.76748,1.68875 3.76748,3.7675 l 0,113.01751 z m -3.76748,-121.49501 -113.017518,0 c -4.6750001,0 -8.4762501,3.8025 -8.4762501,8.4775 l 0,113.01751 c 0,4.67375 3.80125,8.47625 8.4762501,8.47625 l 113.017518,0 c 4.67498,0 8.47623,-3.8025 8.47623,-8.47625 l 0,-113.01751 c 0,-4.675 -3.80125,-8.4775 -8.47623,-8.4775"
   style="fill:#000000;fill-opacity:1;fill-rule:nonzero;stroke:none"
   id="path3059" /><path
   inkscape:connector-curvature="0"
   d="m 100.09667,65.05893 c 2.3675,0 4.29875,1.93125 4.29875,4.29875 0,2.36875 -1.93126,4.30125 -4.29875,4.30125 -2.368768,0 -4.300018,-1.9325 -4.300018,-4.30125 0,-2.3675 1.93125,-4.29875 4.300018,-4.29875"
   style="fill:#000000;fill-opacity:1;fill-rule:evenodd;stroke:none"
   id="path3063" /><path
   inkscape:connector-curvature="0"
   d="m 87.076642,92.17256 9.02,-6.01375 c 0.4175,-1.7625 2.14625,-9.58626 5.616238,-11.39751 3.4375,-2.27125 16.1075,7.06251 16.18125,7.14001 l 0,13.61625 -2.74625,-0.4775 -1.0775,-10.87 c -1.035,-0.2075 -2.06999,-0.41625 -3.105,-0.625 2.26375,5.84875 3.09375,11.485 1.7925,15.1975 l 5.495,22.4575 -3.70372,2.6275 -8.0025,-20.785 -3.70375,3.9425 -5.136268,15.6475 -4.8975,-1.79 4.42125,-16.485 5.136268,-9.19875 -1.97,-6.7875 -2.092518,2.7275 -9.795,3.225 -1.4325,-2.15125 z"
   style="fill:#000000;fill-opacity:1;fill-rule:evenodd;stroke:none"
   id="path3067" /><path
   inkscape:connector-curvature="0"
   d="m 33.365382,103.38144 8.08125,3.1425 c 0.78875,0.2875 1.30625,1.05625 1.26375,1.89625 -0.0487,0.98875 -0.85625,1.7825 -1.84,1.80625 l -22.24625,3.06375 -0.0412,-0.0438 3.97375,-22.10125 c 0.0663,-0.98125 0.89125,-1.75625 1.88,-1.76375 0.8425,-0.008 1.5925,0.5425 1.84375,1.34 l 2.715,7.89375 c 9.9925,-8.92125 22.92001,-13.79375 36.27126,-13.79375 4.02625,0 8.4775,0.6375 12.25625,1.51625 l -0.2,12.07125 c -5.21,-2.07625 -11.51625,-3.375 -17.26625,-3.375 -9.46,0.001 -18.91751,3.155 -26.69126,8.3475"
   style="fill:#000000;fill-opacity:1;fill-rule:evenodd;stroke:none"
   id="path3071" /><path
   inkscape:connector-curvature="0"
   d="m 24.869132,80.12756 0,-6.81625 -4.12375,0 0,6.81625 -2.165,0 0,-15.06 2.165,0 0,6.13 4.12375,0 0,-6.13 2.1675,0 0,15.06 -2.1675,0 z"
   style="fill:#000000;fill-opacity:1;fill-rule:nonzero;stroke:none"
   id="path3075" /><path
   inkscape:connector-curvature="0"
   d="m 30.260382,80.12756 0,-15.06 7.08,0 0,2.115 -4.915,0 0,3.80375 3.1175,0 0,2.06 -3.1175,0 0,4.9675 5.495,0 0,2.11375 -7.66,0 z"
   style="fill:#000000;fill-opacity:1;fill-rule:nonzero;stroke:none"
   id="path3079" /><path
   inkscape:connector-curvature="0"
   d="m 44.844132,67.18268 -2.21875,0 0,3.80375 2.21875,0 c 1.2675,0 1.95626,-0.6875 1.95626,-1.9025 0,-1.1625 -0.79376,-1.90125 -1.95626,-1.90125 m 1.84876,12.945 -2.00626,-7.08125 -2.06125,0 0,7.08125 -2.1675,0 0,-15.06 4.49125,0 c 2.37876,0 3.96251,1.585 3.96251,4.01625 0,1.79625 -0.73875,3.1175 -2.165,3.64625 l 2.165,7.3975 -2.21875,0 z"
   style="fill:#000000;fill-opacity:1;fill-rule:nonzero;stroke:none"
   id="path3083" /><path
   inkscape:connector-curvature="0"
   d="m 51.397892,80.12756 0,-15.06 7.08,0 0,2.115 -4.915,0 0,3.80375 3.1175,0 0,2.06 -3.1175,0 0,4.9675 5.49625,0 0,2.11375 -7.66125,0 z"
   style="fill:#000000;fill-opacity:1;fill-rule:nonzero;stroke:none"
   id="path3087" /><path
   inkscape:connector-curvature="0"
   d="m 61.070402,104.86269 -5.57875,0 0,3.92375 3.3175,0 0,2.1075 -3.3175,0 0,6.93125 -2.10625,0 0,-15.0675 7.685,0 0,2.105 z"
   style="fill:#000000;fill-opacity:1;fill-rule:nonzero;stroke:none"
   id="path3111" /><path
   inkscape:connector-curvature="0"
   d="m 69.666642,110.29132 c 0,-1.2875 -0.13,-2.41125 -0.39125,-3.36625 -0.3925,-1.47875 -1.0425,-2.21875 -1.95,-2.21875 -0.90625,0 -1.555,0.74 -1.94875,2.21875 -0.26125,0.955 -0.3925,2.07875 -0.3925,3.36625 0,1.2875 0.13125,2.41125 0.3925,3.3675 0.39375,1.47875 1.0425,2.21875 1.94875,2.21875 0.9075,0 1.5575,-0.74 1.95,-2.21875 0.26125,-0.95625 0.39125,-2.08 0.39125,-3.3675 m 2.10625,0 c 0,1.85 -0.21,3.3825 -0.63125,4.6 -0.725,2.06125 -1.995,3.09125 -3.81625,3.09125 -1.81875,0 -3.09125,-1.03 -3.81375,-3.09125 -0.4225,-1.2175 -0.6325,-2.75 -0.6325,-4.6 0,-5.1275 1.4825,-7.69125 4.44625,-7.69125 2.96625,0 4.4475,2.56375 4.4475,7.69125"
   style="fill:#000000;fill-opacity:1;fill-rule:nonzero;stroke:none"
   id="path3115" /><path
   inkscape:connector-curvature="0"
   d="m 81.114142,106.82631 c 0,-1.2475 -0.52,-1.9025 -1.555,-1.96375 l -2.67125,0 0,3.92375 2.67125,0 c 1.035,-0.0588 1.555,-0.7125 1.555,-1.96 m 2.105,10.99875 -2.185,0 -1.99,-6.93125 -2.15625,0 0,6.93125 -2.10625,0 0,-15.0675 4.6725,0 c 0.80375,0.0688 1.255,0.11625 1.355,0.135 0.69375,0.16125 1.235,0.4925 1.62625,0.99375 0.5225,0.67375 0.78375,1.6525 0.78375,2.94 0,1.8575 -0.69625,3.0825 -2.0925,3.67625 l 2.0925,7.3225 z"
   style="fill:#000000;fill-opacity:1;fill-rule:nonzero;stroke:none"
   id="path3119" /><path
   inkscape:connector-curvature="0"
   d="m 43.814142,26.60631 14.34875,-14.34125 20.25875,0 14.3675,14.34125 0,20.29125 -14.3675,14.3425 -20.25875,0 -14.34875,-14.3425 0,-20.29125 z"
   style="fill:#af1e2d;fill-opacity:1;fill-rule:evenodd;stroke:none"
   id="path3091" /><path
   inkscape:connector-curvature="0"
   d="m 50.591652,45.63469 c -3.0075,0 -4.81125,-2.52625 -4.81125,-5.35375 l 2.40375,0 c 0,1.4425 0.7225,2.94625 2.4075,2.94625 1.32375,0 2.4075,-1.2025 2.4075,-2.585 0,-0.96375 -0.36125,-1.685 -1.385,-2.4675 -0.36125,-0.36 0.60125,0.30125 -2.8875,-2.045 -1.38375,-0.9625 -2.105,-2.2875 -2.105,-3.79125 0,-2.465 1.92375,-4.45 4.39,-4.45 2.4075,0 4.2725,1.865 4.33375,4.45 l -2.34625,0 c -0.0612,-1.2025 -0.90375,-1.985 -1.9875,-1.985 -1.1425,0 -2.04375,0.8425 -2.04375,1.985 0,0.8425 0.36125,1.325 1.62375,2.04625 3.30875,1.925 4.75375,3.79 4.75375,6.2575 0,2.76625 -2.1075,4.9925 -4.75375,4.9925"
   style="fill:#ffffff;fill-opacity:1;fill-rule:nonzero;stroke:none"
   id="path3095" /><path
   inkscape:connector-curvature="0"
   d="m 62.502902,30.47457 0,14.86 -2.465,0 0,-14.86 -3.13,0 0,-2.28625 8.7225,0 0,2.28625 -3.1275,0 z"
   style="fill:#ffffff;fill-opacity:1;fill-rule:nonzero;stroke:none"
   id="path3099" /><path
   inkscape:connector-curvature="0"
   d="m 74.835392,32.45956 c -0.42,-1.50375 -1.085,-2.165 -2.105,-2.165 -1.08375,0 -1.745,0.66125 -2.1675,2.105 -0.42,1.32375 -0.54,2.46625 -0.54,4.3925 0,1.86375 0.18125,2.94625 0.54,4.33125 0.4225,1.4425 1.08375,2.10375 2.1675,2.10375 1.02,0 1.685,-0.66125 2.105,-2.10375 0.4225,-1.385 0.54125,-2.4075 0.54125,-4.3925 0,-1.925 -0.18,-3.0075 -0.54125,-4.27125 m 1.92375,10.22875 c -0.84,2.04375 -2.105,2.94625 -4.02875,2.94625 -2.04625,0 -3.25,-0.9025 -4.09125,-2.94625 -0.7225,-1.685 -0.9625,-3.31125 -0.9625,-5.9575 0,-2.58625 0.24,-4.33125 0.9625,-5.95625 0.9025,-2.04375 2.10375,-2.88625 4.09125,-2.88625 1.985,0 3.18875,0.8425 4.02875,2.94625 0.7225,1.685 0.96375,3.31 0.96375,5.89625 0,2.64625 -0.24125,4.33125 -0.96375,5.9575"
   style="fill:#ffffff;fill-opacity:1;fill-rule:nonzero;stroke:none"
   id="path3103" /><path
   inkscape:connector-curvature="0"
   d="m 86.144152,30.59419 -2.525,0 0,4.87375 2.525,0 c 1.445,0 2.22625,-0.9025 2.22625,-2.4675 0,-1.4425 -0.90125,-2.40625 -2.22625,-2.40625 m 0.12125,7.22 -2.64625,0 0,7.52 -2.46875,0 0,-17.14625 5.115,0 c 2.7075,0 4.5125,1.925 4.5125,4.8125 0,3.13 -1.62375,4.81375 -4.5125,4.81375"
   style="fill:#ffffff;fill-opacity:1;fill-rule:nonzero;stroke:none"
   id="path3107" /></svg>