<?xml version="1.0" encoding="UTF-8" standalone="no"?>
<!-- Generator: Adobe Illustrator 14.0.0, SVG Export Plug-In  -->

<svg
   xmlns:dc="http://purl.org/dc/elements/1.1/"
   xmlns:cc="http://creativecommons.org/ns#"
   xmlns:rdf="http://www.w3.org/1999/02/22-rdf-syntax-ns#"
   xmlns:svg="http://www.w3.org/2000/svg"
   xmlns="http://www.w3.org/2000/svg"
   xmlns:sodipodi="http://sodipodi.sourceforge.net/DTD/sodipodi-0.dtd"
   xmlns:inkscape="http://www.inkscape.org/namespaces/inkscape"
   version="1.1"
   x="0px"
   y="0px"
   width="108.95807"
   height="108.94516"
   viewBox="0 -0.321 108.95806 108.94519"
   enable-background="new 0 -0.321 144 120"
   xml:space="preserve"
   id="svg2"
   inkscape:version="0.48.2 r9819"
   sodipodi:docname="MUTCD W9-2 (temporary).svg"><metadata
   id="metadata44"><rdf:RDF><cc:Work
       rdf:about=""><dc:format>image/svg+xml</dc:format><dc:type
         rdf:resource="http://purl.org/dc/dcmitype/StillImage" /><dc:title></dc:title></cc:Work></rdf:RDF></metadata><sodipodi:namedview
   pagecolor="#ffffff"
   bordercolor="#666666"
   borderopacity="1"
   objecttolerance="10"
   gridtolerance="10"
   guidetolerance="10"
   inkscape:pageopacity="0"
   inkscape:pageshadow="2"
   inkscape:window-width="1280"
   inkscape:window-height="1004"
   id="namedview42"
   showgrid="false"
   fit-margin-top="0"
   fit-margin-left="0"
   fit-margin-right="0"
   fit-margin-bottom="0"
   inkscape:zoom="5.3605324"
   inkscape:cx="48.414459"
   inkscape:cy="47.786948"
   inkscape:window-x="-8"
   inkscape:window-y="-8"
   inkscape:window-maximized="1"
   inkscape:current-layer="svg2" />
<defs
   id="defs4">
</defs>


















<path
   inkscape:connector-curvature="0"
   d="M 51.559061,107.43356 1.2078023,57.078546 c -1.60875001,-1.60875 -1.61125001,-4.230001 -0.0025,-5.838751 L 51.559061,0.88728166 c 1.60875,-1.61 4.23125,-1.61125 5.84,-0.0025 L 107.75033,51.242295 c 1.60875,1.60875 1.61125,4.228751 0.002,5.837501 L 57.399061,107.43356 c -1.58875,1.58625 -4.25,1.58875 -5.84,0"
   style="fill:#f4911d;fill-opacity:1;fill-rule:nonzero;stroke:none"
   id="path4043" /><path
   inkscape:connector-curvature="0"
   d="M 52.360191,106.61231 2.0276833,56.278546 c -1.15750101,-1.16 -1.15500101,-3.078751 0,-4.238751 L 52.360191,1.7085317 c 1.16,-1.16000004 3.07625,-1.15750004 4.2375,0 L 106.93021,52.042295 c 1.1575,1.16 1.16,3.075001 0,4.236251 L 56.597691,106.61231 c -1.16125,1.1525 -3.0775,1.1575 -4.2375,0"
   style="fill:#000000;fill-opacity:1;fill-rule:evenodd;stroke:none"
   id="path4047" /><path
   inkscape:connector-curvature="0"
   d="M 53.482681,105.46357 3.1776733,55.157306 c -0.55875,-0.53875 -0.55625,-1.4575 0,-1.996251 L 53.480181,2.8585427 c 0.5375,-0.557501 1.4575,-0.557501 1.9975,0 L 105.7802,53.161055 c 0.55625,0.540001 0.55625,1.460001 0,1.998751 L 55.477681,105.46357 c -0.54,0.55625 -1.455,0.55625 -1.995,0"
   style="fill:#f4911d;fill-opacity:1;fill-rule:evenodd;stroke:none"
   id="path4051" /><path
   inkscape:connector-curvature="0"
   d="m 74.250321,27.031049 c 0,0.85625 -0.48375,1.34 -1.375,1.34 l -1.5625,0 0,-2.67625 1.5625,0 c 0.8175,0 1.375,0.52 1.375,1.33625 m 1.48625,7.768752 -1.52375,-5.203751 c 1.00375,-0.371251 1.52375,-1.300001 1.52375,-2.565001 0,-1.708751 -1.11625,-2.822501 -2.78875,-2.822501 l -3.15875,0 0,10.591253 1.52375,0 0,-4.980001 1.45,0 1.41375,4.980001 1.56,0 z m -7.7325,0 0,-1.486251 -3.86125,0 0,-3.49375 2.19125,0 0,-1.448751 -2.19125,0 0,-2.67625 3.45625,0 0,-1.486251 -4.98,0 0,10.591253 5.385,0 z m -6.835,-9.180002 0,-1.411251 -5.38876,0 0,1.411251 1.93126,0 0,9.180002 1.52375,0 0,-9.180002 1.93375,0 z m -6.83876,9.180002 0,-10.591253 -1.52375,0 0,6.353752 -2.9,-6.353752 -1.52375,0 0,10.591253 1.52375,0 0,-7.097502 3.27125,7.097502 1.1525,0 z m -7.73,0 0,-1.486251 -3.86625,0 0,-3.49375 2.19375,0 0,-1.448751 -2.19375,0 0,-2.67625 3.45625,0 0,-1.486251 -4.98,0 0,10.591253 5.39,0 z m -7.47,-7.768752 c -0.11,-0.965 -0.26125,-1.41125 -0.66875,-1.932501 -0.48375,-0.705 -1.22625,-1.0775 -2.0825,-1.0775 -2.08,0 -3.1575,1.821251 -3.1575,5.241251 0,3.901251 1.00375,5.730002 3.26875,5.730002 1.4875,0 2.60375,-1.27 2.64,-3.018751 l -1.52375,0 c 0,0.78125 -0.2225,1.525001 -1.11625,1.525001 -1.30125,0 -1.81875,-1.226251 -1.81875,-4.273752 0,-2.75 0.445,-3.71625 1.67,-3.71625 0.70875,0 1.11625,0.4825 1.265,1.5225 l 1.52375,0 z"
   style="fill:#000000;fill-opacity:1;fill-rule:evenodd;stroke:none"
   id="path4055" /><path
   inkscape:connector-curvature="0"
   d="m 68.415191,51.324795 0,-1.48625 -3.8675,0 0,-3.492501 2.195,0 0,-1.451251 -2.195,0 0,-2.67375 3.45625,0 0,-1.487501 -4.98,0 0,10.591253 5.39125,0 z m -7.65625,0 0,-10.591253 -1.52375,0 0,6.355002 -2.89876,-6.355002 -1.5225,0 0,10.591253 1.5225,0 0,-7.097502 3.27001,7.097502 1.1525,0 z m -10.03501,-4.385001 -1.52375,0 0.7425,-3.047501 0.78125,3.047501 z m 2.64,4.385001 -2.64,-10.591253 -1.48625,0 -2.64,10.591253 1.52375,0 0.70875,-2.898751 2.265,0 0.745,2.898751 1.52375,0 z m -7.3975,0 0,-1.4125 -3.865,0 0,-9.178753 -1.52375,0 0,10.591253 5.38875,0 z"
   style="fill:#000000;fill-opacity:1;fill-rule:evenodd;stroke:none"
   id="path4059" /><path
   inkscape:connector-curvature="0"
   d="m 74.620321,62.592298 c 0,0.8175 -0.0725,1.56 -0.14875,2.23 -0.14625,0.816251 -0.63,1.523751 -1.52375,1.523751 l -1.26125,0 0,-7.618752 1.26125,0 c 0.6725,0 1.11625,0.3325 1.3775,1.0775 0.18375,0.44625 0.295,1.597501 0.295,2.787501 m 1.49,-0.075 c 0,-0.81625 -0.1125,-1.746251 -0.26125,-2.526251 -0.18625,-1.07875 -0.6325,-1.89625 -1.265,-2.3425 -0.37125,-0.297501 -0.8175,-0.408751 -1.70875,-0.408751 l -2.7125,0 0,10.592503 2.935,0 c 0.595,0 1.115,-0.15 1.48625,-0.48375 1.0425,-0.8175 1.52625,-2.378751 1.52625,-4.831251 m -7.7325,5.315001 0,-1.48625 -3.865,0 0,-3.493751 2.1925,0 0,-1.45 -2.1925,0 0,-2.675001 3.455,0 0,-1.487501 -4.9775,0 0,10.592503 5.3875,0 z m -7.1725,-2.898751 c 0,-1.52375 -0.89125,-2.67625 -2.935,-3.866251 -0.78375,-0.44625 -1.00501,-0.7425 -1.00501,-1.2625 0,-0.70625 0.55876,-1.22625 1.26376,-1.22625 0.66875,0 1.19,0.48125 1.22625,1.22625 l 1.45,0 c -0.0362,-1.5975 -1.18875,-2.751251 -2.67625,-2.751251 -1.52251,0 -2.71251,1.227501 -2.71251,2.751251 0,0.92875 0.4475,1.746251 1.30125,2.340001 2.15376,1.45 1.56001,1.0425 1.78251,1.265 0.6325,0.48375 0.855,0.92875 0.855,1.52375 0,0.853751 -0.66625,1.597501 -1.485,1.597501 -1.04251,0 -1.48876,-0.92875 -1.48876,-1.820001 l -1.485,0 c 0,1.745001 1.11375,3.312501 2.97376,3.312501 1.63375,0 2.935,-1.38125 2.935,-3.090001 m -8.95501,-2.41625 c 0,1.2275 -0.0763,1.8575 -0.3375,2.71375 -0.25875,0.891251 -0.66875,1.300001 -1.29875,1.300001 -0.67125,0 -1.07625,-0.40875 -1.3375,-1.300001 -0.2225,-0.85625 -0.335,-1.52375 -0.335,-2.6775 0,-1.188751 0.0737,-1.895001 0.335,-2.712501 0.26125,-0.89125 0.66625,-1.30125 1.3375,-1.30125 0.63,0 1.04,0.41 1.29875,1.34 0.225,0.77875 0.3375,1.44875 0.3375,2.637501 m 1.4475,0 c 0,-1.597501 -0.14625,-2.601251 -0.59375,-3.641251 -0.52,-1.30125 -1.26375,-1.822501 -2.49,-1.822501 -1.2275,0 -1.97,0.521251 -2.52625,1.785001 -0.4475,1.0025 -0.59625,2.08125 -0.59625,3.678751 0,1.635 0.14875,2.6375 0.59625,3.680001 0.52,1.2625 1.2625,1.82625 2.52625,1.82625 1.18875,0 1.97,-0.56375 2.49,-1.82625 0.4475,-1.005001 0.59375,-2.045001 0.59375,-3.680001 m -7.46875,5.315001 0,-1.4125 -3.86625,0 0,-9.180003 -1.52375,0 0,10.592503 5.39,0 z m -7.47,-7.768752 c -0.1125,-0.965 -0.26125,-1.4125 -0.66875,-1.9325 -0.48375,-0.705 -1.22875,-1.077501 -2.0825,-1.077501 -2.08,0 -3.16,1.822501 -3.16,5.241252 0,3.902501 1.00375,5.728751 3.2725,5.728751 1.48625,0 2.6,-1.26875 2.63875,-3.016251 l -1.52375,0 c 0,0.780001 -0.2225,1.523751 -1.115,1.523751 -1.30125,0 -1.82125,-1.225001 -1.82125,-4.273751 0,-2.750001 0.44625,-3.717501 1.67125,-3.717501 0.70625,0 1.11625,0.48375 1.265,1.52375 l 1.52375,0 z"
   style="fill:#000000;fill-opacity:1;fill-rule:evenodd;stroke:none"
   id="path4063" /><path
   inkscape:connector-curvature="0"
   d="m 71.444071,79.173562 c 0,0.81875 -0.0725,1.56 -0.14625,2.230001 -0.14875,0.8175 -0.6325,1.52375 -1.52375,1.52375 l -1.26375,0 0,-7.618752 1.26375,0 c 0.67,0 1.11375,0.33375 1.375,1.07875 0.185,0.445 0.295,1.597501 0.295,2.786251 m 1.49,-0.07375 c 0,-0.8175 -0.1125,-1.747501 -0.26125,-2.527501 -0.18625,-1.0775 -0.6325,-1.895 -1.265,-2.3425 -0.37125,-0.29625 -0.8175,-0.4075 -1.70875,-0.4075 l -2.7125,0 0,10.592502 2.935,0 c 0.595,0 1.115,-0.15 1.48625,-0.48375 1.0425,-0.8175 1.52625,-2.37875 1.52625,-4.831251 m -10.035,0.92875 -1.525,0 0.74125,-3.047501 0.78375,3.047501 z m 2.6375,4.386251 -2.6375,-10.592502 -1.48875,0 -2.63625,10.592502 1.5225,0 0.70625,-2.9 2.2675,0 0.7425,2.9 1.52375,0 z m -7.73,0 0,-1.4875 -3.86501,0 0,-3.493751 2.1925,0 0,-1.44875 -2.1925,0 0,-2.676251 3.455,0 0,-1.48625 -4.9775,0 0,10.592502 5.38751,0 z m -7.65376,0 0,-10.592502 -1.52625,0 0,4.310001 -2.8975,0 0,-4.310001 -1.52375,0 0,10.592502 1.52375,0 0,-4.795001 2.8975,0 0,4.795001 1.52625,0 z m -10.03625,-4.386251 -1.52375,0 0.7425,-3.047501 0.78125,3.047501 z m 2.63875,4.386251 -2.63875,-10.592502 -1.4875,0 -2.63875,10.592502 1.52375,0 0.7075,-2.9 2.26625,0 0.74375,2.9 1.52375,0 z"
   style="fill:#000000;fill-opacity:1;fill-rule:evenodd;stroke:none"
   id="path4067" /></svg>