<?xml version="1.0" encoding="UTF-8" standalone="no"?>
<!-- Created with Inkscape (http://www.inkscape.org/) -->

<svg
   xmlns:dc="http://purl.org/dc/elements/1.1/"
   xmlns:cc="http://creativecommons.org/ns#"
   xmlns:rdf="http://www.w3.org/1999/02/22-rdf-syntax-ns#"
   xmlns:svg="http://www.w3.org/2000/svg"
   xmlns="http://www.w3.org/2000/svg"
   xmlns:sodipodi="http://sodipodi.sourceforge.net/DTD/sodipodi-0.dtd"
   xmlns:inkscape="http://www.inkscape.org/namespaces/inkscape"
   width="2942.5247"
   height="2942.5244"
   id="svg2934"
   version="1.1"
   inkscape:version="0.48.2 r9819"
   sodipodi:docname="AJAX1.svg">
  <defs
     id="defs2936">
    <inkscape:perspective
       sodipodi:type="inkscape:persp3d"
       inkscape:vp_x="0 : 526.18109 : 1"
       inkscape:vp_y="0 : 1000 : 0"
       inkscape:vp_z="744.09448 : 526.18109 : 1"
       inkscape:persp3d-origin="372.04724 : 350.78739 : 1"
       id="perspective2942" />
    <inkscape:perspective
       id="perspective2924"
       inkscape:persp3d-origin="0.5 : 0.33333333 : 1"
       inkscape:vp_z="1 : 0.5 : 1"
       inkscape:vp_y="0 : 1000 : 0"
       inkscape:vp_x="0 : 0.5 : 1"
       sodipodi:type="inkscape:persp3d" />
  </defs>
  <sodipodi:namedview
     id="base"
     pagecolor="#ffffff"
     bordercolor="#666666"
     borderopacity="1.0"
     inkscape:pageopacity="0.0"
     inkscape:pageshadow="2"
     inkscape:zoom="0.15503753"
     inkscape:cx="1152.6784"
     inkscape:cy="1492.9791"
     inkscape:document-units="px"
     inkscape:current-layer="g3018"
     showgrid="false"
     inkscape:window-width="1280"
     inkscape:window-height="1004"
     inkscape:window-x="-8"
     inkscape:window-y="-8"
     inkscape:window-maximized="1"
     fit-margin-top="0"
     fit-margin-left="0"
     fit-margin-right="0"
     fit-margin-bottom="0" />
  <metadata
     id="metadata2939">
    <rdf:RDF>
      <cc:Work
         rdf:about="">
        <dc:format>image/svg+xml</dc:format>
        <dc:type
           rdf:resource="http://purl.org/dc/dcmitype/StillImage" />
        <dc:title></dc:title>
      </cc:Work>
    </rdf:RDF>
  </metadata>
  <g
     inkscape:label="Ebene 1"
     inkscape:groupmode="layer"
     id="layer1"
     transform="translate(-51.303907,2359.0346)">
    <g
       id="g3018"
       transform="translate(2,-2)">
      <path
         inkscape:connector-curvature="0"
         style="fill:#f4911d;fill-opacity:1;fill-rule:nonzero;stroke:none"
         d="m 2952.4536,-981.23518 c 52.5,52.5 52.5,138.425 0,190.925 l -1336.425,1336.425 c -52.5125,52.5 -138.425,52.5 -190.925,0 L 88.679844,-790.31018 c -52.50125,-52.5 -52.50125,-138.425 0,-190.925 L 1425.1036,-2317.6578 c 52.5,-52.5024 138.4125,-52.5024 190.925,0 l 1336.425,1336.42262 z"
         id="path11" />
      <path
         inkscape:connector-curvature="0"
         style="fill:#000000;fill-rule:nonzero;stroke:none"
         d="M 1448.9671,-2293.793 112.54453,-957.3705 c -39.376248,39.3875 -39.377373,103.8125 0,143.2 L 1448.9671,522.2545 c 39.3875,39.375 103.8125,39.375 143.1875,0 l 1336.4375,-1336.425 c 39.375,-39.3875 39.375,-103.8125 0,-143.2 L 1592.1546,-2293.793 c -39.375,-39.3775 -103.8125,-39.3763 -143.1875,0 z m 1439.85,1376.1975 c 17.5,17.5 17.5,46.15 0,63.65 l -1336.425,1336.425 c -17.5,17.5 -46.15,17.5 -63.65,0 L 152.31879,-853.9455 c -17.50126,-17.5 -17.50001,-46.15 0,-63.65 L 1488.7421,-2254.0189 c 17.5,-17.5011 46.15,-17.5011 63.65,0 l 1336.425,1336.4234 z"
         id="path13" />
      <path
         inkscape:connector-curvature="0"
         style="fill:#000000;fill-rule:nonzero;stroke:none"
         d="m 1189.1469,-1417.9632 -296.10499,368.2088 -97.2925,-147.3213 c -3.16375,-4.8487 -7.1325,-9.2887 -11.89,-13.1137 -24.20875,-19.4688 -59.615,-15.6263 -79.085,8.5837 -7.71125,9.5875 -11.765,20.9313 -12.34375,32.3475 l -49.35875,654.7413 628.90369,-188.6875 c 11.025,-3.0125 21.2375,-9.4 28.9463,-18.9875 19.475,-24.2125 15.625,-59.625 -8.5838,-79.0875 -4.7575,-3.825 -9.945,-6.75 -15.3587,-8.8 l -164.7663,-63.425 296.1088,-368.2063 -219.175,-176.2525 z"
         id="path15" />
      <path
         inkscape:connector-curvature="0"
         style="fill:#000000;fill-rule:nonzero;stroke:none"
         d="m 1851.9969,-1417.9632 296.1,368.2088 97.3,-147.3213 c 3.1625,-4.8487 7.125,-9.2887 11.8875,-13.1137 24.2125,-19.4688 59.6125,-15.6263 79.0875,8.5837 7.7125,9.5875 11.7625,20.9313 12.3375,32.3475 l 49.3625,654.7413 -628.9,-188.6875 c -11.025,-3.0125 -21.2375,-9.4 -28.95,-18.9875 -19.475,-24.2125 -15.625,-59.625 8.5875,-79.0875 4.75,-3.825 9.9375,-6.75 15.3625,-8.8 l 164.7625,-63.425 -296.1125,-368.2063 219.175,-176.2525 z"
         id="path17" />
    </g>
  </g>
</svg>
