<?xml version="1.0" encoding="UTF-8" standalone="no"?>
<!-- Created with Inkscape (http://www.inkscape.org/) -->

<svg
   xmlns:dc="http://purl.org/dc/elements/1.1/"
   xmlns:cc="http://creativecommons.org/ns#"
   xmlns:rdf="http://www.w3.org/1999/02/22-rdf-syntax-ns#"
   xmlns:svg="http://www.w3.org/2000/svg"
   xmlns="http://www.w3.org/2000/svg"
   xmlns:sodipodi="http://sodipodi.sourceforge.net/DTD/sodipodi-0.dtd"
   xmlns:inkscape="http://www.inkscape.org/namespaces/inkscape"
   width="1226.296"
   height="1226.296"
   id="svg2"
   sodipodi:version="0.32"
   inkscape:version="0.48.2 r9819"
   version="1.0"
   sodipodi:docname="AJAX1.svg">
  <defs
     id="defs4" />
  <sodipodi:namedview
     id="base"
     pagecolor="#ffffff"
     bordercolor="#666666"
     borderopacity="1.0"
     gridtolerance="10000"
     guidetolerance="10"
     objecttolerance="10"
     inkscape:pageopacity="0.0"
     inkscape:pageshadow="2"
     inkscape:zoom="0.62953805"
     inkscape:cx="365.34726"
     inkscape:cy="613.14814"
     inkscape:document-units="px"
     inkscape:current-layer="layer1"
     width="1226.296px"
     height="1226.296px"
     inkscape:window-width="1280"
     inkscape:window-height="968"
     inkscape:window-x="-4"
     inkscape:window-y="-4"
     showgrid="false"
     inkscape:window-maximized="0" />
  <metadata
     id="metadata7">
    <rdf:RDF>
      <cc:Work
         rdf:about="">
        <dc:format>image/svg+xml</dc:format>
        <dc:type
           rdf:resource="http://purl.org/dc/dcmitype/StillImage" />
      </cc:Work>
    </rdf:RDF>
  </metadata>
  <g
     inkscape:label="Layer 1"
     inkscape:groupmode="layer"
     id="layer1">
    <path
       transform="matrix(0.707107,-0.707107,0.707107,0.707107,0,0)"
       style="color:black;fill:#f4911d;fill-opacity:1;fill-rule:nonzero;stroke:none;stroke-width:0.87354410000000005;stroke-linecap:butt;stroke-linejoin:miter;stroke-miterlimit:4;stroke-dashoffset:0;stroke-opacity:1;marker:none;marker-start:none;marker-mid:none;marker-end:none;visibility:visible;display:inline;overflow:visible"
       d="M -393.75019,417.12207 L 393.75007,417.12207 C 424.91258,417.12207 450.00009,442.20958 450.00009,473.37209 L 450.00009,1260.8724 C 450.00009,1292.0349 424.91258,1317.1224 393.75007,1317.1224 L -393.75019,1317.1224 C -424.91271,1317.1224 -450.00021,1292.0349 -450.00021,1260.8724 L -450.00021,473.37209 C -450.00021,442.20958 -424.91271,417.12207 -393.75019,417.12207 z "
       id="rect1872" />
    <path
       transform="matrix(0.707107,-0.707107,0.707107,0.707107,0,0)"
       style="color:black;fill:#000000;fill-opacity:1;fill-rule:nonzero;stroke:none;stroke-width:0.87354410000000005;stroke-linecap:butt;stroke-linejoin:miter;stroke-miterlimit:4;stroke-dashoffset:0;stroke-opacity:1;marker:none;marker-start:none;marker-mid:none;marker-end:none;visibility:visible;display:inline;overflow:visible"
       d="M -393.7502,432.74707 L 393.75002,432.74707 C 416.25628,432.74707 434.37503,450.86583 434.37503,473.37208 L 434.37503,1260.8723 C 434.37503,1283.3786 416.25628,1301.4973 393.75002,1301.4973 L -393.7502,1301.4973 C -416.25646,1301.4973 -434.37521,1283.3786 -434.37521,1260.8723 L -434.37521,473.37208 C -434.37521,450.86583 -416.25646,432.74707 -393.7502,432.74707 z "
       id="rect2760" />
    <path
       transform="matrix(0.707107,-0.707107,0.707107,0.707107,0,0)"
       style="color:black;fill:#f4911d;fill-opacity:1;fill-rule:nonzero;stroke:none;stroke-width:0.87354410000000005;stroke-linecap:butt;stroke-linejoin:miter;stroke-miterlimit:4;stroke-dashoffset:0;stroke-opacity:1;marker:none;marker-start:none;marker-mid:none;marker-end:none;visibility:visible;display:inline;overflow:visible"
       d="M -393.75018,454.62207 L 393.75006,454.62207 C 404.13756,454.62207 412.50006,462.98457 412.50006,473.37208 L 412.50006,1260.8723 C 412.50006,1271.2598 404.13756,1279.6223 393.75006,1279.6223 L -393.75018,1279.6223 C -404.13768,1279.6223 -412.50018,1271.2598 -412.50018,1260.8723 L -412.50018,473.37208 C -412.50018,462.98457 -404.13768,454.62207 -393.75018,454.62207 z "
       id="rect2762" />
    <path
       transform="scale(1.015136,0.98509)"
       style="font-size:189.38684082000000000px;font-style:normal;font-variant:normal;font-weight:normal;font-stretch:normal;text-align:center;line-height:125%;writing-mode:lr-tb;text-anchor:middle;font-family:Roadgeek 2005 Series D;stroke:none;fill:#000000"
       d="M 462.33423,451.12448 L 441.88013,395.825 L 417.8311,395.825 L 417.8311,451.12448 L 397.75267,451.12448 L 397.75267,324.23275 L 439.60873,324.23275 C 444.53292,324.23288 448.76264,324.51705 452.29791,325.08525 C 455.83304,325.65371 459.17848,326.69693 462.33423,328.21492 C 465.11222,329.60215 467.66971,331.40058 470.00669,333.6102 C 472.34349,335.82006 474.36347,338.34479 476.06663,341.1844 C 477.76959,344.02423 479.09505,347.05468 480.04301,350.27576 C 480.99077,353.49703 481.4647,356.68546 481.4648,359.84104 C 481.4647,363.25111 480.99077,366.56572 480.04301,369.78489 C 479.09505,373.00422 477.76959,376.03371 476.06663,378.87336 C 474.36347,381.71315 472.28088,384.26967 469.81885,386.54292 C 467.35664,388.8163 464.67297,390.58487 461.76783,391.84862 L 484.11765,451.12448 L 462.33423,451.12448 z M 461.38637,359.84104 C 461.38629,357.19021 460.69274,354.66548 459.30571,352.26684 C 457.91852,349.86839 455.96115,347.97364 453.4336,346.58258 C 451.79212,345.70032 450.2769,345.10117 448.88793,344.78511 C 447.49882,344.46926 445.16289,344.31129 441.88013,344.31118 L 417.8311,344.31118 L 417.8311,375.3709 L 441.88013,375.3709 C 445.0396,375.37098 447.3447,375.24479 448.79545,374.99234 C 450.24607,374.74003 451.79212,374.17074 453.4336,373.28446 C 455.96115,371.89742 457.91852,369.97281 459.30571,367.51061 C 460.69274,365.04857 461.38629,362.49205 461.38637,359.84104 L 461.38637,359.84104 z M 592.69951,387.86646 C 592.69941,397.9693 591.50014,407.62897 589.10169,416.84551 C 586.70305,426.06211 583.29404,433.51205 578.87464,439.19533 C 571.80415,448.66236 561.57807,453.39587 548.19638,453.39587 C 539.2302,453.39587 531.84384,451.56566 526.03729,447.90523 C 520.23066,444.2448 515.43357,438.49986 511.64601,430.67038 C 508.99507,425.24141 506.84891,418.64493 505.20751,410.88093 C 503.56608,403.11701 502.74537,395.44553 502.74539,387.86646 C 502.74537,377.38999 503.97643,367.66963 506.43857,358.70534 C 508.90067,349.74124 512.2779,342.2287 516.57026,336.16769 C 520.35781,331.37071 524.87169,327.80372 530.11192,325.46671 C 535.35207,323.12994 541.6326,321.96149 548.95351,321.96136 C 557.03336,321.96149 563.914,323.79267 569.59545,327.4549 C 575.27674,331.11737 580.13837,336.86136 584.18034,344.68686 C 586.83117,350.37026 588.91376,356.99948 590.42812,364.57456 C 591.94228,372.1498 592.69941,379.91376 592.69951,387.86646 L 592.69951,387.86646 z M 572.62687,387.86646 C 572.62678,380.67282 571.99584,374.01373 570.73404,367.88917 C 569.47207,361.76478 567.57732,356.55638 565.04977,352.26395 C 563.03068,348.98122 560.7275,346.58268 558.14023,345.06831 C 555.55282,343.55416 552.36536,342.66988 548.57783,342.41546 C 543.65354,342.16512 539.55001,343.30178 536.26723,345.82544 C 532.98436,348.34932 530.26986,352.45285 528.12373,358.13605 C 526.48228,361.92372 525.25122,366.50022 524.43055,371.86556 C 523.60981,377.23105 523.19946,382.56468 523.19949,387.86646 C 523.19946,394.68647 523.8304,401.25309 525.09232,407.56632 C 526.35417,413.87963 528.24699,419.05529 530.7708,423.09329 C 532.79363,426.37614 535.19314,428.83826 537.96933,430.47965 C 540.74543,432.12108 544.15444,432.94179 548.19638,432.94177 C 552.86626,432.94179 556.74824,431.67991 559.84233,429.15612 C 562.93628,426.63237 565.55638,422.52884 567.70262,416.84551 C 568.33445,415.20413 568.96636,413.21594 569.59834,410.88093 C 570.23017,408.54601 570.76671,406.08389 571.20797,403.49457 C 571.64906,400.90535 571.99584,398.28525 572.2483,395.63428 C 572.50059,392.98341 572.62678,390.39414 572.62687,387.86646 L 572.62687,387.86646 z M 695.61157,451.12448 L 683.11023,415.52197 L 643.53134,415.52197 L 631.03001,451.12448 L 609.62804,451.12448 L 653.37983,324.23275 L 673.26175,324.23275 L 717.01353,451.12448 L 695.61157,451.12448 z M 663.60399,359.45959 L 650.53625,395.06787 L 675.91459,395.06787 L 663.60399,359.45959 z M 822.57266,387.49078 C 822.57256,400.24454 820.64699,411.45027 816.79593,421.10798 C 812.94468,430.76576 807.42032,438.37271 800.22284,443.92884 C 797.8223,446.20217 795.01244,447.9062 791.79326,449.04093 C 788.57394,450.17566 785.3229,450.87018 782.04014,451.12448 L 774.8445,451.12448 L 736.20769,451.12448 L 736.20769,324.23275 L 777.11589,324.23275 C 780.27536,324.23288 783.02261,324.32825 785.35764,324.51885 C 787.69254,324.7097 789.80692,325.05744 791.70078,325.56207 C 793.5945,326.06695 795.29853,326.76147 796.81286,327.64562 C 798.32705,328.53003 799.96846,329.60215 801.73711,330.86199 C 808.42983,336.67255 813.57562,344.40665 817.17449,354.0643 C 820.77317,363.72215 822.57256,374.8643 822.57266,387.49078 L 822.57266,387.49078 z M 802.11856,387.49078 C 802.11848,378.90618 801.20241,371.26744 799.37035,364.57456 C 797.53813,357.88184 795.04422,352.89403 791.88862,349.6111 C 790.24714,348.09694 788.35335,346.83506 786.20725,345.82544 C 784.06102,344.81604 781.66247,344.31129 779.01161,344.31118 L 756.28611,344.31118 L 756.28611,430.67038 L 776.35876,430.67038 C 779.64153,430.6704 782.38781,430.29183 784.59762,429.53468 C 786.8073,428.77757 788.79645,427.51473 790.56509,425.74614 C 794.3526,421.95858 797.22507,416.75018 799.18251,410.12091 C 801.1398,403.49173 802.11848,395.94836 802.11856,387.49078 L 802.11856,387.49078 z "
       id="text1889" />
    <path
       transform="scale(1.010197,0.989906)"
       style="font-size:188.46540833000000000px;font-style:normal;font-variant:normal;font-weight:normal;font-stretch:normal;text-align:center;line-height:125%;writing-mode:lr-tb;text-anchor:middle;font-family:Roadgeek 2005 Series D;stroke:none;fill:#000000"
       d="M 388.18012,637.96778 C 380.64172,656.56049 367.95199,665.85684 350.11089,665.85684 C 340.68603,665.85684 332.89562,664.03553 326.73963,660.39291 C 320.58357,656.75029 315.49445,651.0333 311.47226,643.24191 C 308.58498,637.58629 306.32464,630.98931 304.69123,623.45097 C 303.05779,615.91271 302.24107,608.18653 302.24109,600.2724 C 302.24107,590.22267 303.49682,580.61095 306.00832,571.43721 C 308.5198,562.26366 311.97453,554.85093 316.37254,549.19901 C 320.14167,544.54807 324.69686,541.02911 330.03812,538.64211 C 335.37931,536.25536 341.62928,535.06193 348.78804,535.0618 C 358.33931,535.06193 366.22462,537.13534 372.44399,541.28206 C 378.6632,545.42901 383.90857,551.96176 388.18012,560.88032 L 369.52223,568.80014 C 367.76219,566.16222 366.15943,563.96323 364.71396,562.20317 C 363.26835,560.44331 361.76049,559.06103 360.1904,558.05633 C 358.62017,557.05184 356.92444,556.3607 355.10319,555.98291 C 353.28182,555.60534 351.17677,555.41649 348.78804,555.41639 C 343.63847,555.41649 339.33635,556.60993 335.88166,558.9967 C 332.42687,561.38368 329.63164,565.40494 327.49596,571.06049 C 325.86249,574.82973 324.63742,579.29002 323.82074,584.44137 C 323.004,589.59288 322.59564,594.86988 322.59567,600.2724 C 322.59564,607.18193 323.28678,613.80958 324.66909,620.15536 C 326.05133,626.50123 327.99822,631.68333 330.50975,635.70168 C 332.77196,638.96856 335.41095,641.4187 338.4267,643.05211 C 341.44235,644.68556 345.14728,645.50227 349.54149,645.50225 C 353.81671,645.50227 357.52451,644.34047 360.6649,642.01684 C 363.80515,639.69325 366.63106,635.95478 369.14263,630.8014 L 388.18012,637.96778 L 388.18012,637.96778 z M 415.67233,663.5965 L 415.67233,537.32214 L 435.65307,537.32214 L 435.65307,644.93861 L 494.07688,644.93861 L 494.07688,663.5965 L 415.67233,663.5965 z M 599.73207,600.64624 C 599.73197,610.69993 598.53853,620.31261 596.15176,629.4843 C 593.76479,638.65607 590.37236,646.06975 585.97447,651.72538 C 578.93837,661.14636 568.76205,665.85684 555.44546,665.85684 C 546.52291,665.85684 539.17249,664.03553 533.39418,660.39291 C 527.6158,656.75029 522.84206,651.0333 519.07293,643.24191 C 516.43488,637.83935 514.29916,631.27497 512.66575,623.54875 C 511.03231,615.8226 510.21559,608.18844 510.2156,600.64624 C 510.21559,590.22075 511.44066,580.54768 513.89082,571.62701 C 516.34094,562.70652 519.70174,555.23053 523.97321,549.19901 C 527.74234,544.42537 532.23426,540.87574 537.44899,538.55009 C 542.66365,536.22469 548.91362,535.06193 556.19891,535.0618 C 564.23945,535.06193 571.08661,536.8842 576.74042,540.52861 C 582.39407,544.17327 587.23204,549.8893 591.25435,557.67673 C 593.89228,563.33248 595.96474,569.92945 597.47173,577.46767 C 598.97852,585.00606 599.73197,592.73224 599.73207,600.64624 L 599.73207,600.64624 z M 579.75709,600.64624 C 579.757,593.4876 579.12913,586.86091 577.87347,580.76616 C 576.61764,574.67156 574.73211,569.4885 572.21686,565.21696 C 570.20759,561.9502 567.91562,559.56333 565.34093,558.05633 C 562.76611,556.54954 559.59415,555.66956 555.82506,555.41639 C 550.92472,555.16726 546.84116,556.29839 543.57435,558.80978 C 540.30745,561.32137 537.60616,565.40494 535.47048,571.06049 C 533.83701,574.82973 532.61194,579.38396 531.79526,584.72319 C 530.97851,590.06258 530.57016,595.37026 530.57019,600.64624 C 530.57016,607.43308 531.19803,613.96774 532.45381,620.25026 C 533.70952,626.53286 535.59314,631.68333 538.10467,635.70168 C 540.11765,638.96856 542.50548,641.4187 545.26817,643.05211 C 548.03076,644.68556 551.42319,645.50227 555.44546,645.50225 C 560.09262,645.50227 563.95571,644.24653 567.03475,641.73502 C 570.11365,639.22355 572.721,635.13998 574.8568,629.4843 C 575.48555,627.85091 576.11439,625.87239 576.7433,623.54875 C 577.37205,621.22518 577.90598,618.77504 578.34509,616.19832 C 578.78404,613.6217 579.12913,611.01435 579.38036,608.37627 C 579.63143,605.7383 579.757,603.16163 579.75709,600.64624 L 579.75709,600.64624 z M 704.78335,627.22396 C 704.78326,633.00234 703.71444,638.34165 701.57689,643.24191 C 699.43916,648.14221 696.36115,652.41366 692.34284,656.05627 C 688.82284,659.1966 684.70764,661.6151 679.99723,663.3118 C 675.28668,665.00849 670.23015,665.85684 664.82763,665.85684 C 653.89589,665.85684 644.56599,662.93603 636.83792,657.09442 C 629.10979,651.25281 623.11002,643.495 618.83857,633.82094 L 637.87606,626.84436 C 640.51406,632.87581 644.15764,637.4933 648.8068,640.69687 C 653.4559,643.90048 658.79617,645.50227 664.82763,645.50225 C 670.73245,645.50227 675.47552,643.71164 679.05686,640.13034 C 682.63806,636.5491 684.4287,632.12044 684.42877,626.84436 C 684.4287,622.69948 683.3292,619.30801 681.13028,616.66994 C 678.93122,614.03197 676.07272,611.80134 672.55478,609.97806 C 669.03672,608.15489 665.17267,606.55214 660.96262,605.1698 C 656.75247,603.78759 652.57496,602.27973 648.43008,600.64624 C 646.54355,599.89478 644.21899,598.82787 641.45638,597.44553 C 638.69371,596.06332 636.02405,594.14711 633.4474,591.6969 C 630.87071,589.24683 628.67172,586.19949 626.85042,582.55488 C 625.0291,578.91042 624.11845,574.45013 624.11846,569.17399 C 624.11845,563.01998 625.12304,557.77557 627.13225,553.44074 C 629.14142,549.10614 631.87435,545.58814 635.33102,542.88673 C 638.78765,540.18556 642.93448,538.20608 647.77153,536.94829 C 652.60851,535.69076 657.85292,535.06193 663.50478,535.0618 C 672.42723,535.06193 679.87255,537.38649 685.84076,542.0355 C 691.80883,546.68476 696.36306,552.96635 699.50347,560.88032 L 681.78883,566.1602 C 680.78416,564.15111 679.46515,562.3298 677.83179,560.69627 C 676.44753,559.31218 674.53036,558.05452 672.08028,556.92328 C 669.63008,555.79226 666.64697,555.16535 663.13093,555.04254 C 660.86863,554.91611 658.51243,555.07236 656.06233,555.51129 C 653.61215,555.95043 651.44479,556.73551 649.56025,557.86653 C 647.67564,558.99776 646.16779,560.53725 645.03669,562.48499 C 643.90553,564.43293 643.4665,566.8524 643.7196,569.74339 C 643.9688,573.63534 645.66453,576.61845 648.8068,578.69274 C 651.94901,580.7672 655.78142,582.55783 660.30407,584.06465 C 664.82662,585.57162 669.69527,587.11015 674.91002,588.68023 C 680.12466,590.25047 684.93004,592.51177 689.32618,595.46413 C 693.72216,598.41664 697.39737,602.37463 700.35182,607.33812 C 703.30608,612.30173 704.78326,618.93033 704.78335,627.22396 L 704.78335,627.22396 z M 725.97769,663.5965 L 725.97769,537.32214 L 800.42521,537.32214 L 800.42521,557.30288 L 745.95843,557.30288 L 745.95843,588.21148 L 782.71057,588.21148 L 782.71057,608.56607 L 745.95843,608.56607 L 745.95843,643.24191 L 804.38225,643.24191 L 804.38225,663.5965 L 725.97769,663.5965 z M 911.67663,600.2724 C 911.67652,612.96411 909.76032,624.11531 905.92799,633.72604 C 902.09548,643.33683 896.598,650.90677 889.43555,656.43587 C 887.04668,658.69813 884.25049,660.39387 881.04697,661.52308 C 877.84331,662.65229 874.60809,663.34343 871.3413,663.5965 L 864.18067,663.5965 L 825.73184,663.5965 L 825.73184,537.32214 L 866.44102,537.32214 C 869.58512,537.32227 872.319,537.41717 874.64267,537.60684 C 876.96621,537.79677 879.0703,538.14282 880.95495,538.64499 C 882.83945,539.14741 884.53519,539.83855 886.04216,540.71841 C 887.54897,541.59851 889.1824,542.66541 890.94244,543.91912 C 897.6026,549.70142 902.72335,557.39789 906.30472,567.00855 C 909.88589,576.61941 911.67652,587.70734 911.67663,600.2724 L 911.67663,600.2724 z M 891.32204,600.2724 C 891.32196,591.72956 890.41035,584.12799 888.5872,577.46767 C 886.76389,570.80751 884.28212,565.84397 881.14187,562.57701 C 879.50837,561.07022 877.6238,559.81448 875.48814,558.80978 C 873.35235,557.80528 870.96548,557.30299 868.32751,557.30288 L 845.71258,557.30288 L 845.71258,643.24191 L 865.68757,643.24191 C 868.95437,643.24193 871.68729,642.86521 873.88634,642.11174 C 876.08527,641.35831 878.06475,640.10161 879.82478,638.34163 C 883.59386,634.5725 886.45235,629.38944 888.40027,622.79242 C 890.34804,616.19549 891.32196,608.68882 891.32204,600.2724 L 891.32204,600.2724 z "
       id="text1895" />
    <path
       style="font-size:186.56300353999998000px;font-style:normal;font-variant:normal;font-weight:normal;font-stretch:normal;text-align:center;line-height:125%;writing-mode:lr-tb;text-anchor:middle;font-family:Roadgeek 2005 Series D;stroke:none;fill:#000000"
       d="M 429.35744,875.64801 L 417.04251,840.57635 L 378.05376,840.57635 L 365.73882,875.64801 L 344.65597,875.64801 L 387.7554,750.64829 L 407.34087,750.64829 L 450.44029,875.64801 L 429.35744,875.64801 z M 397.82711,785.34988 L 384.95422,820.42723 L 409.95416,820.42723 L 397.82711,785.34988 z M 534.64643,875.64801 L 534.64643,821.17307 L 489.12729,821.17307 L 489.12729,875.64801 L 469.34824,875.64801 L 469.34824,750.64829 L 489.12729,750.64829 L 489.12729,801.02395 L 534.64643,801.02395 L 534.64643,750.64829 L 554.42548,750.64829 L 554.42548,875.64801 L 534.64643,875.64801 z M 584.12821,875.64801 L 584.12821,750.64829 L 657.82424,750.64829 L 657.82424,770.42734 L 603.90726,770.42734 L 603.90726,801.02395 L 640.28841,801.02395 L 640.28841,821.17307 L 603.90726,821.17307 L 603.90726,855.49889 L 661.74133,855.49889 L 661.74133,875.64801 L 584.12821,875.64801 z M 756.57146,875.64801 L 744.25653,840.57635 L 705.26778,840.57635 L 692.95284,875.64801 L 671.86999,875.64801 L 714.96942,750.64829 L 734.55489,750.64829 L 777.65431,875.64801 L 756.57146,875.64801 z M 725.04113,785.34988 L 712.16824,820.42723 L 737.16818,820.42723 L 725.04113,785.34988 z M 881.6395,812.96311 C 881.6394,825.52671 879.74253,836.56535 875.9489,846.07907 C 872.15507,855.59285 866.71308,863.08637 859.62292,868.55966 C 857.25817,870.79909 854.49021,872.47771 851.31903,873.59552 C 848.14771,874.71334 844.94514,875.3975 841.71133,875.64801 L 834.62298,875.64801 L 796.56226,875.64801 L 796.56226,750.64829 L 836.86051,750.64829 C 839.97287,750.64842 842.67915,750.74236 844.97937,750.93012 C 847.27946,751.11813 849.36231,751.46068 851.22793,751.95779 C 853.09341,752.45514 854.77203,753.1393 856.26379,754.01028 C 857.7554,754.88149 859.37234,755.93763 861.11461,757.17868 C 867.70754,762.90261 872.7766,770.52139 876.32182,780.03504 C 879.86684,789.54888 881.6394,800.5249 881.6395,812.96311 L 881.6395,812.96311 z M 861.49038,812.96311 C 861.4903,804.50651 860.58789,796.98168 858.78314,790.38858 C 856.97824,783.79566 854.52152,778.88221 851.41297,775.64824 C 849.79596,774.15665 847.93041,772.91358 845.81631,771.91903 C 843.70208,770.92467 841.3393,770.42745 838.72796,770.42734 L 816.34131,770.42734 L 816.34131,855.49889 L 836.11467,855.49889 C 839.34849,855.49891 842.05382,855.12599 844.23068,854.38012 C 846.40741,853.6343 848.36691,852.39029 850.10917,850.64807 C 853.8402,846.91699 856.66985,841.78624 858.5981,835.25582 C 860.52621,828.72548 861.4903,821.29459 861.49038,812.96311 L 861.49038,812.96311 z "
       id="text1901" />
  </g>
</svg>
