<?xml version="1.0" encoding="UTF-8" standalone="no"?>
<!-- Generator: Adobe Illustrator 14.0.0, SVG Export Plug-In  -->

<svg
   version="1.1"
   x="0px"
   y="0px"
   width="108.95812"
   height="108.94391"
   viewBox="0 -0.321 108.95811 108.94394"
   enable-background="new 0 -0.321 144 120"
   xml:space="preserve"
   id="svg2"
   inkscape:version="1.2.1 (9c6d41e410, 2022-07-14)"
   sodipodi:docname="W20-4.svg"
   xmlns:inkscape="http://www.inkscape.org/namespaces/inkscape"
   xmlns:sodipodi="http://sodipodi.sourceforge.net/DTD/sodipodi-0.dtd"
   xmlns="http://www.w3.org/2000/svg"
   xmlns:svg="http://www.w3.org/2000/svg"
   xmlns:rdf="http://www.w3.org/1999/02/22-rdf-syntax-ns#"
   xmlns:cc="http://creativecommons.org/ns#"
   xmlns:dc="http://purl.org/dc/elements/1.1/"><metadata
   id="metadata44"><rdf:RDF><cc:Work
       rdf:about=""><dc:format>image/svg+xml</dc:format><dc:type
         rdf:resource="http://purl.org/dc/dcmitype/StillImage" /></cc:Work></rdf:RDF></metadata><sodipodi:namedview
   pagecolor="#ffffff"
   bordercolor="#666666"
   borderopacity="1"
   objecttolerance="10"
   gridtolerance="10"
   guidetolerance="10"
   inkscape:pageopacity="0"
   inkscape:pageshadow="2"
   inkscape:window-width="1920"
   inkscape:window-height="1017"
   id="namedview42"
   showgrid="false"
   fit-margin-top="0"
   fit-margin-left="0"
   fit-margin-right="0"
   fit-margin-bottom="0"
   inkscape:zoom="5.3605324"
   inkscape:cx="44.398575"
   inkscape:cy="43.65238"
   inkscape:window-x="-8"
   inkscape:window-y="1144"
   inkscape:window-maximized="1"
   inkscape:current-layer="svg2"
   inkscape:showpageshadow="2"
   inkscape:pagecheckerboard="0"
   inkscape:deskcolor="#d1d1d1" />
<defs
   id="defs4">
</defs>


















<path
   inkscape:connector-curvature="0"
   d="M 51.560314,107.43231 1.2065487,57.078548 c -1.60874999,-1.60875 -1.60874999,-4.231251 0,-5.840002 L 51.557814,0.88728241 c 1.60875,-1.610001 4.233751,-1.611251 5.842501,-0.0025 L 107.75158,51.241046 c 1.60875,1.608751 1.60875,4.230002 0,5.838752 L 57.400315,107.43231 c -1.58875,1.58625 -4.250001,1.58875 -5.840001,0"
   style="fill:#f4911d;fill-opacity:1;fill-rule:nonzero;stroke:none"
   id="path6980" /><path
   inkscape:connector-curvature="0"
   d="M 52.361563,106.61219 2.0265487,56.278428 c -1.15749999,-1.160001 -1.15499999,-3.078751 0,-4.238751 L 52.359063,1.7071624 c 1.16,-1.15874999 3.076251,-1.15624999 4.240001,0 L 106.92908,52.042177 c 1.1575,1.16 1.16,3.075 0,4.236251 L 56.599064,106.61219 c -1.16125,1.1525 -3.078751,1.15625 -4.237501,0"
   style="fill:#000000;fill-opacity:1;fill-rule:evenodd;stroke:none"
   id="path6984" /><path
   inkscape:connector-curvature="0"
   d="M 53.481563,105.46231 3.1765487,55.157297 c -0.55625,-0.53875 -0.55625,-1.4575 0,-1.99625 L 53.481563,2.8572824 c 0.5375,-0.55625 1.455001,-0.55625 1.995001,0 L 105.78158,53.161047 c 0.55625,0.54 0.55625,1.45875 -0.002,1.99875 L 55.479064,105.46231 c -0.54,0.55625 -1.457501,0.55625 -1.997501,0"
   style="fill:#f4911d;fill-opacity:1;fill-rule:evenodd;stroke:none"
   id="path6988" /><path
   d="m 84.066562,46.000797 0,-1.5475 -4.026251,0 0,-3.638752 2.282501,0 0,-1.50875 -2.282501,0 0,-2.787501 3.601251,0 0,-1.5475 -5.187501,0 0,11.030003 5.612501,0 z m -7.971252,0 0,-11.030003 -1.590001,0 0,6.617502 -3.0175,-6.617502 -1.586251,0 0,11.030003 1.586251,0 0,-7.392502 3.406251,7.392502 1.20125,0 z m -10.451253,-4.566251 -1.587501,0 0.773751,-3.173751 0.81375,3.173751 z m 2.748751,4.566251 -2.748751,-11.030003 -1.548751,0 -2.74875,11.030003 1.5875,0 0.73625,-3.018751 2.361251,0 0.77375,3.018751 1.587501,0 z m -7.702502,0 0,-1.47125 -4.026252,0 0,-9.558753 -1.5875,0 0,11.030003 5.613752,0 z m -12.966254,0 0,-1.5475 -4.023751,0 0,-3.638752 2.2825,0 0,-1.50875 -2.2825,0 0,-2.787501 3.598751,0 0,-1.5475 -5.186252,0 0,11.030003 5.611252,0 z m -7.971253,0 0,-11.030003 -1.59,0 0,6.617502 -3.017501,-6.617502 -1.58625,0 0,11.030003 1.58625,0 0,-7.392502 3.408751,7.392502 1.19875,0 z m -9.910002,-5.535002 c 0,1.277501 -0.07625,1.935001 -0.34625,2.825001 -0.27125,0.93 -0.696251,1.355001 -1.355001,1.355001 -0.69625,0 -1.12125,-0.425001 -1.395,-1.355001 -0.23125,-0.89 -0.34625,-1.585 -0.34625,-2.785001 0,-1.24 0.07875,-1.975 0.34625,-2.825 0.27375,-0.930001 0.69875,-1.355001 1.395,-1.355001 0.65875,0 1.083751,0.425 1.355001,1.392501 0.23375,0.8125 0.34625,1.50875 0.34625,2.7475 m 1.50875,0 c 0,-1.66375 -0.15125,-2.70875 -0.6175,-3.792501 -0.5425,-1.355 -1.31625,-1.89625 -2.592501,-1.89625 -1.2775,0 -2.05125,0.54125 -2.63,1.8575 -0.466251,1.046251 -0.622501,2.167501 -0.622501,3.831251 0,1.703751 0.15625,2.748751 0.622501,3.832501 0.5425,1.315001 1.31375,1.901251 2.63,1.901251 1.240001,0 2.050001,-0.58625 2.592501,-1.901251 0.46625,-1.045 0.6175,-2.12875 0.6175,-3.832501"
   style="fill:#000000;fill-opacity:1;fill-rule:evenodd;stroke:none"
   id="path6892"
   inkscape:connector-curvature="0" /><path
   d="m 69.007808,56.51855 c 0,0.85125 -0.07625,1.625001 -0.15625,2.321251 -0.15125,0.85375 -0.65375,1.58875 -1.585001,1.58875 l -1.315,0 0,-7.935002 1.315,0 c 0.698751,0 1.160001,0.34875 1.433751,1.1225 0.1925,0.465001 0.3075,1.665001 0.3075,2.902501 m 1.55,-0.0775 c 0,-0.85125 -0.1175,-1.81875 -0.27375,-2.631251 -0.1925,-1.1225 -0.65625,-1.97375 -1.315,-2.43875 -0.38625,-0.30875 -0.8525,-0.425 -1.780001,-0.425 l -2.825,0 0,11.028753 3.05875,0 c 0.618751,0 1.160001,-0.155 1.546251,-0.50125 1.08375,-0.852501 1.58875,-2.478751 1.58875,-5.032502 m -10.451253,0.967501 -1.5875,0 0.77375,-3.173751 0.81375,3.173751 z m 2.748751,4.566251 -2.748751,-11.028753 -1.5475,0 -2.747501,11.028753 1.585001,0 0.7375,-3.017501 2.36,0 0.775001,3.017501 1.58625,0 z M 52.947803,56.44105 c 0,1.277501 -0.0775,1.935001 -0.34875,2.825001 -0.27125,0.92875 -0.69875,1.355 -1.355,1.355 -0.69625,0 -1.120001,-0.42625 -1.393751,-1.355 -0.2325,-0.89 -0.35,-1.585 -0.35,-2.786251 0,-1.2375 0.08125,-1.97375 0.35,-2.825001 0.27375,-0.92875 0.697501,-1.355 1.393751,-1.355 0.65625,0 1.08375,0.42625 1.355,1.3925 0.2325,0.813751 0.34875,1.508751 0.34875,2.748751 m 1.508751,0 c 0,-1.665 -0.15625,-2.708751 -0.62,-3.792501 -0.541251,-1.355 -1.313751,-1.89625 -2.592501,-1.89625 -1.276251,0 -2.051251,0.54125 -2.631251,1.8575 -0.465,1.045 -0.62125,2.166251 -0.62125,3.831251 0,1.702501 0.15625,2.748751 0.62125,3.832501 0.54125,1.315001 1.3175,1.900001 2.631251,1.900001 1.2375,0 2.05125,-0.585 2.592501,-1.900001 0.46375,-1.04625 0.62,-2.13 0.62,-3.832501 m -9.636253,-2.555001 c 0,0.890001 -0.505,1.395001 -1.4325,1.395001 l -1.626251,0 0,-2.787501 1.626251,0 c 0.85125,0 1.4325,0.5425 1.4325,1.3925 m 1.54625,8.088753 -1.585,-5.416252 c 1.0425,-0.3875 1.585,-1.3575 1.585,-2.672501 0,-1.77875 -1.16,-2.94 -2.90375,-2.94 l -3.286251,0 0,11.028753 1.585,0 0,-5.185002 1.50875,0 1.470001,5.185002 1.62625,0 z"
   style="fill:#000000;fill-opacity:1;fill-rule:evenodd;stroke:none"
   id="path6896"
   inkscape:connector-curvature="0" /><path
   d="m 74.772547,72.144878 c 0,1.409565 -0.309664,2.558651 -0.899884,3.186785 -0.275904,0.29662 -0.586731,0.408786 -1.108268,0.408786 h -1.555298 v -7.188648 h 1.762517 c 0.417928,0 0.763684,0.185698 1.004661,0.446173 0.486608,0.554605 0.796272,1.739834 0.796272,3.146904 m 1.593716,0 c 0,-2.07384 -0.589059,-3.741387 -1.627479,-4.704776 -0.51921,-0.443681 -0.898723,-0.555848 -1.903377,-0.555848 h -3.182773 v 10.562379 h 3.009315 0.552969 c 0.52037,-0.03863 1.03958,-0.224335 1.419094,-0.594485 1.107108,-0.927247 1.732251,-2.594793 1.732251,-4.70727 m -11.388836,0.63063 H 63.00653 l 1.002327,-2.964944 z m 3.185102,4.671125 -3.392321,-10.562379 h -1.557627 l -3.392319,10.562379 h 1.6624 l 0.968569,-2.964945 h 3.08033 l 0.969731,2.964945 z m -9.10129,0 v -1.706184 h -4.568104 v -2.890164 h 2.869617 v -1.706184 h -2.869617 v -2.5923 h 4.256113 v -1.667547 h -5.81374 v 10.562379 z m -8.444711,0 V 66.884254 h -1.559953 v 4.259847 H 45.459366 V 66.884254 H 43.89941 v 10.562379 h 1.559956 v -4.596348 h 3.597209 v 4.596348 z M 39.227696,72.775508 h -1.974391 l 1.005821,-2.964944 z m 3.182772,4.671125 -3.38999,-10.562379 h -1.559956 l -3.389991,10.562379 h 1.662401 L 36.7015,74.481688 h 3.077999 l 0.96857,2.964945 z"
   style="fill:#000000;fill-opacity:1;fill-rule:evenodd;stroke:none;stroke-width:0.963617"
   id="path5926"
   inkscape:connector-curvature="0" /></svg>
